<?xml version="1.0" standalone="no"?>
 <!DOCTYPE svg PUBLIC "-//W3C//DTD SVG 1.1//EN" 
 "http://www.w3.org/Graphics/SVG/1.1/DTD/svg11.dtd"> 
<svg xmlns="http://www.w3.org/2000/svg" version="1.1" 
    width="27.94cm" height="21.59cm" viewBox="0 0 110000 85000 ">
<title>SVG Picture created as 120-channel pogo pin board-F.Mask.svg date 2017/03/20 10:11:08 </title>
  <desc>Picture generated by PCBNEW </desc>
<g style="fill:#000000; fill-opacity:1;stroke:#000000; stroke-opacity:1;
stroke-linecap:round; stroke-linejoin:round; "
 transform="translate(0 0) scale(1 1)">
</g>
<g style="fill:#000000; fill-opacity:0.0; 
stroke:#000000; stroke-width:-0.000393701; stroke-opacity:1; 
stroke-linecap:round; stroke-linejoin:round;">
</g>
<g style="fill:#000000; fill-opacity:0.0; 
stroke:#000000; stroke-width:39.3701; stroke-opacity:1; 
stroke-linecap:round; stroke-linejoin:round;">
</g>
<g style="fill:#000000; fill-opacity:0.0; 
stroke:#000000; stroke-width:59.0551; stroke-opacity:1; 
stroke-linecap:round; stroke-linejoin:round;">
<rect x="62755.9" y="67677.2" width="42519.7" height="12598.4" rx="0" />
</g>
<g style="fill:#000000; fill-opacity:0.0; 
stroke:#000000; stroke-width:39.3701; stroke-opacity:1; 
stroke-linecap:round; stroke-linejoin:round;">
</g>
<g style="fill:#000000; fill-opacity:0.0; 
stroke:#000000; stroke-width:59.0551; stroke-opacity:1; 
stroke-linecap:round; stroke-linejoin:round;">
<rect x="3937.01" y="3937.01" width="102126" height="77126" rx="0" />
</g>
<g style="fill:#000000; fill-opacity:0.0; 
stroke:#000000; stroke-width:39.3701; stroke-opacity:1; 
stroke-linecap:round; stroke-linejoin:round;">
</g>
<g style="fill:#000000; fill-opacity:0.0; 
stroke:#000000; stroke-width:59.0551; stroke-opacity:1; 
stroke-linecap:round; stroke-linejoin:round;">
<rect x="4724.41" y="4724.41" width="100551" height="75551.2" rx="0" />
</g>
<g style="fill:#000000; fill-opacity:0.0; 
stroke:#000000; stroke-width:39.3701; stroke-opacity:1; 
stroke-linecap:round; stroke-linejoin:round;">
</g>
<g style="fill:#000000; fill-opacity:0.0; 
stroke:#000000; stroke-width:59.0551; stroke-opacity:1; 
stroke-linecap:round; stroke-linejoin:round;">
<path d="M23622 4724
L23622 3937
" />
</g>
<g style="fill:#000000; fill-opacity:0.0; 
stroke:#000000; stroke-width:39.3701; stroke-opacity:1; 
stroke-linecap:round; stroke-linejoin:round;">
</g>
<g style="fill:#000000; fill-opacity:0.0; 
stroke:#000000; stroke-width:59.0551; stroke-opacity:1; 
stroke-linecap:round; stroke-linejoin:round;">
<path d="M43307 4724
L43307 3937
" />
</g>
<g style="fill:#000000; fill-opacity:0.0; 
stroke:#000000; stroke-width:39.3701; stroke-opacity:1; 
stroke-linecap:round; stroke-linejoin:round;">
</g>
<g style="fill:#000000; fill-opacity:0.0; 
stroke:#000000; stroke-width:59.0551; stroke-opacity:1; 
stroke-linecap:round; stroke-linejoin:round;">
<path d="M62992 4724
L62992 3937
" />
</g>
<g style="fill:#000000; fill-opacity:0.0; 
stroke:#000000; stroke-width:39.3701; stroke-opacity:1; 
stroke-linecap:round; stroke-linejoin:round;">
</g>
<g style="fill:#000000; fill-opacity:0.0; 
stroke:#000000; stroke-width:59.0551; stroke-opacity:1; 
stroke-linecap:round; stroke-linejoin:round;">
<path d="M82677 4724
L82677 3937
" />
</g>
<g style="fill:#000000; fill-opacity:0.0; 
stroke:#000000; stroke-width:39.3701; stroke-opacity:1; 
stroke-linecap:round; stroke-linejoin:round;">
</g>
<g style="fill:#000000; fill-opacity:0.0; 
stroke:#000000; stroke-width:59.0551; stroke-opacity:1; 
stroke-linecap:round; stroke-linejoin:round;">
<path d="M102362 4724
L102362 3937
" />
</g>
<g style="fill:#000000; fill-opacity:0.0; 
stroke:#000000; stroke-width:39.3701; stroke-opacity:1; 
stroke-linecap:round; stroke-linejoin:round;">
</g>
<g style="fill:#000000; fill-opacity:0.0; 
stroke:#000000; stroke-width:59.0551; stroke-opacity:1; 
stroke-linecap:round; stroke-linejoin:round;">
<path d="M14169 4562
L13877 4562
" />
<path d="M14023 4562
L14023 4050
L13974 4123
L13925 4172
L13877 4196
" />
</g>
<g style="fill:#000000; fill-opacity:0.0; 
stroke:#000000; stroke-width:39.3701; stroke-opacity:1; 
stroke-linecap:round; stroke-linejoin:round;">
</g>
<g style="fill:#000000; fill-opacity:0.0; 
stroke:#000000; stroke-width:59.0551; stroke-opacity:1; 
stroke-linecap:round; stroke-linejoin:round;">
<path d="M33562 4099
L33586 4074
L33635 4050
L33757 4050
L33805 4074
L33830 4099
L33854 4147
L33854 4196
L33830 4269
L33537 4562
L33854 4562
" />
</g>
<g style="fill:#000000; fill-opacity:0.0; 
stroke:#000000; stroke-width:39.3701; stroke-opacity:1; 
stroke-linecap:round; stroke-linejoin:round;">
</g>
<g style="fill:#000000; fill-opacity:0.0; 
stroke:#000000; stroke-width:59.0551; stroke-opacity:1; 
stroke-linecap:round; stroke-linejoin:round;">
<path d="M53222 4050
L53539 4050
L53368 4245
L53442 4245
L53490 4269
L53515 4294
L53539 4342
L53539 4464
L53515 4513
L53490 4537
L53442 4562
L53295 4562
L53247 4537
L53222 4513
" />
</g>
<g style="fill:#000000; fill-opacity:0.0; 
stroke:#000000; stroke-width:39.3701; stroke-opacity:1; 
stroke-linecap:round; stroke-linejoin:round;">
</g>
<g style="fill:#000000; fill-opacity:0.0; 
stroke:#000000; stroke-width:59.0551; stroke-opacity:1; 
stroke-linecap:round; stroke-linejoin:round;">
<path d="M73175 4221
L73175 4562
" />
<path d="M73053 4026
L72932 4391
L73248 4391
" />
</g>
<g style="fill:#000000; fill-opacity:0.0; 
stroke:#000000; stroke-width:39.3701; stroke-opacity:1; 
stroke-linecap:round; stroke-linejoin:round;">
</g>
<g style="fill:#000000; fill-opacity:0.0; 
stroke:#000000; stroke-width:59.0551; stroke-opacity:1; 
stroke-linecap:round; stroke-linejoin:round;">
<path d="M92885 4050
L92641 4050
L92617 4294
L92641 4269
L92690 4245
L92812 4245
L92860 4269
L92885 4294
L92909 4342
L92909 4464
L92885 4513
L92860 4537
L92812 4562
L92690 4562
L92641 4537
L92617 4513
" />
</g>
<g style="fill:#000000; fill-opacity:0.0; 
stroke:#000000; stroke-width:39.3701; stroke-opacity:1; 
stroke-linecap:round; stroke-linejoin:round;">
</g>
<g style="fill:#000000; fill-opacity:0.0; 
stroke:#000000; stroke-width:59.0551; stroke-opacity:1; 
stroke-linecap:round; stroke-linejoin:round;">
<path d="M23622 80275
L23622 81062
" />
</g>
<g style="fill:#000000; fill-opacity:0.0; 
stroke:#000000; stroke-width:39.3701; stroke-opacity:1; 
stroke-linecap:round; stroke-linejoin:round;">
</g>
<g style="fill:#000000; fill-opacity:0.0; 
stroke:#000000; stroke-width:59.0551; stroke-opacity:1; 
stroke-linecap:round; stroke-linejoin:round;">
<path d="M43307 80275
L43307 81062
" />
</g>
<g style="fill:#000000; fill-opacity:0.0; 
stroke:#000000; stroke-width:39.3701; stroke-opacity:1; 
stroke-linecap:round; stroke-linejoin:round;">
</g>
<g style="fill:#000000; fill-opacity:0.0; 
stroke:#000000; stroke-width:59.0551; stroke-opacity:1; 
stroke-linecap:round; stroke-linejoin:round;">
<path d="M62992 80275
L62992 81062
" />
</g>
<g style="fill:#000000; fill-opacity:0.0; 
stroke:#000000; stroke-width:39.3701; stroke-opacity:1; 
stroke-linecap:round; stroke-linejoin:round;">
</g>
<g style="fill:#000000; fill-opacity:0.0; 
stroke:#000000; stroke-width:59.0551; stroke-opacity:1; 
stroke-linecap:round; stroke-linejoin:round;">
<path d="M82677 80275
L82677 81062
" />
</g>
<g style="fill:#000000; fill-opacity:0.0; 
stroke:#000000; stroke-width:39.3701; stroke-opacity:1; 
stroke-linecap:round; stroke-linejoin:round;">
</g>
<g style="fill:#000000; fill-opacity:0.0; 
stroke:#000000; stroke-width:59.0551; stroke-opacity:1; 
stroke-linecap:round; stroke-linejoin:round;">
<path d="M102362 80275
L102362 81062
" />
</g>
<g style="fill:#000000; fill-opacity:0.0; 
stroke:#000000; stroke-width:39.3701; stroke-opacity:1; 
stroke-linecap:round; stroke-linejoin:round;">
</g>
<g style="fill:#000000; fill-opacity:0.0; 
stroke:#000000; stroke-width:59.0551; stroke-opacity:1; 
stroke-linecap:round; stroke-linejoin:round;">
<path d="M14169 80900
L13877 80900
" />
<path d="M14023 80900
L14023 80389
L13974 80462
L13925 80510
L13877 80535
" />
</g>
<g style="fill:#000000; fill-opacity:0.0; 
stroke:#000000; stroke-width:39.3701; stroke-opacity:1; 
stroke-linecap:round; stroke-linejoin:round;">
</g>
<g style="fill:#000000; fill-opacity:0.0; 
stroke:#000000; stroke-width:59.0551; stroke-opacity:1; 
stroke-linecap:round; stroke-linejoin:round;">
<path d="M33562 80437
L33586 80413
L33635 80389
L33757 80389
L33805 80413
L33830 80437
L33854 80486
L33854 80535
L33830 80608
L33537 80900
L33854 80900
" />
</g>
<g style="fill:#000000; fill-opacity:0.0; 
stroke:#000000; stroke-width:39.3701; stroke-opacity:1; 
stroke-linecap:round; stroke-linejoin:round;">
</g>
<g style="fill:#000000; fill-opacity:0.0; 
stroke:#000000; stroke-width:59.0551; stroke-opacity:1; 
stroke-linecap:round; stroke-linejoin:round;">
<path d="M53222 80389
L53539 80389
L53368 80583
L53442 80583
L53490 80608
L53515 80632
L53539 80681
L53539 80803
L53515 80852
L53490 80876
L53442 80900
L53295 80900
L53247 80876
L53222 80852
" />
</g>
<g style="fill:#000000; fill-opacity:0.0; 
stroke:#000000; stroke-width:39.3701; stroke-opacity:1; 
stroke-linecap:round; stroke-linejoin:round;">
</g>
<g style="fill:#000000; fill-opacity:0.0; 
stroke:#000000; stroke-width:59.0551; stroke-opacity:1; 
stroke-linecap:round; stroke-linejoin:round;">
<path d="M73175 80559
L73175 80900
" />
<path d="M73053 80364
L72932 80730
L73248 80730
" />
</g>
<g style="fill:#000000; fill-opacity:0.0; 
stroke:#000000; stroke-width:39.3701; stroke-opacity:1; 
stroke-linecap:round; stroke-linejoin:round;">
</g>
<g style="fill:#000000; fill-opacity:0.0; 
stroke:#000000; stroke-width:59.0551; stroke-opacity:1; 
stroke-linecap:round; stroke-linejoin:round;">
<path d="M92885 80389
L92641 80389
L92617 80632
L92641 80608
L92690 80583
L92812 80583
L92860 80608
L92885 80632
L92909 80681
L92909 80803
L92885 80852
L92860 80876
L92812 80900
L92690 80900
L92641 80876
L92617 80852
" />
</g>
<g style="fill:#000000; fill-opacity:0.0; 
stroke:#000000; stroke-width:39.3701; stroke-opacity:1; 
stroke-linecap:round; stroke-linejoin:round;">
</g>
<g style="fill:#000000; fill-opacity:0.0; 
stroke:#000000; stroke-width:59.0551; stroke-opacity:1; 
stroke-linecap:round; stroke-linejoin:round;">
<path d="M3937 23622
L4724 23622
" />
</g>
<g style="fill:#000000; fill-opacity:0.0; 
stroke:#000000; stroke-width:39.3701; stroke-opacity:1; 
stroke-linecap:round; stroke-linejoin:round;">
</g>
<g style="fill:#000000; fill-opacity:0.0; 
stroke:#000000; stroke-width:59.0551; stroke-opacity:1; 
stroke-linecap:round; stroke-linejoin:round;">
<path d="M3937 43307
L4724 43307
" />
</g>
<g style="fill:#000000; fill-opacity:0.0; 
stroke:#000000; stroke-width:39.3701; stroke-opacity:1; 
stroke-linecap:round; stroke-linejoin:round;">
</g>
<g style="fill:#000000; fill-opacity:0.0; 
stroke:#000000; stroke-width:59.0551; stroke-opacity:1; 
stroke-linecap:round; stroke-linejoin:round;">
<path d="M3937 62992
L4724 62992
" />
</g>
<g style="fill:#000000; fill-opacity:0.0; 
stroke:#000000; stroke-width:39.3701; stroke-opacity:1; 
stroke-linecap:round; stroke-linejoin:round;">
</g>
<g style="fill:#000000; fill-opacity:0.0; 
stroke:#000000; stroke-width:59.0551; stroke-opacity:1; 
stroke-linecap:round; stroke-linejoin:round;">
<path d="M4208 13864
L4452 13864
" />
<path d="M4160 14011
L4330 13499
L4501 14011
" />
</g>
<g style="fill:#000000; fill-opacity:0.0; 
stroke:#000000; stroke-width:39.3701; stroke-opacity:1; 
stroke-linecap:round; stroke-linejoin:round;">
</g>
<g style="fill:#000000; fill-opacity:0.0; 
stroke:#000000; stroke-width:59.0551; stroke-opacity:1; 
stroke-linecap:round; stroke-linejoin:round;">
<path d="M4367 33428
L4440 33452
L4464 33476
L4489 33525
L4489 33598
L4464 33647
L4440 33671
L4391 33696
L4196 33696
L4196 33184
L4367 33184
L4416 33208
L4440 33233
L4464 33281
L4464 33330
L4440 33379
L4416 33403
L4367 33428
L4196 33428
" />
</g>
<g style="fill:#000000; fill-opacity:0.0; 
stroke:#000000; stroke-width:39.3701; stroke-opacity:1; 
stroke-linecap:round; stroke-linejoin:round;">
</g>
<g style="fill:#000000; fill-opacity:0.0; 
stroke:#000000; stroke-width:59.0551; stroke-opacity:1; 
stroke-linecap:round; stroke-linejoin:round;">
<path d="M4489 53332
L4464 53356
L4391 53381
L4342 53381
L4269 53356
L4221 53308
L4196 53259
L4172 53161
L4172 53088
L4196 52991
L4221 52942
L4269 52893
L4342 52869
L4391 52869
L4464 52893
L4489 52918
" />
</g>
<g style="fill:#000000; fill-opacity:0.0; 
stroke:#000000; stroke-width:39.3701; stroke-opacity:1; 
stroke-linecap:round; stroke-linejoin:round;">
</g>
<g style="fill:#000000; fill-opacity:0.0; 
stroke:#000000; stroke-width:59.0551; stroke-opacity:1; 
stroke-linecap:round; stroke-linejoin:round;">
<path d="M4196 73066
L4196 72554
L4318 72554
L4391 72578
L4440 72627
L4464 72676
L4489 72773
L4489 72846
L4464 72944
L4440 72993
L4391 73041
L4318 73066
L4196 73066
" />
</g>
<g style="fill:#000000; fill-opacity:0.0; 
stroke:#000000; stroke-width:39.3701; stroke-opacity:1; 
stroke-linecap:round; stroke-linejoin:round;">
</g>
<g style="fill:#000000; fill-opacity:0.0; 
stroke:#000000; stroke-width:59.0551; stroke-opacity:1; 
stroke-linecap:round; stroke-linejoin:round;">
<path d="M106062 23622
L105275 23622
" />
</g>
<g style="fill:#000000; fill-opacity:0.0; 
stroke:#000000; stroke-width:39.3701; stroke-opacity:1; 
stroke-linecap:round; stroke-linejoin:round;">
</g>
<g style="fill:#000000; fill-opacity:0.0; 
stroke:#000000; stroke-width:59.0551; stroke-opacity:1; 
stroke-linecap:round; stroke-linejoin:round;">
<path d="M106062 43307
L105275 43307
" />
</g>
<g style="fill:#000000; fill-opacity:0.0; 
stroke:#000000; stroke-width:39.3701; stroke-opacity:1; 
stroke-linecap:round; stroke-linejoin:round;">
</g>
<g style="fill:#000000; fill-opacity:0.0; 
stroke:#000000; stroke-width:59.0551; stroke-opacity:1; 
stroke-linecap:round; stroke-linejoin:round;">
<path d="M106062 62992
L105275 62992
" />
</g>
<g style="fill:#000000; fill-opacity:0.0; 
stroke:#000000; stroke-width:39.3701; stroke-opacity:1; 
stroke-linecap:round; stroke-linejoin:round;">
</g>
<g style="fill:#000000; fill-opacity:0.0; 
stroke:#000000; stroke-width:59.0551; stroke-opacity:1; 
stroke-linecap:round; stroke-linejoin:round;">
<path d="M105547 13864
L105791 13864
" />
<path d="M105498 14011
L105669 13499
L105839 14011
" />
</g>
<g style="fill:#000000; fill-opacity:0.0; 
stroke:#000000; stroke-width:39.3701; stroke-opacity:1; 
stroke-linecap:round; stroke-linejoin:round;">
</g>
<g style="fill:#000000; fill-opacity:0.0; 
stroke:#000000; stroke-width:59.0551; stroke-opacity:1; 
stroke-linecap:round; stroke-linejoin:round;">
<path d="M105705 33428
L105778 33452
L105803 33476
L105827 33525
L105827 33598
L105803 33647
L105778 33671
L105730 33696
L105535 33696
L105535 33184
L105705 33184
L105754 33208
L105778 33233
L105803 33281
L105803 33330
L105778 33379
L105754 33403
L105705 33428
L105535 33428
" />
</g>
<g style="fill:#000000; fill-opacity:0.0; 
stroke:#000000; stroke-width:39.3701; stroke-opacity:1; 
stroke-linecap:round; stroke-linejoin:round;">
</g>
<g style="fill:#000000; fill-opacity:0.0; 
stroke:#000000; stroke-width:59.0551; stroke-opacity:1; 
stroke-linecap:round; stroke-linejoin:round;">
<path d="M105827 53332
L105803 53356
L105730 53381
L105681 53381
L105608 53356
L105559 53308
L105535 53259
L105510 53161
L105510 53088
L105535 52991
L105559 52942
L105608 52893
L105681 52869
L105730 52869
L105803 52893
L105827 52918
" />
</g>
<g style="fill:#000000; fill-opacity:0.0; 
stroke:#000000; stroke-width:39.3701; stroke-opacity:1; 
stroke-linecap:round; stroke-linejoin:round;">
</g>
<g style="fill:#000000; fill-opacity:0.0; 
stroke:#000000; stroke-width:59.0551; stroke-opacity:1; 
stroke-linecap:round; stroke-linejoin:round;">
<path d="M105535 73066
L105535 72554
L105657 72554
L105730 72578
L105778 72627
L105803 72676
L105827 72773
L105827 72846
L105803 72944
L105778 72993
L105730 73041
L105657 73066
L105535 73066
" />
</g>
<g style="fill:#000000; fill-opacity:0.0; 
stroke:#000000; stroke-width:39.3701; stroke-opacity:1; 
stroke-linecap:round; stroke-linejoin:round;">
</g>
<g style="fill:#000000; fill-opacity:0.0; 
stroke:#000000; stroke-width:59.0551; stroke-opacity:1; 
stroke-linecap:round; stroke-linejoin:round;">
<path d="M71951 78613
L71951 78023
L72092 78023
L72176 78051
L72232 78107
L72260 78163
L72289 78276
L72289 78360
L72260 78473
L72232 78529
L72176 78585
L72092 78613
L71951 78613
" />
<path d="M72795 78613
L72795 78304
L72767 78248
L72710 78219
L72598 78219
L72542 78248
" />
<path d="M72795 78585
L72739 78613
L72598 78613
L72542 78585
L72514 78529
L72514 78473
L72542 78416
L72598 78388
L72739 78388
L72795 78360
" />
<path d="M72992 78219
L73217 78219
" />
<path d="M73076 78023
L73076 78529
L73104 78585
L73160 78613
L73217 78613
" />
<path d="M73638 78585
L73582 78613
L73470 78613
L73413 78585
L73385 78529
L73385 78304
L73413 78248
L73470 78219
L73582 78219
L73638 78248
L73667 78304
L73667 78360
L73385 78416
" />
<path d="M73920 78557
L73948 78585
L73920 78613
L73892 78585
L73920 78557
L73920 78613
" />
<path d="M73920 78248
L73948 78276
L73920 78304
L73892 78276
L73920 78248
L73920 78304
" />
<path d="M74623 78079
L74651 78051
L74707 78023
L74848 78023
L74904 78051
L74932 78079
L74960 78135
L74960 78191
L74932 78276
L74595 78613
L74960 78613
" />
<path d="M75326 78023
L75382 78023
L75438 78051
L75466 78079
L75494 78135
L75523 78248
L75523 78388
L75494 78501
L75466 78557
L75438 78585
L75382 78613
L75326 78613
L75269 78585
L75241 78557
L75213 78501
L75185 78388
L75185 78248
L75213 78135
L75241 78079
L75269 78051
L75326 78023
" />
<path d="M76085 78613
L75748 78613
" />
<path d="M75916 78613
L75916 78023
L75860 78107
L75804 78163
L75748 78191
" />
<path d="M76591 78023
L76479 78023
L76422 78051
L76394 78079
L76338 78163
L76310 78276
L76310 78501
L76338 78557
L76366 78585
L76422 78613
L76535 78613
L76591 78585
L76619 78557
L76647 78501
L76647 78360
L76619 78304
L76591 78276
L76535 78248
L76422 78248
L76366 78276
L76338 78304
L76310 78360
" />
<path d="M76901 78388
L77350 78388
" />
<path d="M77941 78613
L77604 78613
" />
<path d="M77772 78613
L77772 78023
L77716 78107
L77660 78163
L77604 78191
" />
<path d="M78503 78613
L78166 78613
" />
<path d="M78335 78613
L78335 78023
L78278 78107
L78222 78163
L78166 78191
" />
<path d="M78757 78388
L79206 78388
" />
<path d="M79797 78613
L79460 78613
" />
<path d="M79628 78613
L79628 78023
L79572 78107
L79516 78163
L79460 78191
" />
<path d="M80134 78276
L80078 78248
L80050 78219
L80022 78163
L80022 78135
L80050 78079
L80078 78051
L80134 78023
L80247 78023
L80303 78051
L80331 78079
L80359 78135
L80359 78163
L80331 78219
L80303 78248
L80247 78276
L80134 78276
L80078 78304
L80050 78332
L80022 78388
L80022 78501
L80050 78557
L80078 78585
L80134 78613
L80247 78613
L80303 78585
L80331 78557
L80359 78501
L80359 78388
L80331 78332
L80303 78304
L80247 78276
" />
</g>
<g style="fill:#000000; fill-opacity:0.0; 
stroke:#000000; stroke-width:39.3701; stroke-opacity:1; 
stroke-linecap:round; stroke-linejoin:round;">
</g>
<g style="fill:#000000; fill-opacity:0.0; 
stroke:#000000; stroke-width:59.0551; stroke-opacity:1; 
stroke-linecap:round; stroke-linejoin:round;">
<path d="M62755 78897
L105275 78897
" />
</g>
<g style="fill:#000000; fill-opacity:0.0; 
stroke:#000000; stroke-width:39.3701; stroke-opacity:1; 
stroke-linecap:round; stroke-linejoin:round;">
</g>
<g style="fill:#000000; fill-opacity:0.0; 
stroke:#000000; stroke-width:59.0551; stroke-opacity:1; 
stroke-linecap:round; stroke-linejoin:round;">
<path d="M63290 79715
L63290 79125
" />
<path d="M63627 79715
L63374 79378
" />
<path d="M63627 79125
L63290 79462
" />
<path d="M63880 79715
L63880 79322
" />
<path d="M63880 79125
L63852 79153
L63880 79181
L63908 79153
L63880 79125
L63880 79181
" />
<path d="M64499 79659
L64471 79687
L64386 79715
L64330 79715
L64246 79687
L64190 79631
L64161 79575
L64133 79462
L64133 79378
L64161 79266
L64190 79209
L64246 79153
L64330 79125
L64386 79125
L64471 79153
L64499 79181
" />
<path d="M65005 79715
L65005 79406
L64977 79350
L64921 79322
L64808 79322
L64752 79350
" />
<path d="M65005 79687
L64949 79715
L64808 79715
L64752 79687
L64724 79631
L64724 79575
L64752 79519
L64808 79491
L64949 79491
L65005 79462
" />
<path d="M65539 79715
L65539 79125
" />
<path d="M65539 79687
L65483 79715
L65371 79715
L65314 79687
L65286 79659
L65258 79603
L65258 79434
L65286 79378
L65314 79350
L65371 79322
L65483 79322
L65539 79350
" />
<path d="M66271 79406
L66467 79406
" />
<path d="M66552 79715
L66271 79715
L66271 79125
L66552 79125
" />
<path d="M66805 79659
L66833 79687
L66805 79715
L66777 79687
L66805 79659
L66805 79715
" />
<path d="M67086 79715
L67086 79125
L67227 79125
L67311 79153
L67367 79209
L67395 79266
L67424 79378
L67424 79462
L67395 79575
L67367 79631
L67311 79687
L67227 79715
L67086 79715
" />
<path d="M67677 79659
L67705 79687
L67677 79715
L67649 79687
L67677 79659
L67677 79715
" />
<path d="M67930 79547
L68211 79547
" />
<path d="M67874 79715
L68070 79125
L68267 79715
" />
<path d="M68464 79659
L68492 79687
L68464 79715
L68436 79687
L68464 79659
L68464 79715
" />
<path d="M69645 79715
L69645 79125
" />
<path d="M69701 79491
L69870 79715
" />
<path d="M69870 79322
L69645 79547
" />
<path d="M70123 79715
L70123 79322
" />
<path d="M70123 79125
L70095 79153
L70123 79181
L70151 79153
L70123 79125
L70123 79181
" />
<path d="M70658 79687
L70601 79715
L70489 79715
L70433 79687
L70404 79659
L70376 79603
L70376 79434
L70404 79378
L70433 79350
L70489 79322
L70601 79322
L70658 79350
" />
<path d="M71164 79715
L71164 79406
L71136 79350
L71079 79322
L70967 79322
L70911 79350
" />
<path d="M71164 79687
L71107 79715
L70967 79715
L70911 79687
L70883 79631
L70883 79575
L70911 79519
L70967 79491
L71107 79491
L71164 79462
" />
<path d="M71698 79715
L71698 79125
" />
<path d="M71698 79687
L71642 79715
L71529 79715
L71473 79687
L71445 79659
L71417 79603
L71417 79434
L71445 79378
L71473 79350
L71529 79322
L71642 79322
L71698 79350
" />
<path d="M72682 79322
L72682 79715
" />
<path d="M72542 79097
L72401 79519
L72767 79519
" />
<path d="M72992 79659
L73020 79687
L72992 79715
L72964 79687
L72992 79659
L72992 79715
" />
<path d="M73385 79125
L73442 79125
L73498 79153
L73526 79181
L73554 79237
L73582 79350
L73582 79491
L73554 79603
L73526 79659
L73498 79687
L73442 79715
L73385 79715
L73329 79687
L73301 79659
L73273 79603
L73245 79491
L73245 79350
L73273 79237
L73301 79181
L73329 79153
L73385 79125
" />
<path d="M73835 79659
L73863 79687
L73835 79715
L73807 79687
L73835 79659
L73835 79715
" />
<path d="M74426 79715
L74088 79715
" />
<path d="M74257 79715
L74257 79125
L74201 79209
L74145 79266
L74088 79294
" />
<path d="M74679 79491
L75129 79491
" />
<path d="M75382 79687
L75438 79715
L75551 79715
L75607 79687
L75635 79631
L75635 79603
L75607 79547
L75551 79519
L75466 79519
L75410 79491
L75382 79434
L75382 79406
L75410 79350
L75466 79322
L75551 79322
L75607 79350
" />
<path d="M75804 79322
L76029 79322
" />
<path d="M75888 79125
L75888 79631
L75916 79687
L75973 79715
L76029 79715
" />
<path d="M76479 79715
L76479 79406
L76451 79350
L76394 79322
L76282 79322
L76226 79350
" />
<path d="M76479 79687
L76422 79715
L76282 79715
L76226 79687
L76197 79631
L76197 79575
L76226 79519
L76282 79491
L76422 79491
L76479 79462
" />
<path d="M76760 79715
L76760 79125
" />
<path d="M76760 79350
L76816 79322
L76929 79322
L76985 79350
L77013 79378
L77041 79434
L77041 79603
L77013 79659
L76985 79687
L76929 79715
L76816 79715
L76760 79687
" />
<path d="M77379 79715
L77322 79687
L77294 79631
L77294 79125
" />
<path d="M77829 79687
L77772 79715
L77660 79715
L77604 79687
L77575 79631
L77575 79406
L77604 79350
L77660 79322
L77772 79322
L77829 79350
L77857 79406
L77857 79462
L77575 79519
" />
</g>
<g style="fill:#000000; fill-opacity:0.0; 
stroke:#000000; stroke-width:39.3701; stroke-opacity:1; 
stroke-linecap:round; stroke-linejoin:round;">
</g>
<g style="fill:#000000; fill-opacity:0.0; 
stroke:#000000; stroke-width:59.0551; stroke-opacity:1; 
stroke-linecap:round; stroke-linejoin:round;">
<path d="M62755 77716
L105275 77716
" />
</g>
<g style="fill:#000000; fill-opacity:0.0; 
stroke:#000000; stroke-width:39.3701; stroke-opacity:1; 
stroke-linecap:round; stroke-linejoin:round;">
</g>
<g style="fill:#000000; fill-opacity:0.0; 
stroke:#000000; stroke-width:118.11; stroke-opacity:1; 
stroke-linecap:round; stroke-linejoin:round;">
<path d="M97092 78613
L96895 78332
" />
<path d="M96754 78613
L96754 78023
L96979 78023
L97035 78051
L97064 78079
L97092 78135
L97092 78219
L97064 78276
L97035 78304
L96979 78332
L96754 78332
" />
<path d="M97570 78585
L97514 78613
L97401 78613
L97345 78585
L97317 78529
L97317 78304
L97345 78248
L97401 78219
L97514 78219
L97570 78248
L97598 78304
L97598 78360
L97317 78416
" />
<path d="M97795 78219
L97935 78613
L98076 78219
" />
<path d="M98301 78557
L98329 78585
L98301 78613
L98273 78585
L98301 78557
L98301 78613
" />
<path d="M98301 78248
L98329 78276
L98301 78304
L98273 78276
L98301 78248
L98301 78304
" />
<path d="M98976 78219
L99116 78613
L99257 78219
" />
<path d="M99454 78079
L99482 78051
L99538 78023
L99679 78023
L99735 78051
L99763 78079
L99791 78135
L99791 78191
L99763 78276
L99426 78613
L99791 78613
" />
<path d="M100044 78557
L100073 78585
L100044 78613
L100016 78585
L100044 78557
L100044 78613
" />
<path d="M100438 78023
L100494 78023
L100551 78051
L100579 78079
L100607 78135
L100635 78248
L100635 78388
L100607 78501
L100579 78557
L100551 78585
L100494 78613
L100438 78613
L100382 78585
L100354 78557
L100326 78501
L100298 78388
L100298 78248
L100326 78135
L100354 78079
L100382 78051
L100438 78023
" />
</g>
<g style="fill:#000000; fill-opacity:0.0; 
stroke:#000000; stroke-width:39.3701; stroke-opacity:1; 
stroke-linecap:round; stroke-linejoin:round;">
</g>
<g style="fill:#000000; fill-opacity:0.0; 
stroke:#000000; stroke-width:59.0551; stroke-opacity:1; 
stroke-linecap:round; stroke-linejoin:round;">
<path d="M63262 78585
L63346 78613
L63487 78613
L63543 78585
L63571 78557
L63599 78501
L63599 78444
L63571 78388
L63543 78360
L63487 78332
L63374 78304
L63318 78276
L63290 78248
L63262 78191
L63262 78135
L63290 78079
L63318 78051
L63374 78023
L63515 78023
L63599 78051
" />
<path d="M63852 78613
L63852 78219
" />
<path d="M63852 78023
L63824 78051
L63852 78079
L63880 78051
L63852 78023
L63852 78079
" />
<path d="M64077 78219
L64386 78219
L64077 78613
L64386 78613
" />
<path d="M64836 78585
L64780 78613
L64668 78613
L64611 78585
L64583 78529
L64583 78304
L64611 78248
L64668 78219
L64780 78219
L64836 78248
L64865 78304
L64865 78360
L64583 78416
" />
<path d="M65118 78557
L65146 78585
L65118 78613
L65089 78585
L65118 78557
L65118 78613
" />
<path d="M65118 78248
L65146 78276
L65118 78304
L65089 78276
L65118 78248
L65118 78304
" />
<path d="M65849 78023
L65849 78501
L65877 78557
L65905 78585
L65961 78613
L66074 78613
L66130 78585
L66158 78557
L66186 78501
L66186 78023
" />
<path d="M66439 78585
L66524 78613
L66664 78613
L66721 78585
L66749 78557
L66777 78501
L66777 78444
L66749 78388
L66721 78360
L66664 78332
L66552 78304
L66496 78276
L66467 78248
L66439 78191
L66439 78135
L66467 78079
L66496 78051
L66552 78023
L66692 78023
L66777 78051
" />
<path d="M67311 78613
L67030 78613
L67030 78023
" />
<path d="M67733 78585
L67677 78613
L67564 78613
L67508 78585
L67480 78529
L67480 78304
L67508 78248
L67564 78219
L67677 78219
L67733 78248
L67761 78304
L67761 78360
L67480 78416
" />
<path d="M67930 78219
L68155 78219
" />
<path d="M68014 78023
L68014 78529
L68042 78585
L68098 78613
L68155 78613
" />
<path d="M68267 78219
L68492 78219
" />
<path d="M68352 78023
L68352 78529
L68380 78585
L68436 78613
L68492 78613
" />
<path d="M68914 78585
L68858 78613
L68745 78613
L68689 78585
L68661 78529
L68661 78304
L68689 78248
L68745 78219
L68858 78219
L68914 78248
L68942 78304
L68942 78360
L68661 78416
" />
<path d="M69195 78613
L69195 78219
" />
<path d="M69195 78332
L69223 78276
L69251 78248
L69308 78219
L69364 78219
" />
</g>
<g style="fill:#000000; fill-opacity:0.0; 
stroke:#000000; stroke-width:39.3701; stroke-opacity:1; 
stroke-linecap:round; stroke-linejoin:round;">
</g>
<g style="fill:#000000; fill-opacity:0.0; 
stroke:#000000; stroke-width:59.0551; stroke-opacity:1; 
stroke-linecap:round; stroke-linejoin:round;">
<path d="M96754 79715
L96754 79125
" />
<path d="M97289 79715
L97289 79125
" />
<path d="M97289 79687
L97232 79715
L97120 79715
L97064 79687
L97035 79659
L97007 79603
L97007 79434
L97035 79378
L97064 79350
L97120 79322
L97232 79322
L97289 79350
" />
<path d="M97570 79659
L97598 79687
L97570 79715
L97542 79687
L97570 79659
L97570 79715
" />
<path d="M97570 79350
L97598 79378
L97570 79406
L97542 79378
L97570 79350
L97570 79406
" />
<path d="M98610 79715
L98273 79715
" />
<path d="M98442 79715
L98442 79125
L98385 79209
L98329 79266
L98273 79294
" />
<path d="M99285 79097
L98779 79856
" />
<path d="M99791 79715
L99454 79715
" />
<path d="M99623 79715
L99623 79125
L99566 79209
L99510 79266
L99454 79294
" />
</g>
<g style="fill:#000000; fill-opacity:0.0; 
stroke:#000000; stroke-width:39.3701; stroke-opacity:1; 
stroke-linecap:round; stroke-linejoin:round;">
</g>
<g style="fill:#000000; fill-opacity:0.0; 
stroke:#000000; stroke-width:59.0551; stroke-opacity:1; 
stroke-linecap:round; stroke-linejoin:round;">
<path d="M62755 76141
L105275 76141
" />
</g>
<g style="fill:#000000; fill-opacity:0.0; 
stroke:#000000; stroke-width:39.3701; stroke-opacity:1; 
stroke-linecap:round; stroke-linejoin:round;">
</g>
<g style="fill:#000000; fill-opacity:0.0; 
stroke:#000000; stroke-width:157.48; stroke-opacity:1; 
stroke-linecap:round; stroke-linejoin:round;">
<path d="M63327 76419
L63777 76419
" />
<path d="M63454 77206
L63552 76419
" />
<path d="M63941 77206
L64007 76681
" />
<path d="M64040 76419
L63997 76456
L64030 76494
L64072 76456
L64040 76419
L64030 76494
" />
<path d="M64269 76681
L64569 76681
" />
<path d="M64415 76419
L64330 77094
L64358 77169
L64429 77206
L64504 77206
" />
<path d="M64879 77206
L64808 77169
L64780 77094
L64865 76419
" />
<path d="M65483 77169
L65404 77206
L65254 77206
L65183 77169
L65155 77094
L65193 76794
L65239 76719
L65319 76681
L65469 76681
L65539 76719
L65568 76794
L65558 76869
L65174 76944
" />
<path d="M65863 77131
L65896 77169
L65853 77206
L65821 77169
L65863 77131
L65853 77206
" />
<path d="M65914 76719
L65947 76756
L65905 76794
L65872 76756
L65914 76719
L65905 76794
" />
<path d="M67241 77206
L66791 77206
" />
<path d="M67016 77206
L67114 76419
L67025 76531
L66941 76606
L66861 76644
" />
<path d="M67630 76494
L67672 76456
L67752 76419
L67939 76419
L68009 76456
L68042 76494
L68070 76569
L68061 76644
L68009 76756
L67503 77206
L67991 77206
" />
<path d="M68577 76419
L68652 76419
L68722 76456
L68755 76494
L68783 76569
L68802 76719
L68778 76906
L68722 77056
L68675 77131
L68633 77169
L68553 77206
L68478 77206
L68408 77169
L68375 77131
L68347 77056
L68328 76906
L68352 76719
L68408 76569
L68455 76494
L68497 76456
L68577 76419
" />
<path d="M69116 76906
L69715 76906
" />
<path d="M70395 77169
L70315 77206
L70165 77206
L70095 77169
L70062 77131
L70034 77056
L70062 76831
L70109 76756
L70151 76719
L70231 76681
L70381 76681
L70451 76719
" />
<path d="M70728 77206
L70826 76419
" />
<path d="M71065 77206
L71117 76794
L71089 76719
L71018 76681
L70906 76681
L70826 76719
L70784 76756
" />
<path d="M71778 77206
L71829 76794
L71801 76719
L71731 76681
L71581 76681
L71501 76719
" />
<path d="M71782 77169
L71703 77206
L71515 77206
L71445 77169
L71417 77094
L71426 77019
L71473 76944
L71553 76906
L71740 76906
L71820 76869
" />
<path d="M72218 76681
L72153 77206
" />
<path d="M72209 76756
L72251 76719
L72331 76681
L72443 76681
L72514 76719
L72542 76794
L72490 77206
" />
<path d="M72931 76681
L72865 77206
" />
<path d="M72921 76756
L72964 76719
L73043 76681
L73156 76681
L73226 76719
L73254 76794
L73203 77206
" />
<path d="M73882 77169
L73802 77206
L73652 77206
L73582 77169
L73554 77094
L73592 76794
L73638 76719
L73718 76681
L73868 76681
L73938 76719
L73967 76794
L73957 76869
L73573 76944
" />
<path d="M74365 77206
L74295 77169
L74266 77094
L74351 76419
" />
<path d="M75330 76681
L75232 77469
" />
<path d="M75326 76719
L75405 76681
L75555 76681
L75626 76719
L75658 76756
L75687 76831
L75658 77056
L75612 77131
L75569 77169
L75490 77206
L75340 77206
L75269 77169
" />
<path d="M76090 77206
L76019 77169
L75987 77131
L75958 77056
L75987 76831
L76033 76756
L76076 76719
L76155 76681
L76268 76681
L76338 76719
L76371 76756
L76399 76831
L76371 77056
L76324 77131
L76282 77169
L76202 77206
L76090 77206
" />
<path d="M77093 76681
L77013 77319
L76966 77394
L76924 77431
L76844 77469
L76732 77469
L76661 77431
" />
<path d="M77032 77169
L76952 77206
L76802 77206
L76732 77169
L76699 77131
L76671 77056
L76699 76831
L76746 76756
L76788 76719
L76868 76681
L77018 76681
L77088 76719
" />
<path d="M77514 77206
L77444 77169
L77411 77131
L77383 77056
L77411 76831
L77458 76756
L77500 76719
L77580 76681
L77693 76681
L77763 76719
L77796 76756
L77824 76831
L77796 77056
L77749 77131
L77707 77169
L77627 77206
L77514 77206
" />
<path d="M78780 76681
L78682 77469
" />
<path d="M78775 76719
L78855 76681
L79005 76681
L79075 76719
L79108 76756
L79136 76831
L79108 77056
L79061 77131
L79019 77169
L78939 77206
L78789 77206
L78719 77169
" />
<path d="M79427 77206
L79492 76681
" />
<path d="M79525 76419
L79483 76456
L79516 76494
L79558 76456
L79525 76419
L79516 76494
" />
<path d="M79867 76681
L79802 77206
" />
<path d="M79858 76756
L79900 76719
L79980 76681
L80092 76681
L80163 76719
L80191 76794
L80139 77206
" />
<path d="M81114 77206
L81212 76419
" />
<path d="M81175 76719
L81255 76681
L81405 76681
L81475 76719
L81508 76756
L81536 76831
L81508 77056
L81461 77131
L81419 77169
L81339 77206
L81189 77206
L81119 77169
" />
<path d="M81939 77206
L81869 77169
L81836 77131
L81808 77056
L81836 76831
L81883 76756
L81925 76719
L82005 76681
L82117 76681
L82187 76719
L82220 76756
L82248 76831
L82220 77056
L82173 77131
L82131 77169
L82051 77206
L81939 77206
" />
<path d="M82876 77206
L82928 76794
L82900 76719
L82829 76681
L82679 76681
L82600 76719
" />
<path d="M82881 77169
L82801 77206
L82614 77206
L82544 77169
L82515 77094
L82525 77019
L82572 76944
L82651 76906
L82839 76906
L82919 76869
" />
<path d="M83251 77206
L83317 76681
" />
<path d="M83298 76831
L83345 76756
L83387 76719
L83467 76681
L83542 76681
" />
<path d="M84076 77206
L84175 76419
" />
<path d="M84081 77169
L84001 77206
L83851 77206
L83781 77169
L83748 77131
L83720 77056
L83748 76831
L83795 76756
L83837 76719
L83917 76681
L84067 76681
L84137 76719
" />
</g>
<g style="fill:#000000; fill-opacity:0.0; 
stroke:#000000; stroke-width:39.3701; stroke-opacity:1; 
stroke-linecap:round; stroke-linejoin:round;">
</g>
<g style="fill:#000000; fill-opacity:0.0; 
stroke:#000000; stroke-width:59.0551; stroke-opacity:1; 
stroke-linecap:round; stroke-linejoin:round;">
<path d="M63487 75390
L63290 75390
" />
<path d="M63290 75700
L63290 75109
L63571 75109
" />
<path d="M63796 75700
L63796 75306
" />
<path d="M63796 75109
L63768 75137
L63796 75165
L63824 75137
L63796 75109
L63796 75165
" />
<path d="M64161 75700
L64105 75672
L64077 75615
L64077 75109
" />
<path d="M64611 75672
L64555 75700
L64443 75700
L64386 75672
L64358 75615
L64358 75390
L64386 75334
L64443 75306
L64555 75306
L64611 75334
L64640 75390
L64640 75447
L64358 75503
" />
<path d="M64893 75643
L64921 75672
L64893 75700
L64865 75672
L64893 75643
L64893 75700
" />
<path d="M64893 75334
L64921 75362
L64893 75390
L64865 75362
L64893 75334
L64893 75390
" />
<path d="M65933 75700
L65596 75700
" />
<path d="M65764 75700
L65764 75109
L65708 75194
L65652 75250
L65596 75278
" />
<path d="M66158 75165
L66186 75137
L66242 75109
L66383 75109
L66439 75137
L66467 75165
L66496 75222
L66496 75278
L66467 75362
L66130 75700
L66496 75700
" />
<path d="M66861 75109
L66917 75109
L66974 75137
L67002 75165
L67030 75222
L67058 75334
L67058 75475
L67030 75587
L67002 75643
L66974 75672
L66917 75700
L66861 75700
L66805 75672
L66777 75643
L66749 75587
L66721 75475
L66721 75334
L66749 75222
L66777 75165
L66805 75137
L66861 75109
" />
<path d="M67311 75475
L67761 75475
" />
<path d="M68295 75672
L68239 75700
L68127 75700
L68070 75672
L68042 75643
L68014 75587
L68014 75419
L68042 75362
L68070 75334
L68127 75306
L68239 75306
L68295 75334
" />
<path d="M68548 75700
L68548 75109
" />
<path d="M68802 75700
L68802 75390
L68773 75334
L68717 75306
L68633 75306
L68577 75334
L68548 75362
" />
<path d="M69336 75700
L69336 75390
L69308 75334
L69251 75306
L69139 75306
L69083 75334
" />
<path d="M69336 75672
L69280 75700
L69139 75700
L69083 75672
L69055 75615
L69055 75559
L69083 75503
L69139 75475
L69280 75475
L69336 75447
" />
<path d="M69617 75306
L69617 75700
" />
<path d="M69617 75362
L69645 75334
L69701 75306
L69786 75306
L69842 75334
L69870 75390
L69870 75700
" />
<path d="M70151 75306
L70151 75700
" />
<path d="M70151 75362
L70179 75334
L70236 75306
L70320 75306
L70376 75334
L70404 75390
L70404 75700
" />
<path d="M70911 75672
L70854 75700
L70742 75700
L70686 75672
L70658 75615
L70658 75390
L70686 75334
L70742 75306
L70854 75306
L70911 75334
L70939 75390
L70939 75447
L70658 75503
" />
<path d="M71276 75700
L71220 75672
L71192 75615
L71192 75109
" />
<path d="M71951 75306
L71951 75897
" />
<path d="M71951 75334
L72007 75306
L72120 75306
L72176 75334
L72204 75362
L72232 75419
L72232 75587
L72204 75643
L72176 75672
L72120 75700
L72007 75700
L71951 75672
" />
<path d="M72570 75700
L72514 75672
L72485 75643
L72457 75587
L72457 75419
L72485 75362
L72514 75334
L72570 75306
L72654 75306
L72710 75334
L72739 75362
L72767 75419
L72767 75587
L72739 75643
L72710 75672
L72654 75700
L72570 75700
" />
<path d="M73273 75306
L73273 75784
L73245 75840
L73217 75868
L73160 75897
L73076 75897
L73020 75868
" />
<path d="M73273 75672
L73217 75700
L73104 75700
L73048 75672
L73020 75643
L72992 75587
L72992 75419
L73020 75362
L73048 75334
L73104 75306
L73217 75306
L73273 75334
" />
<path d="M73638 75700
L73582 75672
L73554 75643
L73526 75587
L73526 75419
L73554 75362
L73582 75334
L73638 75306
L73723 75306
L73779 75334
L73807 75362
L73835 75419
L73835 75587
L73807 75643
L73779 75672
L73723 75700
L73638 75700
" />
<path d="M74538 75306
L74538 75897
" />
<path d="M74538 75334
L74595 75306
L74707 75306
L74763 75334
L74791 75362
L74820 75419
L74820 75587
L74791 75643
L74763 75672
L74707 75700
L74595 75700
L74538 75672
" />
<path d="M75073 75700
L75073 75306
" />
<path d="M75073 75109
L75044 75137
L75073 75165
L75101 75137
L75073 75109
L75073 75165
" />
<path d="M75354 75306
L75354 75700
" />
<path d="M75354 75362
L75382 75334
L75438 75306
L75523 75306
L75579 75334
L75607 75390
L75607 75700
" />
<path d="M76338 75700
L76338 75109
" />
<path d="M76338 75334
L76394 75306
L76507 75306
L76563 75334
L76591 75362
L76619 75419
L76619 75587
L76591 75643
L76563 75672
L76507 75700
L76394 75700
L76338 75672
" />
<path d="M76957 75700
L76901 75672
L76872 75643
L76844 75587
L76844 75419
L76872 75362
L76901 75334
L76957 75306
L77041 75306
L77097 75334
L77125 75362
L77154 75419
L77154 75587
L77125 75643
L77097 75672
L77041 75700
L76957 75700
" />
<path d="M77660 75700
L77660 75390
L77632 75334
L77575 75306
L77463 75306
L77407 75334
" />
<path d="M77660 75672
L77604 75700
L77463 75700
L77407 75672
L77379 75615
L77379 75559
L77407 75503
L77463 75475
L77604 75475
L77660 75447
" />
<path d="M77941 75700
L77941 75306
" />
<path d="M77941 75419
L77969 75362
L77997 75334
L78053 75306
L78110 75306
" />
<path d="M78560 75700
L78560 75109
" />
<path d="M78560 75672
L78503 75700
L78391 75700
L78335 75672
L78307 75643
L78278 75587
L78278 75419
L78307 75362
L78335 75334
L78391 75306
L78503 75306
L78560 75334
" />
<path d="M78841 75643
L78869 75672
L78841 75700
L78813 75672
L78841 75643
L78841 75700
" />
<path d="M79122 75700
L79122 75109
" />
<path d="M79178 75475
L79347 75700
" />
<path d="M79347 75306
L79122 75531
" />
<path d="M79600 75700
L79600 75306
" />
<path d="M79600 75109
L79572 75137
L79600 75165
L79628 75137
L79600 75109
L79600 75165
" />
<path d="M80134 75672
L80078 75700
L79966 75700
L79910 75672
L79881 75643
L79853 75587
L79853 75419
L79881 75362
L79910 75334
L79966 75306
L80078 75306
L80134 75334
" />
<path d="M80641 75700
L80641 75390
L80613 75334
L80556 75306
L80444 75306
L80388 75334
" />
<path d="M80641 75672
L80584 75700
L80444 75700
L80388 75672
L80359 75615
L80359 75559
L80388 75503
L80444 75475
L80584 75475
L80641 75447
" />
<path d="M81175 75700
L81175 75109
" />
<path d="M81175 75672
L81119 75700
L81006 75700
L80950 75672
L80922 75643
L80894 75587
L80894 75419
L80922 75362
L80950 75334
L81006 75306
L81119 75306
L81175 75334
" />
<path d="M81316 75756
L81766 75756
" />
<path d="M81906 75306
L81906 75897
" />
<path d="M81906 75334
L81962 75306
L82075 75306
L82131 75334
L82159 75362
L82187 75419
L82187 75587
L82159 75643
L82131 75672
L82075 75700
L81962 75700
L81906 75672
" />
<path d="M82694 75672
L82637 75700
L82525 75700
L82469 75672
L82440 75643
L82412 75587
L82412 75419
L82440 75362
L82469 75334
L82525 75306
L82637 75306
L82694 75334
" />
<path d="M82947 75700
L82947 75109
" />
<path d="M82947 75334
L83003 75306
L83115 75306
L83172 75334
L83200 75362
L83228 75419
L83228 75587
L83200 75643
L83172 75672
L83115 75700
L83003 75700
L82947 75672
" />
</g>
<g style="fill:#000000; fill-opacity:0.0; 
stroke:#000000; stroke-width:39.3701; stroke-opacity:1; 
stroke-linecap:round; stroke-linejoin:round;">
</g>
<g style="fill:#000000; fill-opacity:0.0; 
stroke:#000000; stroke-width:59.0551; stroke-opacity:1; 
stroke-linecap:round; stroke-linejoin:round;">
<path d="M62755 73779
L105275 73779
" />
</g>
<g style="fill:#000000; fill-opacity:0.0; 
stroke:#000000; stroke-width:39.3701; stroke-opacity:1; 
stroke-linecap:round; stroke-linejoin:round;">
</g>
<g style="fill:#000000; fill-opacity:0.0; 
stroke:#000000; stroke-width:59.0551; stroke-opacity:1; 
stroke-linecap:round; stroke-linejoin:round;">
<path d="M63262 74609
L63346 74637
L63487 74637
L63543 74609
L63571 74580
L63599 74524
L63599 74468
L63571 74412
L63543 74384
L63487 74356
L63374 74327
L63318 74299
L63290 74271
L63262 74215
L63262 74159
L63290 74102
L63318 74074
L63374 74046
L63515 74046
L63599 74074
" />
<path d="M63852 74637
L63852 74046
" />
<path d="M64105 74637
L64105 74327
L64077 74271
L64021 74243
L63937 74243
L63880 74271
L63852 74299
" />
<path d="M64611 74609
L64555 74637
L64443 74637
L64386 74609
L64358 74552
L64358 74327
L64386 74271
L64443 74243
L64555 74243
L64611 74271
L64640 74327
L64640 74384
L64358 74440
" />
<path d="M65118 74609
L65061 74637
L64949 74637
L64893 74609
L64865 74552
L64865 74327
L64893 74271
L64949 74243
L65061 74243
L65118 74271
L65146 74327
L65146 74384
L64865 74440
" />
<path d="M65314 74243
L65539 74243
" />
<path d="M65399 74046
L65399 74552
L65427 74609
L65483 74637
L65539 74637
" />
<path d="M65736 74580
L65764 74609
L65736 74637
L65708 74609
L65736 74580
L65736 74637
" />
<path d="M65736 74271
L65764 74299
L65736 74327
L65708 74299
L65736 74271
L65736 74327
" />
</g>
<g style="fill:#000000; fill-opacity:0.0; 
stroke:#000000; stroke-width:39.3701; stroke-opacity:1; 
stroke-linecap:round; stroke-linejoin:round;">
</g>
<g style="fill:#000000; fill-opacity:0.0; 
stroke:#000000; stroke-width:59.0551; stroke-opacity:1; 
stroke-linecap:round; stroke-linejoin:round;">
<path d="M70629 77716
L70629 78897
" />
</g>
<g style="fill:#000000; fill-opacity:0.0; 
stroke:#000000; stroke-width:39.3701; stroke-opacity:1; 
stroke-linecap:round; stroke-linejoin:round;">
</g>
<g style="fill:#000000; fill-opacity:0.0; 
stroke:#000000; stroke-width:59.0551; stroke-opacity:1; 
stroke-linecap:round; stroke-linejoin:round;">
<path d="M95826 77716
L95826 80275
" />
</g>
<g style="fill:#000000; fill-opacity:0.0; 
stroke:#000000; stroke-width:150; stroke-opacity:1; 
stroke-linecap:round; stroke-linejoin:round;">
<path d="M60685 29527
L48956 29527
" />
<path d="M18055 29527
L29783 29527
" />
<path d="M90295 47645
L90295 47645
" />
<path d="M18055 58371
L60685 58371
" />
<path d="M29783 29527
L29783 49212
" />
<path d="M48956 29527
L48956 49212
" />
<path d="M60685 58371
L60685 29527
" />
<path d="M18055 29527
L18055 58371
" />
<path d="M29783 49212
L48956 49212
" />
</g>
<g style="fill:#000000; fill-opacity:0.0; 
stroke:#000000; stroke-width:0; stroke-opacity:1; 
stroke-linecap:round; stroke-linejoin:round;">
</g>
<g style="fill:#000000; fill-opacity:1.0; 
stroke:#000000; stroke-width:0; stroke-opacity:1; 
stroke-linecap:round; stroke-linejoin:round;">
<polyline style="fill-rule:evenodd;"
points="24952,31807
24952,30938
25821,30938
25821,31807
24952,31807
" /> 
</g>
<g style="fill:#000000; fill-opacity:1.0; 
stroke:#000000; stroke-width:869.291; stroke-opacity:1; 
stroke-linecap:round; stroke-linejoin:round;">
</g>
<g style="fill:#000000; fill-opacity:0.0; 
stroke:#000000; stroke-width:869.291; stroke-opacity:1; 
stroke-linecap:round; stroke-linejoin:round;">
<path d="M26387 31373
L26387 31373
" />
<path d="M25387 32373
L25387 32373
" />
<path d="M26387 32373
L26387 32373
" />
<path d="M25387 33373
L25387 33373
" />
<path d="M26387 33373
L26387 33373
" />
<path d="M25387 34373
L25387 34373
" />
<path d="M26387 34373
L26387 34373
" />
<path d="M25387 35373
L25387 35373
" />
<path d="M26387 35373
L26387 35373
" />
<path d="M25387 36373
L25387 36373
" />
<path d="M26387 36373
L26387 36373
" />
<path d="M25387 37373
L25387 37373
" />
<path d="M26387 37373
L26387 37373
" />
<path d="M25387 38373
L25387 38373
" />
<path d="M26387 38373
L26387 38373
" />
<path d="M25387 39373
L25387 39373
" />
<path d="M26387 39373
L26387 39373
" />
<path d="M25387 40373
L25387 40373
" />
<path d="M26387 40373
L26387 40373
" />
<path d="M25387 41373
L25387 41373
" />
<path d="M26387 41373
L26387 41373
" />
<path d="M25387 42373
L25387 42373
" />
<path d="M26387 42373
L26387 42373
" />
<path d="M25387 43373
L25387 43373
" />
<path d="M26387 43373
L26387 43373
" />
<path d="M25387 44373
L25387 44373
" />
<path d="M26387 44373
L26387 44373
" />
<path d="M25387 45373
L25387 45373
" />
<path d="M26387 45373
L26387 45373
" />
<path d="M25387 46373
L25387 46373
" />
<path d="M26387 46373
L26387 46373
" />
<path d="M26387 47373
L26387 47373
" />
<path d="M25387 47373
L25387 47373
" />
</g>
<g style="fill:#000000; fill-opacity:0.0; 
stroke:#000000; stroke-width:0; stroke-opacity:1; 
stroke-linecap:round; stroke-linejoin:round;">
</g>
<g style="fill:#000000; fill-opacity:1.0; 
stroke:#000000; stroke-width:0; stroke-opacity:1; 
stroke-linecap:round; stroke-linejoin:round;">
<polyline style="fill-rule:evenodd;"
points="33625,57955
33625,56881
34115,56881
34115,57955
33625,57955
" /> 
<polyline style="fill-rule:evenodd;"
points="33625,56881
33625,55807
34115,55807
34115,56881
33625,56881
" /> 
<polyline style="fill-rule:evenodd;"
points="37125,57955
37125,56881
37615,56881
37615,57955
37125,57955
" /> 
<polyline style="fill-rule:evenodd;"
points="37125,56881
37125,55807
37615,55807
37615,56881
37125,56881
" /> 
<polyline style="fill-rule:evenodd;"
points="36625,57955
36625,56881
37115,56881
37115,57955
36625,57955
" /> 
<polyline style="fill-rule:evenodd;"
points="36625,56881
36625,55807
37115,55807
37115,56881
36625,56881
" /> 
<polyline style="fill-rule:evenodd;"
points="36125,57955
36125,56881
36615,56881
36615,57955
36125,57955
" /> 
<polyline style="fill-rule:evenodd;"
points="36125,56881
36125,55807
36615,55807
36615,56881
36125,56881
" /> 
<polyline style="fill-rule:evenodd;"
points="35625,57955
35625,56881
36115,56881
36115,57955
35625,57955
" /> 
<polyline style="fill-rule:evenodd;"
points="35625,56881
35625,55807
36115,55807
36115,56881
35625,56881
" /> 
<polyline style="fill-rule:evenodd;"
points="40625,56881
40625,55807
41115,55807
41115,56881
40625,56881
" /> 
<polyline style="fill-rule:evenodd;"
points="40625,57955
40625,56881
41115,56881
41115,57955
40625,57955
" /> 
<polyline style="fill-rule:evenodd;"
points="41125,56881
41125,55807
41615,55807
41615,56881
41125,56881
" /> 
<polyline style="fill-rule:evenodd;"
points="41125,57955
41125,56881
41615,56881
41615,57955
41125,57955
" /> 
<polyline style="fill-rule:evenodd;"
points="41625,56881
41625,55807
42115,55807
42115,56881
41625,56881
" /> 
<polyline style="fill-rule:evenodd;"
points="41625,57955
41625,56881
42115,56881
42115,57955
41625,57955
" /> 
<polyline style="fill-rule:evenodd;"
points="42125,56881
42125,55807
42615,55807
42615,56881
42125,56881
" /> 
<polyline style="fill-rule:evenodd;"
points="42125,57955
42125,56881
42615,56881
42615,57955
42125,57955
" /> 
<polyline style="fill-rule:evenodd;"
points="42625,56881
42625,55807
43115,55807
43115,56881
42625,56881
" /> 
<polyline style="fill-rule:evenodd;"
points="42625,57955
42625,56881
43115,56881
43115,57955
42625,57955
" /> 
<polyline style="fill-rule:evenodd;"
points="33125,56881
33125,55807
33615,55807
33615,56881
33125,56881
" /> 
<polyline style="fill-rule:evenodd;"
points="33125,57955
33125,56881
33615,56881
33615,57955
33125,57955
" /> 
<polyline style="fill-rule:evenodd;"
points="34125,56881
34125,55807
34615,55807
34615,56881
34125,56881
" /> 
<polyline style="fill-rule:evenodd;"
points="34125,57955
34125,56881
34615,56881
34615,57955
34125,57955
" /> 
<polyline style="fill-rule:evenodd;"
points="34625,56881
34625,55807
35115,55807
35115,56881
34625,56881
" /> 
<polyline style="fill-rule:evenodd;"
points="34625,57955
34625,56881
35115,56881
35115,57955
34625,57955
" /> 
<polyline style="fill-rule:evenodd;"
points="35125,56881
35125,55807
35615,55807
35615,56881
35125,56881
" /> 
<polyline style="fill-rule:evenodd;"
points="35125,57955
35125,56881
35615,56881
35615,57955
35125,57955
" /> 
<polyline style="fill-rule:evenodd;"
points="37625,56881
37625,55807
38115,55807
38115,56881
37625,56881
" /> 
<polyline style="fill-rule:evenodd;"
points="37625,57955
37625,56881
38115,56881
38115,57955
37625,57955
" /> 
<polyline style="fill-rule:evenodd;"
points="45125,57955
45125,56881
45615,56881
45615,57955
45125,57955
" /> 
<polyline style="fill-rule:evenodd;"
points="45125,56881
45125,55807
45615,55807
45615,56881
45125,56881
" /> 
<polyline style="fill-rule:evenodd;"
points="44625,57955
44625,56881
45115,56881
45115,57955
44625,57955
" /> 
<polyline style="fill-rule:evenodd;"
points="44625,56881
44625,55807
45115,55807
45115,56881
44625,56881
" /> 
<polyline style="fill-rule:evenodd;"
points="44125,57955
44125,56881
44615,56881
44615,57955
44125,57955
" /> 
<polyline style="fill-rule:evenodd;"
points="44125,56881
44125,55807
44615,55807
44615,56881
44125,56881
" /> 
<polyline style="fill-rule:evenodd;"
points="43625,57955
43625,56881
44115,56881
44115,57955
43625,57955
" /> 
<polyline style="fill-rule:evenodd;"
points="43625,56881
43625,55807
44115,55807
44115,56881
43625,56881
" /> 
<polyline style="fill-rule:evenodd;"
points="43125,57955
43125,56881
43615,56881
43615,57955
43125,57955
" /> 
<polyline style="fill-rule:evenodd;"
points="43125,56881
43125,55807
43615,55807
43615,56881
43125,56881
" /> 
<polyline style="fill-rule:evenodd;"
points="40125,57955
40125,56881
40615,56881
40615,57955
40125,57955
" /> 
<polyline style="fill-rule:evenodd;"
points="40125,56881
40125,55807
40615,55807
40615,56881
40125,56881
" /> 
<polyline style="fill-rule:evenodd;"
points="39625,57955
39625,56881
40115,56881
40115,57955
39625,57955
" /> 
<polyline style="fill-rule:evenodd;"
points="39625,56881
39625,55807
40115,55807
40115,56881
39625,56881
" /> 
<polyline style="fill-rule:evenodd;"
points="39125,57955
39125,56881
39615,56881
39615,57955
39125,57955
" /> 
<polyline style="fill-rule:evenodd;"
points="39125,56881
39125,55807
39615,55807
39615,56881
39125,56881
" /> 
<polyline style="fill-rule:evenodd;"
points="38625,57955
38625,56881
39115,56881
39115,57955
38625,57955
" /> 
<polyline style="fill-rule:evenodd;"
points="38625,56881
38625,55807
39115,55807
39115,56881
38625,56881
" /> 
<polyline style="fill-rule:evenodd;"
points="38125,57955
38125,56881
38615,56881
38615,57955
38125,57955
" /> 
<polyline style="fill-rule:evenodd;"
points="38125,56881
38125,55807
38615,55807
38615,56881
38125,56881
" /> 
<polyline style="fill-rule:evenodd;"
points="24915,56881
24915,55807
25405,55807
25405,56881
24915,56881
" /> 
<polyline style="fill-rule:evenodd;"
points="24915,57955
24915,56881
25405,56881
25405,57955
24915,57955
" /> 
<polyline style="fill-rule:evenodd;"
points="25415,56881
25415,55807
25905,55807
25905,56881
25415,56881
" /> 
<polyline style="fill-rule:evenodd;"
points="25415,57955
25415,56881
25905,56881
25905,57955
25415,57955
" /> 
<polyline style="fill-rule:evenodd;"
points="25915,56881
25915,55807
26405,55807
26405,56881
25915,56881
" /> 
<polyline style="fill-rule:evenodd;"
points="25915,57955
25915,56881
26405,56881
26405,57955
25915,57955
" /> 
<polyline style="fill-rule:evenodd;"
points="26415,56881
26415,55807
26905,55807
26905,56881
26415,56881
" /> 
<polyline style="fill-rule:evenodd;"
points="26415,57955
26415,56881
26905,56881
26905,57955
26415,57955
" /> 
<polyline style="fill-rule:evenodd;"
points="26915,56881
26915,55807
27405,55807
27405,56881
26915,56881
" /> 
<polyline style="fill-rule:evenodd;"
points="26915,57955
26915,56881
27405,56881
27405,57955
26915,57955
" /> 
<polyline style="fill-rule:evenodd;"
points="19915,56881
19915,55807
20405,55807
20405,56881
19915,56881
" /> 
<polyline style="fill-rule:evenodd;"
points="19915,57955
19915,56881
20405,56881
20405,57955
19915,57955
" /> 
<polyline style="fill-rule:evenodd;"
points="20415,56881
20415,55807
20905,55807
20905,56881
20415,56881
" /> 
<polyline style="fill-rule:evenodd;"
points="20415,57955
20415,56881
20905,56881
20905,57955
20415,57955
" /> 
<polyline style="fill-rule:evenodd;"
points="20915,56881
20915,55807
21405,55807
21405,56881
20915,56881
" /> 
<polyline style="fill-rule:evenodd;"
points="20915,57955
20915,56881
21405,56881
21405,57955
20915,57955
" /> 
<polyline style="fill-rule:evenodd;"
points="21415,56881
21415,55807
21905,55807
21905,56881
21415,56881
" /> 
<polyline style="fill-rule:evenodd;"
points="21415,57955
21415,56881
21905,56881
21905,57955
21415,57955
" /> 
<polyline style="fill-rule:evenodd;"
points="21915,56881
21915,55807
22405,55807
22405,56881
21915,56881
" /> 
<polyline style="fill-rule:evenodd;"
points="21915,57955
21915,56881
22405,56881
22405,57955
21915,57955
" /> 
<polyline style="fill-rule:evenodd;"
points="29415,57955
29415,56881
29905,56881
29905,57955
29415,57955
" /> 
<polyline style="fill-rule:evenodd;"
points="29415,56881
29415,55807
29905,55807
29905,56881
29415,56881
" /> 
<polyline style="fill-rule:evenodd;"
points="28915,57955
28915,56881
29405,56881
29405,57955
28915,57955
" /> 
<polyline style="fill-rule:evenodd;"
points="28915,56881
28915,55807
29405,55807
29405,56881
28915,56881
" /> 
<polyline style="fill-rule:evenodd;"
points="28415,57955
28415,56881
28905,56881
28905,57955
28415,57955
" /> 
<polyline style="fill-rule:evenodd;"
points="28415,56881
28415,55807
28905,55807
28905,56881
28415,56881
" /> 
<polyline style="fill-rule:evenodd;"
points="27915,57955
27915,56881
28405,56881
28405,57955
27915,57955
" /> 
<polyline style="fill-rule:evenodd;"
points="27915,56881
27915,55807
28405,55807
28405,56881
27915,56881
" /> 
<polyline style="fill-rule:evenodd;"
points="27415,57955
27415,56881
27905,56881
27905,57955
27415,57955
" /> 
<polyline style="fill-rule:evenodd;"
points="27415,56881
27415,55807
27905,55807
27905,56881
27415,56881
" /> 
<polyline style="fill-rule:evenodd;"
points="24415,57955
24415,56881
24905,56881
24905,57955
24415,57955
" /> 
<polyline style="fill-rule:evenodd;"
points="24415,56881
24415,55807
24905,55807
24905,56881
24415,56881
" /> 
<polyline style="fill-rule:evenodd;"
points="23915,57955
23915,56881
24405,56881
24405,57955
23915,57955
" /> 
<polyline style="fill-rule:evenodd;"
points="23915,56881
23915,55807
24405,55807
24405,56881
23915,56881
" /> 
<polyline style="fill-rule:evenodd;"
points="23415,57955
23415,56881
23905,56881
23905,57955
23415,57955
" /> 
<polyline style="fill-rule:evenodd;"
points="23415,56881
23415,55807
23905,55807
23905,56881
23415,56881
" /> 
<polyline style="fill-rule:evenodd;"
points="22915,57955
22915,56881
23405,56881
23405,57955
22915,57955
" /> 
<polyline style="fill-rule:evenodd;"
points="22915,56881
22915,55807
23405,55807
23405,56881
22915,56881
" /> 
<polyline style="fill-rule:evenodd;"
points="22415,57955
22415,56881
22905,56881
22905,57955
22415,57955
" /> 
<polyline style="fill-rule:evenodd;"
points="22415,56881
22415,55807
22905,55807
22905,56881
22415,56881
" /> 
<polyline style="fill-rule:evenodd;"
points="53835,56881
53835,55807
54325,55807
54325,56881
53835,56881
" /> 
<polyline style="fill-rule:evenodd;"
points="53835,57955
53835,56881
54325,56881
54325,57955
53835,57955
" /> 
<polyline style="fill-rule:evenodd;"
points="54335,56881
54335,55807
54825,55807
54825,56881
54335,56881
" /> 
<polyline style="fill-rule:evenodd;"
points="54335,57955
54335,56881
54825,56881
54825,57955
54335,57955
" /> 
<polyline style="fill-rule:evenodd;"
points="54835,56881
54835,55807
55325,55807
55325,56881
54835,56881
" /> 
<polyline style="fill-rule:evenodd;"
points="54835,57955
54835,56881
55325,56881
55325,57955
54835,57955
" /> 
<polyline style="fill-rule:evenodd;"
points="55335,56881
55335,55807
55825,55807
55825,56881
55335,56881
" /> 
<polyline style="fill-rule:evenodd;"
points="55335,57955
55335,56881
55825,56881
55825,57955
55335,57955
" /> 
<polyline style="fill-rule:evenodd;"
points="55835,56881
55835,55807
56325,55807
56325,56881
55835,56881
" /> 
<polyline style="fill-rule:evenodd;"
points="55835,57955
55835,56881
56325,56881
56325,57955
55835,57955
" /> 
<polyline style="fill-rule:evenodd;"
points="48835,56881
48835,55807
49325,55807
49325,56881
48835,56881
" /> 
<polyline style="fill-rule:evenodd;"
points="48835,57955
48835,56881
49325,56881
49325,57955
48835,57955
" /> 
<polyline style="fill-rule:evenodd;"
points="49335,56881
49335,55807
49825,55807
49825,56881
49335,56881
" /> 
<polyline style="fill-rule:evenodd;"
points="49335,57955
49335,56881
49825,56881
49825,57955
49335,57955
" /> 
<polyline style="fill-rule:evenodd;"
points="49835,56881
49835,55807
50325,55807
50325,56881
49835,56881
" /> 
<polyline style="fill-rule:evenodd;"
points="49835,57955
49835,56881
50325,56881
50325,57955
49835,57955
" /> 
<polyline style="fill-rule:evenodd;"
points="50335,56881
50335,55807
50825,55807
50825,56881
50335,56881
" /> 
<polyline style="fill-rule:evenodd;"
points="50335,57955
50335,56881
50825,56881
50825,57955
50335,57955
" /> 
<polyline style="fill-rule:evenodd;"
points="50835,56881
50835,55807
51325,55807
51325,56881
50835,56881
" /> 
<polyline style="fill-rule:evenodd;"
points="50835,57955
50835,56881
51325,56881
51325,57955
50835,57955
" /> 
<polyline style="fill-rule:evenodd;"
points="58335,57955
58335,56881
58825,56881
58825,57955
58335,57955
" /> 
<polyline style="fill-rule:evenodd;"
points="58335,56881
58335,55807
58825,55807
58825,56881
58335,56881
" /> 
<polyline style="fill-rule:evenodd;"
points="57835,57955
57835,56881
58325,56881
58325,57955
57835,57955
" /> 
<polyline style="fill-rule:evenodd;"
points="57835,56881
57835,55807
58325,55807
58325,56881
57835,56881
" /> 
<polyline style="fill-rule:evenodd;"
points="57335,57955
57335,56881
57825,56881
57825,57955
57335,57955
" /> 
<polyline style="fill-rule:evenodd;"
points="57335,56881
57335,55807
57825,55807
57825,56881
57335,56881
" /> 
<polyline style="fill-rule:evenodd;"
points="56835,57955
56835,56881
57325,56881
57325,57955
56835,57955
" /> 
<polyline style="fill-rule:evenodd;"
points="56835,56881
56835,55807
57325,55807
57325,56881
56835,56881
" /> 
<polyline style="fill-rule:evenodd;"
points="56335,57955
56335,56881
56825,56881
56825,57955
56335,57955
" /> 
<polyline style="fill-rule:evenodd;"
points="56335,56881
56335,55807
56825,55807
56825,56881
56335,56881
" /> 
<polyline style="fill-rule:evenodd;"
points="53335,57955
53335,56881
53825,56881
53825,57955
53335,57955
" /> 
<polyline style="fill-rule:evenodd;"
points="53335,56881
53335,55807
53825,55807
53825,56881
53335,56881
" /> 
<polyline style="fill-rule:evenodd;"
points="52835,57955
52835,56881
53325,56881
53325,57955
52835,57955
" /> 
<polyline style="fill-rule:evenodd;"
points="52835,56881
52835,55807
53325,55807
53325,56881
52835,56881
" /> 
<polyline style="fill-rule:evenodd;"
points="52335,57955
52335,56881
52825,56881
52825,57955
52335,57955
" /> 
<polyline style="fill-rule:evenodd;"
points="52335,56881
52335,55807
52825,55807
52825,56881
52335,56881
" /> 
<polyline style="fill-rule:evenodd;"
points="51835,57955
51835,56881
52325,56881
52325,57955
51835,57955
" /> 
<polyline style="fill-rule:evenodd;"
points="51835,56881
51835,55807
52325,55807
52325,56881
51835,56881
" /> 
<polyline style="fill-rule:evenodd;"
points="51335,57955
51335,56881
51825,56881
51825,57955
51335,57955
" /> 
<polyline style="fill-rule:evenodd;"
points="51335,56881
51335,55807
51825,55807
51825,56881
51335,56881
" /> 
<polyline style="fill-rule:evenodd;"
points="26962,31807
26962,30938
27831,30938
27831,31807
26962,31807
" /> 
</g>
<g style="fill:#000000; fill-opacity:1.0; 
stroke:#000000; stroke-width:869.291; stroke-opacity:1; 
stroke-linecap:round; stroke-linejoin:round;">
</g>
<g style="fill:#000000; fill-opacity:0.0; 
stroke:#000000; stroke-width:869.291; stroke-opacity:1; 
stroke-linecap:round; stroke-linejoin:round;">
<path d="M28397 31373
L28397 31373
" />
<path d="M27397 32373
L27397 32373
" />
<path d="M28397 32373
L28397 32373
" />
<path d="M27397 33373
L27397 33373
" />
<path d="M28397 33373
L28397 33373
" />
<path d="M27397 34373
L27397 34373
" />
<path d="M28397 34373
L28397 34373
" />
<path d="M27397 35373
L27397 35373
" />
<path d="M28397 35373
L28397 35373
" />
<path d="M27397 36373
L27397 36373
" />
<path d="M28397 36373
L28397 36373
" />
<path d="M27397 37373
L27397 37373
" />
<path d="M28397 37373
L28397 37373
" />
<path d="M27397 38373
L27397 38373
" />
<path d="M28397 38373
L28397 38373
" />
<path d="M27397 39373
L27397 39373
" />
<path d="M28397 39373
L28397 39373
" />
<path d="M27397 40373
L27397 40373
" />
<path d="M28397 40373
L28397 40373
" />
<path d="M27397 41373
L27397 41373
" />
<path d="M28397 41373
L28397 41373
" />
<path d="M27397 42373
L27397 42373
" />
<path d="M28397 42373
L28397 42373
" />
<path d="M27397 43373
L27397 43373
" />
<path d="M28397 43373
L28397 43373
" />
<path d="M27397 44373
L27397 44373
" />
<path d="M28397 44373
L28397 44373
" />
<path d="M27397 45373
L27397 45373
" />
<path d="M28397 45373
L28397 45373
" />
<path d="M27397 46373
L27397 46373
" />
<path d="M28397 46373
L28397 46373
" />
<path d="M28397 47373
L28397 47373
" />
<path d="M27397 47373
L27397 47373
" />
</g>
<g style="fill:#000000; fill-opacity:0.0; 
stroke:#000000; stroke-width:0; stroke-opacity:1; 
stroke-linecap:round; stroke-linejoin:round;">
</g>
<g style="fill:#000000; fill-opacity:1.0; 
stroke:#000000; stroke-width:0; stroke-opacity:1; 
stroke-linecap:round; stroke-linejoin:round;">
<polyline style="fill-rule:evenodd;"
points="53760,46933
53760,47802
52891,47802
52891,46933
53760,46933
" /> 
</g>
<g style="fill:#000000; fill-opacity:1.0; 
stroke:#000000; stroke-width:869.291; stroke-opacity:1; 
stroke-linecap:round; stroke-linejoin:round;">
</g>
<g style="fill:#000000; fill-opacity:0.0; 
stroke:#000000; stroke-width:869.291; stroke-opacity:1; 
stroke-linecap:round; stroke-linejoin:round;">
<path d="M52326 47368
L52326 47368
" />
<path d="M53326 46368
L53326 46368
" />
<path d="M52326 46368
L52326 46368
" />
<path d="M53326 45368
L53326 45368
" />
<path d="M52326 45368
L52326 45368
" />
<path d="M53326 44368
L53326 44368
" />
<path d="M52326 44368
L52326 44368
" />
<path d="M53326 43368
L53326 43368
" />
<path d="M52326 43368
L52326 43368
" />
<path d="M53326 42368
L53326 42368
" />
<path d="M52326 42368
L52326 42368
" />
<path d="M53326 41368
L53326 41368
" />
<path d="M52326 41368
L52326 41368
" />
<path d="M53326 40368
L53326 40368
" />
<path d="M52326 40368
L52326 40368
" />
<path d="M53326 39368
L53326 39368
" />
<path d="M52326 39368
L52326 39368
" />
<path d="M53326 38368
L53326 38368
" />
<path d="M52326 38368
L52326 38368
" />
<path d="M53326 37368
L53326 37368
" />
<path d="M52326 37368
L52326 37368
" />
<path d="M53326 36368
L53326 36368
" />
<path d="M52326 36368
L52326 36368
" />
<path d="M53326 35368
L53326 35368
" />
<path d="M52326 35368
L52326 35368
" />
<path d="M53326 34368
L53326 34368
" />
<path d="M52326 34368
L52326 34368
" />
<path d="M53326 33368
L53326 33368
" />
<path d="M52326 33368
L52326 33368
" />
<path d="M53326 32368
L53326 32368
" />
<path d="M52326 32368
L52326 32368
" />
<path d="M52326 31368
L52326 31368
" />
<path d="M53326 31368
L53326 31368
" />
</g>
<g style="fill:#000000; fill-opacity:0.0; 
stroke:#000000; stroke-width:0; stroke-opacity:1; 
stroke-linecap:round; stroke-linejoin:round;">
</g>
<g style="fill:#000000; fill-opacity:1.0; 
stroke:#000000; stroke-width:0; stroke-opacity:1; 
stroke-linecap:round; stroke-linejoin:round;">
<polyline style="fill-rule:evenodd;"
points="51784,46937
51784,47806
50915,47806
50915,46937
51784,46937
" /> 
</g>
<g style="fill:#000000; fill-opacity:1.0; 
stroke:#000000; stroke-width:869.291; stroke-opacity:1; 
stroke-linecap:round; stroke-linejoin:round;">
</g>
<g style="fill:#000000; fill-opacity:0.0; 
stroke:#000000; stroke-width:869.291; stroke-opacity:1; 
stroke-linecap:round; stroke-linejoin:round;">
<path d="M50350 47372
L50350 47372
" />
<path d="M51350 46372
L51350 46372
" />
<path d="M50350 46372
L50350 46372
" />
<path d="M51350 45372
L51350 45372
" />
<path d="M50350 45372
L50350 45372
" />
<path d="M51350 44372
L51350 44372
" />
<path d="M50350 44372
L50350 44372
" />
<path d="M51350 43372
L51350 43372
" />
<path d="M50350 43372
L50350 43372
" />
<path d="M51350 42372
L51350 42372
" />
<path d="M50350 42372
L50350 42372
" />
<path d="M51350 41372
L51350 41372
" />
<path d="M50350 41372
L50350 41372
" />
<path d="M51350 40372
L51350 40372
" />
<path d="M50350 40372
L50350 40372
" />
<path d="M51350 39372
L51350 39372
" />
<path d="M50350 39372
L50350 39372
" />
<path d="M51350 38372
L51350 38372
" />
<path d="M50350 38372
L50350 38372
" />
<path d="M51350 37372
L51350 37372
" />
<path d="M50350 37372
L50350 37372
" />
<path d="M51350 36372
L51350 36372
" />
<path d="M50350 36372
L50350 36372
" />
<path d="M51350 35372
L51350 35372
" />
<path d="M50350 35372
L50350 35372
" />
<path d="M51350 34372
L51350 34372
" />
<path d="M50350 34372
L50350 34372
" />
<path d="M51350 33372
L51350 33372
" />
<path d="M50350 33372
L50350 33372
" />
<path d="M51350 32372
L51350 32372
" />
<path d="M50350 32372
L50350 32372
" />
<path d="M50350 31372
L50350 31372
" />
<path d="M51350 31372
L51350 31372
" />
</g>
<g style="fill:#000000; fill-opacity:1.0; 
stroke:#000000; stroke-width:0; stroke-opacity:1; 
stroke-linecap:round; stroke-linejoin:round;">
<circle cx="58661.4" cy="31889.8" r="1359.84" /> 
</g>
<g style="fill:#000000; fill-opacity:1.0; 
stroke:#000000; stroke-width:39.3701; stroke-opacity:1; 
stroke-linecap:round; stroke-linejoin:round;">
</g>
<g style="fill:#000000; fill-opacity:1.0; 
stroke:#000000; stroke-width:0; stroke-opacity:1; 
stroke-linecap:round; stroke-linejoin:round;">
<circle cx="20078.7" cy="31889.8" r="1359.84" /> 
</g>
<g style="fill:#000000; fill-opacity:1.0; 
stroke:#000000; stroke-width:39.3701; stroke-opacity:1; 
stroke-linecap:round; stroke-linejoin:round;">
</g>
<g style="fill:#000000; fill-opacity:1.0; 
stroke:#000000; stroke-width:0; stroke-opacity:1; 
stroke-linecap:round; stroke-linejoin:round;">
<circle cx="58661.4" cy="51968.5" r="1359.84" /> 
</g>
<g style="fill:#000000; fill-opacity:1.0; 
stroke:#000000; stroke-width:39.3701; stroke-opacity:1; 
stroke-linecap:round; stroke-linejoin:round;">
</g>
<g style="fill:#000000; fill-opacity:1.0; 
stroke:#000000; stroke-width:0; stroke-opacity:1; 
stroke-linecap:round; stroke-linejoin:round;">
<circle cx="20078.7" cy="51968.5" r="1359.84" /> 
</g>
<g style="fill:#000000; fill-opacity:1.0; 
stroke:#000000; stroke-width:39.3701; stroke-opacity:1; 
stroke-linecap:round; stroke-linejoin:round;">
</g>
<g style="fill:#000000; fill-opacity:1.0; 
stroke:#000000; stroke-width:0; stroke-opacity:1; 
stroke-linecap:round; stroke-linejoin:round;">
<polyline style="fill-rule:evenodd;"
points="54821,32235
54821,31543
55414,31543
55414,32235
54821,32235
" /> 
<polyline style="fill-rule:evenodd;"
points="55608,32235
55608,31543
56202,31543
56202,32235
55608,32235
" /> 
<polyline style="fill-rule:evenodd;"
points="23918,31543
23918,32235
23325,32235
23325,31543
23918,31543
" /> 
<polyline style="fill-rule:evenodd;"
points="23131,31543
23131,32235
22537,32235
22537,31543
23131,31543
" /> 
<polyline style="fill-rule:evenodd;"
points="54900,31458
54900,30746
55375,30746
55375,31458
54900,31458
" /> 
<polyline style="fill-rule:evenodd;"
points="55648,31458
55648,30746
56123,30746
56123,31458
55648,31458
" /> 
<polyline style="fill-rule:evenodd;"
points="23840,30746
23840,31458
23364,31458
23364,30746
23840,30746
" /> 
<polyline style="fill-rule:evenodd;"
points="23092,30746
23092,31458
22616,31458
22616,30746
23092,30746
" /> 
<polyline style="fill-rule:evenodd;"
points="46950,54686
46238,54686
46238,54211
46950,54211
46950,54686
" /> 
<polyline style="fill-rule:evenodd;"
points="46950,53938
46238,53938
46238,53462
46950,53462
46950,53938
" /> 
<polyline style="fill-rule:evenodd;"
points="48670,54220
48670,54676
47990,54676
47990,54220
48670,54220
" /> 
<polyline style="fill-rule:evenodd;"
points="48670,53846
48670,54302
47990,54302
47990,53846
48670,53846
" /> 
<polyline style="fill-rule:evenodd;"
points="48670,53472
48670,53928
47990,53928
47990,53472
48670,53472
" /> 
<polyline style="fill-rule:evenodd;"
points="47639,53472
47639,53928
46959,53928
46959,53472
47639,53472
" /> 
<polyline style="fill-rule:evenodd;"
points="47639,54220
47639,54676
46959,54676
46959,54220
47639,54220
" /> 
</g> 
</svg>
