<?xml version="1.0" standalone="no"?>
 <!DOCTYPE svg PUBLIC "-//W3C//DTD SVG 1.1//EN" 
 "http://www.w3.org/Graphics/SVG/1.1/DTD/svg11.dtd"> 
<svg xmlns="http://www.w3.org/2000/svg" version="1.1" 
    width="27.94cm" height="21.59cm" viewBox="0 0 110000 85000 ">
<title>SVG Picture created as 120-channel pogo pin board-F.SilkS.svg date 2017/03/20 10:11:08 </title>
  <desc>Picture generated by PCBNEW </desc>
<g style="fill:#000000; fill-opacity:1;stroke:#000000; stroke-opacity:1;
stroke-linecap:round; stroke-linejoin:round; "
 transform="translate(0 0) scale(1 1)">
</g>
<g style="fill:#000000; fill-opacity:0.0; 
stroke:#000000; stroke-width:-0.000393701; stroke-opacity:1; 
stroke-linecap:round; stroke-linejoin:round;">
</g>
<g style="fill:#000000; fill-opacity:0.0; 
stroke:#000000; stroke-width:39.3701; stroke-opacity:1; 
stroke-linecap:round; stroke-linejoin:round;">
</g>
<g style="fill:#000000; fill-opacity:0.0; 
stroke:#000000; stroke-width:59.0551; stroke-opacity:1; 
stroke-linecap:round; stroke-linejoin:round;">
<rect x="62755.9" y="67677.2" width="42519.7" height="12598.4" rx="0" />
</g>
<g style="fill:#000000; fill-opacity:0.0; 
stroke:#000000; stroke-width:39.3701; stroke-opacity:1; 
stroke-linecap:round; stroke-linejoin:round;">
</g>
<g style="fill:#000000; fill-opacity:0.0; 
stroke:#000000; stroke-width:59.0551; stroke-opacity:1; 
stroke-linecap:round; stroke-linejoin:round;">
<rect x="3937.01" y="3937.01" width="102126" height="77126" rx="0" />
</g>
<g style="fill:#000000; fill-opacity:0.0; 
stroke:#000000; stroke-width:39.3701; stroke-opacity:1; 
stroke-linecap:round; stroke-linejoin:round;">
</g>
<g style="fill:#000000; fill-opacity:0.0; 
stroke:#000000; stroke-width:59.0551; stroke-opacity:1; 
stroke-linecap:round; stroke-linejoin:round;">
<rect x="4724.41" y="4724.41" width="100551" height="75551.2" rx="0" />
</g>
<g style="fill:#000000; fill-opacity:0.0; 
stroke:#000000; stroke-width:39.3701; stroke-opacity:1; 
stroke-linecap:round; stroke-linejoin:round;">
</g>
<g style="fill:#000000; fill-opacity:0.0; 
stroke:#000000; stroke-width:59.0551; stroke-opacity:1; 
stroke-linecap:round; stroke-linejoin:round;">
<path d="M23622 4724
L23622 3937
" />
</g>
<g style="fill:#000000; fill-opacity:0.0; 
stroke:#000000; stroke-width:39.3701; stroke-opacity:1; 
stroke-linecap:round; stroke-linejoin:round;">
</g>
<g style="fill:#000000; fill-opacity:0.0; 
stroke:#000000; stroke-width:59.0551; stroke-opacity:1; 
stroke-linecap:round; stroke-linejoin:round;">
<path d="M43307 4724
L43307 3937
" />
</g>
<g style="fill:#000000; fill-opacity:0.0; 
stroke:#000000; stroke-width:39.3701; stroke-opacity:1; 
stroke-linecap:round; stroke-linejoin:round;">
</g>
<g style="fill:#000000; fill-opacity:0.0; 
stroke:#000000; stroke-width:59.0551; stroke-opacity:1; 
stroke-linecap:round; stroke-linejoin:round;">
<path d="M62992 4724
L62992 3937
" />
</g>
<g style="fill:#000000; fill-opacity:0.0; 
stroke:#000000; stroke-width:39.3701; stroke-opacity:1; 
stroke-linecap:round; stroke-linejoin:round;">
</g>
<g style="fill:#000000; fill-opacity:0.0; 
stroke:#000000; stroke-width:59.0551; stroke-opacity:1; 
stroke-linecap:round; stroke-linejoin:round;">
<path d="M82677 4724
L82677 3937
" />
</g>
<g style="fill:#000000; fill-opacity:0.0; 
stroke:#000000; stroke-width:39.3701; stroke-opacity:1; 
stroke-linecap:round; stroke-linejoin:round;">
</g>
<g style="fill:#000000; fill-opacity:0.0; 
stroke:#000000; stroke-width:59.0551; stroke-opacity:1; 
stroke-linecap:round; stroke-linejoin:round;">
<path d="M102362 4724
L102362 3937
" />
</g>
<g style="fill:#000000; fill-opacity:0.0; 
stroke:#000000; stroke-width:39.3701; stroke-opacity:1; 
stroke-linecap:round; stroke-linejoin:round;">
</g>
<g style="fill:#000000; fill-opacity:0.0; 
stroke:#000000; stroke-width:59.0551; stroke-opacity:1; 
stroke-linecap:round; stroke-linejoin:round;">
<path d="M14169 4562
L13877 4562
" />
<path d="M14023 4562
L14023 4050
L13974 4123
L13925 4172
L13877 4196
" />
</g>
<g style="fill:#000000; fill-opacity:0.0; 
stroke:#000000; stroke-width:39.3701; stroke-opacity:1; 
stroke-linecap:round; stroke-linejoin:round;">
</g>
<g style="fill:#000000; fill-opacity:0.0; 
stroke:#000000; stroke-width:59.0551; stroke-opacity:1; 
stroke-linecap:round; stroke-linejoin:round;">
<path d="M33562 4099
L33586 4074
L33635 4050
L33757 4050
L33805 4074
L33830 4099
L33854 4147
L33854 4196
L33830 4269
L33537 4562
L33854 4562
" />
</g>
<g style="fill:#000000; fill-opacity:0.0; 
stroke:#000000; stroke-width:39.3701; stroke-opacity:1; 
stroke-linecap:round; stroke-linejoin:round;">
</g>
<g style="fill:#000000; fill-opacity:0.0; 
stroke:#000000; stroke-width:59.0551; stroke-opacity:1; 
stroke-linecap:round; stroke-linejoin:round;">
<path d="M53222 4050
L53539 4050
L53368 4245
L53442 4245
L53490 4269
L53515 4294
L53539 4342
L53539 4464
L53515 4513
L53490 4537
L53442 4562
L53295 4562
L53247 4537
L53222 4513
" />
</g>
<g style="fill:#000000; fill-opacity:0.0; 
stroke:#000000; stroke-width:39.3701; stroke-opacity:1; 
stroke-linecap:round; stroke-linejoin:round;">
</g>
<g style="fill:#000000; fill-opacity:0.0; 
stroke:#000000; stroke-width:59.0551; stroke-opacity:1; 
stroke-linecap:round; stroke-linejoin:round;">
<path d="M73175 4221
L73175 4562
" />
<path d="M73053 4026
L72932 4391
L73248 4391
" />
</g>
<g style="fill:#000000; fill-opacity:0.0; 
stroke:#000000; stroke-width:39.3701; stroke-opacity:1; 
stroke-linecap:round; stroke-linejoin:round;">
</g>
<g style="fill:#000000; fill-opacity:0.0; 
stroke:#000000; stroke-width:59.0551; stroke-opacity:1; 
stroke-linecap:round; stroke-linejoin:round;">
<path d="M92885 4050
L92641 4050
L92617 4294
L92641 4269
L92690 4245
L92812 4245
L92860 4269
L92885 4294
L92909 4342
L92909 4464
L92885 4513
L92860 4537
L92812 4562
L92690 4562
L92641 4537
L92617 4513
" />
</g>
<g style="fill:#000000; fill-opacity:0.0; 
stroke:#000000; stroke-width:39.3701; stroke-opacity:1; 
stroke-linecap:round; stroke-linejoin:round;">
</g>
<g style="fill:#000000; fill-opacity:0.0; 
stroke:#000000; stroke-width:59.0551; stroke-opacity:1; 
stroke-linecap:round; stroke-linejoin:round;">
<path d="M23622 80275
L23622 81062
" />
</g>
<g style="fill:#000000; fill-opacity:0.0; 
stroke:#000000; stroke-width:39.3701; stroke-opacity:1; 
stroke-linecap:round; stroke-linejoin:round;">
</g>
<g style="fill:#000000; fill-opacity:0.0; 
stroke:#000000; stroke-width:59.0551; stroke-opacity:1; 
stroke-linecap:round; stroke-linejoin:round;">
<path d="M43307 80275
L43307 81062
" />
</g>
<g style="fill:#000000; fill-opacity:0.0; 
stroke:#000000; stroke-width:39.3701; stroke-opacity:1; 
stroke-linecap:round; stroke-linejoin:round;">
</g>
<g style="fill:#000000; fill-opacity:0.0; 
stroke:#000000; stroke-width:59.0551; stroke-opacity:1; 
stroke-linecap:round; stroke-linejoin:round;">
<path d="M62992 80275
L62992 81062
" />
</g>
<g style="fill:#000000; fill-opacity:0.0; 
stroke:#000000; stroke-width:39.3701; stroke-opacity:1; 
stroke-linecap:round; stroke-linejoin:round;">
</g>
<g style="fill:#000000; fill-opacity:0.0; 
stroke:#000000; stroke-width:59.0551; stroke-opacity:1; 
stroke-linecap:round; stroke-linejoin:round;">
<path d="M82677 80275
L82677 81062
" />
</g>
<g style="fill:#000000; fill-opacity:0.0; 
stroke:#000000; stroke-width:39.3701; stroke-opacity:1; 
stroke-linecap:round; stroke-linejoin:round;">
</g>
<g style="fill:#000000; fill-opacity:0.0; 
stroke:#000000; stroke-width:59.0551; stroke-opacity:1; 
stroke-linecap:round; stroke-linejoin:round;">
<path d="M102362 80275
L102362 81062
" />
</g>
<g style="fill:#000000; fill-opacity:0.0; 
stroke:#000000; stroke-width:39.3701; stroke-opacity:1; 
stroke-linecap:round; stroke-linejoin:round;">
</g>
<g style="fill:#000000; fill-opacity:0.0; 
stroke:#000000; stroke-width:59.0551; stroke-opacity:1; 
stroke-linecap:round; stroke-linejoin:round;">
<path d="M14169 80900
L13877 80900
" />
<path d="M14023 80900
L14023 80389
L13974 80462
L13925 80510
L13877 80535
" />
</g>
<g style="fill:#000000; fill-opacity:0.0; 
stroke:#000000; stroke-width:39.3701; stroke-opacity:1; 
stroke-linecap:round; stroke-linejoin:round;">
</g>
<g style="fill:#000000; fill-opacity:0.0; 
stroke:#000000; stroke-width:59.0551; stroke-opacity:1; 
stroke-linecap:round; stroke-linejoin:round;">
<path d="M33562 80437
L33586 80413
L33635 80389
L33757 80389
L33805 80413
L33830 80437
L33854 80486
L33854 80535
L33830 80608
L33537 80900
L33854 80900
" />
</g>
<g style="fill:#000000; fill-opacity:0.0; 
stroke:#000000; stroke-width:39.3701; stroke-opacity:1; 
stroke-linecap:round; stroke-linejoin:round;">
</g>
<g style="fill:#000000; fill-opacity:0.0; 
stroke:#000000; stroke-width:59.0551; stroke-opacity:1; 
stroke-linecap:round; stroke-linejoin:round;">
<path d="M53222 80389
L53539 80389
L53368 80583
L53442 80583
L53490 80608
L53515 80632
L53539 80681
L53539 80803
L53515 80852
L53490 80876
L53442 80900
L53295 80900
L53247 80876
L53222 80852
" />
</g>
<g style="fill:#000000; fill-opacity:0.0; 
stroke:#000000; stroke-width:39.3701; stroke-opacity:1; 
stroke-linecap:round; stroke-linejoin:round;">
</g>
<g style="fill:#000000; fill-opacity:0.0; 
stroke:#000000; stroke-width:59.0551; stroke-opacity:1; 
stroke-linecap:round; stroke-linejoin:round;">
<path d="M73175 80559
L73175 80900
" />
<path d="M73053 80364
L72932 80730
L73248 80730
" />
</g>
<g style="fill:#000000; fill-opacity:0.0; 
stroke:#000000; stroke-width:39.3701; stroke-opacity:1; 
stroke-linecap:round; stroke-linejoin:round;">
</g>
<g style="fill:#000000; fill-opacity:0.0; 
stroke:#000000; stroke-width:59.0551; stroke-opacity:1; 
stroke-linecap:round; stroke-linejoin:round;">
<path d="M92885 80389
L92641 80389
L92617 80632
L92641 80608
L92690 80583
L92812 80583
L92860 80608
L92885 80632
L92909 80681
L92909 80803
L92885 80852
L92860 80876
L92812 80900
L92690 80900
L92641 80876
L92617 80852
" />
</g>
<g style="fill:#000000; fill-opacity:0.0; 
stroke:#000000; stroke-width:39.3701; stroke-opacity:1; 
stroke-linecap:round; stroke-linejoin:round;">
</g>
<g style="fill:#000000; fill-opacity:0.0; 
stroke:#000000; stroke-width:59.0551; stroke-opacity:1; 
stroke-linecap:round; stroke-linejoin:round;">
<path d="M3937 23622
L4724 23622
" />
</g>
<g style="fill:#000000; fill-opacity:0.0; 
stroke:#000000; stroke-width:39.3701; stroke-opacity:1; 
stroke-linecap:round; stroke-linejoin:round;">
</g>
<g style="fill:#000000; fill-opacity:0.0; 
stroke:#000000; stroke-width:59.0551; stroke-opacity:1; 
stroke-linecap:round; stroke-linejoin:round;">
<path d="M3937 43307
L4724 43307
" />
</g>
<g style="fill:#000000; fill-opacity:0.0; 
stroke:#000000; stroke-width:39.3701; stroke-opacity:1; 
stroke-linecap:round; stroke-linejoin:round;">
</g>
<g style="fill:#000000; fill-opacity:0.0; 
stroke:#000000; stroke-width:59.0551; stroke-opacity:1; 
stroke-linecap:round; stroke-linejoin:round;">
<path d="M3937 62992
L4724 62992
" />
</g>
<g style="fill:#000000; fill-opacity:0.0; 
stroke:#000000; stroke-width:39.3701; stroke-opacity:1; 
stroke-linecap:round; stroke-linejoin:round;">
</g>
<g style="fill:#000000; fill-opacity:0.0; 
stroke:#000000; stroke-width:59.0551; stroke-opacity:1; 
stroke-linecap:round; stroke-linejoin:round;">
<path d="M4208 13864
L4452 13864
" />
<path d="M4160 14011
L4330 13499
L4501 14011
" />
</g>
<g style="fill:#000000; fill-opacity:0.0; 
stroke:#000000; stroke-width:39.3701; stroke-opacity:1; 
stroke-linecap:round; stroke-linejoin:round;">
</g>
<g style="fill:#000000; fill-opacity:0.0; 
stroke:#000000; stroke-width:59.0551; stroke-opacity:1; 
stroke-linecap:round; stroke-linejoin:round;">
<path d="M4367 33428
L4440 33452
L4464 33476
L4489 33525
L4489 33598
L4464 33647
L4440 33671
L4391 33696
L4196 33696
L4196 33184
L4367 33184
L4416 33208
L4440 33233
L4464 33281
L4464 33330
L4440 33379
L4416 33403
L4367 33428
L4196 33428
" />
</g>
<g style="fill:#000000; fill-opacity:0.0; 
stroke:#000000; stroke-width:39.3701; stroke-opacity:1; 
stroke-linecap:round; stroke-linejoin:round;">
</g>
<g style="fill:#000000; fill-opacity:0.0; 
stroke:#000000; stroke-width:59.0551; stroke-opacity:1; 
stroke-linecap:round; stroke-linejoin:round;">
<path d="M4489 53332
L4464 53356
L4391 53381
L4342 53381
L4269 53356
L4221 53308
L4196 53259
L4172 53161
L4172 53088
L4196 52991
L4221 52942
L4269 52893
L4342 52869
L4391 52869
L4464 52893
L4489 52918
" />
</g>
<g style="fill:#000000; fill-opacity:0.0; 
stroke:#000000; stroke-width:39.3701; stroke-opacity:1; 
stroke-linecap:round; stroke-linejoin:round;">
</g>
<g style="fill:#000000; fill-opacity:0.0; 
stroke:#000000; stroke-width:59.0551; stroke-opacity:1; 
stroke-linecap:round; stroke-linejoin:round;">
<path d="M4196 73066
L4196 72554
L4318 72554
L4391 72578
L4440 72627
L4464 72676
L4489 72773
L4489 72846
L4464 72944
L4440 72993
L4391 73041
L4318 73066
L4196 73066
" />
</g>
<g style="fill:#000000; fill-opacity:0.0; 
stroke:#000000; stroke-width:39.3701; stroke-opacity:1; 
stroke-linecap:round; stroke-linejoin:round;">
</g>
<g style="fill:#000000; fill-opacity:0.0; 
stroke:#000000; stroke-width:59.0551; stroke-opacity:1; 
stroke-linecap:round; stroke-linejoin:round;">
<path d="M106062 23622
L105275 23622
" />
</g>
<g style="fill:#000000; fill-opacity:0.0; 
stroke:#000000; stroke-width:39.3701; stroke-opacity:1; 
stroke-linecap:round; stroke-linejoin:round;">
</g>
<g style="fill:#000000; fill-opacity:0.0; 
stroke:#000000; stroke-width:59.0551; stroke-opacity:1; 
stroke-linecap:round; stroke-linejoin:round;">
<path d="M106062 43307
L105275 43307
" />
</g>
<g style="fill:#000000; fill-opacity:0.0; 
stroke:#000000; stroke-width:39.3701; stroke-opacity:1; 
stroke-linecap:round; stroke-linejoin:round;">
</g>
<g style="fill:#000000; fill-opacity:0.0; 
stroke:#000000; stroke-width:59.0551; stroke-opacity:1; 
stroke-linecap:round; stroke-linejoin:round;">
<path d="M106062 62992
L105275 62992
" />
</g>
<g style="fill:#000000; fill-opacity:0.0; 
stroke:#000000; stroke-width:39.3701; stroke-opacity:1; 
stroke-linecap:round; stroke-linejoin:round;">
</g>
<g style="fill:#000000; fill-opacity:0.0; 
stroke:#000000; stroke-width:59.0551; stroke-opacity:1; 
stroke-linecap:round; stroke-linejoin:round;">
<path d="M105547 13864
L105791 13864
" />
<path d="M105498 14011
L105669 13499
L105839 14011
" />
</g>
<g style="fill:#000000; fill-opacity:0.0; 
stroke:#000000; stroke-width:39.3701; stroke-opacity:1; 
stroke-linecap:round; stroke-linejoin:round;">
</g>
<g style="fill:#000000; fill-opacity:0.0; 
stroke:#000000; stroke-width:59.0551; stroke-opacity:1; 
stroke-linecap:round; stroke-linejoin:round;">
<path d="M105705 33428
L105778 33452
L105803 33476
L105827 33525
L105827 33598
L105803 33647
L105778 33671
L105730 33696
L105535 33696
L105535 33184
L105705 33184
L105754 33208
L105778 33233
L105803 33281
L105803 33330
L105778 33379
L105754 33403
L105705 33428
L105535 33428
" />
</g>
<g style="fill:#000000; fill-opacity:0.0; 
stroke:#000000; stroke-width:39.3701; stroke-opacity:1; 
stroke-linecap:round; stroke-linejoin:round;">
</g>
<g style="fill:#000000; fill-opacity:0.0; 
stroke:#000000; stroke-width:59.0551; stroke-opacity:1; 
stroke-linecap:round; stroke-linejoin:round;">
<path d="M105827 53332
L105803 53356
L105730 53381
L105681 53381
L105608 53356
L105559 53308
L105535 53259
L105510 53161
L105510 53088
L105535 52991
L105559 52942
L105608 52893
L105681 52869
L105730 52869
L105803 52893
L105827 52918
" />
</g>
<g style="fill:#000000; fill-opacity:0.0; 
stroke:#000000; stroke-width:39.3701; stroke-opacity:1; 
stroke-linecap:round; stroke-linejoin:round;">
</g>
<g style="fill:#000000; fill-opacity:0.0; 
stroke:#000000; stroke-width:59.0551; stroke-opacity:1; 
stroke-linecap:round; stroke-linejoin:round;">
<path d="M105535 73066
L105535 72554
L105657 72554
L105730 72578
L105778 72627
L105803 72676
L105827 72773
L105827 72846
L105803 72944
L105778 72993
L105730 73041
L105657 73066
L105535 73066
" />
</g>
<g style="fill:#000000; fill-opacity:0.0; 
stroke:#000000; stroke-width:39.3701; stroke-opacity:1; 
stroke-linecap:round; stroke-linejoin:round;">
</g>
<g style="fill:#000000; fill-opacity:0.0; 
stroke:#000000; stroke-width:59.0551; stroke-opacity:1; 
stroke-linecap:round; stroke-linejoin:round;">
<path d="M71951 78613
L71951 78023
L72092 78023
L72176 78051
L72232 78107
L72260 78163
L72289 78276
L72289 78360
L72260 78473
L72232 78529
L72176 78585
L72092 78613
L71951 78613
" />
<path d="M72795 78613
L72795 78304
L72767 78248
L72710 78219
L72598 78219
L72542 78248
" />
<path d="M72795 78585
L72739 78613
L72598 78613
L72542 78585
L72514 78529
L72514 78473
L72542 78416
L72598 78388
L72739 78388
L72795 78360
" />
<path d="M72992 78219
L73217 78219
" />
<path d="M73076 78023
L73076 78529
L73104 78585
L73160 78613
L73217 78613
" />
<path d="M73638 78585
L73582 78613
L73470 78613
L73413 78585
L73385 78529
L73385 78304
L73413 78248
L73470 78219
L73582 78219
L73638 78248
L73667 78304
L73667 78360
L73385 78416
" />
<path d="M73920 78557
L73948 78585
L73920 78613
L73892 78585
L73920 78557
L73920 78613
" />
<path d="M73920 78248
L73948 78276
L73920 78304
L73892 78276
L73920 78248
L73920 78304
" />
<path d="M74623 78079
L74651 78051
L74707 78023
L74848 78023
L74904 78051
L74932 78079
L74960 78135
L74960 78191
L74932 78276
L74595 78613
L74960 78613
" />
<path d="M75326 78023
L75382 78023
L75438 78051
L75466 78079
L75494 78135
L75523 78248
L75523 78388
L75494 78501
L75466 78557
L75438 78585
L75382 78613
L75326 78613
L75269 78585
L75241 78557
L75213 78501
L75185 78388
L75185 78248
L75213 78135
L75241 78079
L75269 78051
L75326 78023
" />
<path d="M76085 78613
L75748 78613
" />
<path d="M75916 78613
L75916 78023
L75860 78107
L75804 78163
L75748 78191
" />
<path d="M76591 78023
L76479 78023
L76422 78051
L76394 78079
L76338 78163
L76310 78276
L76310 78501
L76338 78557
L76366 78585
L76422 78613
L76535 78613
L76591 78585
L76619 78557
L76647 78501
L76647 78360
L76619 78304
L76591 78276
L76535 78248
L76422 78248
L76366 78276
L76338 78304
L76310 78360
" />
<path d="M76901 78388
L77350 78388
" />
<path d="M77941 78613
L77604 78613
" />
<path d="M77772 78613
L77772 78023
L77716 78107
L77660 78163
L77604 78191
" />
<path d="M78503 78613
L78166 78613
" />
<path d="M78335 78613
L78335 78023
L78278 78107
L78222 78163
L78166 78191
" />
<path d="M78757 78388
L79206 78388
" />
<path d="M79797 78613
L79460 78613
" />
<path d="M79628 78613
L79628 78023
L79572 78107
L79516 78163
L79460 78191
" />
<path d="M80134 78276
L80078 78248
L80050 78219
L80022 78163
L80022 78135
L80050 78079
L80078 78051
L80134 78023
L80247 78023
L80303 78051
L80331 78079
L80359 78135
L80359 78163
L80331 78219
L80303 78248
L80247 78276
L80134 78276
L80078 78304
L80050 78332
L80022 78388
L80022 78501
L80050 78557
L80078 78585
L80134 78613
L80247 78613
L80303 78585
L80331 78557
L80359 78501
L80359 78388
L80331 78332
L80303 78304
L80247 78276
" />
</g>
<g style="fill:#000000; fill-opacity:0.0; 
stroke:#000000; stroke-width:39.3701; stroke-opacity:1; 
stroke-linecap:round; stroke-linejoin:round;">
</g>
<g style="fill:#000000; fill-opacity:0.0; 
stroke:#000000; stroke-width:59.0551; stroke-opacity:1; 
stroke-linecap:round; stroke-linejoin:round;">
<path d="M62755 78897
L105275 78897
" />
</g>
<g style="fill:#000000; fill-opacity:0.0; 
stroke:#000000; stroke-width:39.3701; stroke-opacity:1; 
stroke-linecap:round; stroke-linejoin:round;">
</g>
<g style="fill:#000000; fill-opacity:0.0; 
stroke:#000000; stroke-width:59.0551; stroke-opacity:1; 
stroke-linecap:round; stroke-linejoin:round;">
<path d="M63290 79715
L63290 79125
" />
<path d="M63627 79715
L63374 79378
" />
<path d="M63627 79125
L63290 79462
" />
<path d="M63880 79715
L63880 79322
" />
<path d="M63880 79125
L63852 79153
L63880 79181
L63908 79153
L63880 79125
L63880 79181
" />
<path d="M64499 79659
L64471 79687
L64386 79715
L64330 79715
L64246 79687
L64190 79631
L64161 79575
L64133 79462
L64133 79378
L64161 79266
L64190 79209
L64246 79153
L64330 79125
L64386 79125
L64471 79153
L64499 79181
" />
<path d="M65005 79715
L65005 79406
L64977 79350
L64921 79322
L64808 79322
L64752 79350
" />
<path d="M65005 79687
L64949 79715
L64808 79715
L64752 79687
L64724 79631
L64724 79575
L64752 79519
L64808 79491
L64949 79491
L65005 79462
" />
<path d="M65539 79715
L65539 79125
" />
<path d="M65539 79687
L65483 79715
L65371 79715
L65314 79687
L65286 79659
L65258 79603
L65258 79434
L65286 79378
L65314 79350
L65371 79322
L65483 79322
L65539 79350
" />
<path d="M66271 79406
L66467 79406
" />
<path d="M66552 79715
L66271 79715
L66271 79125
L66552 79125
" />
<path d="M66805 79659
L66833 79687
L66805 79715
L66777 79687
L66805 79659
L66805 79715
" />
<path d="M67086 79715
L67086 79125
L67227 79125
L67311 79153
L67367 79209
L67395 79266
L67424 79378
L67424 79462
L67395 79575
L67367 79631
L67311 79687
L67227 79715
L67086 79715
" />
<path d="M67677 79659
L67705 79687
L67677 79715
L67649 79687
L67677 79659
L67677 79715
" />
<path d="M67930 79547
L68211 79547
" />
<path d="M67874 79715
L68070 79125
L68267 79715
" />
<path d="M68464 79659
L68492 79687
L68464 79715
L68436 79687
L68464 79659
L68464 79715
" />
<path d="M69645 79715
L69645 79125
" />
<path d="M69701 79491
L69870 79715
" />
<path d="M69870 79322
L69645 79547
" />
<path d="M70123 79715
L70123 79322
" />
<path d="M70123 79125
L70095 79153
L70123 79181
L70151 79153
L70123 79125
L70123 79181
" />
<path d="M70658 79687
L70601 79715
L70489 79715
L70433 79687
L70404 79659
L70376 79603
L70376 79434
L70404 79378
L70433 79350
L70489 79322
L70601 79322
L70658 79350
" />
<path d="M71164 79715
L71164 79406
L71136 79350
L71079 79322
L70967 79322
L70911 79350
" />
<path d="M71164 79687
L71107 79715
L70967 79715
L70911 79687
L70883 79631
L70883 79575
L70911 79519
L70967 79491
L71107 79491
L71164 79462
" />
<path d="M71698 79715
L71698 79125
" />
<path d="M71698 79687
L71642 79715
L71529 79715
L71473 79687
L71445 79659
L71417 79603
L71417 79434
L71445 79378
L71473 79350
L71529 79322
L71642 79322
L71698 79350
" />
<path d="M72682 79322
L72682 79715
" />
<path d="M72542 79097
L72401 79519
L72767 79519
" />
<path d="M72992 79659
L73020 79687
L72992 79715
L72964 79687
L72992 79659
L72992 79715
" />
<path d="M73385 79125
L73442 79125
L73498 79153
L73526 79181
L73554 79237
L73582 79350
L73582 79491
L73554 79603
L73526 79659
L73498 79687
L73442 79715
L73385 79715
L73329 79687
L73301 79659
L73273 79603
L73245 79491
L73245 79350
L73273 79237
L73301 79181
L73329 79153
L73385 79125
" />
<path d="M73835 79659
L73863 79687
L73835 79715
L73807 79687
L73835 79659
L73835 79715
" />
<path d="M74426 79715
L74088 79715
" />
<path d="M74257 79715
L74257 79125
L74201 79209
L74145 79266
L74088 79294
" />
<path d="M74679 79491
L75129 79491
" />
<path d="M75382 79687
L75438 79715
L75551 79715
L75607 79687
L75635 79631
L75635 79603
L75607 79547
L75551 79519
L75466 79519
L75410 79491
L75382 79434
L75382 79406
L75410 79350
L75466 79322
L75551 79322
L75607 79350
" />
<path d="M75804 79322
L76029 79322
" />
<path d="M75888 79125
L75888 79631
L75916 79687
L75973 79715
L76029 79715
" />
<path d="M76479 79715
L76479 79406
L76451 79350
L76394 79322
L76282 79322
L76226 79350
" />
<path d="M76479 79687
L76422 79715
L76282 79715
L76226 79687
L76197 79631
L76197 79575
L76226 79519
L76282 79491
L76422 79491
L76479 79462
" />
<path d="M76760 79715
L76760 79125
" />
<path d="M76760 79350
L76816 79322
L76929 79322
L76985 79350
L77013 79378
L77041 79434
L77041 79603
L77013 79659
L76985 79687
L76929 79715
L76816 79715
L76760 79687
" />
<path d="M77379 79715
L77322 79687
L77294 79631
L77294 79125
" />
<path d="M77829 79687
L77772 79715
L77660 79715
L77604 79687
L77575 79631
L77575 79406
L77604 79350
L77660 79322
L77772 79322
L77829 79350
L77857 79406
L77857 79462
L77575 79519
" />
</g>
<g style="fill:#000000; fill-opacity:0.0; 
stroke:#000000; stroke-width:39.3701; stroke-opacity:1; 
stroke-linecap:round; stroke-linejoin:round;">
</g>
<g style="fill:#000000; fill-opacity:0.0; 
stroke:#000000; stroke-width:59.0551; stroke-opacity:1; 
stroke-linecap:round; stroke-linejoin:round;">
<path d="M62755 77716
L105275 77716
" />
</g>
<g style="fill:#000000; fill-opacity:0.0; 
stroke:#000000; stroke-width:39.3701; stroke-opacity:1; 
stroke-linecap:round; stroke-linejoin:round;">
</g>
<g style="fill:#000000; fill-opacity:0.0; 
stroke:#000000; stroke-width:118.11; stroke-opacity:1; 
stroke-linecap:round; stroke-linejoin:round;">
<path d="M97092 78613
L96895 78332
" />
<path d="M96754 78613
L96754 78023
L96979 78023
L97035 78051
L97064 78079
L97092 78135
L97092 78219
L97064 78276
L97035 78304
L96979 78332
L96754 78332
" />
<path d="M97570 78585
L97514 78613
L97401 78613
L97345 78585
L97317 78529
L97317 78304
L97345 78248
L97401 78219
L97514 78219
L97570 78248
L97598 78304
L97598 78360
L97317 78416
" />
<path d="M97795 78219
L97935 78613
L98076 78219
" />
<path d="M98301 78557
L98329 78585
L98301 78613
L98273 78585
L98301 78557
L98301 78613
" />
<path d="M98301 78248
L98329 78276
L98301 78304
L98273 78276
L98301 78248
L98301 78304
" />
<path d="M98976 78219
L99116 78613
L99257 78219
" />
<path d="M99454 78079
L99482 78051
L99538 78023
L99679 78023
L99735 78051
L99763 78079
L99791 78135
L99791 78191
L99763 78276
L99426 78613
L99791 78613
" />
<path d="M100044 78557
L100073 78585
L100044 78613
L100016 78585
L100044 78557
L100044 78613
" />
<path d="M100438 78023
L100494 78023
L100551 78051
L100579 78079
L100607 78135
L100635 78248
L100635 78388
L100607 78501
L100579 78557
L100551 78585
L100494 78613
L100438 78613
L100382 78585
L100354 78557
L100326 78501
L100298 78388
L100298 78248
L100326 78135
L100354 78079
L100382 78051
L100438 78023
" />
</g>
<g style="fill:#000000; fill-opacity:0.0; 
stroke:#000000; stroke-width:39.3701; stroke-opacity:1; 
stroke-linecap:round; stroke-linejoin:round;">
</g>
<g style="fill:#000000; fill-opacity:0.0; 
stroke:#000000; stroke-width:59.0551; stroke-opacity:1; 
stroke-linecap:round; stroke-linejoin:round;">
<path d="M63262 78585
L63346 78613
L63487 78613
L63543 78585
L63571 78557
L63599 78501
L63599 78444
L63571 78388
L63543 78360
L63487 78332
L63374 78304
L63318 78276
L63290 78248
L63262 78191
L63262 78135
L63290 78079
L63318 78051
L63374 78023
L63515 78023
L63599 78051
" />
<path d="M63852 78613
L63852 78219
" />
<path d="M63852 78023
L63824 78051
L63852 78079
L63880 78051
L63852 78023
L63852 78079
" />
<path d="M64077 78219
L64386 78219
L64077 78613
L64386 78613
" />
<path d="M64836 78585
L64780 78613
L64668 78613
L64611 78585
L64583 78529
L64583 78304
L64611 78248
L64668 78219
L64780 78219
L64836 78248
L64865 78304
L64865 78360
L64583 78416
" />
<path d="M65118 78557
L65146 78585
L65118 78613
L65089 78585
L65118 78557
L65118 78613
" />
<path d="M65118 78248
L65146 78276
L65118 78304
L65089 78276
L65118 78248
L65118 78304
" />
<path d="M65849 78023
L65849 78501
L65877 78557
L65905 78585
L65961 78613
L66074 78613
L66130 78585
L66158 78557
L66186 78501
L66186 78023
" />
<path d="M66439 78585
L66524 78613
L66664 78613
L66721 78585
L66749 78557
L66777 78501
L66777 78444
L66749 78388
L66721 78360
L66664 78332
L66552 78304
L66496 78276
L66467 78248
L66439 78191
L66439 78135
L66467 78079
L66496 78051
L66552 78023
L66692 78023
L66777 78051
" />
<path d="M67311 78613
L67030 78613
L67030 78023
" />
<path d="M67733 78585
L67677 78613
L67564 78613
L67508 78585
L67480 78529
L67480 78304
L67508 78248
L67564 78219
L67677 78219
L67733 78248
L67761 78304
L67761 78360
L67480 78416
" />
<path d="M67930 78219
L68155 78219
" />
<path d="M68014 78023
L68014 78529
L68042 78585
L68098 78613
L68155 78613
" />
<path d="M68267 78219
L68492 78219
" />
<path d="M68352 78023
L68352 78529
L68380 78585
L68436 78613
L68492 78613
" />
<path d="M68914 78585
L68858 78613
L68745 78613
L68689 78585
L68661 78529
L68661 78304
L68689 78248
L68745 78219
L68858 78219
L68914 78248
L68942 78304
L68942 78360
L68661 78416
" />
<path d="M69195 78613
L69195 78219
" />
<path d="M69195 78332
L69223 78276
L69251 78248
L69308 78219
L69364 78219
" />
</g>
<g style="fill:#000000; fill-opacity:0.0; 
stroke:#000000; stroke-width:39.3701; stroke-opacity:1; 
stroke-linecap:round; stroke-linejoin:round;">
</g>
<g style="fill:#000000; fill-opacity:0.0; 
stroke:#000000; stroke-width:59.0551; stroke-opacity:1; 
stroke-linecap:round; stroke-linejoin:round;">
<path d="M96754 79715
L96754 79125
" />
<path d="M97289 79715
L97289 79125
" />
<path d="M97289 79687
L97232 79715
L97120 79715
L97064 79687
L97035 79659
L97007 79603
L97007 79434
L97035 79378
L97064 79350
L97120 79322
L97232 79322
L97289 79350
" />
<path d="M97570 79659
L97598 79687
L97570 79715
L97542 79687
L97570 79659
L97570 79715
" />
<path d="M97570 79350
L97598 79378
L97570 79406
L97542 79378
L97570 79350
L97570 79406
" />
<path d="M98610 79715
L98273 79715
" />
<path d="M98442 79715
L98442 79125
L98385 79209
L98329 79266
L98273 79294
" />
<path d="M99285 79097
L98779 79856
" />
<path d="M99791 79715
L99454 79715
" />
<path d="M99623 79715
L99623 79125
L99566 79209
L99510 79266
L99454 79294
" />
</g>
<g style="fill:#000000; fill-opacity:0.0; 
stroke:#000000; stroke-width:39.3701; stroke-opacity:1; 
stroke-linecap:round; stroke-linejoin:round;">
</g>
<g style="fill:#000000; fill-opacity:0.0; 
stroke:#000000; stroke-width:59.0551; stroke-opacity:1; 
stroke-linecap:round; stroke-linejoin:round;">
<path d="M62755 76141
L105275 76141
" />
</g>
<g style="fill:#000000; fill-opacity:0.0; 
stroke:#000000; stroke-width:39.3701; stroke-opacity:1; 
stroke-linecap:round; stroke-linejoin:round;">
</g>
<g style="fill:#000000; fill-opacity:0.0; 
stroke:#000000; stroke-width:157.48; stroke-opacity:1; 
stroke-linecap:round; stroke-linejoin:round;">
<path d="M63327 76419
L63777 76419
" />
<path d="M63454 77206
L63552 76419
" />
<path d="M63941 77206
L64007 76681
" />
<path d="M64040 76419
L63997 76456
L64030 76494
L64072 76456
L64040 76419
L64030 76494
" />
<path d="M64269 76681
L64569 76681
" />
<path d="M64415 76419
L64330 77094
L64358 77169
L64429 77206
L64504 77206
" />
<path d="M64879 77206
L64808 77169
L64780 77094
L64865 76419
" />
<path d="M65483 77169
L65404 77206
L65254 77206
L65183 77169
L65155 77094
L65193 76794
L65239 76719
L65319 76681
L65469 76681
L65539 76719
L65568 76794
L65558 76869
L65174 76944
" />
<path d="M65863 77131
L65896 77169
L65853 77206
L65821 77169
L65863 77131
L65853 77206
" />
<path d="M65914 76719
L65947 76756
L65905 76794
L65872 76756
L65914 76719
L65905 76794
" />
<path d="M67241 77206
L66791 77206
" />
<path d="M67016 77206
L67114 76419
L67025 76531
L66941 76606
L66861 76644
" />
<path d="M67630 76494
L67672 76456
L67752 76419
L67939 76419
L68009 76456
L68042 76494
L68070 76569
L68061 76644
L68009 76756
L67503 77206
L67991 77206
" />
<path d="M68577 76419
L68652 76419
L68722 76456
L68755 76494
L68783 76569
L68802 76719
L68778 76906
L68722 77056
L68675 77131
L68633 77169
L68553 77206
L68478 77206
L68408 77169
L68375 77131
L68347 77056
L68328 76906
L68352 76719
L68408 76569
L68455 76494
L68497 76456
L68577 76419
" />
<path d="M69116 76906
L69715 76906
" />
<path d="M70395 77169
L70315 77206
L70165 77206
L70095 77169
L70062 77131
L70034 77056
L70062 76831
L70109 76756
L70151 76719
L70231 76681
L70381 76681
L70451 76719
" />
<path d="M70728 77206
L70826 76419
" />
<path d="M71065 77206
L71117 76794
L71089 76719
L71018 76681
L70906 76681
L70826 76719
L70784 76756
" />
<path d="M71778 77206
L71829 76794
L71801 76719
L71731 76681
L71581 76681
L71501 76719
" />
<path d="M71782 77169
L71703 77206
L71515 77206
L71445 77169
L71417 77094
L71426 77019
L71473 76944
L71553 76906
L71740 76906
L71820 76869
" />
<path d="M72218 76681
L72153 77206
" />
<path d="M72209 76756
L72251 76719
L72331 76681
L72443 76681
L72514 76719
L72542 76794
L72490 77206
" />
<path d="M72931 76681
L72865 77206
" />
<path d="M72921 76756
L72964 76719
L73043 76681
L73156 76681
L73226 76719
L73254 76794
L73203 77206
" />
<path d="M73882 77169
L73802 77206
L73652 77206
L73582 77169
L73554 77094
L73592 76794
L73638 76719
L73718 76681
L73868 76681
L73938 76719
L73967 76794
L73957 76869
L73573 76944
" />
<path d="M74365 77206
L74295 77169
L74266 77094
L74351 76419
" />
<path d="M75330 76681
L75232 77469
" />
<path d="M75326 76719
L75405 76681
L75555 76681
L75626 76719
L75658 76756
L75687 76831
L75658 77056
L75612 77131
L75569 77169
L75490 77206
L75340 77206
L75269 77169
" />
<path d="M76090 77206
L76019 77169
L75987 77131
L75958 77056
L75987 76831
L76033 76756
L76076 76719
L76155 76681
L76268 76681
L76338 76719
L76371 76756
L76399 76831
L76371 77056
L76324 77131
L76282 77169
L76202 77206
L76090 77206
" />
<path d="M77093 76681
L77013 77319
L76966 77394
L76924 77431
L76844 77469
L76732 77469
L76661 77431
" />
<path d="M77032 77169
L76952 77206
L76802 77206
L76732 77169
L76699 77131
L76671 77056
L76699 76831
L76746 76756
L76788 76719
L76868 76681
L77018 76681
L77088 76719
" />
<path d="M77514 77206
L77444 77169
L77411 77131
L77383 77056
L77411 76831
L77458 76756
L77500 76719
L77580 76681
L77693 76681
L77763 76719
L77796 76756
L77824 76831
L77796 77056
L77749 77131
L77707 77169
L77627 77206
L77514 77206
" />
<path d="M78780 76681
L78682 77469
" />
<path d="M78775 76719
L78855 76681
L79005 76681
L79075 76719
L79108 76756
L79136 76831
L79108 77056
L79061 77131
L79019 77169
L78939 77206
L78789 77206
L78719 77169
" />
<path d="M79427 77206
L79492 76681
" />
<path d="M79525 76419
L79483 76456
L79516 76494
L79558 76456
L79525 76419
L79516 76494
" />
<path d="M79867 76681
L79802 77206
" />
<path d="M79858 76756
L79900 76719
L79980 76681
L80092 76681
L80163 76719
L80191 76794
L80139 77206
" />
<path d="M81114 77206
L81212 76419
" />
<path d="M81175 76719
L81255 76681
L81405 76681
L81475 76719
L81508 76756
L81536 76831
L81508 77056
L81461 77131
L81419 77169
L81339 77206
L81189 77206
L81119 77169
" />
<path d="M81939 77206
L81869 77169
L81836 77131
L81808 77056
L81836 76831
L81883 76756
L81925 76719
L82005 76681
L82117 76681
L82187 76719
L82220 76756
L82248 76831
L82220 77056
L82173 77131
L82131 77169
L82051 77206
L81939 77206
" />
<path d="M82876 77206
L82928 76794
L82900 76719
L82829 76681
L82679 76681
L82600 76719
" />
<path d="M82881 77169
L82801 77206
L82614 77206
L82544 77169
L82515 77094
L82525 77019
L82572 76944
L82651 76906
L82839 76906
L82919 76869
" />
<path d="M83251 77206
L83317 76681
" />
<path d="M83298 76831
L83345 76756
L83387 76719
L83467 76681
L83542 76681
" />
<path d="M84076 77206
L84175 76419
" />
<path d="M84081 77169
L84001 77206
L83851 77206
L83781 77169
L83748 77131
L83720 77056
L83748 76831
L83795 76756
L83837 76719
L83917 76681
L84067 76681
L84137 76719
" />
</g>
<g style="fill:#000000; fill-opacity:0.0; 
stroke:#000000; stroke-width:39.3701; stroke-opacity:1; 
stroke-linecap:round; stroke-linejoin:round;">
</g>
<g style="fill:#000000; fill-opacity:0.0; 
stroke:#000000; stroke-width:59.0551; stroke-opacity:1; 
stroke-linecap:round; stroke-linejoin:round;">
<path d="M63487 75390
L63290 75390
" />
<path d="M63290 75700
L63290 75109
L63571 75109
" />
<path d="M63796 75700
L63796 75306
" />
<path d="M63796 75109
L63768 75137
L63796 75165
L63824 75137
L63796 75109
L63796 75165
" />
<path d="M64161 75700
L64105 75672
L64077 75615
L64077 75109
" />
<path d="M64611 75672
L64555 75700
L64443 75700
L64386 75672
L64358 75615
L64358 75390
L64386 75334
L64443 75306
L64555 75306
L64611 75334
L64640 75390
L64640 75447
L64358 75503
" />
<path d="M64893 75643
L64921 75672
L64893 75700
L64865 75672
L64893 75643
L64893 75700
" />
<path d="M64893 75334
L64921 75362
L64893 75390
L64865 75362
L64893 75334
L64893 75390
" />
<path d="M65933 75700
L65596 75700
" />
<path d="M65764 75700
L65764 75109
L65708 75194
L65652 75250
L65596 75278
" />
<path d="M66158 75165
L66186 75137
L66242 75109
L66383 75109
L66439 75137
L66467 75165
L66496 75222
L66496 75278
L66467 75362
L66130 75700
L66496 75700
" />
<path d="M66861 75109
L66917 75109
L66974 75137
L67002 75165
L67030 75222
L67058 75334
L67058 75475
L67030 75587
L67002 75643
L66974 75672
L66917 75700
L66861 75700
L66805 75672
L66777 75643
L66749 75587
L66721 75475
L66721 75334
L66749 75222
L66777 75165
L66805 75137
L66861 75109
" />
<path d="M67311 75475
L67761 75475
" />
<path d="M68295 75672
L68239 75700
L68127 75700
L68070 75672
L68042 75643
L68014 75587
L68014 75419
L68042 75362
L68070 75334
L68127 75306
L68239 75306
L68295 75334
" />
<path d="M68548 75700
L68548 75109
" />
<path d="M68802 75700
L68802 75390
L68773 75334
L68717 75306
L68633 75306
L68577 75334
L68548 75362
" />
<path d="M69336 75700
L69336 75390
L69308 75334
L69251 75306
L69139 75306
L69083 75334
" />
<path d="M69336 75672
L69280 75700
L69139 75700
L69083 75672
L69055 75615
L69055 75559
L69083 75503
L69139 75475
L69280 75475
L69336 75447
" />
<path d="M69617 75306
L69617 75700
" />
<path d="M69617 75362
L69645 75334
L69701 75306
L69786 75306
L69842 75334
L69870 75390
L69870 75700
" />
<path d="M70151 75306
L70151 75700
" />
<path d="M70151 75362
L70179 75334
L70236 75306
L70320 75306
L70376 75334
L70404 75390
L70404 75700
" />
<path d="M70911 75672
L70854 75700
L70742 75700
L70686 75672
L70658 75615
L70658 75390
L70686 75334
L70742 75306
L70854 75306
L70911 75334
L70939 75390
L70939 75447
L70658 75503
" />
<path d="M71276 75700
L71220 75672
L71192 75615
L71192 75109
" />
<path d="M71951 75306
L71951 75897
" />
<path d="M71951 75334
L72007 75306
L72120 75306
L72176 75334
L72204 75362
L72232 75419
L72232 75587
L72204 75643
L72176 75672
L72120 75700
L72007 75700
L71951 75672
" />
<path d="M72570 75700
L72514 75672
L72485 75643
L72457 75587
L72457 75419
L72485 75362
L72514 75334
L72570 75306
L72654 75306
L72710 75334
L72739 75362
L72767 75419
L72767 75587
L72739 75643
L72710 75672
L72654 75700
L72570 75700
" />
<path d="M73273 75306
L73273 75784
L73245 75840
L73217 75868
L73160 75897
L73076 75897
L73020 75868
" />
<path d="M73273 75672
L73217 75700
L73104 75700
L73048 75672
L73020 75643
L72992 75587
L72992 75419
L73020 75362
L73048 75334
L73104 75306
L73217 75306
L73273 75334
" />
<path d="M73638 75700
L73582 75672
L73554 75643
L73526 75587
L73526 75419
L73554 75362
L73582 75334
L73638 75306
L73723 75306
L73779 75334
L73807 75362
L73835 75419
L73835 75587
L73807 75643
L73779 75672
L73723 75700
L73638 75700
" />
<path d="M74538 75306
L74538 75897
" />
<path d="M74538 75334
L74595 75306
L74707 75306
L74763 75334
L74791 75362
L74820 75419
L74820 75587
L74791 75643
L74763 75672
L74707 75700
L74595 75700
L74538 75672
" />
<path d="M75073 75700
L75073 75306
" />
<path d="M75073 75109
L75044 75137
L75073 75165
L75101 75137
L75073 75109
L75073 75165
" />
<path d="M75354 75306
L75354 75700
" />
<path d="M75354 75362
L75382 75334
L75438 75306
L75523 75306
L75579 75334
L75607 75390
L75607 75700
" />
<path d="M76338 75700
L76338 75109
" />
<path d="M76338 75334
L76394 75306
L76507 75306
L76563 75334
L76591 75362
L76619 75419
L76619 75587
L76591 75643
L76563 75672
L76507 75700
L76394 75700
L76338 75672
" />
<path d="M76957 75700
L76901 75672
L76872 75643
L76844 75587
L76844 75419
L76872 75362
L76901 75334
L76957 75306
L77041 75306
L77097 75334
L77125 75362
L77154 75419
L77154 75587
L77125 75643
L77097 75672
L77041 75700
L76957 75700
" />
<path d="M77660 75700
L77660 75390
L77632 75334
L77575 75306
L77463 75306
L77407 75334
" />
<path d="M77660 75672
L77604 75700
L77463 75700
L77407 75672
L77379 75615
L77379 75559
L77407 75503
L77463 75475
L77604 75475
L77660 75447
" />
<path d="M77941 75700
L77941 75306
" />
<path d="M77941 75419
L77969 75362
L77997 75334
L78053 75306
L78110 75306
" />
<path d="M78560 75700
L78560 75109
" />
<path d="M78560 75672
L78503 75700
L78391 75700
L78335 75672
L78307 75643
L78278 75587
L78278 75419
L78307 75362
L78335 75334
L78391 75306
L78503 75306
L78560 75334
" />
<path d="M78841 75643
L78869 75672
L78841 75700
L78813 75672
L78841 75643
L78841 75700
" />
<path d="M79122 75700
L79122 75109
" />
<path d="M79178 75475
L79347 75700
" />
<path d="M79347 75306
L79122 75531
" />
<path d="M79600 75700
L79600 75306
" />
<path d="M79600 75109
L79572 75137
L79600 75165
L79628 75137
L79600 75109
L79600 75165
" />
<path d="M80134 75672
L80078 75700
L79966 75700
L79910 75672
L79881 75643
L79853 75587
L79853 75419
L79881 75362
L79910 75334
L79966 75306
L80078 75306
L80134 75334
" />
<path d="M80641 75700
L80641 75390
L80613 75334
L80556 75306
L80444 75306
L80388 75334
" />
<path d="M80641 75672
L80584 75700
L80444 75700
L80388 75672
L80359 75615
L80359 75559
L80388 75503
L80444 75475
L80584 75475
L80641 75447
" />
<path d="M81175 75700
L81175 75109
" />
<path d="M81175 75672
L81119 75700
L81006 75700
L80950 75672
L80922 75643
L80894 75587
L80894 75419
L80922 75362
L80950 75334
L81006 75306
L81119 75306
L81175 75334
" />
<path d="M81316 75756
L81766 75756
" />
<path d="M81906 75306
L81906 75897
" />
<path d="M81906 75334
L81962 75306
L82075 75306
L82131 75334
L82159 75362
L82187 75419
L82187 75587
L82159 75643
L82131 75672
L82075 75700
L81962 75700
L81906 75672
" />
<path d="M82694 75672
L82637 75700
L82525 75700
L82469 75672
L82440 75643
L82412 75587
L82412 75419
L82440 75362
L82469 75334
L82525 75306
L82637 75306
L82694 75334
" />
<path d="M82947 75700
L82947 75109
" />
<path d="M82947 75334
L83003 75306
L83115 75306
L83172 75334
L83200 75362
L83228 75419
L83228 75587
L83200 75643
L83172 75672
L83115 75700
L83003 75700
L82947 75672
" />
</g>
<g style="fill:#000000; fill-opacity:0.0; 
stroke:#000000; stroke-width:39.3701; stroke-opacity:1; 
stroke-linecap:round; stroke-linejoin:round;">
</g>
<g style="fill:#000000; fill-opacity:0.0; 
stroke:#000000; stroke-width:59.0551; stroke-opacity:1; 
stroke-linecap:round; stroke-linejoin:round;">
<path d="M62755 73779
L105275 73779
" />
</g>
<g style="fill:#000000; fill-opacity:0.0; 
stroke:#000000; stroke-width:39.3701; stroke-opacity:1; 
stroke-linecap:round; stroke-linejoin:round;">
</g>
<g style="fill:#000000; fill-opacity:0.0; 
stroke:#000000; stroke-width:59.0551; stroke-opacity:1; 
stroke-linecap:round; stroke-linejoin:round;">
<path d="M63262 74609
L63346 74637
L63487 74637
L63543 74609
L63571 74580
L63599 74524
L63599 74468
L63571 74412
L63543 74384
L63487 74356
L63374 74327
L63318 74299
L63290 74271
L63262 74215
L63262 74159
L63290 74102
L63318 74074
L63374 74046
L63515 74046
L63599 74074
" />
<path d="M63852 74637
L63852 74046
" />
<path d="M64105 74637
L64105 74327
L64077 74271
L64021 74243
L63937 74243
L63880 74271
L63852 74299
" />
<path d="M64611 74609
L64555 74637
L64443 74637
L64386 74609
L64358 74552
L64358 74327
L64386 74271
L64443 74243
L64555 74243
L64611 74271
L64640 74327
L64640 74384
L64358 74440
" />
<path d="M65118 74609
L65061 74637
L64949 74637
L64893 74609
L64865 74552
L64865 74327
L64893 74271
L64949 74243
L65061 74243
L65118 74271
L65146 74327
L65146 74384
L64865 74440
" />
<path d="M65314 74243
L65539 74243
" />
<path d="M65399 74046
L65399 74552
L65427 74609
L65483 74637
L65539 74637
" />
<path d="M65736 74580
L65764 74609
L65736 74637
L65708 74609
L65736 74580
L65736 74637
" />
<path d="M65736 74271
L65764 74299
L65736 74327
L65708 74299
L65736 74271
L65736 74327
" />
</g>
<g style="fill:#000000; fill-opacity:0.0; 
stroke:#000000; stroke-width:39.3701; stroke-opacity:1; 
stroke-linecap:round; stroke-linejoin:round;">
</g>
<g style="fill:#000000; fill-opacity:0.0; 
stroke:#000000; stroke-width:59.0551; stroke-opacity:1; 
stroke-linecap:round; stroke-linejoin:round;">
<path d="M70629 77716
L70629 78897
" />
</g>
<g style="fill:#000000; fill-opacity:0.0; 
stroke:#000000; stroke-width:39.3701; stroke-opacity:1; 
stroke-linecap:round; stroke-linejoin:round;">
</g>
<g style="fill:#000000; fill-opacity:0.0; 
stroke:#000000; stroke-width:59.0551; stroke-opacity:1; 
stroke-linecap:round; stroke-linejoin:round;">
<path d="M95826 77716
L95826 80275
" />
</g>
<g style="fill:#000000; fill-opacity:0.0; 
stroke:#000000; stroke-width:150; stroke-opacity:1; 
stroke-linecap:round; stroke-linejoin:round;">
<path d="M60685 29527
L48956 29527
" />
<path d="M18055 29527
L29783 29527
" />
<path d="M90295 47645
L90295 47645
" />
<path d="M18055 58371
L60685 58371
" />
</g>
<g style="fill:#000000; fill-opacity:0.0; 
stroke:#000000; stroke-width:78.7402; stroke-opacity:1; 
stroke-linecap:round; stroke-linejoin:round;">
<path d="M50230 51854
L50305 52248
L50365 51966
L50425 52248
L50500 51854
" />
<path d="M50620 52248
L50620 51854
" />
<path d="M50755 52248
L50755 52041
L50740 52004
L50710 51985
L50665 51985
L50635 52004
L50620 52023
" />
<path d="M51025 52229
L50995 52248
L50935 52248
L50905 52229
L50890 52191
L50890 52041
L50905 52004
L50935 51985
L50995 51985
L51025 52004
L51040 52041
L51040 52079
L50890 52116
" />
<path d="M51295 52229
L51265 52248
L51205 52248
L51175 52229
L51160 52191
L51160 52041
L51175 52004
L51205 51985
L51265 51985
L51295 52004
L51310 52041
L51310 52079
L51160 52116
" />
<path d="M51490 52248
L51460 52229
L51445 52191
L51445 51854
" />
<path d="M51730 52229
L51700 52248
L51640 52248
L51610 52229
L51595 52191
L51595 52041
L51610 52004
L51640 51985
L51700 51985
L51730 52004
L51745 52041
L51745 52079
L51595 52116
" />
<path d="M51880 52248
L51880 51985
" />
<path d="M51880 52060
L51895 52023
L51910 52004
L51940 51985
L51970 51985
" />
<path d="M52465 52248
L52315 52248
L52315 51854
" />
<path d="M52705 52248
L52705 52041
L52690 52004
L52660 51985
L52600 51985
L52570 52004
" />
<path d="M52705 52229
L52675 52248
L52600 52248
L52570 52229
L52555 52191
L52555 52154
L52570 52116
L52600 52098
L52675 52098
L52705 52079
" />
<path d="M52855 52248
L52855 51854
" />
<path d="M52855 52004
L52885 51985
L52945 51985
L52975 52004
L52990 52023
L53005 52060
L53005 52173
L52990 52210
L52975 52229
L52945 52248
L52885 52248
L52855 52229
" />
<path d="M53154 52229
L53154 52248
L53139 52285
L53124 52304
" />
<path d="M53514 51891
L53529 51873
L53559 51854
L53634 51854
L53664 51873
L53679 51891
L53694 51929
L53694 51966
L53679 52023
L53499 52248
L53694 52248
" />
<path d="M53889 51854
L53919 51854
L53949 51873
L53964 51891
L53979 51929
L53994 52004
L53994 52098
L53979 52173
L53964 52210
L53949 52229
L53919 52248
L53889 52248
L53859 52229
L53844 52210
L53829 52173
L53814 52098
L53814 52004
L53829 51929
L53844 51891
L53859 51873
L53889 51854
" />
<path d="M54294 52248
L54114 52248
" />
<path d="M54204 52248
L54204 51854
L54174 51910
L54144 51948
L54114 51966
" />
<path d="M54399 51854
L54594 51854
L54489 52004
L54534 52004
L54564 52023
L54579 52041
L54594 52079
L54594 52173
L54579 52210
L54564 52229
L54534 52248
L54444 52248
L54414 52229
L54399 52210
" />
<path d="M50263 51473
L50263 51079
" />
<path d="M50398 51473
L50398 51266
L50383 51229
L50353 51210
L50308 51210
L50278 51229
L50263 51248
" />
<path d="M50503 51210
L50623 51210
" />
<path d="M50548 51079
L50548 51416
L50563 51454
L50593 51473
L50623 51473
" />
<path d="M50683 51210
L50803 51210
" />
<path d="M50728 51079
L50728 51416
L50743 51454
L50773 51473
L50803 51473
" />
<path d="M50908 51210
L50908 51604
" />
<path d="M50908 51229
L50938 51210
L50998 51210
L51028 51229
L51043 51248
L51058 51285
L51058 51398
L51043 51435
L51028 51454
L50998 51473
L50938 51473
L50908 51454
" />
<path d="M51193 51435
L51208 51454
L51193 51473
L51178 51454
L51193 51435
L51193 51473
" />
<path d="M51193 51229
L51208 51248
L51193 51266
L51178 51248
L51193 51229
L51193 51266
" />
<path d="M51568 51060
L51298 51566
" />
<path d="M51897 51060
L51628 51566
" />
<path d="M52002 51473
L52002 51210
" />
<path d="M52002 51248
L52017 51229
L52047 51210
L52092 51210
L52122 51229
L52137 51266
L52137 51473
" />
<path d="M52137 51266
L52152 51229
L52182 51210
L52227 51210
L52257 51229
L52272 51266
L52272 51473
" />
<path d="M52422 51473
L52422 51210
" />
<path d="M52422 51079
L52407 51098
L52422 51116
L52437 51098
L52422 51079
L52422 51116
" />
<path d="M52707 51454
L52677 51473
L52617 51473
L52587 51454
L52572 51435
L52557 51398
L52557 51285
L52572 51248
L52587 51229
L52617 51210
L52677 51210
L52707 51229
" />
<path d="M52842 51473
L52842 51210
" />
<path d="M52842 51285
L52857 51248
L52872 51229
L52902 51210
L52932 51210
" />
<path d="M53082 51473
L53052 51454
L53037 51435
L53022 51398
L53022 51285
L53037 51248
L53052 51229
L53082 51210
L53127 51210
L53157 51229
L53172 51248
L53187 51285
L53187 51398
L53172 51435
L53157 51454
L53127 51473
L53082 51473
" />
<path d="M53277 51210
L53397 51210
" />
<path d="M53322 51473
L53322 51135
L53337 51098
L53367 51079
L53397 51079
" />
<path d="M53547 51473
L53517 51454
L53502 51416
L53502 51079
" />
<path d="M53802 51210
L53802 51473
" />
<path d="M53667 51210
L53667 51416
L53682 51454
L53712 51473
L53757 51473
L53787 51454
L53802 51435
" />
<path d="M53952 51473
L53952 51210
" />
<path d="M53952 51079
L53937 51098
L53952 51116
L53967 51098
L53952 51079
L53952 51116
" />
<path d="M54237 51473
L54237 51079
" />
<path d="M54237 51454
L54207 51473
L54147 51473
L54117 51454
L54102 51435
L54087 51398
L54087 51285
L54102 51248
L54117 51229
L54147 51210
L54207 51210
L54237 51229
" />
<path d="M54387 51473
L54387 51210
" />
<path d="M54387 51079
L54372 51098
L54387 51116
L54402 51098
L54387 51079
L54387 51116
" />
<path d="M54672 51454
L54642 51473
L54582 51473
L54552 51454
L54537 51435
L54522 51398
L54522 51285
L54537 51248
L54552 51229
L54582 51210
L54642 51210
L54672 51229
" />
<path d="M54792 51454
L54822 51473
L54882 51473
L54912 51454
L54927 51416
L54927 51398
L54912 51360
L54882 51341
L54837 51341
L54807 51323
L54792 51285
L54792 51266
L54807 51229
L54837 51210
L54882 51210
L54912 51229
" />
<path d="M55062 51435
L55077 51454
L55062 51473
L55047 51454
L55062 51435
L55062 51473
" />
<path d="M55347 51210
L55347 51473
" />
<path d="M55212 51210
L55212 51416
L55227 51454
L55257 51473
L55302 51473
L55332 51454
L55347 51435
" />
<path d="M55452 51210
L55572 51210
" />
<path d="M55497 51079
L55497 51416
L55512 51454
L55542 51473
L55572 51473
" />
<path d="M55722 51473
L55692 51454
L55677 51435
L55662 51398
L55662 51285
L55677 51248
L55692 51229
L55722 51210
L55767 51210
L55797 51229
L55812 51248
L55827 51285
L55827 51398
L55812 51435
L55797 51454
L55767 51473
L55722 51473
" />
<path d="M55962 51473
L55962 51210
" />
<path d="M55962 51285
L55977 51248
L55992 51229
L56022 51210
L56052 51210
" />
<path d="M56202 51473
L56172 51454
L56157 51435
L56142 51398
L56142 51285
L56157 51248
L56172 51229
L56202 51210
L56247 51210
L56277 51229
L56292 51248
L56307 51285
L56307 51398
L56292 51435
L56277 51454
L56247 51473
L56202 51473
" />
<path d="M56442 51210
L56442 51473
" />
<path d="M56442 51248
L56457 51229
L56487 51210
L56532 51210
L56562 51229
L56577 51266
L56577 51473
" />
<path d="M56682 51210
L56802 51210
" />
<path d="M56727 51079
L56727 51416
L56742 51454
L56772 51473
L56802 51473
" />
<path d="M56952 51473
L56922 51454
L56907 51435
L56892 51398
L56892 51285
L56907 51248
L56922 51229
L56952 51210
L56997 51210
L57027 51229
L57042 51248
L57057 51285
L57057 51398
L57042 51435
L57027 51454
L56997 51473
L56952 51473
" />
<path d="M57192 51435
L57207 51454
L57192 51473
L57177 51454
L57192 51435
L57192 51473
" />
<path d="M57477 51454
L57447 51473
L57387 51473
L57357 51454
L57342 51435
L57327 51398
L57327 51285
L57342 51248
L57357 51229
L57387 51210
L57447 51210
L57477 51229
" />
<path d="M57747 51473
L57747 51266
L57732 51229
L57702 51210
L57642 51210
L57612 51229
" />
<path d="M57747 51454
L57717 51473
L57642 51473
L57612 51454
L57597 51416
L57597 51379
L57612 51341
L57642 51323
L57717 51323
L57747 51304
" />
<path d="M58122 51060
L57852 51566
" />
<path d="M58362 51473
L58362 51079
" />
<path d="M58362 51454
L58332 51473
L58272 51473
L58242 51454
L58227 51435
L58212 51398
L58212 51285
L58227 51248
L58242 51229
L58272 51210
L58332 51210
L58362 51229
" />
<path d="M58512 51473
L58512 51210
" />
<path d="M58512 51285
L58527 51248
L58542 51229
L58572 51210
L58602 51210
" />
<path d="M58752 51473
L58722 51454
L58707 51435
L58692 51398
L58692 51285
L58707 51248
L58722 51229
L58752 51210
L58797 51210
L58827 51229
L58842 51248
L58857 51285
L58857 51398
L58842 51435
L58827 51454
L58797 51473
L58752 51473
" />
<path d="M58992 51210
L58992 51604
" />
<path d="M58992 51229
L59022 51210
L59082 51210
L59112 51229
L59127 51248
L59142 51285
L59142 51398
L59127 51435
L59112 51454
L59082 51473
L59022 51473
L58992 51454
" />
<path d="M59277 51473
L59277 51079
" />
<path d="M59277 51229
L59307 51210
L59367 51210
L59397 51229
L59412 51248
L59427 51285
L59427 51398
L59412 51435
L59397 51454
L59367 51473
L59307 51473
L59277 51454
" />
<path d="M59607 51473
L59577 51454
L59562 51435
L59547 51398
L59547 51285
L59562 51248
L59577 51229
L59607 51210
L59652 51210
L59682 51229
L59697 51248
L59711 51285
L59711 51398
L59697 51435
L59682 51454
L59652 51473
L59607 51473
" />
<path d="M59801 51210
L59921 51210
" />
<path d="M59846 51079
L59846 51416
L59861 51454
L59891 51473
L59921 51473
" />
</g>
<g style="fill:#000000; fill-opacity:0.0; 
stroke:#000000; stroke-width:150; stroke-opacity:1; 
stroke-linecap:round; stroke-linejoin:round;">
<path d="M29783 29527
L29783 49212
" />
<path d="M48956 29527
L48956 49212
" />
<path d="M60685 58371
L60685 29527
" />
<path d="M18055 29527
L18055 58371
" />
</g>
<g style="fill:#000000; fill-opacity:0.0; 
stroke:#000000; stroke-width:78.7402; stroke-opacity:1; 
stroke-linecap:round; stroke-linejoin:round;">
<path d="M50445 50923
L50265 50923
" />
<path d="M50355 50923
L50355 50529
L50325 50585
L50295 50623
L50265 50641
" />
<path d="M50565 50566
L50580 50548
L50610 50529
L50685 50529
L50715 50548
L50730 50566
L50745 50604
L50745 50641
L50730 50698
L50550 50923
L50745 50923
" />
<path d="M50940 50529
L50970 50529
L51000 50548
L51015 50566
L51030 50604
L51045 50679
L51045 50773
L51030 50848
L51015 50885
L51000 50904
L50970 50923
L50940 50923
L50910 50904
L50895 50885
L50880 50848
L50865 50773
L50865 50679
L50880 50604
L50895 50566
L50910 50548
L50940 50529
" />
<path d="M51180 50773
L51420 50773
" />
<path d="M51705 50904
L51675 50923
L51615 50923
L51585 50904
L51570 50885
L51555 50848
L51555 50735
L51570 50698
L51585 50679
L51615 50660
L51675 50660
L51705 50679
" />
<path d="M51840 50923
L51840 50529
" />
<path d="M51975 50923
L51975 50716
L51960 50679
L51930 50660
L51885 50660
L51855 50679
L51840 50698
" />
<path d="M52260 50923
L52260 50716
L52245 50679
L52215 50660
L52155 50660
L52125 50679
" />
<path d="M52260 50904
L52230 50923
L52155 50923
L52125 50904
L52110 50866
L52110 50829
L52125 50791
L52155 50773
L52230 50773
L52260 50754
" />
<path d="M52410 50660
L52410 50923
" />
<path d="M52410 50698
L52425 50679
L52455 50660
L52500 50660
L52530 50679
L52545 50716
L52545 50923
" />
<path d="M52695 50660
L52695 50923
" />
<path d="M52695 50698
L52710 50679
L52740 50660
L52785 50660
L52815 50679
L52830 50716
L52830 50923
" />
<path d="M53100 50904
L53070 50923
L53010 50923
L52980 50904
L52965 50866
L52965 50716
L52980 50679
L53010 50660
L53070 50660
L53100 50679
L53115 50716
L53115 50754
L52965 50791
" />
<path d="M53295 50923
L53265 50904
L53250 50866
L53250 50529
" />
<path d="M53655 50660
L53655 51054
" />
<path d="M53655 50679
L53685 50660
L53745 50660
L53775 50679
L53790 50698
L53805 50735
L53805 50848
L53790 50885
L53775 50904
L53745 50923
L53685 50923
L53655 50904
" />
<path d="M53985 50923
L53955 50904
L53940 50885
L53925 50848
L53925 50735
L53940 50698
L53955 50679
L53985 50660
L54030 50660
L54060 50679
L54075 50698
L54090 50735
L54090 50848
L54075 50885
L54060 50904
L54030 50923
L53985 50923
" />
<path d="M54360 50660
L54360 50979
L54345 51016
L54330 51035
L54300 51054
L54255 51054
L54225 51035
" />
<path d="M54360 50904
L54330 50923
L54270 50923
L54240 50904
L54225 50885
L54210 50848
L54210 50735
L54225 50698
L54240 50679
L54270 50660
L54330 50660
L54360 50679
" />
<path d="M54555 50923
L54525 50904
L54510 50885
L54495 50848
L54495 50735
L54510 50698
L54525 50679
L54555 50660
L54600 50660
L54630 50679
L54645 50698
L54660 50735
L54660 50848
L54645 50885
L54630 50904
L54600 50923
L54555 50923
" />
<path d="M55034 50660
L55034 51054
" />
<path d="M55034 50679
L55064 50660
L55124 50660
L55154 50679
L55169 50698
L55184 50735
L55184 50848
L55169 50885
L55154 50904
L55124 50923
L55064 50923
L55034 50904
" />
<path d="M55319 50923
L55319 50660
" />
<path d="M55319 50529
L55304 50548
L55319 50566
L55334 50548
L55319 50529
L55319 50566
" />
<path d="M55469 50660
L55469 50923
" />
<path d="M55469 50698
L55484 50679
L55514 50660
L55559 50660
L55589 50679
L55604 50716
L55604 50923
" />
<path d="M55994 50923
L55994 50529
" />
<path d="M55994 50679
L56024 50660
L56084 50660
L56114 50679
L56129 50698
L56144 50735
L56144 50848
L56129 50885
L56114 50904
L56084 50923
L56024 50923
L55994 50904
" />
<path d="M56324 50923
L56294 50904
L56279 50885
L56264 50848
L56264 50735
L56279 50698
L56294 50679
L56324 50660
L56369 50660
L56399 50679
L56414 50698
L56429 50735
L56429 50848
L56414 50885
L56399 50904
L56369 50923
L56324 50923
" />
<path d="M56699 50923
L56699 50716
L56684 50679
L56654 50660
L56594 50660
L56564 50679
" />
<path d="M56699 50904
L56669 50923
L56594 50923
L56564 50904
L56549 50866
L56549 50829
L56564 50791
L56594 50773
L56669 50773
L56699 50754
" />
<path d="M56849 50923
L56849 50660
" />
<path d="M56849 50735
L56864 50698
L56879 50679
L56909 50660
L56939 50660
" />
<path d="M57179 50923
L57179 50529
" />
<path d="M57179 50904
L57149 50923
L57089 50923
L57059 50904
L57044 50885
L57029 50848
L57029 50735
L57044 50698
L57059 50679
L57089 50660
L57149 50660
L57179 50679
" />
<path d="M57539 50660
L57614 50923
L57689 50660
" />
<path d="M57794 50566
L57809 50548
L57839 50529
L57914 50529
L57944 50548
L57959 50566
L57974 50604
L57974 50641
L57959 50698
L57779 50923
L57974 50923
" />
<path d="M58109 50885
L58124 50904
L58109 50923
L58094 50904
L58109 50885
L58109 50923
" />
<path d="M58319 50529
L58349 50529
L58379 50548
L58394 50566
L58409 50604
L58424 50679
L58424 50773
L58409 50848
L58394 50885
L58379 50904
L58349 50923
L58319 50923
L58289 50904
L58274 50885
L58259 50848
L58244 50773
L58244 50679
L58259 50604
L58274 50566
L58289 50548
L58319 50529
" />
</g>
<g style="fill:#000000; fill-opacity:0.0; 
stroke:#000000; stroke-width:150; stroke-opacity:1; 
stroke-linecap:round; stroke-linejoin:round;">
<path d="M29783 49212
L48956 49212
" />
</g>
<g style="fill:#000000; fill-opacity:0.0; 
stroke:#000000; stroke-width:59.0551; stroke-opacity:1; 
stroke-linecap:round; stroke-linejoin:round;">
<path d="M25596 30610
L25596 30216
L25746 30216
L25783 30235
L25802 30254
L25821 30291
L25821 30347
L25802 30385
L25783 30404
L25746 30422
L25596 30422
" />
<path d="M25971 30254
L25990 30235
L26027 30216
L26121 30216
L26158 30235
L26177 30254
L26196 30291
L26196 30329
L26177 30385
L25952 30610
L26196 30610
" />
</g>
<g style="fill:#000000; fill-opacity:0.0; 
stroke:#000000; stroke-width:40; stroke-opacity:1; 
stroke-linecap:round; stroke-linejoin:round;">
<path d="M35328 55121
L35328 55478
L35304 55549
L35256 55597
L35185 55621
L35137 55621
" />
<path d="M35804 55121
L35566 55121
L35542 55359
L35566 55335
L35614 55311
L35733 55311
L35780 55335
L35804 55359
L35828 55406
L35828 55526
L35804 55573
L35780 55597
L35733 55621
L35614 55621
L35566 55597
L35542 55573
" />
<path d="M37648 55121
L37934 55121
" />
<path d="M37791 55621
L37791 55121
" />
<path d="M38267 55359
L38101 55359
" />
<path d="M38101 55621
L38101 55121
L38339 55121
" />
<path d="M38529 55621
L38529 55121
L38696 55478
L38862 55121
L38862 55621
" />
<path d="M39101 55430
L39481 55430
" />
<path d="M39981 55621
L39696 55621
" />
<path d="M39839 55621
L39839 55121
L39791 55192
L39743 55240
L39696 55264
" />
<path d="M40172 55168
L40196 55145
L40243 55121
L40362 55121
L40410 55145
L40434 55168
L40458 55216
L40458 55264
L40434 55335
L40148 55621
L40458 55621
" />
<path d="M40910 55121
L40672 55121
L40648 55359
L40672 55335
L40720 55311
L40839 55311
L40886 55335
L40910 55359
L40934 55406
L40934 55526
L40910 55573
L40886 55597
L40839 55621
L40720 55621
L40672 55597
L40648 55573
" />
<path d="M41148 55430
L41529 55430
" />
<path d="M41862 55121
L41910 55121
L41958 55145
L41981 55168
L42005 55216
L42029 55311
L42029 55430
L42005 55526
L41981 55573
L41958 55597
L41910 55621
L41862 55621
L41815 55597
L41791 55573
L41767 55526
L41743 55430
L41743 55311
L41767 55216
L41791 55168
L41815 55145
L41862 55121
" />
<path d="M42220 55168
L42243 55145
L42291 55121
L42410 55121
L42458 55145
L42481 55168
L42505 55216
L42505 55264
L42481 55335
L42196 55621
L42505 55621
" />
<path d="M42720 55430
L43101 55430
" />
<path d="M43291 55121
L43624 55621
" />
<path d="M43624 55121
L43291 55621
" />
<path d="M43815 55430
L44196 55430
" />
<path d="M44434 55621
L44434 55121
L44553 55121
L44624 55145
L44672 55192
L44696 55240
L44720 55335
L44720 55406
L44696 55502
L44672 55549
L44624 55597
L44553 55621
L44434 55621
" />
<path d="M44934 55621
L44934 55121
" />
<path d="M44934 55359
L45220 55359
" />
<path d="M45220 55621
L45220 55121
" />
<path d="M20728 55121
L20728 55478
L20704 55549
L20656 55597
L20585 55621
L20537 55621
" />
<path d="M21180 55287
L21180 55621
" />
<path d="M21061 55097
L20942 55454
L21252 55454
" />
<path d="M22173 55121
L22459 55121
" />
<path d="M22316 55621
L22316 55121
" />
<path d="M22792 55359
L22626 55359
" />
<path d="M22626 55621
L22626 55121
L22864 55121
" />
<path d="M23054 55621
L23054 55121
L23221 55478
L23387 55121
L23387 55621
" />
<path d="M23626 55430
L24006 55430
" />
<path d="M24506 55621
L24221 55621
" />
<path d="M24364 55621
L24364 55121
L24316 55192
L24268 55240
L24221 55264
" />
<path d="M24697 55168
L24721 55145
L24768 55121
L24887 55121
L24935 55145
L24959 55168
L24983 55216
L24983 55264
L24959 55335
L24673 55621
L24983 55621
" />
<path d="M25292 55121
L25340 55121
L25387 55145
L25411 55168
L25435 55216
L25459 55311
L25459 55430
L25435 55526
L25411 55573
L25387 55597
L25340 55621
L25292 55621
L25245 55597
L25221 55573
L25197 55526
L25173 55430
L25173 55311
L25197 55216
L25221 55168
L25245 55145
L25292 55121
" />
<path d="M25673 55430
L26054 55430
" />
<path d="M26387 55121
L26435 55121
L26483 55145
L26506 55168
L26530 55216
L26554 55311
L26554 55430
L26530 55526
L26506 55573
L26483 55597
L26435 55621
L26387 55621
L26340 55597
L26316 55573
L26292 55526
L26268 55430
L26268 55311
L26292 55216
L26316 55168
L26340 55145
L26387 55121
" />
<path d="M26745 55168
L26768 55145
L26816 55121
L26935 55121
L26983 55145
L27006 55168
L27030 55216
L27030 55264
L27006 55335
L26721 55621
L27030 55621
" />
<path d="M27245 55430
L27626 55430
" />
<path d="M27816 55121
L28149 55621
" />
<path d="M28149 55121
L27816 55621
" />
<path d="M28340 55430
L28721 55430
" />
<path d="M28959 55621
L28959 55121
L29078 55121
L29149 55145
L29197 55192
L29221 55240
L29245 55335
L29245 55406
L29221 55502
L29197 55549
L29149 55597
L29078 55621
L28959 55621
" />
<path d="M29459 55621
L29459 55121
" />
<path d="M29459 55359
L29745 55359
" />
<path d="M29745 55621
L29745 55121
" />
<path d="M49853 55121
L49853 55478
L49829 55549
L49781 55597
L49710 55621
L49662 55621
" />
<path d="M50305 55121
L50210 55121
L50162 55145
L50139 55168
L50091 55240
L50067 55335
L50067 55526
L50091 55573
L50115 55597
L50162 55621
L50258 55621
L50305 55597
L50329 55573
L50353 55526
L50353 55406
L50329 55359
L50305 55335
L50258 55311
L50162 55311
L50115 55335
L50091 55359
L50067 55406
" />
<path d="M51348 55121
L51634 55121
" />
<path d="M51491 55621
L51491 55121
" />
<path d="M51967 55359
L51801 55359
" />
<path d="M51801 55621
L51801 55121
L52039 55121
" />
<path d="M52229 55621
L52229 55121
L52396 55478
L52562 55121
L52562 55621
" />
<path d="M52801 55430
L53181 55430
" />
<path d="M53681 55621
L53396 55621
" />
<path d="M53539 55621
L53539 55121
L53491 55192
L53443 55240
L53396 55264
" />
<path d="M53872 55168
L53896 55145
L53943 55121
L54062 55121
L54110 55145
L54134 55168
L54158 55216
L54158 55264
L54134 55335
L53848 55621
L54158 55621
" />
<path d="M54467 55121
L54515 55121
L54562 55145
L54586 55168
L54610 55216
L54634 55311
L54634 55430
L54610 55526
L54586 55573
L54562 55597
L54515 55621
L54467 55621
L54420 55597
L54396 55573
L54372 55526
L54348 55430
L54348 55311
L54372 55216
L54396 55168
L54420 55145
L54467 55121
" />
<path d="M54848 55430
L55229 55430
" />
<path d="M55562 55121
L55610 55121
L55658 55145
L55681 55168
L55705 55216
L55729 55311
L55729 55430
L55705 55526
L55681 55573
L55658 55597
L55610 55621
L55562 55621
L55515 55597
L55491 55573
L55467 55526
L55443 55430
L55443 55311
L55467 55216
L55491 55168
L55515 55145
L55562 55121
" />
<path d="M55920 55168
L55943 55145
L55991 55121
L56110 55121
L56158 55145
L56181 55168
L56205 55216
L56205 55264
L56181 55335
L55896 55621
L56205 55621
" />
<path d="M56420 55430
L56801 55430
" />
<path d="M56991 55121
L57324 55621
" />
<path d="M57324 55121
L56991 55621
" />
<path d="M57515 55430
L57896 55430
" />
<path d="M58134 55621
L58134 55121
L58253 55121
L58324 55145
L58372 55192
L58396 55240
L58420 55335
L58420 55406
L58396 55502
L58372 55549
L58324 55597
L58253 55621
L58134 55621
" />
<path d="M58634 55621
L58634 55121
" />
<path d="M58634 55359
L58920 55359
" />
<path d="M58920 55621
L58920 55121
" />
</g>
<g style="fill:#000000; fill-opacity:0.0; 
stroke:#000000; stroke-width:59.0551; stroke-opacity:1; 
stroke-linecap:round; stroke-linejoin:round;">
<path d="M27606 30610
L27606 30216
L27756 30216
L27793 30235
L27812 30254
L27831 30291
L27831 30347
L27812 30385
L27793 30404
L27756 30422
L27606 30422
" />
<path d="M28206 30610
L27981 30610
" />
<path d="M28093 30610
L28093 30216
L28056 30272
L28018 30310
L27981 30329
" />
<path d="M52535 48487
L52535 48093
L52685 48093
L52722 48112
L52741 48130
L52760 48168
L52760 48224
L52741 48262
L52722 48280
L52685 48299
L52535 48299
" />
<path d="M52891 48093
L53135 48093
L53004 48243
L53060 48243
L53097 48262
L53116 48280
L53135 48318
L53135 48412
L53116 48449
L53097 48468
L53060 48487
L52947 48487
L52910 48468
L52891 48449
" />
<path d="M50559 48491
L50559 48097
L50709 48097
L50746 48116
L50765 48134
L50784 48172
L50784 48228
L50765 48266
L50746 48284
L50709 48303
L50559 48303
" />
<path d="M51121 48228
L51121 48491
" />
<path d="M51028 48078
L50934 48359
L51178 48359
" />
<path d="M58370 30414
L58370 30020
L58520 30020
L58558 30039
L58577 30058
L58595 30095
L58595 30151
L58577 30189
L58558 30208
L58520 30226
L58370 30226
" />
<path d="M58952 30020
L58764 30020
L58745 30208
L58764 30189
L58802 30170
L58895 30170
L58933 30189
L58952 30208
L58970 30245
L58970 30339
L58952 30376
L58933 30395
L58895 30414
L58802 30414
L58764 30395
L58745 30376
" />
<path d="M19788 30414
L19788 30020
L19938 30020
L19975 30039
L19994 30058
L20013 30095
L20013 30151
L19994 30189
L19975 30208
L19938 30226
L19788 30226
" />
<path d="M20350 30020
L20275 30020
L20238 30039
L20219 30058
L20181 30114
L20163 30189
L20163 30339
L20181 30376
L20200 30395
L20238 30414
L20313 30414
L20350 30395
L20369 30376
L20388 30339
L20388 30245
L20369 30208
L20350 30189
L20313 30170
L20238 30170
L20200 30189
L20181 30208
L20163 30245
" />
<path d="M58370 50493
L58370 50099
L58520 50099
L58558 50118
L58577 50136
L58595 50174
L58595 50230
L58577 50268
L58558 50286
L58520 50305
L58370 50305
" />
<path d="M58727 50099
L58989 50099
L58820 50493
" />
<path d="M19788 50493
L19788 50099
L19938 50099
L19975 50118
L19994 50136
L20013 50174
L20013 50230
L19994 50268
L19975 50286
L19938 50305
L19788 50305
" />
<path d="M20238 50268
L20200 50249
L20181 50230
L20163 50193
L20163 50174
L20181 50136
L20200 50118
L20238 50099
L20313 50099
L20350 50118
L20369 50136
L20388 50174
L20388 50193
L20369 50230
L20350 50249
L20313 50268
L20238 50268
L20200 50286
L20181 50305
L20163 50343
L20163 50418
L20181 50455
L20200 50474
L20238 50493
L20313 50493
L20350 50474
L20369 50455
L20388 50418
L20388 50343
L20369 50305
L20350 50286
L20313 50268
" />
<path d="M56504 32010
L56485 32029
L56429 32048
L56391 32048
L56335 32029
L56298 31991
L56279 31954
L56260 31879
L56260 31823
L56279 31748
L56298 31710
L56335 31673
L56391 31654
L56429 31654
L56485 31673
L56504 31691
" />
<path d="M56879 32048
L56654 32048
" />
<path d="M56766 32048
L56766 31654
L56729 31710
L56691 31748
L56654 31766
" />
<path d="M22004 32035
L21985 32054
L21929 32073
L21891 32073
L21835 32054
L21798 32016
L21779 31979
L21760 31904
L21760 31848
L21779 31773
L21798 31735
L21835 31698
L21891 31679
L21929 31679
L21985 31698
L22004 31716
" />
<path d="M22154 31716
L22173 31698
L22210 31679
L22304 31679
L22341 31698
L22360 31716
L22379 31754
L22379 31791
L22360 31848
L22135 32073
L22379 32073
" />
<path d="M56366 31091
L56235 31091
" />
<path d="M56235 31298
L56235 30904
L56423 30904
" />
<path d="M56704 31091
L56760 31110
L56779 31129
L56798 31166
L56798 31223
L56779 31260
L56760 31279
L56723 31298
L56573 31298
L56573 30904
L56704 30904
L56741 30923
L56760 30941
L56779 30979
L56779 31016
L56760 31054
L56741 31073
L56704 31091
L56573 31091
" />
<path d="M57173 31298
L56948 31298
" />
<path d="M57060 31298
L57060 30904
L57023 30960
L56985 30998
L56948 31016
" />
<path d="M21691 31116
L21560 31116
" />
<path d="M21560 31323
L21560 30929
L21748 30929
" />
<path d="M22029 31116
L22085 31135
L22104 31154
L22123 31191
L22123 31248
L22104 31285
L22085 31304
L22048 31323
L21898 31323
L21898 30929
L22029 30929
L22066 30948
L22085 30966
L22104 31004
L22104 31041
L22085 31079
L22066 31098
L22029 31116
L21898 31116
" />
<path d="M22273 30966
L22291 30948
L22329 30929
L22423 30929
L22460 30948
L22479 30966
L22498 31004
L22498 31041
L22479 31098
L22254 31323
L22498 31323
" />
<path d="M46122 54140
L45935 54271
" />
<path d="M46122 54365
L45729 54365
L45729 54215
L45748 54177
L45766 54159
L45804 54140
L45860 54140
L45898 54159
L45916 54177
L45935 54215
L45935 54365
" />
<path d="M46122 53765
L46122 53990
" />
<path d="M46122 53877
L45729 53877
L45785 53915
L45823 53952
L45841 53990
" />
<path d="M47514 54823
L47514 55142
L47533 55179
L47552 55198
L47589 55217
L47664 55217
L47702 55198
L47721 55179
L47739 55142
L47739 54823
" />
<path d="M48133 55217
L47908 55217
" />
<path d="M48021 55217
L48021 54823
L47983 54880
L47946 54917
L47908 54936
" />
</g>
<g style="fill:#000000; fill-opacity:0.0; 
stroke:#000000; stroke-width:47.2441; stroke-opacity:1; 
stroke-linecap:round; stroke-linejoin:round;">
<path d="M24839 31873
L24839 47920
" />
<path d="M24839 47920
L26934 47920
" />
<path d="M26934 47920
L26934 30825
" />
<path d="M26934 30825
L25887 30825
" />
<path d="M25887 30825
L25887 31873
" />
<path d="M25887 31873
L24839 31873
" />
<path d="M24839 31373
L24839 30825
" />
<path d="M24839 30825
L25387 30825
" />
</g>
<g style="fill:#000000; fill-opacity:0.0; 
stroke:#000000; stroke-width:50; stroke-opacity:1; 
stroke-linecap:round; stroke-linejoin:round;">
<path d="M32745 57161
L32745 56601
" />
<path d="M32465 56881
L33025 56881
" />
<circle cx="32745.1" cy="56881.9" r="197.99" /> 
<path d="M32146 57331
L32146 56431
" />
<path d="M32845 57331
L32146 57331
" />
<path d="M32845 58006
L32845 57331
" />
<path d="M33045 56081
L33045 55756
" />
<path d="M32845 56081
L33045 56081
" />
<path d="M32845 56431
L32845 56081
" />
<path d="M32146 56431
L32845 56431
" />
<path d="M33045 55756
L45895 55756
" />
<path d="M45895 55756
L45895 56431
" />
<path d="M45895 56431
L46594 56431
" />
<path d="M46594 56431
L46594 57331
" />
<path d="M46594 57331
L45895 57331
" />
<path d="M45895 57331
L45895 58006
" />
<path d="M45895 58006
L32845 58006
" />
<circle cx="45995.1" cy="56881.9" r="197.99" /> 
<path d="M45715 56881
L46275 56881
" />
<path d="M45995 57161
L45995 56601
" />
<path d="M19535 57161
L19535 56601
" />
<path d="M19255 56881
L19815 56881
" />
<circle cx="19535.1" cy="56881.9" r="197.99" /> 
<path d="M18936 57331
L18936 56431
" />
<path d="M19635 57331
L18936 57331
" />
<path d="M19635 58006
L19635 57331
" />
<path d="M19835 56081
L19835 55756
" />
<path d="M19635 56081
L19835 56081
" />
<path d="M19635 56431
L19635 56081
" />
<path d="M18936 56431
L19635 56431
" />
<path d="M19835 55756
L30185 55756
" />
<path d="M30185 55756
L30185 56431
" />
<path d="M30185 56431
L30884 56431
" />
<path d="M30884 56431
L30884 57331
" />
<path d="M30884 57331
L30185 57331
" />
<path d="M30185 57331
L30185 58006
" />
<path d="M30185 58006
L19635 58006
" />
<circle cx="30285.1" cy="56881.9" r="197.99" /> 
<path d="M30005 56881
L30565 56881
" />
<path d="M30285 57161
L30285 56601
" />
<path d="M48455 57161
L48455 56601
" />
<path d="M48175 56881
L48735 56881
" />
<circle cx="48455.1" cy="56881.9" r="197.99" /> 
<path d="M47856 57331
L47856 56431
" />
<path d="M48555 57331
L47856 57331
" />
<path d="M48555 58006
L48555 57331
" />
<path d="M48755 56081
L48755 55756
" />
<path d="M48555 56081
L48755 56081
" />
<path d="M48555 56431
L48555 56081
" />
<path d="M47856 56431
L48555 56431
" />
<path d="M48755 55756
L59105 55756
" />
<path d="M59105 55756
L59105 56431
" />
<path d="M59105 56431
L59804 56431
" />
<path d="M59804 56431
L59804 57331
" />
<path d="M59804 57331
L59105 57331
" />
<path d="M59105 57331
L59105 58006
" />
<path d="M59105 58006
L48555 58006
" />
<circle cx="59205.1" cy="56881.9" r="197.99" /> 
<path d="M58925 56881
L59485 56881
" />
<path d="M59205 57161
L59205 56601
" />
</g>
<g style="fill:#000000; fill-opacity:0.0; 
stroke:#000000; stroke-width:47.2441; stroke-opacity:1; 
stroke-linecap:round; stroke-linejoin:round;">
<path d="M26849 31873
L26849 47920
" />
<path d="M26849 47920
L28944 47920
" />
<path d="M28944 47920
L28944 30825
" />
<path d="M28944 30825
L27897 30825
" />
<path d="M27897 30825
L27897 31873
" />
<path d="M27897 31873
L26849 31873
" />
<path d="M26849 31373
L26849 30825
" />
<path d="M26849 30825
L27397 30825
" />
<path d="M53873 46868
L53873 30820
" />
<path d="M53873 30820
L51778 30820
" />
<path d="M51778 30820
L51778 47915
" />
<path d="M51778 47915
L52826 47915
" />
<path d="M52826 47915
L52826 46868
" />
<path d="M52826 46868
L53873 46868
" />
<path d="M53873 47368
L53873 47915
" />
<path d="M53873 47915
L53326 47915
" />
<path d="M51897 46872
L51897 30824
" />
<path d="M51897 30824
L49802 30824
" />
<path d="M49802 30824
L49802 47919
" />
<path d="M49802 47919
L50850 47919
" />
<path d="M50850 47919
L50850 46872
" />
<path d="M50850 46872
L51897 46872
" />
<path d="M51897 47372
L51897 47919
" />
<path d="M51897 47919
L51350 47919
" />
<path d="M55708 31555
L55314 31555
" />
<path d="M55314 32224
L55708 32224
" />
<path d="M23031 32224
L23425 32224
" />
<path d="M23425 31555
L23031 31555
" />
<path d="M55748 31448
L55275 31448
" />
<path d="M55275 30755
L55748 30755
" />
<path d="M22992 30755
L23464 30755
" />
<path d="M23464 31448
L22992 31448
" />
<path d="M46940 53838
L46940 54311
" />
<path d="M46248 54311
L46248 53838
" />
<path d="M48161 53460
L47468 53460
" />
<path d="M47468 54669
L48425 54669
" />
</g> 
</svg>
