<?xml version="1.0" standalone="no"?>
 <!DOCTYPE svg PUBLIC "-//W3C//DTD SVG 1.1//EN" 
 "http://www.w3.org/Graphics/SVG/1.1/DTD/svg11.dtd"> 
<svg xmlns="http://www.w3.org/2000/svg" version="1.1" 
    width="27.94cm" height="21.59cm" viewBox="0 0 110000 85000 ">
<title>SVG Picture created as 120-channel pogo pin board-F.SilkS.svg date 2017/03/20 12:41:37 </title>
  <desc>Picture generated by PCBNEW </desc>
<g style="fill:#000000; fill-opacity:1;stroke:#000000; stroke-opacity:1;
stroke-linecap:round; stroke-linejoin:round; "
 transform="translate(0 0) scale(1 1)">
</g>
<g style="fill:#000000; fill-opacity:0.0; 
stroke:#000000; stroke-width:-0.000393701; stroke-opacity:1; 
stroke-linecap:round; stroke-linejoin:round;">
</g>
<g style="fill:#000000; fill-opacity:0.0; 
stroke:#000000; stroke-width:39.3701; stroke-opacity:1; 
stroke-linecap:round; stroke-linejoin:round;">
</g>
<g style="fill:#000000; fill-opacity:0.0; 
stroke:#000000; stroke-width:59.0551; stroke-opacity:1; 
stroke-linecap:round; stroke-linejoin:round;">
<rect x="62755.9" y="67677.2" width="42519.7" height="12598.4" rx="0" />
</g>
<g style="fill:#000000; fill-opacity:0.0; 
stroke:#000000; stroke-width:39.3701; stroke-opacity:1; 
stroke-linecap:round; stroke-linejoin:round;">
</g>
<g style="fill:#000000; fill-opacity:0.0; 
stroke:#000000; stroke-width:59.0551; stroke-opacity:1; 
stroke-linecap:round; stroke-linejoin:round;">
<rect x="3937.01" y="3937.01" width="102126" height="77126" rx="0" />
</g>
<g style="fill:#000000; fill-opacity:0.0; 
stroke:#000000; stroke-width:39.3701; stroke-opacity:1; 
stroke-linecap:round; stroke-linejoin:round;">
</g>
<g style="fill:#000000; fill-opacity:0.0; 
stroke:#000000; stroke-width:59.0551; stroke-opacity:1; 
stroke-linecap:round; stroke-linejoin:round;">
<rect x="4724.41" y="4724.41" width="100551" height="75551.2" rx="0" />
</g>
<g style="fill:#000000; fill-opacity:0.0; 
stroke:#000000; stroke-width:39.3701; stroke-opacity:1; 
stroke-linecap:round; stroke-linejoin:round;">
</g>
<g style="fill:#000000; fill-opacity:0.0; 
stroke:#000000; stroke-width:59.0551; stroke-opacity:1; 
stroke-linecap:round; stroke-linejoin:round;">
<path d="M23622 4724
L23622 3937
" />
</g>
<g style="fill:#000000; fill-opacity:0.0; 
stroke:#000000; stroke-width:39.3701; stroke-opacity:1; 
stroke-linecap:round; stroke-linejoin:round;">
</g>
<g style="fill:#000000; fill-opacity:0.0; 
stroke:#000000; stroke-width:59.0551; stroke-opacity:1; 
stroke-linecap:round; stroke-linejoin:round;">
<path d="M43307 4724
L43307 3937
" />
</g>
<g style="fill:#000000; fill-opacity:0.0; 
stroke:#000000; stroke-width:39.3701; stroke-opacity:1; 
stroke-linecap:round; stroke-linejoin:round;">
</g>
<g style="fill:#000000; fill-opacity:0.0; 
stroke:#000000; stroke-width:59.0551; stroke-opacity:1; 
stroke-linecap:round; stroke-linejoin:round;">
<path d="M62992 4724
L62992 3937
" />
</g>
<g style="fill:#000000; fill-opacity:0.0; 
stroke:#000000; stroke-width:39.3701; stroke-opacity:1; 
stroke-linecap:round; stroke-linejoin:round;">
</g>
<g style="fill:#000000; fill-opacity:0.0; 
stroke:#000000; stroke-width:59.0551; stroke-opacity:1; 
stroke-linecap:round; stroke-linejoin:round;">
<path d="M82677 4724
L82677 3937
" />
</g>
<g style="fill:#000000; fill-opacity:0.0; 
stroke:#000000; stroke-width:39.3701; stroke-opacity:1; 
stroke-linecap:round; stroke-linejoin:round;">
</g>
<g style="fill:#000000; fill-opacity:0.0; 
stroke:#000000; stroke-width:59.0551; stroke-opacity:1; 
stroke-linecap:round; stroke-linejoin:round;">
<path d="M102362 4724
L102362 3937
" />
</g>
<g style="fill:#000000; fill-opacity:0.0; 
stroke:#000000; stroke-width:39.3701; stroke-opacity:1; 
stroke-linecap:round; stroke-linejoin:round;">
</g>
<g style="fill:#000000; fill-opacity:0.0; 
stroke:#000000; stroke-width:59.0551; stroke-opacity:1; 
stroke-linecap:round; stroke-linejoin:round;">
<path d="M14169 4562
L13877 4562
" />
<path d="M14023 4562
L14023 4050
L13974 4123
L13925 4172
L13877 4196
" />
</g>
<g style="fill:#000000; fill-opacity:0.0; 
stroke:#000000; stroke-width:39.3701; stroke-opacity:1; 
stroke-linecap:round; stroke-linejoin:round;">
</g>
<g style="fill:#000000; fill-opacity:0.0; 
stroke:#000000; stroke-width:59.0551; stroke-opacity:1; 
stroke-linecap:round; stroke-linejoin:round;">
<path d="M33562 4099
L33586 4074
L33635 4050
L33757 4050
L33805 4074
L33830 4099
L33854 4147
L33854 4196
L33830 4269
L33537 4562
L33854 4562
" />
</g>
<g style="fill:#000000; fill-opacity:0.0; 
stroke:#000000; stroke-width:39.3701; stroke-opacity:1; 
stroke-linecap:round; stroke-linejoin:round;">
</g>
<g style="fill:#000000; fill-opacity:0.0; 
stroke:#000000; stroke-width:59.0551; stroke-opacity:1; 
stroke-linecap:round; stroke-linejoin:round;">
<path d="M53222 4050
L53539 4050
L53368 4245
L53442 4245
L53490 4269
L53515 4294
L53539 4342
L53539 4464
L53515 4513
L53490 4537
L53442 4562
L53295 4562
L53247 4537
L53222 4513
" />
</g>
<g style="fill:#000000; fill-opacity:0.0; 
stroke:#000000; stroke-width:39.3701; stroke-opacity:1; 
stroke-linecap:round; stroke-linejoin:round;">
</g>
<g style="fill:#000000; fill-opacity:0.0; 
stroke:#000000; stroke-width:59.0551; stroke-opacity:1; 
stroke-linecap:round; stroke-linejoin:round;">
<path d="M73175 4221
L73175 4562
" />
<path d="M73053 4026
L72932 4391
L73248 4391
" />
</g>
<g style="fill:#000000; fill-opacity:0.0; 
stroke:#000000; stroke-width:39.3701; stroke-opacity:1; 
stroke-linecap:round; stroke-linejoin:round;">
</g>
<g style="fill:#000000; fill-opacity:0.0; 
stroke:#000000; stroke-width:59.0551; stroke-opacity:1; 
stroke-linecap:round; stroke-linejoin:round;">
<path d="M92885 4050
L92641 4050
L92617 4294
L92641 4269
L92690 4245
L92812 4245
L92860 4269
L92885 4294
L92909 4342
L92909 4464
L92885 4513
L92860 4537
L92812 4562
L92690 4562
L92641 4537
L92617 4513
" />
</g>
<g style="fill:#000000; fill-opacity:0.0; 
stroke:#000000; stroke-width:39.3701; stroke-opacity:1; 
stroke-linecap:round; stroke-linejoin:round;">
</g>
<g style="fill:#000000; fill-opacity:0.0; 
stroke:#000000; stroke-width:59.0551; stroke-opacity:1; 
stroke-linecap:round; stroke-linejoin:round;">
<path d="M23622 80275
L23622 81062
" />
</g>
<g style="fill:#000000; fill-opacity:0.0; 
stroke:#000000; stroke-width:39.3701; stroke-opacity:1; 
stroke-linecap:round; stroke-linejoin:round;">
</g>
<g style="fill:#000000; fill-opacity:0.0; 
stroke:#000000; stroke-width:59.0551; stroke-opacity:1; 
stroke-linecap:round; stroke-linejoin:round;">
<path d="M43307 80275
L43307 81062
" />
</g>
<g style="fill:#000000; fill-opacity:0.0; 
stroke:#000000; stroke-width:39.3701; stroke-opacity:1; 
stroke-linecap:round; stroke-linejoin:round;">
</g>
<g style="fill:#000000; fill-opacity:0.0; 
stroke:#000000; stroke-width:59.0551; stroke-opacity:1; 
stroke-linecap:round; stroke-linejoin:round;">
<path d="M62992 80275
L62992 81062
" />
</g>
<g style="fill:#000000; fill-opacity:0.0; 
stroke:#000000; stroke-width:39.3701; stroke-opacity:1; 
stroke-linecap:round; stroke-linejoin:round;">
</g>
<g style="fill:#000000; fill-opacity:0.0; 
stroke:#000000; stroke-width:59.0551; stroke-opacity:1; 
stroke-linecap:round; stroke-linejoin:round;">
<path d="M82677 80275
L82677 81062
" />
</g>
<g style="fill:#000000; fill-opacity:0.0; 
stroke:#000000; stroke-width:39.3701; stroke-opacity:1; 
stroke-linecap:round; stroke-linejoin:round;">
</g>
<g style="fill:#000000; fill-opacity:0.0; 
stroke:#000000; stroke-width:59.0551; stroke-opacity:1; 
stroke-linecap:round; stroke-linejoin:round;">
<path d="M102362 80275
L102362 81062
" />
</g>
<g style="fill:#000000; fill-opacity:0.0; 
stroke:#000000; stroke-width:39.3701; stroke-opacity:1; 
stroke-linecap:round; stroke-linejoin:round;">
</g>
<g style="fill:#000000; fill-opacity:0.0; 
stroke:#000000; stroke-width:59.0551; stroke-opacity:1; 
stroke-linecap:round; stroke-linejoin:round;">
<path d="M14169 80900
L13877 80900
" />
<path d="M14023 80900
L14023 80389
L13974 80462
L13925 80510
L13877 80535
" />
</g>
<g style="fill:#000000; fill-opacity:0.0; 
stroke:#000000; stroke-width:39.3701; stroke-opacity:1; 
stroke-linecap:round; stroke-linejoin:round;">
</g>
<g style="fill:#000000; fill-opacity:0.0; 
stroke:#000000; stroke-width:59.0551; stroke-opacity:1; 
stroke-linecap:round; stroke-linejoin:round;">
<path d="M33562 80437
L33586 80413
L33635 80389
L33757 80389
L33805 80413
L33830 80437
L33854 80486
L33854 80535
L33830 80608
L33537 80900
L33854 80900
" />
</g>
<g style="fill:#000000; fill-opacity:0.0; 
stroke:#000000; stroke-width:39.3701; stroke-opacity:1; 
stroke-linecap:round; stroke-linejoin:round;">
</g>
<g style="fill:#000000; fill-opacity:0.0; 
stroke:#000000; stroke-width:59.0551; stroke-opacity:1; 
stroke-linecap:round; stroke-linejoin:round;">
<path d="M53222 80389
L53539 80389
L53368 80583
L53442 80583
L53490 80608
L53515 80632
L53539 80681
L53539 80803
L53515 80852
L53490 80876
L53442 80900
L53295 80900
L53247 80876
L53222 80852
" />
</g>
<g style="fill:#000000; fill-opacity:0.0; 
stroke:#000000; stroke-width:39.3701; stroke-opacity:1; 
stroke-linecap:round; stroke-linejoin:round;">
</g>
<g style="fill:#000000; fill-opacity:0.0; 
stroke:#000000; stroke-width:59.0551; stroke-opacity:1; 
stroke-linecap:round; stroke-linejoin:round;">
<path d="M73175 80559
L73175 80900
" />
<path d="M73053 80364
L72932 80730
L73248 80730
" />
</g>
<g style="fill:#000000; fill-opacity:0.0; 
stroke:#000000; stroke-width:39.3701; stroke-opacity:1; 
stroke-linecap:round; stroke-linejoin:round;">
</g>
<g style="fill:#000000; fill-opacity:0.0; 
stroke:#000000; stroke-width:59.0551; stroke-opacity:1; 
stroke-linecap:round; stroke-linejoin:round;">
<path d="M92885 80389
L92641 80389
L92617 80632
L92641 80608
L92690 80583
L92812 80583
L92860 80608
L92885 80632
L92909 80681
L92909 80803
L92885 80852
L92860 80876
L92812 80900
L92690 80900
L92641 80876
L92617 80852
" />
</g>
<g style="fill:#000000; fill-opacity:0.0; 
stroke:#000000; stroke-width:39.3701; stroke-opacity:1; 
stroke-linecap:round; stroke-linejoin:round;">
</g>
<g style="fill:#000000; fill-opacity:0.0; 
stroke:#000000; stroke-width:59.0551; stroke-opacity:1; 
stroke-linecap:round; stroke-linejoin:round;">
<path d="M3937 23622
L4724 23622
" />
</g>
<g style="fill:#000000; fill-opacity:0.0; 
stroke:#000000; stroke-width:39.3701; stroke-opacity:1; 
stroke-linecap:round; stroke-linejoin:round;">
</g>
<g style="fill:#000000; fill-opacity:0.0; 
stroke:#000000; stroke-width:59.0551; stroke-opacity:1; 
stroke-linecap:round; stroke-linejoin:round;">
<path d="M3937 43307
L4724 43307
" />
</g>
<g style="fill:#000000; fill-opacity:0.0; 
stroke:#000000; stroke-width:39.3701; stroke-opacity:1; 
stroke-linecap:round; stroke-linejoin:round;">
</g>
<g style="fill:#000000; fill-opacity:0.0; 
stroke:#000000; stroke-width:59.0551; stroke-opacity:1; 
stroke-linecap:round; stroke-linejoin:round;">
<path d="M3937 62992
L4724 62992
" />
</g>
<g style="fill:#000000; fill-opacity:0.0; 
stroke:#000000; stroke-width:39.3701; stroke-opacity:1; 
stroke-linecap:round; stroke-linejoin:round;">
</g>
<g style="fill:#000000; fill-opacity:0.0; 
stroke:#000000; stroke-width:59.0551; stroke-opacity:1; 
stroke-linecap:round; stroke-linejoin:round;">
<path d="M4208 13864
L4452 13864
" />
<path d="M4160 14011
L4330 13499
L4501 14011
" />
</g>
<g style="fill:#000000; fill-opacity:0.0; 
stroke:#000000; stroke-width:39.3701; stroke-opacity:1; 
stroke-linecap:round; stroke-linejoin:round;">
</g>
<g style="fill:#000000; fill-opacity:0.0; 
stroke:#000000; stroke-width:59.0551; stroke-opacity:1; 
stroke-linecap:round; stroke-linejoin:round;">
<path d="M4367 33428
L4440 33452
L4464 33476
L4489 33525
L4489 33598
L4464 33647
L4440 33671
L4391 33696
L4196 33696
L4196 33184
L4367 33184
L4416 33208
L4440 33233
L4464 33281
L4464 33330
L4440 33379
L4416 33403
L4367 33428
L4196 33428
" />
</g>
<g style="fill:#000000; fill-opacity:0.0; 
stroke:#000000; stroke-width:39.3701; stroke-opacity:1; 
stroke-linecap:round; stroke-linejoin:round;">
</g>
<g style="fill:#000000; fill-opacity:0.0; 
stroke:#000000; stroke-width:59.0551; stroke-opacity:1; 
stroke-linecap:round; stroke-linejoin:round;">
<path d="M4489 53332
L4464 53356
L4391 53381
L4342 53381
L4269 53356
L4221 53308
L4196 53259
L4172 53161
L4172 53088
L4196 52991
L4221 52942
L4269 52893
L4342 52869
L4391 52869
L4464 52893
L4489 52918
" />
</g>
<g style="fill:#000000; fill-opacity:0.0; 
stroke:#000000; stroke-width:39.3701; stroke-opacity:1; 
stroke-linecap:round; stroke-linejoin:round;">
</g>
<g style="fill:#000000; fill-opacity:0.0; 
stroke:#000000; stroke-width:59.0551; stroke-opacity:1; 
stroke-linecap:round; stroke-linejoin:round;">
<path d="M4196 73066
L4196 72554
L4318 72554
L4391 72578
L4440 72627
L4464 72676
L4489 72773
L4489 72846
L4464 72944
L4440 72993
L4391 73041
L4318 73066
L4196 73066
" />
</g>
<g style="fill:#000000; fill-opacity:0.0; 
stroke:#000000; stroke-width:39.3701; stroke-opacity:1; 
stroke-linecap:round; stroke-linejoin:round;">
</g>
<g style="fill:#000000; fill-opacity:0.0; 
stroke:#000000; stroke-width:59.0551; stroke-opacity:1; 
stroke-linecap:round; stroke-linejoin:round;">
<path d="M106062 23622
L105275 23622
" />
</g>
<g style="fill:#000000; fill-opacity:0.0; 
stroke:#000000; stroke-width:39.3701; stroke-opacity:1; 
stroke-linecap:round; stroke-linejoin:round;">
</g>
<g style="fill:#000000; fill-opacity:0.0; 
stroke:#000000; stroke-width:59.0551; stroke-opacity:1; 
stroke-linecap:round; stroke-linejoin:round;">
<path d="M106062 43307
L105275 43307
" />
</g>
<g style="fill:#000000; fill-opacity:0.0; 
stroke:#000000; stroke-width:39.3701; stroke-opacity:1; 
stroke-linecap:round; stroke-linejoin:round;">
</g>
<g style="fill:#000000; fill-opacity:0.0; 
stroke:#000000; stroke-width:59.0551; stroke-opacity:1; 
stroke-linecap:round; stroke-linejoin:round;">
<path d="M106062 62992
L105275 62992
" />
</g>
<g style="fill:#000000; fill-opacity:0.0; 
stroke:#000000; stroke-width:39.3701; stroke-opacity:1; 
stroke-linecap:round; stroke-linejoin:round;">
</g>
<g style="fill:#000000; fill-opacity:0.0; 
stroke:#000000; stroke-width:59.0551; stroke-opacity:1; 
stroke-linecap:round; stroke-linejoin:round;">
<path d="M105547 13864
L105791 13864
" />
<path d="M105498 14011
L105669 13499
L105839 14011
" />
</g>
<g style="fill:#000000; fill-opacity:0.0; 
stroke:#000000; stroke-width:39.3701; stroke-opacity:1; 
stroke-linecap:round; stroke-linejoin:round;">
</g>
<g style="fill:#000000; fill-opacity:0.0; 
stroke:#000000; stroke-width:59.0551; stroke-opacity:1; 
stroke-linecap:round; stroke-linejoin:round;">
<path d="M105705 33428
L105778 33452
L105803 33476
L105827 33525
L105827 33598
L105803 33647
L105778 33671
L105730 33696
L105535 33696
L105535 33184
L105705 33184
L105754 33208
L105778 33233
L105803 33281
L105803 33330
L105778 33379
L105754 33403
L105705 33428
L105535 33428
" />
</g>
<g style="fill:#000000; fill-opacity:0.0; 
stroke:#000000; stroke-width:39.3701; stroke-opacity:1; 
stroke-linecap:round; stroke-linejoin:round;">
</g>
<g style="fill:#000000; fill-opacity:0.0; 
stroke:#000000; stroke-width:59.0551; stroke-opacity:1; 
stroke-linecap:round; stroke-linejoin:round;">
<path d="M105827 53332
L105803 53356
L105730 53381
L105681 53381
L105608 53356
L105559 53308
L105535 53259
L105510 53161
L105510 53088
L105535 52991
L105559 52942
L105608 52893
L105681 52869
L105730 52869
L105803 52893
L105827 52918
" />
</g>
<g style="fill:#000000; fill-opacity:0.0; 
stroke:#000000; stroke-width:39.3701; stroke-opacity:1; 
stroke-linecap:round; stroke-linejoin:round;">
</g>
<g style="fill:#000000; fill-opacity:0.0; 
stroke:#000000; stroke-width:59.0551; stroke-opacity:1; 
stroke-linecap:round; stroke-linejoin:round;">
<path d="M105535 73066
L105535 72554
L105657 72554
L105730 72578
L105778 72627
L105803 72676
L105827 72773
L105827 72846
L105803 72944
L105778 72993
L105730 73041
L105657 73066
L105535 73066
" />
</g>
<g style="fill:#000000; fill-opacity:0.0; 
stroke:#000000; stroke-width:39.3701; stroke-opacity:1; 
stroke-linecap:round; stroke-linejoin:round;">
</g>
<g style="fill:#000000; fill-opacity:0.0; 
stroke:#000000; stroke-width:59.0551; stroke-opacity:1; 
stroke-linecap:round; stroke-linejoin:round;">
<path d="M71951 78613
L71951 78023
L72092 78023
L72176 78051
L72232 78107
L72260 78163
L72289 78276
L72289 78360
L72260 78473
L72232 78529
L72176 78585
L72092 78613
L71951 78613
" />
<path d="M72795 78613
L72795 78304
L72767 78248
L72710 78219
L72598 78219
L72542 78248
" />
<path d="M72795 78585
L72739 78613
L72598 78613
L72542 78585
L72514 78529
L72514 78473
L72542 78416
L72598 78388
L72739 78388
L72795 78360
" />
<path d="M72992 78219
L73217 78219
" />
<path d="M73076 78023
L73076 78529
L73104 78585
L73160 78613
L73217 78613
" />
<path d="M73638 78585
L73582 78613
L73470 78613
L73413 78585
L73385 78529
L73385 78304
L73413 78248
L73470 78219
L73582 78219
L73638 78248
L73667 78304
L73667 78360
L73385 78416
" />
<path d="M73920 78557
L73948 78585
L73920 78613
L73892 78585
L73920 78557
L73920 78613
" />
<path d="M73920 78248
L73948 78276
L73920 78304
L73892 78276
L73920 78248
L73920 78304
" />
<path d="M74623 78079
L74651 78051
L74707 78023
L74848 78023
L74904 78051
L74932 78079
L74960 78135
L74960 78191
L74932 78276
L74595 78613
L74960 78613
" />
<path d="M75326 78023
L75382 78023
L75438 78051
L75466 78079
L75494 78135
L75523 78248
L75523 78388
L75494 78501
L75466 78557
L75438 78585
L75382 78613
L75326 78613
L75269 78585
L75241 78557
L75213 78501
L75185 78388
L75185 78248
L75213 78135
L75241 78079
L75269 78051
L75326 78023
" />
<path d="M76085 78613
L75748 78613
" />
<path d="M75916 78613
L75916 78023
L75860 78107
L75804 78163
L75748 78191
" />
<path d="M76282 78023
L76676 78023
L76422 78613
" />
<path d="M76901 78388
L77350 78388
" />
<path d="M77744 78023
L77800 78023
L77857 78051
L77885 78079
L77913 78135
L77941 78248
L77941 78388
L77913 78501
L77885 78557
L77857 78585
L77800 78613
L77744 78613
L77688 78585
L77660 78557
L77632 78501
L77604 78388
L77604 78248
L77632 78135
L77660 78079
L77688 78051
L77744 78023
" />
<path d="M78138 78023
L78503 78023
L78307 78248
L78391 78248
L78447 78276
L78475 78304
L78503 78360
L78503 78501
L78475 78557
L78447 78585
L78391 78613
L78222 78613
L78166 78585
L78138 78557
" />
<path d="M78757 78388
L79206 78388
" />
<path d="M79460 78079
L79488 78051
L79544 78023
L79685 78023
L79741 78051
L79769 78079
L79797 78135
L79797 78191
L79769 78276
L79431 78613
L79797 78613
" />
<path d="M80163 78023
L80219 78023
L80275 78051
L80303 78079
L80331 78135
L80359 78248
L80359 78388
L80331 78501
L80303 78557
L80275 78585
L80219 78613
L80163 78613
L80106 78585
L80078 78557
L80050 78501
L80022 78388
L80022 78248
L80050 78135
L80078 78079
L80106 78051
L80163 78023
" />
</g>
<g style="fill:#000000; fill-opacity:0.0; 
stroke:#000000; stroke-width:39.3701; stroke-opacity:1; 
stroke-linecap:round; stroke-linejoin:round;">
</g>
<g style="fill:#000000; fill-opacity:0.0; 
stroke:#000000; stroke-width:59.0551; stroke-opacity:1; 
stroke-linecap:round; stroke-linejoin:round;">
<path d="M62755 78897
L105275 78897
" />
</g>
<g style="fill:#000000; fill-opacity:0.0; 
stroke:#000000; stroke-width:39.3701; stroke-opacity:1; 
stroke-linecap:round; stroke-linejoin:round;">
</g>
<g style="fill:#000000; fill-opacity:0.0; 
stroke:#000000; stroke-width:59.0551; stroke-opacity:1; 
stroke-linecap:round; stroke-linejoin:round;">
<path d="M63290 79715
L63290 79125
" />
<path d="M63627 79715
L63374 79378
" />
<path d="M63627 79125
L63290 79462
" />
<path d="M63880 79715
L63880 79322
" />
<path d="M63880 79125
L63852 79153
L63880 79181
L63908 79153
L63880 79125
L63880 79181
" />
<path d="M64499 79659
L64471 79687
L64386 79715
L64330 79715
L64246 79687
L64190 79631
L64161 79575
L64133 79462
L64133 79378
L64161 79266
L64190 79209
L64246 79153
L64330 79125
L64386 79125
L64471 79153
L64499 79181
" />
<path d="M65005 79715
L65005 79406
L64977 79350
L64921 79322
L64808 79322
L64752 79350
" />
<path d="M65005 79687
L64949 79715
L64808 79715
L64752 79687
L64724 79631
L64724 79575
L64752 79519
L64808 79491
L64949 79491
L65005 79462
" />
<path d="M65539 79715
L65539 79125
" />
<path d="M65539 79687
L65483 79715
L65371 79715
L65314 79687
L65286 79659
L65258 79603
L65258 79434
L65286 79378
L65314 79350
L65371 79322
L65483 79322
L65539 79350
" />
<path d="M66271 79406
L66467 79406
" />
<path d="M66552 79715
L66271 79715
L66271 79125
L66552 79125
" />
<path d="M66805 79659
L66833 79687
L66805 79715
L66777 79687
L66805 79659
L66805 79715
" />
<path d="M67086 79715
L67086 79125
L67227 79125
L67311 79153
L67367 79209
L67395 79266
L67424 79378
L67424 79462
L67395 79575
L67367 79631
L67311 79687
L67227 79715
L67086 79715
" />
<path d="M67677 79659
L67705 79687
L67677 79715
L67649 79687
L67677 79659
L67677 79715
" />
<path d="M67930 79547
L68211 79547
" />
<path d="M67874 79715
L68070 79125
L68267 79715
" />
<path d="M68464 79659
L68492 79687
L68464 79715
L68436 79687
L68464 79659
L68464 79715
" />
<path d="M69645 79715
L69645 79125
" />
<path d="M69701 79491
L69870 79715
" />
<path d="M69870 79322
L69645 79547
" />
<path d="M70123 79715
L70123 79322
" />
<path d="M70123 79125
L70095 79153
L70123 79181
L70151 79153
L70123 79125
L70123 79181
" />
<path d="M70658 79687
L70601 79715
L70489 79715
L70433 79687
L70404 79659
L70376 79603
L70376 79434
L70404 79378
L70433 79350
L70489 79322
L70601 79322
L70658 79350
" />
<path d="M71164 79715
L71164 79406
L71136 79350
L71079 79322
L70967 79322
L70911 79350
" />
<path d="M71164 79687
L71107 79715
L70967 79715
L70911 79687
L70883 79631
L70883 79575
L70911 79519
L70967 79491
L71107 79491
L71164 79462
" />
<path d="M71698 79715
L71698 79125
" />
<path d="M71698 79687
L71642 79715
L71529 79715
L71473 79687
L71445 79659
L71417 79603
L71417 79434
L71445 79378
L71473 79350
L71529 79322
L71642 79322
L71698 79350
" />
<path d="M72682 79322
L72682 79715
" />
<path d="M72542 79097
L72401 79519
L72767 79519
" />
<path d="M72992 79659
L73020 79687
L72992 79715
L72964 79687
L72992 79659
L72992 79715
" />
<path d="M73385 79125
L73442 79125
L73498 79153
L73526 79181
L73554 79237
L73582 79350
L73582 79491
L73554 79603
L73526 79659
L73498 79687
L73442 79715
L73385 79715
L73329 79687
L73301 79659
L73273 79603
L73245 79491
L73245 79350
L73273 79237
L73301 79181
L73329 79153
L73385 79125
" />
<path d="M73835 79659
L73863 79687
L73835 79715
L73807 79687
L73835 79659
L73835 79715
" />
<path d="M74426 79715
L74088 79715
" />
<path d="M74257 79715
L74257 79125
L74201 79209
L74145 79266
L74088 79294
" />
<path d="M74679 79491
L75129 79491
" />
<path d="M75382 79687
L75438 79715
L75551 79715
L75607 79687
L75635 79631
L75635 79603
L75607 79547
L75551 79519
L75466 79519
L75410 79491
L75382 79434
L75382 79406
L75410 79350
L75466 79322
L75551 79322
L75607 79350
" />
<path d="M75804 79322
L76029 79322
" />
<path d="M75888 79125
L75888 79631
L75916 79687
L75973 79715
L76029 79715
" />
<path d="M76479 79715
L76479 79406
L76451 79350
L76394 79322
L76282 79322
L76226 79350
" />
<path d="M76479 79687
L76422 79715
L76282 79715
L76226 79687
L76197 79631
L76197 79575
L76226 79519
L76282 79491
L76422 79491
L76479 79462
" />
<path d="M76760 79715
L76760 79125
" />
<path d="M76760 79350
L76816 79322
L76929 79322
L76985 79350
L77013 79378
L77041 79434
L77041 79603
L77013 79659
L76985 79687
L76929 79715
L76816 79715
L76760 79687
" />
<path d="M77379 79715
L77322 79687
L77294 79631
L77294 79125
" />
<path d="M77829 79687
L77772 79715
L77660 79715
L77604 79687
L77575 79631
L77575 79406
L77604 79350
L77660 79322
L77772 79322
L77829 79350
L77857 79406
L77857 79462
L77575 79519
" />
</g>
<g style="fill:#000000; fill-opacity:0.0; 
stroke:#000000; stroke-width:39.3701; stroke-opacity:1; 
stroke-linecap:round; stroke-linejoin:round;">
</g>
<g style="fill:#000000; fill-opacity:0.0; 
stroke:#000000; stroke-width:59.0551; stroke-opacity:1; 
stroke-linecap:round; stroke-linejoin:round;">
<path d="M62755 77716
L105275 77716
" />
</g>
<g style="fill:#000000; fill-opacity:0.0; 
stroke:#000000; stroke-width:39.3701; stroke-opacity:1; 
stroke-linecap:round; stroke-linejoin:round;">
</g>
<g style="fill:#000000; fill-opacity:0.0; 
stroke:#000000; stroke-width:118.11; stroke-opacity:1; 
stroke-linecap:round; stroke-linejoin:round;">
<path d="M97092 78613
L96895 78332
" />
<path d="M96754 78613
L96754 78023
L96979 78023
L97035 78051
L97064 78079
L97092 78135
L97092 78219
L97064 78276
L97035 78304
L96979 78332
L96754 78332
" />
<path d="M97570 78585
L97514 78613
L97401 78613
L97345 78585
L97317 78529
L97317 78304
L97345 78248
L97401 78219
L97514 78219
L97570 78248
L97598 78304
L97598 78360
L97317 78416
" />
<path d="M97795 78219
L97935 78613
L98076 78219
" />
<path d="M98301 78557
L98329 78585
L98301 78613
L98273 78585
L98301 78557
L98301 78613
" />
<path d="M98301 78248
L98329 78276
L98301 78304
L98273 78276
L98301 78248
L98301 78304
" />
<path d="M98976 78219
L99116 78613
L99257 78219
" />
<path d="M99426 78023
L99791 78023
L99595 78248
L99679 78248
L99735 78276
L99763 78304
L99791 78360
L99791 78501
L99763 78557
L99735 78585
L99679 78613
L99510 78613
L99454 78585
L99426 78557
" />
<path d="M100044 78557
L100073 78585
L100044 78613
L100016 78585
L100044 78557
L100044 78613
" />
<path d="M100635 78613
L100298 78613
" />
<path d="M100466 78613
L100466 78023
L100410 78107
L100354 78163
L100298 78191
" />
</g>
<g style="fill:#000000; fill-opacity:0.0; 
stroke:#000000; stroke-width:39.3701; stroke-opacity:1; 
stroke-linecap:round; stroke-linejoin:round;">
</g>
<g style="fill:#000000; fill-opacity:0.0; 
stroke:#000000; stroke-width:59.0551; stroke-opacity:1; 
stroke-linecap:round; stroke-linejoin:round;">
<path d="M63262 78585
L63346 78613
L63487 78613
L63543 78585
L63571 78557
L63599 78501
L63599 78444
L63571 78388
L63543 78360
L63487 78332
L63374 78304
L63318 78276
L63290 78248
L63262 78191
L63262 78135
L63290 78079
L63318 78051
L63374 78023
L63515 78023
L63599 78051
" />
<path d="M63852 78613
L63852 78219
" />
<path d="M63852 78023
L63824 78051
L63852 78079
L63880 78051
L63852 78023
L63852 78079
" />
<path d="M64077 78219
L64386 78219
L64077 78613
L64386 78613
" />
<path d="M64836 78585
L64780 78613
L64668 78613
L64611 78585
L64583 78529
L64583 78304
L64611 78248
L64668 78219
L64780 78219
L64836 78248
L64865 78304
L64865 78360
L64583 78416
" />
<path d="M65118 78557
L65146 78585
L65118 78613
L65089 78585
L65118 78557
L65118 78613
" />
<path d="M65118 78248
L65146 78276
L65118 78304
L65089 78276
L65118 78248
L65118 78304
" />
<path d="M65849 78023
L65849 78501
L65877 78557
L65905 78585
L65961 78613
L66074 78613
L66130 78585
L66158 78557
L66186 78501
L66186 78023
" />
<path d="M66439 78585
L66524 78613
L66664 78613
L66721 78585
L66749 78557
L66777 78501
L66777 78444
L66749 78388
L66721 78360
L66664 78332
L66552 78304
L66496 78276
L66467 78248
L66439 78191
L66439 78135
L66467 78079
L66496 78051
L66552 78023
L66692 78023
L66777 78051
" />
<path d="M67311 78613
L67030 78613
L67030 78023
" />
<path d="M67733 78585
L67677 78613
L67564 78613
L67508 78585
L67480 78529
L67480 78304
L67508 78248
L67564 78219
L67677 78219
L67733 78248
L67761 78304
L67761 78360
L67480 78416
" />
<path d="M67930 78219
L68155 78219
" />
<path d="M68014 78023
L68014 78529
L68042 78585
L68098 78613
L68155 78613
" />
<path d="M68267 78219
L68492 78219
" />
<path d="M68352 78023
L68352 78529
L68380 78585
L68436 78613
L68492 78613
" />
<path d="M68914 78585
L68858 78613
L68745 78613
L68689 78585
L68661 78529
L68661 78304
L68689 78248
L68745 78219
L68858 78219
L68914 78248
L68942 78304
L68942 78360
L68661 78416
" />
<path d="M69195 78613
L69195 78219
" />
<path d="M69195 78332
L69223 78276
L69251 78248
L69308 78219
L69364 78219
" />
</g>
<g style="fill:#000000; fill-opacity:0.0; 
stroke:#000000; stroke-width:39.3701; stroke-opacity:1; 
stroke-linecap:round; stroke-linejoin:round;">
</g>
<g style="fill:#000000; fill-opacity:0.0; 
stroke:#000000; stroke-width:59.0551; stroke-opacity:1; 
stroke-linecap:round; stroke-linejoin:round;">
<path d="M96754 79715
L96754 79125
" />
<path d="M97289 79715
L97289 79125
" />
<path d="M97289 79687
L97232 79715
L97120 79715
L97064 79687
L97035 79659
L97007 79603
L97007 79434
L97035 79378
L97064 79350
L97120 79322
L97232 79322
L97289 79350
" />
<path d="M97570 79659
L97598 79687
L97570 79715
L97542 79687
L97570 79659
L97570 79715
" />
<path d="M97570 79350
L97598 79378
L97570 79406
L97542 79378
L97570 79350
L97570 79406
" />
<path d="M98610 79715
L98273 79715
" />
<path d="M98442 79715
L98442 79125
L98385 79209
L98329 79266
L98273 79294
" />
<path d="M99285 79097
L98779 79856
" />
<path d="M99791 79715
L99454 79715
" />
<path d="M99623 79715
L99623 79125
L99566 79209
L99510 79266
L99454 79294
" />
</g>
<g style="fill:#000000; fill-opacity:0.0; 
stroke:#000000; stroke-width:39.3701; stroke-opacity:1; 
stroke-linecap:round; stroke-linejoin:round;">
</g>
<g style="fill:#000000; fill-opacity:0.0; 
stroke:#000000; stroke-width:59.0551; stroke-opacity:1; 
stroke-linecap:round; stroke-linejoin:round;">
<path d="M62755 76141
L105275 76141
" />
</g>
<g style="fill:#000000; fill-opacity:0.0; 
stroke:#000000; stroke-width:39.3701; stroke-opacity:1; 
stroke-linecap:round; stroke-linejoin:round;">
</g>
<g style="fill:#000000; fill-opacity:0.0; 
stroke:#000000; stroke-width:157.48; stroke-opacity:1; 
stroke-linecap:round; stroke-linejoin:round;">
<path d="M63327 76419
L63777 76419
" />
<path d="M63454 77206
L63552 76419
" />
<path d="M63941 77206
L64007 76681
" />
<path d="M64040 76419
L63997 76456
L64030 76494
L64072 76456
L64040 76419
L64030 76494
" />
<path d="M64269 76681
L64569 76681
" />
<path d="M64415 76419
L64330 77094
L64358 77169
L64429 77206
L64504 77206
" />
<path d="M64879 77206
L64808 77169
L64780 77094
L64865 76419
" />
<path d="M65483 77169
L65404 77206
L65254 77206
L65183 77169
L65155 77094
L65193 76794
L65239 76719
L65319 76681
L65469 76681
L65539 76719
L65568 76794
L65558 76869
L65174 76944
" />
<path d="M65863 77131
L65896 77169
L65853 77206
L65821 77169
L65863 77131
L65853 77206
" />
<path d="M65914 76719
L65947 76756
L65905 76794
L65872 76756
L65914 76719
L65905 76794
" />
<path d="M67241 77206
L66791 77206
" />
<path d="M67016 77206
L67114 76419
L67025 76531
L66941 76606
L66861 76644
" />
<path d="M67630 76494
L67672 76456
L67752 76419
L67939 76419
L68009 76456
L68042 76494
L68070 76569
L68061 76644
L68009 76756
L67503 77206
L67991 77206
" />
<path d="M68577 76419
L68652 76419
L68722 76456
L68755 76494
L68783 76569
L68802 76719
L68778 76906
L68722 77056
L68675 77131
L68633 77169
L68553 77206
L68478 77206
L68408 77169
L68375 77131
L68347 77056
L68328 76906
L68352 76719
L68408 76569
L68455 76494
L68497 76456
L68577 76419
" />
<path d="M69116 76906
L69715 76906
" />
<path d="M70395 77169
L70315 77206
L70165 77206
L70095 77169
L70062 77131
L70034 77056
L70062 76831
L70109 76756
L70151 76719
L70231 76681
L70381 76681
L70451 76719
" />
<path d="M70728 77206
L70826 76419
" />
<path d="M71065 77206
L71117 76794
L71089 76719
L71018 76681
L70906 76681
L70826 76719
L70784 76756
" />
<path d="M71778 77206
L71829 76794
L71801 76719
L71731 76681
L71581 76681
L71501 76719
" />
<path d="M71782 77169
L71703 77206
L71515 77206
L71445 77169
L71417 77094
L71426 77019
L71473 76944
L71553 76906
L71740 76906
L71820 76869
" />
<path d="M72218 76681
L72153 77206
" />
<path d="M72209 76756
L72251 76719
L72331 76681
L72443 76681
L72514 76719
L72542 76794
L72490 77206
" />
<path d="M72931 76681
L72865 77206
" />
<path d="M72921 76756
L72964 76719
L73043 76681
L73156 76681
L73226 76719
L73254 76794
L73203 77206
" />
<path d="M73882 77169
L73802 77206
L73652 77206
L73582 77169
L73554 77094
L73592 76794
L73638 76719
L73718 76681
L73868 76681
L73938 76719
L73967 76794
L73957 76869
L73573 76944
" />
<path d="M74365 77206
L74295 77169
L74266 77094
L74351 76419
" />
<path d="M75330 76681
L75232 77469
" />
<path d="M75326 76719
L75405 76681
L75555 76681
L75626 76719
L75658 76756
L75687 76831
L75658 77056
L75612 77131
L75569 77169
L75490 77206
L75340 77206
L75269 77169
" />
<path d="M76090 77206
L76019 77169
L75987 77131
L75958 77056
L75987 76831
L76033 76756
L76076 76719
L76155 76681
L76268 76681
L76338 76719
L76371 76756
L76399 76831
L76371 77056
L76324 77131
L76282 77169
L76202 77206
L76090 77206
" />
<path d="M77093 76681
L77013 77319
L76966 77394
L76924 77431
L76844 77469
L76732 77469
L76661 77431
" />
<path d="M77032 77169
L76952 77206
L76802 77206
L76732 77169
L76699 77131
L76671 77056
L76699 76831
L76746 76756
L76788 76719
L76868 76681
L77018 76681
L77088 76719
" />
<path d="M77514 77206
L77444 77169
L77411 77131
L77383 77056
L77411 76831
L77458 76756
L77500 76719
L77580 76681
L77693 76681
L77763 76719
L77796 76756
L77824 76831
L77796 77056
L77749 77131
L77707 77169
L77627 77206
L77514 77206
" />
<path d="M78780 76681
L78682 77469
" />
<path d="M78775 76719
L78855 76681
L79005 76681
L79075 76719
L79108 76756
L79136 76831
L79108 77056
L79061 77131
L79019 77169
L78939 77206
L78789 77206
L78719 77169
" />
<path d="M79427 77206
L79492 76681
" />
<path d="M79525 76419
L79483 76456
L79516 76494
L79558 76456
L79525 76419
L79516 76494
" />
<path d="M79867 76681
L79802 77206
" />
<path d="M79858 76756
L79900 76719
L79980 76681
L80092 76681
L80163 76719
L80191 76794
L80139 77206
" />
<path d="M81114 77206
L81212 76419
" />
<path d="M81175 76719
L81255 76681
L81405 76681
L81475 76719
L81508 76756
L81536 76831
L81508 77056
L81461 77131
L81419 77169
L81339 77206
L81189 77206
L81119 77169
" />
<path d="M81939 77206
L81869 77169
L81836 77131
L81808 77056
L81836 76831
L81883 76756
L81925 76719
L82005 76681
L82117 76681
L82187 76719
L82220 76756
L82248 76831
L82220 77056
L82173 77131
L82131 77169
L82051 77206
L81939 77206
" />
<path d="M82876 77206
L82928 76794
L82900 76719
L82829 76681
L82679 76681
L82600 76719
" />
<path d="M82881 77169
L82801 77206
L82614 77206
L82544 77169
L82515 77094
L82525 77019
L82572 76944
L82651 76906
L82839 76906
L82919 76869
" />
<path d="M83251 77206
L83317 76681
" />
<path d="M83298 76831
L83345 76756
L83387 76719
L83467 76681
L83542 76681
" />
<path d="M84076 77206
L84175 76419
" />
<path d="M84081 77169
L84001 77206
L83851 77206
L83781 77169
L83748 77131
L83720 77056
L83748 76831
L83795 76756
L83837 76719
L83917 76681
L84067 76681
L84137 76719
" />
</g>
<g style="fill:#000000; fill-opacity:0.0; 
stroke:#000000; stroke-width:39.3701; stroke-opacity:1; 
stroke-linecap:round; stroke-linejoin:round;">
</g>
<g style="fill:#000000; fill-opacity:0.0; 
stroke:#000000; stroke-width:59.0551; stroke-opacity:1; 
stroke-linecap:round; stroke-linejoin:round;">
<path d="M63487 75390
L63290 75390
" />
<path d="M63290 75700
L63290 75109
L63571 75109
" />
<path d="M63796 75700
L63796 75306
" />
<path d="M63796 75109
L63768 75137
L63796 75165
L63824 75137
L63796 75109
L63796 75165
" />
<path d="M64161 75700
L64105 75672
L64077 75615
L64077 75109
" />
<path d="M64611 75672
L64555 75700
L64443 75700
L64386 75672
L64358 75615
L64358 75390
L64386 75334
L64443 75306
L64555 75306
L64611 75334
L64640 75390
L64640 75447
L64358 75503
" />
<path d="M64893 75643
L64921 75672
L64893 75700
L64865 75672
L64893 75643
L64893 75700
" />
<path d="M64893 75334
L64921 75362
L64893 75390
L64865 75362
L64893 75334
L64893 75390
" />
<path d="M65933 75700
L65596 75700
" />
<path d="M65764 75700
L65764 75109
L65708 75194
L65652 75250
L65596 75278
" />
<path d="M66158 75165
L66186 75137
L66242 75109
L66383 75109
L66439 75137
L66467 75165
L66496 75222
L66496 75278
L66467 75362
L66130 75700
L66496 75700
" />
<path d="M66861 75109
L66917 75109
L66974 75137
L67002 75165
L67030 75222
L67058 75334
L67058 75475
L67030 75587
L67002 75643
L66974 75672
L66917 75700
L66861 75700
L66805 75672
L66777 75643
L66749 75587
L66721 75475
L66721 75334
L66749 75222
L66777 75165
L66805 75137
L66861 75109
" />
<path d="M67311 75475
L67761 75475
" />
<path d="M68295 75672
L68239 75700
L68127 75700
L68070 75672
L68042 75643
L68014 75587
L68014 75419
L68042 75362
L68070 75334
L68127 75306
L68239 75306
L68295 75334
" />
<path d="M68548 75700
L68548 75109
" />
<path d="M68802 75700
L68802 75390
L68773 75334
L68717 75306
L68633 75306
L68577 75334
L68548 75362
" />
<path d="M69336 75700
L69336 75390
L69308 75334
L69251 75306
L69139 75306
L69083 75334
" />
<path d="M69336 75672
L69280 75700
L69139 75700
L69083 75672
L69055 75615
L69055 75559
L69083 75503
L69139 75475
L69280 75475
L69336 75447
" />
<path d="M69617 75306
L69617 75700
" />
<path d="M69617 75362
L69645 75334
L69701 75306
L69786 75306
L69842 75334
L69870 75390
L69870 75700
" />
<path d="M70151 75306
L70151 75700
" />
<path d="M70151 75362
L70179 75334
L70236 75306
L70320 75306
L70376 75334
L70404 75390
L70404 75700
" />
<path d="M70911 75672
L70854 75700
L70742 75700
L70686 75672
L70658 75615
L70658 75390
L70686 75334
L70742 75306
L70854 75306
L70911 75334
L70939 75390
L70939 75447
L70658 75503
" />
<path d="M71276 75700
L71220 75672
L71192 75615
L71192 75109
" />
<path d="M71951 75306
L71951 75897
" />
<path d="M71951 75334
L72007 75306
L72120 75306
L72176 75334
L72204 75362
L72232 75419
L72232 75587
L72204 75643
L72176 75672
L72120 75700
L72007 75700
L71951 75672
" />
<path d="M72570 75700
L72514 75672
L72485 75643
L72457 75587
L72457 75419
L72485 75362
L72514 75334
L72570 75306
L72654 75306
L72710 75334
L72739 75362
L72767 75419
L72767 75587
L72739 75643
L72710 75672
L72654 75700
L72570 75700
" />
<path d="M73273 75306
L73273 75784
L73245 75840
L73217 75868
L73160 75897
L73076 75897
L73020 75868
" />
<path d="M73273 75672
L73217 75700
L73104 75700
L73048 75672
L73020 75643
L72992 75587
L72992 75419
L73020 75362
L73048 75334
L73104 75306
L73217 75306
L73273 75334
" />
<path d="M73638 75700
L73582 75672
L73554 75643
L73526 75587
L73526 75419
L73554 75362
L73582 75334
L73638 75306
L73723 75306
L73779 75334
L73807 75362
L73835 75419
L73835 75587
L73807 75643
L73779 75672
L73723 75700
L73638 75700
" />
<path d="M74538 75306
L74538 75897
" />
<path d="M74538 75334
L74595 75306
L74707 75306
L74763 75334
L74791 75362
L74820 75419
L74820 75587
L74791 75643
L74763 75672
L74707 75700
L74595 75700
L74538 75672
" />
<path d="M75073 75700
L75073 75306
" />
<path d="M75073 75109
L75044 75137
L75073 75165
L75101 75137
L75073 75109
L75073 75165
" />
<path d="M75354 75306
L75354 75700
" />
<path d="M75354 75362
L75382 75334
L75438 75306
L75523 75306
L75579 75334
L75607 75390
L75607 75700
" />
<path d="M76338 75700
L76338 75109
" />
<path d="M76338 75334
L76394 75306
L76507 75306
L76563 75334
L76591 75362
L76619 75419
L76619 75587
L76591 75643
L76563 75672
L76507 75700
L76394 75700
L76338 75672
" />
<path d="M76957 75700
L76901 75672
L76872 75643
L76844 75587
L76844 75419
L76872 75362
L76901 75334
L76957 75306
L77041 75306
L77097 75334
L77125 75362
L77154 75419
L77154 75587
L77125 75643
L77097 75672
L77041 75700
L76957 75700
" />
<path d="M77660 75700
L77660 75390
L77632 75334
L77575 75306
L77463 75306
L77407 75334
" />
<path d="M77660 75672
L77604 75700
L77463 75700
L77407 75672
L77379 75615
L77379 75559
L77407 75503
L77463 75475
L77604 75475
L77660 75447
" />
<path d="M77941 75700
L77941 75306
" />
<path d="M77941 75419
L77969 75362
L77997 75334
L78053 75306
L78110 75306
" />
<path d="M78560 75700
L78560 75109
" />
<path d="M78560 75672
L78503 75700
L78391 75700
L78335 75672
L78307 75643
L78278 75587
L78278 75419
L78307 75362
L78335 75334
L78391 75306
L78503 75306
L78560 75334
" />
<path d="M78841 75643
L78869 75672
L78841 75700
L78813 75672
L78841 75643
L78841 75700
" />
<path d="M79122 75700
L79122 75109
" />
<path d="M79178 75475
L79347 75700
" />
<path d="M79347 75306
L79122 75531
" />
<path d="M79600 75700
L79600 75306
" />
<path d="M79600 75109
L79572 75137
L79600 75165
L79628 75137
L79600 75109
L79600 75165
" />
<path d="M80134 75672
L80078 75700
L79966 75700
L79910 75672
L79881 75643
L79853 75587
L79853 75419
L79881 75362
L79910 75334
L79966 75306
L80078 75306
L80134 75334
" />
<path d="M80641 75700
L80641 75390
L80613 75334
L80556 75306
L80444 75306
L80388 75334
" />
<path d="M80641 75672
L80584 75700
L80444 75700
L80388 75672
L80359 75615
L80359 75559
L80388 75503
L80444 75475
L80584 75475
L80641 75447
" />
<path d="M81175 75700
L81175 75109
" />
<path d="M81175 75672
L81119 75700
L81006 75700
L80950 75672
L80922 75643
L80894 75587
L80894 75419
L80922 75362
L80950 75334
L81006 75306
L81119 75306
L81175 75334
" />
<path d="M81316 75756
L81766 75756
" />
<path d="M81906 75306
L81906 75897
" />
<path d="M81906 75334
L81962 75306
L82075 75306
L82131 75334
L82159 75362
L82187 75419
L82187 75587
L82159 75643
L82131 75672
L82075 75700
L81962 75700
L81906 75672
" />
<path d="M82694 75672
L82637 75700
L82525 75700
L82469 75672
L82440 75643
L82412 75587
L82412 75419
L82440 75362
L82469 75334
L82525 75306
L82637 75306
L82694 75334
" />
<path d="M82947 75700
L82947 75109
" />
<path d="M82947 75334
L83003 75306
L83115 75306
L83172 75334
L83200 75362
L83228 75419
L83228 75587
L83200 75643
L83172 75672
L83115 75700
L83003 75700
L82947 75672
" />
</g>
<g style="fill:#000000; fill-opacity:0.0; 
stroke:#000000; stroke-width:39.3701; stroke-opacity:1; 
stroke-linecap:round; stroke-linejoin:round;">
</g>
<g style="fill:#000000; fill-opacity:0.0; 
stroke:#000000; stroke-width:59.0551; stroke-opacity:1; 
stroke-linecap:round; stroke-linejoin:round;">
<path d="M62755 73779
L105275 73779
" />
</g>
<g style="fill:#000000; fill-opacity:0.0; 
stroke:#000000; stroke-width:39.3701; stroke-opacity:1; 
stroke-linecap:round; stroke-linejoin:round;">
</g>
<g style="fill:#000000; fill-opacity:0.0; 
stroke:#000000; stroke-width:59.0551; stroke-opacity:1; 
stroke-linecap:round; stroke-linejoin:round;">
<path d="M63262 74609
L63346 74637
L63487 74637
L63543 74609
L63571 74580
L63599 74524
L63599 74468
L63571 74412
L63543 74384
L63487 74356
L63374 74327
L63318 74299
L63290 74271
L63262 74215
L63262 74159
L63290 74102
L63318 74074
L63374 74046
L63515 74046
L63599 74074
" />
<path d="M63852 74637
L63852 74046
" />
<path d="M64105 74637
L64105 74327
L64077 74271
L64021 74243
L63937 74243
L63880 74271
L63852 74299
" />
<path d="M64611 74609
L64555 74637
L64443 74637
L64386 74609
L64358 74552
L64358 74327
L64386 74271
L64443 74243
L64555 74243
L64611 74271
L64640 74327
L64640 74384
L64358 74440
" />
<path d="M65118 74609
L65061 74637
L64949 74637
L64893 74609
L64865 74552
L64865 74327
L64893 74271
L64949 74243
L65061 74243
L65118 74271
L65146 74327
L65146 74384
L64865 74440
" />
<path d="M65314 74243
L65539 74243
" />
<path d="M65399 74046
L65399 74552
L65427 74609
L65483 74637
L65539 74637
" />
<path d="M65736 74580
L65764 74609
L65736 74637
L65708 74609
L65736 74580
L65736 74637
" />
<path d="M65736 74271
L65764 74299
L65736 74327
L65708 74299
L65736 74271
L65736 74327
" />
</g>
<g style="fill:#000000; fill-opacity:0.0; 
stroke:#000000; stroke-width:39.3701; stroke-opacity:1; 
stroke-linecap:round; stroke-linejoin:round;">
</g>
<g style="fill:#000000; fill-opacity:0.0; 
stroke:#000000; stroke-width:118.11; stroke-opacity:1; 
stroke-linecap:round; stroke-linejoin:round;">
<path d="M63262 73428
L63346 73456
L63487 73456
L63543 73428
L63571 73399
L63599 73343
L63599 73287
L63571 73231
L63543 73203
L63487 73174
L63374 73146
L63318 73118
L63290 73090
L63262 73034
L63262 72978
L63290 72921
L63318 72893
L63374 72865
L63515 72865
L63599 72893
" />
<path d="M64105 73428
L64049 73456
L63937 73456
L63880 73428
L63852 73399
L63824 73343
L63824 73174
L63852 73118
L63880 73090
L63937 73062
L64049 73062
L64105 73090
" />
<path d="M64358 73456
L64358 73062
" />
<path d="M64358 72865
L64330 72893
L64358 72921
L64386 72893
L64358 72865
L64358 72921
" />
<path d="M64640 73231
L65089 73231
" />
<path d="M65568 73146
L65652 73174
L65680 73203
L65708 73259
L65708 73343
L65680 73399
L65652 73428
L65596 73456
L65371 73456
L65371 72865
L65568 72865
L65624 72893
L65652 72921
L65680 72978
L65680 73034
L65652 73090
L65624 73118
L65568 73146
L65371 73146
" />
<path d="M66046 73456
L65989 73428
L65961 73399
L65933 73343
L65933 73174
L65961 73118
L65989 73090
L66046 73062
L66130 73062
L66186 73090
L66214 73118
L66242 73174
L66242 73343
L66214 73399
L66186 73428
L66130 73456
L66046 73456
" />
<path d="M66411 73062
L66636 73062
" />
<path d="M66496 72865
L66496 73371
L66524 73428
L66580 73456
L66636 73456
" />
<path d="M66805 73428
L66861 73456
L66974 73456
L67030 73428
L67058 73371
L67058 73343
L67030 73287
L66974 73259
L66889 73259
L66833 73231
L66805 73174
L66805 73146
L66833 73090
L66889 73062
L66974 73062
L67030 73090
" />
<path d="M67761 73456
L67761 72865
" />
<path d="M68042 73062
L68042 73456
" />
<path d="M68042 73118
L68070 73090
L68127 73062
L68211 73062
L68267 73090
L68295 73146
L68295 73456
" />
<path d="M68830 73428
L68773 73456
L68661 73456
L68605 73428
L68577 73399
L68548 73343
L68548 73174
L68577 73118
L68605 73090
L68661 73062
L68773 73062
L68830 73090
" />
<path d="M69083 73399
L69111 73428
L69083 73456
L69055 73428
L69083 73399
L69083 73456
" />
</g>
<g style="fill:#000000; fill-opacity:0.0; 
stroke:#000000; stroke-width:39.3701; stroke-opacity:1; 
stroke-linecap:round; stroke-linejoin:round;">
</g>
<g style="fill:#000000; fill-opacity:0.0; 
stroke:#000000; stroke-width:59.0551; stroke-opacity:1; 
stroke-linecap:round; stroke-linejoin:round;">
<path d="M70629 77716
L70629 78897
" />
</g>
<g style="fill:#000000; fill-opacity:0.0; 
stroke:#000000; stroke-width:39.3701; stroke-opacity:1; 
stroke-linecap:round; stroke-linejoin:round;">
</g>
<g style="fill:#000000; fill-opacity:0.0; 
stroke:#000000; stroke-width:59.0551; stroke-opacity:1; 
stroke-linecap:round; stroke-linejoin:round;">
<path d="M95826 77716
L95826 80275
" />
</g>
<g style="fill:#000000; fill-opacity:0.0; 
stroke:#000000; stroke-width:40; stroke-opacity:1; 
stroke-linecap:round; stroke-linejoin:round;">
<path d="M49410 46227
L49350 46227
L49320 46242
L49305 46257
L49275 46302
L49260 46362
L49260 46482
L49275 46512
L49290 46527
L49320 46542
L49380 46542
L49410 46527
L49425 46512
L49440 46482
L49440 46407
L49425 46377
L49410 46362
L49380 46347
L49320 46347
L49290 46362
L49275 46377
L49260 46407
" />
<path d="M49544 46227
L49739 46227
L49634 46347
L49679 46347
L49709 46362
L49724 46377
L49739 46407
L49739 46482
L49724 46512
L49709 46527
L49679 46542
L49589 46542
L49559 46527
L49544 46512
" />
<path d="M54210 46227
L54150 46227
L54120 46242
L54105 46257
L54075 46302
L54060 46362
L54060 46482
L54075 46512
L54090 46527
L54120 46542
L54180 46542
L54210 46527
L54225 46512
L54240 46482
L54240 46407
L54225 46377
L54210 46362
L54180 46347
L54120 46347
L54090 46362
L54075 46377
L54060 46407
" />
<path d="M54434 46227
L54464 46227
L54494 46242
L54509 46257
L54524 46287
L54539 46347
L54539 46422
L54524 46482
L54509 46512
L54494 46527
L54464 46542
L54434 46542
L54404 46527
L54389 46512
L54374 46482
L54359 46422
L54359 46347
L54374 46287
L54389 46257
L54404 46242
L54434 46227
" />
<path d="M54216 32524
L54058 32524
" />
<path d="M54137 32524
L54137 32249
L54111 32288
L54085 32314
L54058 32327
" />
<path d="M54478 32524
L54321 32524
" />
<path d="M54400 32524
L54400 32249
L54373 32288
L54347 32314
L54321 32327
" />
<path d="M54714 32249
L54662 32249
L54636 32262
L54623 32275
L54596 32314
L54583 32367
L54583 32472
L54596 32498
L54609 32511
L54636 32524
L54688 32524
L54714 32511
L54728 32498
L54741 32472
L54741 32406
L54728 32380
L54714 32367
L54688 32354
L54636 32354
L54609 32367
L54596 32380
L54583 32406
" />
<path d="M49216 32524
L49058 32524
" />
<path d="M49137 32524
L49137 32249
L49111 32288
L49085 32314
L49058 32327
" />
<path d="M49478 32524
L49321 32524
" />
<path d="M49400 32524
L49400 32249
L49373 32288
L49347 32314
L49321 32327
" />
<path d="M49609 32524
L49662 32524
L49688 32511
L49701 32498
L49728 32459
L49741 32406
L49741 32301
L49728 32275
L49714 32262
L49688 32249
L49636 32249
L49609 32262
L49596 32275
L49583 32301
L49583 32367
L49596 32393
L49609 32406
L49636 32419
L49688 32419
L49714 32406
L49728 32393
L49741 32367
" />
<path d="M29131 32213
L29326 32213
L29221 32333
L29266 32333
L29296 32348
L29311 32363
L29326 32393
L29326 32468
L29311 32498
L29296 32513
L29266 32528
L29176 32528
L29146 32513
L29131 32498
" />
<path d="M24397 46193
L24247 46193
L24232 46343
L24247 46328
L24277 46313
L24352 46313
L24382 46328
L24397 46343
L24412 46373
L24412 46448
L24397 46478
L24382 46493
L24352 46508
L24277 46508
L24247 46493
L24232 46478
" />
<path d="M24682 46193
L24622 46193
L24592 46208
L24577 46223
L24547 46268
L24532 46328
L24532 46448
L24547 46478
L24562 46493
L24592 46508
L24652 46508
L24682 46493
L24697 46478
L24712 46448
L24712 46373
L24697 46343
L24682 46328
L24652 46313
L24592 46313
L24562 46328
L24547 46343
L24532 46373
" />
<path d="M29228 46193
L29078 46193
L29063 46343
L29078 46328
L29108 46313
L29183 46313
L29213 46328
L29228 46343
L29243 46373
L29243 46448
L29228 46478
L29213 46493
L29183 46508
L29108 46508
L29078 46493
L29063 46478
" />
<path d="M29393 46508
L29453 46508
L29483 46493
L29498 46478
L29528 46433
L29543 46373
L29543 46253
L29528 46223
L29513 46208
L29483 46193
L29423 46193
L29393 46208
L29378 46223
L29363 46253
L29363 46328
L29378 46358
L29393 46373
L29423 46388
L29483 46388
L29513 46373
L29528 46358
L29543 46328
" />
<path d="M50419 48283
L50430 48294
L50441 48328
L50441 48350
L50430 48384
L50407 48407
L50385 48418
L50340 48429
L50306 48429
L50261 48418
L50239 48407
L50216 48384
L50205 48350
L50205 48328
L50216 48294
L50227 48283
" />
<path d="M50430 48193
L50441 48159
L50441 48103
L50430 48080
L50419 48069
L50396 48058
L50374 48058
L50351 48069
L50340 48080
L50329 48103
L50317 48148
L50306 48170
L50295 48182
L50272 48193
L50250 48193
L50227 48182
L50216 48170
L50205 48148
L50205 48092
L50216 48058
" />
<path d="M51236 48522
L51224 48544
L51224 48578
L51236 48612
L51258 48634
L51281 48646
L51326 48657
L51359 48657
L51404 48646
L51427 48634
L51449 48612
L51461 48578
L51461 48556
L51449 48522
L51438 48511
L51359 48511
L51359 48556
" />
<path d="M51461 48410
L51224 48410
L51461 48275
L51224 48275
" />
<path d="M51461 48162
L51224 48162
L51224 48106
L51236 48072
L51258 48050
L51281 48038
L51326 48027
L51359 48027
L51404 48038
L51427 48050
L51449 48072
L51461 48106
L51461 48162
" />
<path d="M52437 49024
L52201 49024
" />
<path d="M52313 49024
L52313 48889
" />
<path d="M52437 48889
L52201 48889
" />
<path d="M52201 48811
L52437 48732
L52201 48653
" />
<path d="M52460 48631
L52460 48451
" />
<path d="M52201 48349
L52201 48304
L52212 48282
L52235 48259
L52280 48248
L52358 48248
L52403 48259
L52426 48282
L52437 48304
L52437 48349
L52426 48372
L52403 48394
L52358 48406
L52280 48406
L52235 48394
L52212 48372
L52201 48349
" />
<path d="M52313 48147
L52313 48068
" />
<path d="M52437 48034
L52437 48147
L52201 48147
L52201 48034
" />
<path d="M53228 48502
L53465 48344
" />
<path d="M53228 48344
L53465 48502
" />
<path d="M53251 48266
L53240 48254
L53228 48232
L53228 48176
L53240 48153
L53251 48142
L53273 48131
L53296 48131
L53330 48142
L53465 48277
L53465 48131
" />
<path d="M53232 30663
L53469 30506
" />
<path d="M53232 30506
L53469 30663
" />
<path d="M53255 30427
L53244 30416
L53232 30393
L53232 30337
L53244 30314
L53255 30303
L53277 30292
L53300 30292
L53334 30303
L53469 30438
L53469 30292
" />
<path d="M52465 30674
L52228 30674
" />
<path d="M52341 30674
L52341 30539
" />
<path d="M52465 30539
L52228 30539
" />
<path d="M52228 30460
L52465 30381
L52228 30303
" />
<path d="M52487 30280
L52487 30100
" />
<path d="M52228 29999
L52228 29954
L52240 29931
L52262 29909
L52307 29898
L52386 29898
L52431 29909
L52453 29931
L52465 29954
L52465 29999
L52453 30021
L52431 30044
L52386 30055
L52307 30055
L52262 30044
L52240 30021
L52228 29999
" />
<path d="M52341 29796
L52341 29718
" />
<path d="M52465 29684
L52465 29796
L52228 29796
L52228 29684
" />
<path d="M51267 30538
L51256 30560
L51256 30594
L51267 30628
L51290 30650
L51312 30661
L51357 30673
L51391 30673
L51436 30661
L51458 30650
L51481 30628
L51492 30594
L51492 30571
L51481 30538
L51470 30526
L51391 30526
L51391 30571
" />
<path d="M51492 30425
L51256 30425
L51492 30290
L51256 30290
" />
<path d="M51492 30178
L51256 30178
L51256 30122
L51267 30088
L51290 30065
L51312 30054
L51357 30043
L51391 30043
L51436 30054
L51458 30065
L51481 30088
L51492 30122
L51492 30178
" />
<path d="M50442 30503
L50453 30515
L50465 30548
L50465 30571
L50453 30605
L50431 30627
L50408 30638
L50363 30650
L50330 30650
L50285 30638
L50262 30627
L50240 30605
L50228 30571
L50228 30548
L50240 30515
L50251 30503
" />
<path d="M50453 30413
L50465 30380
L50465 30323
L50453 30301
L50442 30290
L50420 30278
L50397 30278
L50375 30290
L50363 30301
L50352 30323
L50341 30368
L50330 30391
L50318 30402
L50296 30413
L50273 30413
L50251 30402
L50240 30391
L50228 30368
L50228 30312
L50240 30278
" />
<path d="M28529 48330
L28540 48341
L28551 48375
L28551 48398
L28540 48431
L28517 48454
L28495 48465
L28450 48476
L28416 48476
L28371 48465
L28349 48454
L28326 48431
L28315 48398
L28315 48375
L28326 48341
L28338 48330
" />
<path d="M28540 48240
L28551 48206
L28551 48150
L28540 48128
L28529 48116
L28506 48105
L28484 48105
L28461 48116
L28450 48128
L28439 48150
L28428 48195
L28416 48218
L28405 48229
L28383 48240
L28360 48240
L28338 48229
L28326 48218
L28315 48195
L28315 48139
L28326 48105
" />
<path d="M25268 48360
L25504 48203
" />
<path d="M25268 48203
L25504 48360
" />
<path d="M25504 47989
L25504 48124
" />
<path d="M25504 48056
L25268 48056
L25302 48079
L25324 48101
L25335 48124
" />
<path d="M26516 49040
L26280 49040
" />
<path d="M26392 49040
L26392 48905
" />
<path d="M26516 48905
L26280 48905
" />
<path d="M26280 48826
L26516 48748
L26280 48669
" />
<path d="M26538 48646
L26538 48466
" />
<path d="M26280 48365
L26280 48320
L26291 48298
L26313 48275
L26358 48264
L26437 48264
L26482 48275
L26505 48298
L26516 48320
L26516 48365
L26505 48388
L26482 48410
L26437 48421
L26358 48421
L26313 48410
L26291 48388
L26280 48365
" />
<path d="M26392 48163
L26392 48084
" />
<path d="M26516 48050
L26516 48163
L26280 48163
L26280 48050
" />
<path d="M27291 48542
L27280 48564
L27280 48598
L27291 48632
L27313 48654
L27336 48665
L27381 48677
L27415 48677
L27460 48665
L27482 48654
L27505 48632
L27516 48598
L27516 48575
L27505 48542
L27493 48530
L27415 48530
L27415 48575
" />
<path d="M27516 48429
L27280 48429
L27516 48294
L27280 48294
" />
<path d="M27516 48182
L27280 48182
L27280 48125
L27291 48092
L27313 48069
L27336 48058
L27381 48047
L27415 48047
L27460 48058
L27482 48069
L27505 48092
L27516 48125
L27516 48182
" />
<path d="M28501 30578
L28512 30589
L28524 30623
L28524 30646
L28512 30679
L28490 30702
L28467 30713
L28422 30724
L28389 30724
L28344 30713
L28321 30702
L28299 30679
L28287 30646
L28287 30623
L28299 30589
L28310 30578
" />
<path d="M28512 30488
L28524 30455
L28524 30398
L28512 30376
L28501 30365
L28479 30353
L28456 30353
L28434 30365
L28422 30376
L28411 30398
L28400 30443
L28389 30466
L28377 30477
L28355 30488
L28332 30488
L28310 30477
L28299 30466
L28287 30443
L28287 30387
L28299 30353
" />
<path d="M27314 30593
L27303 30615
L27303 30649
L27314 30683
L27337 30705
L27359 30717
L27404 30728
L27438 30728
L27483 30717
L27506 30705
L27528 30683
L27539 30649
L27539 30627
L27528 30593
L27517 30582
L27438 30582
L27438 30627
" />
<path d="M27539 30480
L27303 30480
L27539 30345
L27303 30345
" />
<path d="M27539 30233
L27303 30233
L27303 30177
L27314 30143
L27337 30120
L27359 30109
L27404 30098
L27438 30098
L27483 30109
L27506 30120
L27528 30143
L27539 30177
L27539 30233
" />
<path d="M26484 30715
L26248 30715
" />
<path d="M26361 30715
L26361 30580
" />
<path d="M26484 30580
L26248 30580
" />
<path d="M26248 30501
L26484 30423
L26248 30344
" />
<path d="M26507 30321
L26507 30142
" />
<path d="M26248 30040
L26248 29995
L26259 29973
L26282 29950
L26327 29939
L26406 29939
L26451 29950
L26473 29973
L26484 29995
L26484 30040
L26473 30063
L26451 30085
L26406 30097
L26327 30097
L26282 30085
L26259 30063
L26248 30040
" />
<path d="M26361 29838
L26361 29759
" />
<path d="M26484 29725
L26484 29838
L26248 29838
L26248 29725
" />
<path d="M25213 30714
L25449 30557
" />
<path d="M25213 30557
L25449 30714
" />
<path d="M25449 30343
L25449 30478
" />
<path d="M25449 30411
L25213 30411
L25246 30433
L25269 30456
L25280 30478
" />
<path d="M24542 32219
L24572 32219
L24602 32234
L24617 32249
L24632 32279
L24647 32339
L24647 32414
L24632 32474
L24617 32504
L24602 32519
L24572 32534
L24542 32534
L24512 32519
L24497 32504
L24482 32474
L24467 32414
L24467 32339
L24482 32279
L24497 32249
L24512 32234
L24542 32219
" />
</g>
<g style="fill:#000000; fill-opacity:0.0; 
stroke:#000000; stroke-width:150; stroke-opacity:1; 
stroke-linecap:round; stroke-linejoin:round;">
<path d="M60685 29527
L48956 29527
" />
<path d="M18055 29527
L29783 29527
" />
<path d="M90295 47645
L90295 47645
" />
<path d="M18055 58371
L60685 58371
" />
</g>
<g style="fill:#000000; fill-opacity:0.0; 
stroke:#000000; stroke-width:78.7402; stroke-opacity:1; 
stroke-linecap:round; stroke-linejoin:round;">
<path d="M41702 50926
L41702 50532
" />
<path d="M41837 50926
L41837 50719
L41822 50682
L41792 50663
L41747 50663
L41717 50682
L41702 50701
" />
<path d="M41942 50663
L42062 50663
" />
<path d="M41987 50532
L41987 50869
L42002 50907
L42032 50926
L42062 50926
" />
<path d="M42122 50663
L42242 50663
" />
<path d="M42167 50532
L42167 50869
L42182 50907
L42212 50926
L42242 50926
" />
<path d="M42347 50663
L42347 51057
" />
<path d="M42347 50682
L42377 50663
L42437 50663
L42467 50682
L42482 50701
L42497 50738
L42497 50851
L42482 50888
L42467 50907
L42437 50926
L42377 50926
L42347 50907
" />
<path d="M42632 50888
L42647 50907
L42632 50926
L42617 50907
L42632 50888
L42632 50926
" />
<path d="M42632 50682
L42647 50701
L42632 50719
L42617 50701
L42632 50682
L42632 50719
" />
<path d="M43007 50513
L42737 51019
" />
<path d="M43337 50513
L43067 51019
" />
<path d="M43427 50907
L43457 50926
L43517 50926
L43547 50907
L43562 50869
L43562 50851
L43547 50813
L43517 50794
L43472 50794
L43442 50776
L43427 50738
L43427 50719
L43442 50682
L43472 50663
L43517 50663
L43547 50682
" />
<path d="M43832 50907
L43802 50926
L43742 50926
L43712 50907
L43697 50888
L43682 50851
L43682 50738
L43697 50701
L43712 50682
L43742 50663
L43802 50663
L43832 50682
" />
<path d="M43967 50926
L43967 50663
" />
<path d="M43967 50532
L43952 50551
L43967 50569
L43982 50551
L43967 50532
L43967 50569
" />
<path d="M44116 50776
L44356 50776
" />
<path d="M44506 50926
L44506 50532
" />
<path d="M44506 50682
L44536 50663
L44596 50663
L44626 50682
L44641 50701
L44656 50738
L44656 50851
L44641 50888
L44626 50907
L44596 50926
L44536 50926
L44506 50907
" />
<path d="M44836 50926
L44806 50907
L44791 50888
L44776 50851
L44776 50738
L44791 50701
L44806 50682
L44836 50663
L44881 50663
L44911 50682
L44926 50701
L44941 50738
L44941 50851
L44926 50888
L44911 50907
L44881 50926
L44836 50926
" />
<path d="M45031 50663
L45151 50663
" />
<path d="M45076 50532
L45076 50869
L45091 50907
L45121 50926
L45151 50926
" />
<path d="M45241 50907
L45271 50926
L45331 50926
L45361 50907
L45376 50869
L45376 50851
L45361 50813
L45331 50794
L45286 50794
L45256 50776
L45241 50738
L45241 50719
L45256 50682
L45286 50663
L45331 50663
L45361 50682
" />
<path d="M45511 50888
L45526 50907
L45511 50926
L45496 50907
L45511 50888
L45511 50926
" />
<path d="M45796 50907
L45766 50926
L45706 50926
L45676 50907
L45661 50888
L45646 50851
L45646 50738
L45661 50701
L45676 50682
L45706 50663
L45766 50663
L45796 50682
" />
<path d="M45976 50926
L45946 50907
L45931 50888
L45916 50851
L45916 50738
L45931 50701
L45946 50682
L45976 50663
L46021 50663
L46051 50682
L46066 50701
L46081 50738
L46081 50851
L46066 50888
L46051 50907
L46021 50926
L45976 50926
" />
<path d="M46216 50926
L46216 50663
" />
<path d="M46216 50701
L46231 50682
L46261 50663
L46306 50663
L46336 50682
L46351 50719
L46351 50926
" />
<path d="M46351 50719
L46366 50682
L46396 50663
L46441 50663
L46471 50682
L46486 50719
L46486 50926
" />
<path d="M41739 51537
L41784 51556
L41859 51556
L41889 51537
L41904 51518
L41919 51481
L41919 51443
L41904 51406
L41889 51387
L41859 51368
L41799 51349
L41769 51331
L41754 51312
L41739 51274
L41739 51237
L41754 51199
L41769 51181
L41799 51162
L41874 51162
L41919 51181
" />
<path d="M42189 51537
L42159 51556
L42099 51556
L42069 51537
L42054 51518
L42039 51481
L42039 51368
L42054 51331
L42069 51312
L42099 51293
L42159 51293
L42189 51312
" />
<path d="M42324 51556
L42324 51293
" />
<path d="M42324 51162
L42309 51181
L42324 51199
L42339 51181
L42324 51162
L42324 51199
" />
<path d="M42474 51406
L42714 51406
" />
<path d="M42969 51349
L43014 51368
L43029 51387
L43044 51424
L43044 51481
L43029 51518
L43014 51537
L42984 51556
L42864 51556
L42864 51162
L42969 51162
L42999 51181
L43014 51199
L43029 51237
L43029 51274
L43014 51312
L42999 51331
L42969 51349
L42864 51349
" />
<path d="M43224 51556
L43194 51537
L43179 51518
L43164 51481
L43164 51368
L43179 51331
L43194 51312
L43224 51293
L43269 51293
L43299 51312
L43314 51331
L43329 51368
L43329 51481
L43314 51518
L43299 51537
L43269 51556
L43224 51556
" />
<path d="M43419 51293
L43539 51293
" />
<path d="M43464 51162
L43464 51499
L43479 51537
L43509 51556
L43539 51556
" />
<path d="M43629 51537
L43659 51556
L43719 51556
L43749 51537
L43764 51499
L43764 51481
L43749 51443
L43719 51424
L43674 51424
L43644 51406
L43629 51368
L43629 51349
L43644 51312
L43674 51293
L43719 51293
L43749 51312
" />
<path d="M44139 51556
L44139 51162
" />
<path d="M44289 51293
L44289 51556
" />
<path d="M44289 51331
L44304 51312
L44334 51293
L44379 51293
L44409 51312
L44424 51349
L44424 51556
" />
<path d="M44709 51537
L44679 51556
L44619 51556
L44589 51537
L44574 51518
L44559 51481
L44559 51368
L44574 51331
L44589 51312
L44619 51293
L44679 51293
L44709 51312
" />
<path d="M44844 51518
L44859 51537
L44844 51556
L44829 51537
L44844 51518
L44844 51556
" />
<path d="M45009 51537
L45009 51556
L44994 51593
L44979 51612
" />
<path d="M45369 51199
L45384 51181
L45414 51162
L45489 51162
L45519 51181
L45534 51199
L45549 51237
L45549 51274
L45534 51331
L45354 51556
L45549 51556
" />
<path d="M45744 51162
L45774 51162
L45804 51181
L45819 51199
L45834 51237
L45849 51312
L45849 51406
L45834 51481
L45819 51518
L45804 51537
L45774 51556
L45744 51556
L45714 51537
L45699 51518
L45684 51481
L45669 51406
L45669 51312
L45684 51237
L45699 51199
L45714 51181
L45744 51162
" />
<path d="M46149 51556
L45969 51556
" />
<path d="M46059 51556
L46059 51162
L46029 51218
L45999 51256
L45969 51274
" />
<path d="M46254 51162
L46464 51162
L46329 51556
" />
</g>
<g style="fill:#000000; fill-opacity:0.0; 
stroke:#000000; stroke-width:150; stroke-opacity:1; 
stroke-linecap:round; stroke-linejoin:round;">
<path d="M29783 29527
L29783 49212
" />
<path d="M48956 29527
L48956 49212
" />
<path d="M60685 58371
L60685 29527
" />
<path d="M18055 29527
L18055 58371
" />
</g>
<g style="fill:#000000; fill-opacity:0.0; 
stroke:#000000; stroke-width:78.7402; stroke-opacity:1; 
stroke-linecap:round; stroke-linejoin:round;">
<path d="M32712 51949
L32712 51556
L32787 51556
L32832 51574
L32862 51612
L32877 51649
L32892 51724
L32892 51781
L32877 51856
L32862 51893
L32832 51931
L32787 51949
L32712 51949
" />
<path d="M33027 51949
L33027 51687
" />
<path d="M33027 51762
L33042 51724
L33057 51706
L33087 51687
L33117 51687
" />
<path d="M33267 51949
L33237 51931
L33222 51912
L33207 51874
L33207 51762
L33222 51724
L33237 51706
L33267 51687
L33312 51687
L33342 51706
L33357 51724
L33372 51762
L33372 51874
L33357 51912
L33342 51931
L33312 51949
L33267 51949
" />
<path d="M33507 51687
L33507 52080
" />
<path d="M33507 51706
L33537 51687
L33597 51687
L33627 51706
L33642 51724
L33657 51762
L33657 51874
L33642 51912
L33627 51931
L33597 51949
L33537 51949
L33507 51931
" />
<path d="M33897 51743
L33942 51762
L33957 51781
L33972 51818
L33972 51874
L33957 51912
L33942 51931
L33912 51949
L33792 51949
L33792 51556
L33897 51556
L33927 51574
L33942 51593
L33957 51631
L33957 51668
L33942 51706
L33927 51724
L33897 51743
L33792 51743
" />
<path d="M34152 51949
L34122 51931
L34107 51912
L34092 51874
L34092 51762
L34107 51724
L34122 51706
L34152 51687
L34197 51687
L34227 51706
L34242 51724
L34257 51762
L34257 51874
L34242 51912
L34227 51931
L34197 51949
L34152 51949
" />
<path d="M34347 51687
L34467 51687
" />
<path d="M34392 51556
L34392 51893
L34407 51931
L34437 51949
L34467 51949
" />
<path d="M32877 52579
L32697 52579
" />
<path d="M32787 52579
L32787 52185
L32757 52242
L32727 52279
L32697 52298
" />
<path d="M32997 52223
L33012 52204
L33042 52185
L33117 52185
L33147 52204
L33162 52223
L33177 52260
L33177 52298
L33162 52354
L32982 52579
L33177 52579
" />
<path d="M33372 52185
L33402 52185
L33432 52204
L33447 52223
L33462 52260
L33477 52335
L33477 52429
L33462 52504
L33447 52542
L33432 52560
L33402 52579
L33372 52579
L33342 52560
L33327 52542
L33312 52504
L33297 52429
L33297 52335
L33312 52260
L33327 52223
L33342 52204
L33372 52185
" />
<path d="M33612 52429
L33852 52429
" />
<path d="M34137 52560
L34107 52579
L34047 52579
L34017 52560
L34002 52542
L33987 52504
L33987 52392
L34002 52354
L34017 52335
L34047 52317
L34107 52317
L34137 52335
" />
<path d="M34272 52579
L34272 52185
" />
<path d="M34407 52579
L34407 52373
L34392 52335
L34362 52317
L34317 52317
L34287 52335
L34272 52354
" />
<path d="M34692 52579
L34692 52373
L34677 52335
L34647 52317
L34587 52317
L34557 52335
" />
<path d="M34692 52560
L34662 52579
L34587 52579
L34557 52560
L34542 52523
L34542 52485
L34557 52448
L34587 52429
L34662 52429
L34692 52410
" />
<path d="M34842 52317
L34842 52579
" />
<path d="M34842 52354
L34857 52335
L34887 52317
L34932 52317
L34962 52335
L34977 52373
L34977 52579
" />
<path d="M35127 52317
L35127 52579
" />
<path d="M35127 52354
L35142 52335
L35172 52317
L35217 52317
L35247 52335
L35262 52373
L35262 52579
" />
<path d="M35532 52560
L35502 52579
L35442 52579
L35412 52560
L35397 52523
L35397 52373
L35412 52335
L35442 52317
L35502 52317
L35532 52335
L35547 52373
L35547 52410
L35397 52448
" />
<path d="M35727 52579
L35697 52560
L35682 52523
L35682 52185
" />
<path d="M36087 52317
L36087 52710
" />
<path d="M36087 52335
L36117 52317
L36177 52317
L36207 52335
L36222 52354
L36237 52392
L36237 52504
L36222 52542
L36207 52560
L36177 52579
L36117 52579
L36087 52560
" />
<path d="M36417 52579
L36387 52560
L36372 52542
L36357 52504
L36357 52392
L36372 52354
L36387 52335
L36417 52317
L36462 52317
L36492 52335
L36507 52354
L36522 52392
L36522 52504
L36507 52542
L36492 52560
L36462 52579
L36417 52579
" />
<path d="M36792 52317
L36792 52635
L36777 52673
L36762 52692
L36732 52710
L36687 52710
L36657 52692
" />
<path d="M36792 52560
L36762 52579
L36702 52579
L36672 52560
L36657 52542
L36642 52504
L36642 52392
L36657 52354
L36672 52335
L36702 52317
L36762 52317
L36792 52335
" />
<path d="M36987 52579
L36957 52560
L36942 52542
L36927 52504
L36927 52392
L36942 52354
L36957 52335
L36987 52317
L37032 52317
L37062 52335
L37077 52354
L37092 52392
L37092 52504
L37077 52542
L37062 52560
L37032 52579
L36987 52579
" />
<path d="M37227 52429
L37467 52429
" />
<path d="M37617 52317
L37617 52710
" />
<path d="M37617 52335
L37647 52317
L37707 52317
L37737 52335
L37752 52354
L37767 52392
L37767 52504
L37752 52542
L37737 52560
L37707 52579
L37647 52579
L37617 52560
" />
<path d="M37902 52579
L37902 52317
" />
<path d="M37902 52185
L37887 52204
L37902 52223
L37917 52204
L37902 52185
L37902 52223
" />
<path d="M38052 52317
L38052 52579
" />
<path d="M38052 52354
L38067 52335
L38097 52317
L38142 52317
L38172 52335
L38187 52373
L38187 52579
" />
<path d="M38577 52579
L38577 52185
" />
<path d="M38577 52335
L38607 52317
L38667 52317
L38697 52335
L38712 52354
L38727 52392
L38727 52504
L38712 52542
L38697 52560
L38667 52579
L38607 52579
L38577 52560
" />
<path d="M38907 52579
L38877 52560
L38862 52542
L38847 52504
L38847 52392
L38862 52354
L38877 52335
L38907 52317
L38952 52317
L38982 52335
L38997 52354
L39012 52392
L39012 52504
L38997 52542
L38982 52560
L38952 52579
L38907 52579
" />
<path d="M39281 52579
L39281 52373
L39266 52335
L39236 52317
L39176 52317
L39146 52335
" />
<path d="M39281 52560
L39251 52579
L39176 52579
L39146 52560
L39131 52523
L39131 52485
L39146 52448
L39176 52429
L39251 52429
L39281 52410
" />
<path d="M39431 52579
L39431 52317
" />
<path d="M39431 52392
L39446 52354
L39461 52335
L39491 52317
L39521 52317
" />
<path d="M39761 52579
L39761 52185
" />
<path d="M39761 52560
L39731 52579
L39671 52579
L39641 52560
L39626 52542
L39611 52504
L39611 52392
L39626 52354
L39641 52335
L39671 52317
L39731 52317
L39761 52335
" />
<path d="M40121 52317
L40196 52579
L40271 52317
" />
<path d="M40361 52185
L40556 52185
L40451 52335
L40496 52335
L40526 52354
L40541 52373
L40556 52410
L40556 52504
L40541 52542
L40526 52560
L40496 52579
L40406 52579
L40376 52560
L40361 52542
" />
<path d="M40691 52542
L40706 52560
L40691 52579
L40676 52560
L40691 52542
L40691 52579
" />
<path d="M41006 52579
L40826 52579
" />
<path d="M40916 52579
L40916 52185
L40886 52242
L40856 52279
L40826 52298
" />
</g>
<g style="fill:#000000; fill-opacity:0.0; 
stroke:#000000; stroke-width:150; stroke-opacity:1; 
stroke-linecap:round; stroke-linejoin:round;">
<path d="M29783 49212
L48956 49212
" />
</g>
<g style="fill:#000000; fill-opacity:0.0; 
stroke:#000000; stroke-width:40; stroke-opacity:1; 
stroke-linecap:round; stroke-linejoin:round;">
<path d="M24695 55129
L24695 55486
L24671 55558
L24624 55605
L24552 55629
L24505 55629
" />
<path d="M25147 55296
L25147 55629
" />
<path d="M25028 55105
L24909 55463
L25219 55463
" />
<path d="M30362 57442
L30672 57442
L30505 57633
L30577 57633
L30624 57657
L30648 57680
L30672 57728
L30672 57847
L30648 57895
L30624 57918
L30577 57942
L30434 57942
L30386 57918
L30362 57895
" />
<path d="M30910 57942
L31005 57942
L31053 57918
L31077 57895
L31124 57823
L31148 57728
L31148 57537
L31124 57490
L31101 57466
L31053 57442
L30958 57442
L30910 57466
L30886 57490
L30862 57537
L30862 57657
L30886 57704
L30910 57728
L30958 57752
L31053 57752
L31101 57728
L31124 57704
L31148 57657
" />
<path d="M19277 55690
L19324 55690
L19372 55714
L19396 55738
L19420 55785
L19444 55881
L19444 56000
L19420 56095
L19396 56143
L19372 56166
L19324 56190
L19277 56190
L19229 56166
L19205 56143
L19182 56095
L19158 56000
L19158 55881
L19182 55785
L19205 55738
L19229 55714
L19277 55690
" />
</g>
<g style="fill:#000000; fill-opacity:0.0; 
stroke:#000000; stroke-width:59.0551; stroke-opacity:1; 
stroke-linecap:round; stroke-linejoin:round;">
<path d="M24158 31250
L24158 30857
L24308 30857
L24345 30875
L24364 30894
L24383 30932
L24383 30988
L24364 31025
L24345 31044
L24308 31063
L24158 31063
" />
<path d="M24533 30894
L24551 30875
L24589 30857
L24683 30857
L24720 30875
L24739 30894
L24758 30932
L24758 30969
L24739 31025
L24514 31250
L24758 31250
" />
<path d="M29059 31241
L29059 30847
L29209 30847
L29247 30866
L29266 30884
L29284 30922
L29284 30978
L29266 31016
L29247 31034
L29209 31053
L29059 31053
" />
<path d="M29659 31241
L29434 31241
" />
<path d="M29547 31241
L29547 30847
L29509 30903
L29472 30941
L29434 30959
" />
<path d="M53985 31241
L53985 30847
L54134 30847
L54172 30866
L54191 30884
L54209 30922
L54209 30978
L54191 31016
L54172 31034
L54134 31053
L53985 31053
" />
<path d="M54341 30847
L54584 30847
L54453 30997
L54509 30997
L54547 31016
L54566 31034
L54584 31072
L54584 31166
L54566 31203
L54547 31222
L54509 31241
L54397 31241
L54359 31222
L54341 31203
" />
<path d="M49109 31278
L49109 30884
L49259 30884
L49296 30903
L49315 30921
L49334 30959
L49334 31015
L49315 31053
L49296 31071
L49259 31090
L49109 31090
" />
<path d="M49671 31015
L49671 31278
" />
<path d="M49578 30865
L49484 31146
L49728 31146
" />
<path d="M56504 32010
L56485 32029
L56429 32048
L56391 32048
L56335 32029
L56298 31991
L56279 31954
L56260 31879
L56260 31823
L56279 31748
L56298 31710
L56335 31673
L56391 31654
L56429 31654
L56485 31673
L56504 31691
" />
<path d="M56879 32048
L56654 32048
" />
<path d="M56766 32048
L56766 31654
L56729 31710
L56691 31748
L56654 31766
" />
<path d="M22004 32035
L21985 32054
L21929 32073
L21891 32073
L21835 32054
L21798 32016
L21779 31979
L21760 31904
L21760 31848
L21779 31773
L21798 31735
L21835 31698
L21891 31679
L21929 31679
L21985 31698
L22004 31716
" />
<path d="M22154 31716
L22173 31698
L22210 31679
L22304 31679
L22341 31698
L22360 31716
L22379 31754
L22379 31791
L22360 31848
L22135 32073
L22379 32073
" />
<path d="M56366 31091
L56235 31091
" />
<path d="M56235 31298
L56235 30904
L56423 30904
" />
<path d="M56704 31091
L56760 31110
L56779 31129
L56798 31166
L56798 31223
L56779 31260
L56760 31279
L56723 31298
L56573 31298
L56573 30904
L56704 30904
L56741 30923
L56760 30941
L56779 30979
L56779 31016
L56760 31054
L56741 31073
L56704 31091
L56573 31091
" />
<path d="M57173 31298
L56948 31298
" />
<path d="M57060 31298
L57060 30904
L57023 30960
L56985 30998
L56948 31016
" />
<path d="M21691 31116
L21560 31116
" />
<path d="M21560 31323
L21560 30929
L21748 30929
" />
<path d="M22029 31116
L22085 31135
L22104 31154
L22123 31191
L22123 31248
L22104 31285
L22085 31304
L22048 31323
L21898 31323
L21898 30929
L22029 30929
L22066 30948
L22085 30966
L22104 31004
L22104 31041
L22085 31079
L22066 31098
L22029 31116
L21898 31116
" />
<path d="M22273 30966
L22291 30948
L22329 30929
L22423 30929
L22460 30948
L22479 30966
L22498 31004
L22498 31041
L22479 31098
L22254 31323
L22498 31323
" />
<path d="M46122 54140
L45935 54271
" />
<path d="M46122 54365
L45729 54365
L45729 54215
L45748 54177
L45766 54159
L45804 54140
L45860 54140
L45898 54159
L45916 54177
L45935 54215
L45935 54365
" />
<path d="M46122 53765
L46122 53990
" />
<path d="M46122 53877
L45729 53877
L45785 53915
L45823 53952
L45841 53990
" />
<path d="M47514 54823
L47514 55142
L47533 55179
L47552 55198
L47589 55217
L47664 55217
L47702 55198
L47721 55179
L47739 55142
L47739 54823
" />
<path d="M48133 55217
L47908 55217
" />
<path d="M48021 55217
L48021 54823
L47983 54880
L47946 54917
L47908 54936
" />
</g>
<g style="fill:#000000; fill-opacity:0.0; 
stroke:#000000; stroke-width:40; stroke-opacity:1; 
stroke-linecap:round; stroke-linejoin:round;">
<path d="M39183 55110
L39183 55467
L39159 55538
L39112 55586
L39040 55610
L38993 55610
" />
<path d="M39659 55110
L39421 55110
L39398 55348
L39421 55324
L39469 55300
L39588 55300
L39636 55324
L39659 55348
L39683 55395
L39683 55514
L39659 55562
L39636 55586
L39588 55610
L39469 55610
L39421 55586
L39398 55562
" />
<path d="M32170 55808
L32170 56141
" />
<path d="M32051 55617
L31932 55974
L32241 55974
" />
<path d="M32527 55641
L32574 55641
L32622 55665
L32646 55689
L32670 55736
L32693 55832
L32693 55951
L32670 56046
L32646 56093
L32622 56117
L32574 56141
L32527 56141
L32479 56117
L32455 56093
L32432 56046
L32408 55951
L32408 55832
L32432 55736
L32455 55689
L32479 55665
L32527 55641
" />
<path d="M46189 57550
L46523 57550
L46308 58050
" />
<path d="M46737 58050
L46832 58050
L46880 58027
L46904 58003
L46951 57931
L46975 57836
L46975 57646
L46951 57598
L46927 57574
L46880 57550
L46784 57550
L46737 57574
L46713 57598
L46689 57646
L46689 57765
L46713 57812
L46737 57836
L46784 57860
L46880 57860
L46927 57836
L46951 57812
L46975 57765
" />
<path d="M53790 55080
L53790 55437
L53766 55509
L53718 55556
L53647 55580
L53599 55580
" />
<path d="M54242 55080
L54147 55080
L54099 55104
L54075 55128
L54028 55199
L54004 55294
L54004 55485
L54028 55532
L54051 55556
L54099 55580
L54194 55580
L54242 55556
L54266 55532
L54290 55485
L54290 55366
L54266 55318
L54242 55294
L54194 55270
L54099 55270
L54051 55294
L54028 55318
L54004 55366
" />
<path d="M47775 55944
L47727 55920
L47703 55896
L47680 55849
L47680 55825
L47703 55777
L47727 55753
L47775 55730
L47870 55730
L47918 55753
L47941 55777
L47965 55825
L47965 55849
L47941 55896
L47918 55920
L47870 55944
L47775 55944
L47727 55968
L47703 55992
L47680 56039
L47680 56134
L47703 56182
L47727 56206
L47775 56230
L47870 56230
L47918 56206
L47941 56182
L47965 56134
L47965 56039
L47941 55992
L47918 55968
L47870 55944
" />
<path d="M48275 55730
L48322 55730
L48370 55753
L48394 55777
L48418 55825
L48441 55920
L48441 56039
L48418 56134
L48394 56182
L48370 56206
L48322 56230
L48275 56230
L48227 56206
L48203 56182
L48180 56134
L48156 56039
L48156 55920
L48180 55825
L48203 55777
L48227 55753
L48275 55730
" />
<path d="M59578 57972
L59292 57972
" />
<path d="M59435 57972
L59435 57472
L59387 57543
L59339 57591
L59292 57615
" />
<path d="M60054 57972
L59768 57972
" />
<path d="M59911 57972
L59911 57472
L59863 57543
L59816 57591
L59768 57615
" />
<path d="M60292 57972
L60387 57972
L60435 57948
L60459 57924
L60506 57853
L60530 57757
L60530 57567
L60506 57519
L60482 57496
L60435 57472
L60339 57472
L60292 57496
L60268 57519
L60244 57567
L60244 57686
L60268 57734
L60292 57757
L60339 57781
L60435 57781
L60482 57757
L60506 57734
L60530 57686
" />
</g>
<g style="fill:#000000; fill-opacity:0.0; 
stroke:#000000; stroke-width:50; stroke-opacity:1; 
stroke-linecap:round; stroke-linejoin:round;">
<path d="M19535 57161
L19535 56601
" />
<path d="M19255 56881
L19815 56881
" />
<circle cx="19535.1" cy="56881.9" r="197.99" /> 
<path d="M18936 57331
L18936 56431
" />
<path d="M19635 57331
L18936 57331
" />
<path d="M19635 58006
L19635 57331
" />
<path d="M19835 56081
L19835 55756
" />
<path d="M19635 56081
L19835 56081
" />
<path d="M19635 56431
L19635 56081
" />
<path d="M18936 56431
L19635 56431
" />
<path d="M19835 55756
L30185 55756
" />
<path d="M30185 55756
L30185 56431
" />
<path d="M30185 56431
L30884 56431
" />
<path d="M30884 56431
L30884 57331
" />
<path d="M30884 57331
L30185 57331
" />
<path d="M30185 57331
L30185 58006
" />
<path d="M30185 58006
L19635 58006
" />
<circle cx="30285.1" cy="56881.9" r="197.99" /> 
<path d="M30005 56881
L30565 56881
" />
<path d="M30285 57161
L30285 56601
" />
</g>
<g style="fill:#000000; fill-opacity:0.0; 
stroke:#000000; stroke-width:47.2441; stroke-opacity:1; 
stroke-linecap:round; stroke-linejoin:round;">
<path d="M24839 31873
L24839 47920
" />
<path d="M24839 47920
L26934 47920
" />
<path d="M26934 47920
L26934 30825
" />
<path d="M26934 30825
L25887 30825
" />
<path d="M25887 30825
L25887 31873
" />
<path d="M25887 31873
L24839 31873
" />
<path d="M24839 31373
L24839 30825
" />
<path d="M24839 30825
L25387 30825
" />
<path d="M26849 31873
L26849 47920
" />
<path d="M26849 47920
L28944 47920
" />
<path d="M28944 47920
L28944 30825
" />
<path d="M28944 30825
L27897 30825
" />
<path d="M27897 30825
L27897 31873
" />
<path d="M27897 31873
L26849 31873
" />
<path d="M26849 31373
L26849 30825
" />
<path d="M26849 30825
L27397 30825
" />
<path d="M53873 46868
L53873 30820
" />
<path d="M53873 30820
L51778 30820
" />
<path d="M51778 30820
L51778 47915
" />
<path d="M51778 47915
L52826 47915
" />
<path d="M52826 47915
L52826 46868
" />
<path d="M52826 46868
L53873 46868
" />
<path d="M53873 47368
L53873 47915
" />
<path d="M53873 47915
L53326 47915
" />
<path d="M51897 46872
L51897 30824
" />
<path d="M51897 30824
L49802 30824
" />
<path d="M49802 30824
L49802 47919
" />
<path d="M49802 47919
L50850 47919
" />
<path d="M50850 47919
L50850 46872
" />
<path d="M50850 46872
L51897 46872
" />
<path d="M51897 47372
L51897 47919
" />
<path d="M51897 47919
L51350 47919
" />
<path d="M55708 31555
L55314 31555
" />
<path d="M55314 32224
L55708 32224
" />
<path d="M23031 32224
L23425 32224
" />
<path d="M23425 31555
L23031 31555
" />
<path d="M55748 31448
L55275 31448
" />
<path d="M55275 30755
L55748 30755
" />
<path d="M22992 30755
L23464 30755
" />
<path d="M23464 31448
L22992 31448
" />
<path d="M46940 53838
L46940 54311
" />
<path d="M46248 54311
L46248 53838
" />
<path d="M48161 53460
L47468 53460
" />
<path d="M47468 54669
L48425 54669
" />
</g>
<g style="fill:#000000; fill-opacity:1.0; 
stroke:#000000; stroke-width:3.93701; stroke-opacity:1; 
stroke-linecap:round; stroke-linejoin:round;">
<polyline style="fill-rule:evenodd;"
points="30880,51721
30881,51722
30897,51740
30903,51745
30909,51751
30896,51754
30895,51754
30877,51748
30872,51731
30874,51717
30880,51721
" /> 
<polyline style="fill-rule:evenodd;"
points="38822,51729
38822,51731
38817,51749
38800,51754
38785,51752
38790,51745
38791,51745
38809,51728
38813,51722
38820,51717
38822,51729
" /> 
<polyline style="fill-rule:evenodd;"
points="31440,50326
31527,50414
31567,50374
31596,50350
31625,50332
31639,50328
31657,50326
31674,50331
31695,50345
31722,50369
31773,50417
31860,50330
31948,50244
32056,50354
31882,50529
31909,50556
31937,50584
32112,50409
32222,50518
32047,50694
32075,50721
32102,50748
32278,50574
32330,50626
32355,50653
32374,50675
32382,50688
32382,50689
32375,50699
32357,50721
32330,50750
32300,50781
32218,50864
32260,50907
32286,50936
32299,50960
32302,50984
32298,51009
32285,51033
32260,51061
32218,51104
32300,51187
32332,51220
32359,51248
32376,51269
32382,51279
32375,51290
32358,51311
32333,51337
32330,51341
32278,51394
32102,51219
32075,51246
32047,51274
32222,51449
32112,51558
31937,51384
31909,51411
31882,51438
32056,51614
31948,51724
31860,51637
31773,51550
31722,51598
31693,51623
31673,51637
31656,51641
31639,51640
31614,51629
31584,51609
31567,51594
31526,51554
31442,51639
31409,51672
31381,51699
31361,51717
31352,51724
31352,51724
31343,51717
31323,51700
31298,51675
31292,51669
31238,51614
31412,51438
31385,51411
31357,51384
31182,51558
31072,51449
31247,51274
31219,51246
31192,51219
31016,51394
30908,51284
31081,51109
31037,51062
31006,51024
30992,50992
30993,50984
31252,50984
31255,50995
31265,51011
31284,51035
31312,51066
31351,51107
31403,51160
31440,51197
31499,51254
31549,51302
31591,51341
31623,51368
31642,51382
31648,51384
31661,51377
31686,51356
31722,51324
31769,51280
31823,51227
31854,51196
31915,51136
31962,51087
31996,51050
32021,51022
32035,51002
32042,50988
32042,50984
32039,50972
32027,50955
32007,50930
31977,50896
31934,50852
31880,50796
31855,50771
31795,50712
31744,50663
31702,50625
31671,50599
31652,50585
31648,50584
31635,50591
31609,50611
31572,50644
31525,50688
31469,50742
31440,50771
31380,50831
31334,50878
31299,50915
31275,50943
31260,50964
31253,50978
31252,50984
30993,50984
30996,50961
31018,50927
31037,50906
31081,50859
30994,50771
30908,50684
31016,50574
31192,50748
31219,50721
31247,50694
31072,50518
31182,50409
31357,50584
31385,50556
31412,50529
31237,50354
31295,50296
31352,50239
31440,50326
" /> 
<polyline style="fill-rule:evenodd;"
points="33041,50574
33122,50574
33186,50575
33236,50576
33272,50577
33300,50580
33320,50583
33336,50588
33348,50593
33393,50624
33425,50667
33439,50714
33445,50754
33391,50754
33359,50753
33341,50749
33331,50738
33325,50724
33314,50694
33049,50694
32967,50694
32904,50694
32855,50695
32820,50697
32796,50699
32780,50703
32771,50707
32768,50709
32758,50730
32752,50764
32751,50804
32754,50843
32761,50876
32770,50892
32775,50899
32783,50904
32795,50907
32814,50910
32841,50912
32880,50913
32932,50915
33000,50915
33063,50916
33339,50919
33375,50947
33403,50970
33421,50994
33433,51024
33439,51063
33442,51116
33442,51142
33440,51202
33435,51247
33423,51280
33404,51308
33375,51333
33369,51338
33360,51344
33349,51349
33335,51352
33314,51355
33285,51357
33245,51359
33192,51360
33123,51360
33054,51361
32965,51362
32895,51362
32840,51361
32798,51359
32768,51357
32748,51353
32736,51350
32700,51324
32669,51286
32649,51242
32645,51224
32639,51184
32696,51184
32729,51185
32747,51190
32752,51198
32752,51199
32759,51216
32772,51234
32779,51240
32788,51245
32802,51248
32823,51251
32854,51252
32896,51253
32954,51254
33028,51254
33042,51254
33126,51254
33192,51253
33242,51251
33278,51247
33303,51240
33319,51228
33328,51212
33331,51190
33332,51162
33332,51139
33332,51106
33331,51081
33326,51061
33316,51047
33299,51036
33272,51030
33233,51026
33181,51024
33113,51024
33027,51024
33023,51024
32943,51024
32880,51023
32832,51023
32797,51021
32772,51019
32754,51016
32740,51012
32730,51006
32722,51001
32692,50978
32671,50956
32657,50928
32649,50892
32645,50842
32644,50811
32643,50760
32644,50725
32647,50700
32653,50681
32663,50662
32664,50660
32695,50622
32731,50597
32745,50590
32759,50585
32775,50581
32796,50578
32825,50576
32864,50575
32917,50574
32984,50574
33041,50574
" /> 
<polyline style="fill-rule:evenodd;"
points="34350,50631
34347,50689
34018,50691
33912,50693
33827,50694
33760,50696
33713,50699
33685,50702
33675,50705
33671,50713
33668,50729
33665,50756
33664,50796
33663,50851
33662,50923
33662,50969
33662,51047
33662,51107
33663,51152
33664,51184
33666,51206
33670,51220
33674,51229
33680,51235
33684,51238
33693,51243
33706,51246
33727,51249
33756,51251
33797,51252
33851,51253
33920,51254
34006,51254
34029,51254
34352,51254
34352,51364
34015,51363
33924,51363
33844,51362
33774,51360
33719,51358
33678,51356
33655,51353
33652,51353
33626,51338
33604,51321
33589,51306
33578,51292
33569,51276
33562,51255
33558,51226
33555,51188
33553,51138
33552,51074
33552,50993
33552,50966
33552,50884
33552,50819
33553,50770
33554,50733
33556,50706
33559,50687
33563,50674
33568,50663
33575,50653
33598,50627
33629,50603
33642,50596
33654,50590
33667,50585
33682,50581
33702,50579
33728,50577
33764,50575
33811,50574
33872,50574
33949,50574
34020,50574
34353,50574
34350,50631
" /> 
<polyline style="fill-rule:evenodd;"
points="34602,51364
34492,51364
34492,50574
34602,50574
34602,51364
" /> 
<polyline style="fill-rule:evenodd;"
points="35592,50574
35869,50574
35951,50574
36016,50574
36066,50575
36103,50576
36131,50579
36152,50582
36168,50586
36182,50591
36189,50595
36234,50627
36258,50659
36283,50702
36280,50981
36277,51260
36250,51296
36236,51313
36223,51327
36208,51338
36188,51347
36163,51354
36130,51358
36086,51361
36029,51363
35958,51363
35871,51364
35818,51364
35482,51364
35482,50978
35592,50978
35592,51054
35592,51112
35593,51156
35594,51187
35597,51208
35600,51222
35605,51230
35611,51236
35614,51238
35624,51243
35639,51247
35662,51250
35696,51252
35742,51253
35803,51254
35881,51254
35884,51254
35961,51254
36021,51253
36065,51252
36097,51251
36119,51249
36134,51245
36144,51241
36151,51235
36152,51234
36158,51226
36163,51217
36167,51203
36169,51182
36171,51150
36172,51107
36172,51049
36172,50973
36172,50972
36172,50895
36171,50835
36170,50791
36168,50759
36166,50737
36162,50723
36157,50714
36155,50712
36149,50706
36140,50702
36125,50699
36102,50697
36070,50695
36024,50694
35964,50694
35887,50694
35876,50694
35796,50694
35735,50694
35688,50695
35655,50696
35632,50698
35617,50701
35609,50705
35604,50710
35602,50713
35599,50730
35596,50764
35594,50815
35593,50880
35592,50958
35592,50978
35482,50978
35482,50314
35592,50314
35592,50574
" /> 
<polyline style="fill-rule:evenodd;"
points="36862,50574
36924,50574
36973,50575
37009,50577
37035,50579
37055,50582
37071,50587
37085,50593
37089,50595
37121,50615
37148,50639
37154,50647
37161,50657
37166,50667
37170,50680
37173,50698
37175,50725
37176,50761
37177,50809
37177,50873
37177,50953
37177,50971
37177,51055
37177,51121
37176,51173
37175,51211
37173,51239
37170,51258
37167,51272
37162,51282
37156,51290
37133,51317
37108,51338
37099,51344
37089,51349
37074,51353
37053,51355
37024,51357
36983,51359
36929,51360
36859,51361
36794,51361
36705,51362
36633,51361
36578,51361
36536,51359
36507,51357
36487,51353
36477,51350
36440,51326
36409,51291
36390,51252
36387,51241
36385,51222
36384,51187
36384,51138
36383,51077
36383,51009
36384,50973
36492,50973
36492,51049
36492,51107
36493,51151
36495,51182
36497,51203
36501,51217
36506,51227
36512,51234
36519,51240
36528,51245
36542,51248
36563,51251
36594,51252
36636,51253
36694,51254
36768,51254
36782,51254
36859,51254
36919,51253
36964,51252
36996,51251
37019,51249
37034,51245
37044,51241
37051,51235
37052,51234
37058,51226
37063,51217
37067,51203
37069,51182
37071,51150
37072,51107
37072,51049
37072,50973
37072,50972
37072,50895
37071,50835
37070,50791
37068,50759
37066,50737
37062,50723
37057,50714
37055,50712
37049,50706
37040,50702
37025,50699
37002,50697
36970,50695
36924,50694
36864,50694
36787,50694
36776,50694
36696,50694
36635,50694
36588,50695
36555,50696
36532,50698
36517,50701
36509,50705
36504,50710
36502,50713
36499,50730
36496,50764
36494,50815
36493,50880
36492,50957
36492,50973
36384,50973
36384,50944
36385,50864
36386,50802
36387,50755
36389,50720
36391,50695
36395,50677
36399,50664
36405,50654
36411,50645
36426,50625
36443,50610
36462,50597
36487,50588
36520,50582
36564,50578
36621,50575
36692,50574
36781,50574
36862,50574
" /> 
<polyline style="fill-rule:evenodd;"
points="37402,50574
37573,50574
37743,50574
37740,50631
37737,50689
37402,50694
37402,50958
37402,51038
37402,51100
37403,51146
37404,51180
37406,51203
37409,51218
37413,51228
37419,51234
37424,51238
37437,51245
37458,51249
37489,51252
37534,51253
37594,51254
37742,51254
37742,51364
37580,51363
37523,51362
37471,51360
37429,51358
37401,51355
37392,51353
37366,51338
37344,51321
37332,51310
37322,51299
37314,51287
37308,51271
37303,51251
37299,51224
37296,51188
37294,51142
37293,51084
37292,51011
37292,50923
37292,50817
37292,50779
37292,50314
37402,50314
37402,50574
" /> 
<polyline style="fill-rule:evenodd;"
points="38324,50574
38396,50575
38456,50577
38499,50580
38524,50583
38529,50584
38569,50608
38604,50643
38629,50684
38642,50725
38642,50733
38640,50745
38631,50751
38609,50753
38582,50754
38548,50753
38530,50749
38523,50742
38522,50736
38521,50724
38517,50714
38507,50707
38490,50701
38463,50698
38424,50696
38372,50694
38303,50694
38237,50694
38150,50694
38081,50695
38030,50697
37994,50699
37972,50702
37964,50706
37957,50723
37953,50755
37951,50793
37953,50833
37957,50869
37964,50893
37968,50898
37975,50903
37987,50907
38007,50909
38036,50911
38077,50913
38132,50913
38204,50914
38249,50914
38329,50914
38391,50914
38439,50915
38474,50916
38500,50918
38519,50921
38533,50926
38546,50932
38558,50939
38594,50966
38620,51002
38635,51049
38641,51109
38642,51139
38638,51208
38626,51261
38605,51301
38574,51333
38571,51335
38561,51342
38550,51347
38537,51351
38519,51355
38494,51357
38459,51358
38411,51360
38349,51361
38271,51361
38247,51362
38163,51362
38097,51363
38046,51363
38008,51362
37980,51361
37960,51358
37946,51355
37935,51350
37925,51344
37922,51341
37883,51308
37856,51268
37843,51227
37842,51217
37842,51184
37897,51184
37929,51185
37945,51188
37951,51197
37952,51203
37960,51223
37974,51238
37992,51244
38026,51248
38073,51252
38129,51254
38191,51255
38255,51256
38319,51255
38379,51253
38431,51250
38472,51247
38498,51242
38506,51238
38515,51224
38520,51198
38522,51158
38522,51139
38522,51106
38521,51080
38517,51061
38507,51046
38489,51036
38463,51029
38424,51026
38372,51024
38304,51024
38219,51024
38132,51024
38063,51023
38009,51021
37968,51017
37938,51011
37915,51003
37897,50992
37882,50977
37869,50960
37860,50944
37853,50926
37849,50901
37846,50865
37844,50814
37844,50809
37843,50757
37843,50721
37845,50696
37850,50678
37858,50662
37864,50654
37888,50627
37920,50603
37932,50596
37946,50589
37960,50584
37977,50580
38000,50577
38031,50576
38072,50574
38127,50574
38197,50574
38238,50574
38324,50574
" /> 
<polyline style="fill-rule:evenodd;"
points="35312,51024
35054,51024
34984,51024
34920,51023
34867,51022
34825,51020
34798,51019
34789,51017
34785,51004
34783,50978
34782,50957
34782,50904
35312,50904
35312,51024
" /> 
<polyline style="fill-rule:evenodd;"
points="34602,50434
34492,50434
34492,50314
34602,50314
34602,50434
" /> 
<polyline style="fill-rule:evenodd;"
points="30909,50226
30904,50232
30903,50233
30885,50249
30881,50255
30874,50261
30872,50248
30872,50246
30877,50228
30895,50224
30909,50226
" /> 
<polyline style="fill-rule:evenodd;"
points="38819,50231
38822,50244
38821,50259
38816,50260
38803,50246
38800,50243
38788,50229
38791,50224
38802,50224
38819,50231
" /> 
</g>
<g style="fill:#000000; fill-opacity:1.0; 
stroke:#000000; stroke-width:50; stroke-opacity:1; 
stroke-linecap:round; stroke-linejoin:round;">
</g>
<g style="fill:#000000; fill-opacity:0.0; 
stroke:#000000; stroke-width:50; stroke-opacity:1; 
stroke-linecap:round; stroke-linejoin:round;">
<path d="M32745 57161
L32745 56601
" />
<path d="M32465 56881
L33025 56881
" />
<circle cx="32745.1" cy="56881.9" r="197.99" /> 
<path d="M32146 57331
L32146 56431
" />
<path d="M32845 57331
L32146 57331
" />
<path d="M32845 58006
L32845 57331
" />
<path d="M33045 56081
L33045 55756
" />
<path d="M32845 56081
L33045 56081
" />
<path d="M32845 56431
L32845 56081
" />
<path d="M32146 56431
L32845 56431
" />
<path d="M33045 55756
L45895 55756
" />
<path d="M45895 55756
L45895 56431
" />
<path d="M45895 56431
L46594 56431
" />
<path d="M46594 56431
L46594 57331
" />
<path d="M46594 57331
L45895 57331
" />
<path d="M45895 57331
L45895 58006
" />
<path d="M45895 58006
L32845 58006
" />
<circle cx="45995.1" cy="56881.9" r="197.99" /> 
<path d="M45715 56881
L46275 56881
" />
<path d="M45995 57161
L45995 56601
" />
<path d="M48455 57161
L48455 56601
" />
<path d="M48175 56881
L48735 56881
" />
<circle cx="48455.1" cy="56881.9" r="197.99" /> 
<path d="M47856 57331
L47856 56431
" />
<path d="M48555 57331
L47856 57331
" />
<path d="M48555 58006
L48555 57331
" />
<path d="M48755 56081
L48755 55756
" />
<path d="M48555 56081
L48755 56081
" />
<path d="M48555 56431
L48555 56081
" />
<path d="M47856 56431
L48555 56431
" />
<path d="M48755 55756
L59105 55756
" />
<path d="M59105 55756
L59105 56431
" />
<path d="M59105 56431
L59804 56431
" />
<path d="M59804 56431
L59804 57331
" />
<path d="M59804 57331
L59105 57331
" />
<path d="M59105 57331
L59105 58006
" />
<path d="M59105 58006
L48555 58006
" />
<circle cx="59205.1" cy="56881.9" r="197.99" /> 
<path d="M58925 56881
L59485 56881
" />
<path d="M59205 57161
L59205 56601
" />
</g>
<g style="fill:#000000; fill-opacity:1.0; 
stroke:#000000; stroke-width:0; stroke-opacity:1; 
stroke-linecap:round; stroke-linejoin:round;">
<circle cx="19535.1" cy="56881.9" r="344.488" /> 
</g>
<g style="fill:#000000; fill-opacity:1.0; 
stroke:#000000; stroke-width:39.3701; stroke-opacity:1; 
stroke-linecap:round; stroke-linejoin:round;">
</g>
<g style="fill:#000000; fill-opacity:1.0; 
stroke:#000000; stroke-width:0; stroke-opacity:1; 
stroke-linecap:round; stroke-linejoin:round;">
<circle cx="30285.1" cy="56881.9" r="344.488" /> 
</g>
<g style="fill:#000000; fill-opacity:1.0; 
stroke:#000000; stroke-width:39.3701; stroke-opacity:1; 
stroke-linecap:round; stroke-linejoin:round;">
</g>
<g style="fill:#000000; fill-opacity:1.0; 
stroke:#000000; stroke-width:0; stroke-opacity:1; 
stroke-linecap:round; stroke-linejoin:round;">
<circle cx="32745.1" cy="56881.9" r="344.488" /> 
</g>
<g style="fill:#000000; fill-opacity:1.0; 
stroke:#000000; stroke-width:39.3701; stroke-opacity:1; 
stroke-linecap:round; stroke-linejoin:round;">
</g>
<g style="fill:#000000; fill-opacity:1.0; 
stroke:#000000; stroke-width:0; stroke-opacity:1; 
stroke-linecap:round; stroke-linejoin:round;">
<circle cx="45995.1" cy="56881.9" r="344.488" /> 
</g>
<g style="fill:#000000; fill-opacity:1.0; 
stroke:#000000; stroke-width:39.3701; stroke-opacity:1; 
stroke-linecap:round; stroke-linejoin:round;">
</g>
<g style="fill:#000000; fill-opacity:1.0; 
stroke:#000000; stroke-width:0; stroke-opacity:1; 
stroke-linecap:round; stroke-linejoin:round;">
<circle cx="48455.1" cy="56881.9" r="344.488" /> 
</g>
<g style="fill:#000000; fill-opacity:1.0; 
stroke:#000000; stroke-width:39.3701; stroke-opacity:1; 
stroke-linecap:round; stroke-linejoin:round;">
</g>
<g style="fill:#000000; fill-opacity:1.0; 
stroke:#000000; stroke-width:0; stroke-opacity:1; 
stroke-linecap:round; stroke-linejoin:round;">
<circle cx="59205.1" cy="56881.9" r="344.488" /> 
</g>
<g style="fill:#000000; fill-opacity:1.0; 
stroke:#000000; stroke-width:39.3701; stroke-opacity:1; 
stroke-linecap:round; stroke-linejoin:round;">
</g> 
</svg>
