<?xml version="1.0" standalone="no"?>
 <!DOCTYPE svg PUBLIC "-//W3C//DTD SVG 1.1//EN" 
 "http://www.w3.org/Graphics/SVG/1.1/DTD/svg11.dtd"> 
<svg xmlns="http://www.w3.org/2000/svg" version="1.1" 
    width="27.94cm" height="21.59cm" viewBox="0 0 110000 85000 ">
<title>SVG Picture created as 120-channel pogo pin board-F.SilkS.svg date 2018/03/15 15:44:43 </title>
  <desc>Picture generated by PCBNEW </desc>
<g style="fill:#000000; fill-opacity:1;stroke:#000000; stroke-opacity:1;
stroke-linecap:round; stroke-linejoin:round; "
 transform="translate(0 0) scale(1 1)">
</g>
<g style="fill:#000000; fill-opacity:0.0; 
stroke:#000000; stroke-width:-0.000393701; stroke-opacity:1; 
stroke-linecap:round; stroke-linejoin:round;">
</g>
<g style="fill:#000000; fill-opacity:0.0; 
stroke:#000000; stroke-width:39.3701; stroke-opacity:1; 
stroke-linecap:round; stroke-linejoin:round;">
</g>
<g style="fill:#000000; fill-opacity:0.0; 
stroke:#000000; stroke-width:59.0551; stroke-opacity:1; 
stroke-linecap:round; stroke-linejoin:round;">
<rect x="62755.9" y="67677.2" width="42519.7" height="12598.4" rx="0" />
</g>
<g style="fill:#000000; fill-opacity:0.0; 
stroke:#000000; stroke-width:39.3701; stroke-opacity:1; 
stroke-linecap:round; stroke-linejoin:round;">
</g>
<g style="fill:#000000; fill-opacity:0.0; 
stroke:#000000; stroke-width:59.0551; stroke-opacity:1; 
stroke-linecap:round; stroke-linejoin:round;">
<rect x="3937.01" y="3937.01" width="102126" height="77126" rx="0" />
</g>
<g style="fill:#000000; fill-opacity:0.0; 
stroke:#000000; stroke-width:39.3701; stroke-opacity:1; 
stroke-linecap:round; stroke-linejoin:round;">
</g>
<g style="fill:#000000; fill-opacity:0.0; 
stroke:#000000; stroke-width:59.0551; stroke-opacity:1; 
stroke-linecap:round; stroke-linejoin:round;">
<rect x="4724.41" y="4724.41" width="100551" height="75551.2" rx="0" />
</g>
<g style="fill:#000000; fill-opacity:0.0; 
stroke:#000000; stroke-width:39.3701; stroke-opacity:1; 
stroke-linecap:round; stroke-linejoin:round;">
</g>
<g style="fill:#000000; fill-opacity:0.0; 
stroke:#000000; stroke-width:59.0551; stroke-opacity:1; 
stroke-linecap:round; stroke-linejoin:round;">
<path d="M23622 4724
L23622 3937
" />
</g>
<g style="fill:#000000; fill-opacity:0.0; 
stroke:#000000; stroke-width:39.3701; stroke-opacity:1; 
stroke-linecap:round; stroke-linejoin:round;">
</g>
<g style="fill:#000000; fill-opacity:0.0; 
stroke:#000000; stroke-width:59.0551; stroke-opacity:1; 
stroke-linecap:round; stroke-linejoin:round;">
<path d="M43307 4724
L43307 3937
" />
</g>
<g style="fill:#000000; fill-opacity:0.0; 
stroke:#000000; stroke-width:39.3701; stroke-opacity:1; 
stroke-linecap:round; stroke-linejoin:round;">
</g>
<g style="fill:#000000; fill-opacity:0.0; 
stroke:#000000; stroke-width:59.0551; stroke-opacity:1; 
stroke-linecap:round; stroke-linejoin:round;">
<path d="M62992 4724
L62992 3937
" />
</g>
<g style="fill:#000000; fill-opacity:0.0; 
stroke:#000000; stroke-width:39.3701; stroke-opacity:1; 
stroke-linecap:round; stroke-linejoin:round;">
</g>
<g style="fill:#000000; fill-opacity:0.0; 
stroke:#000000; stroke-width:59.0551; stroke-opacity:1; 
stroke-linecap:round; stroke-linejoin:round;">
<path d="M82677 4724
L82677 3937
" />
</g>
<g style="fill:#000000; fill-opacity:0.0; 
stroke:#000000; stroke-width:39.3701; stroke-opacity:1; 
stroke-linecap:round; stroke-linejoin:round;">
</g>
<g style="fill:#000000; fill-opacity:0.0; 
stroke:#000000; stroke-width:59.0551; stroke-opacity:1; 
stroke-linecap:round; stroke-linejoin:round;">
<path d="M102362 4724
L102362 3937
" />
</g>
<g style="fill:#000000; fill-opacity:0.0; 
stroke:#000000; stroke-width:39.3701; stroke-opacity:1; 
stroke-linecap:round; stroke-linejoin:round;">
</g>
<g style="fill:#000000; fill-opacity:0.0; 
stroke:#000000; stroke-width:59.0551; stroke-opacity:1; 
stroke-linecap:round; stroke-linejoin:round;">
<path d="M14169 4562
L13877 4562
" />
<path d="M14023 4562
L14023 4050
L13974 4123
L13925 4172
L13877 4196
" />
</g>
<g style="fill:#000000; fill-opacity:0.0; 
stroke:#000000; stroke-width:39.3701; stroke-opacity:1; 
stroke-linecap:round; stroke-linejoin:round;">
</g>
<g style="fill:#000000; fill-opacity:0.0; 
stroke:#000000; stroke-width:59.0551; stroke-opacity:1; 
stroke-linecap:round; stroke-linejoin:round;">
<path d="M33562 4099
L33586 4074
L33635 4050
L33757 4050
L33805 4074
L33830 4099
L33854 4147
L33854 4196
L33830 4269
L33537 4562
L33854 4562
" />
</g>
<g style="fill:#000000; fill-opacity:0.0; 
stroke:#000000; stroke-width:39.3701; stroke-opacity:1; 
stroke-linecap:round; stroke-linejoin:round;">
</g>
<g style="fill:#000000; fill-opacity:0.0; 
stroke:#000000; stroke-width:59.0551; stroke-opacity:1; 
stroke-linecap:round; stroke-linejoin:round;">
<path d="M53222 4050
L53539 4050
L53368 4245
L53442 4245
L53490 4269
L53515 4294
L53539 4342
L53539 4464
L53515 4513
L53490 4537
L53442 4562
L53295 4562
L53247 4537
L53222 4513
" />
</g>
<g style="fill:#000000; fill-opacity:0.0; 
stroke:#000000; stroke-width:39.3701; stroke-opacity:1; 
stroke-linecap:round; stroke-linejoin:round;">
</g>
<g style="fill:#000000; fill-opacity:0.0; 
stroke:#000000; stroke-width:59.0551; stroke-opacity:1; 
stroke-linecap:round; stroke-linejoin:round;">
<path d="M73175 4221
L73175 4562
" />
<path d="M73053 4026
L72932 4391
L73248 4391
" />
</g>
<g style="fill:#000000; fill-opacity:0.0; 
stroke:#000000; stroke-width:39.3701; stroke-opacity:1; 
stroke-linecap:round; stroke-linejoin:round;">
</g>
<g style="fill:#000000; fill-opacity:0.0; 
stroke:#000000; stroke-width:59.0551; stroke-opacity:1; 
stroke-linecap:round; stroke-linejoin:round;">
<path d="M92885 4050
L92641 4050
L92617 4294
L92641 4269
L92690 4245
L92812 4245
L92860 4269
L92885 4294
L92909 4342
L92909 4464
L92885 4513
L92860 4537
L92812 4562
L92690 4562
L92641 4537
L92617 4513
" />
</g>
<g style="fill:#000000; fill-opacity:0.0; 
stroke:#000000; stroke-width:39.3701; stroke-opacity:1; 
stroke-linecap:round; stroke-linejoin:round;">
</g>
<g style="fill:#000000; fill-opacity:0.0; 
stroke:#000000; stroke-width:59.0551; stroke-opacity:1; 
stroke-linecap:round; stroke-linejoin:round;">
<path d="M23622 80275
L23622 81062
" />
</g>
<g style="fill:#000000; fill-opacity:0.0; 
stroke:#000000; stroke-width:39.3701; stroke-opacity:1; 
stroke-linecap:round; stroke-linejoin:round;">
</g>
<g style="fill:#000000; fill-opacity:0.0; 
stroke:#000000; stroke-width:59.0551; stroke-opacity:1; 
stroke-linecap:round; stroke-linejoin:round;">
<path d="M43307 80275
L43307 81062
" />
</g>
<g style="fill:#000000; fill-opacity:0.0; 
stroke:#000000; stroke-width:39.3701; stroke-opacity:1; 
stroke-linecap:round; stroke-linejoin:round;">
</g>
<g style="fill:#000000; fill-opacity:0.0; 
stroke:#000000; stroke-width:59.0551; stroke-opacity:1; 
stroke-linecap:round; stroke-linejoin:round;">
<path d="M62992 80275
L62992 81062
" />
</g>
<g style="fill:#000000; fill-opacity:0.0; 
stroke:#000000; stroke-width:39.3701; stroke-opacity:1; 
stroke-linecap:round; stroke-linejoin:round;">
</g>
<g style="fill:#000000; fill-opacity:0.0; 
stroke:#000000; stroke-width:59.0551; stroke-opacity:1; 
stroke-linecap:round; stroke-linejoin:round;">
<path d="M82677 80275
L82677 81062
" />
</g>
<g style="fill:#000000; fill-opacity:0.0; 
stroke:#000000; stroke-width:39.3701; stroke-opacity:1; 
stroke-linecap:round; stroke-linejoin:round;">
</g>
<g style="fill:#000000; fill-opacity:0.0; 
stroke:#000000; stroke-width:59.0551; stroke-opacity:1; 
stroke-linecap:round; stroke-linejoin:round;">
<path d="M102362 80275
L102362 81062
" />
</g>
<g style="fill:#000000; fill-opacity:0.0; 
stroke:#000000; stroke-width:39.3701; stroke-opacity:1; 
stroke-linecap:round; stroke-linejoin:round;">
</g>
<g style="fill:#000000; fill-opacity:0.0; 
stroke:#000000; stroke-width:59.0551; stroke-opacity:1; 
stroke-linecap:round; stroke-linejoin:round;">
<path d="M14169 80900
L13877 80900
" />
<path d="M14023 80900
L14023 80389
L13974 80462
L13925 80510
L13877 80535
" />
</g>
<g style="fill:#000000; fill-opacity:0.0; 
stroke:#000000; stroke-width:39.3701; stroke-opacity:1; 
stroke-linecap:round; stroke-linejoin:round;">
</g>
<g style="fill:#000000; fill-opacity:0.0; 
stroke:#000000; stroke-width:59.0551; stroke-opacity:1; 
stroke-linecap:round; stroke-linejoin:round;">
<path d="M33562 80437
L33586 80413
L33635 80389
L33757 80389
L33805 80413
L33830 80437
L33854 80486
L33854 80535
L33830 80608
L33537 80900
L33854 80900
" />
</g>
<g style="fill:#000000; fill-opacity:0.0; 
stroke:#000000; stroke-width:39.3701; stroke-opacity:1; 
stroke-linecap:round; stroke-linejoin:round;">
</g>
<g style="fill:#000000; fill-opacity:0.0; 
stroke:#000000; stroke-width:59.0551; stroke-opacity:1; 
stroke-linecap:round; stroke-linejoin:round;">
<path d="M53222 80389
L53539 80389
L53368 80583
L53442 80583
L53490 80608
L53515 80632
L53539 80681
L53539 80803
L53515 80852
L53490 80876
L53442 80900
L53295 80900
L53247 80876
L53222 80852
" />
</g>
<g style="fill:#000000; fill-opacity:0.0; 
stroke:#000000; stroke-width:39.3701; stroke-opacity:1; 
stroke-linecap:round; stroke-linejoin:round;">
</g>
<g style="fill:#000000; fill-opacity:0.0; 
stroke:#000000; stroke-width:59.0551; stroke-opacity:1; 
stroke-linecap:round; stroke-linejoin:round;">
<path d="M73175 80559
L73175 80900
" />
<path d="M73053 80364
L72932 80730
L73248 80730
" />
</g>
<g style="fill:#000000; fill-opacity:0.0; 
stroke:#000000; stroke-width:39.3701; stroke-opacity:1; 
stroke-linecap:round; stroke-linejoin:round;">
</g>
<g style="fill:#000000; fill-opacity:0.0; 
stroke:#000000; stroke-width:59.0551; stroke-opacity:1; 
stroke-linecap:round; stroke-linejoin:round;">
<path d="M92885 80389
L92641 80389
L92617 80632
L92641 80608
L92690 80583
L92812 80583
L92860 80608
L92885 80632
L92909 80681
L92909 80803
L92885 80852
L92860 80876
L92812 80900
L92690 80900
L92641 80876
L92617 80852
" />
</g>
<g style="fill:#000000; fill-opacity:0.0; 
stroke:#000000; stroke-width:39.3701; stroke-opacity:1; 
stroke-linecap:round; stroke-linejoin:round;">
</g>
<g style="fill:#000000; fill-opacity:0.0; 
stroke:#000000; stroke-width:59.0551; stroke-opacity:1; 
stroke-linecap:round; stroke-linejoin:round;">
<path d="M3937 23622
L4724 23622
" />
</g>
<g style="fill:#000000; fill-opacity:0.0; 
stroke:#000000; stroke-width:39.3701; stroke-opacity:1; 
stroke-linecap:round; stroke-linejoin:round;">
</g>
<g style="fill:#000000; fill-opacity:0.0; 
stroke:#000000; stroke-width:59.0551; stroke-opacity:1; 
stroke-linecap:round; stroke-linejoin:round;">
<path d="M3937 43307
L4724 43307
" />
</g>
<g style="fill:#000000; fill-opacity:0.0; 
stroke:#000000; stroke-width:39.3701; stroke-opacity:1; 
stroke-linecap:round; stroke-linejoin:round;">
</g>
<g style="fill:#000000; fill-opacity:0.0; 
stroke:#000000; stroke-width:59.0551; stroke-opacity:1; 
stroke-linecap:round; stroke-linejoin:round;">
<path d="M3937 62992
L4724 62992
" />
</g>
<g style="fill:#000000; fill-opacity:0.0; 
stroke:#000000; stroke-width:39.3701; stroke-opacity:1; 
stroke-linecap:round; stroke-linejoin:round;">
</g>
<g style="fill:#000000; fill-opacity:0.0; 
stroke:#000000; stroke-width:59.0551; stroke-opacity:1; 
stroke-linecap:round; stroke-linejoin:round;">
<path d="M4208 13864
L4452 13864
" />
<path d="M4160 14011
L4330 13499
L4501 14011
" />
</g>
<g style="fill:#000000; fill-opacity:0.0; 
stroke:#000000; stroke-width:39.3701; stroke-opacity:1; 
stroke-linecap:round; stroke-linejoin:round;">
</g>
<g style="fill:#000000; fill-opacity:0.0; 
stroke:#000000; stroke-width:59.0551; stroke-opacity:1; 
stroke-linecap:round; stroke-linejoin:round;">
<path d="M4367 33428
L4440 33452
L4464 33476
L4489 33525
L4489 33598
L4464 33647
L4440 33671
L4391 33696
L4196 33696
L4196 33184
L4367 33184
L4416 33208
L4440 33233
L4464 33281
L4464 33330
L4440 33379
L4416 33403
L4367 33428
L4196 33428
" />
</g>
<g style="fill:#000000; fill-opacity:0.0; 
stroke:#000000; stroke-width:39.3701; stroke-opacity:1; 
stroke-linecap:round; stroke-linejoin:round;">
</g>
<g style="fill:#000000; fill-opacity:0.0; 
stroke:#000000; stroke-width:59.0551; stroke-opacity:1; 
stroke-linecap:round; stroke-linejoin:round;">
<path d="M4489 53332
L4464 53356
L4391 53381
L4342 53381
L4269 53356
L4221 53308
L4196 53259
L4172 53161
L4172 53088
L4196 52991
L4221 52942
L4269 52893
L4342 52869
L4391 52869
L4464 52893
L4489 52918
" />
</g>
<g style="fill:#000000; fill-opacity:0.0; 
stroke:#000000; stroke-width:39.3701; stroke-opacity:1; 
stroke-linecap:round; stroke-linejoin:round;">
</g>
<g style="fill:#000000; fill-opacity:0.0; 
stroke:#000000; stroke-width:59.0551; stroke-opacity:1; 
stroke-linecap:round; stroke-linejoin:round;">
<path d="M4196 73066
L4196 72554
L4318 72554
L4391 72578
L4440 72627
L4464 72676
L4489 72773
L4489 72846
L4464 72944
L4440 72993
L4391 73041
L4318 73066
L4196 73066
" />
</g>
<g style="fill:#000000; fill-opacity:0.0; 
stroke:#000000; stroke-width:39.3701; stroke-opacity:1; 
stroke-linecap:round; stroke-linejoin:round;">
</g>
<g style="fill:#000000; fill-opacity:0.0; 
stroke:#000000; stroke-width:59.0551; stroke-opacity:1; 
stroke-linecap:round; stroke-linejoin:round;">
<path d="M106062 23622
L105275 23622
" />
</g>
<g style="fill:#000000; fill-opacity:0.0; 
stroke:#000000; stroke-width:39.3701; stroke-opacity:1; 
stroke-linecap:round; stroke-linejoin:round;">
</g>
<g style="fill:#000000; fill-opacity:0.0; 
stroke:#000000; stroke-width:59.0551; stroke-opacity:1; 
stroke-linecap:round; stroke-linejoin:round;">
<path d="M106062 43307
L105275 43307
" />
</g>
<g style="fill:#000000; fill-opacity:0.0; 
stroke:#000000; stroke-width:39.3701; stroke-opacity:1; 
stroke-linecap:round; stroke-linejoin:round;">
</g>
<g style="fill:#000000; fill-opacity:0.0; 
stroke:#000000; stroke-width:59.0551; stroke-opacity:1; 
stroke-linecap:round; stroke-linejoin:round;">
<path d="M106062 62992
L105275 62992
" />
</g>
<g style="fill:#000000; fill-opacity:0.0; 
stroke:#000000; stroke-width:39.3701; stroke-opacity:1; 
stroke-linecap:round; stroke-linejoin:round;">
</g>
<g style="fill:#000000; fill-opacity:0.0; 
stroke:#000000; stroke-width:59.0551; stroke-opacity:1; 
stroke-linecap:round; stroke-linejoin:round;">
<path d="M105547 13864
L105791 13864
" />
<path d="M105498 14011
L105669 13499
L105839 14011
" />
</g>
<g style="fill:#000000; fill-opacity:0.0; 
stroke:#000000; stroke-width:39.3701; stroke-opacity:1; 
stroke-linecap:round; stroke-linejoin:round;">
</g>
<g style="fill:#000000; fill-opacity:0.0; 
stroke:#000000; stroke-width:59.0551; stroke-opacity:1; 
stroke-linecap:round; stroke-linejoin:round;">
<path d="M105705 33428
L105778 33452
L105803 33476
L105827 33525
L105827 33598
L105803 33647
L105778 33671
L105730 33696
L105535 33696
L105535 33184
L105705 33184
L105754 33208
L105778 33233
L105803 33281
L105803 33330
L105778 33379
L105754 33403
L105705 33428
L105535 33428
" />
</g>
<g style="fill:#000000; fill-opacity:0.0; 
stroke:#000000; stroke-width:39.3701; stroke-opacity:1; 
stroke-linecap:round; stroke-linejoin:round;">
</g>
<g style="fill:#000000; fill-opacity:0.0; 
stroke:#000000; stroke-width:59.0551; stroke-opacity:1; 
stroke-linecap:round; stroke-linejoin:round;">
<path d="M105827 53332
L105803 53356
L105730 53381
L105681 53381
L105608 53356
L105559 53308
L105535 53259
L105510 53161
L105510 53088
L105535 52991
L105559 52942
L105608 52893
L105681 52869
L105730 52869
L105803 52893
L105827 52918
" />
</g>
<g style="fill:#000000; fill-opacity:0.0; 
stroke:#000000; stroke-width:39.3701; stroke-opacity:1; 
stroke-linecap:round; stroke-linejoin:round;">
</g>
<g style="fill:#000000; fill-opacity:0.0; 
stroke:#000000; stroke-width:59.0551; stroke-opacity:1; 
stroke-linecap:round; stroke-linejoin:round;">
<path d="M105535 73066
L105535 72554
L105657 72554
L105730 72578
L105778 72627
L105803 72676
L105827 72773
L105827 72846
L105803 72944
L105778 72993
L105730 73041
L105657 73066
L105535 73066
" />
</g>
<g style="fill:#000000; fill-opacity:0.0; 
stroke:#000000; stroke-width:39.3701; stroke-opacity:1; 
stroke-linecap:round; stroke-linejoin:round;">
</g>
<g style="fill:#000000; fill-opacity:0.0; 
stroke:#000000; stroke-width:59.0551; stroke-opacity:1; 
stroke-linecap:round; stroke-linejoin:round;">
<path d="M71951 78613
L71951 78023
L72092 78023
L72176 78051
L72232 78107
L72260 78163
L72289 78276
L72289 78360
L72260 78473
L72232 78529
L72176 78585
L72092 78613
L71951 78613
" />
<path d="M72795 78613
L72795 78304
L72767 78248
L72710 78219
L72598 78219
L72542 78248
" />
<path d="M72795 78585
L72739 78613
L72598 78613
L72542 78585
L72514 78529
L72514 78473
L72542 78416
L72598 78388
L72739 78388
L72795 78360
" />
<path d="M72992 78219
L73217 78219
" />
<path d="M73076 78023
L73076 78529
L73104 78585
L73160 78613
L73217 78613
" />
<path d="M73638 78585
L73582 78613
L73470 78613
L73413 78585
L73385 78529
L73385 78304
L73413 78248
L73470 78219
L73582 78219
L73638 78248
L73667 78304
L73667 78360
L73385 78416
" />
<path d="M73920 78557
L73948 78585
L73920 78613
L73892 78585
L73920 78557
L73920 78613
" />
<path d="M73920 78248
L73948 78276
L73920 78304
L73892 78276
L73920 78248
L73920 78304
" />
<path d="M74623 78079
L74651 78051
L74707 78023
L74848 78023
L74904 78051
L74932 78079
L74960 78135
L74960 78191
L74932 78276
L74595 78613
L74960 78613
" />
<path d="M75326 78023
L75382 78023
L75438 78051
L75466 78079
L75494 78135
L75523 78248
L75523 78388
L75494 78501
L75466 78557
L75438 78585
L75382 78613
L75326 78613
L75269 78585
L75241 78557
L75213 78501
L75185 78388
L75185 78248
L75213 78135
L75241 78079
L75269 78051
L75326 78023
" />
<path d="M76085 78613
L75748 78613
" />
<path d="M75916 78613
L75916 78023
L75860 78107
L75804 78163
L75748 78191
" />
<path d="M76282 78023
L76676 78023
L76422 78613
" />
<path d="M76901 78388
L77350 78388
" />
<path d="M77744 78023
L77800 78023
L77857 78051
L77885 78079
L77913 78135
L77941 78248
L77941 78388
L77913 78501
L77885 78557
L77857 78585
L77800 78613
L77744 78613
L77688 78585
L77660 78557
L77632 78501
L77604 78388
L77604 78248
L77632 78135
L77660 78079
L77688 78051
L77744 78023
" />
<path d="M78447 78219
L78447 78613
" />
<path d="M78307 77994
L78166 78416
L78532 78416
" />
<path d="M78757 78388
L79206 78388
" />
<path d="M79460 78079
L79488 78051
L79544 78023
L79685 78023
L79741 78051
L79769 78079
L79797 78135
L79797 78191
L79769 78276
L79431 78613
L79797 78613
" />
<path d="M80331 78023
L80050 78023
L80022 78304
L80050 78276
L80106 78248
L80247 78248
L80303 78276
L80331 78304
L80359 78360
L80359 78501
L80331 78557
L80303 78585
L80247 78613
L80106 78613
L80050 78585
L80022 78557
" />
</g>
<g style="fill:#000000; fill-opacity:0.0; 
stroke:#000000; stroke-width:39.3701; stroke-opacity:1; 
stroke-linecap:round; stroke-linejoin:round;">
</g>
<g style="fill:#000000; fill-opacity:0.0; 
stroke:#000000; stroke-width:59.0551; stroke-opacity:1; 
stroke-linecap:round; stroke-linejoin:round;">
<path d="M62755 78897
L105275 78897
" />
</g>
<g style="fill:#000000; fill-opacity:0.0; 
stroke:#000000; stroke-width:39.3701; stroke-opacity:1; 
stroke-linecap:round; stroke-linejoin:round;">
</g>
<g style="fill:#000000; fill-opacity:0.0; 
stroke:#000000; stroke-width:59.0551; stroke-opacity:1; 
stroke-linecap:round; stroke-linejoin:round;">
<path d="M63290 79715
L63290 79125
" />
<path d="M63627 79715
L63374 79378
" />
<path d="M63627 79125
L63290 79462
" />
<path d="M63880 79715
L63880 79322
" />
<path d="M63880 79125
L63852 79153
L63880 79181
L63908 79153
L63880 79125
L63880 79181
" />
<path d="M64499 79659
L64471 79687
L64386 79715
L64330 79715
L64246 79687
L64190 79631
L64161 79575
L64133 79462
L64133 79378
L64161 79266
L64190 79209
L64246 79153
L64330 79125
L64386 79125
L64471 79153
L64499 79181
" />
<path d="M65005 79715
L65005 79406
L64977 79350
L64921 79322
L64808 79322
L64752 79350
" />
<path d="M65005 79687
L64949 79715
L64808 79715
L64752 79687
L64724 79631
L64724 79575
L64752 79519
L64808 79491
L64949 79491
L65005 79462
" />
<path d="M65539 79715
L65539 79125
" />
<path d="M65539 79687
L65483 79715
L65371 79715
L65314 79687
L65286 79659
L65258 79603
L65258 79434
L65286 79378
L65314 79350
L65371 79322
L65483 79322
L65539 79350
" />
<path d="M66271 79406
L66467 79406
" />
<path d="M66552 79715
L66271 79715
L66271 79125
L66552 79125
" />
<path d="M66805 79659
L66833 79687
L66805 79715
L66777 79687
L66805 79659
L66805 79715
" />
<path d="M67086 79715
L67086 79125
L67227 79125
L67311 79153
L67367 79209
L67395 79266
L67424 79378
L67424 79462
L67395 79575
L67367 79631
L67311 79687
L67227 79715
L67086 79715
" />
<path d="M67677 79659
L67705 79687
L67677 79715
L67649 79687
L67677 79659
L67677 79715
" />
<path d="M67930 79547
L68211 79547
" />
<path d="M67874 79715
L68070 79125
L68267 79715
" />
<path d="M68464 79659
L68492 79687
L68464 79715
L68436 79687
L68464 79659
L68464 79715
" />
<path d="M69645 79715
L69645 79125
" />
<path d="M69701 79491
L69870 79715
" />
<path d="M69870 79322
L69645 79547
" />
<path d="M70123 79715
L70123 79322
" />
<path d="M70123 79125
L70095 79153
L70123 79181
L70151 79153
L70123 79125
L70123 79181
" />
<path d="M70658 79687
L70601 79715
L70489 79715
L70433 79687
L70404 79659
L70376 79603
L70376 79434
L70404 79378
L70433 79350
L70489 79322
L70601 79322
L70658 79350
" />
<path d="M71164 79715
L71164 79406
L71136 79350
L71079 79322
L70967 79322
L70911 79350
" />
<path d="M71164 79687
L71107 79715
L70967 79715
L70911 79687
L70883 79631
L70883 79575
L70911 79519
L70967 79491
L71107 79491
L71164 79462
" />
<path d="M71698 79715
L71698 79125
" />
<path d="M71698 79687
L71642 79715
L71529 79715
L71473 79687
L71445 79659
L71417 79603
L71417 79434
L71445 79378
L71473 79350
L71529 79322
L71642 79322
L71698 79350
" />
<path d="M72682 79322
L72682 79715
" />
<path d="M72542 79097
L72401 79519
L72767 79519
" />
<path d="M72992 79659
L73020 79687
L72992 79715
L72964 79687
L72992 79659
L72992 79715
" />
<path d="M73385 79125
L73442 79125
L73498 79153
L73526 79181
L73554 79237
L73582 79350
L73582 79491
L73554 79603
L73526 79659
L73498 79687
L73442 79715
L73385 79715
L73329 79687
L73301 79659
L73273 79603
L73245 79491
L73245 79350
L73273 79237
L73301 79181
L73329 79153
L73385 79125
" />
<path d="M73835 79659
L73863 79687
L73835 79715
L73807 79687
L73835 79659
L73835 79715
" />
<path d="M74060 79125
L74454 79125
L74201 79715
" />
</g>
<g style="fill:#000000; fill-opacity:0.0; 
stroke:#000000; stroke-width:39.3701; stroke-opacity:1; 
stroke-linecap:round; stroke-linejoin:round;">
</g>
<g style="fill:#000000; fill-opacity:0.0; 
stroke:#000000; stroke-width:59.0551; stroke-opacity:1; 
stroke-linecap:round; stroke-linejoin:round;">
<path d="M62755 77716
L105275 77716
" />
</g>
<g style="fill:#000000; fill-opacity:0.0; 
stroke:#000000; stroke-width:39.3701; stroke-opacity:1; 
stroke-linecap:round; stroke-linejoin:round;">
</g>
<g style="fill:#000000; fill-opacity:0.0; 
stroke:#000000; stroke-width:118.11; stroke-opacity:1; 
stroke-linecap:round; stroke-linejoin:round;">
<path d="M97092 78613
L96895 78332
" />
<path d="M96754 78613
L96754 78023
L96979 78023
L97035 78051
L97064 78079
L97092 78135
L97092 78219
L97064 78276
L97035 78304
L96979 78332
L96754 78332
" />
<path d="M97570 78585
L97514 78613
L97401 78613
L97345 78585
L97317 78529
L97317 78304
L97345 78248
L97401 78219
L97514 78219
L97570 78248
L97598 78304
L97598 78360
L97317 78416
" />
<path d="M97795 78219
L97935 78613
L98076 78219
" />
<path d="M98301 78557
L98329 78585
L98301 78613
L98273 78585
L98301 78557
L98301 78613
" />
<path d="M98301 78248
L98329 78276
L98301 78304
L98273 78276
L98301 78248
L98301 78304
" />
<path d="M98976 78219
L99116 78613
L99257 78219
" />
<path d="M99426 78023
L99791 78023
L99595 78248
L99679 78248
L99735 78276
L99763 78304
L99791 78360
L99791 78501
L99763 78557
L99735 78585
L99679 78613
L99510 78613
L99454 78585
L99426 78557
" />
<path d="M100044 78557
L100073 78585
L100044 78613
L100016 78585
L100044 78557
L100044 78613
" />
<path d="M100579 78219
L100579 78613
" />
<path d="M100438 77994
L100298 78416
L100663 78416
" />
</g>
<g style="fill:#000000; fill-opacity:0.0; 
stroke:#000000; stroke-width:39.3701; stroke-opacity:1; 
stroke-linecap:round; stroke-linejoin:round;">
</g>
<g style="fill:#000000; fill-opacity:0.0; 
stroke:#000000; stroke-width:59.0551; stroke-opacity:1; 
stroke-linecap:round; stroke-linejoin:round;">
<path d="M63262 78585
L63346 78613
L63487 78613
L63543 78585
L63571 78557
L63599 78501
L63599 78444
L63571 78388
L63543 78360
L63487 78332
L63374 78304
L63318 78276
L63290 78248
L63262 78191
L63262 78135
L63290 78079
L63318 78051
L63374 78023
L63515 78023
L63599 78051
" />
<path d="M63852 78613
L63852 78219
" />
<path d="M63852 78023
L63824 78051
L63852 78079
L63880 78051
L63852 78023
L63852 78079
" />
<path d="M64077 78219
L64386 78219
L64077 78613
L64386 78613
" />
<path d="M64836 78585
L64780 78613
L64668 78613
L64611 78585
L64583 78529
L64583 78304
L64611 78248
L64668 78219
L64780 78219
L64836 78248
L64865 78304
L64865 78360
L64583 78416
" />
<path d="M65118 78557
L65146 78585
L65118 78613
L65089 78585
L65118 78557
L65118 78613
" />
<path d="M65118 78248
L65146 78276
L65118 78304
L65089 78276
L65118 78248
L65118 78304
" />
<path d="M65849 78023
L65849 78501
L65877 78557
L65905 78585
L65961 78613
L66074 78613
L66130 78585
L66158 78557
L66186 78501
L66186 78023
" />
<path d="M66439 78585
L66524 78613
L66664 78613
L66721 78585
L66749 78557
L66777 78501
L66777 78444
L66749 78388
L66721 78360
L66664 78332
L66552 78304
L66496 78276
L66467 78248
L66439 78191
L66439 78135
L66467 78079
L66496 78051
L66552 78023
L66692 78023
L66777 78051
" />
<path d="M67311 78613
L67030 78613
L67030 78023
" />
<path d="M67733 78585
L67677 78613
L67564 78613
L67508 78585
L67480 78529
L67480 78304
L67508 78248
L67564 78219
L67677 78219
L67733 78248
L67761 78304
L67761 78360
L67480 78416
" />
<path d="M67930 78219
L68155 78219
" />
<path d="M68014 78023
L68014 78529
L68042 78585
L68098 78613
L68155 78613
" />
<path d="M68267 78219
L68492 78219
" />
<path d="M68352 78023
L68352 78529
L68380 78585
L68436 78613
L68492 78613
" />
<path d="M68914 78585
L68858 78613
L68745 78613
L68689 78585
L68661 78529
L68661 78304
L68689 78248
L68745 78219
L68858 78219
L68914 78248
L68942 78304
L68942 78360
L68661 78416
" />
<path d="M69195 78613
L69195 78219
" />
<path d="M69195 78332
L69223 78276
L69251 78248
L69308 78219
L69364 78219
" />
</g>
<g style="fill:#000000; fill-opacity:0.0; 
stroke:#000000; stroke-width:39.3701; stroke-opacity:1; 
stroke-linecap:round; stroke-linejoin:round;">
</g>
<g style="fill:#000000; fill-opacity:0.0; 
stroke:#000000; stroke-width:59.0551; stroke-opacity:1; 
stroke-linecap:round; stroke-linejoin:round;">
<path d="M96754 79715
L96754 79125
" />
<path d="M97289 79715
L97289 79125
" />
<path d="M97289 79687
L97232 79715
L97120 79715
L97064 79687
L97035 79659
L97007 79603
L97007 79434
L97035 79378
L97064 79350
L97120 79322
L97232 79322
L97289 79350
" />
<path d="M97570 79659
L97598 79687
L97570 79715
L97542 79687
L97570 79659
L97570 79715
" />
<path d="M97570 79350
L97598 79378
L97570 79406
L97542 79378
L97570 79350
L97570 79406
" />
<path d="M98610 79715
L98273 79715
" />
<path d="M98442 79715
L98442 79125
L98385 79209
L98329 79266
L98273 79294
" />
<path d="M99285 79097
L98779 79856
" />
<path d="M99791 79715
L99454 79715
" />
<path d="M99623 79715
L99623 79125
L99566 79209
L99510 79266
L99454 79294
" />
</g>
<g style="fill:#000000; fill-opacity:0.0; 
stroke:#000000; stroke-width:39.3701; stroke-opacity:1; 
stroke-linecap:round; stroke-linejoin:round;">
</g>
<g style="fill:#000000; fill-opacity:0.0; 
stroke:#000000; stroke-width:59.0551; stroke-opacity:1; 
stroke-linecap:round; stroke-linejoin:round;">
<path d="M62755 76141
L105275 76141
" />
</g>
<g style="fill:#000000; fill-opacity:0.0; 
stroke:#000000; stroke-width:39.3701; stroke-opacity:1; 
stroke-linecap:round; stroke-linejoin:round;">
</g>
<g style="fill:#000000; fill-opacity:0.0; 
stroke:#000000; stroke-width:157.48; stroke-opacity:1; 
stroke-linecap:round; stroke-linejoin:round;">
<path d="M63327 76419
L63777 76419
" />
<path d="M63454 77206
L63552 76419
" />
<path d="M63941 77206
L64007 76681
" />
<path d="M64040 76419
L63997 76456
L64030 76494
L64072 76456
L64040 76419
L64030 76494
" />
<path d="M64269 76681
L64569 76681
" />
<path d="M64415 76419
L64330 77094
L64358 77169
L64429 77206
L64504 77206
" />
<path d="M64879 77206
L64808 77169
L64780 77094
L64865 76419
" />
<path d="M65483 77169
L65404 77206
L65254 77206
L65183 77169
L65155 77094
L65193 76794
L65239 76719
L65319 76681
L65469 76681
L65539 76719
L65568 76794
L65558 76869
L65174 76944
" />
<path d="M65863 77131
L65896 77169
L65853 77206
L65821 77169
L65863 77131
L65853 77206
" />
<path d="M65914 76719
L65947 76756
L65905 76794
L65872 76756
L65914 76719
L65905 76794
" />
<path d="M67241 77206
L66791 77206
" />
<path d="M67016 77206
L67114 76419
L67025 76531
L66941 76606
L66861 76644
" />
<path d="M67630 76494
L67672 76456
L67752 76419
L67939 76419
L68009 76456
L68042 76494
L68070 76569
L68061 76644
L68009 76756
L67503 77206
L67991 77206
" />
<path d="M68577 76419
L68652 76419
L68722 76456
L68755 76494
L68783 76569
L68802 76719
L68778 76906
L68722 77056
L68675 77131
L68633 77169
L68553 77206
L68478 77206
L68408 77169
L68375 77131
L68347 77056
L68328 76906
L68352 76719
L68408 76569
L68455 76494
L68497 76456
L68577 76419
" />
<path d="M69116 76906
L69715 76906
" />
<path d="M70395 77169
L70315 77206
L70165 77206
L70095 77169
L70062 77131
L70034 77056
L70062 76831
L70109 76756
L70151 76719
L70231 76681
L70381 76681
L70451 76719
" />
<path d="M70728 77206
L70826 76419
" />
<path d="M71065 77206
L71117 76794
L71089 76719
L71018 76681
L70906 76681
L70826 76719
L70784 76756
" />
<path d="M71778 77206
L71829 76794
L71801 76719
L71731 76681
L71581 76681
L71501 76719
" />
<path d="M71782 77169
L71703 77206
L71515 77206
L71445 77169
L71417 77094
L71426 77019
L71473 76944
L71553 76906
L71740 76906
L71820 76869
" />
<path d="M72218 76681
L72153 77206
" />
<path d="M72209 76756
L72251 76719
L72331 76681
L72443 76681
L72514 76719
L72542 76794
L72490 77206
" />
<path d="M72931 76681
L72865 77206
" />
<path d="M72921 76756
L72964 76719
L73043 76681
L73156 76681
L73226 76719
L73254 76794
L73203 77206
" />
<path d="M73882 77169
L73802 77206
L73652 77206
L73582 77169
L73554 77094
L73592 76794
L73638 76719
L73718 76681
L73868 76681
L73938 76719
L73967 76794
L73957 76869
L73573 76944
" />
<path d="M74365 77206
L74295 77169
L74266 77094
L74351 76419
" />
<path d="M75330 76681
L75232 77469
" />
<path d="M75326 76719
L75405 76681
L75555 76681
L75626 76719
L75658 76756
L75687 76831
L75658 77056
L75612 77131
L75569 77169
L75490 77206
L75340 77206
L75269 77169
" />
<path d="M76090 77206
L76019 77169
L75987 77131
L75958 77056
L75987 76831
L76033 76756
L76076 76719
L76155 76681
L76268 76681
L76338 76719
L76371 76756
L76399 76831
L76371 77056
L76324 77131
L76282 77169
L76202 77206
L76090 77206
" />
<path d="M77093 76681
L77013 77319
L76966 77394
L76924 77431
L76844 77469
L76732 77469
L76661 77431
" />
<path d="M77032 77169
L76952 77206
L76802 77206
L76732 77169
L76699 77131
L76671 77056
L76699 76831
L76746 76756
L76788 76719
L76868 76681
L77018 76681
L77088 76719
" />
<path d="M77514 77206
L77444 77169
L77411 77131
L77383 77056
L77411 76831
L77458 76756
L77500 76719
L77580 76681
L77693 76681
L77763 76719
L77796 76756
L77824 76831
L77796 77056
L77749 77131
L77707 77169
L77627 77206
L77514 77206
" />
<path d="M78780 76681
L78682 77469
" />
<path d="M78775 76719
L78855 76681
L79005 76681
L79075 76719
L79108 76756
L79136 76831
L79108 77056
L79061 77131
L79019 77169
L78939 77206
L78789 77206
L78719 77169
" />
<path d="M79427 77206
L79492 76681
" />
<path d="M79525 76419
L79483 76456
L79516 76494
L79558 76456
L79525 76419
L79516 76494
" />
<path d="M79867 76681
L79802 77206
" />
<path d="M79858 76756
L79900 76719
L79980 76681
L80092 76681
L80163 76719
L80191 76794
L80139 77206
" />
<path d="M81114 77206
L81212 76419
" />
<path d="M81175 76719
L81255 76681
L81405 76681
L81475 76719
L81508 76756
L81536 76831
L81508 77056
L81461 77131
L81419 77169
L81339 77206
L81189 77206
L81119 77169
" />
<path d="M81939 77206
L81869 77169
L81836 77131
L81808 77056
L81836 76831
L81883 76756
L81925 76719
L82005 76681
L82117 76681
L82187 76719
L82220 76756
L82248 76831
L82220 77056
L82173 77131
L82131 77169
L82051 77206
L81939 77206
" />
<path d="M82876 77206
L82928 76794
L82900 76719
L82829 76681
L82679 76681
L82600 76719
" />
<path d="M82881 77169
L82801 77206
L82614 77206
L82544 77169
L82515 77094
L82525 77019
L82572 76944
L82651 76906
L82839 76906
L82919 76869
" />
<path d="M83251 77206
L83317 76681
" />
<path d="M83298 76831
L83345 76756
L83387 76719
L83467 76681
L83542 76681
" />
<path d="M84076 77206
L84175 76419
" />
<path d="M84081 77169
L84001 77206
L83851 77206
L83781 77169
L83748 77131
L83720 77056
L83748 76831
L83795 76756
L83837 76719
L83917 76681
L84067 76681
L84137 76719
" />
</g>
<g style="fill:#000000; fill-opacity:0.0; 
stroke:#000000; stroke-width:39.3701; stroke-opacity:1; 
stroke-linecap:round; stroke-linejoin:round;">
</g>
<g style="fill:#000000; fill-opacity:0.0; 
stroke:#000000; stroke-width:59.0551; stroke-opacity:1; 
stroke-linecap:round; stroke-linejoin:round;">
<path d="M63487 75390
L63290 75390
" />
<path d="M63290 75700
L63290 75109
L63571 75109
" />
<path d="M63796 75700
L63796 75306
" />
<path d="M63796 75109
L63768 75137
L63796 75165
L63824 75137
L63796 75109
L63796 75165
" />
<path d="M64161 75700
L64105 75672
L64077 75615
L64077 75109
" />
<path d="M64611 75672
L64555 75700
L64443 75700
L64386 75672
L64358 75615
L64358 75390
L64386 75334
L64443 75306
L64555 75306
L64611 75334
L64640 75390
L64640 75447
L64358 75503
" />
<path d="M64893 75643
L64921 75672
L64893 75700
L64865 75672
L64893 75643
L64893 75700
" />
<path d="M64893 75334
L64921 75362
L64893 75390
L64865 75362
L64893 75334
L64893 75390
" />
<path d="M65933 75700
L65596 75700
" />
<path d="M65764 75700
L65764 75109
L65708 75194
L65652 75250
L65596 75278
" />
<path d="M66158 75165
L66186 75137
L66242 75109
L66383 75109
L66439 75137
L66467 75165
L66496 75222
L66496 75278
L66467 75362
L66130 75700
L66496 75700
" />
<path d="M66861 75109
L66917 75109
L66974 75137
L67002 75165
L67030 75222
L67058 75334
L67058 75475
L67030 75587
L67002 75643
L66974 75672
L66917 75700
L66861 75700
L66805 75672
L66777 75643
L66749 75587
L66721 75475
L66721 75334
L66749 75222
L66777 75165
L66805 75137
L66861 75109
" />
<path d="M67311 75475
L67761 75475
" />
<path d="M68295 75672
L68239 75700
L68127 75700
L68070 75672
L68042 75643
L68014 75587
L68014 75419
L68042 75362
L68070 75334
L68127 75306
L68239 75306
L68295 75334
" />
<path d="M68548 75700
L68548 75109
" />
<path d="M68802 75700
L68802 75390
L68773 75334
L68717 75306
L68633 75306
L68577 75334
L68548 75362
" />
<path d="M69336 75700
L69336 75390
L69308 75334
L69251 75306
L69139 75306
L69083 75334
" />
<path d="M69336 75672
L69280 75700
L69139 75700
L69083 75672
L69055 75615
L69055 75559
L69083 75503
L69139 75475
L69280 75475
L69336 75447
" />
<path d="M69617 75306
L69617 75700
" />
<path d="M69617 75362
L69645 75334
L69701 75306
L69786 75306
L69842 75334
L69870 75390
L69870 75700
" />
<path d="M70151 75306
L70151 75700
" />
<path d="M70151 75362
L70179 75334
L70236 75306
L70320 75306
L70376 75334
L70404 75390
L70404 75700
" />
<path d="M70911 75672
L70854 75700
L70742 75700
L70686 75672
L70658 75615
L70658 75390
L70686 75334
L70742 75306
L70854 75306
L70911 75334
L70939 75390
L70939 75447
L70658 75503
" />
<path d="M71276 75700
L71220 75672
L71192 75615
L71192 75109
" />
<path d="M71951 75306
L71951 75897
" />
<path d="M71951 75334
L72007 75306
L72120 75306
L72176 75334
L72204 75362
L72232 75419
L72232 75587
L72204 75643
L72176 75672
L72120 75700
L72007 75700
L71951 75672
" />
<path d="M72570 75700
L72514 75672
L72485 75643
L72457 75587
L72457 75419
L72485 75362
L72514 75334
L72570 75306
L72654 75306
L72710 75334
L72739 75362
L72767 75419
L72767 75587
L72739 75643
L72710 75672
L72654 75700
L72570 75700
" />
<path d="M73273 75306
L73273 75784
L73245 75840
L73217 75868
L73160 75897
L73076 75897
L73020 75868
" />
<path d="M73273 75672
L73217 75700
L73104 75700
L73048 75672
L73020 75643
L72992 75587
L72992 75419
L73020 75362
L73048 75334
L73104 75306
L73217 75306
L73273 75334
" />
<path d="M73638 75700
L73582 75672
L73554 75643
L73526 75587
L73526 75419
L73554 75362
L73582 75334
L73638 75306
L73723 75306
L73779 75334
L73807 75362
L73835 75419
L73835 75587
L73807 75643
L73779 75672
L73723 75700
L73638 75700
" />
<path d="M74538 75306
L74538 75897
" />
<path d="M74538 75334
L74595 75306
L74707 75306
L74763 75334
L74791 75362
L74820 75419
L74820 75587
L74791 75643
L74763 75672
L74707 75700
L74595 75700
L74538 75672
" />
<path d="M75073 75700
L75073 75306
" />
<path d="M75073 75109
L75044 75137
L75073 75165
L75101 75137
L75073 75109
L75073 75165
" />
<path d="M75354 75306
L75354 75700
" />
<path d="M75354 75362
L75382 75334
L75438 75306
L75523 75306
L75579 75334
L75607 75390
L75607 75700
" />
<path d="M76338 75700
L76338 75109
" />
<path d="M76338 75334
L76394 75306
L76507 75306
L76563 75334
L76591 75362
L76619 75419
L76619 75587
L76591 75643
L76563 75672
L76507 75700
L76394 75700
L76338 75672
" />
<path d="M76957 75700
L76901 75672
L76872 75643
L76844 75587
L76844 75419
L76872 75362
L76901 75334
L76957 75306
L77041 75306
L77097 75334
L77125 75362
L77154 75419
L77154 75587
L77125 75643
L77097 75672
L77041 75700
L76957 75700
" />
<path d="M77660 75700
L77660 75390
L77632 75334
L77575 75306
L77463 75306
L77407 75334
" />
<path d="M77660 75672
L77604 75700
L77463 75700
L77407 75672
L77379 75615
L77379 75559
L77407 75503
L77463 75475
L77604 75475
L77660 75447
" />
<path d="M77941 75700
L77941 75306
" />
<path d="M77941 75419
L77969 75362
L77997 75334
L78053 75306
L78110 75306
" />
<path d="M78560 75700
L78560 75109
" />
<path d="M78560 75672
L78503 75700
L78391 75700
L78335 75672
L78307 75643
L78278 75587
L78278 75419
L78307 75362
L78335 75334
L78391 75306
L78503 75306
L78560 75334
" />
<path d="M78841 75643
L78869 75672
L78841 75700
L78813 75672
L78841 75643
L78841 75700
" />
<path d="M79122 75700
L79122 75109
" />
<path d="M79178 75475
L79347 75700
" />
<path d="M79347 75306
L79122 75531
" />
<path d="M79600 75700
L79600 75306
" />
<path d="M79600 75109
L79572 75137
L79600 75165
L79628 75137
L79600 75109
L79600 75165
" />
<path d="M80134 75672
L80078 75700
L79966 75700
L79910 75672
L79881 75643
L79853 75587
L79853 75419
L79881 75362
L79910 75334
L79966 75306
L80078 75306
L80134 75334
" />
<path d="M80641 75700
L80641 75390
L80613 75334
L80556 75306
L80444 75306
L80388 75334
" />
<path d="M80641 75672
L80584 75700
L80444 75700
L80388 75672
L80359 75615
L80359 75559
L80388 75503
L80444 75475
L80584 75475
L80641 75447
" />
<path d="M81175 75700
L81175 75109
" />
<path d="M81175 75672
L81119 75700
L81006 75700
L80950 75672
L80922 75643
L80894 75587
L80894 75419
L80922 75362
L80950 75334
L81006 75306
L81119 75306
L81175 75334
" />
<path d="M81316 75756
L81766 75756
" />
<path d="M81906 75306
L81906 75897
" />
<path d="M81906 75334
L81962 75306
L82075 75306
L82131 75334
L82159 75362
L82187 75419
L82187 75587
L82159 75643
L82131 75672
L82075 75700
L81962 75700
L81906 75672
" />
<path d="M82694 75672
L82637 75700
L82525 75700
L82469 75672
L82440 75643
L82412 75587
L82412 75419
L82440 75362
L82469 75334
L82525 75306
L82637 75306
L82694 75334
" />
<path d="M82947 75700
L82947 75109
" />
<path d="M82947 75334
L83003 75306
L83115 75306
L83172 75334
L83200 75362
L83228 75419
L83228 75587
L83200 75643
L83172 75672
L83115 75700
L83003 75700
L82947 75672
" />
</g>
<g style="fill:#000000; fill-opacity:0.0; 
stroke:#000000; stroke-width:39.3701; stroke-opacity:1; 
stroke-linecap:round; stroke-linejoin:round;">
</g>
<g style="fill:#000000; fill-opacity:0.0; 
stroke:#000000; stroke-width:59.0551; stroke-opacity:1; 
stroke-linecap:round; stroke-linejoin:round;">
<path d="M62755 73779
L105275 73779
" />
</g>
<g style="fill:#000000; fill-opacity:0.0; 
stroke:#000000; stroke-width:39.3701; stroke-opacity:1; 
stroke-linecap:round; stroke-linejoin:round;">
</g>
<g style="fill:#000000; fill-opacity:0.0; 
stroke:#000000; stroke-width:59.0551; stroke-opacity:1; 
stroke-linecap:round; stroke-linejoin:round;">
<path d="M63262 74609
L63346 74637
L63487 74637
L63543 74609
L63571 74580
L63599 74524
L63599 74468
L63571 74412
L63543 74384
L63487 74356
L63374 74327
L63318 74299
L63290 74271
L63262 74215
L63262 74159
L63290 74102
L63318 74074
L63374 74046
L63515 74046
L63599 74074
" />
<path d="M63852 74637
L63852 74046
" />
<path d="M64105 74637
L64105 74327
L64077 74271
L64021 74243
L63937 74243
L63880 74271
L63852 74299
" />
<path d="M64611 74609
L64555 74637
L64443 74637
L64386 74609
L64358 74552
L64358 74327
L64386 74271
L64443 74243
L64555 74243
L64611 74271
L64640 74327
L64640 74384
L64358 74440
" />
<path d="M65118 74609
L65061 74637
L64949 74637
L64893 74609
L64865 74552
L64865 74327
L64893 74271
L64949 74243
L65061 74243
L65118 74271
L65146 74327
L65146 74384
L64865 74440
" />
<path d="M65314 74243
L65539 74243
" />
<path d="M65399 74046
L65399 74552
L65427 74609
L65483 74637
L65539 74637
" />
<path d="M65736 74580
L65764 74609
L65736 74637
L65708 74609
L65736 74580
L65736 74637
" />
<path d="M65736 74271
L65764 74299
L65736 74327
L65708 74299
L65736 74271
L65736 74327
" />
</g>
<g style="fill:#000000; fill-opacity:0.0; 
stroke:#000000; stroke-width:39.3701; stroke-opacity:1; 
stroke-linecap:round; stroke-linejoin:round;">
</g>
<g style="fill:#000000; fill-opacity:0.0; 
stroke:#000000; stroke-width:118.11; stroke-opacity:1; 
stroke-linecap:round; stroke-linejoin:round;">
<path d="M63262 73428
L63346 73456
L63487 73456
L63543 73428
L63571 73399
L63599 73343
L63599 73287
L63571 73231
L63543 73203
L63487 73174
L63374 73146
L63318 73118
L63290 73090
L63262 73034
L63262 72978
L63290 72921
L63318 72893
L63374 72865
L63515 72865
L63599 72893
" />
<path d="M64105 73428
L64049 73456
L63937 73456
L63880 73428
L63852 73399
L63824 73343
L63824 73174
L63852 73118
L63880 73090
L63937 73062
L64049 73062
L64105 73090
" />
<path d="M64358 73456
L64358 73062
" />
<path d="M64358 72865
L64330 72893
L64358 72921
L64386 72893
L64358 72865
L64358 72921
" />
<path d="M64640 73231
L65089 73231
" />
<path d="M65568 73146
L65652 73174
L65680 73203
L65708 73259
L65708 73343
L65680 73399
L65652 73428
L65596 73456
L65371 73456
L65371 72865
L65568 72865
L65624 72893
L65652 72921
L65680 72978
L65680 73034
L65652 73090
L65624 73118
L65568 73146
L65371 73146
" />
<path d="M66046 73456
L65989 73428
L65961 73399
L65933 73343
L65933 73174
L65961 73118
L65989 73090
L66046 73062
L66130 73062
L66186 73090
L66214 73118
L66242 73174
L66242 73343
L66214 73399
L66186 73428
L66130 73456
L66046 73456
" />
<path d="M66411 73062
L66636 73062
" />
<path d="M66496 72865
L66496 73371
L66524 73428
L66580 73456
L66636 73456
" />
<path d="M66805 73428
L66861 73456
L66974 73456
L67030 73428
L67058 73371
L67058 73343
L67030 73287
L66974 73259
L66889 73259
L66833 73231
L66805 73174
L66805 73146
L66833 73090
L66889 73062
L66974 73062
L67030 73090
" />
<path d="M67761 73456
L67761 72865
" />
<path d="M68042 73062
L68042 73456
" />
<path d="M68042 73118
L68070 73090
L68127 73062
L68211 73062
L68267 73090
L68295 73146
L68295 73456
" />
<path d="M68830 73428
L68773 73456
L68661 73456
L68605 73428
L68577 73399
L68548 73343
L68548 73174
L68577 73118
L68605 73090
L68661 73062
L68773 73062
L68830 73090
" />
<path d="M69083 73399
L69111 73428
L69083 73456
L69055 73428
L69083 73399
L69083 73456
" />
</g>
<g style="fill:#000000; fill-opacity:0.0; 
stroke:#000000; stroke-width:39.3701; stroke-opacity:1; 
stroke-linecap:round; stroke-linejoin:round;">
</g>
<g style="fill:#000000; fill-opacity:0.0; 
stroke:#000000; stroke-width:59.0551; stroke-opacity:1; 
stroke-linecap:round; stroke-linejoin:round;">
<path d="M70629 77716
L70629 78897
" />
</g>
<g style="fill:#000000; fill-opacity:0.0; 
stroke:#000000; stroke-width:39.3701; stroke-opacity:1; 
stroke-linecap:round; stroke-linejoin:round;">
</g>
<g style="fill:#000000; fill-opacity:0.0; 
stroke:#000000; stroke-width:59.0551; stroke-opacity:1; 
stroke-linecap:round; stroke-linejoin:round;">
<path d="M95826 77716
L95826 80275
" />
</g>
<g style="fill:#000000; fill-opacity:0.0; 
stroke:#000000; stroke-width:150; stroke-opacity:1; 
stroke-linecap:round; stroke-linejoin:round;">
<path d="M18070 57185
L18070 30708
" />
<path d="M19251 58366
L18070 57185
" />
<path d="M60688 57185
L60688 30708
" />
<path d="M60688 57185
L59507 58366
" />
<path d="M59507 29527
L48956 29527
" />
<path d="M60688 30708
L59507 29527
" />
<path d="M19251 29527
L29783 29527
" />
<path d="M18070 30708
L19251 29527
" />
<path d="M59507 58366
L19251 58366
" />
<path d="M29783 29527
L29783 50787
" />
</g>
<g style="fill:#000000; fill-opacity:0.0; 
stroke:#000000; stroke-width:40; stroke-opacity:1; 
stroke-linecap:round; stroke-linejoin:round;">
<path d="M49410 46227
L49350 46227
L49320 46242
L49305 46257
L49275 46302
L49260 46362
L49260 46482
L49275 46512
L49290 46527
L49320 46542
L49380 46542
L49410 46527
L49425 46512
L49440 46482
L49440 46407
L49425 46377
L49410 46362
L49380 46347
L49320 46347
L49290 46362
L49275 46377
L49260 46407
" />
<path d="M49544 46227
L49739 46227
L49634 46347
L49679 46347
L49709 46362
L49724 46377
L49739 46407
L49739 46482
L49724 46512
L49709 46527
L49679 46542
L49589 46542
L49559 46527
L49544 46512
" />
<path d="M54210 46227
L54150 46227
L54120 46242
L54105 46257
L54075 46302
L54060 46362
L54060 46482
L54075 46512
L54090 46527
L54120 46542
L54180 46542
L54210 46527
L54225 46512
L54240 46482
L54240 46407
L54225 46377
L54210 46362
L54180 46347
L54120 46347
L54090 46362
L54075 46377
L54060 46407
" />
<path d="M54434 46227
L54464 46227
L54494 46242
L54509 46257
L54524 46287
L54539 46347
L54539 46422
L54524 46482
L54509 46512
L54494 46527
L54464 46542
L54434 46542
L54404 46527
L54389 46512
L54374 46482
L54359 46422
L54359 46347
L54374 46287
L54389 46257
L54404 46242
L54434 46227
" />
<path d="M54216 32524
L54058 32524
" />
<path d="M54137 32524
L54137 32249
L54111 32288
L54085 32314
L54058 32327
" />
<path d="M54478 32524
L54321 32524
" />
<path d="M54400 32524
L54400 32249
L54373 32288
L54347 32314
L54321 32327
" />
<path d="M54714 32249
L54662 32249
L54636 32262
L54623 32275
L54596 32314
L54583 32367
L54583 32472
L54596 32498
L54609 32511
L54636 32524
L54688 32524
L54714 32511
L54728 32498
L54741 32472
L54741 32406
L54728 32380
L54714 32367
L54688 32354
L54636 32354
L54609 32367
L54596 32380
L54583 32406
" />
<path d="M49216 32524
L49058 32524
" />
<path d="M49137 32524
L49137 32249
L49111 32288
L49085 32314
L49058 32327
" />
<path d="M49478 32524
L49321 32524
" />
<path d="M49400 32524
L49400 32249
L49373 32288
L49347 32314
L49321 32327
" />
<path d="M49609 32524
L49662 32524
L49688 32511
L49701 32498
L49728 32459
L49741 32406
L49741 32301
L49728 32275
L49714 32262
L49688 32249
L49636 32249
L49609 32262
L49596 32275
L49583 32301
L49583 32367
L49596 32393
L49609 32406
L49636 32419
L49688 32419
L49714 32406
L49728 32393
L49741 32367
" />
<path d="M29221 32213
L29251 32213
L29281 32228
L29296 32243
L29311 32273
L29326 32333
L29326 32408
L29311 32468
L29296 32498
L29281 32513
L29251 32528
L29221 32528
L29191 32513
L29176 32498
L29161 32468
L29146 32408
L29146 32333
L29161 32273
L29176 32243
L29191 32228
L29221 32213
" />
<path d="M24397 46193
L24247 46193
L24232 46343
L24247 46328
L24277 46313
L24352 46313
L24382 46328
L24397 46343
L24412 46373
L24412 46448
L24397 46478
L24382 46493
L24352 46508
L24277 46508
L24247 46493
L24232 46478
" />
<path d="M24562 46508
L24622 46508
L24652 46493
L24667 46478
L24697 46433
L24712 46373
L24712 46253
L24697 46223
L24682 46208
L24652 46193
L24592 46193
L24562 46208
L24547 46223
L24532 46253
L24532 46328
L24547 46358
L24562 46373
L24592 46388
L24652 46388
L24682 46373
L24697 46358
L24712 46328
" />
<path d="M29228 46193
L29078 46193
L29063 46343
L29078 46328
L29108 46313
L29183 46313
L29213 46328
L29228 46343
L29243 46373
L29243 46448
L29228 46478
L29213 46493
L29183 46508
L29108 46508
L29078 46493
L29063 46478
" />
<path d="M29513 46193
L29453 46193
L29423 46208
L29408 46223
L29378 46268
L29363 46328
L29363 46448
L29378 46478
L29393 46493
L29423 46508
L29483 46508
L29513 46493
L29528 46478
L29543 46448
L29543 46373
L29528 46343
L29513 46328
L29483 46313
L29423 46313
L29393 46328
L29378 46343
L29363 46373
" />
<path d="M50419 48283
L50430 48294
L50441 48328
L50441 48350
L50430 48384
L50407 48407
L50385 48418
L50340 48429
L50306 48429
L50261 48418
L50239 48407
L50216 48384
L50205 48350
L50205 48328
L50216 48294
L50227 48283
" />
<path d="M50430 48193
L50441 48159
L50441 48103
L50430 48080
L50419 48069
L50396 48058
L50374 48058
L50351 48069
L50340 48080
L50329 48103
L50317 48148
L50306 48170
L50295 48182
L50272 48193
L50250 48193
L50227 48182
L50216 48170
L50205 48148
L50205 48092
L50216 48058
" />
<path d="M51236 48522
L51224 48544
L51224 48578
L51236 48612
L51258 48634
L51281 48646
L51326 48657
L51359 48657
L51404 48646
L51427 48634
L51449 48612
L51461 48578
L51461 48556
L51449 48522
L51438 48511
L51359 48511
L51359 48556
" />
<path d="M51461 48410
L51224 48410
L51461 48275
L51224 48275
" />
<path d="M51461 48162
L51224 48162
L51224 48106
L51236 48072
L51258 48050
L51281 48038
L51326 48027
L51359 48027
L51404 48038
L51427 48050
L51449 48072
L51461 48106
L51461 48162
" />
<path d="M52437 49024
L52201 49024
" />
<path d="M52313 49024
L52313 48889
" />
<path d="M52437 48889
L52201 48889
" />
<path d="M52201 48811
L52437 48732
L52201 48653
" />
<path d="M52460 48631
L52460 48451
" />
<path d="M52201 48349
L52201 48304
L52212 48282
L52235 48259
L52280 48248
L52358 48248
L52403 48259
L52426 48282
L52437 48304
L52437 48349
L52426 48372
L52403 48394
L52358 48406
L52280 48406
L52235 48394
L52212 48372
L52201 48349
" />
<path d="M52313 48147
L52313 48068
" />
<path d="M52437 48034
L52437 48147
L52201 48147
L52201 48034
" />
<path d="M53228 48502
L53465 48344
" />
<path d="M53228 48344
L53465 48502
" />
<path d="M53251 48266
L53240 48254
L53228 48232
L53228 48176
L53240 48153
L53251 48142
L53273 48131
L53296 48131
L53330 48142
L53465 48277
L53465 48131
" />
<path d="M53232 30663
L53469 30506
" />
<path d="M53232 30506
L53469 30663
" />
<path d="M53255 30427
L53244 30416
L53232 30393
L53232 30337
L53244 30314
L53255 30303
L53277 30292
L53300 30292
L53334 30303
L53469 30438
L53469 30292
" />
<path d="M52465 30674
L52228 30674
" />
<path d="M52341 30674
L52341 30539
" />
<path d="M52465 30539
L52228 30539
" />
<path d="M52228 30460
L52465 30381
L52228 30303
" />
<path d="M52487 30280
L52487 30100
" />
<path d="M52228 29999
L52228 29954
L52240 29931
L52262 29909
L52307 29898
L52386 29898
L52431 29909
L52453 29931
L52465 29954
L52465 29999
L52453 30021
L52431 30044
L52386 30055
L52307 30055
L52262 30044
L52240 30021
L52228 29999
" />
<path d="M52341 29796
L52341 29718
" />
<path d="M52465 29684
L52465 29796
L52228 29796
L52228 29684
" />
<path d="M51267 30538
L51256 30560
L51256 30594
L51267 30628
L51290 30650
L51312 30661
L51357 30673
L51391 30673
L51436 30661
L51458 30650
L51481 30628
L51492 30594
L51492 30571
L51481 30538
L51470 30526
L51391 30526
L51391 30571
" />
<path d="M51492 30425
L51256 30425
L51492 30290
L51256 30290
" />
<path d="M51492 30178
L51256 30178
L51256 30122
L51267 30088
L51290 30065
L51312 30054
L51357 30043
L51391 30043
L51436 30054
L51458 30065
L51481 30088
L51492 30122
L51492 30178
" />
<path d="M50442 30503
L50453 30515
L50465 30548
L50465 30571
L50453 30605
L50431 30627
L50408 30638
L50363 30650
L50330 30650
L50285 30638
L50262 30627
L50240 30605
L50228 30571
L50228 30548
L50240 30515
L50251 30503
" />
<path d="M50453 30413
L50465 30380
L50465 30323
L50453 30301
L50442 30290
L50420 30278
L50397 30278
L50375 30290
L50363 30301
L50352 30323
L50341 30368
L50330 30391
L50318 30402
L50296 30413
L50273 30413
L50251 30402
L50240 30391
L50228 30368
L50228 30312
L50240 30278
" />
<path d="M28529 48330
L28540 48341
L28551 48375
L28551 48398
L28540 48431
L28517 48454
L28495 48465
L28450 48476
L28416 48476
L28371 48465
L28349 48454
L28326 48431
L28315 48398
L28315 48375
L28326 48341
L28338 48330
" />
<path d="M28540 48240
L28551 48206
L28551 48150
L28540 48128
L28529 48116
L28506 48105
L28484 48105
L28461 48116
L28450 48128
L28439 48150
L28428 48195
L28416 48218
L28405 48229
L28383 48240
L28360 48240
L28338 48229
L28326 48218
L28315 48195
L28315 48139
L28326 48105
" />
<path d="M25268 48360
L25504 48203
" />
<path d="M25268 48203
L25504 48360
" />
<path d="M25504 47989
L25504 48124
" />
<path d="M25504 48056
L25268 48056
L25302 48079
L25324 48101
L25335 48124
" />
<path d="M26516 49040
L26280 49040
" />
<path d="M26392 49040
L26392 48905
" />
<path d="M26516 48905
L26280 48905
" />
<path d="M26280 48826
L26516 48748
L26280 48669
" />
<path d="M26538 48646
L26538 48466
" />
<path d="M26280 48365
L26280 48320
L26291 48298
L26313 48275
L26358 48264
L26437 48264
L26482 48275
L26505 48298
L26516 48320
L26516 48365
L26505 48388
L26482 48410
L26437 48421
L26358 48421
L26313 48410
L26291 48388
L26280 48365
" />
<path d="M26392 48163
L26392 48084
" />
<path d="M26516 48050
L26516 48163
L26280 48163
L26280 48050
" />
<path d="M27291 48542
L27280 48564
L27280 48598
L27291 48632
L27313 48654
L27336 48665
L27381 48677
L27415 48677
L27460 48665
L27482 48654
L27505 48632
L27516 48598
L27516 48575
L27505 48542
L27493 48530
L27415 48530
L27415 48575
" />
<path d="M27516 48429
L27280 48429
L27516 48294
L27280 48294
" />
<path d="M27516 48182
L27280 48182
L27280 48125
L27291 48092
L27313 48069
L27336 48058
L27381 48047
L27415 48047
L27460 48058
L27482 48069
L27505 48092
L27516 48125
L27516 48182
" />
<path d="M28501 30578
L28512 30589
L28524 30623
L28524 30646
L28512 30679
L28490 30702
L28467 30713
L28422 30724
L28389 30724
L28344 30713
L28321 30702
L28299 30679
L28287 30646
L28287 30623
L28299 30589
L28310 30578
" />
<path d="M28512 30488
L28524 30455
L28524 30398
L28512 30376
L28501 30365
L28479 30353
L28456 30353
L28434 30365
L28422 30376
L28411 30398
L28400 30443
L28389 30466
L28377 30477
L28355 30488
L28332 30488
L28310 30477
L28299 30466
L28287 30443
L28287 30387
L28299 30353
" />
<path d="M27314 30593
L27303 30615
L27303 30649
L27314 30683
L27337 30705
L27359 30717
L27404 30728
L27438 30728
L27483 30717
L27506 30705
L27528 30683
L27539 30649
L27539 30627
L27528 30593
L27517 30582
L27438 30582
L27438 30627
" />
<path d="M27539 30480
L27303 30480
L27539 30345
L27303 30345
" />
<path d="M27539 30233
L27303 30233
L27303 30177
L27314 30143
L27337 30120
L27359 30109
L27404 30098
L27438 30098
L27483 30109
L27506 30120
L27528 30143
L27539 30177
L27539 30233
" />
<path d="M26484 30715
L26248 30715
" />
<path d="M26361 30715
L26361 30580
" />
<path d="M26484 30580
L26248 30580
" />
<path d="M26248 30501
L26484 30423
L26248 30344
" />
<path d="M26507 30321
L26507 30142
" />
<path d="M26248 30040
L26248 29995
L26259 29973
L26282 29950
L26327 29939
L26406 29939
L26451 29950
L26473 29973
L26484 29995
L26484 30040
L26473 30063
L26451 30085
L26406 30097
L26327 30097
L26282 30085
L26259 30063
L26248 30040
" />
<path d="M26361 29838
L26361 29759
" />
<path d="M26484 29725
L26484 29838
L26248 29838
L26248 29725
" />
<path d="M25213 30714
L25449 30557
" />
<path d="M25213 30557
L25449 30714
" />
<path d="M25449 30343
L25449 30478
" />
<path d="M25449 30411
L25213 30411
L25246 30433
L25269 30456
L25280 30478
" />
<path d="M24452 32219
L24647 32219
L24542 32339
L24587 32339
L24617 32354
L24632 32369
L24647 32399
L24647 32474
L24632 32504
L24617 32519
L24587 32534
L24497 32534
L24467 32519
L24452 32504
" />
</g>
<g style="fill:#000000; fill-opacity:0.0; 
stroke:#000000; stroke-width:150; stroke-opacity:1; 
stroke-linecap:round; stroke-linejoin:round;">
<path d="M90295 47645
L90295 47645
" />
</g>
<g style="fill:#000000; fill-opacity:0.0; 
stroke:#000000; stroke-width:78.7402; stroke-opacity:1; 
stroke-linecap:round; stroke-linejoin:round;">
<path d="M41702 52205
L41702 51811
" />
<path d="M41837 52205
L41837 51999
L41822 51961
L41792 51943
L41747 51943
L41717 51961
L41702 51980
" />
<path d="M41942 51943
L42062 51943
" />
<path d="M41987 51811
L41987 52149
L42002 52186
L42032 52205
L42062 52205
" />
<path d="M42122 51943
L42242 51943
" />
<path d="M42167 51811
L42167 52149
L42182 52186
L42212 52205
L42242 52205
" />
<path d="M42347 51943
L42347 52336
" />
<path d="M42347 51961
L42377 51943
L42437 51943
L42467 51961
L42482 51980
L42497 52018
L42497 52130
L42482 52168
L42467 52186
L42437 52205
L42377 52205
L42347 52186
" />
<path d="M42632 52168
L42647 52186
L42632 52205
L42617 52186
L42632 52168
L42632 52205
" />
<path d="M42632 51961
L42647 51980
L42632 51999
L42617 51980
L42632 51961
L42632 51999
" />
<path d="M43007 51793
L42737 52299
" />
<path d="M43337 51793
L43067 52299
" />
<path d="M43427 52186
L43457 52205
L43517 52205
L43547 52186
L43562 52149
L43562 52130
L43547 52093
L43517 52074
L43472 52074
L43442 52055
L43427 52018
L43427 51999
L43442 51961
L43472 51943
L43517 51943
L43547 51961
" />
<path d="M43832 52186
L43802 52205
L43742 52205
L43712 52186
L43697 52168
L43682 52130
L43682 52018
L43697 51980
L43712 51961
L43742 51943
L43802 51943
L43832 51961
" />
<path d="M43967 52205
L43967 51943
" />
<path d="M43967 51811
L43952 51830
L43967 51849
L43982 51830
L43967 51811
L43967 51849
" />
<path d="M44116 52055
L44356 52055
" />
<path d="M44506 52205
L44506 51811
" />
<path d="M44506 51961
L44536 51943
L44596 51943
L44626 51961
L44641 51980
L44656 52018
L44656 52130
L44641 52168
L44626 52186
L44596 52205
L44536 52205
L44506 52186
" />
<path d="M44836 52205
L44806 52186
L44791 52168
L44776 52130
L44776 52018
L44791 51980
L44806 51961
L44836 51943
L44881 51943
L44911 51961
L44926 51980
L44941 52018
L44941 52130
L44926 52168
L44911 52186
L44881 52205
L44836 52205
" />
<path d="M45031 51943
L45151 51943
" />
<path d="M45076 51811
L45076 52149
L45091 52186
L45121 52205
L45151 52205
" />
<path d="M45241 52186
L45271 52205
L45331 52205
L45361 52186
L45376 52149
L45376 52130
L45361 52093
L45331 52074
L45286 52074
L45256 52055
L45241 52018
L45241 51999
L45256 51961
L45286 51943
L45331 51943
L45361 51961
" />
<path d="M45511 52168
L45526 52186
L45511 52205
L45496 52186
L45511 52168
L45511 52205
" />
<path d="M45796 52186
L45766 52205
L45706 52205
L45676 52186
L45661 52168
L45646 52130
L45646 52018
L45661 51980
L45676 51961
L45706 51943
L45766 51943
L45796 51961
" />
<path d="M45976 52205
L45946 52186
L45931 52168
L45916 52130
L45916 52018
L45931 51980
L45946 51961
L45976 51943
L46021 51943
L46051 51961
L46066 51980
L46081 52018
L46081 52130
L46066 52168
L46051 52186
L46021 52205
L45976 52205
" />
<path d="M46216 52205
L46216 51943
" />
<path d="M46216 51980
L46231 51961
L46261 51943
L46306 51943
L46336 51961
L46351 51999
L46351 52205
" />
<path d="M46351 51999
L46366 51961
L46396 51943
L46441 51943
L46471 51961
L46486 51999
L46486 52205
" />
<path d="M41739 52856
L41784 52874
L41859 52874
L41889 52856
L41904 52837
L41919 52799
L41919 52762
L41904 52724
L41889 52706
L41859 52687
L41799 52668
L41769 52649
L41754 52631
L41739 52593
L41739 52556
L41754 52518
L41769 52500
L41799 52481
L41874 52481
L41919 52500
" />
<path d="M42189 52856
L42159 52874
L42099 52874
L42069 52856
L42054 52837
L42039 52799
L42039 52687
L42054 52649
L42069 52631
L42099 52612
L42159 52612
L42189 52631
" />
<path d="M42324 52874
L42324 52612
" />
<path d="M42324 52481
L42309 52500
L42324 52518
L42339 52500
L42324 52481
L42324 52518
" />
<path d="M42474 52724
L42714 52724
" />
<path d="M42969 52668
L43014 52687
L43029 52706
L43044 52743
L43044 52799
L43029 52837
L43014 52856
L42984 52874
L42864 52874
L42864 52481
L42969 52481
L42999 52500
L43014 52518
L43029 52556
L43029 52593
L43014 52631
L42999 52649
L42969 52668
L42864 52668
" />
<path d="M43224 52874
L43194 52856
L43179 52837
L43164 52799
L43164 52687
L43179 52649
L43194 52631
L43224 52612
L43269 52612
L43299 52631
L43314 52649
L43329 52687
L43329 52799
L43314 52837
L43299 52856
L43269 52874
L43224 52874
" />
<path d="M43419 52612
L43539 52612
" />
<path d="M43464 52481
L43464 52818
L43479 52856
L43509 52874
L43539 52874
" />
<path d="M43629 52856
L43659 52874
L43719 52874
L43749 52856
L43764 52818
L43764 52799
L43749 52762
L43719 52743
L43674 52743
L43644 52724
L43629 52687
L43629 52668
L43644 52631
L43674 52612
L43719 52612
L43749 52631
" />
<path d="M44139 52874
L44139 52481
" />
<path d="M44289 52612
L44289 52874
" />
<path d="M44289 52649
L44304 52631
L44334 52612
L44379 52612
L44409 52631
L44424 52668
L44424 52874
" />
<path d="M44709 52856
L44679 52874
L44619 52874
L44589 52856
L44574 52837
L44559 52799
L44559 52687
L44574 52649
L44589 52631
L44619 52612
L44679 52612
L44709 52631
" />
<path d="M44844 52837
L44859 52856
L44844 52874
L44829 52856
L44844 52837
L44844 52874
" />
<path d="M45009 52856
L45009 52874
L44994 52912
L44979 52931
" />
<path d="M45369 52518
L45384 52500
L45414 52481
L45489 52481
L45519 52500
L45534 52518
L45549 52556
L45549 52593
L45534 52649
L45354 52874
L45549 52874
" />
<path d="M45744 52481
L45774 52481
L45804 52500
L45819 52518
L45834 52556
L45849 52631
L45849 52724
L45834 52799
L45819 52837
L45804 52856
L45774 52874
L45744 52874
L45714 52856
L45699 52837
L45684 52799
L45669 52724
L45669 52631
L45684 52556
L45699 52518
L45714 52500
L45744 52481
" />
<path d="M46149 52874
L45969 52874
" />
<path d="M46059 52874
L46059 52481
L46029 52537
L45999 52574
L45969 52593
" />
<path d="M46329 52649
L46299 52631
L46284 52612
L46269 52574
L46269 52556
L46284 52518
L46299 52500
L46329 52481
L46389 52481
L46419 52500
L46434 52518
L46449 52556
L46449 52574
L46434 52612
L46419 52631
L46389 52649
L46329 52649
L46299 52668
L46284 52687
L46269 52724
L46269 52799
L46284 52837
L46299 52856
L46329 52874
L46389 52874
L46419 52856
L46434 52837
L46449 52799
L46449 52724
L46434 52687
L46419 52668
L46389 52649
" />
</g>
<g style="fill:#000000; fill-opacity:0.0; 
stroke:#000000; stroke-width:150; stroke-opacity:1; 
stroke-linecap:round; stroke-linejoin:round;">
<path d="M48956 29527
L48956 50787
" />
</g>
<g style="fill:#000000; fill-opacity:0.0; 
stroke:#000000; stroke-width:78.7402; stroke-opacity:1; 
stroke-linecap:round; stroke-linejoin:round;">
<path d="M32752 53386
L32752 52993
L32827 52993
L32872 53011
L32902 53049
L32917 53086
L32932 53161
L32932 53218
L32917 53293
L32902 53330
L32872 53368
L32827 53386
L32752 53386
" />
<path d="M33067 53386
L33067 53124
" />
<path d="M33067 53199
L33082 53161
L33097 53143
L33127 53124
L33157 53124
" />
<path d="M33307 53386
L33277 53368
L33262 53349
L33247 53311
L33247 53199
L33262 53161
L33277 53143
L33307 53124
L33352 53124
L33382 53143
L33397 53161
L33412 53199
L33412 53311
L33397 53349
L33382 53368
L33352 53386
L33307 53386
" />
<path d="M33547 53124
L33547 53517
" />
<path d="M33547 53143
L33577 53124
L33637 53124
L33667 53143
L33682 53161
L33697 53199
L33697 53311
L33682 53349
L33667 53368
L33637 53386
L33577 53386
L33547 53368
" />
<path d="M33937 53180
L33982 53199
L33997 53218
L34011 53255
L34011 53311
L33997 53349
L33982 53368
L33952 53386
L33832 53386
L33832 52993
L33937 52993
L33967 53011
L33982 53030
L33997 53068
L33997 53105
L33982 53143
L33967 53161
L33937 53180
L33832 53180
" />
<path d="M34191 53386
L34161 53368
L34146 53349
L34131 53311
L34131 53199
L34146 53161
L34161 53143
L34191 53124
L34236 53124
L34266 53143
L34281 53161
L34296 53199
L34296 53311
L34281 53349
L34266 53368
L34236 53386
L34191 53386
" />
<path d="M34386 53124
L34506 53124
" />
<path d="M34431 52993
L34431 53330
L34446 53368
L34476 53386
L34506 53386
" />
<path d="M32917 54056
L32737 54056
" />
<path d="M32827 54056
L32827 53662
L32797 53718
L32767 53756
L32737 53774
" />
<path d="M33037 53699
L33052 53681
L33082 53662
L33157 53662
L33187 53681
L33202 53699
L33217 53737
L33217 53774
L33202 53831
L33022 54056
L33217 54056
" />
<path d="M33412 53662
L33442 53662
L33472 53681
L33487 53699
L33502 53737
L33517 53812
L33517 53906
L33502 53981
L33487 54018
L33472 54037
L33442 54056
L33412 54056
L33382 54037
L33367 54018
L33352 53981
L33337 53906
L33337 53812
L33352 53737
L33367 53699
L33382 53681
L33412 53662
" />
<path d="M33652 53906
L33892 53906
" />
<path d="M34176 54037
L34146 54056
L34086 54056
L34056 54037
L34041 54018
L34026 53981
L34026 53868
L34041 53831
L34056 53812
L34086 53793
L34146 53793
L34176 53812
" />
<path d="M34311 54056
L34311 53662
" />
<path d="M34446 54056
L34446 53849
L34431 53812
L34401 53793
L34356 53793
L34326 53812
L34311 53831
" />
<path d="M34731 54056
L34731 53849
L34716 53812
L34686 53793
L34626 53793
L34596 53812
" />
<path d="M34731 54037
L34701 54056
L34626 54056
L34596 54037
L34581 53999
L34581 53962
L34596 53924
L34626 53906
L34701 53906
L34731 53887
" />
<path d="M34881 53793
L34881 54056
" />
<path d="M34881 53831
L34896 53812
L34926 53793
L34971 53793
L35001 53812
L35016 53849
L35016 54056
" />
<path d="M35166 53793
L35166 54056
" />
<path d="M35166 53831
L35181 53812
L35211 53793
L35256 53793
L35286 53812
L35301 53849
L35301 54056
" />
<path d="M35571 54037
L35541 54056
L35481 54056
L35451 54037
L35436 53999
L35436 53849
L35451 53812
L35481 53793
L35541 53793
L35571 53812
L35586 53849
L35586 53887
L35436 53924
" />
<path d="M35766 54056
L35736 54037
L35721 53999
L35721 53662
" />
<path d="M36126 53793
L36126 54187
" />
<path d="M36126 53812
L36156 53793
L36216 53793
L36246 53812
L36261 53831
L36276 53868
L36276 53981
L36261 54018
L36246 54037
L36216 54056
L36156 54056
L36126 54037
" />
<path d="M36456 54056
L36426 54037
L36411 54018
L36396 53981
L36396 53868
L36411 53831
L36426 53812
L36456 53793
L36501 53793
L36531 53812
L36546 53831
L36561 53868
L36561 53981
L36546 54018
L36531 54037
L36501 54056
L36456 54056
" />
<path d="M36831 53793
L36831 54112
L36816 54149
L36801 54168
L36771 54187
L36726 54187
L36696 54168
" />
<path d="M36831 54037
L36801 54056
L36741 54056
L36711 54037
L36696 54018
L36681 53981
L36681 53868
L36696 53831
L36711 53812
L36741 53793
L36801 53793
L36831 53812
" />
<path d="M37026 54056
L36996 54037
L36981 54018
L36966 53981
L36966 53868
L36981 53831
L36996 53812
L37026 53793
L37071 53793
L37101 53812
L37116 53831
L37131 53868
L37131 53981
L37116 54018
L37101 54037
L37071 54056
L37026 54056
" />
<path d="M37266 53906
L37506 53906
" />
<path d="M37656 53793
L37656 54187
" />
<path d="M37656 53812
L37686 53793
L37746 53793
L37776 53812
L37791 53831
L37806 53868
L37806 53981
L37791 54018
L37776 54037
L37746 54056
L37686 54056
L37656 54037
" />
<path d="M37941 54056
L37941 53793
" />
<path d="M37941 53662
L37926 53681
L37941 53699
L37956 53681
L37941 53662
L37941 53699
" />
<path d="M38091 53793
L38091 54056
" />
<path d="M38091 53831
L38106 53812
L38136 53793
L38181 53793
L38211 53812
L38226 53849
L38226 54056
" />
<path d="M38616 54056
L38616 53662
" />
<path d="M38616 53812
L38646 53793
L38706 53793
L38736 53812
L38751 53831
L38766 53868
L38766 53981
L38751 54018
L38736 54037
L38706 54056
L38646 54056
L38616 54037
" />
<path d="M38946 54056
L38916 54037
L38901 54018
L38886 53981
L38886 53868
L38901 53831
L38916 53812
L38946 53793
L38991 53793
L39021 53812
L39036 53831
L39051 53868
L39051 53981
L39036 54018
L39021 54037
L38991 54056
L38946 54056
" />
<path d="M39321 54056
L39321 53849
L39306 53812
L39276 53793
L39216 53793
L39186 53812
" />
<path d="M39321 54037
L39291 54056
L39216 54056
L39186 54037
L39171 53999
L39171 53962
L39186 53924
L39216 53906
L39291 53906
L39321 53887
" />
<path d="M39471 54056
L39471 53793
" />
<path d="M39471 53868
L39486 53831
L39501 53812
L39531 53793
L39561 53793
" />
<path d="M39801 54056
L39801 53662
" />
<path d="M39801 54037
L39771 54056
L39711 54056
L39681 54037
L39666 54018
L39651 53981
L39651 53868
L39666 53831
L39681 53812
L39711 53793
L39771 53793
L39801 53812
" />
<path d="M40161 53793
L40236 54056
L40311 53793
" />
<path d="M40401 53662
L40596 53662
L40491 53812
L40536 53812
L40566 53831
L40581 53849
L40596 53887
L40596 53981
L40581 54018
L40566 54037
L40536 54056
L40446 54056
L40416 54037
L40401 54018
" />
<path d="M40731 54018
L40746 54037
L40731 54056
L40716 54037
L40731 54018
L40731 54056
" />
<path d="M41016 53793
L41016 54056
" />
<path d="M40941 53643
L40866 53924
L41061 53924
" />
</g>
<g style="fill:#000000; fill-opacity:0.0; 
stroke:#000000; stroke-width:150; stroke-opacity:1; 
stroke-linecap:round; stroke-linejoin:round;">
<path d="M29783 50787
L48956 50787
" />
</g>
<g style="fill:#000000; fill-opacity:0.0; 
stroke:#000000; stroke-width:59.0551; stroke-opacity:1; 
stroke-linecap:round; stroke-linejoin:round;">
<path d="M27046 47823
L27046 47429
L27196 47429
L27234 47448
L27252 47467
L27271 47504
L27271 47560
L27252 47598
L27234 47617
L27196 47635
L27046 47635
" />
<path d="M27421 47467
L27440 47448
L27477 47429
L27571 47429
L27608 47448
L27627 47467
L27646 47504
L27646 47542
L27627 47598
L27402 47823
L27646 47823
" />
</g>
<g style="fill:#000000; fill-opacity:0.0; 
stroke:#000000; stroke-width:40; stroke-opacity:1; 
stroke-linecap:round; stroke-linejoin:round;">
<path d="M24695 54736
L24695 55093
L24671 55164
L24624 55212
L24552 55236
L24505 55236
" />
<path d="M25147 54902
L25147 55236
" />
<path d="M25028 54712
L24909 55069
L25219 55069
" />
<path d="M30362 57049
L30672 57049
L30505 57239
L30577 57239
L30624 57263
L30648 57287
L30672 57334
L30672 57453
L30648 57501
L30624 57525
L30577 57549
L30434 57549
L30386 57525
L30362 57501
" />
<path d="M30910 57549
L31005 57549
L31053 57525
L31077 57501
L31124 57429
L31148 57334
L31148 57144
L31124 57096
L31101 57072
L31053 57049
L30958 57049
L30910 57072
L30886 57096
L30862 57144
L30862 57263
L30886 57310
L30910 57334
L30958 57358
L31053 57358
L31101 57334
L31124 57310
L31148 57263
" />
<path d="M19277 55297
L19324 55297
L19372 55320
L19396 55344
L19420 55392
L19444 55487
L19444 55606
L19420 55701
L19396 55749
L19372 55773
L19324 55797
L19277 55797
L19229 55773
L19205 55749
L19182 55701
L19158 55606
L19158 55487
L19182 55392
L19205 55344
L19229 55320
L19277 55297
" />
</g>
<g style="fill:#000000; fill-opacity:0.0; 
stroke:#000000; stroke-width:59.0551; stroke-opacity:1; 
stroke-linecap:round; stroke-linejoin:round;">
<path d="M56504 32010
L56485 32029
L56429 32048
L56391 32048
L56335 32029
L56298 31991
L56279 31954
L56260 31879
L56260 31823
L56279 31748
L56298 31710
L56335 31673
L56391 31654
L56429 31654
L56485 31673
L56504 31691
" />
<path d="M56879 32048
L56654 32048
" />
<path d="M56766 32048
L56766 31654
L56729 31710
L56691 31748
L56654 31766
" />
<path d="M22004 32035
L21985 32054
L21929 32073
L21891 32073
L21835 32054
L21798 32016
L21779 31979
L21760 31904
L21760 31848
L21779 31773
L21798 31735
L21835 31698
L21891 31679
L21929 31679
L21985 31698
L22004 31716
" />
<path d="M22154 31716
L22173 31698
L22210 31679
L22304 31679
L22341 31698
L22360 31716
L22379 31754
L22379 31791
L22360 31848
L22135 32073
L22379 32073
" />
<path d="M56366 31091
L56235 31091
" />
<path d="M56235 31298
L56235 30904
L56423 30904
" />
<path d="M56704 31091
L56760 31110
L56779 31129
L56798 31166
L56798 31223
L56779 31260
L56760 31279
L56723 31298
L56573 31298
L56573 30904
L56704 30904
L56741 30923
L56760 30941
L56779 30979
L56779 31016
L56760 31054
L56741 31073
L56704 31091
L56573 31091
" />
<path d="M57173 31298
L56948 31298
" />
<path d="M57060 31298
L57060 30904
L57023 30960
L56985 30998
L56948 31016
" />
<path d="M21691 31116
L21560 31116
" />
<path d="M21560 31323
L21560 30929
L21748 30929
" />
<path d="M22029 31116
L22085 31135
L22104 31154
L22123 31191
L22123 31248
L22104 31285
L22085 31304
L22048 31323
L21898 31323
L21898 30929
L22029 30929
L22066 30948
L22085 30966
L22104 31004
L22104 31041
L22085 31079
L22066 31098
L22029 31116
L21898 31116
" />
<path d="M22273 30966
L22291 30948
L22329 30929
L22423 30929
L22460 30948
L22479 30966
L22498 31004
L22498 31041
L22479 31098
L22254 31323
L22498 31323
" />
<path d="M46122 54140
L45935 54271
" />
<path d="M46122 54365
L45729 54365
L45729 54215
L45748 54177
L45766 54159
L45804 54140
L45860 54140
L45898 54159
L45916 54177
L45935 54215
L45935 54365
" />
<path d="M46122 53765
L46122 53990
" />
<path d="M46122 53877
L45729 53877
L45785 53915
L45823 53952
L45841 53990
" />
<path d="M47514 54823
L47514 55142
L47533 55179
L47552 55198
L47589 55217
L47664 55217
L47702 55198
L47721 55179
L47739 55142
L47739 54823
" />
<path d="M48133 55217
L47908 55217
" />
<path d="M48021 55217
L48021 54823
L47983 54880
L47946 54917
L47908 54936
" />
</g>
<g style="fill:#000000; fill-opacity:0.0; 
stroke:#000000; stroke-width:40; stroke-opacity:1; 
stroke-linecap:round; stroke-linejoin:round;">
<path d="M39183 54716
L39183 55073
L39159 55144
L39112 55192
L39040 55216
L38993 55216
" />
<path d="M39659 54716
L39421 54716
L39398 54954
L39421 54930
L39469 54906
L39588 54906
L39636 54930
L39659 54954
L39683 55002
L39683 55121
L39659 55168
L39636 55192
L39588 55216
L39469 55216
L39421 55192
L39398 55168
" />
<path d="M32170 55414
L32170 55747
" />
<path d="M32051 55224
L31932 55581
L32241 55581
" />
<path d="M32527 55247
L32574 55247
L32622 55271
L32646 55295
L32670 55343
L32693 55438
L32693 55557
L32670 55652
L32646 55700
L32622 55724
L32574 55747
L32527 55747
L32479 55724
L32455 55700
L32432 55652
L32408 55557
L32408 55438
L32432 55343
L32455 55295
L32479 55271
L32527 55247
" />
<path d="M42439 54726
L42773 54726
L42558 55226
" />
<path d="M43034 54940
L42987 54916
L42963 54892
L42939 54845
L42939 54821
L42963 54773
L42987 54750
L43034 54726
L43130 54726
L43177 54750
L43201 54773
L43225 54821
L43225 54845
L43201 54892
L43177 54916
L43130 54940
L43034 54940
L42987 54964
L42963 54988
L42939 55035
L42939 55130
L42963 55178
L42987 55202
L43034 55226
L43130 55226
L43177 55202
L43201 55178
L43225 55130
L43225 55035
L43201 54988
L43177 54964
L43130 54940
" />
<path d="M53790 54686
L53790 55043
L53766 55115
L53718 55163
L53647 55186
L53599 55186
" />
<path d="M54242 54686
L54147 54686
L54099 54710
L54075 54734
L54028 54805
L54004 54901
L54004 55091
L54028 55139
L54051 55163
L54099 55186
L54194 55186
L54242 55163
L54266 55139
L54290 55091
L54290 54972
L54266 54924
L54242 54901
L54194 54877
L54099 54877
L54051 54901
L54028 54924
L54004 54972
" />
<path d="M47775 55550
L47727 55526
L47703 55503
L47680 55455
L47680 55431
L47703 55384
L47727 55360
L47775 55336
L47870 55336
L47918 55360
L47941 55384
L47965 55431
L47965 55455
L47941 55503
L47918 55526
L47870 55550
L47775 55550
L47727 55574
L47703 55598
L47680 55645
L47680 55741
L47703 55788
L47727 55812
L47775 55836
L47870 55836
L47918 55812
L47941 55788
L47965 55741
L47965 55645
L47941 55598
L47918 55574
L47870 55550
" />
<path d="M48275 55336
L48322 55336
L48370 55360
L48394 55384
L48418 55431
L48441 55526
L48441 55645
L48418 55741
L48394 55788
L48370 55812
L48322 55836
L48275 55836
L48227 55812
L48203 55788
L48180 55741
L48156 55645
L48156 55526
L48180 55431
L48203 55384
L48227 55360
L48275 55336
" />
<path d="M57875 58119
L57589 58119
" />
<path d="M57732 58119
L57732 57619
L57684 57691
L57637 57738
L57589 57762
" />
<path d="M58351 58119
L58065 58119
" />
<path d="M58208 58119
L58208 57619
L58161 57691
L58113 57738
L58065 57762
" />
<path d="M58589 58119
L58684 58119
L58732 58096
L58756 58072
L58803 58000
L58827 57905
L58827 57715
L58803 57667
L58780 57643
L58732 57619
L58637 57619
L58589 57643
L58565 57667
L58541 57715
L58541 57834
L58565 57881
L58589 57905
L58637 57929
L58732 57929
L58780 57905
L58803 57881
L58827 57834
" />
</g>
<g style="fill:#000000; fill-opacity:0.0; 
stroke:#000000; stroke-width:59.0551; stroke-opacity:1; 
stroke-linecap:round; stroke-linejoin:round;">
<path d="M29056 47823
L29056 47429
L29206 47429
L29244 47448
L29262 47467
L29281 47504
L29281 47560
L29262 47598
L29244 47617
L29206 47635
L29056 47635
" />
<path d="M29656 47823
L29431 47823
" />
<path d="M29544 47823
L29544 47429
L29506 47485
L29469 47523
L29431 47542
" />
<path d="M51085 31274
L51085 30880
L51235 30880
L51272 30899
L51291 30917
L51310 30955
L51310 31011
L51291 31049
L51272 31067
L51235 31086
L51085 31086
" />
<path d="M51441 30880
L51685 30880
L51554 31030
L51610 31030
L51647 31049
L51666 31067
L51685 31105
L51685 31199
L51666 31236
L51647 31255
L51610 31274
L51497 31274
L51460 31255
L51441 31236
" />
<path d="M49109 31278
L49109 30884
L49259 30884
L49296 30903
L49315 30921
L49334 30959
L49334 31015
L49315 31053
L49296 31071
L49259 31090
L49109 31090
" />
<path d="M49671 31015
L49671 31278
" />
<path d="M49578 30865
L49484 31146
L49728 31146
" />
</g>
<g style="fill:#000000; fill-opacity:0.0; 
stroke:#000000; stroke-width:47.2441; stroke-opacity:1; 
stroke-linecap:round; stroke-linejoin:round;">
<path d="M24839 31873
L24839 47920
" />
<path d="M24839 47920
L26934 47920
" />
<path d="M26934 47920
L26934 30825
" />
<path d="M26934 30825
L25887 30825
" />
<path d="M25887 30825
L25887 31873
" />
<path d="M25887 31873
L24839 31873
" />
<path d="M24839 31373
L24839 30825
" />
<path d="M24839 30825
L25387 30825
" />
</g>
<g style="fill:#000000; fill-opacity:0.0; 
stroke:#000000; stroke-width:50; stroke-opacity:1; 
stroke-linecap:round; stroke-linejoin:round;">
<path d="M19535 56768
L19535 56208
" />
<path d="M19255 56488
L19815 56488
" />
<circle cx="19535.1" cy="56488.2" r="197.99" /> 
<path d="M18936 56938
L18936 56038
" />
<path d="M19635 56938
L18936 56938
" />
<path d="M19635 57613
L19635 56938
" />
<path d="M19835 55688
L19835 55363
" />
<path d="M19635 55688
L19835 55688
" />
<path d="M19635 56038
L19635 55688
" />
<path d="M18936 56038
L19635 56038
" />
<path d="M19835 55363
L30185 55363
" />
<path d="M30185 55363
L30185 56038
" />
<path d="M30185 56038
L30884 56038
" />
<path d="M30884 56038
L30884 56938
" />
<path d="M30884 56938
L30185 56938
" />
<path d="M30185 56938
L30185 57613
" />
<path d="M30185 57613
L19635 57613
" />
<circle cx="30285.1" cy="56488.2" r="197.99" /> 
<path d="M30005 56488
L30565 56488
" />
<path d="M30285 56768
L30285 56208
" />
</g>
<g style="fill:#000000; fill-opacity:0.0; 
stroke:#000000; stroke-width:47.2441; stroke-opacity:1; 
stroke-linecap:round; stroke-linejoin:round;">
<path d="M55708 31555
L55314 31555
" />
<path d="M55314 32224
L55708 32224
" />
<path d="M23031 32224
L23425 32224
" />
<path d="M23425 31555
L23031 31555
" />
<path d="M55748 31448
L55275 31448
" />
<path d="M55275 30755
L55748 30755
" />
<path d="M22992 30755
L23464 30755
" />
<path d="M23464 31448
L22992 31448
" />
<path d="M46940 53838
L46940 54311
" />
<path d="M46248 54311
L46248 53838
" />
<path d="M48161 53460
L47468 53460
" />
<path d="M47468 54669
L48425 54669
" />
</g>
<g style="fill:#000000; fill-opacity:1.0; 
stroke:#000000; stroke-width:3.93701; stroke-opacity:1; 
stroke-linecap:round; stroke-linejoin:round;">
<polyline style="fill-rule:evenodd;"
points="31077,53099
31078,53100
31094,53118
31100,53123
31106,53129
31093,53132
31091,53132
31074,53126
31069,53109
31071,53095
31077,53099
" /> 
<polyline style="fill-rule:evenodd;"
points="39019,53107
39019,53109
39014,53127
38996,53132
38982,53130
38986,53123
38988,53123
39006,53106
39010,53100
39016,53095
39019,53107
" /> 
<polyline style="fill-rule:evenodd;"
points="31636,51704
31724,51792
31764,51752
31793,51728
31822,51710
31836,51706
31854,51704
31871,51709
31892,51723
31919,51747
31970,51795
32057,51708
32144,51622
32253,51732
32079,51907
32106,51934
32133,51962
32309,51787
32419,51896
32244,52072
32272,52099
32299,52126
32474,51952
32527,52004
32552,52031
32570,52053
32579,52066
32579,52067
32572,52077
32554,52099
32527,52127
32497,52159
32415,52242
32457,52284
32483,52314
32495,52338
32499,52362
32495,52386
32482,52411
32457,52439
32415,52482
32497,52565
32529,52598
32555,52626
32573,52647
32579,52657
32572,52668
32555,52689
32530,52715
32527,52719
32474,52772
32299,52597
32272,52624
32244,52652
32419,52827
32309,52936
32133,52762
32106,52789
32079,52816
32253,52992
32144,53102
32057,53015
31970,52928
31919,52976
31890,53001
31870,53015
31853,53019
31836,53018
31811,53007
31781,52987
31764,52972
31723,52932
31639,53017
31606,53050
31578,53077
31558,53095
31549,53102
31549,53102
31540,53095
31520,53078
31495,53053
31489,53047
31434,52992
31609,52816
31582,52789
31554,52762
31379,52936
31269,52827
31443,52652
31416,52624
31389,52597
31213,52772
31104,52662
31278,52487
31233,52440
31202,52402
31189,52370
31190,52362
31449,52362
31452,52373
31462,52389
31481,52413
31509,52444
31548,52485
31600,52538
31637,52575
31695,52632
31746,52680
31788,52719
31819,52745
31839,52760
31844,52762
31857,52755
31883,52734
31919,52702
31966,52658
32020,52605
32051,52574
32111,52514
32158,52465
32193,52428
32217,52400
32232,52379
32238,52366
32239,52362
32235,52350
32224,52333
32204,52308
32173,52274
32131,52230
32076,52174
32051,52149
31992,52090
31941,52041
31899,52003
31868,51977
31849,51963
31845,51962
31831,51969
31806,51989
31769,52022
31722,52066
31666,52120
31637,52149
31577,52209
31531,52256
31496,52293
31472,52321
31457,52342
31450,52356
31449,52362
31190,52362
31193,52339
31214,52305
31233,52284
31278,52237
31191,52149
31104,52062
31213,51952
31389,52126
31416,52099
31443,52072
31269,51896
31379,51787
31554,51962
31582,51934
31609,51907
31434,51732
31491,51674
31549,51617
31636,51704
" /> 
<polyline style="fill-rule:evenodd;"
points="33238,51952
33319,51952
33383,51953
33432,51954
33469,51955
33497,51958
33517,51961
33533,51966
33545,51971
33590,52002
33622,52045
33636,52092
33642,52132
33587,52132
33556,52131
33538,52126
33528,52116
33522,52102
33511,52072
33245,52072
33164,52072
33100,52072
33052,52073
33017,52075
32993,52077
32977,52081
32968,52085
32965,52087
32955,52108
32949,52142
32948,52182
32951,52221
32958,52254
32966,52270
32972,52277
32980,52281
32992,52285
33011,52288
33038,52290
33076,52291
33129,52292
33197,52293
33260,52294
33535,52297
33572,52325
33599,52348
33618,52372
33630,52402
33636,52441
33639,52493
33639,52520
33637,52580
33631,52624
33620,52658
33600,52686
33572,52711
33566,52716
33557,52722
33546,52727
33532,52730
33511,52733
33482,52735
33442,52737
33389,52738
33320,52738
33251,52739
33162,52740
33091,52739
33036,52739
32995,52737
32965,52735
32945,52731
32933,52728
32896,52702
32866,52664
32846,52620
32842,52602
32836,52562
32893,52562
32926,52563
32944,52568
32949,52576
32949,52577
32955,52594
32969,52612
32976,52618
32985,52623
32999,52626
33020,52629
33051,52630
33093,52631
33150,52632
33225,52632
33239,52632
33323,52632
33388,52631
33439,52629
33475,52625
33500,52618
33516,52606
33525,52590
33528,52568
33529,52540
33529,52517
33529,52484
33528,52459
33523,52439
33513,52425
33496,52414
33469,52408
33430,52404
33378,52402
33310,52402
33224,52402
33220,52402
33140,52402
33077,52401
33029,52401
32994,52399
32968,52397
32950,52394
32937,52390
32927,52384
32919,52379
32888,52356
32867,52334
32854,52306
32846,52270
32842,52220
32841,52189
32840,52138
32841,52103
32844,52078
32850,52059
32860,52040
32861,52037
32892,52000
32928,51975
32942,51968
32956,51963
32972,51958
32993,51956
33022,51954
33061,51953
33113,51952
33181,51952
33238,51952
" /> 
<polyline style="fill-rule:evenodd;"
points="34547,52009
34544,52067
34215,52069
34109,52071
34024,52072
33957,52074
33910,52077
33882,52080
33872,52083
33868,52091
33865,52107
33862,52134
33860,52174
33859,52229
33859,52301
33859,52347
33859,52425
33859,52485
33860,52530
33861,52562
33863,52584
33866,52598
33871,52607
33877,52613
33881,52616
33890,52621
33903,52624
33924,52627
33953,52629
33994,52630
34048,52631
34117,52632
34203,52632
34226,52632
34549,52632
34549,52742
34211,52741
34121,52741
34040,52740
33971,52738
33916,52736
33875,52734
33852,52731
33849,52730
33823,52716
33800,52699
33786,52684
33774,52670
33766,52654
33759,52633
33754,52604
33752,52566
33750,52516
33749,52452
33749,52371
33749,52344
33749,52262
33749,52197
33750,52148
33751,52111
33753,52084
33756,52065
33760,52052
33765,52041
33771,52031
33795,52005
33826,51981
33839,51974
33851,51968
33864,51963
33879,51959
33899,51957
33925,51954
33961,51953
34008,51952
34069,51952
34146,51952
34216,51952
34550,51952
34547,52009
" /> 
<polyline style="fill-rule:evenodd;"
points="34799,52742
34689,52742
34689,51952
34799,51952
34799,52742
" /> 
<polyline style="fill-rule:evenodd;"
points="35789,51952
36066,51952
36148,51952
36213,51952
36263,51953
36300,51954
36328,51956
36349,51960
36365,51964
36379,51969
36386,51973
36430,52005
36454,52037
36480,52080
36477,52359
36474,52638
36447,52674
36433,52691
36420,52705
36404,52716
36385,52725
36360,52731
36326,52736
36283,52739
36226,52741
36155,52741
36067,52742
36015,52742
35679,52742
35679,52355
35789,52355
35789,52432
35789,52490
35790,52534
35791,52565
35794,52586
35797,52600
35802,52608
35808,52614
35811,52616
35821,52621
35836,52625
35859,52628
35893,52630
35939,52631
36000,52632
36078,52632
36081,52632
36158,52632
36218,52631
36262,52630
36294,52629
36316,52627
36331,52623
36341,52619
36348,52613
36349,52612
36355,52604
36360,52595
36363,52581
36366,52560
36368,52528
36368,52485
36369,52427
36369,52351
36369,52350
36369,52273
36368,52213
36367,52169
36365,52137
36363,52115
36359,52101
36354,52092
36352,52090
36346,52084
36337,52080
36322,52077
36299,52075
36267,52073
36221,52072
36161,52072
36084,52072
36073,52072
35993,52072
35931,52072
35885,52073
35851,52074
35829,52076
35814,52079
35806,52083
35801,52088
35799,52091
35796,52108
35793,52142
35791,52193
35790,52258
35789,52336
35789,52355
35679,52355
35679,51692
35789,51692
35789,51952
" /> 
<polyline style="fill-rule:evenodd;"
points="37058,51952
37121,51952
37169,51953
37205,51955
37232,51957
37252,51960
37268,51965
37282,51971
37286,51973
37317,51993
37345,52017
37351,52025
37358,52035
37363,52045
37367,52058
37370,52076
37372,52103
37373,52139
37374,52187
37374,52251
37374,52331
37374,52348
37374,52433
37374,52499
37373,52551
37372,52589
37370,52617
37367,52636
37364,52650
37359,52660
37353,52668
37329,52695
37305,52716
37296,52722
37286,52727
37271,52730
37250,52733
37221,52735
37180,52737
37126,52738
37056,52738
36991,52739
36901,52740
36830,52739
36775,52739
36733,52737
36704,52735
36684,52731
36673,52728
36637,52704
36606,52669
36587,52630
36584,52619
36582,52600
36581,52565
36580,52516
36580,52455
36580,52387
36581,52351
36689,52351
36689,52427
36689,52485
36690,52529
36692,52560
36694,52581
36698,52595
36703,52604
36709,52612
36716,52618
36725,52623
36739,52626
36760,52629
36791,52630
36833,52631
36890,52632
36965,52632
36979,52632
37056,52632
37116,52631
37161,52630
37193,52629
37216,52627
37231,52623
37240,52619
37248,52613
37249,52612
37255,52604
37260,52595
37263,52581
37266,52560
37268,52528
37268,52485
37269,52427
37269,52351
37269,52350
37269,52273
37268,52213
37267,52169
37265,52137
37263,52115
37259,52101
37254,52092
37252,52090
37246,52084
37237,52080
37222,52077
37199,52075
37167,52073
37121,52072
37061,52072
36984,52072
36973,52072
36893,52072
36831,52072
36785,52073
36751,52074
36729,52076
36714,52079
36706,52083
36701,52088
36699,52091
36696,52108
36693,52142
36691,52193
36689,52258
36689,52335
36689,52351
36581,52351
36581,52322
36582,52242
36583,52180
36584,52133
36586,52098
36588,52073
36592,52055
36596,52042
36602,52031
36608,52023
36623,52003
36639,51988
36659,51975
36684,51966
36717,51960
36761,51956
36817,51953
36889,51952
36978,51952
37058,51952
" /> 
<polyline style="fill-rule:evenodd;"
points="37599,51952
37769,51952
37940,51952
37937,52009
37934,52067
37599,52072
37599,52336
37599,52416
37599,52478
37600,52524
37601,52558
37603,52581
37606,52596
37610,52606
37616,52612
37621,52616
37634,52623
37655,52627
37686,52630
37731,52631
37791,52632
37939,52632
37939,52742
37776,52741
37720,52740
37668,52738
37626,52736
37598,52733
37589,52730
37563,52716
37540,52699
37529,52688
37519,52677
37511,52665
37504,52649
37499,52629
37496,52602
37493,52566
37491,52520
37490,52462
37489,52389
37489,52301
37489,52195
37489,52157
37489,51692
37599,51692
37599,51952
" /> 
<polyline style="fill-rule:evenodd;"
points="38520,51952
38593,51953
38652,51955
38696,51958
38721,51961
38726,51962
38766,51986
38801,52021
38826,52062
38838,52103
38839,52111
38837,52123
38827,52129
38806,52131
38779,52132
38745,52131
38727,52127
38720,52120
38719,52114
38718,52101
38714,52092
38704,52085
38687,52079
38660,52076
38621,52073
38568,52072
38499,52072
38434,52072
38347,52072
38278,52073
38227,52075
38191,52077
38169,52080
38161,52084
38154,52101
38149,52133
38148,52171
38150,52211
38154,52247
38161,52271
38165,52276
38172,52281
38184,52285
38204,52287
38233,52289
38274,52291
38329,52291
38401,52292
38446,52292
38526,52292
38588,52292
38636,52293
38671,52294
38697,52296
38716,52299
38730,52304
38743,52310
38755,52317
38791,52344
38816,52380
38832,52427
38838,52487
38839,52517
38835,52586
38823,52639
38802,52679
38771,52710
38768,52713
38757,52720
38747,52725
38734,52729
38716,52732
38691,52735
38656,52736
38608,52738
38546,52739
38467,52739
38443,52740
38360,52740
38294,52741
38243,52741
38204,52740
38177,52739
38157,52736
38143,52733
38132,52728
38122,52722
38119,52719
38080,52686
38053,52646
38040,52605
38039,52595
38039,52562
38094,52562
38126,52563
38142,52566
38148,52575
38149,52581
38157,52601
38171,52616
38189,52622
38223,52626
38269,52630
38326,52632
38388,52633
38452,52634
38516,52633
38575,52631
38627,52628
38668,52625
38695,52620
38703,52616
38712,52601
38717,52576
38719,52536
38719,52517
38719,52484
38718,52458
38713,52439
38704,52424
38686,52414
38659,52407
38621,52404
38569,52402
38500,52402
38416,52402
38329,52401
38260,52401
38206,52398
38165,52395
38134,52389
38111,52381
38094,52370
38079,52355
38066,52338
38056,52322
38050,52304
38045,52279
38043,52243
38041,52192
38041,52187
38040,52135
38040,52099
38042,52074
38047,52056
38055,52040
38061,52032
38084,52005
38116,51981
38129,51974
38143,51967
38157,51962
38174,51958
38197,51955
38227,51954
38269,51952
38323,51952
38394,51952
38435,51952
38520,51952
" /> 
<polyline style="fill-rule:evenodd;"
points="35509,52402
35251,52402
35181,52401
35117,52401
35063,52400
35022,52398
34995,52397
34986,52395
34982,52382
34979,52356
34979,52335
34979,52282
35509,52282
35509,52402
" /> 
<polyline style="fill-rule:evenodd;"
points="34799,51812
34689,51812
34689,51692
34799,51692
34799,51812
" /> 
<polyline style="fill-rule:evenodd;"
points="31106,51604
31101,51610
31100,51611
31082,51627
31078,51633
31071,51639
31069,51626
31069,51624
31074,51606
31091,51602
31106,51604
" /> 
<polyline style="fill-rule:evenodd;"
points="39016,51609
39019,51622
39018,51637
39013,51638
38999,51624
38996,51621
38985,51607
38988,51602
38999,51602
39016,51609
" /> 
</g>
<g style="fill:#000000; fill-opacity:1.0; 
stroke:#000000; stroke-width:50; stroke-opacity:1; 
stroke-linecap:round; stroke-linejoin:round;">
</g>
<g style="fill:#000000; fill-opacity:0.0; 
stroke:#000000; stroke-width:50; stroke-opacity:1; 
stroke-linecap:round; stroke-linejoin:round;">
<path d="M32745 56768
L32745 56208
" />
<path d="M32465 56488
L33025 56488
" />
<circle cx="32745.1" cy="56488.2" r="197.99" /> 
<path d="M32146 56938
L32146 56038
" />
<path d="M32845 56938
L32146 56938
" />
<path d="M32845 57613
L32845 56938
" />
<path d="M33045 55688
L33045 55363
" />
<path d="M32845 55688
L33045 55688
" />
<path d="M32845 56038
L32845 55688
" />
<path d="M32146 56038
L32845 56038
" />
<path d="M33045 55363
L45895 55363
" />
<path d="M45895 55363
L45895 56038
" />
<path d="M45895 56038
L46594 56038
" />
<path d="M46594 56038
L46594 56938
" />
<path d="M46594 56938
L45895 56938
" />
<path d="M45895 56938
L45895 57613
" />
<path d="M45895 57613
L32845 57613
" />
<circle cx="45995.1" cy="56488.2" r="197.99" /> 
<path d="M45715 56488
L46275 56488
" />
<path d="M45995 56768
L45995 56208
" />
<path d="M48455 56768
L48455 56208
" />
<path d="M48175 56488
L48735 56488
" />
<circle cx="48455.1" cy="56488.2" r="197.99" /> 
<path d="M47856 56938
L47856 56038
" />
<path d="M48555 56938
L47856 56938
" />
<path d="M48555 57613
L48555 56938
" />
<path d="M48755 55688
L48755 55363
" />
<path d="M48555 55688
L48755 55688
" />
<path d="M48555 56038
L48555 55688
" />
<path d="M47856 56038
L48555 56038
" />
<path d="M48755 55363
L59105 55363
" />
<path d="M59105 55363
L59105 56038
" />
<path d="M59105 56038
L59804 56038
" />
<path d="M59804 56038
L59804 56938
" />
<path d="M59804 56938
L59105 56938
" />
<path d="M59105 56938
L59105 57613
" />
<path d="M59105 57613
L48555 57613
" />
<circle cx="59205.1" cy="56488.2" r="197.99" /> 
<path d="M58925 56488
L59485 56488
" />
<path d="M59205 56768
L59205 56208
" />
</g>
<g style="fill:#000000; fill-opacity:0.0; 
stroke:#000000; stroke-width:47.2441; stroke-opacity:1; 
stroke-linecap:round; stroke-linejoin:round;">
<path d="M26849 31873
L26849 47920
" />
<path d="M26849 47920
L28944 47920
" />
<path d="M28944 47920
L28944 30825
" />
<path d="M28944 30825
L27897 30825
" />
<path d="M27897 30825
L27897 31873
" />
<path d="M27897 31873
L26849 31873
" />
<path d="M26849 31373
L26849 30825
" />
<path d="M26849 30825
L27397 30825
" />
<path d="M53873 46868
L53873 30820
" />
<path d="M53873 30820
L51778 30820
" />
<path d="M51778 30820
L51778 47915
" />
<path d="M51778 47915
L52826 47915
" />
<path d="M52826 47915
L52826 46868
" />
<path d="M52826 46868
L53873 46868
" />
<path d="M53873 47368
L53873 47915
" />
<path d="M53873 47915
L53326 47915
" />
<path d="M51897 46872
L51897 30824
" />
<path d="M51897 30824
L49802 30824
" />
<path d="M49802 30824
L49802 47919
" />
<path d="M49802 47919
L50850 47919
" />
<path d="M50850 47919
L50850 46872
" />
<path d="M50850 46872
L51897 46872
" />
<path d="M51897 47372
L51897 47919
" />
<path d="M51897 47919
L51350 47919
" />
</g>
<g style="fill:#000000; fill-opacity:1.0; 
stroke:#000000; stroke-width:0; stroke-opacity:1; 
stroke-linecap:round; stroke-linejoin:round;">
<circle cx="19535.1" cy="56488.2" r="344.488" /> 
</g>
<g style="fill:#000000; fill-opacity:1.0; 
stroke:#000000; stroke-width:39.3701; stroke-opacity:1; 
stroke-linecap:round; stroke-linejoin:round;">
</g>
<g style="fill:#000000; fill-opacity:1.0; 
stroke:#000000; stroke-width:0; stroke-opacity:1; 
stroke-linecap:round; stroke-linejoin:round;">
<circle cx="30285.1" cy="56488.2" r="344.488" /> 
</g>
<g style="fill:#000000; fill-opacity:1.0; 
stroke:#000000; stroke-width:39.3701; stroke-opacity:1; 
stroke-linecap:round; stroke-linejoin:round;">
</g>
<g style="fill:#000000; fill-opacity:1.0; 
stroke:#000000; stroke-width:0; stroke-opacity:1; 
stroke-linecap:round; stroke-linejoin:round;">
<circle cx="32745.1" cy="56488.2" r="344.488" /> 
</g>
<g style="fill:#000000; fill-opacity:1.0; 
stroke:#000000; stroke-width:39.3701; stroke-opacity:1; 
stroke-linecap:round; stroke-linejoin:round;">
</g>
<g style="fill:#000000; fill-opacity:1.0; 
stroke:#000000; stroke-width:0; stroke-opacity:1; 
stroke-linecap:round; stroke-linejoin:round;">
<circle cx="45995.1" cy="56488.2" r="344.488" /> 
</g>
<g style="fill:#000000; fill-opacity:1.0; 
stroke:#000000; stroke-width:39.3701; stroke-opacity:1; 
stroke-linecap:round; stroke-linejoin:round;">
</g>
<g style="fill:#000000; fill-opacity:1.0; 
stroke:#000000; stroke-width:0; stroke-opacity:1; 
stroke-linecap:round; stroke-linejoin:round;">
<circle cx="48455.1" cy="56488.2" r="344.488" /> 
</g>
<g style="fill:#000000; fill-opacity:1.0; 
stroke:#000000; stroke-width:39.3701; stroke-opacity:1; 
stroke-linecap:round; stroke-linejoin:round;">
</g>
<g style="fill:#000000; fill-opacity:1.0; 
stroke:#000000; stroke-width:0; stroke-opacity:1; 
stroke-linecap:round; stroke-linejoin:round;">
<circle cx="59205.1" cy="56488.2" r="344.488" /> 
</g>
<g style="fill:#000000; fill-opacity:1.0; 
stroke:#000000; stroke-width:39.3701; stroke-opacity:1; 
stroke-linecap:round; stroke-linejoin:round;">
</g> 
</svg>
