<?xml version="1.0" standalone="no"?>
 <!DOCTYPE svg PUBLIC "-//W3C//DTD SVG 1.1//EN" 
 "http://www.w3.org/Graphics/SVG/1.1/DTD/svg11.dtd"> 
<svg xmlns="http://www.w3.org/2000/svg" version="1.1" 
    width="27.94cm" height="21.59cm" viewBox="0 0 110000 85000 ">
<title>SVG Picture created as 120-channel pogo pin board-F.SilkS.svg date 2019/06/26 12:44:53 </title>
  <desc>Picture generated by PCBNEW </desc>
<g style="fill:#000000; fill-opacity:1;stroke:#000000; stroke-opacity:1;
stroke-linecap:round; stroke-linejoin:round; "
 transform="translate(0 0) scale(1 1)">
</g>
<g style="fill:#000000; fill-opacity:0.0; 
stroke:#000000; stroke-width:-0.000393701; stroke-opacity:1; 
stroke-linecap:round; stroke-linejoin:round;">
</g>
<g style="fill:#000000; fill-opacity:0.0; 
stroke:#000000; stroke-width:39.3701; stroke-opacity:1; 
stroke-linecap:round; stroke-linejoin:round;">
</g>
<g style="fill:#000000; fill-opacity:0.0; 
stroke:#000000; stroke-width:59.0551; stroke-opacity:1; 
stroke-linecap:round; stroke-linejoin:round;">
<rect x="62755.9" y="67677.2" width="42519.7" height="12598.4" rx="0" />
</g>
<g style="fill:#000000; fill-opacity:0.0; 
stroke:#000000; stroke-width:39.3701; stroke-opacity:1; 
stroke-linecap:round; stroke-linejoin:round;">
</g>
<g style="fill:#000000; fill-opacity:0.0; 
stroke:#000000; stroke-width:59.0551; stroke-opacity:1; 
stroke-linecap:round; stroke-linejoin:round;">
<rect x="3937.01" y="3937.01" width="102126" height="77126" rx="0" />
</g>
<g style="fill:#000000; fill-opacity:0.0; 
stroke:#000000; stroke-width:39.3701; stroke-opacity:1; 
stroke-linecap:round; stroke-linejoin:round;">
</g>
<g style="fill:#000000; fill-opacity:0.0; 
stroke:#000000; stroke-width:59.0551; stroke-opacity:1; 
stroke-linecap:round; stroke-linejoin:round;">
<rect x="4724.41" y="4724.41" width="100551" height="75551.2" rx="0" />
</g>
<g style="fill:#000000; fill-opacity:0.0; 
stroke:#000000; stroke-width:39.3701; stroke-opacity:1; 
stroke-linecap:round; stroke-linejoin:round;">
</g>
<g style="fill:#000000; fill-opacity:0.0; 
stroke:#000000; stroke-width:59.0551; stroke-opacity:1; 
stroke-linecap:round; stroke-linejoin:round;">
<path d="M23622 4724
L23622 3937
" />
</g>
<g style="fill:#000000; fill-opacity:0.0; 
stroke:#000000; stroke-width:39.3701; stroke-opacity:1; 
stroke-linecap:round; stroke-linejoin:round;">
</g>
<g style="fill:#000000; fill-opacity:0.0; 
stroke:#000000; stroke-width:59.0551; stroke-opacity:1; 
stroke-linecap:round; stroke-linejoin:round;">
<path d="M43307 4724
L43307 3937
" />
</g>
<g style="fill:#000000; fill-opacity:0.0; 
stroke:#000000; stroke-width:39.3701; stroke-opacity:1; 
stroke-linecap:round; stroke-linejoin:round;">
</g>
<g style="fill:#000000; fill-opacity:0.0; 
stroke:#000000; stroke-width:59.0551; stroke-opacity:1; 
stroke-linecap:round; stroke-linejoin:round;">
<path d="M62992 4724
L62992 3937
" />
</g>
<g style="fill:#000000; fill-opacity:0.0; 
stroke:#000000; stroke-width:39.3701; stroke-opacity:1; 
stroke-linecap:round; stroke-linejoin:round;">
</g>
<g style="fill:#000000; fill-opacity:0.0; 
stroke:#000000; stroke-width:59.0551; stroke-opacity:1; 
stroke-linecap:round; stroke-linejoin:round;">
<path d="M82677 4724
L82677 3937
" />
</g>
<g style="fill:#000000; fill-opacity:0.0; 
stroke:#000000; stroke-width:39.3701; stroke-opacity:1; 
stroke-linecap:round; stroke-linejoin:round;">
</g>
<g style="fill:#000000; fill-opacity:0.0; 
stroke:#000000; stroke-width:59.0551; stroke-opacity:1; 
stroke-linecap:round; stroke-linejoin:round;">
<path d="M102362 4724
L102362 3937
" />
</g>
<g style="fill:#000000; fill-opacity:0.0; 
stroke:#000000; stroke-width:39.3701; stroke-opacity:1; 
stroke-linecap:round; stroke-linejoin:round;">
</g>
<g style="fill:#000000; fill-opacity:0.0; 
stroke:#000000; stroke-width:59.0551; stroke-opacity:1; 
stroke-linecap:round; stroke-linejoin:round;">
<path d="M14169 4562
L13877 4562
" />
<path d="M14023 4562
L14023 4050
L13974 4123
L13925 4172
L13877 4196
" />
</g>
<g style="fill:#000000; fill-opacity:0.0; 
stroke:#000000; stroke-width:39.3701; stroke-opacity:1; 
stroke-linecap:round; stroke-linejoin:round;">
</g>
<g style="fill:#000000; fill-opacity:0.0; 
stroke:#000000; stroke-width:59.0551; stroke-opacity:1; 
stroke-linecap:round; stroke-linejoin:round;">
<path d="M33562 4099
L33586 4074
L33635 4050
L33757 4050
L33805 4074
L33830 4099
L33854 4147
L33854 4196
L33830 4269
L33537 4562
L33854 4562
" />
</g>
<g style="fill:#000000; fill-opacity:0.0; 
stroke:#000000; stroke-width:39.3701; stroke-opacity:1; 
stroke-linecap:round; stroke-linejoin:round;">
</g>
<g style="fill:#000000; fill-opacity:0.0; 
stroke:#000000; stroke-width:59.0551; stroke-opacity:1; 
stroke-linecap:round; stroke-linejoin:round;">
<path d="M53222 4050
L53539 4050
L53368 4245
L53442 4245
L53490 4269
L53515 4294
L53539 4342
L53539 4464
L53515 4513
L53490 4537
L53442 4562
L53295 4562
L53247 4537
L53222 4513
" />
</g>
<g style="fill:#000000; fill-opacity:0.0; 
stroke:#000000; stroke-width:39.3701; stroke-opacity:1; 
stroke-linecap:round; stroke-linejoin:round;">
</g>
<g style="fill:#000000; fill-opacity:0.0; 
stroke:#000000; stroke-width:59.0551; stroke-opacity:1; 
stroke-linecap:round; stroke-linejoin:round;">
<path d="M73175 4221
L73175 4562
" />
<path d="M73053 4026
L72932 4391
L73248 4391
" />
</g>
<g style="fill:#000000; fill-opacity:0.0; 
stroke:#000000; stroke-width:39.3701; stroke-opacity:1; 
stroke-linecap:round; stroke-linejoin:round;">
</g>
<g style="fill:#000000; fill-opacity:0.0; 
stroke:#000000; stroke-width:59.0551; stroke-opacity:1; 
stroke-linecap:round; stroke-linejoin:round;">
<path d="M92885 4050
L92641 4050
L92617 4294
L92641 4269
L92690 4245
L92812 4245
L92860 4269
L92885 4294
L92909 4342
L92909 4464
L92885 4513
L92860 4537
L92812 4562
L92690 4562
L92641 4537
L92617 4513
" />
</g>
<g style="fill:#000000; fill-opacity:0.0; 
stroke:#000000; stroke-width:39.3701; stroke-opacity:1; 
stroke-linecap:round; stroke-linejoin:round;">
</g>
<g style="fill:#000000; fill-opacity:0.0; 
stroke:#000000; stroke-width:59.0551; stroke-opacity:1; 
stroke-linecap:round; stroke-linejoin:round;">
<path d="M23622 80275
L23622 81062
" />
</g>
<g style="fill:#000000; fill-opacity:0.0; 
stroke:#000000; stroke-width:39.3701; stroke-opacity:1; 
stroke-linecap:round; stroke-linejoin:round;">
</g>
<g style="fill:#000000; fill-opacity:0.0; 
stroke:#000000; stroke-width:59.0551; stroke-opacity:1; 
stroke-linecap:round; stroke-linejoin:round;">
<path d="M43307 80275
L43307 81062
" />
</g>
<g style="fill:#000000; fill-opacity:0.0; 
stroke:#000000; stroke-width:39.3701; stroke-opacity:1; 
stroke-linecap:round; stroke-linejoin:round;">
</g>
<g style="fill:#000000; fill-opacity:0.0; 
stroke:#000000; stroke-width:59.0551; stroke-opacity:1; 
stroke-linecap:round; stroke-linejoin:round;">
<path d="M62992 80275
L62992 81062
" />
</g>
<g style="fill:#000000; fill-opacity:0.0; 
stroke:#000000; stroke-width:39.3701; stroke-opacity:1; 
stroke-linecap:round; stroke-linejoin:round;">
</g>
<g style="fill:#000000; fill-opacity:0.0; 
stroke:#000000; stroke-width:59.0551; stroke-opacity:1; 
stroke-linecap:round; stroke-linejoin:round;">
<path d="M82677 80275
L82677 81062
" />
</g>
<g style="fill:#000000; fill-opacity:0.0; 
stroke:#000000; stroke-width:39.3701; stroke-opacity:1; 
stroke-linecap:round; stroke-linejoin:round;">
</g>
<g style="fill:#000000; fill-opacity:0.0; 
stroke:#000000; stroke-width:59.0551; stroke-opacity:1; 
stroke-linecap:round; stroke-linejoin:round;">
<path d="M102362 80275
L102362 81062
" />
</g>
<g style="fill:#000000; fill-opacity:0.0; 
stroke:#000000; stroke-width:39.3701; stroke-opacity:1; 
stroke-linecap:round; stroke-linejoin:round;">
</g>
<g style="fill:#000000; fill-opacity:0.0; 
stroke:#000000; stroke-width:59.0551; stroke-opacity:1; 
stroke-linecap:round; stroke-linejoin:round;">
<path d="M14169 80900
L13877 80900
" />
<path d="M14023 80900
L14023 80389
L13974 80462
L13925 80510
L13877 80535
" />
</g>
<g style="fill:#000000; fill-opacity:0.0; 
stroke:#000000; stroke-width:39.3701; stroke-opacity:1; 
stroke-linecap:round; stroke-linejoin:round;">
</g>
<g style="fill:#000000; fill-opacity:0.0; 
stroke:#000000; stroke-width:59.0551; stroke-opacity:1; 
stroke-linecap:round; stroke-linejoin:round;">
<path d="M33562 80437
L33586 80413
L33635 80389
L33757 80389
L33805 80413
L33830 80437
L33854 80486
L33854 80535
L33830 80608
L33537 80900
L33854 80900
" />
</g>
<g style="fill:#000000; fill-opacity:0.0; 
stroke:#000000; stroke-width:39.3701; stroke-opacity:1; 
stroke-linecap:round; stroke-linejoin:round;">
</g>
<g style="fill:#000000; fill-opacity:0.0; 
stroke:#000000; stroke-width:59.0551; stroke-opacity:1; 
stroke-linecap:round; stroke-linejoin:round;">
<path d="M53222 80389
L53539 80389
L53368 80583
L53442 80583
L53490 80608
L53515 80632
L53539 80681
L53539 80803
L53515 80852
L53490 80876
L53442 80900
L53295 80900
L53247 80876
L53222 80852
" />
</g>
<g style="fill:#000000; fill-opacity:0.0; 
stroke:#000000; stroke-width:39.3701; stroke-opacity:1; 
stroke-linecap:round; stroke-linejoin:round;">
</g>
<g style="fill:#000000; fill-opacity:0.0; 
stroke:#000000; stroke-width:59.0551; stroke-opacity:1; 
stroke-linecap:round; stroke-linejoin:round;">
<path d="M73175 80559
L73175 80900
" />
<path d="M73053 80364
L72932 80730
L73248 80730
" />
</g>
<g style="fill:#000000; fill-opacity:0.0; 
stroke:#000000; stroke-width:39.3701; stroke-opacity:1; 
stroke-linecap:round; stroke-linejoin:round;">
</g>
<g style="fill:#000000; fill-opacity:0.0; 
stroke:#000000; stroke-width:59.0551; stroke-opacity:1; 
stroke-linecap:round; stroke-linejoin:round;">
<path d="M92885 80389
L92641 80389
L92617 80632
L92641 80608
L92690 80583
L92812 80583
L92860 80608
L92885 80632
L92909 80681
L92909 80803
L92885 80852
L92860 80876
L92812 80900
L92690 80900
L92641 80876
L92617 80852
" />
</g>
<g style="fill:#000000; fill-opacity:0.0; 
stroke:#000000; stroke-width:39.3701; stroke-opacity:1; 
stroke-linecap:round; stroke-linejoin:round;">
</g>
<g style="fill:#000000; fill-opacity:0.0; 
stroke:#000000; stroke-width:59.0551; stroke-opacity:1; 
stroke-linecap:round; stroke-linejoin:round;">
<path d="M3937 23622
L4724 23622
" />
</g>
<g style="fill:#000000; fill-opacity:0.0; 
stroke:#000000; stroke-width:39.3701; stroke-opacity:1; 
stroke-linecap:round; stroke-linejoin:round;">
</g>
<g style="fill:#000000; fill-opacity:0.0; 
stroke:#000000; stroke-width:59.0551; stroke-opacity:1; 
stroke-linecap:round; stroke-linejoin:round;">
<path d="M3937 43307
L4724 43307
" />
</g>
<g style="fill:#000000; fill-opacity:0.0; 
stroke:#000000; stroke-width:39.3701; stroke-opacity:1; 
stroke-linecap:round; stroke-linejoin:round;">
</g>
<g style="fill:#000000; fill-opacity:0.0; 
stroke:#000000; stroke-width:59.0551; stroke-opacity:1; 
stroke-linecap:round; stroke-linejoin:round;">
<path d="M3937 62992
L4724 62992
" />
</g>
<g style="fill:#000000; fill-opacity:0.0; 
stroke:#000000; stroke-width:39.3701; stroke-opacity:1; 
stroke-linecap:round; stroke-linejoin:round;">
</g>
<g style="fill:#000000; fill-opacity:0.0; 
stroke:#000000; stroke-width:59.0551; stroke-opacity:1; 
stroke-linecap:round; stroke-linejoin:round;">
<path d="M4208 13864
L4452 13864
" />
<path d="M4160 14011
L4330 13499
L4501 14011
" />
</g>
<g style="fill:#000000; fill-opacity:0.0; 
stroke:#000000; stroke-width:39.3701; stroke-opacity:1; 
stroke-linecap:round; stroke-linejoin:round;">
</g>
<g style="fill:#000000; fill-opacity:0.0; 
stroke:#000000; stroke-width:59.0551; stroke-opacity:1; 
stroke-linecap:round; stroke-linejoin:round;">
<path d="M4367 33428
L4440 33452
L4464 33476
L4489 33525
L4489 33598
L4464 33647
L4440 33671
L4391 33696
L4196 33696
L4196 33184
L4367 33184
L4416 33208
L4440 33233
L4464 33281
L4464 33330
L4440 33379
L4416 33403
L4367 33428
L4196 33428
" />
</g>
<g style="fill:#000000; fill-opacity:0.0; 
stroke:#000000; stroke-width:39.3701; stroke-opacity:1; 
stroke-linecap:round; stroke-linejoin:round;">
</g>
<g style="fill:#000000; fill-opacity:0.0; 
stroke:#000000; stroke-width:59.0551; stroke-opacity:1; 
stroke-linecap:round; stroke-linejoin:round;">
<path d="M4489 53332
L4464 53356
L4391 53381
L4342 53381
L4269 53356
L4221 53308
L4196 53259
L4172 53161
L4172 53088
L4196 52991
L4221 52942
L4269 52893
L4342 52869
L4391 52869
L4464 52893
L4489 52918
" />
</g>
<g style="fill:#000000; fill-opacity:0.0; 
stroke:#000000; stroke-width:39.3701; stroke-opacity:1; 
stroke-linecap:round; stroke-linejoin:round;">
</g>
<g style="fill:#000000; fill-opacity:0.0; 
stroke:#000000; stroke-width:59.0551; stroke-opacity:1; 
stroke-linecap:round; stroke-linejoin:round;">
<path d="M4196 73066
L4196 72554
L4318 72554
L4391 72578
L4440 72627
L4464 72676
L4489 72773
L4489 72846
L4464 72944
L4440 72993
L4391 73041
L4318 73066
L4196 73066
" />
</g>
<g style="fill:#000000; fill-opacity:0.0; 
stroke:#000000; stroke-width:39.3701; stroke-opacity:1; 
stroke-linecap:round; stroke-linejoin:round;">
</g>
<g style="fill:#000000; fill-opacity:0.0; 
stroke:#000000; stroke-width:59.0551; stroke-opacity:1; 
stroke-linecap:round; stroke-linejoin:round;">
<path d="M106062 23622
L105275 23622
" />
</g>
<g style="fill:#000000; fill-opacity:0.0; 
stroke:#000000; stroke-width:39.3701; stroke-opacity:1; 
stroke-linecap:round; stroke-linejoin:round;">
</g>
<g style="fill:#000000; fill-opacity:0.0; 
stroke:#000000; stroke-width:59.0551; stroke-opacity:1; 
stroke-linecap:round; stroke-linejoin:round;">
<path d="M106062 43307
L105275 43307
" />
</g>
<g style="fill:#000000; fill-opacity:0.0; 
stroke:#000000; stroke-width:39.3701; stroke-opacity:1; 
stroke-linecap:round; stroke-linejoin:round;">
</g>
<g style="fill:#000000; fill-opacity:0.0; 
stroke:#000000; stroke-width:59.0551; stroke-opacity:1; 
stroke-linecap:round; stroke-linejoin:round;">
<path d="M106062 62992
L105275 62992
" />
</g>
<g style="fill:#000000; fill-opacity:0.0; 
stroke:#000000; stroke-width:39.3701; stroke-opacity:1; 
stroke-linecap:round; stroke-linejoin:round;">
</g>
<g style="fill:#000000; fill-opacity:0.0; 
stroke:#000000; stroke-width:59.0551; stroke-opacity:1; 
stroke-linecap:round; stroke-linejoin:round;">
<path d="M105547 13864
L105791 13864
" />
<path d="M105498 14011
L105669 13499
L105839 14011
" />
</g>
<g style="fill:#000000; fill-opacity:0.0; 
stroke:#000000; stroke-width:39.3701; stroke-opacity:1; 
stroke-linecap:round; stroke-linejoin:round;">
</g>
<g style="fill:#000000; fill-opacity:0.0; 
stroke:#000000; stroke-width:59.0551; stroke-opacity:1; 
stroke-linecap:round; stroke-linejoin:round;">
<path d="M105705 33428
L105778 33452
L105803 33476
L105827 33525
L105827 33598
L105803 33647
L105778 33671
L105730 33696
L105535 33696
L105535 33184
L105705 33184
L105754 33208
L105778 33233
L105803 33281
L105803 33330
L105778 33379
L105754 33403
L105705 33428
L105535 33428
" />
</g>
<g style="fill:#000000; fill-opacity:0.0; 
stroke:#000000; stroke-width:39.3701; stroke-opacity:1; 
stroke-linecap:round; stroke-linejoin:round;">
</g>
<g style="fill:#000000; fill-opacity:0.0; 
stroke:#000000; stroke-width:59.0551; stroke-opacity:1; 
stroke-linecap:round; stroke-linejoin:round;">
<path d="M105827 53332
L105803 53356
L105730 53381
L105681 53381
L105608 53356
L105559 53308
L105535 53259
L105510 53161
L105510 53088
L105535 52991
L105559 52942
L105608 52893
L105681 52869
L105730 52869
L105803 52893
L105827 52918
" />
</g>
<g style="fill:#000000; fill-opacity:0.0; 
stroke:#000000; stroke-width:39.3701; stroke-opacity:1; 
stroke-linecap:round; stroke-linejoin:round;">
</g>
<g style="fill:#000000; fill-opacity:0.0; 
stroke:#000000; stroke-width:59.0551; stroke-opacity:1; 
stroke-linecap:round; stroke-linejoin:round;">
<path d="M105535 73066
L105535 72554
L105657 72554
L105730 72578
L105778 72627
L105803 72676
L105827 72773
L105827 72846
L105803 72944
L105778 72993
L105730 73041
L105657 73066
L105535 73066
" />
</g>
<g style="fill:#000000; fill-opacity:0.0; 
stroke:#000000; stroke-width:39.3701; stroke-opacity:1; 
stroke-linecap:round; stroke-linejoin:round;">
</g>
<g style="fill:#000000; fill-opacity:0.0; 
stroke:#000000; stroke-width:59.0551; stroke-opacity:1; 
stroke-linecap:round; stroke-linejoin:round;">
<path d="M71951 78613
L71951 78023
L72092 78023
L72176 78051
L72232 78107
L72260 78163
L72289 78276
L72289 78360
L72260 78473
L72232 78529
L72176 78585
L72092 78613
L71951 78613
" />
<path d="M72795 78613
L72795 78304
L72767 78248
L72710 78219
L72598 78219
L72542 78248
" />
<path d="M72795 78585
L72739 78613
L72598 78613
L72542 78585
L72514 78529
L72514 78473
L72542 78416
L72598 78388
L72739 78388
L72795 78360
" />
<path d="M72992 78219
L73217 78219
" />
<path d="M73076 78023
L73076 78529
L73104 78585
L73160 78613
L73217 78613
" />
<path d="M73638 78585
L73582 78613
L73470 78613
L73413 78585
L73385 78529
L73385 78304
L73413 78248
L73470 78219
L73582 78219
L73638 78248
L73667 78304
L73667 78360
L73385 78416
" />
<path d="M73920 78557
L73948 78585
L73920 78613
L73892 78585
L73920 78557
L73920 78613
" />
<path d="M73920 78248
L73948 78276
L73920 78304
L73892 78276
L73920 78248
L73920 78304
" />
<path d="M74623 78079
L74651 78051
L74707 78023
L74848 78023
L74904 78051
L74932 78079
L74960 78135
L74960 78191
L74932 78276
L74595 78613
L74960 78613
" />
<path d="M75326 78023
L75382 78023
L75438 78051
L75466 78079
L75494 78135
L75523 78248
L75523 78388
L75494 78501
L75466 78557
L75438 78585
L75382 78613
L75326 78613
L75269 78585
L75241 78557
L75213 78501
L75185 78388
L75185 78248
L75213 78135
L75241 78079
L75269 78051
L75326 78023
" />
<path d="M76085 78613
L75748 78613
" />
<path d="M75916 78613
L75916 78023
L75860 78107
L75804 78163
L75748 78191
" />
<path d="M76366 78613
L76479 78613
L76535 78585
L76563 78557
L76619 78473
L76647 78360
L76647 78135
L76619 78079
L76591 78051
L76535 78023
L76422 78023
L76366 78051
L76338 78079
L76310 78135
L76310 78276
L76338 78332
L76366 78360
L76422 78388
L76535 78388
L76591 78360
L76619 78332
L76647 78276
" />
<path d="M76901 78388
L77350 78388
" />
<path d="M77744 78023
L77800 78023
L77857 78051
L77885 78079
L77913 78135
L77941 78248
L77941 78388
L77913 78501
L77885 78557
L77857 78585
L77800 78613
L77744 78613
L77688 78585
L77660 78557
L77632 78501
L77604 78388
L77604 78248
L77632 78135
L77660 78079
L77688 78051
L77744 78023
" />
<path d="M78447 78023
L78335 78023
L78278 78051
L78250 78079
L78194 78163
L78166 78276
L78166 78501
L78194 78557
L78222 78585
L78278 78613
L78391 78613
L78447 78585
L78475 78557
L78503 78501
L78503 78360
L78475 78304
L78447 78276
L78391 78248
L78278 78248
L78222 78276
L78194 78304
L78166 78360
" />
<path d="M78757 78388
L79206 78388
" />
<path d="M79460 78079
L79488 78051
L79544 78023
L79685 78023
L79741 78051
L79769 78079
L79797 78135
L79797 78191
L79769 78276
L79431 78613
L79797 78613
" />
<path d="M80331 78023
L80050 78023
L80022 78304
L80050 78276
L80106 78248
L80247 78248
L80303 78276
L80331 78304
L80359 78360
L80359 78501
L80331 78557
L80303 78585
L80247 78613
L80106 78613
L80050 78585
L80022 78557
" />
</g>
<g style="fill:#000000; fill-opacity:0.0; 
stroke:#000000; stroke-width:39.3701; stroke-opacity:1; 
stroke-linecap:round; stroke-linejoin:round;">
</g>
<g style="fill:#000000; fill-opacity:0.0; 
stroke:#000000; stroke-width:59.0551; stroke-opacity:1; 
stroke-linecap:round; stroke-linejoin:round;">
<path d="M62755 78897
L105275 78897
" />
</g>
<g style="fill:#000000; fill-opacity:0.0; 
stroke:#000000; stroke-width:39.3701; stroke-opacity:1; 
stroke-linecap:round; stroke-linejoin:round;">
</g>
<g style="fill:#000000; fill-opacity:0.0; 
stroke:#000000; stroke-width:59.0551; stroke-opacity:1; 
stroke-linecap:round; stroke-linejoin:round;">
<path d="M63290 79715
L63290 79125
" />
<path d="M63627 79715
L63374 79378
" />
<path d="M63627 79125
L63290 79462
" />
<path d="M63880 79715
L63880 79322
" />
<path d="M63880 79125
L63852 79153
L63880 79181
L63908 79153
L63880 79125
L63880 79181
" />
<path d="M64499 79659
L64471 79687
L64386 79715
L64330 79715
L64246 79687
L64190 79631
L64161 79575
L64133 79462
L64133 79378
L64161 79266
L64190 79209
L64246 79153
L64330 79125
L64386 79125
L64471 79153
L64499 79181
" />
<path d="M65005 79715
L65005 79406
L64977 79350
L64921 79322
L64808 79322
L64752 79350
" />
<path d="M65005 79687
L64949 79715
L64808 79715
L64752 79687
L64724 79631
L64724 79575
L64752 79519
L64808 79491
L64949 79491
L65005 79462
" />
<path d="M65539 79715
L65539 79125
" />
<path d="M65539 79687
L65483 79715
L65371 79715
L65314 79687
L65286 79659
L65258 79603
L65258 79434
L65286 79378
L65314 79350
L65371 79322
L65483 79322
L65539 79350
" />
<path d="M66271 79406
L66467 79406
" />
<path d="M66552 79715
L66271 79715
L66271 79125
L66552 79125
" />
<path d="M66805 79659
L66833 79687
L66805 79715
L66777 79687
L66805 79659
L66805 79715
" />
<path d="M67086 79715
L67086 79125
L67227 79125
L67311 79153
L67367 79209
L67395 79266
L67424 79378
L67424 79462
L67395 79575
L67367 79631
L67311 79687
L67227 79715
L67086 79715
" />
<path d="M67677 79659
L67705 79687
L67677 79715
L67649 79687
L67677 79659
L67677 79715
" />
<path d="M67930 79547
L68211 79547
" />
<path d="M67874 79715
L68070 79125
L68267 79715
" />
<path d="M68464 79659
L68492 79687
L68464 79715
L68436 79687
L68464 79659
L68464 79715
" />
<path d="M69645 79715
L69645 79125
" />
<path d="M69701 79491
L69870 79715
" />
<path d="M69870 79322
L69645 79547
" />
<path d="M70123 79715
L70123 79322
" />
<path d="M70123 79125
L70095 79153
L70123 79181
L70151 79153
L70123 79125
L70123 79181
" />
<path d="M70658 79687
L70601 79715
L70489 79715
L70433 79687
L70404 79659
L70376 79603
L70376 79434
L70404 79378
L70433 79350
L70489 79322
L70601 79322
L70658 79350
" />
<path d="M71164 79715
L71164 79406
L71136 79350
L71079 79322
L70967 79322
L70911 79350
" />
<path d="M71164 79687
L71107 79715
L70967 79715
L70911 79687
L70883 79631
L70883 79575
L70911 79519
L70967 79491
L71107 79491
L71164 79462
" />
<path d="M71698 79715
L71698 79125
" />
<path d="M71698 79687
L71642 79715
L71529 79715
L71473 79687
L71445 79659
L71417 79603
L71417 79434
L71445 79378
L71473 79350
L71529 79322
L71642 79322
L71698 79350
" />
<path d="M72682 79322
L72682 79715
" />
<path d="M72542 79097
L72401 79519
L72767 79519
" />
<path d="M72992 79659
L73020 79687
L72992 79715
L72964 79687
L72992 79659
L72992 79715
" />
<path d="M73385 79125
L73442 79125
L73498 79153
L73526 79181
L73554 79237
L73582 79350
L73582 79491
L73554 79603
L73526 79659
L73498 79687
L73442 79715
L73385 79715
L73329 79687
L73301 79659
L73273 79603
L73245 79491
L73245 79350
L73273 79237
L73301 79181
L73329 79153
L73385 79125
" />
<path d="M73835 79659
L73863 79687
L73835 79715
L73807 79687
L73835 79659
L73835 79715
" />
<path d="M74370 79125
L74257 79125
L74201 79153
L74173 79181
L74116 79266
L74088 79378
L74088 79603
L74116 79659
L74145 79687
L74201 79715
L74313 79715
L74370 79687
L74398 79659
L74426 79603
L74426 79462
L74398 79406
L74370 79378
L74313 79350
L74201 79350
L74145 79378
L74116 79406
L74088 79462
" />
</g>
<g style="fill:#000000; fill-opacity:0.0; 
stroke:#000000; stroke-width:39.3701; stroke-opacity:1; 
stroke-linecap:round; stroke-linejoin:round;">
</g>
<g style="fill:#000000; fill-opacity:0.0; 
stroke:#000000; stroke-width:59.0551; stroke-opacity:1; 
stroke-linecap:round; stroke-linejoin:round;">
<path d="M62755 77716
L105275 77716
" />
</g>
<g style="fill:#000000; fill-opacity:0.0; 
stroke:#000000; stroke-width:39.3701; stroke-opacity:1; 
stroke-linecap:round; stroke-linejoin:round;">
</g>
<g style="fill:#000000; fill-opacity:0.0; 
stroke:#000000; stroke-width:118.11; stroke-opacity:1; 
stroke-linecap:round; stroke-linejoin:round;">
<path d="M97092 78613
L96895 78332
" />
<path d="M96754 78613
L96754 78023
L96979 78023
L97035 78051
L97064 78079
L97092 78135
L97092 78219
L97064 78276
L97035 78304
L96979 78332
L96754 78332
" />
<path d="M97570 78585
L97514 78613
L97401 78613
L97345 78585
L97317 78529
L97317 78304
L97345 78248
L97401 78219
L97514 78219
L97570 78248
L97598 78304
L97598 78360
L97317 78416
" />
<path d="M97795 78219
L97935 78613
L98076 78219
" />
<path d="M98301 78557
L98329 78585
L98301 78613
L98273 78585
L98301 78557
L98301 78613
" />
<path d="M98301 78248
L98329 78276
L98301 78304
L98273 78276
L98301 78248
L98301 78304
" />
<path d="M98976 78219
L99116 78613
L99257 78219
" />
<path d="M99426 78023
L99791 78023
L99595 78248
L99679 78248
L99735 78276
L99763 78304
L99791 78360
L99791 78501
L99763 78557
L99735 78585
L99679 78613
L99510 78613
L99454 78585
L99426 78557
" />
<path d="M100044 78557
L100073 78585
L100044 78613
L100016 78585
L100044 78557
L100044 78613
" />
<path d="M100607 78023
L100326 78023
L100298 78304
L100326 78276
L100382 78248
L100523 78248
L100579 78276
L100607 78304
L100635 78360
L100635 78501
L100607 78557
L100579 78585
L100523 78613
L100382 78613
L100326 78585
L100298 78557
" />
</g>
<g style="fill:#000000; fill-opacity:0.0; 
stroke:#000000; stroke-width:39.3701; stroke-opacity:1; 
stroke-linecap:round; stroke-linejoin:round;">
</g>
<g style="fill:#000000; fill-opacity:0.0; 
stroke:#000000; stroke-width:59.0551; stroke-opacity:1; 
stroke-linecap:round; stroke-linejoin:round;">
<path d="M63262 78585
L63346 78613
L63487 78613
L63543 78585
L63571 78557
L63599 78501
L63599 78444
L63571 78388
L63543 78360
L63487 78332
L63374 78304
L63318 78276
L63290 78248
L63262 78191
L63262 78135
L63290 78079
L63318 78051
L63374 78023
L63515 78023
L63599 78051
" />
<path d="M63852 78613
L63852 78219
" />
<path d="M63852 78023
L63824 78051
L63852 78079
L63880 78051
L63852 78023
L63852 78079
" />
<path d="M64077 78219
L64386 78219
L64077 78613
L64386 78613
" />
<path d="M64836 78585
L64780 78613
L64668 78613
L64611 78585
L64583 78529
L64583 78304
L64611 78248
L64668 78219
L64780 78219
L64836 78248
L64865 78304
L64865 78360
L64583 78416
" />
<path d="M65118 78557
L65146 78585
L65118 78613
L65089 78585
L65118 78557
L65118 78613
" />
<path d="M65118 78248
L65146 78276
L65118 78304
L65089 78276
L65118 78248
L65118 78304
" />
<path d="M65849 78023
L65849 78501
L65877 78557
L65905 78585
L65961 78613
L66074 78613
L66130 78585
L66158 78557
L66186 78501
L66186 78023
" />
<path d="M66439 78585
L66524 78613
L66664 78613
L66721 78585
L66749 78557
L66777 78501
L66777 78444
L66749 78388
L66721 78360
L66664 78332
L66552 78304
L66496 78276
L66467 78248
L66439 78191
L66439 78135
L66467 78079
L66496 78051
L66552 78023
L66692 78023
L66777 78051
" />
<path d="M67311 78613
L67030 78613
L67030 78023
" />
<path d="M67733 78585
L67677 78613
L67564 78613
L67508 78585
L67480 78529
L67480 78304
L67508 78248
L67564 78219
L67677 78219
L67733 78248
L67761 78304
L67761 78360
L67480 78416
" />
<path d="M67930 78219
L68155 78219
" />
<path d="M68014 78023
L68014 78529
L68042 78585
L68098 78613
L68155 78613
" />
<path d="M68267 78219
L68492 78219
" />
<path d="M68352 78023
L68352 78529
L68380 78585
L68436 78613
L68492 78613
" />
<path d="M68914 78585
L68858 78613
L68745 78613
L68689 78585
L68661 78529
L68661 78304
L68689 78248
L68745 78219
L68858 78219
L68914 78248
L68942 78304
L68942 78360
L68661 78416
" />
<path d="M69195 78613
L69195 78219
" />
<path d="M69195 78332
L69223 78276
L69251 78248
L69308 78219
L69364 78219
" />
</g>
<g style="fill:#000000; fill-opacity:0.0; 
stroke:#000000; stroke-width:39.3701; stroke-opacity:1; 
stroke-linecap:round; stroke-linejoin:round;">
</g>
<g style="fill:#000000; fill-opacity:0.0; 
stroke:#000000; stroke-width:59.0551; stroke-opacity:1; 
stroke-linecap:round; stroke-linejoin:round;">
<path d="M96754 79715
L96754 79125
" />
<path d="M97289 79715
L97289 79125
" />
<path d="M97289 79687
L97232 79715
L97120 79715
L97064 79687
L97035 79659
L97007 79603
L97007 79434
L97035 79378
L97064 79350
L97120 79322
L97232 79322
L97289 79350
" />
<path d="M97570 79659
L97598 79687
L97570 79715
L97542 79687
L97570 79659
L97570 79715
" />
<path d="M97570 79350
L97598 79378
L97570 79406
L97542 79378
L97570 79350
L97570 79406
" />
<path d="M98610 79715
L98273 79715
" />
<path d="M98442 79715
L98442 79125
L98385 79209
L98329 79266
L98273 79294
" />
<path d="M99285 79097
L98779 79856
" />
<path d="M99791 79715
L99454 79715
" />
<path d="M99623 79715
L99623 79125
L99566 79209
L99510 79266
L99454 79294
" />
</g>
<g style="fill:#000000; fill-opacity:0.0; 
stroke:#000000; stroke-width:39.3701; stroke-opacity:1; 
stroke-linecap:round; stroke-linejoin:round;">
</g>
<g style="fill:#000000; fill-opacity:0.0; 
stroke:#000000; stroke-width:59.0551; stroke-opacity:1; 
stroke-linecap:round; stroke-linejoin:round;">
<path d="M62755 76141
L105275 76141
" />
</g>
<g style="fill:#000000; fill-opacity:0.0; 
stroke:#000000; stroke-width:39.3701; stroke-opacity:1; 
stroke-linecap:round; stroke-linejoin:round;">
</g>
<g style="fill:#000000; fill-opacity:0.0; 
stroke:#000000; stroke-width:157.48; stroke-opacity:1; 
stroke-linecap:round; stroke-linejoin:round;">
<path d="M63327 76419
L63777 76419
" />
<path d="M63454 77206
L63552 76419
" />
<path d="M63941 77206
L64007 76681
" />
<path d="M64040 76419
L63997 76456
L64030 76494
L64072 76456
L64040 76419
L64030 76494
" />
<path d="M64269 76681
L64569 76681
" />
<path d="M64415 76419
L64330 77094
L64358 77169
L64429 77206
L64504 77206
" />
<path d="M64879 77206
L64808 77169
L64780 77094
L64865 76419
" />
<path d="M65483 77169
L65404 77206
L65254 77206
L65183 77169
L65155 77094
L65193 76794
L65239 76719
L65319 76681
L65469 76681
L65539 76719
L65568 76794
L65558 76869
L65174 76944
" />
<path d="M65863 77131
L65896 77169
L65853 77206
L65821 77169
L65863 77131
L65853 77206
" />
<path d="M65914 76719
L65947 76756
L65905 76794
L65872 76756
L65914 76719
L65905 76794
" />
<path d="M67241 77206
L66791 77206
" />
<path d="M67016 77206
L67114 76419
L67025 76531
L66941 76606
L66861 76644
" />
<path d="M67630 76494
L67672 76456
L67752 76419
L67939 76419
L68009 76456
L68042 76494
L68070 76569
L68061 76644
L68009 76756
L67503 77206
L67991 77206
" />
<path d="M68577 76419
L68652 76419
L68722 76456
L68755 76494
L68783 76569
L68802 76719
L68778 76906
L68722 77056
L68675 77131
L68633 77169
L68553 77206
L68478 77206
L68408 77169
L68375 77131
L68347 77056
L68328 76906
L68352 76719
L68408 76569
L68455 76494
L68497 76456
L68577 76419
" />
<path d="M69116 76906
L69715 76906
" />
<path d="M70395 77169
L70315 77206
L70165 77206
L70095 77169
L70062 77131
L70034 77056
L70062 76831
L70109 76756
L70151 76719
L70231 76681
L70381 76681
L70451 76719
" />
<path d="M70728 77206
L70826 76419
" />
<path d="M71065 77206
L71117 76794
L71089 76719
L71018 76681
L70906 76681
L70826 76719
L70784 76756
" />
<path d="M71778 77206
L71829 76794
L71801 76719
L71731 76681
L71581 76681
L71501 76719
" />
<path d="M71782 77169
L71703 77206
L71515 77206
L71445 77169
L71417 77094
L71426 77019
L71473 76944
L71553 76906
L71740 76906
L71820 76869
" />
<path d="M72218 76681
L72153 77206
" />
<path d="M72209 76756
L72251 76719
L72331 76681
L72443 76681
L72514 76719
L72542 76794
L72490 77206
" />
<path d="M72931 76681
L72865 77206
" />
<path d="M72921 76756
L72964 76719
L73043 76681
L73156 76681
L73226 76719
L73254 76794
L73203 77206
" />
<path d="M73882 77169
L73802 77206
L73652 77206
L73582 77169
L73554 77094
L73592 76794
L73638 76719
L73718 76681
L73868 76681
L73938 76719
L73967 76794
L73957 76869
L73573 76944
" />
<path d="M74365 77206
L74295 77169
L74266 77094
L74351 76419
" />
<path d="M75330 76681
L75232 77469
" />
<path d="M75326 76719
L75405 76681
L75555 76681
L75626 76719
L75658 76756
L75687 76831
L75658 77056
L75612 77131
L75569 77169
L75490 77206
L75340 77206
L75269 77169
" />
<path d="M76090 77206
L76019 77169
L75987 77131
L75958 77056
L75987 76831
L76033 76756
L76076 76719
L76155 76681
L76268 76681
L76338 76719
L76371 76756
L76399 76831
L76371 77056
L76324 77131
L76282 77169
L76202 77206
L76090 77206
" />
<path d="M77093 76681
L77013 77319
L76966 77394
L76924 77431
L76844 77469
L76732 77469
L76661 77431
" />
<path d="M77032 77169
L76952 77206
L76802 77206
L76732 77169
L76699 77131
L76671 77056
L76699 76831
L76746 76756
L76788 76719
L76868 76681
L77018 76681
L77088 76719
" />
<path d="M77514 77206
L77444 77169
L77411 77131
L77383 77056
L77411 76831
L77458 76756
L77500 76719
L77580 76681
L77693 76681
L77763 76719
L77796 76756
L77824 76831
L77796 77056
L77749 77131
L77707 77169
L77627 77206
L77514 77206
" />
<path d="M78780 76681
L78682 77469
" />
<path d="M78775 76719
L78855 76681
L79005 76681
L79075 76719
L79108 76756
L79136 76831
L79108 77056
L79061 77131
L79019 77169
L78939 77206
L78789 77206
L78719 77169
" />
<path d="M79427 77206
L79492 76681
" />
<path d="M79525 76419
L79483 76456
L79516 76494
L79558 76456
L79525 76419
L79516 76494
" />
<path d="M79867 76681
L79802 77206
" />
<path d="M79858 76756
L79900 76719
L79980 76681
L80092 76681
L80163 76719
L80191 76794
L80139 77206
" />
<path d="M81114 77206
L81212 76419
" />
<path d="M81175 76719
L81255 76681
L81405 76681
L81475 76719
L81508 76756
L81536 76831
L81508 77056
L81461 77131
L81419 77169
L81339 77206
L81189 77206
L81119 77169
" />
<path d="M81939 77206
L81869 77169
L81836 77131
L81808 77056
L81836 76831
L81883 76756
L81925 76719
L82005 76681
L82117 76681
L82187 76719
L82220 76756
L82248 76831
L82220 77056
L82173 77131
L82131 77169
L82051 77206
L81939 77206
" />
<path d="M82876 77206
L82928 76794
L82900 76719
L82829 76681
L82679 76681
L82600 76719
" />
<path d="M82881 77169
L82801 77206
L82614 77206
L82544 77169
L82515 77094
L82525 77019
L82572 76944
L82651 76906
L82839 76906
L82919 76869
" />
<path d="M83251 77206
L83317 76681
" />
<path d="M83298 76831
L83345 76756
L83387 76719
L83467 76681
L83542 76681
" />
<path d="M84076 77206
L84175 76419
" />
<path d="M84081 77169
L84001 77206
L83851 77206
L83781 77169
L83748 77131
L83720 77056
L83748 76831
L83795 76756
L83837 76719
L83917 76681
L84067 76681
L84137 76719
" />
</g>
<g style="fill:#000000; fill-opacity:0.0; 
stroke:#000000; stroke-width:39.3701; stroke-opacity:1; 
stroke-linecap:round; stroke-linejoin:round;">
</g>
<g style="fill:#000000; fill-opacity:0.0; 
stroke:#000000; stroke-width:59.0551; stroke-opacity:1; 
stroke-linecap:round; stroke-linejoin:round;">
<path d="M63487 75390
L63290 75390
" />
<path d="M63290 75700
L63290 75109
L63571 75109
" />
<path d="M63796 75700
L63796 75306
" />
<path d="M63796 75109
L63768 75137
L63796 75165
L63824 75137
L63796 75109
L63796 75165
" />
<path d="M64161 75700
L64105 75672
L64077 75615
L64077 75109
" />
<path d="M64611 75672
L64555 75700
L64443 75700
L64386 75672
L64358 75615
L64358 75390
L64386 75334
L64443 75306
L64555 75306
L64611 75334
L64640 75390
L64640 75447
L64358 75503
" />
<path d="M64893 75643
L64921 75672
L64893 75700
L64865 75672
L64893 75643
L64893 75700
" />
<path d="M64893 75334
L64921 75362
L64893 75390
L64865 75362
L64893 75334
L64893 75390
" />
<path d="M65933 75700
L65596 75700
" />
<path d="M65764 75700
L65764 75109
L65708 75194
L65652 75250
L65596 75278
" />
<path d="M66158 75165
L66186 75137
L66242 75109
L66383 75109
L66439 75137
L66467 75165
L66496 75222
L66496 75278
L66467 75362
L66130 75700
L66496 75700
" />
<path d="M66861 75109
L66917 75109
L66974 75137
L67002 75165
L67030 75222
L67058 75334
L67058 75475
L67030 75587
L67002 75643
L66974 75672
L66917 75700
L66861 75700
L66805 75672
L66777 75643
L66749 75587
L66721 75475
L66721 75334
L66749 75222
L66777 75165
L66805 75137
L66861 75109
" />
<path d="M67311 75475
L67761 75475
" />
<path d="M68295 75672
L68239 75700
L68127 75700
L68070 75672
L68042 75643
L68014 75587
L68014 75419
L68042 75362
L68070 75334
L68127 75306
L68239 75306
L68295 75334
" />
<path d="M68548 75700
L68548 75109
" />
<path d="M68802 75700
L68802 75390
L68773 75334
L68717 75306
L68633 75306
L68577 75334
L68548 75362
" />
<path d="M69336 75700
L69336 75390
L69308 75334
L69251 75306
L69139 75306
L69083 75334
" />
<path d="M69336 75672
L69280 75700
L69139 75700
L69083 75672
L69055 75615
L69055 75559
L69083 75503
L69139 75475
L69280 75475
L69336 75447
" />
<path d="M69617 75306
L69617 75700
" />
<path d="M69617 75362
L69645 75334
L69701 75306
L69786 75306
L69842 75334
L69870 75390
L69870 75700
" />
<path d="M70151 75306
L70151 75700
" />
<path d="M70151 75362
L70179 75334
L70236 75306
L70320 75306
L70376 75334
L70404 75390
L70404 75700
" />
<path d="M70911 75672
L70854 75700
L70742 75700
L70686 75672
L70658 75615
L70658 75390
L70686 75334
L70742 75306
L70854 75306
L70911 75334
L70939 75390
L70939 75447
L70658 75503
" />
<path d="M71276 75700
L71220 75672
L71192 75615
L71192 75109
" />
<path d="M71951 75306
L71951 75897
" />
<path d="M71951 75334
L72007 75306
L72120 75306
L72176 75334
L72204 75362
L72232 75419
L72232 75587
L72204 75643
L72176 75672
L72120 75700
L72007 75700
L71951 75672
" />
<path d="M72570 75700
L72514 75672
L72485 75643
L72457 75587
L72457 75419
L72485 75362
L72514 75334
L72570 75306
L72654 75306
L72710 75334
L72739 75362
L72767 75419
L72767 75587
L72739 75643
L72710 75672
L72654 75700
L72570 75700
" />
<path d="M73273 75306
L73273 75784
L73245 75840
L73217 75868
L73160 75897
L73076 75897
L73020 75868
" />
<path d="M73273 75672
L73217 75700
L73104 75700
L73048 75672
L73020 75643
L72992 75587
L72992 75419
L73020 75362
L73048 75334
L73104 75306
L73217 75306
L73273 75334
" />
<path d="M73638 75700
L73582 75672
L73554 75643
L73526 75587
L73526 75419
L73554 75362
L73582 75334
L73638 75306
L73723 75306
L73779 75334
L73807 75362
L73835 75419
L73835 75587
L73807 75643
L73779 75672
L73723 75700
L73638 75700
" />
<path d="M74538 75306
L74538 75897
" />
<path d="M74538 75334
L74595 75306
L74707 75306
L74763 75334
L74791 75362
L74820 75419
L74820 75587
L74791 75643
L74763 75672
L74707 75700
L74595 75700
L74538 75672
" />
<path d="M75073 75700
L75073 75306
" />
<path d="M75073 75109
L75044 75137
L75073 75165
L75101 75137
L75073 75109
L75073 75165
" />
<path d="M75354 75306
L75354 75700
" />
<path d="M75354 75362
L75382 75334
L75438 75306
L75523 75306
L75579 75334
L75607 75390
L75607 75700
" />
<path d="M76338 75700
L76338 75109
" />
<path d="M76338 75334
L76394 75306
L76507 75306
L76563 75334
L76591 75362
L76619 75419
L76619 75587
L76591 75643
L76563 75672
L76507 75700
L76394 75700
L76338 75672
" />
<path d="M76957 75700
L76901 75672
L76872 75643
L76844 75587
L76844 75419
L76872 75362
L76901 75334
L76957 75306
L77041 75306
L77097 75334
L77125 75362
L77154 75419
L77154 75587
L77125 75643
L77097 75672
L77041 75700
L76957 75700
" />
<path d="M77660 75700
L77660 75390
L77632 75334
L77575 75306
L77463 75306
L77407 75334
" />
<path d="M77660 75672
L77604 75700
L77463 75700
L77407 75672
L77379 75615
L77379 75559
L77407 75503
L77463 75475
L77604 75475
L77660 75447
" />
<path d="M77941 75700
L77941 75306
" />
<path d="M77941 75419
L77969 75362
L77997 75334
L78053 75306
L78110 75306
" />
<path d="M78560 75700
L78560 75109
" />
<path d="M78560 75672
L78503 75700
L78391 75700
L78335 75672
L78307 75643
L78278 75587
L78278 75419
L78307 75362
L78335 75334
L78391 75306
L78503 75306
L78560 75334
" />
<path d="M78841 75643
L78869 75672
L78841 75700
L78813 75672
L78841 75643
L78841 75700
" />
<path d="M79122 75700
L79122 75109
" />
<path d="M79178 75475
L79347 75700
" />
<path d="M79347 75306
L79122 75531
" />
<path d="M79600 75700
L79600 75306
" />
<path d="M79600 75109
L79572 75137
L79600 75165
L79628 75137
L79600 75109
L79600 75165
" />
<path d="M80134 75672
L80078 75700
L79966 75700
L79910 75672
L79881 75643
L79853 75587
L79853 75419
L79881 75362
L79910 75334
L79966 75306
L80078 75306
L80134 75334
" />
<path d="M80641 75700
L80641 75390
L80613 75334
L80556 75306
L80444 75306
L80388 75334
" />
<path d="M80641 75672
L80584 75700
L80444 75700
L80388 75672
L80359 75615
L80359 75559
L80388 75503
L80444 75475
L80584 75475
L80641 75447
" />
<path d="M81175 75700
L81175 75109
" />
<path d="M81175 75672
L81119 75700
L81006 75700
L80950 75672
L80922 75643
L80894 75587
L80894 75419
L80922 75362
L80950 75334
L81006 75306
L81119 75306
L81175 75334
" />
<path d="M81316 75756
L81766 75756
" />
<path d="M81906 75306
L81906 75897
" />
<path d="M81906 75334
L81962 75306
L82075 75306
L82131 75334
L82159 75362
L82187 75419
L82187 75587
L82159 75643
L82131 75672
L82075 75700
L81962 75700
L81906 75672
" />
<path d="M82694 75672
L82637 75700
L82525 75700
L82469 75672
L82440 75643
L82412 75587
L82412 75419
L82440 75362
L82469 75334
L82525 75306
L82637 75306
L82694 75334
" />
<path d="M82947 75700
L82947 75109
" />
<path d="M82947 75334
L83003 75306
L83115 75306
L83172 75334
L83200 75362
L83228 75419
L83228 75587
L83200 75643
L83172 75672
L83115 75700
L83003 75700
L82947 75672
" />
</g>
<g style="fill:#000000; fill-opacity:0.0; 
stroke:#000000; stroke-width:39.3701; stroke-opacity:1; 
stroke-linecap:round; stroke-linejoin:round;">
</g>
<g style="fill:#000000; fill-opacity:0.0; 
stroke:#000000; stroke-width:59.0551; stroke-opacity:1; 
stroke-linecap:round; stroke-linejoin:round;">
<path d="M62755 73779
L105275 73779
" />
</g>
<g style="fill:#000000; fill-opacity:0.0; 
stroke:#000000; stroke-width:39.3701; stroke-opacity:1; 
stroke-linecap:round; stroke-linejoin:round;">
</g>
<g style="fill:#000000; fill-opacity:0.0; 
stroke:#000000; stroke-width:59.0551; stroke-opacity:1; 
stroke-linecap:round; stroke-linejoin:round;">
<path d="M63262 74609
L63346 74637
L63487 74637
L63543 74609
L63571 74580
L63599 74524
L63599 74468
L63571 74412
L63543 74384
L63487 74356
L63374 74327
L63318 74299
L63290 74271
L63262 74215
L63262 74159
L63290 74102
L63318 74074
L63374 74046
L63515 74046
L63599 74074
" />
<path d="M63852 74637
L63852 74046
" />
<path d="M64105 74637
L64105 74327
L64077 74271
L64021 74243
L63937 74243
L63880 74271
L63852 74299
" />
<path d="M64611 74609
L64555 74637
L64443 74637
L64386 74609
L64358 74552
L64358 74327
L64386 74271
L64443 74243
L64555 74243
L64611 74271
L64640 74327
L64640 74384
L64358 74440
" />
<path d="M65118 74609
L65061 74637
L64949 74637
L64893 74609
L64865 74552
L64865 74327
L64893 74271
L64949 74243
L65061 74243
L65118 74271
L65146 74327
L65146 74384
L64865 74440
" />
<path d="M65314 74243
L65539 74243
" />
<path d="M65399 74046
L65399 74552
L65427 74609
L65483 74637
L65539 74637
" />
<path d="M65736 74580
L65764 74609
L65736 74637
L65708 74609
L65736 74580
L65736 74637
" />
<path d="M65736 74271
L65764 74299
L65736 74327
L65708 74299
L65736 74271
L65736 74327
" />
</g>
<g style="fill:#000000; fill-opacity:0.0; 
stroke:#000000; stroke-width:39.3701; stroke-opacity:1; 
stroke-linecap:round; stroke-linejoin:round;">
</g>
<g style="fill:#000000; fill-opacity:0.0; 
stroke:#000000; stroke-width:118.11; stroke-opacity:1; 
stroke-linecap:round; stroke-linejoin:round;">
<path d="M63262 73428
L63346 73456
L63487 73456
L63543 73428
L63571 73399
L63599 73343
L63599 73287
L63571 73231
L63543 73203
L63487 73174
L63374 73146
L63318 73118
L63290 73090
L63262 73034
L63262 72978
L63290 72921
L63318 72893
L63374 72865
L63515 72865
L63599 72893
" />
<path d="M64105 73428
L64049 73456
L63937 73456
L63880 73428
L63852 73399
L63824 73343
L63824 73174
L63852 73118
L63880 73090
L63937 73062
L64049 73062
L64105 73090
" />
<path d="M64358 73456
L64358 73062
" />
<path d="M64358 72865
L64330 72893
L64358 72921
L64386 72893
L64358 72865
L64358 72921
" />
<path d="M64640 73231
L65089 73231
" />
<path d="M65568 73146
L65652 73174
L65680 73203
L65708 73259
L65708 73343
L65680 73399
L65652 73428
L65596 73456
L65371 73456
L65371 72865
L65568 72865
L65624 72893
L65652 72921
L65680 72978
L65680 73034
L65652 73090
L65624 73118
L65568 73146
L65371 73146
" />
<path d="M66046 73456
L65989 73428
L65961 73399
L65933 73343
L65933 73174
L65961 73118
L65989 73090
L66046 73062
L66130 73062
L66186 73090
L66214 73118
L66242 73174
L66242 73343
L66214 73399
L66186 73428
L66130 73456
L66046 73456
" />
<path d="M66411 73062
L66636 73062
" />
<path d="M66496 72865
L66496 73371
L66524 73428
L66580 73456
L66636 73456
" />
<path d="M66805 73428
L66861 73456
L66974 73456
L67030 73428
L67058 73371
L67058 73343
L67030 73287
L66974 73259
L66889 73259
L66833 73231
L66805 73174
L66805 73146
L66833 73090
L66889 73062
L66974 73062
L67030 73090
" />
<path d="M67761 73456
L67761 72865
" />
<path d="M68042 73062
L68042 73456
" />
<path d="M68042 73118
L68070 73090
L68127 73062
L68211 73062
L68267 73090
L68295 73146
L68295 73456
" />
<path d="M68830 73428
L68773 73456
L68661 73456
L68605 73428
L68577 73399
L68548 73343
L68548 73174
L68577 73118
L68605 73090
L68661 73062
L68773 73062
L68830 73090
" />
<path d="M69083 73399
L69111 73428
L69083 73456
L69055 73428
L69083 73399
L69083 73456
" />
</g>
<g style="fill:#000000; fill-opacity:0.0; 
stroke:#000000; stroke-width:39.3701; stroke-opacity:1; 
stroke-linecap:round; stroke-linejoin:round;">
</g>
<g style="fill:#000000; fill-opacity:0.0; 
stroke:#000000; stroke-width:59.0551; stroke-opacity:1; 
stroke-linecap:round; stroke-linejoin:round;">
<path d="M70629 77716
L70629 78897
" />
</g>
<g style="fill:#000000; fill-opacity:0.0; 
stroke:#000000; stroke-width:39.3701; stroke-opacity:1; 
stroke-linecap:round; stroke-linejoin:round;">
</g>
<g style="fill:#000000; fill-opacity:0.0; 
stroke:#000000; stroke-width:59.0551; stroke-opacity:1; 
stroke-linecap:round; stroke-linejoin:round;">
<path d="M95826 77716
L95826 80275
" />
</g>
<g style="fill:#000000; fill-opacity:0.0; 
stroke:#000000; stroke-width:150; stroke-opacity:1; 
stroke-linecap:round; stroke-linejoin:round;">
<path d="M18070 57185
L18070 30708
" />
<path d="M19251 58366
L18070 57185
" />
<path d="M60688 57185
L60688 30708
" />
<path d="M60688 57185
L59507 58366
" />
<path d="M59507 29527
L48956 29527
" />
<path d="M60688 30708
L59507 29527
" />
<path d="M19251 29527
L29783 29527
" />
<path d="M18070 30708
L19251 29527
" />
<path d="M59507 58366
L19251 58366
" />
<path d="M29783 29527
L29783 50787
" />
</g>
<g style="fill:#000000; fill-opacity:0.0; 
stroke:#000000; stroke-width:40; stroke-opacity:1; 
stroke-linecap:round; stroke-linejoin:round;">
<path d="M49410 46227
L49350 46227
L49320 46242
L49305 46257
L49275 46302
L49260 46362
L49260 46482
L49275 46512
L49290 46527
L49320 46542
L49380 46542
L49410 46527
L49425 46512
L49440 46482
L49440 46407
L49425 46377
L49410 46362
L49380 46347
L49320 46347
L49290 46362
L49275 46377
L49260 46407
" />
<path d="M49544 46227
L49739 46227
L49634 46347
L49679 46347
L49709 46362
L49724 46377
L49739 46407
L49739 46482
L49724 46512
L49709 46527
L49679 46542
L49589 46542
L49559 46527
L49544 46512
" />
<path d="M54210 46227
L54150 46227
L54120 46242
L54105 46257
L54075 46302
L54060 46362
L54060 46482
L54075 46512
L54090 46527
L54120 46542
L54180 46542
L54210 46527
L54225 46512
L54240 46482
L54240 46407
L54225 46377
L54210 46362
L54180 46347
L54120 46347
L54090 46362
L54075 46377
L54060 46407
" />
<path d="M54434 46227
L54464 46227
L54494 46242
L54509 46257
L54524 46287
L54539 46347
L54539 46422
L54524 46482
L54509 46512
L54494 46527
L54464 46542
L54434 46542
L54404 46527
L54389 46512
L54374 46482
L54359 46422
L54359 46347
L54374 46287
L54389 46257
L54404 46242
L54434 46227
" />
<path d="M54216 32524
L54058 32524
" />
<path d="M54137 32524
L54137 32249
L54111 32288
L54085 32314
L54058 32327
" />
<path d="M54478 32524
L54321 32524
" />
<path d="M54400 32524
L54400 32249
L54373 32288
L54347 32314
L54321 32327
" />
<path d="M54714 32249
L54662 32249
L54636 32262
L54623 32275
L54596 32314
L54583 32367
L54583 32472
L54596 32498
L54609 32511
L54636 32524
L54688 32524
L54714 32511
L54728 32498
L54741 32472
L54741 32406
L54728 32380
L54714 32367
L54688 32354
L54636 32354
L54609 32367
L54596 32380
L54583 32406
" />
<path d="M49216 32524
L49058 32524
" />
<path d="M49137 32524
L49137 32249
L49111 32288
L49085 32314
L49058 32327
" />
<path d="M49478 32524
L49321 32524
" />
<path d="M49400 32524
L49400 32249
L49373 32288
L49347 32314
L49321 32327
" />
<path d="M49609 32524
L49662 32524
L49688 32511
L49701 32498
L49728 32459
L49741 32406
L49741 32301
L49728 32275
L49714 32262
L49688 32249
L49636 32249
L49609 32262
L49596 32275
L49583 32301
L49583 32367
L49596 32393
L49609 32406
L49636 32419
L49688 32419
L49714 32406
L49728 32393
L49741 32367
" />
<path d="M29221 32213
L29251 32213
L29281 32228
L29296 32243
L29311 32273
L29326 32333
L29326 32408
L29311 32468
L29296 32498
L29281 32513
L29251 32528
L29221 32528
L29191 32513
L29176 32498
L29161 32468
L29146 32408
L29146 32333
L29161 32273
L29176 32243
L29191 32228
L29221 32213
" />
<path d="M24397 46193
L24247 46193
L24232 46343
L24247 46328
L24277 46313
L24352 46313
L24382 46328
L24397 46343
L24412 46373
L24412 46448
L24397 46478
L24382 46493
L24352 46508
L24277 46508
L24247 46493
L24232 46478
" />
<path d="M24562 46508
L24622 46508
L24652 46493
L24667 46478
L24697 46433
L24712 46373
L24712 46253
L24697 46223
L24682 46208
L24652 46193
L24592 46193
L24562 46208
L24547 46223
L24532 46253
L24532 46328
L24547 46358
L24562 46373
L24592 46388
L24652 46388
L24682 46373
L24697 46358
L24712 46328
" />
<path d="M29228 46193
L29078 46193
L29063 46343
L29078 46328
L29108 46313
L29183 46313
L29213 46328
L29228 46343
L29243 46373
L29243 46448
L29228 46478
L29213 46493
L29183 46508
L29108 46508
L29078 46493
L29063 46478
" />
<path d="M29513 46193
L29453 46193
L29423 46208
L29408 46223
L29378 46268
L29363 46328
L29363 46448
L29378 46478
L29393 46493
L29423 46508
L29483 46508
L29513 46493
L29528 46478
L29543 46448
L29543 46373
L29528 46343
L29513 46328
L29483 46313
L29423 46313
L29393 46328
L29378 46343
L29363 46373
" />
<path d="M50419 48283
L50430 48294
L50441 48328
L50441 48350
L50430 48384
L50407 48407
L50385 48418
L50340 48429
L50306 48429
L50261 48418
L50239 48407
L50216 48384
L50205 48350
L50205 48328
L50216 48294
L50227 48283
" />
<path d="M50430 48193
L50441 48159
L50441 48103
L50430 48080
L50419 48069
L50396 48058
L50374 48058
L50351 48069
L50340 48080
L50329 48103
L50317 48148
L50306 48170
L50295 48182
L50272 48193
L50250 48193
L50227 48182
L50216 48170
L50205 48148
L50205 48092
L50216 48058
" />
<path d="M51236 48522
L51224 48544
L51224 48578
L51236 48612
L51258 48634
L51281 48646
L51326 48657
L51359 48657
L51404 48646
L51427 48634
L51449 48612
L51461 48578
L51461 48556
L51449 48522
L51438 48511
L51359 48511
L51359 48556
" />
<path d="M51461 48410
L51224 48410
L51461 48275
L51224 48275
" />
<path d="M51461 48162
L51224 48162
L51224 48106
L51236 48072
L51258 48050
L51281 48038
L51326 48027
L51359 48027
L51404 48038
L51427 48050
L51449 48072
L51461 48106
L51461 48162
" />
<path d="M52437 49024
L52201 49024
" />
<path d="M52313 49024
L52313 48889
" />
<path d="M52437 48889
L52201 48889
" />
<path d="M52201 48811
L52437 48732
L52201 48653
" />
<path d="M52460 48631
L52460 48451
" />
<path d="M52201 48349
L52201 48304
L52212 48282
L52235 48259
L52280 48248
L52358 48248
L52403 48259
L52426 48282
L52437 48304
L52437 48349
L52426 48372
L52403 48394
L52358 48406
L52280 48406
L52235 48394
L52212 48372
L52201 48349
" />
<path d="M52313 48147
L52313 48068
" />
<path d="M52437 48034
L52437 48147
L52201 48147
L52201 48034
" />
<path d="M53228 48502
L53465 48344
" />
<path d="M53228 48344
L53465 48502
" />
<path d="M53251 48266
L53240 48254
L53228 48232
L53228 48176
L53240 48153
L53251 48142
L53273 48131
L53296 48131
L53330 48142
L53465 48277
L53465 48131
" />
<path d="M53232 30663
L53469 30506
" />
<path d="M53232 30506
L53469 30663
" />
<path d="M53255 30427
L53244 30416
L53232 30393
L53232 30337
L53244 30314
L53255 30303
L53277 30292
L53300 30292
L53334 30303
L53469 30438
L53469 30292
" />
<path d="M52465 30674
L52228 30674
" />
<path d="M52341 30674
L52341 30539
" />
<path d="M52465 30539
L52228 30539
" />
<path d="M52228 30460
L52465 30381
L52228 30303
" />
<path d="M52487 30280
L52487 30100
" />
<path d="M52228 29999
L52228 29954
L52240 29931
L52262 29909
L52307 29898
L52386 29898
L52431 29909
L52453 29931
L52465 29954
L52465 29999
L52453 30021
L52431 30044
L52386 30055
L52307 30055
L52262 30044
L52240 30021
L52228 29999
" />
<path d="M52341 29796
L52341 29718
" />
<path d="M52465 29684
L52465 29796
L52228 29796
L52228 29684
" />
<path d="M51267 30538
L51256 30560
L51256 30594
L51267 30628
L51290 30650
L51312 30661
L51357 30673
L51391 30673
L51436 30661
L51458 30650
L51481 30628
L51492 30594
L51492 30571
L51481 30538
L51470 30526
L51391 30526
L51391 30571
" />
<path d="M51492 30425
L51256 30425
L51492 30290
L51256 30290
" />
<path d="M51492 30178
L51256 30178
L51256 30122
L51267 30088
L51290 30065
L51312 30054
L51357 30043
L51391 30043
L51436 30054
L51458 30065
L51481 30088
L51492 30122
L51492 30178
" />
<path d="M50442 30503
L50453 30515
L50465 30548
L50465 30571
L50453 30605
L50431 30627
L50408 30638
L50363 30650
L50330 30650
L50285 30638
L50262 30627
L50240 30605
L50228 30571
L50228 30548
L50240 30515
L50251 30503
" />
<path d="M50453 30413
L50465 30380
L50465 30323
L50453 30301
L50442 30290
L50420 30278
L50397 30278
L50375 30290
L50363 30301
L50352 30323
L50341 30368
L50330 30391
L50318 30402
L50296 30413
L50273 30413
L50251 30402
L50240 30391
L50228 30368
L50228 30312
L50240 30278
" />
<path d="M28529 48330
L28540 48341
L28551 48375
L28551 48398
L28540 48431
L28517 48454
L28495 48465
L28450 48476
L28416 48476
L28371 48465
L28349 48454
L28326 48431
L28315 48398
L28315 48375
L28326 48341
L28338 48330
" />
<path d="M28540 48240
L28551 48206
L28551 48150
L28540 48128
L28529 48116
L28506 48105
L28484 48105
L28461 48116
L28450 48128
L28439 48150
L28428 48195
L28416 48218
L28405 48229
L28383 48240
L28360 48240
L28338 48229
L28326 48218
L28315 48195
L28315 48139
L28326 48105
" />
<path d="M25268 48360
L25504 48203
" />
<path d="M25268 48203
L25504 48360
" />
<path d="M25504 47989
L25504 48124
" />
<path d="M25504 48056
L25268 48056
L25302 48079
L25324 48101
L25335 48124
" />
<path d="M26516 49040
L26280 49040
" />
<path d="M26392 49040
L26392 48905
" />
<path d="M26516 48905
L26280 48905
" />
<path d="M26280 48826
L26516 48748
L26280 48669
" />
<path d="M26538 48646
L26538 48466
" />
<path d="M26280 48365
L26280 48320
L26291 48298
L26313 48275
L26358 48264
L26437 48264
L26482 48275
L26505 48298
L26516 48320
L26516 48365
L26505 48388
L26482 48410
L26437 48421
L26358 48421
L26313 48410
L26291 48388
L26280 48365
" />
<path d="M26392 48163
L26392 48084
" />
<path d="M26516 48050
L26516 48163
L26280 48163
L26280 48050
" />
<path d="M27291 48542
L27280 48564
L27280 48598
L27291 48632
L27313 48654
L27336 48665
L27381 48677
L27415 48677
L27460 48665
L27482 48654
L27505 48632
L27516 48598
L27516 48575
L27505 48542
L27493 48530
L27415 48530
L27415 48575
" />
<path d="M27516 48429
L27280 48429
L27516 48294
L27280 48294
" />
<path d="M27516 48182
L27280 48182
L27280 48125
L27291 48092
L27313 48069
L27336 48058
L27381 48047
L27415 48047
L27460 48058
L27482 48069
L27505 48092
L27516 48125
L27516 48182
" />
<path d="M28501 30578
L28512 30589
L28524 30623
L28524 30646
L28512 30679
L28490 30702
L28467 30713
L28422 30724
L28389 30724
L28344 30713
L28321 30702
L28299 30679
L28287 30646
L28287 30623
L28299 30589
L28310 30578
" />
<path d="M28512 30488
L28524 30455
L28524 30398
L28512 30376
L28501 30365
L28479 30353
L28456 30353
L28434 30365
L28422 30376
L28411 30398
L28400 30443
L28389 30466
L28377 30477
L28355 30488
L28332 30488
L28310 30477
L28299 30466
L28287 30443
L28287 30387
L28299 30353
" />
<path d="M27314 30593
L27303 30615
L27303 30649
L27314 30683
L27337 30705
L27359 30717
L27404 30728
L27438 30728
L27483 30717
L27506 30705
L27528 30683
L27539 30649
L27539 30627
L27528 30593
L27517 30582
L27438 30582
L27438 30627
" />
<path d="M27539 30480
L27303 30480
L27539 30345
L27303 30345
" />
<path d="M27539 30233
L27303 30233
L27303 30177
L27314 30143
L27337 30120
L27359 30109
L27404 30098
L27438 30098
L27483 30109
L27506 30120
L27528 30143
L27539 30177
L27539 30233
" />
<path d="M26484 30715
L26248 30715
" />
<path d="M26361 30715
L26361 30580
" />
<path d="M26484 30580
L26248 30580
" />
<path d="M26248 30501
L26484 30423
L26248 30344
" />
<path d="M26507 30321
L26507 30142
" />
<path d="M26248 30040
L26248 29995
L26259 29973
L26282 29950
L26327 29939
L26406 29939
L26451 29950
L26473 29973
L26484 29995
L26484 30040
L26473 30063
L26451 30085
L26406 30097
L26327 30097
L26282 30085
L26259 30063
L26248 30040
" />
<path d="M26361 29838
L26361 29759
" />
<path d="M26484 29725
L26484 29838
L26248 29838
L26248 29725
" />
<path d="M25213 30714
L25449 30557
" />
<path d="M25213 30557
L25449 30714
" />
<path d="M25449 30343
L25449 30478
" />
<path d="M25449 30411
L25213 30411
L25246 30433
L25269 30456
L25280 30478
" />
<path d="M24452 32219
L24647 32219
L24542 32339
L24587 32339
L24617 32354
L24632 32369
L24647 32399
L24647 32474
L24632 32504
L24617 32519
L24587 32534
L24497 32534
L24467 32519
L24452 32504
" />
</g>
<g style="fill:#000000; fill-opacity:0.0; 
stroke:#000000; stroke-width:150; stroke-opacity:1; 
stroke-linecap:round; stroke-linejoin:round;">
<path d="M90295 47645
L90295 47645
" />
</g>
<g style="fill:#000000; fill-opacity:0.0; 
stroke:#000000; stroke-width:78.7402; stroke-opacity:1; 
stroke-linecap:round; stroke-linejoin:round;">
<path d="M41702 52205
L41702 51811
" />
<path d="M41837 52205
L41837 51999
L41822 51961
L41792 51943
L41747 51943
L41717 51961
L41702 51980
" />
<path d="M41942 51943
L42062 51943
" />
<path d="M41987 51811
L41987 52149
L42002 52186
L42032 52205
L42062 52205
" />
<path d="M42122 51943
L42242 51943
" />
<path d="M42167 51811
L42167 52149
L42182 52186
L42212 52205
L42242 52205
" />
<path d="M42347 51943
L42347 52336
" />
<path d="M42347 51961
L42377 51943
L42437 51943
L42467 51961
L42482 51980
L42497 52018
L42497 52130
L42482 52168
L42467 52186
L42437 52205
L42377 52205
L42347 52186
" />
<path d="M42632 52168
L42647 52186
L42632 52205
L42617 52186
L42632 52168
L42632 52205
" />
<path d="M42632 51961
L42647 51980
L42632 51999
L42617 51980
L42632 51961
L42632 51999
" />
<path d="M43007 51793
L42737 52299
" />
<path d="M43337 51793
L43067 52299
" />
<path d="M43427 52186
L43457 52205
L43517 52205
L43547 52186
L43562 52149
L43562 52130
L43547 52093
L43517 52074
L43472 52074
L43442 52055
L43427 52018
L43427 51999
L43442 51961
L43472 51943
L43517 51943
L43547 51961
" />
<path d="M43832 52186
L43802 52205
L43742 52205
L43712 52186
L43697 52168
L43682 52130
L43682 52018
L43697 51980
L43712 51961
L43742 51943
L43802 51943
L43832 51961
" />
<path d="M43967 52205
L43967 51943
" />
<path d="M43967 51811
L43952 51830
L43967 51849
L43982 51830
L43967 51811
L43967 51849
" />
<path d="M44116 52055
L44356 52055
" />
<path d="M44506 52205
L44506 51811
" />
<path d="M44506 51961
L44536 51943
L44596 51943
L44626 51961
L44641 51980
L44656 52018
L44656 52130
L44641 52168
L44626 52186
L44596 52205
L44536 52205
L44506 52186
" />
<path d="M44836 52205
L44806 52186
L44791 52168
L44776 52130
L44776 52018
L44791 51980
L44806 51961
L44836 51943
L44881 51943
L44911 51961
L44926 51980
L44941 52018
L44941 52130
L44926 52168
L44911 52186
L44881 52205
L44836 52205
" />
<path d="M45031 51943
L45151 51943
" />
<path d="M45076 51811
L45076 52149
L45091 52186
L45121 52205
L45151 52205
" />
<path d="M45241 52186
L45271 52205
L45331 52205
L45361 52186
L45376 52149
L45376 52130
L45361 52093
L45331 52074
L45286 52074
L45256 52055
L45241 52018
L45241 51999
L45256 51961
L45286 51943
L45331 51943
L45361 51961
" />
<path d="M45511 52168
L45526 52186
L45511 52205
L45496 52186
L45511 52168
L45511 52205
" />
<path d="M45796 52186
L45766 52205
L45706 52205
L45676 52186
L45661 52168
L45646 52130
L45646 52018
L45661 51980
L45676 51961
L45706 51943
L45766 51943
L45796 51961
" />
<path d="M45976 52205
L45946 52186
L45931 52168
L45916 52130
L45916 52018
L45931 51980
L45946 51961
L45976 51943
L46021 51943
L46051 51961
L46066 51980
L46081 52018
L46081 52130
L46066 52168
L46051 52186
L46021 52205
L45976 52205
" />
<path d="M46216 52205
L46216 51943
" />
<path d="M46216 51980
L46231 51961
L46261 51943
L46306 51943
L46336 51961
L46351 51999
L46351 52205
" />
<path d="M46351 51999
L46366 51961
L46396 51943
L46441 51943
L46471 51961
L46486 51999
L46486 52205
" />
<path d="M41739 52856
L41784 52874
L41859 52874
L41889 52856
L41904 52837
L41919 52799
L41919 52762
L41904 52724
L41889 52706
L41859 52687
L41799 52668
L41769 52649
L41754 52631
L41739 52593
L41739 52556
L41754 52518
L41769 52500
L41799 52481
L41874 52481
L41919 52500
" />
<path d="M42189 52856
L42159 52874
L42099 52874
L42069 52856
L42054 52837
L42039 52799
L42039 52687
L42054 52649
L42069 52631
L42099 52612
L42159 52612
L42189 52631
" />
<path d="M42324 52874
L42324 52612
" />
<path d="M42324 52481
L42309 52500
L42324 52518
L42339 52500
L42324 52481
L42324 52518
" />
<path d="M42474 52724
L42714 52724
" />
<path d="M42969 52668
L43014 52687
L43029 52706
L43044 52743
L43044 52799
L43029 52837
L43014 52856
L42984 52874
L42864 52874
L42864 52481
L42969 52481
L42999 52500
L43014 52518
L43029 52556
L43029 52593
L43014 52631
L42999 52649
L42969 52668
L42864 52668
" />
<path d="M43224 52874
L43194 52856
L43179 52837
L43164 52799
L43164 52687
L43179 52649
L43194 52631
L43224 52612
L43269 52612
L43299 52631
L43314 52649
L43329 52687
L43329 52799
L43314 52837
L43299 52856
L43269 52874
L43224 52874
" />
<path d="M43419 52612
L43539 52612
" />
<path d="M43464 52481
L43464 52818
L43479 52856
L43509 52874
L43539 52874
" />
<path d="M43629 52856
L43659 52874
L43719 52874
L43749 52856
L43764 52818
L43764 52799
L43749 52762
L43719 52743
L43674 52743
L43644 52724
L43629 52687
L43629 52668
L43644 52631
L43674 52612
L43719 52612
L43749 52631
" />
<path d="M44139 52874
L44139 52481
" />
<path d="M44289 52612
L44289 52874
" />
<path d="M44289 52649
L44304 52631
L44334 52612
L44379 52612
L44409 52631
L44424 52668
L44424 52874
" />
<path d="M44709 52856
L44679 52874
L44619 52874
L44589 52856
L44574 52837
L44559 52799
L44559 52687
L44574 52649
L44589 52631
L44619 52612
L44679 52612
L44709 52631
" />
<path d="M44844 52837
L44859 52856
L44844 52874
L44829 52856
L44844 52837
L44844 52874
" />
<path d="M45009 52856
L45009 52874
L44994 52912
L44979 52931
" />
<path d="M45369 52518
L45384 52500
L45414 52481
L45489 52481
L45519 52500
L45534 52518
L45549 52556
L45549 52593
L45534 52649
L45354 52874
L45549 52874
" />
<path d="M45744 52481
L45774 52481
L45804 52500
L45819 52518
L45834 52556
L45849 52631
L45849 52724
L45834 52799
L45819 52837
L45804 52856
L45774 52874
L45744 52874
L45714 52856
L45699 52837
L45684 52799
L45669 52724
L45669 52631
L45684 52556
L45699 52518
L45714 52500
L45744 52481
" />
<path d="M46149 52874
L45969 52874
" />
<path d="M46059 52874
L46059 52481
L46029 52537
L45999 52574
L45969 52593
" />
<path d="M46299 52874
L46359 52874
L46389 52856
L46404 52837
L46434 52781
L46449 52706
L46449 52556
L46434 52518
L46419 52500
L46389 52481
L46329 52481
L46299 52500
L46284 52518
L46269 52556
L46269 52649
L46284 52687
L46299 52706
L46329 52724
L46389 52724
L46419 52706
L46434 52687
L46449 52649
" />
</g>
<g style="fill:#000000; fill-opacity:0.0; 
stroke:#000000; stroke-width:150; stroke-opacity:1; 
stroke-linecap:round; stroke-linejoin:round;">
<path d="M48956 29527
L48956 50787
" />
</g>
<g style="fill:#000000; fill-opacity:0.0; 
stroke:#000000; stroke-width:78.7402; stroke-opacity:1; 
stroke-linecap:round; stroke-linejoin:round;">
<path d="M32089 53379
L32089 52986
L32164 52986
L32209 53004
L32239 53042
L32254 53079
L32269 53154
L32269 53211
L32254 53286
L32239 53323
L32209 53361
L32164 53379
L32089 53379
" />
<path d="M32404 53379
L32404 53117
" />
<path d="M32404 53192
L32419 53154
L32434 53136
L32464 53117
L32494 53117
" />
<path d="M32644 53379
L32614 53361
L32599 53342
L32584 53304
L32584 53192
L32599 53154
L32614 53136
L32644 53117
L32689 53117
L32719 53136
L32734 53154
L32749 53192
L32749 53304
L32734 53342
L32719 53361
L32689 53379
L32644 53379
" />
<path d="M32884 53117
L32884 53511
" />
<path d="M32884 53136
L32914 53117
L32974 53117
L33004 53136
L33019 53154
L33034 53192
L33034 53304
L33019 53342
L33004 53361
L32974 53379
L32914 53379
L32884 53361
" />
<path d="M33274 53173
L33319 53192
L33334 53211
L33349 53248
L33349 53304
L33334 53342
L33319 53361
L33289 53379
L33169 53379
L33169 52986
L33274 52986
L33304 53004
L33319 53023
L33334 53061
L33334 53098
L33319 53136
L33304 53154
L33274 53173
L33169 53173
" />
<path d="M33529 53379
L33499 53361
L33484 53342
L33469 53304
L33469 53192
L33484 53154
L33499 53136
L33529 53117
L33574 53117
L33604 53136
L33619 53154
L33634 53192
L33634 53304
L33619 53342
L33604 53361
L33574 53379
L33529 53379
" />
<path d="M33724 53117
L33844 53117
" />
<path d="M33769 52986
L33769 53323
L33784 53361
L33814 53379
L33844 53379
" />
<path d="M32254 54049
L32074 54049
" />
<path d="M32164 54049
L32164 53655
L32134 53711
L32104 53749
L32074 53767
" />
<path d="M32374 53693
L32389 53674
L32419 53655
L32494 53655
L32524 53674
L32539 53693
L32554 53730
L32554 53767
L32539 53824
L32359 54049
L32554 54049
" />
<path d="M32749 53655
L32779 53655
L32809 53674
L32824 53693
L32839 53730
L32854 53805
L32854 53899
L32839 53974
L32824 54011
L32809 54030
L32779 54049
L32749 54049
L32719 54030
L32704 54011
L32689 53974
L32674 53899
L32674 53805
L32689 53730
L32704 53693
L32719 53674
L32749 53655
" />
<path d="M32989 53899
L33229 53899
" />
<path d="M33514 54030
L33484 54049
L33424 54049
L33394 54030
L33379 54011
L33364 53974
L33364 53861
L33379 53824
L33394 53805
L33424 53786
L33484 53786
L33514 53805
" />
<path d="M33649 54049
L33649 53655
" />
<path d="M33784 54049
L33784 53842
L33769 53805
L33739 53786
L33694 53786
L33664 53805
L33649 53824
" />
<path d="M34069 54049
L34069 53842
L34054 53805
L34024 53786
L33964 53786
L33934 53805
" />
<path d="M34069 54030
L34039 54049
L33964 54049
L33934 54030
L33919 53992
L33919 53955
L33934 53917
L33964 53899
L34039 53899
L34069 53880
" />
<path d="M34219 53786
L34219 54049
" />
<path d="M34219 53824
L34234 53805
L34264 53786
L34309 53786
L34339 53805
L34354 53842
L34354 54049
" />
<path d="M34504 53786
L34504 54049
" />
<path d="M34504 53824
L34519 53805
L34549 53786
L34594 53786
L34624 53805
L34639 53842
L34639 54049
" />
<path d="M34909 54030
L34879 54049
L34819 54049
L34789 54030
L34774 53992
L34774 53842
L34789 53805
L34819 53786
L34879 53786
L34909 53805
L34924 53842
L34924 53880
L34774 53917
" />
<path d="M35104 54049
L35074 54030
L35059 53992
L35059 53655
" />
<path d="M35464 53786
L35464 54180
" />
<path d="M35464 53805
L35494 53786
L35554 53786
L35584 53805
L35599 53824
L35614 53861
L35614 53974
L35599 54011
L35584 54030
L35554 54049
L35494 54049
L35464 54030
" />
<path d="M35794 54049
L35764 54030
L35749 54011
L35734 53974
L35734 53861
L35749 53824
L35764 53805
L35794 53786
L35839 53786
L35869 53805
L35884 53824
L35899 53861
L35899 53974
L35884 54011
L35869 54030
L35839 54049
L35794 54049
" />
<path d="M36169 53786
L36169 54105
L36154 54142
L36139 54161
L36109 54180
L36064 54180
L36034 54161
" />
<path d="M36169 54030
L36139 54049
L36079 54049
L36049 54030
L36034 54011
L36019 53974
L36019 53861
L36034 53824
L36049 53805
L36079 53786
L36139 53786
L36169 53805
" />
<path d="M36364 54049
L36334 54030
L36319 54011
L36304 53974
L36304 53861
L36319 53824
L36334 53805
L36364 53786
L36409 53786
L36439 53805
L36454 53824
L36469 53861
L36469 53974
L36454 54011
L36439 54030
L36409 54049
L36364 54049
" />
<path d="M36604 53899
L36844 53899
" />
<path d="M36994 53786
L36994 54180
" />
<path d="M36994 53805
L37024 53786
L37084 53786
L37114 53805
L37129 53824
L37144 53861
L37144 53974
L37129 54011
L37114 54030
L37084 54049
L37024 54049
L36994 54030
" />
<path d="M37279 54049
L37279 53786
" />
<path d="M37279 53655
L37264 53674
L37279 53693
L37294 53674
L37279 53655
L37279 53693
" />
<path d="M37429 53786
L37429 54049
" />
<path d="M37429 53824
L37444 53805
L37474 53786
L37519 53786
L37549 53805
L37564 53842
L37564 54049
" />
<path d="M37953 54049
L37953 53655
" />
<path d="M37953 53805
L37983 53786
L38043 53786
L38073 53805
L38088 53824
L38103 53861
L38103 53974
L38088 54011
L38073 54030
L38043 54049
L37983 54049
L37953 54030
" />
<path d="M38283 54049
L38253 54030
L38238 54011
L38223 53974
L38223 53861
L38238 53824
L38253 53805
L38283 53786
L38328 53786
L38358 53805
L38373 53824
L38388 53861
L38388 53974
L38373 54011
L38358 54030
L38328 54049
L38283 54049
" />
<path d="M38658 54049
L38658 53842
L38643 53805
L38613 53786
L38553 53786
L38523 53805
" />
<path d="M38658 54030
L38628 54049
L38553 54049
L38523 54030
L38508 53992
L38508 53955
L38523 53917
L38553 53899
L38628 53899
L38658 53880
" />
<path d="M38808 54049
L38808 53786
" />
<path d="M38808 53861
L38823 53824
L38838 53805
L38868 53786
L38898 53786
" />
<path d="M39138 54049
L39138 53655
" />
<path d="M39138 54030
L39108 54049
L39048 54049
L39018 54030
L39003 54011
L38988 53974
L38988 53861
L39003 53824
L39018 53805
L39048 53786
L39108 53786
L39138 53805
" />
<path d="M39498 53786
L39573 54049
L39648 53786
" />
<path d="M39738 53655
L39933 53655
L39828 53805
L39873 53805
L39903 53824
L39918 53842
L39933 53880
L39933 53974
L39918 54011
L39903 54030
L39873 54049
L39783 54049
L39753 54030
L39738 54011
" />
<path d="M40068 54011
L40083 54030
L40068 54049
L40053 54030
L40068 54011
L40068 54049
" />
<path d="M40368 53655
L40218 53655
L40203 53842
L40218 53824
L40248 53805
L40323 53805
L40353 53824
L40368 53842
L40383 53880
L40383 53974
L40368 54011
L40353 54030
L40323 54049
L40248 54049
L40218 54030
L40203 54011
" />
</g>
<g style="fill:#000000; fill-opacity:0.0; 
stroke:#000000; stroke-width:150; stroke-opacity:1; 
stroke-linecap:round; stroke-linejoin:round;">
<path d="M29783 50787
L48956 50787
" />
</g>
<g style="fill:#000000; fill-opacity:0.0; 
stroke:#000000; stroke-width:59.0551; stroke-opacity:1; 
stroke-linecap:round; stroke-linejoin:round;">
<path d="M27046 47823
L27046 47429
L27196 47429
L27234 47448
L27252 47467
L27271 47504
L27271 47560
L27252 47598
L27234 47617
L27196 47635
L27046 47635
" />
<path d="M27421 47467
L27440 47448
L27477 47429
L27571 47429
L27608 47448
L27627 47467
L27646 47504
L27646 47542
L27627 47598
L27402 47823
L27646 47823
" />
<path d="M56504 32010
L56485 32029
L56429 32048
L56391 32048
L56335 32029
L56298 31991
L56279 31954
L56260 31879
L56260 31823
L56279 31748
L56298 31710
L56335 31673
L56391 31654
L56429 31654
L56485 31673
L56504 31691
" />
<path d="M56879 32048
L56654 32048
" />
<path d="M56766 32048
L56766 31654
L56729 31710
L56691 31748
L56654 31766
" />
<path d="M22004 32035
L21985 32054
L21929 32073
L21891 32073
L21835 32054
L21798 32016
L21779 31979
L21760 31904
L21760 31848
L21779 31773
L21798 31735
L21835 31698
L21891 31679
L21929 31679
L21985 31698
L22004 31716
" />
<path d="M22154 31716
L22173 31698
L22210 31679
L22304 31679
L22341 31698
L22360 31716
L22379 31754
L22379 31791
L22360 31848
L22135 32073
L22379 32073
" />
<path d="M56366 31091
L56235 31091
" />
<path d="M56235 31298
L56235 30904
L56423 30904
" />
<path d="M56704 31091
L56760 31110
L56779 31129
L56798 31166
L56798 31223
L56779 31260
L56760 31279
L56723 31298
L56573 31298
L56573 30904
L56704 30904
L56741 30923
L56760 30941
L56779 30979
L56779 31016
L56760 31054
L56741 31073
L56704 31091
L56573 31091
" />
<path d="M57173 31298
L56948 31298
" />
<path d="M57060 31298
L57060 30904
L57023 30960
L56985 30998
L56948 31016
" />
<path d="M21691 31116
L21560 31116
" />
<path d="M21560 31323
L21560 30929
L21748 30929
" />
<path d="M22029 31116
L22085 31135
L22104 31154
L22123 31191
L22123 31248
L22104 31285
L22085 31304
L22048 31323
L21898 31323
L21898 30929
L22029 30929
L22066 30948
L22085 30966
L22104 31004
L22104 31041
L22085 31079
L22066 31098
L22029 31116
L21898 31116
" />
<path d="M22273 30966
L22291 30948
L22329 30929
L22423 30929
L22460 30948
L22479 30966
L22498 31004
L22498 31041
L22479 31098
L22254 31323
L22498 31323
" />
<path d="M29056 47823
L29056 47429
L29206 47429
L29244 47448
L29262 47467
L29281 47504
L29281 47560
L29262 47598
L29244 47617
L29206 47635
L29056 47635
" />
<path d="M29656 47823
L29431 47823
" />
<path d="M29544 47823
L29544 47429
L29506 47485
L29469 47523
L29431 47542
" />
<path d="M51085 31274
L51085 30880
L51235 30880
L51272 30899
L51291 30917
L51310 30955
L51310 31011
L51291 31049
L51272 31067
L51235 31086
L51085 31086
" />
<path d="M51441 30880
L51685 30880
L51554 31030
L51610 31030
L51647 31049
L51666 31067
L51685 31105
L51685 31199
L51666 31236
L51647 31255
L51610 31274
L51497 31274
L51460 31255
L51441 31236
" />
<path d="M49109 31278
L49109 30884
L49259 30884
L49296 30903
L49315 30921
L49334 30959
L49334 31015
L49315 31053
L49296 31071
L49259 31090
L49109 31090
" />
<path d="M49671 31015
L49671 31278
" />
<path d="M49578 30865
L49484 31146
L49728 31146
" />
<path d="M38602 53478
L38471 53290
" />
<path d="M38377 53478
L38377 53084
L38527 53084
L38565 53103
L38583 53122
L38602 53159
L38602 53215
L38583 53253
L38565 53272
L38527 53290
L38377 53290
" />
<path d="M38977 53478
L38752 53478
" />
<path d="M38865 53478
L38865 53084
L38827 53140
L38790 53178
L38752 53197
" />
<path d="M39549 50899
L39549 51218
L39568 51255
L39586 51274
L39624 51293
L39699 51293
L39736 51274
L39755 51255
L39774 51218
L39774 50899
" />
<path d="M40168 51293
L39943 51293
" />
<path d="M40055 51293
L40055 50899
L40018 50955
L39980 50993
L39943 51012
" />
</g>
<g style="fill:#000000; fill-opacity:0.0; 
stroke:#000000; stroke-width:47.2441; stroke-opacity:1; 
stroke-linecap:round; stroke-linejoin:round;">
<path d="M24839 31873
L24839 47920
" />
<path d="M24839 47920
L26934 47920
" />
<path d="M26934 47920
L26934 30825
" />
<path d="M26934 30825
L25887 30825
" />
<path d="M25887 30825
L25887 31873
" />
<path d="M25887 31873
L24839 31873
" />
<path d="M24839 31373
L24839 30825
" />
<path d="M24839 30825
L25387 30825
" />
<path d="M55708 31555
L55314 31555
" />
<path d="M55314 32224
L55708 32224
" />
<path d="M23031 32224
L23425 32224
" />
<path d="M23425 31555
L23031 31555
" />
<path d="M55748 31448
L55275 31448
" />
<path d="M55275 30755
L55748 30755
" />
<path d="M22992 30755
L23464 30755
" />
<path d="M23464 31448
L22992 31448
" />
</g>
<g style="fill:#000000; fill-opacity:1.0; 
stroke:#000000; stroke-width:3.93701; stroke-opacity:1; 
stroke-linecap:round; stroke-linejoin:round;">
<polyline style="fill-rule:evenodd;"
points="30257,53092
30258,53094
30274,53112
30280,53116
30286,53122
30273,53125
30271,53125
30254,53120
30249,53102
30251,53088
30257,53092
" /> 
<polyline style="fill-rule:evenodd;"
points="38199,53101
38199,53102
38194,53120
38176,53125
38162,53123
38167,53117
38168,53116
38186,53099
38190,53094
38197,53088
38199,53101
" /> 
<polyline style="fill-rule:evenodd;"
points="30817,51697
30904,51785
30944,51745
30973,51721
31002,51704
31016,51699
31034,51697
31051,51702
31072,51716
31099,51741
31150,51788
31237,51702
31324,51615
31433,51725
31259,51900
31286,51928
31314,51955
31489,51780
31599,51889
31424,52065
31452,52092
31479,52119
31654,51945
31707,51998
31732,52024
31751,52046
31759,52059
31759,52060
31752,52070
31734,52092
31707,52121
31677,52152
31595,52235
31637,52278
31663,52307
31676,52331
31679,52355
31675,52380
31662,52404
31637,52432
31595,52475
31677,52558
31709,52591
31735,52620
31753,52640
31759,52650
31752,52661
31735,52682
31710,52708
31707,52712
31654,52765
31479,52590
31452,52618
31424,52645
31599,52820
31489,52929
31314,52755
31286,52782
31259,52809
31433,52985
31324,53095
31237,53008
31150,52921
31099,52969
31070,52995
31050,53008
31033,53013
31016,53011
30991,53000
30961,52980
30944,52965
30903,52925
30819,53010
30786,53043
30758,53070
30738,53088
30729,53095
30729,53095
30720,53088
30700,53071
30675,53046
30669,53040
30614,52985
30789,52809
30762,52782
30734,52755
30559,52929
30449,52820
30624,52645
30596,52618
30569,52590
30393,52765
30284,52655
30458,52480
30414,52433
30383,52395
30369,52363
30370,52355
30629,52355
30632,52366
30642,52383
30661,52406
30689,52437
30728,52478
30780,52531
30817,52568
30875,52625
30926,52674
30968,52712
30999,52739
31019,52753
31024,52755
31037,52748
31063,52727
31099,52695
31146,52651
31200,52598
31231,52567
31292,52507
31338,52458
31373,52421
31397,52393
31412,52373
31418,52359
31419,52355
31415,52344
31404,52326
31384,52301
31353,52267
31311,52223
31257,52168
31232,52142
31172,52084
31121,52034
31079,51996
31048,51970
31029,51956
31025,51955
31011,51962
30986,51982
30949,52015
30902,52059
30846,52113
30817,52142
30757,52202
30711,52250
30676,52287
30652,52314
30637,52335
30630,52349
30629,52355
30370,52355
30373,52332
30394,52298
30414,52277
30458,52230
30371,52142
30284,52055
30393,51945
30569,52119
30596,52092
30624,52065
30449,51889
30559,51780
30734,51955
30762,51928
30789,51900
30614,51725
30672,51667
30729,51610
30817,51697
" /> 
<polyline style="fill-rule:evenodd;"
points="32418,51945
32499,51945
32563,51946
32612,51947
32649,51948
32677,51951
32697,51954
32713,51959
32725,51964
32770,51995
32802,52038
32816,52085
32822,52125
32767,52125
32736,52124
32718,52120
32708,52109
32702,52095
32691,52065
32426,52065
32344,52065
32281,52066
32232,52066
32197,52068
32173,52070
32157,52074
32148,52078
32145,52081
32135,52101
32129,52135
32128,52175
32131,52215
32138,52247
32146,52264
32152,52270
32160,52275
32172,52278
32191,52281
32218,52283
32256,52285
32309,52286
32377,52287
32440,52287
32716,52290
32752,52318
32779,52341
32798,52365
32810,52395
32816,52434
32819,52487
32819,52513
32817,52573
32812,52618
32800,52651
32780,52679
32752,52704
32746,52709
32737,52715
32726,52720
32712,52724
32691,52726
32662,52728
32622,52730
32569,52731
32500,52732
32431,52732
32342,52733
32271,52733
32216,52732
32175,52730
32145,52728
32125,52725
32113,52721
32076,52695
32046,52657
32026,52614
32022,52595
32016,52555
32073,52555
32106,52556
32124,52561
32129,52569
32129,52570
32136,52588
32149,52605
32156,52611
32165,52616
32179,52619
32200,52622
32231,52623
32273,52624
32331,52625
32405,52625
32419,52625
32503,52625
32568,52624
32619,52622
32655,52618
32680,52611
32696,52599
32705,52583
32708,52561
32709,52533
32709,52510
32709,52478
32708,52452
32703,52432
32693,52418
32676,52407
32649,52401
32610,52397
32558,52395
32490,52395
32404,52395
32400,52395
32320,52395
32257,52395
32209,52394
32174,52393
32148,52390
32130,52387
32117,52383
32107,52377
32099,52372
32068,52350
32047,52327
32034,52299
32026,52263
32022,52214
32021,52182
32020,52131
32021,52096
32024,52071
32030,52052
32040,52033
32041,52031
32072,51994
32108,51968
32122,51961
32136,51956
32152,51952
32173,51949
32202,51947
32241,51946
32293,51945
32361,51945
32418,51945
" /> 
<polyline style="fill-rule:evenodd;"
points="33727,52002
33724,52060
33395,52062
33289,52064
33204,52065
33137,52067
33090,52070
33062,52073
33052,52076
33048,52084
33045,52100
33042,52128
33041,52168
33039,52222
33039,52294
33039,52341
33039,52418
33039,52478
33040,52523
33041,52555
33043,52577
33047,52591
33051,52600
33057,52606
33061,52609
33070,52614
33083,52617
33104,52620
33133,52622
33174,52623
33228,52624
33297,52625
33383,52625
33406,52625
33729,52625
33729,52735
33391,52734
33301,52734
33220,52733
33151,52731
33096,52729
33055,52727
33032,52725
33029,52724
33003,52709
32980,52692
32966,52678
32954,52663
32946,52647
32939,52626
32935,52597
32932,52559
32930,52509
32929,52445
32929,52364
32929,52337
32929,52255
32929,52190
32930,52141
32931,52104
32933,52077
32936,52058
32940,52045
32945,52034
32952,52024
32975,51998
33006,51974
33019,51967
33031,51961
33044,51956
33059,51953
33079,51950
33105,51948
33141,51946
33188,51945
33249,51945
33326,51945
33397,51945
33730,51945
33727,52002
" /> 
<polyline style="fill-rule:evenodd;"
points="33979,52735
33869,52735
33869,51945
33979,51945
33979,52735
" /> 
<polyline style="fill-rule:evenodd;"
points="34969,51945
35246,51945
35328,51945
35393,51945
35443,51946
35480,51947
35508,51950
35529,51953
35545,51957
35559,51962
35566,51966
35611,51998
35635,52030
35660,52073
35657,52352
35654,52631
35627,52667
35613,52684
35600,52698
35585,52710
35565,52718
35540,52725
35507,52729
35463,52732
35406,52734
35335,52735
35248,52735
35195,52735
34859,52735
34859,52349
34969,52349
34969,52425
34969,52484
34970,52527
34971,52558
34974,52579
34977,52593
34982,52601
34988,52607
34991,52609
35001,52614
35016,52618
35039,52621
35073,52623
35119,52624
35180,52625
35258,52625
35261,52625
35338,52625
35398,52624
35442,52624
35474,52622
35496,52620
35511,52616
35521,52612
35528,52606
35529,52605
35535,52598
35540,52588
35544,52574
35546,52553
35548,52522
35548,52478
35549,52420
35549,52344
35549,52343
35549,52266
35548,52207
35547,52162
35545,52130
35543,52108
35539,52094
35534,52085
35532,52083
35526,52078
35517,52073
35502,52070
35479,52068
35447,52066
35401,52065
35341,52065
35264,52065
35253,52065
35173,52065
35112,52065
35065,52066
35032,52067
35009,52069
34994,52072
34986,52076
34981,52082
34979,52084
34976,52101
34973,52135
34971,52186
34970,52252
34969,52330
34969,52349
34859,52349
34859,51685
34969,51685
34969,51945
" /> 
<polyline style="fill-rule:evenodd;"
points="36239,51945
36301,51945
36349,51946
36386,51948
36412,51950
36432,51953
36448,51958
36462,51964
36466,51966
36498,51986
36525,52010
36531,52018
36538,52028
36543,52038
36547,52051
36550,52070
36552,52096
36553,52132
36554,52180
36554,52244
36554,52324
36554,52342
36554,52426
36554,52492
36553,52544
36552,52582
36550,52610
36547,52629
36544,52643
36539,52653
36533,52661
36510,52688
36485,52709
36476,52715
36466,52720
36451,52724
36430,52726
36401,52728
36360,52730
36306,52731
36236,52732
36171,52732
36082,52733
36010,52733
35955,52732
35913,52730
35884,52728
35864,52724
35853,52721
35817,52697
35786,52662
35767,52623
35764,52612
35762,52594
35761,52558
35760,52509
35760,52448
35760,52380
35761,52344
35869,52344
35869,52420
35869,52478
35870,52522
35872,52553
35874,52574
35878,52588
35883,52598
35889,52605
35896,52611
35905,52616
35919,52619
35940,52622
35971,52623
36013,52624
36071,52625
36145,52625
36159,52625
36236,52625
36296,52624
36341,52624
36373,52622
36396,52620
36411,52616
36420,52612
36428,52606
36429,52605
36435,52598
36440,52588
36444,52574
36446,52553
36448,52522
36448,52478
36449,52420
36449,52344
36449,52343
36449,52266
36448,52207
36447,52162
36445,52130
36443,52108
36439,52094
36434,52085
36432,52083
36426,52078
36417,52073
36402,52070
36379,52068
36347,52066
36301,52065
36241,52065
36164,52065
36153,52065
36073,52065
36012,52065
35965,52066
35932,52067
35909,52069
35894,52072
35886,52076
35881,52082
35879,52084
35876,52101
35873,52135
35871,52186
35870,52251
35869,52329
35869,52344
35761,52344
35761,52315
35762,52235
35763,52173
35764,52126
35766,52091
35768,52066
35772,52048
35776,52035
35782,52025
35788,52016
35803,51996
35819,51981
35839,51969
35864,51960
35897,51953
35941,51949
35997,51947
36069,51945
36158,51945
36239,51945
" /> 
<polyline style="fill-rule:evenodd;"
points="36779,51945
36949,51945
37120,51945
37117,52002
37114,52060
36779,52065
36779,52330
36779,52409
36779,52471
36780,52517
36781,52551
36783,52574
36786,52590
36790,52599
36796,52605
36801,52609
36814,52616
36835,52620
36866,52623
36911,52624
36971,52625
37119,52625
37119,52735
36956,52734
36900,52733
36848,52732
36806,52729
36778,52726
36769,52724
36743,52709
36720,52692
36709,52681
36699,52670
36691,52658
36685,52643
36679,52622
36676,52595
36673,52559
36671,52513
36670,52455
36669,52382
36669,52294
36669,52188
36669,52150
36669,51685
36779,51685
36779,51945
" /> 
<polyline style="fill-rule:evenodd;"
points="37700,51945
37773,51947
37832,51948
37876,51951
37901,51954
37906,51955
37946,51979
37981,52014
38006,52055
38019,52096
38019,52105
38017,52116
38007,52122
37986,52124
37959,52125
37925,52124
37907,52121
37900,52113
37899,52107
37898,52095
37894,52085
37884,52078
37867,52072
37840,52069
37801,52067
37749,52065
37680,52065
37614,52065
37527,52065
37458,52066
37407,52068
37371,52070
37349,52073
37341,52077
37334,52095
37329,52126
37328,52165
37330,52205
37334,52240
37341,52264
37345,52269
37352,52274
37364,52278
37384,52280
37413,52282
37454,52284
37509,52285
37581,52285
37626,52285
37706,52285
37768,52285
37816,52286
37851,52287
37877,52289
37896,52292
37910,52297
37923,52303
37935,52310
37971,52338
37996,52373
38012,52420
38018,52481
38019,52511
38015,52579
38003,52632
37982,52673
37951,52704
37948,52706
37937,52713
37927,52718
37914,52722
37896,52726
37871,52728
37836,52730
37788,52731
37726,52732
37648,52733
37624,52733
37540,52734
37474,52734
37423,52734
37385,52733
37357,52732
37337,52729
37323,52726
37312,52721
37302,52715
37299,52713
37260,52679
37233,52639
37220,52598
37219,52588
37219,52555
37274,52555
37306,52556
37322,52560
37328,52568
37329,52574
37337,52594
37351,52609
37369,52615
37403,52619
37450,52623
37506,52625
37568,52626
37632,52627
37696,52626
37756,52624
37808,52621
37849,52618
37875,52613
37883,52609
37892,52595
37897,52569
37899,52530
37899,52510
37899,52477
37898,52451
37893,52432
37884,52417
37866,52407
37839,52401
37801,52397
37749,52395
37680,52395
37596,52395
37509,52395
37440,52394
37386,52392
37345,52388
37314,52382
37291,52374
37274,52363
37259,52348
37246,52331
37237,52315
37230,52297
37225,52272
37223,52236
37221,52185
37221,52180
37220,52128
37220,52092
37222,52067
37227,52049
37235,52034
37241,52025
37265,51999
37296,51974
37309,51967
37323,51961
37337,51955
37354,51951
37377,51949
37408,51947
37449,51946
37503,51945
37574,51945
37615,51945
37700,51945
" /> 
<polyline style="fill-rule:evenodd;"
points="34689,52395
34431,52395
34361,52395
34297,52394
34243,52393
34202,52391
34175,52390
34166,52388
34162,52375
34159,52349
34159,52328
34159,52275
34689,52275
34689,52395
" /> 
<polyline style="fill-rule:evenodd;"
points="33979,51805
33869,51805
33869,51685
33979,51685
33979,51805
" /> 
<polyline style="fill-rule:evenodd;"
points="30286,51597
30281,51603
30280,51604
30262,51620
30258,51626
30251,51632
30249,51619
30249,51617
30254,51600
30271,51595
30286,51597
" /> 
<polyline style="fill-rule:evenodd;"
points="38196,51602
38199,51615
38198,51630
38193,51631
38180,51617
38176,51614
38165,51600
38168,51595
38179,51595
38196,51602
" /> 
</g>
<g style="fill:#000000; fill-opacity:1.0; 
stroke:#000000; stroke-width:47.2441; stroke-opacity:1; 
stroke-linecap:round; stroke-linejoin:round;">
</g>
<g style="fill:#000000; fill-opacity:0.0; 
stroke:#000000; stroke-width:47.2441; stroke-opacity:1; 
stroke-linecap:round; stroke-linejoin:round;">
<path d="M26849 31873
L26849 47920
" />
<path d="M26849 47920
L28944 47920
" />
<path d="M28944 47920
L28944 30825
" />
<path d="M28944 30825
L27897 30825
" />
<path d="M27897 30825
L27897 31873
" />
<path d="M27897 31873
L26849 31873
" />
<path d="M26849 31373
L26849 30825
" />
<path d="M26849 30825
L27397 30825
" />
<path d="M53873 46868
L53873 30820
" />
<path d="M53873 30820
L51778 30820
" />
<path d="M51778 30820
L51778 47915
" />
<path d="M51778 47915
L52826 47915
" />
<path d="M52826 47915
L52826 46868
" />
<path d="M52826 46868
L53873 46868
" />
<path d="M53873 47368
L53873 47915
" />
<path d="M53873 47915
L53326 47915
" />
<path d="M51897 46872
L51897 30824
" />
<path d="M51897 30824
L49802 30824
" />
<path d="M49802 30824
L49802 47919
" />
<path d="M49802 47919
L50850 47919
" />
<path d="M50850 47919
L50850 46872
" />
<path d="M50850 46872
L51897 46872
" />
<path d="M51897 47372
L51897 47919
" />
<path d="M51897 47919
L51350 47919
" />
<path d="M39770 53449
L39298 53449
" />
<path d="M39298 52756
L39770 52756
" />
<path d="M39502 52693
L40195 52693
" />
<path d="M40195 51485
L39239 51485
" />
</g> 
</svg>
