G04 #@! TF.GenerationSoftware,KiCad,Pcbnew,5.1.9+dfsg1-1~bpo10+1*
G04 #@! TF.CreationDate,2021-11-09T03:07:47+00:00*
G04 #@! TF.ProjectId,120-channel-pogo-pin-board,3132302d-6368-4616-9e6e-656c2d706f67,v3.4*
G04 #@! TF.SameCoordinates,Original*
G04 #@! TF.FileFunction,Legend,Top*
G04 #@! TF.FilePolarity,Positive*
%FSLAX46Y46*%
G04 Gerber Fmt 4.6, Leading zero omitted, Abs format (unit mm)*
G04 Created by KiCad (PCBNEW 5.1.9+dfsg1-1~bpo10+1) date 2021-11-09 03:07:47*
%MOMM*%
%LPD*%
G01*
G04 APERTURE LIST*
%ADD10C,0.101600*%
%ADD11C,0.200000*%
%ADD12C,0.120000*%
%ADD13C,0.127000*%
%ADD14C,0.010000*%
%ADD15C,0.150000*%
G04 APERTURE END LIST*
D10*
X125501428Y-117417904D02*
X125349047Y-117417904D01*
X125272857Y-117456000D01*
X125234761Y-117494095D01*
X125158571Y-117608380D01*
X125120476Y-117760761D01*
X125120476Y-118065523D01*
X125158571Y-118141714D01*
X125196666Y-118179809D01*
X125272857Y-118217904D01*
X125425238Y-118217904D01*
X125501428Y-118179809D01*
X125539523Y-118141714D01*
X125577619Y-118065523D01*
X125577619Y-117875047D01*
X125539523Y-117798857D01*
X125501428Y-117760761D01*
X125425238Y-117722666D01*
X125272857Y-117722666D01*
X125196666Y-117760761D01*
X125158571Y-117798857D01*
X125120476Y-117875047D01*
X125844285Y-117417904D02*
X126339523Y-117417904D01*
X126072857Y-117722666D01*
X126187142Y-117722666D01*
X126263333Y-117760761D01*
X126301428Y-117798857D01*
X126339523Y-117875047D01*
X126339523Y-118065523D01*
X126301428Y-118141714D01*
X126263333Y-118179809D01*
X126187142Y-118217904D01*
X125958571Y-118217904D01*
X125882380Y-118179809D01*
X125844285Y-118141714D01*
X137693428Y-117417904D02*
X137541047Y-117417904D01*
X137464857Y-117456000D01*
X137426761Y-117494095D01*
X137350571Y-117608380D01*
X137312476Y-117760761D01*
X137312476Y-118065523D01*
X137350571Y-118141714D01*
X137388666Y-118179809D01*
X137464857Y-118217904D01*
X137617238Y-118217904D01*
X137693428Y-118179809D01*
X137731523Y-118141714D01*
X137769619Y-118065523D01*
X137769619Y-117875047D01*
X137731523Y-117798857D01*
X137693428Y-117760761D01*
X137617238Y-117722666D01*
X137464857Y-117722666D01*
X137388666Y-117760761D01*
X137350571Y-117798857D01*
X137312476Y-117875047D01*
X138264857Y-117417904D02*
X138341047Y-117417904D01*
X138417238Y-117456000D01*
X138455333Y-117494095D01*
X138493428Y-117570285D01*
X138531523Y-117722666D01*
X138531523Y-117913142D01*
X138493428Y-118065523D01*
X138455333Y-118141714D01*
X138417238Y-118179809D01*
X138341047Y-118217904D01*
X138264857Y-118217904D01*
X138188666Y-118179809D01*
X138150571Y-118141714D01*
X138112476Y-118065523D01*
X138074380Y-117913142D01*
X138074380Y-117722666D01*
X138112476Y-117570285D01*
X138150571Y-117494095D01*
X138188666Y-117456000D01*
X138264857Y-117417904D01*
X137709333Y-82612666D02*
X137309333Y-82612666D01*
X137509333Y-82612666D02*
X137509333Y-81912666D01*
X137442666Y-82012666D01*
X137376000Y-82079333D01*
X137309333Y-82112666D01*
X138376000Y-82612666D02*
X137976000Y-82612666D01*
X138176000Y-82612666D02*
X138176000Y-81912666D01*
X138109333Y-82012666D01*
X138042666Y-82079333D01*
X137976000Y-82112666D01*
X138976000Y-81912666D02*
X138842666Y-81912666D01*
X138776000Y-81946000D01*
X138742666Y-81979333D01*
X138676000Y-82079333D01*
X138642666Y-82212666D01*
X138642666Y-82479333D01*
X138676000Y-82546000D01*
X138709333Y-82579333D01*
X138776000Y-82612666D01*
X138909333Y-82612666D01*
X138976000Y-82579333D01*
X139009333Y-82546000D01*
X139042666Y-82479333D01*
X139042666Y-82312666D01*
X139009333Y-82246000D01*
X138976000Y-82212666D01*
X138909333Y-82179333D01*
X138776000Y-82179333D01*
X138709333Y-82212666D01*
X138676000Y-82246000D01*
X138642666Y-82312666D01*
X125009333Y-82612666D02*
X124609333Y-82612666D01*
X124809333Y-82612666D02*
X124809333Y-81912666D01*
X124742666Y-82012666D01*
X124676000Y-82079333D01*
X124609333Y-82112666D01*
X125676000Y-82612666D02*
X125276000Y-82612666D01*
X125476000Y-82612666D02*
X125476000Y-81912666D01*
X125409333Y-82012666D01*
X125342666Y-82079333D01*
X125276000Y-82112666D01*
X126009333Y-82612666D02*
X126142666Y-82612666D01*
X126209333Y-82579333D01*
X126242666Y-82546000D01*
X126309333Y-82446000D01*
X126342666Y-82312666D01*
X126342666Y-82046000D01*
X126309333Y-81979333D01*
X126276000Y-81946000D01*
X126209333Y-81912666D01*
X126076000Y-81912666D01*
X126009333Y-81946000D01*
X125976000Y-81979333D01*
X125942666Y-82046000D01*
X125942666Y-82212666D01*
X125976000Y-82279333D01*
X126009333Y-82312666D01*
X126076000Y-82346000D01*
X126209333Y-82346000D01*
X126276000Y-82312666D01*
X126309333Y-82279333D01*
X126342666Y-82212666D01*
X74221904Y-81821904D02*
X74298095Y-81821904D01*
X74374285Y-81860000D01*
X74412380Y-81898095D01*
X74450476Y-81974285D01*
X74488571Y-82126666D01*
X74488571Y-82317142D01*
X74450476Y-82469523D01*
X74412380Y-82545714D01*
X74374285Y-82583809D01*
X74298095Y-82621904D01*
X74221904Y-82621904D01*
X74145714Y-82583809D01*
X74107619Y-82545714D01*
X74069523Y-82469523D01*
X74031428Y-82317142D01*
X74031428Y-82126666D01*
X74069523Y-81974285D01*
X74107619Y-81898095D01*
X74145714Y-81860000D01*
X74221904Y-81821904D01*
X61969523Y-117331904D02*
X61588571Y-117331904D01*
X61550476Y-117712857D01*
X61588571Y-117674761D01*
X61664761Y-117636666D01*
X61855238Y-117636666D01*
X61931428Y-117674761D01*
X61969523Y-117712857D01*
X62007619Y-117789047D01*
X62007619Y-117979523D01*
X61969523Y-118055714D01*
X61931428Y-118093809D01*
X61855238Y-118131904D01*
X61664761Y-118131904D01*
X61588571Y-118093809D01*
X61550476Y-118055714D01*
X62388571Y-118131904D02*
X62540952Y-118131904D01*
X62617142Y-118093809D01*
X62655238Y-118055714D01*
X62731428Y-117941428D01*
X62769523Y-117789047D01*
X62769523Y-117484285D01*
X62731428Y-117408095D01*
X62693333Y-117370000D01*
X62617142Y-117331904D01*
X62464761Y-117331904D01*
X62388571Y-117370000D01*
X62350476Y-117408095D01*
X62312380Y-117484285D01*
X62312380Y-117674761D01*
X62350476Y-117750952D01*
X62388571Y-117789047D01*
X62464761Y-117827142D01*
X62617142Y-117827142D01*
X62693333Y-117789047D01*
X62731428Y-117750952D01*
X62769523Y-117674761D01*
X74239523Y-117331904D02*
X73858571Y-117331904D01*
X73820476Y-117712857D01*
X73858571Y-117674761D01*
X73934761Y-117636666D01*
X74125238Y-117636666D01*
X74201428Y-117674761D01*
X74239523Y-117712857D01*
X74277619Y-117789047D01*
X74277619Y-117979523D01*
X74239523Y-118055714D01*
X74201428Y-118093809D01*
X74125238Y-118131904D01*
X73934761Y-118131904D01*
X73858571Y-118093809D01*
X73820476Y-118055714D01*
X74963333Y-117331904D02*
X74810952Y-117331904D01*
X74734761Y-117370000D01*
X74696666Y-117408095D01*
X74620476Y-117522380D01*
X74582380Y-117674761D01*
X74582380Y-117979523D01*
X74620476Y-118055714D01*
X74658571Y-118093809D01*
X74734761Y-118131904D01*
X74887142Y-118131904D01*
X74963333Y-118093809D01*
X75001428Y-118055714D01*
X75039523Y-117979523D01*
X75039523Y-117789047D01*
X75001428Y-117712857D01*
X74963333Y-117674761D01*
X74887142Y-117636666D01*
X74734761Y-117636666D01*
X74658571Y-117674761D01*
X74620476Y-117712857D01*
X74582380Y-117789047D01*
X128064285Y-122640000D02*
X128092857Y-122668571D01*
X128121428Y-122754285D01*
X128121428Y-122811428D01*
X128092857Y-122897142D01*
X128035714Y-122954285D01*
X127978571Y-122982857D01*
X127864285Y-123011428D01*
X127778571Y-123011428D01*
X127664285Y-122982857D01*
X127607142Y-122954285D01*
X127550000Y-122897142D01*
X127521428Y-122811428D01*
X127521428Y-122754285D01*
X127550000Y-122668571D01*
X127578571Y-122640000D01*
X128092857Y-122411428D02*
X128121428Y-122325714D01*
X128121428Y-122182857D01*
X128092857Y-122125714D01*
X128064285Y-122097142D01*
X128007142Y-122068571D01*
X127950000Y-122068571D01*
X127892857Y-122097142D01*
X127864285Y-122125714D01*
X127835714Y-122182857D01*
X127807142Y-122297142D01*
X127778571Y-122354285D01*
X127750000Y-122382857D01*
X127692857Y-122411428D01*
X127635714Y-122411428D01*
X127578571Y-122382857D01*
X127550000Y-122354285D01*
X127521428Y-122297142D01*
X127521428Y-122154285D01*
X127550000Y-122068571D01*
X130140000Y-123247142D02*
X130111428Y-123304285D01*
X130111428Y-123390000D01*
X130140000Y-123475714D01*
X130197142Y-123532857D01*
X130254285Y-123561428D01*
X130368571Y-123590000D01*
X130454285Y-123590000D01*
X130568571Y-123561428D01*
X130625714Y-123532857D01*
X130682857Y-123475714D01*
X130711428Y-123390000D01*
X130711428Y-123332857D01*
X130682857Y-123247142D01*
X130654285Y-123218571D01*
X130454285Y-123218571D01*
X130454285Y-123332857D01*
X130711428Y-122961428D02*
X130111428Y-122961428D01*
X130711428Y-122618571D01*
X130111428Y-122618571D01*
X130711428Y-122332857D02*
X130111428Y-122332857D01*
X130111428Y-122190000D01*
X130140000Y-122104285D01*
X130197142Y-122047142D01*
X130254285Y-122018571D01*
X130368571Y-121990000D01*
X130454285Y-121990000D01*
X130568571Y-122018571D01*
X130625714Y-122047142D01*
X130682857Y-122104285D01*
X130711428Y-122190000D01*
X130711428Y-122332857D01*
X133191428Y-124522857D02*
X132591428Y-124522857D01*
X132877142Y-124522857D02*
X132877142Y-124180000D01*
X133191428Y-124180000D02*
X132591428Y-124180000D01*
X132591428Y-123980000D02*
X133191428Y-123780000D01*
X132591428Y-123580000D01*
X133248571Y-123522857D02*
X133248571Y-123065714D01*
X132591428Y-122808571D02*
X132591428Y-122694285D01*
X132620000Y-122637142D01*
X132677142Y-122580000D01*
X132791428Y-122551428D01*
X132991428Y-122551428D01*
X133105714Y-122580000D01*
X133162857Y-122637142D01*
X133191428Y-122694285D01*
X133191428Y-122808571D01*
X133162857Y-122865714D01*
X133105714Y-122922857D01*
X132991428Y-122951428D01*
X132791428Y-122951428D01*
X132677142Y-122922857D01*
X132620000Y-122865714D01*
X132591428Y-122808571D01*
X132877142Y-122294285D02*
X132877142Y-122094285D01*
X133191428Y-122008571D02*
X133191428Y-122294285D01*
X132591428Y-122294285D01*
X132591428Y-122008571D01*
X135201428Y-123195714D02*
X135801428Y-122795714D01*
X135201428Y-122795714D02*
X135801428Y-123195714D01*
X135258571Y-122595714D02*
X135230000Y-122567142D01*
X135201428Y-122510000D01*
X135201428Y-122367142D01*
X135230000Y-122310000D01*
X135258571Y-122281428D01*
X135315714Y-122252857D01*
X135372857Y-122252857D01*
X135458571Y-122281428D01*
X135801428Y-122624285D01*
X135801428Y-122252857D01*
X135211428Y-77885714D02*
X135811428Y-77485714D01*
X135211428Y-77485714D02*
X135811428Y-77885714D01*
X135268571Y-77285714D02*
X135240000Y-77257142D01*
X135211428Y-77200000D01*
X135211428Y-77057142D01*
X135240000Y-77000000D01*
X135268571Y-76971428D01*
X135325714Y-76942857D01*
X135382857Y-76942857D01*
X135468571Y-76971428D01*
X135811428Y-77314285D01*
X135811428Y-76942857D01*
X133261428Y-77912857D02*
X132661428Y-77912857D01*
X132947142Y-77912857D02*
X132947142Y-77570000D01*
X133261428Y-77570000D02*
X132661428Y-77570000D01*
X132661428Y-77370000D02*
X133261428Y-77170000D01*
X132661428Y-76970000D01*
X133318571Y-76912857D02*
X133318571Y-76455714D01*
X132661428Y-76198571D02*
X132661428Y-76084285D01*
X132690000Y-76027142D01*
X132747142Y-75970000D01*
X132861428Y-75941428D01*
X133061428Y-75941428D01*
X133175714Y-75970000D01*
X133232857Y-76027142D01*
X133261428Y-76084285D01*
X133261428Y-76198571D01*
X133232857Y-76255714D01*
X133175714Y-76312857D01*
X133061428Y-76341428D01*
X132861428Y-76341428D01*
X132747142Y-76312857D01*
X132690000Y-76255714D01*
X132661428Y-76198571D01*
X132947142Y-75684285D02*
X132947142Y-75484285D01*
X133261428Y-75398571D02*
X133261428Y-75684285D01*
X132661428Y-75684285D01*
X132661428Y-75398571D01*
X130220000Y-77567142D02*
X130191428Y-77624285D01*
X130191428Y-77710000D01*
X130220000Y-77795714D01*
X130277142Y-77852857D01*
X130334285Y-77881428D01*
X130448571Y-77910000D01*
X130534285Y-77910000D01*
X130648571Y-77881428D01*
X130705714Y-77852857D01*
X130762857Y-77795714D01*
X130791428Y-77710000D01*
X130791428Y-77652857D01*
X130762857Y-77567142D01*
X130734285Y-77538571D01*
X130534285Y-77538571D01*
X130534285Y-77652857D01*
X130791428Y-77281428D02*
X130191428Y-77281428D01*
X130791428Y-76938571D01*
X130191428Y-76938571D01*
X130791428Y-76652857D02*
X130191428Y-76652857D01*
X130191428Y-76510000D01*
X130220000Y-76424285D01*
X130277142Y-76367142D01*
X130334285Y-76338571D01*
X130448571Y-76310000D01*
X130534285Y-76310000D01*
X130648571Y-76338571D01*
X130705714Y-76367142D01*
X130762857Y-76424285D01*
X130791428Y-76510000D01*
X130791428Y-76652857D01*
X128124285Y-77480000D02*
X128152857Y-77508571D01*
X128181428Y-77594285D01*
X128181428Y-77651428D01*
X128152857Y-77737142D01*
X128095714Y-77794285D01*
X128038571Y-77822857D01*
X127924285Y-77851428D01*
X127838571Y-77851428D01*
X127724285Y-77822857D01*
X127667142Y-77794285D01*
X127610000Y-77737142D01*
X127581428Y-77651428D01*
X127581428Y-77594285D01*
X127610000Y-77508571D01*
X127638571Y-77480000D01*
X128152857Y-77251428D02*
X128181428Y-77165714D01*
X128181428Y-77022857D01*
X128152857Y-76965714D01*
X128124285Y-76937142D01*
X128067142Y-76908571D01*
X128010000Y-76908571D01*
X127952857Y-76937142D01*
X127924285Y-76965714D01*
X127895714Y-77022857D01*
X127867142Y-77137142D01*
X127838571Y-77194285D01*
X127810000Y-77222857D01*
X127752857Y-77251428D01*
X127695714Y-77251428D01*
X127638571Y-77222857D01*
X127610000Y-77194285D01*
X127581428Y-77137142D01*
X127581428Y-76994285D01*
X127610000Y-76908571D01*
X72464285Y-122760000D02*
X72492857Y-122788571D01*
X72521428Y-122874285D01*
X72521428Y-122931428D01*
X72492857Y-123017142D01*
X72435714Y-123074285D01*
X72378571Y-123102857D01*
X72264285Y-123131428D01*
X72178571Y-123131428D01*
X72064285Y-123102857D01*
X72007142Y-123074285D01*
X71950000Y-123017142D01*
X71921428Y-122931428D01*
X71921428Y-122874285D01*
X71950000Y-122788571D01*
X71978571Y-122760000D01*
X72492857Y-122531428D02*
X72521428Y-122445714D01*
X72521428Y-122302857D01*
X72492857Y-122245714D01*
X72464285Y-122217142D01*
X72407142Y-122188571D01*
X72350000Y-122188571D01*
X72292857Y-122217142D01*
X72264285Y-122245714D01*
X72235714Y-122302857D01*
X72207142Y-122417142D01*
X72178571Y-122474285D01*
X72150000Y-122502857D01*
X72092857Y-122531428D01*
X72035714Y-122531428D01*
X71978571Y-122502857D01*
X71950000Y-122474285D01*
X71921428Y-122417142D01*
X71921428Y-122274285D01*
X71950000Y-122188571D01*
X64181428Y-122835714D02*
X64781428Y-122435714D01*
X64181428Y-122435714D02*
X64781428Y-122835714D01*
X64781428Y-121892857D02*
X64781428Y-122235714D01*
X64781428Y-122064285D02*
X64181428Y-122064285D01*
X64267142Y-122121428D01*
X64324285Y-122178571D01*
X64352857Y-122235714D01*
X67351428Y-124562857D02*
X66751428Y-124562857D01*
X67037142Y-124562857D02*
X67037142Y-124220000D01*
X67351428Y-124220000D02*
X66751428Y-124220000D01*
X66751428Y-124020000D02*
X67351428Y-123820000D01*
X66751428Y-123620000D01*
X67408571Y-123562857D02*
X67408571Y-123105714D01*
X66751428Y-122848571D02*
X66751428Y-122734285D01*
X66780000Y-122677142D01*
X66837142Y-122620000D01*
X66951428Y-122591428D01*
X67151428Y-122591428D01*
X67265714Y-122620000D01*
X67322857Y-122677142D01*
X67351428Y-122734285D01*
X67351428Y-122848571D01*
X67322857Y-122905714D01*
X67265714Y-122962857D01*
X67151428Y-122991428D01*
X66951428Y-122991428D01*
X66837142Y-122962857D01*
X66780000Y-122905714D01*
X66751428Y-122848571D01*
X67037142Y-122334285D02*
X67037142Y-122134285D01*
X67351428Y-122048571D02*
X67351428Y-122334285D01*
X66751428Y-122334285D01*
X66751428Y-122048571D01*
X69320000Y-123297142D02*
X69291428Y-123354285D01*
X69291428Y-123440000D01*
X69320000Y-123525714D01*
X69377142Y-123582857D01*
X69434285Y-123611428D01*
X69548571Y-123640000D01*
X69634285Y-123640000D01*
X69748571Y-123611428D01*
X69805714Y-123582857D01*
X69862857Y-123525714D01*
X69891428Y-123440000D01*
X69891428Y-123382857D01*
X69862857Y-123297142D01*
X69834285Y-123268571D01*
X69634285Y-123268571D01*
X69634285Y-123382857D01*
X69891428Y-123011428D02*
X69291428Y-123011428D01*
X69891428Y-122668571D01*
X69291428Y-122668571D01*
X69891428Y-122382857D02*
X69291428Y-122382857D01*
X69291428Y-122240000D01*
X69320000Y-122154285D01*
X69377142Y-122097142D01*
X69434285Y-122068571D01*
X69548571Y-122040000D01*
X69634285Y-122040000D01*
X69748571Y-122068571D01*
X69805714Y-122097142D01*
X69862857Y-122154285D01*
X69891428Y-122240000D01*
X69891428Y-122382857D01*
X72394285Y-77670000D02*
X72422857Y-77698571D01*
X72451428Y-77784285D01*
X72451428Y-77841428D01*
X72422857Y-77927142D01*
X72365714Y-77984285D01*
X72308571Y-78012857D01*
X72194285Y-78041428D01*
X72108571Y-78041428D01*
X71994285Y-78012857D01*
X71937142Y-77984285D01*
X71880000Y-77927142D01*
X71851428Y-77841428D01*
X71851428Y-77784285D01*
X71880000Y-77698571D01*
X71908571Y-77670000D01*
X72422857Y-77441428D02*
X72451428Y-77355714D01*
X72451428Y-77212857D01*
X72422857Y-77155714D01*
X72394285Y-77127142D01*
X72337142Y-77098571D01*
X72280000Y-77098571D01*
X72222857Y-77127142D01*
X72194285Y-77155714D01*
X72165714Y-77212857D01*
X72137142Y-77327142D01*
X72108571Y-77384285D01*
X72080000Y-77412857D01*
X72022857Y-77441428D01*
X71965714Y-77441428D01*
X71908571Y-77412857D01*
X71880000Y-77384285D01*
X71851428Y-77327142D01*
X71851428Y-77184285D01*
X71880000Y-77098571D01*
X69380000Y-77707142D02*
X69351428Y-77764285D01*
X69351428Y-77850000D01*
X69380000Y-77935714D01*
X69437142Y-77992857D01*
X69494285Y-78021428D01*
X69608571Y-78050000D01*
X69694285Y-78050000D01*
X69808571Y-78021428D01*
X69865714Y-77992857D01*
X69922857Y-77935714D01*
X69951428Y-77850000D01*
X69951428Y-77792857D01*
X69922857Y-77707142D01*
X69894285Y-77678571D01*
X69694285Y-77678571D01*
X69694285Y-77792857D01*
X69951428Y-77421428D02*
X69351428Y-77421428D01*
X69951428Y-77078571D01*
X69351428Y-77078571D01*
X69951428Y-76792857D02*
X69351428Y-76792857D01*
X69351428Y-76650000D01*
X69380000Y-76564285D01*
X69437142Y-76507142D01*
X69494285Y-76478571D01*
X69608571Y-76450000D01*
X69694285Y-76450000D01*
X69808571Y-76478571D01*
X69865714Y-76507142D01*
X69922857Y-76564285D01*
X69951428Y-76650000D01*
X69951428Y-76792857D01*
X67271428Y-78017857D02*
X66671428Y-78017857D01*
X66957142Y-78017857D02*
X66957142Y-77675000D01*
X67271428Y-77675000D02*
X66671428Y-77675000D01*
X66671428Y-77475000D02*
X67271428Y-77275000D01*
X66671428Y-77075000D01*
X67328571Y-77017857D02*
X67328571Y-76560714D01*
X66671428Y-76303571D02*
X66671428Y-76189285D01*
X66700000Y-76132142D01*
X66757142Y-76075000D01*
X66871428Y-76046428D01*
X67071428Y-76046428D01*
X67185714Y-76075000D01*
X67242857Y-76132142D01*
X67271428Y-76189285D01*
X67271428Y-76303571D01*
X67242857Y-76360714D01*
X67185714Y-76417857D01*
X67071428Y-76446428D01*
X66871428Y-76446428D01*
X66757142Y-76417857D01*
X66700000Y-76360714D01*
X66671428Y-76303571D01*
X66957142Y-75789285D02*
X66957142Y-75589285D01*
X67271428Y-75503571D02*
X67271428Y-75789285D01*
X66671428Y-75789285D01*
X66671428Y-75503571D01*
X64041428Y-78015714D02*
X64641428Y-77615714D01*
X64041428Y-77615714D02*
X64641428Y-78015714D01*
X64641428Y-77072857D02*
X64641428Y-77415714D01*
X64641428Y-77244285D02*
X64041428Y-77244285D01*
X64127142Y-77301428D01*
X64184285Y-77358571D01*
X64212857Y-77415714D01*
X62108333Y-81836904D02*
X62603571Y-81836904D01*
X62336904Y-82141666D01*
X62451190Y-82141666D01*
X62527380Y-82179761D01*
X62565476Y-82217857D01*
X62603571Y-82294047D01*
X62603571Y-82484523D01*
X62565476Y-82560714D01*
X62527380Y-82598809D01*
X62451190Y-82636904D01*
X62222619Y-82636904D01*
X62146428Y-82598809D01*
X62108333Y-82560714D01*
D11*
X105923809Y-132602380D02*
X105923809Y-131602380D01*
X106266666Y-132602380D02*
X106266666Y-132078571D01*
X106228571Y-131983333D01*
X106152380Y-131935714D01*
X106038095Y-131935714D01*
X105961904Y-131983333D01*
X105923809Y-132030952D01*
X106533333Y-131935714D02*
X106838095Y-131935714D01*
X106647619Y-131602380D02*
X106647619Y-132459523D01*
X106685714Y-132554761D01*
X106761904Y-132602380D01*
X106838095Y-132602380D01*
X106990476Y-131935714D02*
X107295238Y-131935714D01*
X107104761Y-131602380D02*
X107104761Y-132459523D01*
X107142857Y-132554761D01*
X107219047Y-132602380D01*
X107295238Y-132602380D01*
X107561904Y-131935714D02*
X107561904Y-132935714D01*
X107561904Y-131983333D02*
X107638095Y-131935714D01*
X107790476Y-131935714D01*
X107866666Y-131983333D01*
X107904761Y-132030952D01*
X107942857Y-132126190D01*
X107942857Y-132411904D01*
X107904761Y-132507142D01*
X107866666Y-132554761D01*
X107790476Y-132602380D01*
X107638095Y-132602380D01*
X107561904Y-132554761D01*
X108285714Y-132507142D02*
X108323809Y-132554761D01*
X108285714Y-132602380D01*
X108247619Y-132554761D01*
X108285714Y-132507142D01*
X108285714Y-132602380D01*
X108285714Y-131983333D02*
X108323809Y-132030952D01*
X108285714Y-132078571D01*
X108247619Y-132030952D01*
X108285714Y-131983333D01*
X108285714Y-132078571D01*
X109238095Y-131554761D02*
X108552380Y-132840476D01*
X110076190Y-131554761D02*
X109390476Y-132840476D01*
X110304761Y-132554761D02*
X110380952Y-132602380D01*
X110533333Y-132602380D01*
X110609523Y-132554761D01*
X110647619Y-132459523D01*
X110647619Y-132411904D01*
X110609523Y-132316666D01*
X110533333Y-132269047D01*
X110419047Y-132269047D01*
X110342857Y-132221428D01*
X110304761Y-132126190D01*
X110304761Y-132078571D01*
X110342857Y-131983333D01*
X110419047Y-131935714D01*
X110533333Y-131935714D01*
X110609523Y-131983333D01*
X111333333Y-132554761D02*
X111257142Y-132602380D01*
X111104761Y-132602380D01*
X111028571Y-132554761D01*
X110990476Y-132507142D01*
X110952380Y-132411904D01*
X110952380Y-132126190D01*
X110990476Y-132030952D01*
X111028571Y-131983333D01*
X111104761Y-131935714D01*
X111257142Y-131935714D01*
X111333333Y-131983333D01*
X111676190Y-132602380D02*
X111676190Y-131935714D01*
X111676190Y-131602380D02*
X111638095Y-131650000D01*
X111676190Y-131697619D01*
X111714285Y-131650000D01*
X111676190Y-131602380D01*
X111676190Y-131697619D01*
X112057142Y-132221428D02*
X112666666Y-132221428D01*
X113047619Y-132602380D02*
X113047619Y-131602380D01*
X113047619Y-131983333D02*
X113123809Y-131935714D01*
X113276190Y-131935714D01*
X113352380Y-131983333D01*
X113390476Y-132030952D01*
X113428571Y-132126190D01*
X113428571Y-132411904D01*
X113390476Y-132507142D01*
X113352380Y-132554761D01*
X113276190Y-132602380D01*
X113123809Y-132602380D01*
X113047619Y-132554761D01*
X113885714Y-132602380D02*
X113809523Y-132554761D01*
X113771428Y-132507142D01*
X113733333Y-132411904D01*
X113733333Y-132126190D01*
X113771428Y-132030952D01*
X113809523Y-131983333D01*
X113885714Y-131935714D01*
X114000000Y-131935714D01*
X114076190Y-131983333D01*
X114114285Y-132030952D01*
X114152380Y-132126190D01*
X114152380Y-132411904D01*
X114114285Y-132507142D01*
X114076190Y-132554761D01*
X114000000Y-132602380D01*
X113885714Y-132602380D01*
X114380952Y-131935714D02*
X114685714Y-131935714D01*
X114495238Y-131602380D02*
X114495238Y-132459523D01*
X114533333Y-132554761D01*
X114609523Y-132602380D01*
X114685714Y-132602380D01*
X114914285Y-132554761D02*
X114990476Y-132602380D01*
X115142857Y-132602380D01*
X115219047Y-132554761D01*
X115257142Y-132459523D01*
X115257142Y-132411904D01*
X115219047Y-132316666D01*
X115142857Y-132269047D01*
X115028571Y-132269047D01*
X114952380Y-132221428D01*
X114914285Y-132126190D01*
X114914285Y-132078571D01*
X114952380Y-131983333D01*
X115028571Y-131935714D01*
X115142857Y-131935714D01*
X115219047Y-131983333D01*
X115600000Y-132507142D02*
X115638095Y-132554761D01*
X115600000Y-132602380D01*
X115561904Y-132554761D01*
X115600000Y-132507142D01*
X115600000Y-132602380D01*
X116323809Y-132554761D02*
X116247619Y-132602380D01*
X116095238Y-132602380D01*
X116019047Y-132554761D01*
X115980952Y-132507142D01*
X115942857Y-132411904D01*
X115942857Y-132126190D01*
X115980952Y-132030952D01*
X116019047Y-131983333D01*
X116095238Y-131935714D01*
X116247619Y-131935714D01*
X116323809Y-131983333D01*
X116780952Y-132602380D02*
X116704761Y-132554761D01*
X116666666Y-132507142D01*
X116628571Y-132411904D01*
X116628571Y-132126190D01*
X116666666Y-132030952D01*
X116704761Y-131983333D01*
X116780952Y-131935714D01*
X116895238Y-131935714D01*
X116971428Y-131983333D01*
X117009523Y-132030952D01*
X117047619Y-132126190D01*
X117047619Y-132411904D01*
X117009523Y-132507142D01*
X116971428Y-132554761D01*
X116895238Y-132602380D01*
X116780952Y-132602380D01*
X117390476Y-132602380D02*
X117390476Y-131935714D01*
X117390476Y-132030952D02*
X117428571Y-131983333D01*
X117504761Y-131935714D01*
X117619047Y-131935714D01*
X117695238Y-131983333D01*
X117733333Y-132078571D01*
X117733333Y-132602380D01*
X117733333Y-132078571D02*
X117771428Y-131983333D01*
X117847619Y-131935714D01*
X117961904Y-131935714D01*
X118038095Y-131983333D01*
X118076190Y-132078571D01*
X118076190Y-132602380D01*
X106019047Y-134254761D02*
X106133333Y-134302380D01*
X106323809Y-134302380D01*
X106400000Y-134254761D01*
X106438095Y-134207142D01*
X106476190Y-134111904D01*
X106476190Y-134016666D01*
X106438095Y-133921428D01*
X106400000Y-133873809D01*
X106323809Y-133826190D01*
X106171428Y-133778571D01*
X106095238Y-133730952D01*
X106057142Y-133683333D01*
X106019047Y-133588095D01*
X106019047Y-133492857D01*
X106057142Y-133397619D01*
X106095238Y-133350000D01*
X106171428Y-133302380D01*
X106361904Y-133302380D01*
X106476190Y-133350000D01*
X107161904Y-134254761D02*
X107085714Y-134302380D01*
X106933333Y-134302380D01*
X106857142Y-134254761D01*
X106819047Y-134207142D01*
X106780952Y-134111904D01*
X106780952Y-133826190D01*
X106819047Y-133730952D01*
X106857142Y-133683333D01*
X106933333Y-133635714D01*
X107085714Y-133635714D01*
X107161904Y-133683333D01*
X107504761Y-134302380D02*
X107504761Y-133635714D01*
X107504761Y-133302380D02*
X107466666Y-133350000D01*
X107504761Y-133397619D01*
X107542857Y-133350000D01*
X107504761Y-133302380D01*
X107504761Y-133397619D01*
X107885714Y-133921428D02*
X108495238Y-133921428D01*
X109142857Y-133778571D02*
X109257142Y-133826190D01*
X109295238Y-133873809D01*
X109333333Y-133969047D01*
X109333333Y-134111904D01*
X109295238Y-134207142D01*
X109257142Y-134254761D01*
X109180952Y-134302380D01*
X108876190Y-134302380D01*
X108876190Y-133302380D01*
X109142857Y-133302380D01*
X109219047Y-133350000D01*
X109257142Y-133397619D01*
X109295238Y-133492857D01*
X109295238Y-133588095D01*
X109257142Y-133683333D01*
X109219047Y-133730952D01*
X109142857Y-133778571D01*
X108876190Y-133778571D01*
X109790476Y-134302380D02*
X109714285Y-134254761D01*
X109676190Y-134207142D01*
X109638095Y-134111904D01*
X109638095Y-133826190D01*
X109676190Y-133730952D01*
X109714285Y-133683333D01*
X109790476Y-133635714D01*
X109904761Y-133635714D01*
X109980952Y-133683333D01*
X110019047Y-133730952D01*
X110057142Y-133826190D01*
X110057142Y-134111904D01*
X110019047Y-134207142D01*
X109980952Y-134254761D01*
X109904761Y-134302380D01*
X109790476Y-134302380D01*
X110285714Y-133635714D02*
X110590476Y-133635714D01*
X110400000Y-133302380D02*
X110400000Y-134159523D01*
X110438095Y-134254761D01*
X110514285Y-134302380D01*
X110590476Y-134302380D01*
X110819047Y-134254761D02*
X110895238Y-134302380D01*
X111047619Y-134302380D01*
X111123809Y-134254761D01*
X111161904Y-134159523D01*
X111161904Y-134111904D01*
X111123809Y-134016666D01*
X111047619Y-133969047D01*
X110933333Y-133969047D01*
X110857142Y-133921428D01*
X110819047Y-133826190D01*
X110819047Y-133778571D01*
X110857142Y-133683333D01*
X110933333Y-133635714D01*
X111047619Y-133635714D01*
X111123809Y-133683333D01*
X112114285Y-134302380D02*
X112114285Y-133302380D01*
X112495238Y-133635714D02*
X112495238Y-134302380D01*
X112495238Y-133730952D02*
X112533333Y-133683333D01*
X112609523Y-133635714D01*
X112723809Y-133635714D01*
X112800000Y-133683333D01*
X112838095Y-133778571D01*
X112838095Y-134302380D01*
X113561904Y-134254761D02*
X113485714Y-134302380D01*
X113333333Y-134302380D01*
X113257142Y-134254761D01*
X113219047Y-134207142D01*
X113180952Y-134111904D01*
X113180952Y-133826190D01*
X113219047Y-133730952D01*
X113257142Y-133683333D01*
X113333333Y-133635714D01*
X113485714Y-133635714D01*
X113561904Y-133683333D01*
X113904761Y-134207142D02*
X113942857Y-134254761D01*
X113904761Y-134302380D01*
X113866666Y-134254761D01*
X113904761Y-134207142D01*
X113904761Y-134302380D01*
X114323809Y-134254761D02*
X114323809Y-134302380D01*
X114285714Y-134397619D01*
X114247619Y-134445238D01*
X115238095Y-133397619D02*
X115276190Y-133350000D01*
X115352380Y-133302380D01*
X115542857Y-133302380D01*
X115619047Y-133350000D01*
X115657142Y-133397619D01*
X115695238Y-133492857D01*
X115695238Y-133588095D01*
X115657142Y-133730952D01*
X115200000Y-134302380D01*
X115695238Y-134302380D01*
X116190476Y-133302380D02*
X116266666Y-133302380D01*
X116342857Y-133350000D01*
X116380952Y-133397619D01*
X116419047Y-133492857D01*
X116457142Y-133683333D01*
X116457142Y-133921428D01*
X116419047Y-134111904D01*
X116380952Y-134207142D01*
X116342857Y-134254761D01*
X116266666Y-134302380D01*
X116190476Y-134302380D01*
X116114285Y-134254761D01*
X116076190Y-134207142D01*
X116038095Y-134111904D01*
X116000000Y-133921428D01*
X116000000Y-133683333D01*
X116038095Y-133492857D01*
X116076190Y-133397619D01*
X116114285Y-133350000D01*
X116190476Y-133302380D01*
X117219047Y-134302380D02*
X116761904Y-134302380D01*
X116990476Y-134302380D02*
X116990476Y-133302380D01*
X116914285Y-133445238D01*
X116838095Y-133540476D01*
X116761904Y-133588095D01*
X117676190Y-133730952D02*
X117600000Y-133683333D01*
X117561904Y-133635714D01*
X117523809Y-133540476D01*
X117523809Y-133492857D01*
X117561904Y-133397619D01*
X117600000Y-133350000D01*
X117676190Y-133302380D01*
X117828571Y-133302380D01*
X117904761Y-133350000D01*
X117942857Y-133397619D01*
X117980952Y-133492857D01*
X117980952Y-133540476D01*
X117942857Y-133635714D01*
X117904761Y-133683333D01*
X117828571Y-133730952D01*
X117676190Y-133730952D01*
X117600000Y-133778571D01*
X117561904Y-133826190D01*
X117523809Y-133921428D01*
X117523809Y-134111904D01*
X117561904Y-134207142D01*
X117600000Y-134254761D01*
X117676190Y-134302380D01*
X117828571Y-134302380D01*
X117904761Y-134254761D01*
X117942857Y-134207142D01*
X117980952Y-134111904D01*
X117980952Y-133921428D01*
X117942857Y-133826190D01*
X117904761Y-133778571D01*
X117828571Y-133730952D01*
X83320476Y-135602380D02*
X83320476Y-134602380D01*
X83510952Y-134602380D01*
X83625238Y-134650000D01*
X83701428Y-134745238D01*
X83739523Y-134840476D01*
X83777619Y-135030952D01*
X83777619Y-135173809D01*
X83739523Y-135364285D01*
X83701428Y-135459523D01*
X83625238Y-135554761D01*
X83510952Y-135602380D01*
X83320476Y-135602380D01*
X84120476Y-135602380D02*
X84120476Y-134935714D01*
X84120476Y-135126190D02*
X84158571Y-135030952D01*
X84196666Y-134983333D01*
X84272857Y-134935714D01*
X84349047Y-134935714D01*
X84730000Y-135602380D02*
X84653809Y-135554761D01*
X84615714Y-135507142D01*
X84577619Y-135411904D01*
X84577619Y-135126190D01*
X84615714Y-135030952D01*
X84653809Y-134983333D01*
X84730000Y-134935714D01*
X84844285Y-134935714D01*
X84920476Y-134983333D01*
X84958571Y-135030952D01*
X84996666Y-135126190D01*
X84996666Y-135411904D01*
X84958571Y-135507142D01*
X84920476Y-135554761D01*
X84844285Y-135602380D01*
X84730000Y-135602380D01*
X85339523Y-134935714D02*
X85339523Y-135935714D01*
X85339523Y-134983333D02*
X85415714Y-134935714D01*
X85568095Y-134935714D01*
X85644285Y-134983333D01*
X85682380Y-135030952D01*
X85720476Y-135126190D01*
X85720476Y-135411904D01*
X85682380Y-135507142D01*
X85644285Y-135554761D01*
X85568095Y-135602380D01*
X85415714Y-135602380D01*
X85339523Y-135554761D01*
X86330000Y-135078571D02*
X86444285Y-135126190D01*
X86482380Y-135173809D01*
X86520476Y-135269047D01*
X86520476Y-135411904D01*
X86482380Y-135507142D01*
X86444285Y-135554761D01*
X86368095Y-135602380D01*
X86063333Y-135602380D01*
X86063333Y-134602380D01*
X86330000Y-134602380D01*
X86406190Y-134650000D01*
X86444285Y-134697619D01*
X86482380Y-134792857D01*
X86482380Y-134888095D01*
X86444285Y-134983333D01*
X86406190Y-135030952D01*
X86330000Y-135078571D01*
X86063333Y-135078571D01*
X86977619Y-135602380D02*
X86901428Y-135554761D01*
X86863333Y-135507142D01*
X86825238Y-135411904D01*
X86825238Y-135126190D01*
X86863333Y-135030952D01*
X86901428Y-134983333D01*
X86977619Y-134935714D01*
X87091904Y-134935714D01*
X87168095Y-134983333D01*
X87206190Y-135030952D01*
X87244285Y-135126190D01*
X87244285Y-135411904D01*
X87206190Y-135507142D01*
X87168095Y-135554761D01*
X87091904Y-135602380D01*
X86977619Y-135602380D01*
X87472857Y-134935714D02*
X87777619Y-134935714D01*
X87587142Y-134602380D02*
X87587142Y-135459523D01*
X87625238Y-135554761D01*
X87701428Y-135602380D01*
X87777619Y-135602380D01*
X83739523Y-137302380D02*
X83282380Y-137302380D01*
X83510952Y-137302380D02*
X83510952Y-136302380D01*
X83434761Y-136445238D01*
X83358571Y-136540476D01*
X83282380Y-136588095D01*
X84044285Y-136397619D02*
X84082380Y-136350000D01*
X84158571Y-136302380D01*
X84349047Y-136302380D01*
X84425238Y-136350000D01*
X84463333Y-136397619D01*
X84501428Y-136492857D01*
X84501428Y-136588095D01*
X84463333Y-136730952D01*
X84006190Y-137302380D01*
X84501428Y-137302380D01*
X84996666Y-136302380D02*
X85072857Y-136302380D01*
X85149047Y-136350000D01*
X85187142Y-136397619D01*
X85225238Y-136492857D01*
X85263333Y-136683333D01*
X85263333Y-136921428D01*
X85225238Y-137111904D01*
X85187142Y-137207142D01*
X85149047Y-137254761D01*
X85072857Y-137302380D01*
X84996666Y-137302380D01*
X84920476Y-137254761D01*
X84882380Y-137207142D01*
X84844285Y-137111904D01*
X84806190Y-136921428D01*
X84806190Y-136683333D01*
X84844285Y-136492857D01*
X84882380Y-136397619D01*
X84920476Y-136350000D01*
X84996666Y-136302380D01*
X85606190Y-136921428D02*
X86215714Y-136921428D01*
X86939523Y-137254761D02*
X86863333Y-137302380D01*
X86710952Y-137302380D01*
X86634761Y-137254761D01*
X86596666Y-137207142D01*
X86558571Y-137111904D01*
X86558571Y-136826190D01*
X86596666Y-136730952D01*
X86634761Y-136683333D01*
X86710952Y-136635714D01*
X86863333Y-136635714D01*
X86939523Y-136683333D01*
X87282380Y-137302380D02*
X87282380Y-136302380D01*
X87625238Y-137302380D02*
X87625238Y-136778571D01*
X87587142Y-136683333D01*
X87510952Y-136635714D01*
X87396666Y-136635714D01*
X87320476Y-136683333D01*
X87282380Y-136730952D01*
X88349047Y-137302380D02*
X88349047Y-136778571D01*
X88310952Y-136683333D01*
X88234761Y-136635714D01*
X88082380Y-136635714D01*
X88006190Y-136683333D01*
X88349047Y-137254761D02*
X88272857Y-137302380D01*
X88082380Y-137302380D01*
X88006190Y-137254761D01*
X87968095Y-137159523D01*
X87968095Y-137064285D01*
X88006190Y-136969047D01*
X88082380Y-136921428D01*
X88272857Y-136921428D01*
X88349047Y-136873809D01*
X88730000Y-136635714D02*
X88730000Y-137302380D01*
X88730000Y-136730952D02*
X88768095Y-136683333D01*
X88844285Y-136635714D01*
X88958571Y-136635714D01*
X89034761Y-136683333D01*
X89072857Y-136778571D01*
X89072857Y-137302380D01*
X89453809Y-136635714D02*
X89453809Y-137302380D01*
X89453809Y-136730952D02*
X89491904Y-136683333D01*
X89568095Y-136635714D01*
X89682380Y-136635714D01*
X89758571Y-136683333D01*
X89796666Y-136778571D01*
X89796666Y-137302380D01*
X90482380Y-137254761D02*
X90406190Y-137302380D01*
X90253809Y-137302380D01*
X90177619Y-137254761D01*
X90139523Y-137159523D01*
X90139523Y-136778571D01*
X90177619Y-136683333D01*
X90253809Y-136635714D01*
X90406190Y-136635714D01*
X90482380Y-136683333D01*
X90520476Y-136778571D01*
X90520476Y-136873809D01*
X90139523Y-136969047D01*
X90977619Y-137302380D02*
X90901428Y-137254761D01*
X90863333Y-137159523D01*
X90863333Y-136302380D01*
X91891904Y-136635714D02*
X91891904Y-137635714D01*
X91891904Y-136683333D02*
X91968095Y-136635714D01*
X92120476Y-136635714D01*
X92196666Y-136683333D01*
X92234761Y-136730952D01*
X92272857Y-136826190D01*
X92272857Y-137111904D01*
X92234761Y-137207142D01*
X92196666Y-137254761D01*
X92120476Y-137302380D01*
X91968095Y-137302380D01*
X91891904Y-137254761D01*
X92730000Y-137302380D02*
X92653809Y-137254761D01*
X92615714Y-137207142D01*
X92577619Y-137111904D01*
X92577619Y-136826190D01*
X92615714Y-136730952D01*
X92653809Y-136683333D01*
X92730000Y-136635714D01*
X92844285Y-136635714D01*
X92920476Y-136683333D01*
X92958571Y-136730952D01*
X92996666Y-136826190D01*
X92996666Y-137111904D01*
X92958571Y-137207142D01*
X92920476Y-137254761D01*
X92844285Y-137302380D01*
X92730000Y-137302380D01*
X93682380Y-136635714D02*
X93682380Y-137445238D01*
X93644285Y-137540476D01*
X93606190Y-137588095D01*
X93530000Y-137635714D01*
X93415714Y-137635714D01*
X93339523Y-137588095D01*
X93682380Y-137254761D02*
X93606190Y-137302380D01*
X93453809Y-137302380D01*
X93377619Y-137254761D01*
X93339523Y-137207142D01*
X93301428Y-137111904D01*
X93301428Y-136826190D01*
X93339523Y-136730952D01*
X93377619Y-136683333D01*
X93453809Y-136635714D01*
X93606190Y-136635714D01*
X93682380Y-136683333D01*
X94177619Y-137302380D02*
X94101428Y-137254761D01*
X94063333Y-137207142D01*
X94025238Y-137111904D01*
X94025238Y-136826190D01*
X94063333Y-136730952D01*
X94101428Y-136683333D01*
X94177619Y-136635714D01*
X94291904Y-136635714D01*
X94368095Y-136683333D01*
X94406190Y-136730952D01*
X94444285Y-136826190D01*
X94444285Y-137111904D01*
X94406190Y-137207142D01*
X94368095Y-137254761D01*
X94291904Y-137302380D01*
X94177619Y-137302380D01*
X94787142Y-136921428D02*
X95396666Y-136921428D01*
X95777619Y-136635714D02*
X95777619Y-137635714D01*
X95777619Y-136683333D02*
X95853809Y-136635714D01*
X96006190Y-136635714D01*
X96082380Y-136683333D01*
X96120476Y-136730952D01*
X96158571Y-136826190D01*
X96158571Y-137111904D01*
X96120476Y-137207142D01*
X96082380Y-137254761D01*
X96006190Y-137302380D01*
X95853809Y-137302380D01*
X95777619Y-137254761D01*
X96501428Y-137302380D02*
X96501428Y-136635714D01*
X96501428Y-136302380D02*
X96463333Y-136350000D01*
X96501428Y-136397619D01*
X96539523Y-136350000D01*
X96501428Y-136302380D01*
X96501428Y-136397619D01*
X96882380Y-136635714D02*
X96882380Y-137302380D01*
X96882380Y-136730952D02*
X96920476Y-136683333D01*
X96996666Y-136635714D01*
X97110952Y-136635714D01*
X97187142Y-136683333D01*
X97225238Y-136778571D01*
X97225238Y-137302380D01*
X98215714Y-137302380D02*
X98215714Y-136302380D01*
X98215714Y-136683333D02*
X98291904Y-136635714D01*
X98444285Y-136635714D01*
X98520476Y-136683333D01*
X98558571Y-136730952D01*
X98596666Y-136826190D01*
X98596666Y-137111904D01*
X98558571Y-137207142D01*
X98520476Y-137254761D01*
X98444285Y-137302380D01*
X98291904Y-137302380D01*
X98215714Y-137254761D01*
X99053809Y-137302380D02*
X98977619Y-137254761D01*
X98939523Y-137207142D01*
X98901428Y-137111904D01*
X98901428Y-136826190D01*
X98939523Y-136730952D01*
X98977619Y-136683333D01*
X99053809Y-136635714D01*
X99168095Y-136635714D01*
X99244285Y-136683333D01*
X99282380Y-136730952D01*
X99320476Y-136826190D01*
X99320476Y-137111904D01*
X99282380Y-137207142D01*
X99244285Y-137254761D01*
X99168095Y-137302380D01*
X99053809Y-137302380D01*
X100006190Y-137302380D02*
X100006190Y-136778571D01*
X99968095Y-136683333D01*
X99891904Y-136635714D01*
X99739523Y-136635714D01*
X99663333Y-136683333D01*
X100006190Y-137254761D02*
X99930000Y-137302380D01*
X99739523Y-137302380D01*
X99663333Y-137254761D01*
X99625238Y-137159523D01*
X99625238Y-137064285D01*
X99663333Y-136969047D01*
X99739523Y-136921428D01*
X99930000Y-136921428D01*
X100006190Y-136873809D01*
X100387142Y-137302380D02*
X100387142Y-136635714D01*
X100387142Y-136826190D02*
X100425238Y-136730952D01*
X100463333Y-136683333D01*
X100539523Y-136635714D01*
X100615714Y-136635714D01*
X101225238Y-137302380D02*
X101225238Y-136302380D01*
X101225238Y-137254761D02*
X101149047Y-137302380D01*
X100996666Y-137302380D01*
X100920476Y-137254761D01*
X100882380Y-137207142D01*
X100844285Y-137111904D01*
X100844285Y-136826190D01*
X100882380Y-136730952D01*
X100920476Y-136683333D01*
X100996666Y-136635714D01*
X101149047Y-136635714D01*
X101225238Y-136683333D01*
X102139523Y-136635714D02*
X102330000Y-137302380D01*
X102520476Y-136635714D01*
X102749047Y-136302380D02*
X103244285Y-136302380D01*
X102977619Y-136683333D01*
X103091904Y-136683333D01*
X103168095Y-136730952D01*
X103206190Y-136778571D01*
X103244285Y-136873809D01*
X103244285Y-137111904D01*
X103206190Y-137207142D01*
X103168095Y-137254761D01*
X103091904Y-137302380D01*
X102863333Y-137302380D01*
X102787142Y-137254761D01*
X102749047Y-137207142D01*
X103587142Y-137207142D02*
X103625238Y-137254761D01*
X103587142Y-137302380D01*
X103549047Y-137254761D01*
X103587142Y-137207142D01*
X103587142Y-137302380D01*
X104310952Y-136635714D02*
X104310952Y-137302380D01*
X104120476Y-136254761D02*
X103930000Y-136969047D01*
X104425238Y-136969047D01*
D12*
X63093180Y-78297620D02*
X64483180Y-78297620D01*
X63093180Y-79687620D02*
X63093180Y-78297620D01*
X65753180Y-80957620D02*
X63093180Y-80957620D01*
X65753180Y-78297620D02*
X65753180Y-80957620D01*
X68413180Y-78297620D02*
X65753180Y-78297620D01*
X68413180Y-121717620D02*
X68413180Y-78297620D01*
X63093180Y-121717620D02*
X68413180Y-121717620D01*
X63093180Y-80957620D02*
X63093180Y-121717620D01*
D13*
X76924100Y-144191200D02*
X76924100Y-142768800D01*
X76212900Y-143480000D02*
X77635300Y-143480000D01*
X77426994Y-143480000D02*
G75*
G03*
X77426994Y-143480000I-502894J0D01*
G01*
X76670100Y-146337500D02*
X49873100Y-146337500D01*
X76670100Y-144623000D02*
X76670100Y-146337500D01*
X78445560Y-144623000D02*
X76670100Y-144623000D01*
X78445560Y-142337000D02*
X78445560Y-144623000D01*
X76670100Y-142337000D02*
X78445560Y-142337000D01*
X76670100Y-140622500D02*
X76670100Y-142337000D01*
X50381100Y-140622500D02*
X76670100Y-140622500D01*
X48097640Y-142337000D02*
X49873100Y-142337000D01*
X49873100Y-142337000D02*
X49873100Y-141448000D01*
X49873100Y-141448000D02*
X50381100Y-141448000D01*
X50381100Y-141448000D02*
X50381100Y-140622500D01*
X49873100Y-146337500D02*
X49873100Y-144623000D01*
X49873100Y-144623000D02*
X48097640Y-144623000D01*
X48097640Y-144623000D02*
X48097640Y-142337000D01*
X50121994Y-143480000D02*
G75*
G03*
X50121994Y-143480000I-502894J0D01*
G01*
X48907900Y-143480000D02*
X50330300Y-143480000D01*
X49619100Y-144191200D02*
X49619100Y-142768800D01*
D12*
X140500000Y-81850000D02*
X141500000Y-81850000D01*
X141500000Y-80150000D02*
X140500000Y-80150000D01*
X59500000Y-80150000D02*
X58500000Y-80150000D01*
X58500000Y-81850000D02*
X59500000Y-81850000D01*
X140400000Y-78120000D02*
X141600000Y-78120000D01*
X141600000Y-79880000D02*
X140400000Y-79880000D01*
X59600000Y-79880000D02*
X58400000Y-79880000D01*
X58400000Y-78120000D02*
X59600000Y-78120000D01*
X117470000Y-137950000D02*
X117470000Y-136750000D01*
X119230000Y-136750000D02*
X119230000Y-137950000D01*
X120570000Y-138860000D02*
X123000000Y-138860000D01*
X122330000Y-135790000D02*
X120570000Y-135790000D01*
D14*
G36*
X99100851Y-131087560D02*
G01*
X99109200Y-131120400D01*
X99107328Y-131159448D01*
X99094521Y-131161771D01*
X99059989Y-131126970D01*
X99052050Y-131118283D01*
X99022697Y-131082680D01*
X99030261Y-131070763D01*
X99058400Y-131069600D01*
X99100851Y-131087560D01*
G37*
X99100851Y-131087560D02*
X99109200Y-131120400D01*
X99107328Y-131159448D01*
X99094521Y-131161771D01*
X99059989Y-131126970D01*
X99052050Y-131118283D01*
X99022697Y-131082680D01*
X99030261Y-131070763D01*
X99058400Y-131069600D01*
X99100851Y-131087560D01*
G36*
X79009491Y-131074816D02*
G01*
X78998569Y-131090562D01*
X78995751Y-131092390D01*
X78950072Y-131134171D01*
X78938990Y-131149151D01*
X78922233Y-131163709D01*
X78916647Y-131131454D01*
X78916588Y-131126750D01*
X78929804Y-131081430D01*
X78973350Y-131069988D01*
X79009491Y-131074816D01*
G37*
X79009491Y-131074816D02*
X78998569Y-131090562D01*
X78995751Y-131092390D01*
X78950072Y-131134171D01*
X78938990Y-131149151D01*
X78922233Y-131163709D01*
X78916647Y-131131454D01*
X78916588Y-131126750D01*
X78929804Y-131081430D01*
X78973350Y-131069988D01*
X79009491Y-131074816D01*
G36*
X88390400Y-131603000D02*
G01*
X88111000Y-131603000D01*
X88111000Y-131298200D01*
X88390400Y-131298200D01*
X88390400Y-131603000D01*
G37*
X88390400Y-131603000D02*
X88111000Y-131603000D01*
X88111000Y-131298200D01*
X88390400Y-131298200D01*
X88390400Y-131603000D01*
G36*
X90193800Y-133101600D02*
G01*
X89537633Y-133101600D01*
X89359945Y-133100969D01*
X89199214Y-133099195D01*
X89062364Y-133096450D01*
X88956317Y-133092909D01*
X88887995Y-133088746D01*
X88864533Y-133084666D01*
X88855020Y-133051597D01*
X88848877Y-132985018D01*
X88847600Y-132932266D01*
X88847600Y-132796800D01*
X90193800Y-132796800D01*
X90193800Y-133101600D01*
G37*
X90193800Y-133101600D02*
X89537633Y-133101600D01*
X89359945Y-133100969D01*
X89199214Y-133099195D01*
X89062364Y-133096450D01*
X88956317Y-133092909D01*
X88887995Y-133088746D01*
X88864533Y-133084666D01*
X88855020Y-133051597D01*
X88848877Y-132985018D01*
X88847600Y-132932266D01*
X88847600Y-132796800D01*
X90193800Y-132796800D01*
X90193800Y-133101600D01*
G36*
X97843079Y-131959671D02*
G01*
X98028369Y-131962772D01*
X98178281Y-131967734D01*
X98288195Y-131974387D01*
X98353493Y-131982562D01*
X98364596Y-131985615D01*
X98465739Y-132044597D01*
X98554549Y-132133524D01*
X98619962Y-132237822D01*
X98650913Y-132342916D01*
X98652000Y-132364184D01*
X98646650Y-132392985D01*
X98622830Y-132408547D01*
X98568881Y-132414818D01*
X98499600Y-132415800D01*
X98413755Y-132413637D01*
X98367374Y-132404901D01*
X98349222Y-132386223D01*
X98347200Y-132370080D01*
X98344873Y-132339029D01*
X98334248Y-132314658D01*
X98309854Y-132296162D01*
X98266224Y-132282734D01*
X98197888Y-132273568D01*
X98099377Y-132267859D01*
X97965223Y-132264800D01*
X97789956Y-132263585D01*
X97623300Y-132263399D01*
X97402124Y-132264150D01*
X97228035Y-132266511D01*
X97097341Y-132270644D01*
X97006349Y-132276711D01*
X96951366Y-132284875D01*
X96929880Y-132293879D01*
X96911425Y-132338814D01*
X96900790Y-132418275D01*
X96897673Y-132516642D01*
X96901771Y-132618297D01*
X96912782Y-132707619D01*
X96930406Y-132768989D01*
X96939314Y-132782285D01*
X96957483Y-132794491D01*
X96988526Y-132803984D01*
X97038256Y-132811089D01*
X97112485Y-132816129D01*
X97217028Y-132819430D01*
X97357695Y-132821315D01*
X97540302Y-132822110D01*
X97654632Y-132822199D01*
X97857243Y-132822295D01*
X98015653Y-132822935D01*
X98136461Y-132824652D01*
X98226267Y-132827978D01*
X98291670Y-132833446D01*
X98339270Y-132841586D01*
X98375665Y-132852932D01*
X98407454Y-132868015D01*
X98437778Y-132885340D01*
X98530729Y-132956032D01*
X98594800Y-133046390D01*
X98633453Y-133164671D01*
X98650144Y-133319132D01*
X98651442Y-133395369D01*
X98641728Y-133569577D01*
X98611616Y-133704073D01*
X98558202Y-133806837D01*
X98478579Y-133885850D01*
X98470809Y-133891512D01*
X98445066Y-133909107D01*
X98418772Y-133923007D01*
X98385849Y-133933717D01*
X98340215Y-133941743D01*
X98275790Y-133947591D01*
X98186495Y-133951764D01*
X98066249Y-133954769D01*
X97908972Y-133957111D01*
X97708584Y-133959295D01*
X97647678Y-133959909D01*
X97434935Y-133961965D01*
X97266899Y-133963116D01*
X97137481Y-133962983D01*
X97040590Y-133961185D01*
X96970136Y-133957344D01*
X96920031Y-133951080D01*
X96884183Y-133942013D01*
X96856503Y-133929764D01*
X96830901Y-133913954D01*
X96822783Y-133908505D01*
X96725281Y-133822950D01*
X96655170Y-133721538D01*
X96621608Y-133618514D01*
X96620000Y-133593143D01*
X96620000Y-133508000D01*
X96759700Y-133508000D01*
X96840604Y-133510291D01*
X96882746Y-133519980D01*
X96898066Y-133541282D01*
X96899400Y-133557359D01*
X96918858Y-133608196D01*
X96955851Y-133646259D01*
X97001022Y-133660210D01*
X97087195Y-133671529D01*
X97205758Y-133680216D01*
X97348100Y-133686275D01*
X97505610Y-133689709D01*
X97669674Y-133690519D01*
X97831683Y-133688707D01*
X97983023Y-133684277D01*
X98115084Y-133677231D01*
X98219253Y-133667570D01*
X98286919Y-133655298D01*
X98307285Y-133645885D01*
X98328865Y-133608970D01*
X98341523Y-133544818D01*
X98346805Y-133443645D01*
X98347200Y-133393325D01*
X98347427Y-133310758D01*
X98344572Y-133245420D01*
X98333322Y-133195298D01*
X98308371Y-133158383D01*
X98264407Y-133132663D01*
X98196122Y-133116127D01*
X98098205Y-133106764D01*
X97965349Y-133102562D01*
X97792243Y-133101511D01*
X97577037Y-133101600D01*
X97357211Y-133101065D01*
X97182014Y-133098710D01*
X97045281Y-133093412D01*
X96940844Y-133084045D01*
X96862537Y-133069485D01*
X96804195Y-133048607D01*
X96759650Y-133020288D01*
X96722738Y-132983402D01*
X96689349Y-132939718D01*
X96664603Y-132899402D01*
X96647634Y-132853153D01*
X96636590Y-132789996D01*
X96629616Y-132698952D01*
X96624861Y-132569044D01*
X96624490Y-132555500D01*
X96621665Y-132424502D01*
X96622480Y-132333051D01*
X96628388Y-132269938D01*
X96640840Y-132223958D01*
X96661289Y-132183903D01*
X96675495Y-132161800D01*
X96735842Y-132095097D01*
X96816984Y-132033297D01*
X96847837Y-132015749D01*
X96884122Y-131998447D01*
X96920620Y-131985039D01*
X96964085Y-131975030D01*
X97021272Y-131967925D01*
X97098935Y-131963227D01*
X97203831Y-131960443D01*
X97342713Y-131959076D01*
X97522337Y-131958631D01*
X97627028Y-131958599D01*
X97843079Y-131959671D01*
G37*
X97843079Y-131959671D02*
X98028369Y-131962772D01*
X98178281Y-131967734D01*
X98288195Y-131974387D01*
X98353493Y-131982562D01*
X98364596Y-131985615D01*
X98465739Y-132044597D01*
X98554549Y-132133524D01*
X98619962Y-132237822D01*
X98650913Y-132342916D01*
X98652000Y-132364184D01*
X98646650Y-132392985D01*
X98622830Y-132408547D01*
X98568881Y-132414818D01*
X98499600Y-132415800D01*
X98413755Y-132413637D01*
X98367374Y-132404901D01*
X98349222Y-132386223D01*
X98347200Y-132370080D01*
X98344873Y-132339029D01*
X98334248Y-132314658D01*
X98309854Y-132296162D01*
X98266224Y-132282734D01*
X98197888Y-132273568D01*
X98099377Y-132267859D01*
X97965223Y-132264800D01*
X97789956Y-132263585D01*
X97623300Y-132263399D01*
X97402124Y-132264150D01*
X97228035Y-132266511D01*
X97097341Y-132270644D01*
X97006349Y-132276711D01*
X96951366Y-132284875D01*
X96929880Y-132293879D01*
X96911425Y-132338814D01*
X96900790Y-132418275D01*
X96897673Y-132516642D01*
X96901771Y-132618297D01*
X96912782Y-132707619D01*
X96930406Y-132768989D01*
X96939314Y-132782285D01*
X96957483Y-132794491D01*
X96988526Y-132803984D01*
X97038256Y-132811089D01*
X97112485Y-132816129D01*
X97217028Y-132819430D01*
X97357695Y-132821315D01*
X97540302Y-132822110D01*
X97654632Y-132822199D01*
X97857243Y-132822295D01*
X98015653Y-132822935D01*
X98136461Y-132824652D01*
X98226267Y-132827978D01*
X98291670Y-132833446D01*
X98339270Y-132841586D01*
X98375665Y-132852932D01*
X98407454Y-132868015D01*
X98437778Y-132885340D01*
X98530729Y-132956032D01*
X98594800Y-133046390D01*
X98633453Y-133164671D01*
X98650144Y-133319132D01*
X98651442Y-133395369D01*
X98641728Y-133569577D01*
X98611616Y-133704073D01*
X98558202Y-133806837D01*
X98478579Y-133885850D01*
X98470809Y-133891512D01*
X98445066Y-133909107D01*
X98418772Y-133923007D01*
X98385849Y-133933717D01*
X98340215Y-133941743D01*
X98275790Y-133947591D01*
X98186495Y-133951764D01*
X98066249Y-133954769D01*
X97908972Y-133957111D01*
X97708584Y-133959295D01*
X97647678Y-133959909D01*
X97434935Y-133961965D01*
X97266899Y-133963116D01*
X97137481Y-133962983D01*
X97040590Y-133961185D01*
X96970136Y-133957344D01*
X96920031Y-133951080D01*
X96884183Y-133942013D01*
X96856503Y-133929764D01*
X96830901Y-133913954D01*
X96822783Y-133908505D01*
X96725281Y-133822950D01*
X96655170Y-133721538D01*
X96621608Y-133618514D01*
X96620000Y-133593143D01*
X96620000Y-133508000D01*
X96759700Y-133508000D01*
X96840604Y-133510291D01*
X96882746Y-133519980D01*
X96898066Y-133541282D01*
X96899400Y-133557359D01*
X96918858Y-133608196D01*
X96955851Y-133646259D01*
X97001022Y-133660210D01*
X97087195Y-133671529D01*
X97205758Y-133680216D01*
X97348100Y-133686275D01*
X97505610Y-133689709D01*
X97669674Y-133690519D01*
X97831683Y-133688707D01*
X97983023Y-133684277D01*
X98115084Y-133677231D01*
X98219253Y-133667570D01*
X98286919Y-133655298D01*
X98307285Y-133645885D01*
X98328865Y-133608970D01*
X98341523Y-133544818D01*
X98346805Y-133443645D01*
X98347200Y-133393325D01*
X98347427Y-133310758D01*
X98344572Y-133245420D01*
X98333322Y-133195298D01*
X98308371Y-133158383D01*
X98264407Y-133132663D01*
X98196122Y-133116127D01*
X98098205Y-133106764D01*
X97965349Y-133102562D01*
X97792243Y-133101511D01*
X97577037Y-133101600D01*
X97357211Y-133101065D01*
X97182014Y-133098710D01*
X97045281Y-133093412D01*
X96940844Y-133084045D01*
X96862537Y-133069485D01*
X96804195Y-133048607D01*
X96759650Y-133020288D01*
X96722738Y-132983402D01*
X96689349Y-132939718D01*
X96664603Y-132899402D01*
X96647634Y-132853153D01*
X96636590Y-132789996D01*
X96629616Y-132698952D01*
X96624861Y-132569044D01*
X96624490Y-132555500D01*
X96621665Y-132424502D01*
X96622480Y-132333051D01*
X96628388Y-132269938D01*
X96640840Y-132223958D01*
X96661289Y-132183903D01*
X96675495Y-132161800D01*
X96735842Y-132095097D01*
X96816984Y-132033297D01*
X96847837Y-132015749D01*
X96884122Y-131998447D01*
X96920620Y-131985039D01*
X96964085Y-131975030D01*
X97021272Y-131967925D01*
X97098935Y-131963227D01*
X97203831Y-131960443D01*
X97342713Y-131959076D01*
X97522337Y-131958631D01*
X97627028Y-131958599D01*
X97843079Y-131959671D01*
G36*
X95502400Y-131958600D02*
G01*
X95935467Y-131958599D01*
X96368535Y-131958599D01*
X96360917Y-132104649D01*
X96353300Y-132250700D01*
X95502400Y-132264628D01*
X95502400Y-132935673D01*
X95502500Y-133137484D01*
X95503123Y-133294541D01*
X95504748Y-133412892D01*
X95507856Y-133498583D01*
X95512927Y-133557661D01*
X95520441Y-133596173D01*
X95530880Y-133620165D01*
X95544722Y-133635684D01*
X95558851Y-133646259D01*
X95592453Y-133662489D01*
X95644604Y-133673818D01*
X95723385Y-133680986D01*
X95836877Y-133684733D01*
X95990651Y-133685800D01*
X96366000Y-133685800D01*
X96366000Y-133965200D01*
X95953250Y-133963589D01*
X95808806Y-133961519D01*
X95678215Y-133956848D01*
X95571729Y-133950156D01*
X95499602Y-133942023D01*
X95477013Y-133936664D01*
X95410979Y-133899994D01*
X95353949Y-133855724D01*
X95324250Y-133827602D01*
X95299419Y-133800459D01*
X95279021Y-133769722D01*
X95262618Y-133730815D01*
X95249777Y-133679164D01*
X95240060Y-133610194D01*
X95233034Y-133519330D01*
X95228261Y-133401999D01*
X95225307Y-133253625D01*
X95223736Y-133069634D01*
X95223111Y-132845451D01*
X95222999Y-132576502D01*
X95223000Y-132480561D01*
X95223000Y-131298200D01*
X95502400Y-131298200D01*
X95502400Y-131958600D01*
G37*
X95502400Y-131958600D02*
X95935467Y-131958599D01*
X96368535Y-131958599D01*
X96360917Y-132104649D01*
X96353300Y-132250700D01*
X95502400Y-132264628D01*
X95502400Y-132935673D01*
X95502500Y-133137484D01*
X95503123Y-133294541D01*
X95504748Y-133412892D01*
X95507856Y-133498583D01*
X95512927Y-133557661D01*
X95520441Y-133596173D01*
X95530880Y-133620165D01*
X95544722Y-133635684D01*
X95558851Y-133646259D01*
X95592453Y-133662489D01*
X95644604Y-133673818D01*
X95723385Y-133680986D01*
X95836877Y-133684733D01*
X95990651Y-133685800D01*
X96366000Y-133685800D01*
X96366000Y-133965200D01*
X95953250Y-133963589D01*
X95808806Y-133961519D01*
X95678215Y-133956848D01*
X95571729Y-133950156D01*
X95499602Y-133942023D01*
X95477013Y-133936664D01*
X95410979Y-133899994D01*
X95353949Y-133855724D01*
X95324250Y-133827602D01*
X95299419Y-133800459D01*
X95279021Y-133769722D01*
X95262618Y-133730815D01*
X95249777Y-133679164D01*
X95240060Y-133610194D01*
X95233034Y-133519330D01*
X95228261Y-133401999D01*
X95225307Y-133253625D01*
X95223736Y-133069634D01*
X95223111Y-132845451D01*
X95222999Y-132576502D01*
X95223000Y-132480561D01*
X95223000Y-131298200D01*
X95502400Y-131298200D01*
X95502400Y-131958600D01*
G36*
X94129680Y-131959209D02*
G01*
X94289333Y-131960045D01*
X94411592Y-131962113D01*
X94503160Y-131965865D01*
X94570737Y-131971749D01*
X94621028Y-131980217D01*
X94660735Y-131991717D01*
X94696559Y-132006700D01*
X94706803Y-132011580D01*
X94787610Y-132062248D01*
X94857326Y-132124887D01*
X94873572Y-132144930D01*
X94890077Y-132169421D01*
X94903065Y-132195317D01*
X94912958Y-132228652D01*
X94920177Y-132275459D01*
X94925143Y-132341770D01*
X94928277Y-132433619D01*
X94930000Y-132557039D01*
X94930733Y-132718062D01*
X94930898Y-132922723D01*
X94930900Y-132966387D01*
X94930750Y-133180400D01*
X94930043Y-133349577D01*
X94928394Y-133479884D01*
X94925419Y-133577284D01*
X94920732Y-133647742D01*
X94913949Y-133697221D01*
X94904683Y-133731688D01*
X94892550Y-133757105D01*
X94878530Y-133777617D01*
X94818051Y-133845431D01*
X94756070Y-133900130D01*
X94733301Y-133915388D01*
X94706510Y-133927438D01*
X94669670Y-133936719D01*
X94616756Y-133943671D01*
X94541745Y-133948734D01*
X94438610Y-133952348D01*
X94301328Y-133954953D01*
X94123872Y-133956989D01*
X93957539Y-133958434D01*
X93730971Y-133959735D01*
X93549969Y-133959428D01*
X93409321Y-133957327D01*
X93303814Y-133953249D01*
X93228235Y-133947010D01*
X93177371Y-133938428D01*
X93151640Y-133930050D01*
X93059995Y-133868723D01*
X92981337Y-133779639D01*
X92931088Y-133681539D01*
X92923887Y-133653302D01*
X92920099Y-133606316D01*
X92917250Y-133516255D01*
X92915415Y-133390837D01*
X92914670Y-133237779D01*
X92915090Y-133064798D01*
X92915882Y-132972930D01*
X93191000Y-132972930D01*
X93191215Y-133165365D01*
X93192192Y-133313491D01*
X93194430Y-133423797D01*
X93198426Y-133502771D01*
X93204678Y-133556905D01*
X93213685Y-133592686D01*
X93225943Y-133616605D01*
X93241800Y-133635000D01*
X93260007Y-133650704D01*
X93283527Y-133662795D01*
X93318706Y-133671743D01*
X93371892Y-133678019D01*
X93449434Y-133682091D01*
X93557679Y-133684432D01*
X93702975Y-133685510D01*
X93891670Y-133685796D01*
X93927600Y-133685800D01*
X94124105Y-133685599D01*
X94276159Y-133684685D01*
X94390109Y-133682586D01*
X94472303Y-133678834D01*
X94529090Y-133672956D01*
X94566816Y-133664484D01*
X94591830Y-133652946D01*
X94610479Y-133637874D01*
X94613400Y-133635000D01*
X94629343Y-133616477D01*
X94641556Y-133592540D01*
X94650533Y-133556716D01*
X94656770Y-133502533D01*
X94660760Y-133423516D01*
X94662999Y-133313193D01*
X94663980Y-133165092D01*
X94664199Y-132972738D01*
X94664200Y-132970250D01*
X94663831Y-132774535D01*
X94662460Y-132623335D01*
X94659685Y-132510365D01*
X94655107Y-132429342D01*
X94648326Y-132373985D01*
X94638942Y-132338009D01*
X94626555Y-132315132D01*
X94622163Y-132309850D01*
X94606056Y-132295769D01*
X94582279Y-132284844D01*
X94544777Y-132276680D01*
X94487497Y-132270880D01*
X94404382Y-132267048D01*
X94289380Y-132264788D01*
X94136434Y-132263705D01*
X93939491Y-132263402D01*
X93911856Y-132263400D01*
X93710044Y-132263574D01*
X93553095Y-132264377D01*
X93435074Y-132266229D01*
X93350046Y-132269550D01*
X93292076Y-132274759D01*
X93255226Y-132282276D01*
X93233563Y-132292522D01*
X93221149Y-132305916D01*
X93217293Y-132312530D01*
X93208694Y-132354446D01*
X93201577Y-132442306D01*
X93196133Y-132571270D01*
X93192557Y-132736498D01*
X93191039Y-132933152D01*
X93191000Y-132972930D01*
X92915882Y-132972930D01*
X92916526Y-132898400D01*
X92918979Y-132696036D01*
X92921493Y-132538033D01*
X92924650Y-132417956D01*
X92929034Y-132329368D01*
X92935227Y-132265833D01*
X92943815Y-132220916D01*
X92955379Y-132188181D01*
X92970503Y-132161191D01*
X92985287Y-132139790D01*
X93024108Y-132089640D01*
X93065224Y-132049728D01*
X93114699Y-132018888D01*
X93178598Y-131995956D01*
X93262985Y-131979767D01*
X93373924Y-131969158D01*
X93517481Y-131962963D01*
X93699719Y-131960017D01*
X93925930Y-131959157D01*
X94129680Y-131959209D01*
G37*
X94129680Y-131959209D02*
X94289333Y-131960045D01*
X94411592Y-131962113D01*
X94503160Y-131965865D01*
X94570737Y-131971749D01*
X94621028Y-131980217D01*
X94660735Y-131991717D01*
X94696559Y-132006700D01*
X94706803Y-132011580D01*
X94787610Y-132062248D01*
X94857326Y-132124887D01*
X94873572Y-132144930D01*
X94890077Y-132169421D01*
X94903065Y-132195317D01*
X94912958Y-132228652D01*
X94920177Y-132275459D01*
X94925143Y-132341770D01*
X94928277Y-132433619D01*
X94930000Y-132557039D01*
X94930733Y-132718062D01*
X94930898Y-132922723D01*
X94930900Y-132966387D01*
X94930750Y-133180400D01*
X94930043Y-133349577D01*
X94928394Y-133479884D01*
X94925419Y-133577284D01*
X94920732Y-133647742D01*
X94913949Y-133697221D01*
X94904683Y-133731688D01*
X94892550Y-133757105D01*
X94878530Y-133777617D01*
X94818051Y-133845431D01*
X94756070Y-133900130D01*
X94733301Y-133915388D01*
X94706510Y-133927438D01*
X94669670Y-133936719D01*
X94616756Y-133943671D01*
X94541745Y-133948734D01*
X94438610Y-133952348D01*
X94301328Y-133954953D01*
X94123872Y-133956989D01*
X93957539Y-133958434D01*
X93730971Y-133959735D01*
X93549969Y-133959428D01*
X93409321Y-133957327D01*
X93303814Y-133953249D01*
X93228235Y-133947010D01*
X93177371Y-133938428D01*
X93151640Y-133930050D01*
X93059995Y-133868723D01*
X92981337Y-133779639D01*
X92931088Y-133681539D01*
X92923887Y-133653302D01*
X92920099Y-133606316D01*
X92917250Y-133516255D01*
X92915415Y-133390837D01*
X92914670Y-133237779D01*
X92915090Y-133064798D01*
X92915882Y-132972930D01*
X93191000Y-132972930D01*
X93191215Y-133165365D01*
X93192192Y-133313491D01*
X93194430Y-133423797D01*
X93198426Y-133502771D01*
X93204678Y-133556905D01*
X93213685Y-133592686D01*
X93225943Y-133616605D01*
X93241800Y-133635000D01*
X93260007Y-133650704D01*
X93283527Y-133662795D01*
X93318706Y-133671743D01*
X93371892Y-133678019D01*
X93449434Y-133682091D01*
X93557679Y-133684432D01*
X93702975Y-133685510D01*
X93891670Y-133685796D01*
X93927600Y-133685800D01*
X94124105Y-133685599D01*
X94276159Y-133684685D01*
X94390109Y-133682586D01*
X94472303Y-133678834D01*
X94529090Y-133672956D01*
X94566816Y-133664484D01*
X94591830Y-133652946D01*
X94610479Y-133637874D01*
X94613400Y-133635000D01*
X94629343Y-133616477D01*
X94641556Y-133592540D01*
X94650533Y-133556716D01*
X94656770Y-133502533D01*
X94660760Y-133423516D01*
X94662999Y-133313193D01*
X94663980Y-133165092D01*
X94664199Y-132972738D01*
X94664200Y-132970250D01*
X94663831Y-132774535D01*
X94662460Y-132623335D01*
X94659685Y-132510365D01*
X94655107Y-132429342D01*
X94648326Y-132373985D01*
X94638942Y-132338009D01*
X94626555Y-132315132D01*
X94622163Y-132309850D01*
X94606056Y-132295769D01*
X94582279Y-132284844D01*
X94544777Y-132276680D01*
X94487497Y-132270880D01*
X94404382Y-132267048D01*
X94289380Y-132264788D01*
X94136434Y-132263705D01*
X93939491Y-132263402D01*
X93911856Y-132263400D01*
X93710044Y-132263574D01*
X93553095Y-132264377D01*
X93435074Y-132266229D01*
X93350046Y-132269550D01*
X93292076Y-132274759D01*
X93255226Y-132282276D01*
X93233563Y-132292522D01*
X93221149Y-132305916D01*
X93217293Y-132312530D01*
X93208694Y-132354446D01*
X93201577Y-132442306D01*
X93196133Y-132571270D01*
X93192557Y-132736498D01*
X93191039Y-132933152D01*
X93191000Y-132972930D01*
X92915882Y-132972930D01*
X92916526Y-132898400D01*
X92918979Y-132696036D01*
X92921493Y-132538033D01*
X92924650Y-132417956D01*
X92929034Y-132329368D01*
X92935227Y-132265833D01*
X92943815Y-132220916D01*
X92955379Y-132188181D01*
X92970503Y-132161191D01*
X92985287Y-132139790D01*
X93024108Y-132089640D01*
X93065224Y-132049728D01*
X93114699Y-132018888D01*
X93178598Y-131995956D01*
X93262985Y-131979767D01*
X93373924Y-131969158D01*
X93517481Y-131962963D01*
X93699719Y-131960017D01*
X93925930Y-131959157D01*
X94129680Y-131959209D01*
G36*
X90905000Y-131958600D02*
G01*
X91608180Y-131958600D01*
X91817003Y-131958799D01*
X91981533Y-131959683D01*
X92108276Y-131961676D01*
X92203737Y-131965205D01*
X92274424Y-131970696D01*
X92326843Y-131978574D01*
X92367499Y-131989266D01*
X92402898Y-132003197D01*
X92421339Y-132011839D01*
X92534558Y-132093421D01*
X92595601Y-132174770D01*
X92659884Y-132284462D01*
X92652392Y-132993511D01*
X92644900Y-133702561D01*
X92576483Y-133792206D01*
X92541558Y-133836442D01*
X92507434Y-133872412D01*
X92468687Y-133900971D01*
X92419896Y-133922973D01*
X92355639Y-133939274D01*
X92270493Y-133950727D01*
X92159037Y-133958188D01*
X92015847Y-133962511D01*
X91835501Y-133964551D01*
X91612579Y-133965162D01*
X91479011Y-133965200D01*
X90625600Y-133965200D01*
X90625600Y-132984189D01*
X90905000Y-132984189D01*
X90905120Y-133177750D01*
X90905838Y-133326818D01*
X90907694Y-133437700D01*
X90911223Y-133516703D01*
X90916965Y-133570133D01*
X90925456Y-133604298D01*
X90937235Y-133625505D01*
X90952839Y-133640060D01*
X90961451Y-133646259D01*
X90986491Y-133658854D01*
X91025259Y-133668543D01*
X91083899Y-133675680D01*
X91168557Y-133680620D01*
X91285378Y-133683717D01*
X91440506Y-133685325D01*
X91640088Y-133685799D01*
X91647251Y-133685800D01*
X91842794Y-133685596D01*
X91993918Y-133684667D01*
X92107004Y-133682537D01*
X92188433Y-133678728D01*
X92244585Y-133672765D01*
X92281843Y-133664170D01*
X92306585Y-133652468D01*
X92325193Y-133637180D01*
X92327400Y-133635000D01*
X92343343Y-133616477D01*
X92355556Y-133592540D01*
X92364533Y-133556716D01*
X92370770Y-133502533D01*
X92374760Y-133423516D01*
X92376999Y-133313193D01*
X92377980Y-133165092D01*
X92378199Y-132972738D01*
X92378200Y-132970250D01*
X92377831Y-132774535D01*
X92376460Y-132623335D01*
X92373685Y-132510365D01*
X92369107Y-132429342D01*
X92362326Y-132373985D01*
X92352942Y-132338009D01*
X92340555Y-132315132D01*
X92336163Y-132309850D01*
X92320056Y-132295769D01*
X92296279Y-132284844D01*
X92258777Y-132276680D01*
X92201497Y-132270880D01*
X92118382Y-132267048D01*
X92003380Y-132264788D01*
X91850434Y-132263705D01*
X91653491Y-132263402D01*
X91625856Y-132263400D01*
X91424044Y-132263574D01*
X91267095Y-132264377D01*
X91149074Y-132266229D01*
X91064046Y-132269550D01*
X91006076Y-132274759D01*
X90969226Y-132282276D01*
X90947563Y-132292522D01*
X90935149Y-132305916D01*
X90931293Y-132312530D01*
X90922738Y-132354384D01*
X90915653Y-132442329D01*
X90910221Y-132571671D01*
X90906628Y-132737715D01*
X90905056Y-132935769D01*
X90905000Y-132984189D01*
X90625600Y-132984189D01*
X90625600Y-131298200D01*
X90905000Y-131298200D01*
X90905000Y-131958600D01*
G37*
X90905000Y-131958600D02*
X91608180Y-131958600D01*
X91817003Y-131958799D01*
X91981533Y-131959683D01*
X92108276Y-131961676D01*
X92203737Y-131965205D01*
X92274424Y-131970696D01*
X92326843Y-131978574D01*
X92367499Y-131989266D01*
X92402898Y-132003197D01*
X92421339Y-132011839D01*
X92534558Y-132093421D01*
X92595601Y-132174770D01*
X92659884Y-132284462D01*
X92652392Y-132993511D01*
X92644900Y-133702561D01*
X92576483Y-133792206D01*
X92541558Y-133836442D01*
X92507434Y-133872412D01*
X92468687Y-133900971D01*
X92419896Y-133922973D01*
X92355639Y-133939274D01*
X92270493Y-133950727D01*
X92159037Y-133958188D01*
X92015847Y-133962511D01*
X91835501Y-133964551D01*
X91612579Y-133965162D01*
X91479011Y-133965200D01*
X90625600Y-133965200D01*
X90625600Y-132984189D01*
X90905000Y-132984189D01*
X90905120Y-133177750D01*
X90905838Y-133326818D01*
X90907694Y-133437700D01*
X90911223Y-133516703D01*
X90916965Y-133570133D01*
X90925456Y-133604298D01*
X90937235Y-133625505D01*
X90952839Y-133640060D01*
X90961451Y-133646259D01*
X90986491Y-133658854D01*
X91025259Y-133668543D01*
X91083899Y-133675680D01*
X91168557Y-133680620D01*
X91285378Y-133683717D01*
X91440506Y-133685325D01*
X91640088Y-133685799D01*
X91647251Y-133685800D01*
X91842794Y-133685596D01*
X91993918Y-133684667D01*
X92107004Y-133682537D01*
X92188433Y-133678728D01*
X92244585Y-133672765D01*
X92281843Y-133664170D01*
X92306585Y-133652468D01*
X92325193Y-133637180D01*
X92327400Y-133635000D01*
X92343343Y-133616477D01*
X92355556Y-133592540D01*
X92364533Y-133556716D01*
X92370770Y-133502533D01*
X92374760Y-133423516D01*
X92376999Y-133313193D01*
X92377980Y-133165092D01*
X92378199Y-132972738D01*
X92378200Y-132970250D01*
X92377831Y-132774535D01*
X92376460Y-132623335D01*
X92373685Y-132510365D01*
X92369107Y-132429342D01*
X92362326Y-132373985D01*
X92352942Y-132338009D01*
X92340555Y-132315132D01*
X92336163Y-132309850D01*
X92320056Y-132295769D01*
X92296279Y-132284844D01*
X92258777Y-132276680D01*
X92201497Y-132270880D01*
X92118382Y-132267048D01*
X92003380Y-132264788D01*
X91850434Y-132263705D01*
X91653491Y-132263402D01*
X91625856Y-132263400D01*
X91424044Y-132263574D01*
X91267095Y-132264377D01*
X91149074Y-132266229D01*
X91064046Y-132269550D01*
X91006076Y-132274759D01*
X90969226Y-132282276D01*
X90947563Y-132292522D01*
X90935149Y-132305916D01*
X90931293Y-132312530D01*
X90922738Y-132354384D01*
X90915653Y-132442329D01*
X90910221Y-132571671D01*
X90906628Y-132737715D01*
X90905056Y-132935769D01*
X90905000Y-132984189D01*
X90625600Y-132984189D01*
X90625600Y-131298200D01*
X90905000Y-131298200D01*
X90905000Y-131958600D01*
G36*
X88390400Y-133965200D02*
G01*
X88111000Y-133965200D01*
X88111000Y-131958600D01*
X88390400Y-131958600D01*
X88390400Y-133965200D01*
G37*
X88390400Y-133965200D02*
X88111000Y-133965200D01*
X88111000Y-131958600D01*
X88390400Y-131958600D01*
X88390400Y-133965200D01*
G36*
X87750317Y-132104649D02*
G01*
X87742700Y-132250700D01*
X86906677Y-132257402D01*
X86638933Y-132260361D01*
X86421211Y-132264562D01*
X86252745Y-132270035D01*
X86132772Y-132276810D01*
X86060527Y-132284919D01*
X86036727Y-132292262D01*
X86025810Y-132311801D01*
X86017356Y-132353549D01*
X86011104Y-132422665D01*
X86006794Y-132524311D01*
X86004164Y-132663645D01*
X86002954Y-132845829D01*
X86002800Y-132963569D01*
X86002911Y-133160673D01*
X86003586Y-133313169D01*
X86005338Y-133427250D01*
X86008678Y-133509107D01*
X86014118Y-133564935D01*
X86022170Y-133600923D01*
X86033347Y-133623266D01*
X86048159Y-133638155D01*
X86059251Y-133646259D01*
X86081216Y-133657375D01*
X86115484Y-133666247D01*
X86167378Y-133673114D01*
X86242220Y-133678216D01*
X86345333Y-133681794D01*
X86482038Y-133684089D01*
X86657659Y-133685339D01*
X86877517Y-133685785D01*
X86935551Y-133685800D01*
X87755400Y-133685800D01*
X87755400Y-133965200D01*
X86898150Y-133963589D01*
X86668905Y-133962410D01*
X86463926Y-133959868D01*
X86288186Y-133956111D01*
X86146660Y-133951282D01*
X86044320Y-133945528D01*
X85986143Y-133938994D01*
X85977413Y-133936664D01*
X85911379Y-133899994D01*
X85854349Y-133855724D01*
X85817422Y-133819572D01*
X85788179Y-133783693D01*
X85765723Y-133741926D01*
X85749160Y-133688107D01*
X85737596Y-133616076D01*
X85730134Y-133519670D01*
X85725879Y-133392727D01*
X85723938Y-133229085D01*
X85723414Y-133022582D01*
X85723400Y-132954217D01*
X85723522Y-132745809D01*
X85724188Y-132581952D01*
X85725850Y-132456395D01*
X85728959Y-132362888D01*
X85733965Y-132295181D01*
X85741319Y-132247026D01*
X85751472Y-132212171D01*
X85764875Y-132184368D01*
X85780755Y-132159206D01*
X85839756Y-132094280D01*
X85919993Y-132033493D01*
X85951237Y-132015750D01*
X85983396Y-132000236D01*
X86015731Y-131987818D01*
X86054023Y-131978151D01*
X86104052Y-131970891D01*
X86171600Y-131965694D01*
X86262447Y-131962215D01*
X86382373Y-131960111D01*
X86537161Y-131959036D01*
X86732590Y-131958648D01*
X86911149Y-131958599D01*
X87757935Y-131958599D01*
X87750317Y-132104649D01*
G37*
X87750317Y-132104649D02*
X87742700Y-132250700D01*
X86906677Y-132257402D01*
X86638933Y-132260361D01*
X86421211Y-132264562D01*
X86252745Y-132270035D01*
X86132772Y-132276810D01*
X86060527Y-132284919D01*
X86036727Y-132292262D01*
X86025810Y-132311801D01*
X86017356Y-132353549D01*
X86011104Y-132422665D01*
X86006794Y-132524311D01*
X86004164Y-132663645D01*
X86002954Y-132845829D01*
X86002800Y-132963569D01*
X86002911Y-133160673D01*
X86003586Y-133313169D01*
X86005338Y-133427250D01*
X86008678Y-133509107D01*
X86014118Y-133564935D01*
X86022170Y-133600923D01*
X86033347Y-133623266D01*
X86048159Y-133638155D01*
X86059251Y-133646259D01*
X86081216Y-133657375D01*
X86115484Y-133666247D01*
X86167378Y-133673114D01*
X86242220Y-133678216D01*
X86345333Y-133681794D01*
X86482038Y-133684089D01*
X86657659Y-133685339D01*
X86877517Y-133685785D01*
X86935551Y-133685800D01*
X87755400Y-133685800D01*
X87755400Y-133965200D01*
X86898150Y-133963589D01*
X86668905Y-133962410D01*
X86463926Y-133959868D01*
X86288186Y-133956111D01*
X86146660Y-133951282D01*
X86044320Y-133945528D01*
X85986143Y-133938994D01*
X85977413Y-133936664D01*
X85911379Y-133899994D01*
X85854349Y-133855724D01*
X85817422Y-133819572D01*
X85788179Y-133783693D01*
X85765723Y-133741926D01*
X85749160Y-133688107D01*
X85737596Y-133616076D01*
X85730134Y-133519670D01*
X85725879Y-133392727D01*
X85723938Y-133229085D01*
X85723414Y-133022582D01*
X85723400Y-132954217D01*
X85723522Y-132745809D01*
X85724188Y-132581952D01*
X85725850Y-132456395D01*
X85728959Y-132362888D01*
X85733965Y-132295181D01*
X85741319Y-132247026D01*
X85751472Y-132212171D01*
X85764875Y-132184368D01*
X85780755Y-132159206D01*
X85839756Y-132094280D01*
X85919993Y-132033493D01*
X85951237Y-132015750D01*
X85983396Y-132000236D01*
X86015731Y-131987818D01*
X86054023Y-131978151D01*
X86104052Y-131970891D01*
X86171600Y-131965694D01*
X86262447Y-131962215D01*
X86382373Y-131960111D01*
X86537161Y-131959036D01*
X86732590Y-131958648D01*
X86911149Y-131958599D01*
X87757935Y-131958599D01*
X87750317Y-132104649D01*
G36*
X84425645Y-131959157D02*
G01*
X84632239Y-131959639D01*
X84794640Y-131960972D01*
X84919450Y-131963563D01*
X85013272Y-131967816D01*
X85082711Y-131974136D01*
X85134370Y-131982929D01*
X85174853Y-131994601D01*
X85205212Y-132006998D01*
X85320482Y-132085345D01*
X85400758Y-132195493D01*
X85437220Y-132315389D01*
X85450688Y-132415800D01*
X85313213Y-132415800D01*
X85232787Y-132413673D01*
X85187674Y-132402570D01*
X85162420Y-132375409D01*
X85146974Y-132339599D01*
X85118212Y-132263399D01*
X84444720Y-132263399D01*
X84238141Y-132263753D01*
X84076536Y-132265032D01*
X83954084Y-132267562D01*
X83864963Y-132271668D01*
X83803352Y-132277677D01*
X83763428Y-132285913D01*
X83739370Y-132296703D01*
X83731314Y-132303314D01*
X83706169Y-132356031D01*
X83692112Y-132441511D01*
X83688980Y-132542981D01*
X83696609Y-132643663D01*
X83714835Y-132726785D01*
X83735850Y-132768102D01*
X83750898Y-132783817D01*
X83770632Y-132796168D01*
X83801000Y-132805633D01*
X83847949Y-132812691D01*
X83917428Y-132817821D01*
X84015384Y-132821502D01*
X84147764Y-132824212D01*
X84320518Y-132826431D01*
X84480832Y-132828066D01*
X85181364Y-132834900D01*
X85274608Y-132906063D01*
X85343621Y-132965317D01*
X85391273Y-133026839D01*
X85421313Y-133101597D01*
X85437493Y-133200557D01*
X85443562Y-133334686D01*
X85444000Y-133401382D01*
X85440015Y-133553911D01*
X85425234Y-133667429D01*
X85395411Y-133753302D01*
X85346303Y-133822894D01*
X85273666Y-133887571D01*
X85258039Y-133899364D01*
X85234965Y-133914837D01*
X85208244Y-133927052D01*
X85171839Y-133936457D01*
X85119711Y-133943495D01*
X85045823Y-133948614D01*
X84944135Y-133952258D01*
X84808611Y-133954875D01*
X84633211Y-133956909D01*
X84457939Y-133958434D01*
X84232934Y-133959753D01*
X84053326Y-133959515D01*
X83913732Y-133957527D01*
X83808768Y-133953594D01*
X83733049Y-133947522D01*
X83681192Y-133939117D01*
X83650229Y-133929289D01*
X83558112Y-133865027D01*
X83479998Y-133768237D01*
X83429134Y-133657182D01*
X83419066Y-133610550D01*
X83405311Y-133508000D01*
X83548355Y-133508000D01*
X83633733Y-133511276D01*
X83678216Y-133522809D01*
X83691388Y-133545150D01*
X83691400Y-133546100D01*
X83708214Y-133591171D01*
X83742200Y-133635000D01*
X83760407Y-133650704D01*
X83783927Y-133662795D01*
X83819106Y-133671743D01*
X83872292Y-133678019D01*
X83949834Y-133682091D01*
X84058079Y-133684432D01*
X84203375Y-133685510D01*
X84392070Y-133685796D01*
X84428000Y-133685800D01*
X84640571Y-133685796D01*
X84807782Y-133684350D01*
X84935069Y-133679304D01*
X85027865Y-133668505D01*
X85091607Y-133649796D01*
X85131730Y-133621023D01*
X85153668Y-133580030D01*
X85162856Y-133524662D01*
X85164730Y-133452763D01*
X85164600Y-133393700D01*
X85164756Y-133311677D01*
X85161715Y-133246624D01*
X85150210Y-133196579D01*
X85124976Y-133159579D01*
X85080747Y-133133661D01*
X85012256Y-133116862D01*
X84914238Y-133107219D01*
X84781427Y-133102769D01*
X84608557Y-133101550D01*
X84390362Y-133101599D01*
X84380956Y-133101600D01*
X84176890Y-133101466D01*
X84017243Y-133100747D01*
X83895635Y-133098967D01*
X83805685Y-133095650D01*
X83741011Y-133090320D01*
X83695234Y-133082501D01*
X83661973Y-133071717D01*
X83634846Y-133057492D01*
X83614941Y-133044450D01*
X83537843Y-132986539D01*
X83484393Y-132928452D01*
X83450027Y-132858986D01*
X83430183Y-132766942D01*
X83420298Y-132641119D01*
X83417615Y-132560083D01*
X83415420Y-132432376D01*
X83417460Y-132343044D01*
X83425373Y-132279727D01*
X83440793Y-132230067D01*
X83465358Y-132181705D01*
X83468415Y-132176405D01*
X83546647Y-132082351D01*
X83638245Y-132017655D01*
X83673500Y-131999918D01*
X83708319Y-131986148D01*
X83749370Y-131975849D01*
X83803320Y-131968526D01*
X83876836Y-131963685D01*
X83976584Y-131960829D01*
X84109233Y-131959463D01*
X84281449Y-131959093D01*
X84425645Y-131959157D01*
G37*
X84425645Y-131959157D02*
X84632239Y-131959639D01*
X84794640Y-131960972D01*
X84919450Y-131963563D01*
X85013272Y-131967816D01*
X85082711Y-131974136D01*
X85134370Y-131982929D01*
X85174853Y-131994601D01*
X85205212Y-132006998D01*
X85320482Y-132085345D01*
X85400758Y-132195493D01*
X85437220Y-132315389D01*
X85450688Y-132415800D01*
X85313213Y-132415800D01*
X85232787Y-132413673D01*
X85187674Y-132402570D01*
X85162420Y-132375409D01*
X85146974Y-132339599D01*
X85118212Y-132263399D01*
X84444720Y-132263399D01*
X84238141Y-132263753D01*
X84076536Y-132265032D01*
X83954084Y-132267562D01*
X83864963Y-132271668D01*
X83803352Y-132277677D01*
X83763428Y-132285913D01*
X83739370Y-132296703D01*
X83731314Y-132303314D01*
X83706169Y-132356031D01*
X83692112Y-132441511D01*
X83688980Y-132542981D01*
X83696609Y-132643663D01*
X83714835Y-132726785D01*
X83735850Y-132768102D01*
X83750898Y-132783817D01*
X83770632Y-132796168D01*
X83801000Y-132805633D01*
X83847949Y-132812691D01*
X83917428Y-132817821D01*
X84015384Y-132821502D01*
X84147764Y-132824212D01*
X84320518Y-132826431D01*
X84480832Y-132828066D01*
X85181364Y-132834900D01*
X85274608Y-132906063D01*
X85343621Y-132965317D01*
X85391273Y-133026839D01*
X85421313Y-133101597D01*
X85437493Y-133200557D01*
X85443562Y-133334686D01*
X85444000Y-133401382D01*
X85440015Y-133553911D01*
X85425234Y-133667429D01*
X85395411Y-133753302D01*
X85346303Y-133822894D01*
X85273666Y-133887571D01*
X85258039Y-133899364D01*
X85234965Y-133914837D01*
X85208244Y-133927052D01*
X85171839Y-133936457D01*
X85119711Y-133943495D01*
X85045823Y-133948614D01*
X84944135Y-133952258D01*
X84808611Y-133954875D01*
X84633211Y-133956909D01*
X84457939Y-133958434D01*
X84232934Y-133959753D01*
X84053326Y-133959515D01*
X83913732Y-133957527D01*
X83808768Y-133953594D01*
X83733049Y-133947522D01*
X83681192Y-133939117D01*
X83650229Y-133929289D01*
X83558112Y-133865027D01*
X83479998Y-133768237D01*
X83429134Y-133657182D01*
X83419066Y-133610550D01*
X83405311Y-133508000D01*
X83548355Y-133508000D01*
X83633733Y-133511276D01*
X83678216Y-133522809D01*
X83691388Y-133545150D01*
X83691400Y-133546100D01*
X83708214Y-133591171D01*
X83742200Y-133635000D01*
X83760407Y-133650704D01*
X83783927Y-133662795D01*
X83819106Y-133671743D01*
X83872292Y-133678019D01*
X83949834Y-133682091D01*
X84058079Y-133684432D01*
X84203375Y-133685510D01*
X84392070Y-133685796D01*
X84428000Y-133685800D01*
X84640571Y-133685796D01*
X84807782Y-133684350D01*
X84935069Y-133679304D01*
X85027865Y-133668505D01*
X85091607Y-133649796D01*
X85131730Y-133621023D01*
X85153668Y-133580030D01*
X85162856Y-133524662D01*
X85164730Y-133452763D01*
X85164600Y-133393700D01*
X85164756Y-133311677D01*
X85161715Y-133246624D01*
X85150210Y-133196579D01*
X85124976Y-133159579D01*
X85080747Y-133133661D01*
X85012256Y-133116862D01*
X84914238Y-133107219D01*
X84781427Y-133102769D01*
X84608557Y-133101550D01*
X84390362Y-133101599D01*
X84380956Y-133101600D01*
X84176890Y-133101466D01*
X84017243Y-133100747D01*
X83895635Y-133098967D01*
X83805685Y-133095650D01*
X83741011Y-133090320D01*
X83695234Y-133082501D01*
X83661973Y-133071717D01*
X83634846Y-133057492D01*
X83614941Y-133044450D01*
X83537843Y-132986539D01*
X83484393Y-132928452D01*
X83450027Y-132858986D01*
X83430183Y-132766942D01*
X83420298Y-132641119D01*
X83417615Y-132560083D01*
X83415420Y-132432376D01*
X83417460Y-132343044D01*
X83425373Y-132279727D01*
X83440793Y-132230067D01*
X83465358Y-132181705D01*
X83468415Y-132176405D01*
X83546647Y-132082351D01*
X83638245Y-132017655D01*
X83673500Y-131999918D01*
X83708319Y-131986148D01*
X83749370Y-131975849D01*
X83803320Y-131968526D01*
X83876836Y-131963685D01*
X83976584Y-131960829D01*
X84109233Y-131959463D01*
X84281449Y-131959093D01*
X84425645Y-131959157D01*
G36*
X80357960Y-131330288D02*
G01*
X80580775Y-131552071D01*
X80681937Y-131451081D01*
X80755379Y-131389534D01*
X80829580Y-131345754D01*
X80863750Y-131334050D01*
X80911260Y-131329512D01*
X80954190Y-131341995D01*
X81006012Y-131378253D01*
X81074514Y-131439716D01*
X81204628Y-131561423D01*
X81426351Y-131340728D01*
X81648073Y-131120033D01*
X81924701Y-131400141D01*
X81481525Y-131845379D01*
X81550872Y-131914727D01*
X81620220Y-131984074D01*
X82065458Y-131540898D01*
X82345566Y-131817526D01*
X81901806Y-132263352D01*
X81971127Y-132332672D01*
X82040447Y-132401993D01*
X82486273Y-131958233D01*
X82618936Y-132092565D01*
X82683185Y-132160653D01*
X82730306Y-132216368D01*
X82751267Y-132248923D01*
X82751600Y-132250968D01*
X82734649Y-132277483D01*
X82688570Y-132331521D01*
X82620527Y-132405058D01*
X82542862Y-132484866D01*
X82334125Y-132694693D01*
X82441262Y-132803858D01*
X82506980Y-132878486D01*
X82539813Y-132939607D01*
X82548400Y-133000000D01*
X82538956Y-133062974D01*
X82504876Y-133124353D01*
X82441262Y-133196141D01*
X82334125Y-133305306D01*
X82542862Y-133515133D01*
X82625032Y-133599687D01*
X82691976Y-133672294D01*
X82736531Y-133724929D01*
X82751600Y-133749031D01*
X82734894Y-133777605D01*
X82690799Y-133830804D01*
X82628348Y-133897843D01*
X82618936Y-133907434D01*
X82486273Y-134041766D01*
X82040447Y-133598006D01*
X81971127Y-133667327D01*
X81901806Y-133736647D01*
X82345566Y-134182473D01*
X82065458Y-134459101D01*
X81620220Y-134015925D01*
X81550872Y-134085272D01*
X81481525Y-134154620D01*
X81924701Y-134599858D01*
X81648073Y-134879966D01*
X81426351Y-134659271D01*
X81204628Y-134438576D01*
X81074514Y-134560283D01*
X81002131Y-134624929D01*
X80951257Y-134659455D01*
X80908452Y-134670612D01*
X80864144Y-134665938D01*
X80800456Y-134638970D01*
X80724735Y-134587384D01*
X80681136Y-134549042D01*
X80578382Y-134448197D01*
X80363802Y-134663898D01*
X80279502Y-134747521D01*
X80208313Y-134816040D01*
X80157701Y-134862414D01*
X80135133Y-134879599D01*
X80135093Y-134879600D01*
X80111806Y-134862797D01*
X80062869Y-134818287D01*
X79997911Y-134754914D01*
X79982831Y-134739729D01*
X79844698Y-134599858D01*
X80287874Y-134154620D01*
X80218527Y-134085272D01*
X80149179Y-134015925D01*
X79703941Y-134459101D01*
X79423833Y-134182473D01*
X79867593Y-133736647D01*
X79798272Y-133667327D01*
X79728952Y-133598006D01*
X79283126Y-134041766D01*
X79006498Y-133761658D01*
X79447366Y-133317500D01*
X79334183Y-133198328D01*
X79255612Y-133102841D01*
X79221375Y-133021240D01*
X79224103Y-133000000D01*
X79881400Y-133000000D01*
X79889221Y-133028510D01*
X79914959Y-133070261D01*
X79962026Y-133129113D01*
X80033833Y-133208927D01*
X80133791Y-133313562D01*
X80265312Y-133446879D01*
X80359170Y-133540628D01*
X80507545Y-133686421D01*
X80636524Y-133809455D01*
X80742665Y-133906622D01*
X80822523Y-133974815D01*
X80872656Y-134010929D01*
X80885976Y-134016000D01*
X80919042Y-133998050D01*
X80983623Y-133946240D01*
X81076340Y-133863631D01*
X81193815Y-133753284D01*
X81332669Y-133618257D01*
X81411505Y-133540000D01*
X81564479Y-133386019D01*
X81683651Y-133263183D01*
X81772240Y-133167850D01*
X81833463Y-133096377D01*
X81870538Y-133045120D01*
X81886682Y-133010437D01*
X81888000Y-133000495D01*
X81879213Y-132971301D01*
X81850714Y-132926883D01*
X81799298Y-132863601D01*
X81721757Y-132777820D01*
X81614885Y-132665900D01*
X81475476Y-132524206D01*
X81412000Y-132460494D01*
X81260697Y-132310913D01*
X81130556Y-132186087D01*
X81024627Y-132088779D01*
X80945958Y-132021753D01*
X80897597Y-131987773D01*
X80886471Y-131984000D01*
X80852931Y-132001989D01*
X80787657Y-132054064D01*
X80693801Y-132137382D01*
X80574516Y-132249102D01*
X80432954Y-132386381D01*
X80359170Y-132459371D01*
X80207412Y-132611436D01*
X80089230Y-132732539D01*
X80001214Y-132826542D01*
X79939952Y-132897304D01*
X79902033Y-132948686D01*
X79884045Y-132984548D01*
X79881400Y-133000000D01*
X79224103Y-133000000D01*
X79231474Y-132942611D01*
X79285906Y-132856038D01*
X79334183Y-132801671D01*
X79447366Y-132682500D01*
X79226932Y-132460420D01*
X79006498Y-132238341D01*
X79283126Y-131958233D01*
X79728952Y-132401993D01*
X79798272Y-132332672D01*
X79867593Y-132263352D01*
X79423833Y-131817526D01*
X79703941Y-131540898D01*
X80149179Y-131984074D01*
X80218527Y-131914727D01*
X80287874Y-131845379D01*
X79844106Y-131399545D01*
X79989626Y-131254026D01*
X80135145Y-131108506D01*
X80357960Y-131330288D01*
G37*
X80357960Y-131330288D02*
X80580775Y-131552071D01*
X80681937Y-131451081D01*
X80755379Y-131389534D01*
X80829580Y-131345754D01*
X80863750Y-131334050D01*
X80911260Y-131329512D01*
X80954190Y-131341995D01*
X81006012Y-131378253D01*
X81074514Y-131439716D01*
X81204628Y-131561423D01*
X81426351Y-131340728D01*
X81648073Y-131120033D01*
X81924701Y-131400141D01*
X81481525Y-131845379D01*
X81550872Y-131914727D01*
X81620220Y-131984074D01*
X82065458Y-131540898D01*
X82345566Y-131817526D01*
X81901806Y-132263352D01*
X81971127Y-132332672D01*
X82040447Y-132401993D01*
X82486273Y-131958233D01*
X82618936Y-132092565D01*
X82683185Y-132160653D01*
X82730306Y-132216368D01*
X82751267Y-132248923D01*
X82751600Y-132250968D01*
X82734649Y-132277483D01*
X82688570Y-132331521D01*
X82620527Y-132405058D01*
X82542862Y-132484866D01*
X82334125Y-132694693D01*
X82441262Y-132803858D01*
X82506980Y-132878486D01*
X82539813Y-132939607D01*
X82548400Y-133000000D01*
X82538956Y-133062974D01*
X82504876Y-133124353D01*
X82441262Y-133196141D01*
X82334125Y-133305306D01*
X82542862Y-133515133D01*
X82625032Y-133599687D01*
X82691976Y-133672294D01*
X82736531Y-133724929D01*
X82751600Y-133749031D01*
X82734894Y-133777605D01*
X82690799Y-133830804D01*
X82628348Y-133897843D01*
X82618936Y-133907434D01*
X82486273Y-134041766D01*
X82040447Y-133598006D01*
X81971127Y-133667327D01*
X81901806Y-133736647D01*
X82345566Y-134182473D01*
X82065458Y-134459101D01*
X81620220Y-134015925D01*
X81550872Y-134085272D01*
X81481525Y-134154620D01*
X81924701Y-134599858D01*
X81648073Y-134879966D01*
X81426351Y-134659271D01*
X81204628Y-134438576D01*
X81074514Y-134560283D01*
X81002131Y-134624929D01*
X80951257Y-134659455D01*
X80908452Y-134670612D01*
X80864144Y-134665938D01*
X80800456Y-134638970D01*
X80724735Y-134587384D01*
X80681136Y-134549042D01*
X80578382Y-134448197D01*
X80363802Y-134663898D01*
X80279502Y-134747521D01*
X80208313Y-134816040D01*
X80157701Y-134862414D01*
X80135133Y-134879599D01*
X80135093Y-134879600D01*
X80111806Y-134862797D01*
X80062869Y-134818287D01*
X79997911Y-134754914D01*
X79982831Y-134739729D01*
X79844698Y-134599858D01*
X80287874Y-134154620D01*
X80218527Y-134085272D01*
X80149179Y-134015925D01*
X79703941Y-134459101D01*
X79423833Y-134182473D01*
X79867593Y-133736647D01*
X79798272Y-133667327D01*
X79728952Y-133598006D01*
X79283126Y-134041766D01*
X79006498Y-133761658D01*
X79447366Y-133317500D01*
X79334183Y-133198328D01*
X79255612Y-133102841D01*
X79221375Y-133021240D01*
X79224103Y-133000000D01*
X79881400Y-133000000D01*
X79889221Y-133028510D01*
X79914959Y-133070261D01*
X79962026Y-133129113D01*
X80033833Y-133208927D01*
X80133791Y-133313562D01*
X80265312Y-133446879D01*
X80359170Y-133540628D01*
X80507545Y-133686421D01*
X80636524Y-133809455D01*
X80742665Y-133906622D01*
X80822523Y-133974815D01*
X80872656Y-134010929D01*
X80885976Y-134016000D01*
X80919042Y-133998050D01*
X80983623Y-133946240D01*
X81076340Y-133863631D01*
X81193815Y-133753284D01*
X81332669Y-133618257D01*
X81411505Y-133540000D01*
X81564479Y-133386019D01*
X81683651Y-133263183D01*
X81772240Y-133167850D01*
X81833463Y-133096377D01*
X81870538Y-133045120D01*
X81886682Y-133010437D01*
X81888000Y-133000495D01*
X81879213Y-132971301D01*
X81850714Y-132926883D01*
X81799298Y-132863601D01*
X81721757Y-132777820D01*
X81614885Y-132665900D01*
X81475476Y-132524206D01*
X81412000Y-132460494D01*
X81260697Y-132310913D01*
X81130556Y-132186087D01*
X81024627Y-132088779D01*
X80945958Y-132021753D01*
X80897597Y-131987773D01*
X80886471Y-131984000D01*
X80852931Y-132001989D01*
X80787657Y-132054064D01*
X80693801Y-132137382D01*
X80574516Y-132249102D01*
X80432954Y-132386381D01*
X80359170Y-132459371D01*
X80207412Y-132611436D01*
X80089230Y-132732539D01*
X80001214Y-132826542D01*
X79939952Y-132897304D01*
X79902033Y-132948686D01*
X79884045Y-132984548D01*
X79881400Y-133000000D01*
X79224103Y-133000000D01*
X79231474Y-132942611D01*
X79285906Y-132856038D01*
X79334183Y-132801671D01*
X79447366Y-132682500D01*
X79226932Y-132460420D01*
X79006498Y-132238341D01*
X79283126Y-131958233D01*
X79728952Y-132401993D01*
X79798272Y-132332672D01*
X79867593Y-132263352D01*
X79423833Y-131817526D01*
X79703941Y-131540898D01*
X80149179Y-131984074D01*
X80218527Y-131914727D01*
X80287874Y-131845379D01*
X79844106Y-131399545D01*
X79989626Y-131254026D01*
X80135145Y-131108506D01*
X80357960Y-131330288D01*
G36*
X99108752Y-134893945D02*
G01*
X99108811Y-134898650D01*
X99095595Y-134943969D01*
X99052050Y-134955411D01*
X99015908Y-134950583D01*
X99026830Y-134934837D01*
X99029648Y-134933009D01*
X99075327Y-134891228D01*
X99086409Y-134876248D01*
X99103166Y-134861690D01*
X99108752Y-134893945D01*
G37*
X99108752Y-134893945D02*
X99108811Y-134898650D01*
X99095595Y-134943969D01*
X99052050Y-134955411D01*
X99015908Y-134950583D01*
X99026830Y-134934837D01*
X99029648Y-134933009D01*
X99075327Y-134891228D01*
X99086409Y-134876248D01*
X99103166Y-134861690D01*
X99108752Y-134893945D01*
G36*
X78937162Y-134873430D02*
G01*
X78938990Y-134876248D01*
X78980771Y-134921927D01*
X78995751Y-134933009D01*
X79010309Y-134949766D01*
X78978054Y-134955352D01*
X78973350Y-134955411D01*
X78928030Y-134942195D01*
X78916588Y-134898650D01*
X78921416Y-134862508D01*
X78937162Y-134873430D01*
G37*
X78937162Y-134873430D02*
X78938990Y-134876248D01*
X78980771Y-134921927D01*
X78995751Y-134933009D01*
X79010309Y-134949766D01*
X78978054Y-134955352D01*
X78973350Y-134955411D01*
X78928030Y-134942195D01*
X78916588Y-134898650D01*
X78921416Y-134862508D01*
X78937162Y-134873430D01*
D13*
X116827500Y-144191200D02*
X116827500Y-142768800D01*
X116116300Y-143480000D02*
X117538700Y-143480000D01*
X117330394Y-143480000D02*
G75*
G03*
X117330394Y-143480000I-502894J0D01*
G01*
X116573500Y-146337500D02*
X83426500Y-146337500D01*
X116573500Y-144623000D02*
X116573500Y-146337500D01*
X118348960Y-144623000D02*
X116573500Y-144623000D01*
X118348960Y-142337000D02*
X118348960Y-144623000D01*
X116573500Y-142337000D02*
X118348960Y-142337000D01*
X116573500Y-140622500D02*
X116573500Y-142337000D01*
X83934500Y-140622500D02*
X116573500Y-140622500D01*
X81651040Y-142337000D02*
X83426500Y-142337000D01*
X83426500Y-142337000D02*
X83426500Y-141448000D01*
X83426500Y-141448000D02*
X83934500Y-141448000D01*
X83934500Y-141448000D02*
X83934500Y-140622500D01*
X83426500Y-146337500D02*
X83426500Y-144623000D01*
X83426500Y-144623000D02*
X81651040Y-144623000D01*
X81651040Y-144623000D02*
X81651040Y-142337000D01*
X83675394Y-143480000D02*
G75*
G03*
X83675394Y-143480000I-502894J0D01*
G01*
X82461300Y-143480000D02*
X83883700Y-143480000D01*
X83172500Y-144191200D02*
X83172500Y-142768800D01*
X150380900Y-144191200D02*
X150380900Y-142768800D01*
X149669700Y-143480000D02*
X151092100Y-143480000D01*
X150883794Y-143480000D02*
G75*
G03*
X150883794Y-143480000I-502894J0D01*
G01*
X150126900Y-146337500D02*
X123329900Y-146337500D01*
X150126900Y-144623000D02*
X150126900Y-146337500D01*
X151902360Y-144623000D02*
X150126900Y-144623000D01*
X151902360Y-142337000D02*
X151902360Y-144623000D01*
X150126900Y-142337000D02*
X151902360Y-142337000D01*
X150126900Y-140622500D02*
X150126900Y-142337000D01*
X123837900Y-140622500D02*
X150126900Y-140622500D01*
X121554440Y-142337000D02*
X123329900Y-142337000D01*
X123329900Y-142337000D02*
X123329900Y-141448000D01*
X123329900Y-141448000D02*
X123837900Y-141448000D01*
X123837900Y-141448000D02*
X123837900Y-140622500D01*
X123329900Y-146337500D02*
X123329900Y-144623000D01*
X123329900Y-144623000D02*
X121554440Y-144623000D01*
X121554440Y-144623000D02*
X121554440Y-142337000D01*
X123578794Y-143480000D02*
G75*
G03*
X123578794Y-143480000I-502894J0D01*
G01*
X122364700Y-143480000D02*
X123787100Y-143480000D01*
X123075900Y-144191200D02*
X123075900Y-142768800D01*
D12*
X68198580Y-78297620D02*
X69588580Y-78297620D01*
X68198580Y-79687620D02*
X68198580Y-78297620D01*
X70858580Y-80957620D02*
X68198580Y-80957620D01*
X70858580Y-78297620D02*
X70858580Y-80957620D01*
X73518580Y-78297620D02*
X70858580Y-78297620D01*
X73518580Y-121717620D02*
X73518580Y-78297620D01*
X68198580Y-121717620D02*
X73518580Y-121717620D01*
X68198580Y-80957620D02*
X68198580Y-121717620D01*
X136838240Y-121704920D02*
X135448240Y-121704920D01*
X136838240Y-120314920D02*
X136838240Y-121704920D01*
X134178240Y-119044920D02*
X136838240Y-119044920D01*
X134178240Y-121704920D02*
X134178240Y-119044920D01*
X131518240Y-121704920D02*
X134178240Y-121704920D01*
X131518240Y-78284920D02*
X131518240Y-121704920D01*
X136838240Y-78284920D02*
X131518240Y-78284920D01*
X136838240Y-119044920D02*
X136838240Y-78284920D01*
X131819200Y-121715080D02*
X130429200Y-121715080D01*
X131819200Y-120325080D02*
X131819200Y-121715080D01*
X129159200Y-119055080D02*
X131819200Y-119055080D01*
X129159200Y-121715080D02*
X129159200Y-119055080D01*
X126499200Y-121715080D02*
X129159200Y-121715080D01*
X126499200Y-78295080D02*
X126499200Y-121715080D01*
X131819200Y-78295080D02*
X126499200Y-78295080D01*
X131819200Y-119055080D02*
X131819200Y-78295080D01*
D15*
X68698284Y-121471080D02*
X68698284Y-120471080D01*
X69079237Y-120471080D01*
X69174475Y-120518700D01*
X69222094Y-120566319D01*
X69269713Y-120661557D01*
X69269713Y-120804414D01*
X69222094Y-120899652D01*
X69174475Y-120947271D01*
X69079237Y-120994890D01*
X68698284Y-120994890D01*
X69650665Y-120566319D02*
X69698284Y-120518700D01*
X69793522Y-120471080D01*
X70031618Y-120471080D01*
X70126856Y-120518700D01*
X70174475Y-120566319D01*
X70222094Y-120661557D01*
X70222094Y-120756795D01*
X70174475Y-120899652D01*
X69603046Y-121471080D01*
X70222094Y-121471080D01*
D10*
X62726666Y-139029523D02*
X62726666Y-139936666D01*
X62666190Y-140118095D01*
X62545238Y-140239047D01*
X62363809Y-140299523D01*
X62242857Y-140299523D01*
X63875714Y-139452857D02*
X63875714Y-140299523D01*
X63573333Y-138969047D02*
X63270952Y-139876190D01*
X64057142Y-139876190D01*
X77121904Y-144904523D02*
X77908095Y-144904523D01*
X77484761Y-145388333D01*
X77666190Y-145388333D01*
X77787142Y-145448809D01*
X77847619Y-145509285D01*
X77908095Y-145630238D01*
X77908095Y-145932619D01*
X77847619Y-146053571D01*
X77787142Y-146114047D01*
X77666190Y-146174523D01*
X77303333Y-146174523D01*
X77182380Y-146114047D01*
X77121904Y-146053571D01*
X78512857Y-146174523D02*
X78754761Y-146174523D01*
X78875714Y-146114047D01*
X78936190Y-146053571D01*
X79057142Y-145872142D01*
X79117619Y-145630238D01*
X79117619Y-145146428D01*
X79057142Y-145025476D01*
X78996666Y-144965000D01*
X78875714Y-144904523D01*
X78633809Y-144904523D01*
X78512857Y-144965000D01*
X78452380Y-145025476D01*
X78391904Y-145146428D01*
X78391904Y-145448809D01*
X78452380Y-145569761D01*
X78512857Y-145630238D01*
X78633809Y-145690714D01*
X78875714Y-145690714D01*
X78996666Y-145630238D01*
X79057142Y-145569761D01*
X79117619Y-145448809D01*
X48964523Y-140454523D02*
X49085476Y-140454523D01*
X49206428Y-140515000D01*
X49266904Y-140575476D01*
X49327380Y-140696428D01*
X49387857Y-140938333D01*
X49387857Y-141240714D01*
X49327380Y-141482619D01*
X49266904Y-141603571D01*
X49206428Y-141664047D01*
X49085476Y-141724523D01*
X48964523Y-141724523D01*
X48843571Y-141664047D01*
X48783095Y-141603571D01*
X48722619Y-141482619D01*
X48662142Y-141240714D01*
X48662142Y-140938333D01*
X48722619Y-140696428D01*
X48783095Y-140575476D01*
X48843571Y-140515000D01*
X48964523Y-140454523D01*
D15*
X143521333Y-81307142D02*
X143473714Y-81354761D01*
X143330857Y-81402380D01*
X143235619Y-81402380D01*
X143092761Y-81354761D01*
X142997523Y-81259523D01*
X142949904Y-81164285D01*
X142902285Y-80973809D01*
X142902285Y-80830952D01*
X142949904Y-80640476D01*
X142997523Y-80545238D01*
X143092761Y-80450000D01*
X143235619Y-80402380D01*
X143330857Y-80402380D01*
X143473714Y-80450000D01*
X143521333Y-80497619D01*
X144473714Y-81402380D02*
X143902285Y-81402380D01*
X144188000Y-81402380D02*
X144188000Y-80402380D01*
X144092761Y-80545238D01*
X143997523Y-80640476D01*
X143902285Y-80688095D01*
X55891333Y-81370642D02*
X55843714Y-81418261D01*
X55700857Y-81465880D01*
X55605619Y-81465880D01*
X55462761Y-81418261D01*
X55367523Y-81323023D01*
X55319904Y-81227785D01*
X55272285Y-81037309D01*
X55272285Y-80894452D01*
X55319904Y-80703976D01*
X55367523Y-80608738D01*
X55462761Y-80513500D01*
X55605619Y-80465880D01*
X55700857Y-80465880D01*
X55843714Y-80513500D01*
X55891333Y-80561119D01*
X56272285Y-80561119D02*
X56319904Y-80513500D01*
X56415142Y-80465880D01*
X56653238Y-80465880D01*
X56748476Y-80513500D01*
X56796095Y-80561119D01*
X56843714Y-80656357D01*
X56843714Y-80751595D01*
X56796095Y-80894452D01*
X56224666Y-81465880D01*
X56843714Y-81465880D01*
X143172166Y-78973571D02*
X142838833Y-78973571D01*
X142838833Y-79497380D02*
X142838833Y-78497380D01*
X143315023Y-78497380D01*
X144029309Y-78973571D02*
X144172166Y-79021190D01*
X144219785Y-79068809D01*
X144267404Y-79164047D01*
X144267404Y-79306904D01*
X144219785Y-79402142D01*
X144172166Y-79449761D01*
X144076928Y-79497380D01*
X143695976Y-79497380D01*
X143695976Y-78497380D01*
X144029309Y-78497380D01*
X144124547Y-78545000D01*
X144172166Y-78592619D01*
X144219785Y-78687857D01*
X144219785Y-78783095D01*
X144172166Y-78878333D01*
X144124547Y-78925952D01*
X144029309Y-78973571D01*
X143695976Y-78973571D01*
X145219785Y-79497380D02*
X144648357Y-79497380D01*
X144934071Y-79497380D02*
X144934071Y-78497380D01*
X144838833Y-78640238D01*
X144743595Y-78735476D01*
X144648357Y-78783095D01*
X55097666Y-79037071D02*
X54764333Y-79037071D01*
X54764333Y-79560880D02*
X54764333Y-78560880D01*
X55240523Y-78560880D01*
X55954809Y-79037071D02*
X56097666Y-79084690D01*
X56145285Y-79132309D01*
X56192904Y-79227547D01*
X56192904Y-79370404D01*
X56145285Y-79465642D01*
X56097666Y-79513261D01*
X56002428Y-79560880D01*
X55621476Y-79560880D01*
X55621476Y-78560880D01*
X55954809Y-78560880D01*
X56050047Y-78608500D01*
X56097666Y-78656119D01*
X56145285Y-78751357D01*
X56145285Y-78846595D01*
X56097666Y-78941833D01*
X56050047Y-78989452D01*
X55954809Y-79037071D01*
X55621476Y-79037071D01*
X56573857Y-78656119D02*
X56621476Y-78608500D01*
X56716714Y-78560880D01*
X56954809Y-78560880D01*
X57050047Y-78608500D01*
X57097666Y-78656119D01*
X57145285Y-78751357D01*
X57145285Y-78846595D01*
X57097666Y-78989452D01*
X56526238Y-79560880D01*
X57145285Y-79560880D01*
X117152380Y-137516666D02*
X116676190Y-137850000D01*
X117152380Y-138088095D02*
X116152380Y-138088095D01*
X116152380Y-137707142D01*
X116200000Y-137611904D01*
X116247619Y-137564285D01*
X116342857Y-137516666D01*
X116485714Y-137516666D01*
X116580952Y-137564285D01*
X116628571Y-137611904D01*
X116676190Y-137707142D01*
X116676190Y-138088095D01*
X117152380Y-136564285D02*
X117152380Y-137135714D01*
X117152380Y-136850000D02*
X116152380Y-136850000D01*
X116295238Y-136945238D01*
X116390476Y-137040476D01*
X116438095Y-137135714D01*
X120688095Y-139252380D02*
X120688095Y-140061904D01*
X120735714Y-140157142D01*
X120783333Y-140204761D01*
X120878571Y-140252380D01*
X121069047Y-140252380D01*
X121164285Y-140204761D01*
X121211904Y-140157142D01*
X121259523Y-140061904D01*
X121259523Y-139252380D01*
X122259523Y-140252380D02*
X121688095Y-140252380D01*
X121973809Y-140252380D02*
X121973809Y-139252380D01*
X121878571Y-139395238D01*
X121783333Y-139490476D01*
X121688095Y-139538095D01*
D10*
X99526666Y-138979523D02*
X99526666Y-139886666D01*
X99466190Y-140068095D01*
X99345238Y-140189047D01*
X99163809Y-140249523D01*
X99042857Y-140249523D01*
X100736190Y-138979523D02*
X100131428Y-138979523D01*
X100070952Y-139584285D01*
X100131428Y-139523809D01*
X100252380Y-139463333D01*
X100554761Y-139463333D01*
X100675714Y-139523809D01*
X100736190Y-139584285D01*
X100796666Y-139705238D01*
X100796666Y-140007619D01*
X100736190Y-140128571D01*
X100675714Y-140189047D01*
X100554761Y-140249523D01*
X100252380Y-140249523D01*
X100131428Y-140189047D01*
X100070952Y-140128571D01*
X81712142Y-140752857D02*
X81712142Y-141599523D01*
X81409761Y-140269047D02*
X81107380Y-141176190D01*
X81893571Y-141176190D01*
X82619285Y-140329523D02*
X82740238Y-140329523D01*
X82861190Y-140390000D01*
X82921666Y-140450476D01*
X82982142Y-140571428D01*
X83042619Y-140813333D01*
X83042619Y-141115714D01*
X82982142Y-141357619D01*
X82921666Y-141478571D01*
X82861190Y-141539047D01*
X82740238Y-141599523D01*
X82619285Y-141599523D01*
X82498333Y-141539047D01*
X82437857Y-141478571D01*
X82377380Y-141357619D01*
X82316904Y-141115714D01*
X82316904Y-140813333D01*
X82377380Y-140571428D01*
X82437857Y-140450476D01*
X82498333Y-140390000D01*
X82619285Y-140329523D01*
X107796904Y-139004523D02*
X108643571Y-139004523D01*
X108099285Y-140274523D01*
X109308809Y-139548809D02*
X109187857Y-139488333D01*
X109127380Y-139427857D01*
X109066904Y-139306904D01*
X109066904Y-139246428D01*
X109127380Y-139125476D01*
X109187857Y-139065000D01*
X109308809Y-139004523D01*
X109550714Y-139004523D01*
X109671666Y-139065000D01*
X109732142Y-139125476D01*
X109792619Y-139246428D01*
X109792619Y-139306904D01*
X109732142Y-139427857D01*
X109671666Y-139488333D01*
X109550714Y-139548809D01*
X109308809Y-139548809D01*
X109187857Y-139609285D01*
X109127380Y-139669761D01*
X109066904Y-139790714D01*
X109066904Y-140032619D01*
X109127380Y-140153571D01*
X109187857Y-140214047D01*
X109308809Y-140274523D01*
X109550714Y-140274523D01*
X109671666Y-140214047D01*
X109732142Y-140153571D01*
X109792619Y-140032619D01*
X109792619Y-139790714D01*
X109732142Y-139669761D01*
X109671666Y-139609285D01*
X109550714Y-139548809D01*
X136626666Y-138904523D02*
X136626666Y-139811666D01*
X136566190Y-139993095D01*
X136445238Y-140114047D01*
X136263809Y-140174523D01*
X136142857Y-140174523D01*
X137775714Y-138904523D02*
X137533809Y-138904523D01*
X137412857Y-138965000D01*
X137352380Y-139025476D01*
X137231428Y-139206904D01*
X137170952Y-139448809D01*
X137170952Y-139932619D01*
X137231428Y-140053571D01*
X137291904Y-140114047D01*
X137412857Y-140174523D01*
X137654761Y-140174523D01*
X137775714Y-140114047D01*
X137836190Y-140053571D01*
X137896666Y-139932619D01*
X137896666Y-139630238D01*
X137836190Y-139509285D01*
X137775714Y-139448809D01*
X137654761Y-139388333D01*
X137412857Y-139388333D01*
X137291904Y-139448809D01*
X137231428Y-139509285D01*
X137170952Y-139630238D01*
X121349285Y-141098809D02*
X121228333Y-141038333D01*
X121167857Y-140977857D01*
X121107380Y-140856904D01*
X121107380Y-140796428D01*
X121167857Y-140675476D01*
X121228333Y-140615000D01*
X121349285Y-140554523D01*
X121591190Y-140554523D01*
X121712142Y-140615000D01*
X121772619Y-140675476D01*
X121833095Y-140796428D01*
X121833095Y-140856904D01*
X121772619Y-140977857D01*
X121712142Y-141038333D01*
X121591190Y-141098809D01*
X121349285Y-141098809D01*
X121228333Y-141159285D01*
X121167857Y-141219761D01*
X121107380Y-141340714D01*
X121107380Y-141582619D01*
X121167857Y-141703571D01*
X121228333Y-141764047D01*
X121349285Y-141824523D01*
X121591190Y-141824523D01*
X121712142Y-141764047D01*
X121772619Y-141703571D01*
X121833095Y-141582619D01*
X121833095Y-141340714D01*
X121772619Y-141219761D01*
X121712142Y-141159285D01*
X121591190Y-141098809D01*
X122619285Y-140554523D02*
X122740238Y-140554523D01*
X122861190Y-140615000D01*
X122921666Y-140675476D01*
X122982142Y-140796428D01*
X123042619Y-141038333D01*
X123042619Y-141340714D01*
X122982142Y-141582619D01*
X122921666Y-141703571D01*
X122861190Y-141764047D01*
X122740238Y-141824523D01*
X122619285Y-141824523D01*
X122498333Y-141764047D01*
X122437857Y-141703571D01*
X122377380Y-141582619D01*
X122316904Y-141340714D01*
X122316904Y-141038333D01*
X122377380Y-140796428D01*
X122437857Y-140675476D01*
X122498333Y-140615000D01*
X122619285Y-140554523D01*
X147003333Y-147624523D02*
X146277619Y-147624523D01*
X146640476Y-147624523D02*
X146640476Y-146354523D01*
X146519523Y-146535952D01*
X146398571Y-146656904D01*
X146277619Y-146717380D01*
X148212857Y-147624523D02*
X147487142Y-147624523D01*
X147850000Y-147624523D02*
X147850000Y-146354523D01*
X147729047Y-146535952D01*
X147608095Y-146656904D01*
X147487142Y-146717380D01*
X148817619Y-147624523D02*
X149059523Y-147624523D01*
X149180476Y-147564047D01*
X149240952Y-147503571D01*
X149361904Y-147322142D01*
X149422380Y-147080238D01*
X149422380Y-146596428D01*
X149361904Y-146475476D01*
X149301428Y-146415000D01*
X149180476Y-146354523D01*
X148938571Y-146354523D01*
X148817619Y-146415000D01*
X148757142Y-146475476D01*
X148696666Y-146596428D01*
X148696666Y-146898809D01*
X148757142Y-147019761D01*
X148817619Y-147080238D01*
X148938571Y-147140714D01*
X149180476Y-147140714D01*
X149301428Y-147080238D01*
X149361904Y-147019761D01*
X149422380Y-146898809D01*
D15*
X73803684Y-121471080D02*
X73803684Y-120471080D01*
X74184637Y-120471080D01*
X74279875Y-120518700D01*
X74327494Y-120566319D01*
X74375113Y-120661557D01*
X74375113Y-120804414D01*
X74327494Y-120899652D01*
X74279875Y-120947271D01*
X74184637Y-120994890D01*
X73803684Y-120994890D01*
X75327494Y-121471080D02*
X74756065Y-121471080D01*
X75041780Y-121471080D02*
X75041780Y-120471080D01*
X74946541Y-120613938D01*
X74851303Y-120709176D01*
X74756065Y-120756795D01*
X129756944Y-79436220D02*
X129756944Y-78436220D01*
X130137897Y-78436220D01*
X130233135Y-78483840D01*
X130280754Y-78531459D01*
X130328373Y-78626697D01*
X130328373Y-78769554D01*
X130280754Y-78864792D01*
X130233135Y-78912411D01*
X130137897Y-78960030D01*
X129756944Y-78960030D01*
X130661706Y-78436220D02*
X131280754Y-78436220D01*
X130947420Y-78817173D01*
X131090278Y-78817173D01*
X131185516Y-78864792D01*
X131233135Y-78912411D01*
X131280754Y-79007649D01*
X131280754Y-79245744D01*
X131233135Y-79340982D01*
X131185516Y-79388601D01*
X131090278Y-79436220D01*
X130804563Y-79436220D01*
X130709325Y-79388601D01*
X130661706Y-79340982D01*
X124737904Y-79446380D02*
X124737904Y-78446380D01*
X125118857Y-78446380D01*
X125214095Y-78494000D01*
X125261714Y-78541619D01*
X125309333Y-78636857D01*
X125309333Y-78779714D01*
X125261714Y-78874952D01*
X125214095Y-78922571D01*
X125118857Y-78970190D01*
X124737904Y-78970190D01*
X126166476Y-78779714D02*
X126166476Y-79446380D01*
X125928380Y-78398761D02*
X125690285Y-79113047D01*
X126309333Y-79113047D01*
M02*
