G04 #@! TF.GenerationSoftware,KiCad,Pcbnew,5.1.9+dfsg1-1~bpo10+1*
G04 #@! TF.CreationDate,2021-11-09T03:07:47+00:00*
G04 #@! TF.ProjectId,120-channel-pogo-pin-board,3132302d-6368-4616-9e6e-656c2d706f67,v3.4*
G04 #@! TF.SameCoordinates,Original*
G04 #@! TF.FileFunction,Copper,L1,Top*
G04 #@! TF.FilePolarity,Positive*
%FSLAX46Y46*%
G04 Gerber Fmt 4.6, Leading zero omitted, Abs format (unit mm)*
G04 Created by KiCad (PCBNEW 5.1.9+dfsg1-1~bpo10+1) date 2021-11-09 03:07:47*
%MOMM*%
%LPD*%
G01*
G04 APERTURE LIST*
G04 #@! TA.AperFunction,ComponentPad*
%ADD10R,1.700000X1.700000*%
G04 #@! TD*
G04 #@! TA.AperFunction,ComponentPad*
%ADD11O,1.700000X1.700000*%
G04 #@! TD*
G04 #@! TA.AperFunction,SMDPad,CuDef*
%ADD12R,0.736600X2.219960*%
G04 #@! TD*
G04 #@! TA.AperFunction,ComponentPad*
%ADD13C,1.750000*%
G04 #@! TD*
G04 #@! TA.AperFunction,ComponentPad*
%ADD14C,6.400000*%
G04 #@! TD*
G04 #@! TA.AperFunction,SMDPad,CuDef*
%ADD15R,1.000000X1.250000*%
G04 #@! TD*
G04 #@! TA.AperFunction,SMDPad,CuDef*
%ADD16R,0.700000X1.300000*%
G04 #@! TD*
G04 #@! TA.AperFunction,SMDPad,CuDef*
%ADD17R,1.300000X0.700000*%
G04 #@! TD*
G04 #@! TA.AperFunction,SMDPad,CuDef*
%ADD18R,1.220000X0.650000*%
G04 #@! TD*
G04 #@! TA.AperFunction,ViaPad*
%ADD19C,0.762000*%
G04 #@! TD*
G04 #@! TA.AperFunction,Conductor*
%ADD20C,0.177800*%
G04 #@! TD*
G04 APERTURE END LIST*
D10*
X64483180Y-79687620D03*
D11*
X67023180Y-79687620D03*
X64483180Y-82227620D03*
X67023180Y-82227620D03*
X64483180Y-84767620D03*
X67023180Y-84767620D03*
X64483180Y-87307620D03*
X67023180Y-87307620D03*
X64483180Y-89847620D03*
X67023180Y-89847620D03*
X64483180Y-92387620D03*
X67023180Y-92387620D03*
X64483180Y-94927620D03*
X67023180Y-94927620D03*
X64483180Y-97467620D03*
X67023180Y-97467620D03*
X64483180Y-100007620D03*
X67023180Y-100007620D03*
X64483180Y-102547620D03*
X67023180Y-102547620D03*
X64483180Y-105087620D03*
X67023180Y-105087620D03*
X64483180Y-107627620D03*
X67023180Y-107627620D03*
X64483180Y-110167620D03*
X67023180Y-110167620D03*
X64483180Y-112707620D03*
X67023180Y-112707620D03*
X64483180Y-115247620D03*
X67023180Y-115247620D03*
X64483180Y-117787620D03*
X67023180Y-117787620D03*
X67023180Y-120327620D03*
X64483180Y-120327620D03*
D12*
X63906600Y-142116020D03*
X63906600Y-144843980D03*
X65176600Y-142116020D03*
X65176600Y-144843980D03*
X66446600Y-142116020D03*
X66446600Y-144843980D03*
X67716600Y-142116020D03*
X67716600Y-144843980D03*
X68986600Y-142116020D03*
X68986600Y-144843980D03*
X51206600Y-142116020D03*
X51206600Y-144843980D03*
X52476600Y-142116020D03*
X52476600Y-144843980D03*
X53746600Y-142116020D03*
X53746600Y-144843980D03*
X55016600Y-142116020D03*
X55016600Y-144843980D03*
X56286600Y-142116020D03*
X56286600Y-144843980D03*
X75336600Y-144843980D03*
X75336600Y-142116020D03*
X74066600Y-144843980D03*
X74066600Y-142116020D03*
X72796600Y-144843980D03*
X72796600Y-142116020D03*
X71526600Y-144843980D03*
X71526600Y-142116020D03*
X70256600Y-144843980D03*
X70256600Y-142116020D03*
X62636600Y-144843980D03*
X62636600Y-142116020D03*
X61366600Y-144843980D03*
X61366600Y-142116020D03*
X60096600Y-144843980D03*
X60096600Y-142116020D03*
X58826600Y-144843980D03*
X58826600Y-142116020D03*
X57556600Y-144843980D03*
X57556600Y-142116020D03*
D13*
X49619100Y-143480000D03*
X76924100Y-143480000D03*
D14*
X149000000Y-81000000D03*
X51000000Y-81000000D03*
X149000000Y-132000000D03*
X51000000Y-132000000D03*
D15*
X140000000Y-81000000D03*
X142000000Y-81000000D03*
X60000000Y-81000000D03*
X58000000Y-81000000D03*
D16*
X140050000Y-79000000D03*
X141950000Y-79000000D03*
X59950000Y-79000000D03*
X58050000Y-79000000D03*
D17*
X118350000Y-138300000D03*
X118350000Y-136400000D03*
D18*
X122760000Y-138300000D03*
X122760000Y-137350000D03*
X122760000Y-136400000D03*
X120140000Y-136400000D03*
X120140000Y-138300000D03*
D12*
X86030000Y-144843980D03*
X86030000Y-142116020D03*
X94920000Y-144843980D03*
X94920000Y-142116020D03*
X93650000Y-144843980D03*
X93650000Y-142116020D03*
X92380000Y-144843980D03*
X92380000Y-142116020D03*
X91110000Y-144843980D03*
X91110000Y-142116020D03*
X103810000Y-142116020D03*
X103810000Y-144843980D03*
X105080000Y-142116020D03*
X105080000Y-144843980D03*
X106350000Y-142116020D03*
X106350000Y-144843980D03*
X107620000Y-142116020D03*
X107620000Y-144843980D03*
X108890000Y-142116020D03*
X108890000Y-144843980D03*
X84760000Y-142116020D03*
X84760000Y-144843980D03*
X87300000Y-142116020D03*
X87300000Y-144843980D03*
X88570000Y-142116020D03*
X88570000Y-144843980D03*
X89840000Y-142116020D03*
X89840000Y-144843980D03*
X96190000Y-142116020D03*
X96190000Y-144843980D03*
X115240000Y-144843980D03*
X115240000Y-142116020D03*
X113970000Y-144843980D03*
X113970000Y-142116020D03*
X112700000Y-144843980D03*
X112700000Y-142116020D03*
X111430000Y-144843980D03*
X111430000Y-142116020D03*
X110160000Y-144843980D03*
X110160000Y-142116020D03*
X102540000Y-144843980D03*
X102540000Y-142116020D03*
X101270000Y-144843980D03*
X101270000Y-142116020D03*
X100000000Y-144843980D03*
X100000000Y-142116020D03*
X98730000Y-144843980D03*
X98730000Y-142116020D03*
X97460000Y-144843980D03*
X97460000Y-142116020D03*
D13*
X83172500Y-143480000D03*
X116827500Y-143480000D03*
D12*
X137363400Y-142116020D03*
X137363400Y-144843980D03*
X138633400Y-142116020D03*
X138633400Y-144843980D03*
X139903400Y-142116020D03*
X139903400Y-144843980D03*
X141173400Y-142116020D03*
X141173400Y-144843980D03*
X142443400Y-142116020D03*
X142443400Y-144843980D03*
X124663400Y-142116020D03*
X124663400Y-144843980D03*
X125933400Y-142116020D03*
X125933400Y-144843980D03*
X127203400Y-142116020D03*
X127203400Y-144843980D03*
X128473400Y-142116020D03*
X128473400Y-144843980D03*
X129743400Y-142116020D03*
X129743400Y-144843980D03*
X148793400Y-144843980D03*
X148793400Y-142116020D03*
X147523400Y-144843980D03*
X147523400Y-142116020D03*
X146253400Y-144843980D03*
X146253400Y-142116020D03*
X144983400Y-144843980D03*
X144983400Y-142116020D03*
X143713400Y-144843980D03*
X143713400Y-142116020D03*
X136093400Y-144843980D03*
X136093400Y-142116020D03*
X134823400Y-144843980D03*
X134823400Y-142116020D03*
X133553400Y-144843980D03*
X133553400Y-142116020D03*
X132283400Y-144843980D03*
X132283400Y-142116020D03*
X131013400Y-144843980D03*
X131013400Y-142116020D03*
D13*
X123075900Y-143480000D03*
X150380900Y-143480000D03*
D10*
X69588580Y-79687620D03*
D11*
X72128580Y-79687620D03*
X69588580Y-82227620D03*
X72128580Y-82227620D03*
X69588580Y-84767620D03*
X72128580Y-84767620D03*
X69588580Y-87307620D03*
X72128580Y-87307620D03*
X69588580Y-89847620D03*
X72128580Y-89847620D03*
X69588580Y-92387620D03*
X72128580Y-92387620D03*
X69588580Y-94927620D03*
X72128580Y-94927620D03*
X69588580Y-97467620D03*
X72128580Y-97467620D03*
X69588580Y-100007620D03*
X72128580Y-100007620D03*
X69588580Y-102547620D03*
X72128580Y-102547620D03*
X69588580Y-105087620D03*
X72128580Y-105087620D03*
X69588580Y-107627620D03*
X72128580Y-107627620D03*
X69588580Y-110167620D03*
X72128580Y-110167620D03*
X69588580Y-112707620D03*
X72128580Y-112707620D03*
X69588580Y-115247620D03*
X72128580Y-115247620D03*
X69588580Y-117787620D03*
X72128580Y-117787620D03*
X72128580Y-120327620D03*
X69588580Y-120327620D03*
D10*
X135448240Y-120314920D03*
D11*
X132908240Y-120314920D03*
X135448240Y-117774920D03*
X132908240Y-117774920D03*
X135448240Y-115234920D03*
X132908240Y-115234920D03*
X135448240Y-112694920D03*
X132908240Y-112694920D03*
X135448240Y-110154920D03*
X132908240Y-110154920D03*
X135448240Y-107614920D03*
X132908240Y-107614920D03*
X135448240Y-105074920D03*
X132908240Y-105074920D03*
X135448240Y-102534920D03*
X132908240Y-102534920D03*
X135448240Y-99994920D03*
X132908240Y-99994920D03*
X135448240Y-97454920D03*
X132908240Y-97454920D03*
X135448240Y-94914920D03*
X132908240Y-94914920D03*
X135448240Y-92374920D03*
X132908240Y-92374920D03*
X135448240Y-89834920D03*
X132908240Y-89834920D03*
X135448240Y-87294920D03*
X132908240Y-87294920D03*
X135448240Y-84754920D03*
X132908240Y-84754920D03*
X135448240Y-82214920D03*
X132908240Y-82214920D03*
X132908240Y-79674920D03*
X135448240Y-79674920D03*
D10*
X130429200Y-120325080D03*
D11*
X127889200Y-120325080D03*
X130429200Y-117785080D03*
X127889200Y-117785080D03*
X130429200Y-115245080D03*
X127889200Y-115245080D03*
X130429200Y-112705080D03*
X127889200Y-112705080D03*
X130429200Y-110165080D03*
X127889200Y-110165080D03*
X130429200Y-107625080D03*
X127889200Y-107625080D03*
X130429200Y-105085080D03*
X127889200Y-105085080D03*
X130429200Y-102545080D03*
X127889200Y-102545080D03*
X130429200Y-100005080D03*
X127889200Y-100005080D03*
X130429200Y-97465080D03*
X127889200Y-97465080D03*
X130429200Y-94925080D03*
X127889200Y-94925080D03*
X130429200Y-92385080D03*
X127889200Y-92385080D03*
X130429200Y-89845080D03*
X127889200Y-89845080D03*
X130429200Y-87305080D03*
X127889200Y-87305080D03*
X130429200Y-84765080D03*
X127889200Y-84765080D03*
X130429200Y-82225080D03*
X127889200Y-82225080D03*
X127889200Y-79685080D03*
X130429200Y-79685080D03*
D19*
X62900000Y-81650000D03*
X67023180Y-82227620D03*
X69588580Y-82227620D03*
X51200000Y-144800000D03*
X52500000Y-144800000D03*
X64483180Y-82227620D03*
X56300000Y-144800000D03*
X69588580Y-87307620D03*
X64450000Y-87350000D03*
X57600000Y-144800000D03*
X64483180Y-84767620D03*
X55000000Y-144800000D03*
X69588580Y-84767620D03*
X53800000Y-144800000D03*
X61900000Y-84300000D03*
X67023180Y-84767620D03*
X59900000Y-86750000D03*
X67023180Y-87307620D03*
X69588580Y-89847620D03*
X58800000Y-144800000D03*
X58400000Y-89250000D03*
X67023180Y-89847620D03*
X60100000Y-144800000D03*
X64483180Y-89847620D03*
X69600000Y-92400000D03*
X61300000Y-144700000D03*
X56850000Y-91800000D03*
X67023180Y-92387620D03*
X62600000Y-144800000D03*
X64483180Y-92387620D03*
X69600000Y-94950000D03*
X63900000Y-144900000D03*
X58050000Y-94250000D03*
X67023180Y-94927620D03*
X65100000Y-144800000D03*
X64483180Y-94927620D03*
X66446600Y-144843980D03*
X69588580Y-97467620D03*
X57750000Y-96850000D03*
X67023180Y-97467620D03*
X67700000Y-144700000D03*
X64483180Y-97467620D03*
X68986600Y-144843980D03*
X69588580Y-100007620D03*
X57800000Y-99450000D03*
X67023180Y-100007620D03*
X70256600Y-144843980D03*
X64483180Y-100007620D03*
X71526600Y-144843980D03*
X69588580Y-102547620D03*
X58650000Y-102000000D03*
X67023180Y-102547620D03*
X72796600Y-144843980D03*
X64483180Y-102547620D03*
X69588580Y-105087620D03*
X74066600Y-144843980D03*
X59400000Y-104500000D03*
X67023180Y-105087620D03*
X75336600Y-144843980D03*
X64483180Y-105087620D03*
X144983400Y-144843980D03*
X136969500Y-84137500D03*
X132908240Y-84754920D03*
X146253400Y-144843980D03*
X127889200Y-84765080D03*
X147523400Y-144843980D03*
X137160000Y-81534000D03*
X132910740Y-82214920D03*
X148793400Y-144843980D03*
X127899360Y-82204760D03*
X127891698Y-94925080D03*
X136100000Y-144800000D03*
X134800000Y-144900000D03*
X136842500Y-94234000D03*
X132910740Y-94914920D03*
X133553400Y-144843980D03*
X127891700Y-97465080D03*
X136842500Y-96774000D03*
X132283400Y-144843980D03*
X132910738Y-97454920D03*
X127891702Y-100005080D03*
X131000000Y-144900000D03*
X143713400Y-144843980D03*
X127893594Y-87339326D03*
X124663400Y-144843980D03*
X136842500Y-104394000D03*
X132910740Y-105074920D03*
X125933400Y-144843980D03*
X127891702Y-105085080D03*
X127203400Y-144843980D03*
X136842500Y-101854000D03*
X132910740Y-102534918D03*
X128473400Y-144843980D03*
X127891700Y-102545080D03*
X136842500Y-99314000D03*
X129743400Y-144843980D03*
X132910740Y-99994920D03*
X137363400Y-144843980D03*
X136906000Y-91757500D03*
X132910740Y-92374920D03*
X138633400Y-144843980D03*
X127891700Y-92385080D03*
X139903400Y-144843980D03*
X136842500Y-89154000D03*
X132910740Y-89834918D03*
X127893594Y-89879326D03*
X141173400Y-144843980D03*
X142443400Y-144843980D03*
X136906000Y-86614000D03*
X132910740Y-87294920D03*
X64483180Y-117787620D03*
X96200000Y-144800000D03*
X62700000Y-117950000D03*
X67023180Y-117787620D03*
X94900000Y-144900000D03*
X69588580Y-117787620D03*
X64500000Y-115250000D03*
X93700000Y-144900000D03*
X62000000Y-115400000D03*
X67023180Y-115247620D03*
X92400000Y-144900000D03*
X69588580Y-115247620D03*
X64450000Y-112700000D03*
X91100000Y-144900000D03*
X61250000Y-112450000D03*
X67023180Y-112707620D03*
X108890000Y-144843980D03*
X127876500Y-107620000D03*
X136842500Y-106934000D03*
X107620000Y-144843980D03*
X132910740Y-107614920D03*
X106350000Y-144843980D03*
X127891700Y-110165080D03*
X136842500Y-109474000D03*
X132910740Y-110154920D03*
X105080000Y-144843980D03*
X103810000Y-144843980D03*
X127891700Y-112705080D03*
X84800000Y-144800000D03*
X69600000Y-107650000D03*
X59650000Y-108000000D03*
X67023180Y-107627620D03*
X86100000Y-144800000D03*
X64483180Y-107627620D03*
X69588580Y-110167620D03*
X87300000Y-144800000D03*
X60400000Y-110200000D03*
X67023180Y-110167620D03*
X64483180Y-110167620D03*
X88600000Y-144800000D03*
X89900000Y-144900000D03*
X69588580Y-112707620D03*
X97460000Y-144843980D03*
X136842500Y-117094000D03*
X132910740Y-117774922D03*
X127891698Y-117785080D03*
X98730000Y-144843980D03*
X136842500Y-114554000D03*
X100000000Y-144843980D03*
X132910738Y-115234920D03*
X101270000Y-144843980D03*
X127891700Y-115245080D03*
X136842500Y-112014000D03*
X102540000Y-144843980D03*
X132910740Y-112694920D03*
X64483180Y-120327620D03*
X115600000Y-137200000D03*
X124100000Y-137600000D03*
X135450740Y-120314920D03*
X122760000Y-137350000D03*
X112700000Y-144843980D03*
X110160000Y-144843980D03*
X69588580Y-120327620D03*
X69588580Y-79687620D03*
X130429200Y-120325080D03*
X140000000Y-81000000D03*
X140050000Y-79000000D03*
X59931500Y-80950002D03*
X59931500Y-79045000D03*
X114500000Y-137100000D03*
X67000000Y-120300000D03*
X132910740Y-120314920D03*
X113970000Y-144843980D03*
X72123500Y-79680000D03*
X72128580Y-120327620D03*
X127891702Y-120325080D03*
X127889200Y-79685080D03*
X142000000Y-81000000D03*
X141950000Y-79000000D03*
X58026502Y-81013500D03*
X58026500Y-79045001D03*
D20*
X67022380Y-82227620D02*
X67023180Y-82227620D01*
X52476600Y-142116020D02*
X52476600Y-137231309D01*
X62464908Y-81650000D02*
X61314908Y-82800000D01*
X55461111Y-130078702D02*
X55461111Y-134246798D01*
X51549500Y-92542637D02*
X51549500Y-126167092D01*
X51549500Y-126167092D02*
X55461111Y-130078702D01*
X54201414Y-89890723D02*
X51549500Y-92542637D01*
X54224185Y-89890723D02*
X54201414Y-89890723D01*
X55461111Y-134246798D02*
X52476600Y-137231309D01*
X60607454Y-83507454D02*
X54224185Y-89890723D01*
X61314908Y-82800000D02*
X60607454Y-83507454D01*
X62464908Y-81650000D02*
X62900000Y-81650000D01*
X52476600Y-141828240D02*
X52476600Y-143116020D01*
X62900000Y-81650000D02*
X62900000Y-81750000D01*
X51206600Y-142116020D02*
X51206600Y-137998400D01*
X70850000Y-80950000D02*
X62639228Y-80950000D01*
X62639228Y-80950000D02*
X61369228Y-82220000D01*
X51193889Y-92395339D02*
X51193889Y-126314389D01*
X51193889Y-126314389D02*
X55105500Y-130226000D01*
X61369228Y-82220000D02*
X51193889Y-92395339D01*
X55105500Y-130226000D02*
X55105500Y-134099500D01*
X55105500Y-134099500D02*
X51206600Y-137998400D01*
X70850000Y-80950000D02*
X72127620Y-82227620D01*
X51200000Y-144800000D02*
X51206600Y-144806600D01*
X51206600Y-144806600D02*
X51206600Y-144843980D01*
X52500000Y-144800000D02*
X52476600Y-144823400D01*
X52476600Y-144823400D02*
X52476600Y-144843980D01*
X64327620Y-82227620D02*
X64483180Y-82227620D01*
X64327620Y-82227620D02*
X63900000Y-81800000D01*
X56300000Y-144800000D02*
X56286600Y-144813400D01*
X56286600Y-144813400D02*
X56286600Y-144843980D01*
X64483180Y-87316820D02*
X64450000Y-87350000D01*
X57600000Y-144800000D02*
X57556600Y-144843400D01*
X57556600Y-144843400D02*
X57556600Y-144843980D01*
X64483180Y-87316820D02*
X64483180Y-87307620D01*
X55000000Y-144800000D02*
X55016600Y-144816600D01*
X55016600Y-144816600D02*
X55016600Y-144843980D01*
X53800000Y-144800000D02*
X53756020Y-144843980D01*
X53756020Y-144843980D02*
X53746600Y-144843980D01*
X53746600Y-142116020D02*
X53746600Y-136464218D01*
X53746600Y-136464218D02*
X53746595Y-136464213D01*
X53746595Y-136464213D02*
X53746595Y-136464223D01*
X72128580Y-84767620D02*
X72128580Y-84428580D01*
X72128580Y-84428580D02*
X71200000Y-83500000D01*
X71200000Y-83500000D02*
X61117807Y-83500000D01*
X61117807Y-83500000D02*
X59857812Y-84759995D01*
X59857812Y-84759995D02*
X59857812Y-84760005D01*
X54371483Y-90246334D02*
X54348712Y-90246334D01*
X55816722Y-134394096D02*
X53746595Y-136464223D01*
X53746595Y-136464223D02*
X53746600Y-136464218D01*
X51905111Y-126019794D02*
X55816722Y-129931404D01*
X54348712Y-90246334D02*
X51905111Y-92689935D01*
X59857817Y-84760000D02*
X59857812Y-84760005D01*
X59857812Y-84760005D02*
X54371483Y-90246334D01*
X55816722Y-129931404D02*
X55816722Y-134394096D01*
X51905111Y-92689935D02*
X51905111Y-126019794D01*
X53746600Y-141828240D02*
X53746600Y-143116020D01*
X61900000Y-84300000D02*
X61860358Y-84260358D01*
X61860358Y-84260358D02*
X60860358Y-84260358D01*
X55016600Y-142116020D02*
X55016600Y-135697127D01*
X55016600Y-135697127D02*
X55016595Y-135697122D01*
X55016595Y-135697122D02*
X55016595Y-135697132D01*
X59027221Y-86093495D02*
X59027221Y-86093505D01*
X60870716Y-84250000D02*
X60860358Y-84260358D01*
X60860358Y-84260358D02*
X59027221Y-86093495D01*
X54518781Y-90601945D02*
X54496010Y-90601945D01*
X55016600Y-141828240D02*
X55016600Y-143116020D01*
X56172333Y-134541394D02*
X55016595Y-135697132D01*
X55016595Y-135697132D02*
X55016600Y-135697127D01*
X56172333Y-129784106D02*
X56172333Y-134541394D01*
X52260722Y-125872496D02*
X56172333Y-129784106D01*
X52260722Y-92837233D02*
X52260722Y-125872496D01*
X59027221Y-86093505D02*
X54518781Y-90601945D01*
X54496010Y-90601945D02*
X52260722Y-92837233D01*
X59027226Y-86093500D02*
X59027221Y-86093505D01*
X59900000Y-86750000D02*
X59376544Y-86750000D01*
X56883555Y-129983555D02*
X57556600Y-130656600D01*
X52971944Y-125577900D02*
X56883555Y-129489510D01*
X56883555Y-129489510D02*
X56883555Y-129983555D01*
X52971944Y-93131829D02*
X52971944Y-125577900D01*
X54790606Y-91313167D02*
X52971944Y-93131829D01*
X54813377Y-91313167D02*
X54790606Y-91313167D01*
X57556544Y-88570000D02*
X54813377Y-91313167D01*
X59376544Y-86750000D02*
X57556544Y-88570000D01*
X57556600Y-142116020D02*
X57556600Y-130656600D01*
X67023180Y-87307620D02*
X67023180Y-87223180D01*
X56286600Y-142116020D02*
X56286600Y-134930036D01*
X52616333Y-125725198D02*
X56527944Y-129636808D01*
X56527944Y-134688692D02*
X56286600Y-134930036D01*
X56527944Y-129636808D02*
X56527944Y-134688692D01*
X52616333Y-92984531D02*
X52616333Y-125725198D01*
X58323635Y-87300000D02*
X54666079Y-90957556D01*
X54666079Y-90957556D02*
X54643308Y-90957556D01*
X54643308Y-90957556D02*
X52616333Y-92984531D01*
X59573635Y-86050000D02*
X58323635Y-87300000D01*
X71200000Y-86050000D02*
X59573635Y-86050000D01*
X71200000Y-86050000D02*
X72128580Y-86978580D01*
X72128580Y-87307620D02*
X72128580Y-86978580D01*
X56286600Y-141828240D02*
X56286600Y-143116020D01*
X58804659Y-131395342D02*
X58804659Y-142094079D01*
X58804659Y-142094079D02*
X58826600Y-142116020D01*
X72128580Y-89847620D02*
X72128580Y-89778580D01*
X72128580Y-89778580D02*
X70900000Y-88550000D01*
X70900000Y-88550000D02*
X58079443Y-88550000D01*
X58079443Y-88550000D02*
X56789448Y-89839995D01*
X57239166Y-129829847D02*
X57239166Y-129342212D01*
X58826600Y-131417283D02*
X58804659Y-131395342D01*
X58804659Y-131395342D02*
X57239166Y-129829847D01*
X57239166Y-129342212D02*
X53327555Y-125430602D01*
X53327555Y-125430602D02*
X53327555Y-93279127D01*
X54937904Y-91668778D02*
X54960675Y-91668778D01*
X53327555Y-93279127D02*
X54937904Y-91668778D01*
X54960675Y-91668778D02*
X56789453Y-89840000D01*
X58800000Y-144800000D02*
X58826600Y-144826600D01*
X58826600Y-144826600D02*
X58826600Y-144843980D01*
X60096600Y-142116020D02*
X60096600Y-132184374D01*
X55107973Y-92024389D02*
X56022357Y-91110005D01*
X55107973Y-92024389D02*
X55085202Y-92024389D01*
X55085202Y-92024389D02*
X53683166Y-93426425D01*
X53683166Y-93426425D02*
X53683166Y-125283304D01*
X53683166Y-125283304D02*
X57594777Y-129194914D01*
X57594777Y-129194914D02*
X57594777Y-129682549D01*
X57594777Y-129682549D02*
X60096600Y-132184374D01*
X58400000Y-89250000D02*
X57882352Y-89250000D01*
X57882352Y-89250000D02*
X56022357Y-91109995D01*
X56022362Y-91110000D02*
X56022357Y-91109995D01*
X56022362Y-91110000D02*
X56022357Y-91110005D01*
X60096600Y-143116020D02*
X60096600Y-141828240D01*
X56022357Y-91109995D02*
X56022357Y-91110005D01*
X58350000Y-89350000D02*
X58350000Y-89300000D01*
X58400000Y-89250000D02*
X58350000Y-89300000D01*
X60100000Y-144800000D02*
X60096600Y-144803400D01*
X60096600Y-144803400D02*
X60096600Y-144843980D01*
X64475560Y-89840000D02*
X64483180Y-89847620D01*
X61357567Y-132942432D02*
X61357567Y-142106987D01*
X61357567Y-142106987D02*
X61366600Y-142116020D01*
X72128580Y-92387620D02*
X72128580Y-92178580D01*
X72128580Y-92178580D02*
X71050000Y-91100000D01*
X71050000Y-91100000D02*
X56535260Y-91100000D01*
X56535260Y-91100000D02*
X55255265Y-92379995D01*
X55255265Y-92379995D02*
X55232495Y-92379995D01*
X55232495Y-92379995D02*
X55232495Y-92380005D01*
X61366600Y-141828240D02*
X61366600Y-143116020D01*
X54038777Y-93573723D02*
X54038777Y-125136006D01*
X55232500Y-92380000D02*
X55232495Y-92380005D01*
X55232495Y-92380005D02*
X54038777Y-93573723D01*
X57950388Y-129535251D02*
X61357567Y-132942432D01*
X61357567Y-132942432D02*
X61366600Y-132951465D01*
X54038777Y-125136006D02*
X57950388Y-129047616D01*
X57950388Y-129047616D02*
X57950388Y-129535251D01*
X69588580Y-92388580D02*
X69600000Y-92400000D01*
X61300000Y-144700000D02*
X61366600Y-144766600D01*
X61366600Y-144766600D02*
X61366600Y-144843980D01*
X69588580Y-92388580D02*
X69588580Y-92387620D01*
X62636600Y-142116020D02*
X62636600Y-133718556D01*
X54394388Y-93755612D02*
X56350000Y-91800000D01*
X56350000Y-91800000D02*
X56850000Y-91800000D01*
X54394388Y-95059612D02*
X54394388Y-124988708D01*
X54394388Y-124988708D02*
X58305999Y-128900318D01*
X58305999Y-128900318D02*
X58305999Y-129387953D01*
X58305999Y-129387953D02*
X62636600Y-133718556D01*
X54394388Y-95059612D02*
X54394388Y-93755612D01*
X62636600Y-143116020D02*
X62636600Y-141828240D01*
X56850000Y-91850000D02*
X56850000Y-91800000D01*
X62600000Y-144800000D02*
X62636600Y-144836600D01*
X62636600Y-144836600D02*
X62636600Y-144843980D01*
X63906600Y-142116020D02*
X63906600Y-134455100D01*
X54887887Y-124979298D02*
X54887887Y-98757113D01*
X58661610Y-128753020D02*
X54887887Y-124979298D01*
X58661610Y-129210109D02*
X58661610Y-128753020D01*
X63906600Y-134455100D02*
X58661610Y-129210109D01*
X54887887Y-96462103D02*
X54887887Y-98757113D01*
X57749990Y-93600000D02*
X54887887Y-96462103D01*
X70750000Y-93600000D02*
X57749990Y-93600000D01*
X70750000Y-93600000D02*
X72077620Y-94927620D01*
X72128580Y-94927620D02*
X72077620Y-94927620D01*
X69588580Y-94938580D02*
X69600000Y-94950000D01*
X63900000Y-144900000D02*
X63906600Y-144893400D01*
X63906600Y-144893400D02*
X63906600Y-144843980D01*
X69588580Y-94938580D02*
X69588580Y-94927620D01*
X55290210Y-124878712D02*
X59017221Y-128605722D01*
X55290210Y-101926063D02*
X55290210Y-124878712D01*
X59017221Y-128605722D02*
X59017221Y-129062812D01*
X59017221Y-129062812D02*
X65163889Y-135209481D01*
X55290210Y-97009790D02*
X55290210Y-101926063D01*
X58050000Y-94250000D02*
X55290210Y-97009790D01*
X65163889Y-142103309D02*
X65163889Y-135209481D01*
X65163889Y-142103309D02*
X65176600Y-142116020D01*
X65176600Y-143116020D02*
X65176600Y-141828240D01*
X65100000Y-144800000D02*
X65143980Y-144843980D01*
X65143980Y-144843980D02*
X65176600Y-144843980D01*
X66446600Y-142116020D02*
X66446600Y-135989283D01*
X59372832Y-128915515D02*
X66446600Y-135989283D01*
X55645821Y-124731413D02*
X55645821Y-102073361D01*
X55645821Y-124731413D02*
X59372832Y-128458424D01*
X59372832Y-128458424D02*
X59372832Y-128915515D01*
X72128580Y-97467620D02*
X72017620Y-97467620D01*
X72017620Y-97467620D02*
X70700000Y-96150000D01*
X70700000Y-96150000D02*
X57495812Y-96150000D01*
X57495812Y-96150000D02*
X55645812Y-98000000D01*
X55645812Y-98000000D02*
X55645812Y-102073361D01*
X55645812Y-102073361D02*
X55645821Y-102073361D01*
X66446600Y-141828240D02*
X66446600Y-143116020D01*
X55645821Y-102073361D02*
X55645821Y-102073361D01*
X59728443Y-128311126D02*
X59728443Y-128768217D01*
X56003079Y-124585762D02*
X59728443Y-128311126D01*
X56003079Y-102219012D02*
X56003079Y-124585762D01*
X59728443Y-128768217D02*
X67716600Y-136756374D01*
X56003079Y-98596921D02*
X56003079Y-102219012D01*
X57750000Y-96850000D02*
X56003079Y-98596921D01*
X67716600Y-142116020D02*
X67716600Y-136756374D01*
X67716600Y-143116020D02*
X67716600Y-141828240D01*
X67716600Y-144716600D02*
X67700000Y-144700000D01*
X67716600Y-144716600D02*
X67716600Y-144843980D01*
X68986600Y-142116020D02*
X68986600Y-137523465D01*
X60084054Y-128163828D02*
X60084054Y-128620919D01*
X60084054Y-128620919D02*
X68986600Y-137523465D01*
X56392230Y-124472004D02*
X60084054Y-128163828D01*
X56392230Y-102332770D02*
X56392230Y-124472004D01*
X56392230Y-99907770D02*
X56392230Y-102332770D01*
X57600000Y-98700000D02*
X56392230Y-99907770D01*
X70600000Y-98700000D02*
X57600000Y-98700000D01*
X70600000Y-98700000D02*
X71907620Y-100007620D01*
X72128580Y-100007620D02*
X71907620Y-100007620D01*
X68986600Y-141828240D02*
X68986600Y-143116020D01*
X57800000Y-99450000D02*
X56747832Y-100502168D01*
X56747832Y-100502168D02*
X56747832Y-103749070D01*
X56748838Y-103749070D02*
X56747832Y-103749070D01*
X70256600Y-142116020D02*
X70256600Y-138265100D01*
X56748838Y-124325703D02*
X60439665Y-128016530D01*
X56748838Y-124325703D02*
X56748838Y-103749070D01*
X60439665Y-128016530D02*
X60439665Y-128448165D01*
X60439665Y-128448165D02*
X70256600Y-138265100D01*
X70256600Y-141828240D02*
X70256600Y-143116020D01*
X56748838Y-103749070D02*
X56748838Y-103749070D01*
X71526600Y-142116020D02*
X71526600Y-139032192D01*
X57121716Y-124195672D02*
X60795276Y-127869232D01*
X57121716Y-104778284D02*
X57121716Y-124195672D01*
X60795276Y-127869232D02*
X60795276Y-128300867D01*
X60795276Y-128300867D02*
X71526600Y-139032192D01*
X57121716Y-102578284D02*
X57121716Y-104778284D01*
X58400000Y-101300000D02*
X57121716Y-102578284D01*
X70750000Y-101300000D02*
X58400000Y-101300000D01*
X70750000Y-101300000D02*
X71997620Y-102547620D01*
X72128580Y-102547620D02*
X71997620Y-102547620D01*
X71526600Y-141828240D02*
X71526600Y-143116020D01*
X57494593Y-105675407D02*
X57494593Y-103155407D01*
X57494593Y-103155407D02*
X58650000Y-102000000D01*
X57494593Y-105675407D02*
X57494593Y-124065640D01*
X61150887Y-128153569D02*
X72796600Y-139799283D01*
X57494593Y-124065640D02*
X61150887Y-127721934D01*
X61150887Y-127721934D02*
X61150887Y-128153569D01*
X72796600Y-142116020D02*
X72796600Y-139799283D01*
X72796600Y-141828240D02*
X72796600Y-143116020D01*
X74050113Y-140549887D02*
X74050113Y-142099533D01*
X74050113Y-142099533D02*
X74066600Y-142116020D01*
X72128580Y-105087620D02*
X72037620Y-105087620D01*
X72037620Y-105087620D02*
X70800000Y-103850000D01*
X70800000Y-103850000D02*
X58750000Y-103850000D01*
X58750000Y-103850000D02*
X57850195Y-104749805D01*
X57850195Y-104749805D02*
X57850195Y-106578721D01*
X57850195Y-106578721D02*
X57861279Y-106578721D01*
X61506498Y-128006271D02*
X74050113Y-140549887D01*
X74050113Y-140549887D02*
X74066600Y-140566374D01*
X74066600Y-141828240D02*
X74066600Y-143116020D01*
X57861279Y-106578721D02*
X57861279Y-106578721D01*
X57861279Y-106578721D02*
X57861279Y-123929417D01*
X61506498Y-127574636D02*
X61506498Y-128006271D01*
X57861279Y-123929417D02*
X61506498Y-127574636D01*
X59400000Y-104500000D02*
X58216881Y-105683119D01*
X58216881Y-105683119D02*
X58216881Y-108763110D01*
X58216890Y-108763110D02*
X58216881Y-108763110D01*
X75336600Y-142116020D02*
X75336600Y-141333475D01*
X75336600Y-141333475D02*
X61862103Y-127858978D01*
X61862103Y-127858978D02*
X61862109Y-127858978D01*
X75336600Y-141828240D02*
X75336600Y-143116020D01*
X58216890Y-123782119D02*
X61862109Y-127427338D01*
X58216890Y-108763110D02*
X58216890Y-108763110D01*
X58216890Y-108763110D02*
X58216890Y-123782119D01*
X61862109Y-127427338D02*
X61862109Y-127858978D01*
X61862109Y-127858978D02*
X61862109Y-127858973D01*
X75336600Y-141333465D02*
X75336600Y-141828240D01*
X143700667Y-129657106D02*
X143700667Y-134096894D01*
X135514240Y-84818420D02*
X140083776Y-84823500D01*
X144983400Y-141828240D02*
X144983400Y-143116020D01*
X143700667Y-134096894D02*
X144983400Y-135379627D01*
X144983400Y-135379627D02*
X144983400Y-141828240D01*
X147752275Y-119368050D02*
X147752275Y-125605500D01*
X147701475Y-92441199D02*
X147701475Y-119317250D01*
X147701475Y-119317250D02*
X147752275Y-119368050D01*
X147752275Y-125605500D02*
X143700667Y-129657106D01*
X140083776Y-84823500D02*
X147701475Y-92441199D01*
X130429200Y-84765080D02*
X130429200Y-84744760D01*
X130429200Y-84744760D02*
X131810960Y-83363000D01*
X148107886Y-119220752D02*
X148107886Y-125752798D01*
X131810960Y-83363000D02*
X139126184Y-83363000D01*
X139126184Y-83363000D02*
X148057086Y-92293902D01*
X146253400Y-136146718D02*
X146253400Y-141828240D01*
X148057086Y-92293902D02*
X148057086Y-119169952D01*
X144056278Y-133949596D02*
X146253400Y-136146718D01*
X148057086Y-119169952D02*
X148107886Y-119220752D01*
X148107886Y-125752798D02*
X144056278Y-129804404D01*
X144056278Y-129804404D02*
X144056278Y-133949596D01*
X146253400Y-141828240D02*
X146253400Y-143116020D01*
X147523400Y-141828240D02*
X147523400Y-143116020D01*
X148463497Y-119073454D02*
X148463497Y-125900095D01*
X147523400Y-136913808D02*
X147523400Y-141828240D01*
X144411889Y-133802298D02*
X147523400Y-136913808D01*
X144411889Y-129951702D02*
X144411889Y-133802298D01*
X148463497Y-125900095D02*
X144411889Y-129951702D01*
X138549592Y-82283500D02*
X148412697Y-92146605D01*
X135450740Y-82278420D02*
X138549592Y-82283500D01*
X148412697Y-119022654D02*
X148463497Y-119073454D01*
X148412697Y-92146605D02*
X148412697Y-119022654D01*
X130368200Y-82225080D02*
X130378400Y-82225080D01*
X130378400Y-82225080D02*
X131780480Y-80823000D01*
X131780480Y-80823000D02*
X137592000Y-80823000D01*
X148793400Y-137680900D02*
X148793400Y-143116020D01*
X137592000Y-80823000D02*
X148793400Y-92024400D01*
X148793400Y-92024400D02*
X148793400Y-118900448D01*
X148793400Y-118900448D02*
X148819108Y-118926156D01*
X148819108Y-118926156D02*
X148819108Y-126047392D01*
X148819108Y-126047392D02*
X144767500Y-130099000D01*
X144767500Y-130099000D02*
X144767500Y-133655000D01*
X144767500Y-133655000D02*
X148793400Y-137680900D01*
X136100000Y-144800000D02*
X136093400Y-144806600D01*
X136093400Y-144806600D02*
X136093400Y-144843980D01*
X136093400Y-142116020D02*
X136093400Y-133744002D01*
X141211386Y-128626016D02*
X141211386Y-128626024D01*
X136093400Y-133744002D02*
X141211386Y-128626016D01*
X130431700Y-94988580D02*
X130431740Y-94988580D01*
X130431740Y-94988580D02*
X131884820Y-93535500D01*
X131884820Y-93535500D02*
X141929815Y-93535500D01*
X141929815Y-93535500D02*
X145212198Y-96817883D01*
X145212198Y-96817883D02*
X145212198Y-124625214D01*
X145212198Y-124625214D02*
X141211386Y-128626024D01*
X141211386Y-128626024D02*
X141211390Y-128626020D01*
X136093400Y-141828240D02*
X136093400Y-143116020D01*
X134823400Y-144876600D02*
X134800000Y-144900000D01*
X134823400Y-144876600D02*
X134823400Y-144843980D01*
X134823400Y-142116020D02*
X134823400Y-134511103D01*
X134823400Y-134511103D02*
X144856587Y-124477916D01*
X144856587Y-124477916D02*
X140855779Y-128478722D01*
X144856587Y-96965181D02*
X144856587Y-124477916D01*
X142811406Y-94920000D02*
X144856587Y-96965181D01*
X135450740Y-94914920D02*
X142811406Y-94920000D01*
X134823400Y-141828240D02*
X134823400Y-143116020D01*
X133553400Y-142116020D02*
X133553400Y-135278184D01*
X140500164Y-128331420D02*
X140500164Y-128331428D01*
X133553400Y-135278184D02*
X140500164Y-128331420D01*
X130431700Y-97465080D02*
X130431700Y-97462580D01*
X144500976Y-124330618D02*
X140500164Y-128331428D01*
X140500164Y-128331428D02*
X140500168Y-128331424D01*
X130431700Y-97462580D02*
X131831280Y-96063000D01*
X131831280Y-96063000D02*
X141173401Y-96063000D01*
X144500976Y-99390575D02*
X144500976Y-124330618D01*
X141173401Y-96063000D02*
X144500976Y-99390575D01*
X133553400Y-141828240D02*
X133553400Y-143116020D01*
X132283400Y-142116020D02*
X132283400Y-136045285D01*
X132283400Y-136045285D02*
X144145365Y-124183320D01*
X132283400Y-141828240D02*
X132283400Y-143116020D01*
X144145365Y-99537873D02*
X144145365Y-124183320D01*
X144145365Y-124183320D02*
X140144557Y-128184126D01*
X142067492Y-97460000D02*
X144145365Y-99537873D01*
X135450740Y-97454920D02*
X142067492Y-97460000D01*
X131000000Y-144900000D02*
X131013400Y-144886600D01*
X131013400Y-144886600D02*
X131013400Y-144843980D01*
X131013400Y-142116020D02*
X131013400Y-136812385D01*
X143789759Y-124036028D02*
X143789759Y-124036017D01*
X143789757Y-124036028D02*
X143789759Y-124036028D01*
X131013400Y-136812385D02*
X143789757Y-124036028D01*
X130431700Y-100005080D02*
X130434280Y-100005080D01*
X130434280Y-100005080D02*
X131823860Y-98615500D01*
X131823860Y-98615500D02*
X140507371Y-98615500D01*
X140507371Y-98615500D02*
X143789754Y-101897883D01*
X143789754Y-124036022D02*
X143789759Y-124036017D01*
X143789759Y-124036017D02*
X139788946Y-128036828D01*
X143789754Y-101897883D02*
X143789754Y-124036022D01*
X131013400Y-141828240D02*
X131013400Y-143116020D01*
X143713400Y-143116020D02*
X143713400Y-134612535D01*
X143713400Y-134612535D02*
X143345056Y-134244192D01*
X143345056Y-134244192D02*
X143345056Y-129509808D01*
X143345056Y-129509808D02*
X147396664Y-125458202D01*
X147396664Y-125458202D02*
X147396664Y-119515348D01*
X147396664Y-119515348D02*
X147345864Y-119464548D01*
X147345864Y-119464548D02*
X147345864Y-92588496D01*
X131887160Y-85903000D02*
X130431700Y-87358460D01*
X147345864Y-92588496D02*
X140660368Y-85903000D01*
X140660368Y-85903000D02*
X131887160Y-85903000D01*
X130431700Y-87358460D02*
X130431700Y-87368580D01*
X124663400Y-142116020D02*
X124663400Y-140647820D01*
X138010891Y-127300330D02*
X138010891Y-127300338D01*
X138010887Y-127300334D02*
X138010891Y-127300330D01*
X138010886Y-127300334D02*
X138010887Y-127300334D01*
X124663400Y-140647820D02*
X138010886Y-127300334D01*
X124663400Y-141828240D02*
X124663400Y-143116020D01*
X142011699Y-123299532D02*
X138010891Y-127300338D01*
X138010891Y-127300338D02*
X138010891Y-127300338D01*
X142011699Y-107175893D02*
X142011699Y-123299532D01*
X139915806Y-105080000D02*
X142011699Y-107175893D01*
X135450740Y-105074920D02*
X139915806Y-105080000D01*
X124663400Y-141478200D02*
X124663400Y-141828240D01*
X125933400Y-142116020D02*
X125933400Y-139880740D01*
X125933400Y-139880740D02*
X142367310Y-123446830D01*
X130431700Y-105085080D02*
X130431700Y-105064800D01*
X130431700Y-105064800D02*
X131801000Y-103695500D01*
X131801000Y-103695500D02*
X139166600Y-103695500D01*
X139166600Y-103695500D02*
X142367310Y-106896210D01*
X142367310Y-106896210D02*
X142367310Y-123446830D01*
X142367310Y-123446830D02*
X138366502Y-127447636D01*
X125933400Y-142374340D02*
X125933400Y-143116020D01*
X127203400Y-142116020D02*
X127203400Y-139113647D01*
X140320430Y-102540000D02*
X135450740Y-102534920D01*
X142722921Y-123594128D02*
X138722113Y-127594934D01*
X142722921Y-104942491D02*
X142722921Y-123594128D01*
X140320430Y-102540000D02*
X142722921Y-104942491D01*
X127203400Y-139113647D02*
X138722113Y-127594934D01*
X127203400Y-141472999D02*
X127203400Y-141828240D01*
X127203400Y-141828240D02*
X127203400Y-143116020D01*
X128473400Y-142116020D02*
X128473400Y-138346545D01*
X139077719Y-127742226D02*
X139077719Y-127742237D01*
X128473400Y-138346545D02*
X139077719Y-127742226D01*
X130431700Y-102608580D02*
X130431700Y-102583220D01*
X130431700Y-102583220D02*
X131859420Y-101155500D01*
X131859420Y-101155500D02*
X139438839Y-101155500D01*
X139438839Y-101155500D02*
X143078532Y-104795193D01*
X143078532Y-104795193D02*
X143078532Y-123741426D01*
X143078532Y-123741426D02*
X139077719Y-127742237D01*
X139077719Y-127742237D02*
X139077724Y-127742232D01*
X128473400Y-141828240D02*
X128473400Y-143116020D01*
X129743400Y-142116020D02*
X129743400Y-137579465D01*
X141388962Y-100000000D02*
X143434143Y-102045181D01*
X143434143Y-123888724D02*
X139433335Y-127889530D01*
X143434143Y-102045181D02*
X143434143Y-123888724D01*
X141388962Y-100000000D02*
X135514240Y-99994920D01*
X129743400Y-137579465D02*
X139433335Y-127889530D01*
X129743400Y-141828240D02*
X129743400Y-143116020D01*
X137363400Y-142116020D02*
X137363400Y-132976919D01*
X145567809Y-124772512D02*
X141567001Y-128773318D01*
X143586128Y-92443500D02*
X135450740Y-92438420D01*
X143586128Y-92443500D02*
X145567809Y-94425181D01*
X145567809Y-94425181D02*
X145567809Y-124772512D01*
X137363400Y-132976919D02*
X141567001Y-128773318D01*
X137363400Y-141828240D02*
X137363400Y-143116020D01*
X138633400Y-142116020D02*
X138633400Y-132209828D01*
X145923420Y-124919810D02*
X141922612Y-128920616D01*
X145923420Y-94277883D02*
X145923420Y-124919810D01*
X142641037Y-90995500D02*
X145923420Y-94277883D01*
X131864500Y-90995500D02*
X142641037Y-90995500D01*
X131864500Y-90995500D02*
X130480000Y-92380000D01*
X138633400Y-132209828D02*
X141922612Y-128920616D01*
X130431700Y-92448580D02*
X130454560Y-92425720D01*
X130454560Y-92425720D02*
X130459680Y-92425720D01*
X130459680Y-92425720D02*
X130480000Y-92405400D01*
X130480000Y-92405400D02*
X130480000Y-92380000D01*
X138633400Y-141828240D02*
X138633400Y-143116020D01*
X139903400Y-142116020D02*
X139903400Y-131442726D01*
X142273063Y-129073063D02*
X142273063Y-129073074D01*
X139903400Y-131442726D02*
X142273063Y-129073063D01*
X146279031Y-125067106D02*
X142273063Y-129073074D01*
X142273063Y-129073074D02*
X142278223Y-129067914D01*
X139903400Y-141828240D02*
X139903400Y-143116020D01*
X146279031Y-93030387D02*
X146279031Y-125067106D01*
X135450740Y-89834920D02*
X143088644Y-89840000D01*
X143088644Y-89840000D02*
X146279031Y-93030387D01*
X141173400Y-142116020D02*
X141173400Y-130675636D01*
X142633829Y-129215207D02*
X142633829Y-129215217D01*
X141173400Y-130675636D02*
X142633829Y-129215207D01*
X130431700Y-89845080D02*
X130431700Y-89837500D01*
X146634642Y-119759144D02*
X146685442Y-119809944D01*
X130431700Y-89837500D02*
X131813700Y-88455500D01*
X131813700Y-88455500D02*
X142207052Y-88455500D01*
X142207052Y-88455500D02*
X146634642Y-92883090D01*
X146634642Y-92883090D02*
X146634642Y-119759144D01*
X146685442Y-119809944D02*
X146685442Y-125163606D01*
X141173400Y-141828240D02*
X141173400Y-143116020D01*
X146685442Y-125163606D02*
X142633829Y-129215217D01*
X142633829Y-129215217D02*
X142633834Y-129215212D01*
X142443400Y-142116020D02*
X142443400Y-129908555D01*
X141554460Y-87300000D02*
X135450740Y-87294920D01*
X147041053Y-119662646D02*
X147041053Y-125310904D01*
X146990253Y-92735793D02*
X146990253Y-119611846D01*
X146990253Y-119611846D02*
X147041053Y-119662646D01*
X141554460Y-87300000D02*
X146990253Y-92735793D01*
X147041053Y-125310904D02*
X142989445Y-129362510D01*
X142443400Y-129908555D02*
X142989445Y-129362510D01*
X142443400Y-141828240D02*
X142443400Y-143116020D01*
X96200000Y-144800000D02*
X96190000Y-144810000D01*
X96190000Y-144810000D02*
X96190000Y-144843980D01*
X62700000Y-117950000D02*
X61900000Y-118750000D01*
X61900000Y-118750000D02*
X61900000Y-120002500D01*
X74033249Y-134569389D02*
X61900000Y-122436140D01*
X61900000Y-122436140D02*
X61900000Y-120002500D01*
X88900000Y-134569389D02*
X74033249Y-134569389D01*
X88900000Y-134569389D02*
X90069389Y-134569389D01*
X96190000Y-140690000D02*
X96190000Y-142116020D01*
X90069389Y-134569389D02*
X96190000Y-140690000D01*
X88931149Y-134569389D02*
X88900000Y-134569389D01*
X94900000Y-144900000D02*
X94920000Y-144880000D01*
X94920000Y-144880000D02*
X94920000Y-144843980D01*
X88280363Y-134925000D02*
X88925000Y-134925000D01*
X73885952Y-134925000D02*
X88280363Y-134925000D01*
X61417389Y-122456437D02*
X73885952Y-134925000D01*
X61417389Y-119405611D02*
X61417389Y-122456437D01*
X94920000Y-140920000D02*
X94920000Y-142116020D01*
X88925000Y-134925000D02*
X94920000Y-140920000D01*
X72128580Y-117787620D02*
X71937620Y-117787620D01*
X71937620Y-117787620D02*
X70700000Y-116550000D01*
X70700000Y-116550000D02*
X62900000Y-116550000D01*
X62900000Y-116550000D02*
X61450000Y-118000000D01*
X61450000Y-118000000D02*
X61450000Y-119372991D01*
X61450000Y-119372991D02*
X61417380Y-119405611D01*
X61417380Y-119405611D02*
X61417389Y-119405611D01*
X61417389Y-119405611D02*
X61417389Y-119405611D01*
X94920000Y-141564637D02*
X94920000Y-141828240D01*
X94920000Y-141828240D02*
X94920000Y-143116020D01*
X64497620Y-115247620D02*
X64500000Y-115250000D01*
X93700000Y-144900000D02*
X93650000Y-144850000D01*
X93650000Y-144850000D02*
X93650000Y-144843980D01*
X64497620Y-115247620D02*
X64483180Y-115247620D01*
X62000000Y-115400000D02*
X61061769Y-116338231D01*
X61061769Y-116338231D02*
X61061769Y-117480314D01*
X61061778Y-117480314D02*
X61061769Y-117480314D01*
X93650000Y-142116020D02*
X93650000Y-140797546D01*
X88183843Y-135331389D02*
X93650000Y-140797546D01*
X73789431Y-135331389D02*
X88183843Y-135331389D01*
X61061778Y-122603736D02*
X73789431Y-135331389D01*
X61061778Y-122603736D02*
X61061778Y-117480314D01*
X61061778Y-117480314D02*
X61061778Y-117480314D01*
X93650000Y-141828240D02*
X93650000Y-143116020D01*
X92400000Y-144900000D02*
X92380000Y-144880000D01*
X92380000Y-144880000D02*
X92380000Y-144843980D01*
X92380000Y-142116020D02*
X92380000Y-140030455D01*
X73642134Y-135687000D02*
X88036545Y-135687000D01*
X88036545Y-135687000D02*
X92380000Y-140030455D01*
X60706167Y-122751033D02*
X60706167Y-116631292D01*
X60706167Y-122751033D02*
X73642134Y-135687000D01*
X72128580Y-115247620D02*
X72128580Y-115228580D01*
X72128580Y-115228580D02*
X70800000Y-113900000D01*
X70800000Y-113900000D02*
X61700000Y-113900000D01*
X61700000Y-113900000D02*
X60706158Y-114893842D01*
X60706158Y-114893842D02*
X60706158Y-116631292D01*
X60706158Y-116631292D02*
X60706167Y-116631292D01*
X60706167Y-116631292D02*
X60706167Y-116631292D01*
X92380000Y-141828240D02*
X92380000Y-143116020D01*
X64457620Y-112707620D02*
X64450000Y-112700000D01*
X91100000Y-144900000D02*
X91110000Y-144890000D01*
X91110000Y-144890000D02*
X91110000Y-144843980D01*
X64457620Y-112707620D02*
X64483180Y-112707620D01*
X61250000Y-112450000D02*
X60350547Y-113349453D01*
X60350547Y-113349453D02*
X60350547Y-116483994D01*
X60350556Y-116483994D02*
X60350547Y-116483994D01*
X91110000Y-142116020D02*
X91110000Y-139263364D01*
X87889247Y-136042611D02*
X91110000Y-139263364D01*
X60350556Y-122898332D02*
X73494835Y-136042611D01*
X60350556Y-122898332D02*
X60350556Y-116483994D01*
X73494835Y-136042611D02*
X87889247Y-136042611D01*
X60350556Y-116483994D02*
X60350556Y-116483994D01*
X91110000Y-141828240D02*
X91110000Y-143116020D01*
X108890000Y-142116020D02*
X108890000Y-140510000D01*
X113750000Y-135650000D02*
X108890000Y-140510000D01*
X129158322Y-135650000D02*
X113750000Y-135650000D01*
X141656088Y-123152234D02*
X129158322Y-135650000D01*
X141656088Y-109065370D02*
X141656088Y-123152234D01*
X131750000Y-106223000D02*
X138813718Y-106223000D01*
X138813718Y-106223000D02*
X141656088Y-109065370D01*
X131750000Y-106223000D02*
X130431700Y-107541300D01*
X130431700Y-107561580D02*
X130431700Y-107541300D01*
X113500000Y-135250000D02*
X112950000Y-135250000D01*
X107620000Y-140580000D02*
X107620000Y-142116020D01*
X112950000Y-135250000D02*
X107620000Y-140580000D01*
X107620000Y-141089591D02*
X107620000Y-141828240D01*
X129055413Y-135250000D02*
X113500000Y-135250000D01*
X113500000Y-135250000D02*
X113459591Y-135250000D01*
X141300477Y-123004936D02*
X129055413Y-135250000D01*
X141300477Y-109466668D02*
X141300477Y-123004936D01*
X139455398Y-107621589D02*
X141300477Y-109466668D01*
X135450740Y-107614920D02*
X139455398Y-107621589D01*
X113328240Y-134850000D02*
X112150000Y-134850000D01*
X140944866Y-111137966D02*
X140944866Y-122857638D01*
X138569900Y-108763000D02*
X140944866Y-111137966D01*
X131877000Y-108763000D02*
X138569900Y-108763000D01*
X130474920Y-110165080D02*
X131877000Y-108763000D01*
X128952504Y-134850000D02*
X113328240Y-134850000D01*
X140944866Y-122857638D02*
X128952504Y-134850000D01*
X106350000Y-140650000D02*
X106350000Y-142116020D01*
X112150000Y-134850000D02*
X106350000Y-140650000D01*
X130431700Y-110165080D02*
X130474920Y-110165080D01*
X113029340Y-134425000D02*
X111375000Y-134425000D01*
X128874595Y-134425000D02*
X113029340Y-134425000D01*
X139018772Y-110163043D02*
X140589255Y-111733526D01*
X140589255Y-122710340D02*
X128874595Y-134425000D01*
X140589255Y-111733526D02*
X140589255Y-122710340D01*
X135450740Y-110154920D02*
X139018772Y-110163043D01*
X105080000Y-140720000D02*
X105080000Y-142116020D01*
X111375000Y-134425000D02*
X105080000Y-140720000D01*
X112134340Y-134050000D02*
X110050000Y-134050000D01*
X128746686Y-134050000D02*
X112134340Y-134050000D01*
X140233644Y-122563042D02*
X128746686Y-134050000D01*
X140233644Y-113505235D02*
X140233644Y-122563042D01*
X140132044Y-113403635D02*
X140233644Y-113505235D01*
X140132044Y-113360444D02*
X140132044Y-113403635D01*
X131813500Y-111303000D02*
X138074600Y-111303000D01*
X130431700Y-112684800D02*
X131813500Y-111303000D01*
X138074600Y-111303000D02*
X140132044Y-113360444D01*
X103810000Y-140290000D02*
X103810000Y-142116020D01*
X110050000Y-134050000D02*
X103810000Y-140290000D01*
X130431700Y-112705080D02*
X130431700Y-112684800D01*
X62217720Y-127700000D02*
X62217720Y-127711697D01*
X84760000Y-140260000D02*
X84760000Y-142116020D01*
X82320657Y-137820657D02*
X84760000Y-140260000D01*
X72326680Y-137820657D02*
X82320657Y-137820657D01*
X62217720Y-127711697D02*
X72326680Y-137820657D01*
X72128580Y-107627620D02*
X71877620Y-107627620D01*
X71877620Y-107627620D02*
X70600000Y-106350000D01*
X70600000Y-106350000D02*
X59400000Y-106350000D01*
X59400000Y-106350000D02*
X58572492Y-107177508D01*
X58572492Y-107177508D02*
X58572492Y-109042499D01*
X58572492Y-109042499D02*
X58572501Y-109042499D01*
X62217720Y-127280040D02*
X62217720Y-127700000D01*
X62217720Y-127700000D02*
X62217720Y-127711675D01*
X58572501Y-123634821D02*
X62217720Y-127280040D01*
X58572501Y-109042499D02*
X58572501Y-109042499D01*
X58572501Y-109042499D02*
X58572501Y-123634821D01*
X84800000Y-144800000D02*
X84760000Y-144840000D01*
X84760000Y-144840000D02*
X84760000Y-144843980D01*
X69600000Y-107650000D02*
X69588580Y-107638580D01*
X69588580Y-107638580D02*
X69588580Y-107627620D01*
X58928103Y-108721897D02*
X58928103Y-110591888D01*
X59650000Y-108000000D02*
X58928103Y-108721897D01*
X58928112Y-110591888D02*
X58928103Y-110591888D01*
X86024500Y-138475500D02*
X86024500Y-142110520D01*
X86024500Y-142110520D02*
X86030000Y-142116020D01*
X72905643Y-137465055D02*
X85014055Y-137465055D01*
X58928112Y-110591888D02*
X58928112Y-110591888D01*
X58928112Y-110591888D02*
X58928112Y-123487524D01*
X58928112Y-123487524D02*
X72905643Y-137465055D01*
X85014055Y-137465055D02*
X86024500Y-138475500D01*
X86024500Y-138475500D02*
X86030000Y-138481000D01*
X86030000Y-141828240D02*
X86030000Y-143116020D01*
X86100000Y-144800000D02*
X86056020Y-144843980D01*
X86056020Y-144843980D02*
X86030000Y-144843980D01*
X86030000Y-145830000D02*
X86030000Y-145843980D01*
X87273000Y-138327000D02*
X87273000Y-142089020D01*
X87273000Y-142089020D02*
X87300000Y-142116020D01*
X72128580Y-110167620D02*
X72128580Y-110128580D01*
X72128580Y-110128580D02*
X70900000Y-108900000D01*
X70900000Y-108900000D02*
X60683705Y-108900000D01*
X60683705Y-108900000D02*
X59283714Y-110299991D01*
X59283714Y-110299991D02*
X59283714Y-111506277D01*
X59283714Y-111506277D02*
X59283723Y-111506277D01*
X59283723Y-111506277D02*
X59283723Y-111506277D01*
X59283723Y-111506277D02*
X59283723Y-123340225D01*
X86055444Y-137109444D02*
X87273000Y-138327000D01*
X87273000Y-138327000D02*
X87300000Y-138354000D01*
X87300000Y-141828240D02*
X87300000Y-143116020D01*
X73052942Y-137109444D02*
X86055444Y-137109444D01*
X59283723Y-123340225D02*
X73052942Y-137109444D01*
X87300000Y-144800000D02*
X87300000Y-144843980D01*
X87300000Y-145775000D02*
X87300000Y-145843980D01*
X60400000Y-110200000D02*
X59639325Y-110960675D01*
X59639325Y-110960675D02*
X59639325Y-113055666D01*
X59639334Y-113055666D02*
X59639325Y-113055666D01*
X88570000Y-142116020D02*
X88570000Y-138481000D01*
X86842833Y-136753833D02*
X88570000Y-138481000D01*
X59639334Y-123192928D02*
X73200239Y-136753833D01*
X59639334Y-123192928D02*
X59639334Y-113055666D01*
X73200239Y-136753833D02*
X86842833Y-136753833D01*
X59639334Y-113055666D02*
X59639334Y-113055666D01*
X88570000Y-141828240D02*
X88570000Y-143116020D01*
X88600000Y-144800000D02*
X88570000Y-144830000D01*
X88570000Y-144830000D02*
X88570000Y-144843980D01*
X88570000Y-145770000D02*
X88570000Y-145843980D01*
X89840000Y-142116020D02*
X89840000Y-138496273D01*
X87741949Y-136398222D02*
X89840000Y-138496273D01*
X73347538Y-136398222D02*
X87741949Y-136398222D01*
X59994945Y-123045629D02*
X73347538Y-136398222D01*
X59994945Y-123045629D02*
X59994945Y-115748055D01*
X72128580Y-112707620D02*
X72007620Y-112707620D01*
X72007620Y-112707620D02*
X70700000Y-111400000D01*
X70700000Y-111400000D02*
X60900000Y-111400000D01*
X60900000Y-111400000D02*
X59994936Y-112305064D01*
X59994936Y-112305064D02*
X59994936Y-115748055D01*
X59994936Y-115748055D02*
X59994945Y-115748055D01*
X59994945Y-115748055D02*
X59994945Y-115748055D01*
X89900000Y-144900000D02*
X89843980Y-144843980D01*
X89843980Y-144843980D02*
X89840000Y-144843980D01*
X89840000Y-145785000D02*
X89840000Y-145843980D01*
X97409200Y-142065220D02*
X97409200Y-140490800D01*
X138442889Y-118757889D02*
X137459920Y-117774920D01*
X138442889Y-121839252D02*
X138442889Y-118757889D01*
X128214541Y-132067600D02*
X138442889Y-121839252D01*
X105832400Y-132067600D02*
X128214541Y-132067600D01*
X97409200Y-140490800D02*
X105832400Y-132067600D01*
X137459920Y-117774920D02*
X135450740Y-117774920D01*
X97409200Y-142065220D02*
X97460000Y-142116020D01*
X98679200Y-142065220D02*
X98679200Y-140420800D01*
X128349158Y-132435892D02*
X106664108Y-132435892D01*
X138798500Y-121986550D02*
X128349158Y-132435892D01*
X138798500Y-117145000D02*
X138798500Y-121986550D01*
X106664108Y-132435892D02*
X98679200Y-140420800D01*
X138036500Y-116383000D02*
X138798500Y-117145000D01*
X131813500Y-116383000D02*
X138036500Y-116383000D01*
X131813500Y-116383000D02*
X130429200Y-117767300D01*
X98679200Y-142065220D02*
X98730000Y-142116020D01*
X130429200Y-117785080D02*
X130429200Y-117767300D01*
X131027540Y-117785080D02*
X131027540Y-117760740D01*
X100000000Y-142116020D02*
X100000000Y-140500000D01*
X138481000Y-115240000D02*
X139166811Y-115925811D01*
X139166811Y-122121148D02*
X128496456Y-132791503D01*
X107708497Y-132791503D02*
X100000000Y-140500000D01*
X139166811Y-115925811D02*
X139166811Y-122121148D01*
X128496456Y-132791503D02*
X107708497Y-132791503D01*
X138481000Y-115240000D02*
X135450740Y-115234920D01*
X101270000Y-142116020D02*
X101270000Y-140330000D01*
X108442066Y-133157934D02*
X110486406Y-133157934D01*
X101270000Y-140330000D02*
X108442066Y-133157934D01*
X128632934Y-133157934D02*
X110486406Y-133157934D01*
X130431700Y-115245080D02*
X130431700Y-115224800D01*
X131813500Y-113843000D02*
X138354000Y-113843000D01*
X130431700Y-115224800D02*
X131813500Y-113843000D01*
X138354000Y-113843000D02*
X139522422Y-115011422D01*
X139522422Y-115011422D02*
X139522422Y-122268446D01*
X139522422Y-122268446D02*
X128632934Y-133157934D01*
X102540000Y-142116020D02*
X102540000Y-140160000D01*
X128693777Y-133600000D02*
X111314340Y-133600000D01*
X139878033Y-122415744D02*
X128693777Y-133600000D01*
X139878033Y-113652533D02*
X139878033Y-122415744D01*
X138925500Y-112700000D02*
X139878033Y-113652533D01*
X138925500Y-112700000D02*
X135450740Y-112694920D01*
X109100000Y-133600000D02*
X111314340Y-133600000D01*
X102540000Y-140160000D02*
X109100000Y-133600000D01*
X115240000Y-142116020D02*
X115240000Y-137560000D01*
X115240000Y-137560000D02*
X115600000Y-137200000D01*
X73012500Y-122161500D02*
X74028500Y-121145500D01*
X64483180Y-120327620D02*
X66317060Y-122161500D01*
X66317060Y-122161500D02*
X73012500Y-122161500D01*
X65850610Y-77292390D02*
X64483180Y-78659820D01*
X74028500Y-78537000D02*
X72783890Y-77292390D01*
X72783890Y-77292390D02*
X65850610Y-77292390D01*
X74028500Y-121145500D02*
X74028500Y-78537000D01*
X64483180Y-79687620D02*
X64483180Y-78659820D01*
X115240000Y-137560000D02*
X115600000Y-137200000D01*
X115240000Y-144843980D02*
X118256020Y-144843980D01*
X124100000Y-139000000D02*
X124100000Y-137600000D01*
X118256020Y-144843980D02*
X124100000Y-139000000D01*
X135450740Y-79738420D02*
X135450740Y-79728220D01*
X135450740Y-79728220D02*
X133307020Y-77584500D01*
X133307020Y-77584500D02*
X127331244Y-77584500D01*
X127331244Y-77584500D02*
X126022278Y-78893466D01*
X126022278Y-78893466D02*
X126022278Y-121069278D01*
X126022278Y-121069278D02*
X127178000Y-122225000D01*
X127178000Y-122225000D02*
X133540660Y-122225000D01*
X133540660Y-122225000D02*
X135450740Y-120314920D01*
X111430000Y-142116020D02*
X111430000Y-138720000D01*
X117405602Y-136005602D02*
X117800000Y-136400000D01*
X117405602Y-136005602D02*
X114144398Y-136005602D01*
X111430000Y-138720000D02*
X114144398Y-136005602D01*
X118350000Y-136400000D02*
X117800000Y-136400000D01*
X118350000Y-136400000D02*
X120140000Y-136400000D01*
X69588580Y-79687620D02*
X71234500Y-78029000D01*
X71234500Y-78029000D02*
X72509592Y-78029000D01*
X73253778Y-78773186D02*
X73253778Y-118609038D01*
X70707821Y-121444321D02*
X69583500Y-120320000D01*
X69583500Y-120322540D02*
X69588580Y-120327620D01*
X72509592Y-78029000D02*
X73253778Y-78773186D01*
X73245281Y-120828000D02*
X73245281Y-120863637D01*
X73253778Y-118609038D02*
X73266500Y-118621760D01*
X73245281Y-120863637D02*
X72664597Y-121444321D01*
X73266500Y-118621760D02*
X73266500Y-120828000D01*
X69583500Y-120320000D02*
X69583500Y-120322540D01*
X73266500Y-120828000D02*
X73245281Y-120828000D01*
X72664597Y-121444321D02*
X70707821Y-121444321D01*
X130050701Y-120706081D02*
X130431700Y-120325082D01*
X129315001Y-121441781D02*
X130050701Y-120706081D01*
X127400597Y-121441781D02*
X129315001Y-121441781D01*
X126772499Y-79704501D02*
X126733500Y-79743500D01*
X126772499Y-79149063D02*
X126772499Y-79704501D01*
X126733500Y-120774684D02*
X127400597Y-121441781D01*
X127353183Y-78568379D02*
X126772499Y-79149063D01*
X130429200Y-79685080D02*
X129312499Y-78568379D01*
X129312499Y-78568379D02*
X127353183Y-78568379D01*
X126733500Y-79743500D02*
X126733500Y-120774684D01*
X140000000Y-81000000D02*
X140000000Y-79050000D01*
X140000000Y-79050000D02*
X140050000Y-79000000D01*
X59931500Y-79045000D02*
X59931500Y-80950002D01*
X113970000Y-142116020D02*
X113970000Y-137630000D01*
X113970000Y-137630000D02*
X114500000Y-137100000D01*
X67023180Y-120323180D02*
X67000000Y-120300000D01*
X67023180Y-120323180D02*
X67023180Y-120327620D01*
X68501449Y-121805889D02*
X67873179Y-121177619D01*
X72865203Y-121805889D02*
X68501449Y-121805889D01*
X73672889Y-120998203D02*
X72865203Y-121805889D01*
X69062799Y-77648001D02*
X72631501Y-77648001D01*
X72631501Y-77648001D02*
X73672889Y-78689389D01*
X67023180Y-79687620D02*
X69062799Y-77648001D01*
X73672889Y-78689389D02*
X73672889Y-120998203D01*
X67873179Y-121177619D02*
X67023180Y-120327620D01*
X132910740Y-79738420D02*
X132910740Y-79164340D01*
X132910740Y-79164340D02*
X131686511Y-77940111D01*
X131686511Y-77940111D02*
X127478542Y-77940111D01*
X131470611Y-121869389D02*
X131496000Y-121844000D01*
X131496000Y-121729660D02*
X132910740Y-120314920D01*
X127478542Y-77940111D02*
X126377889Y-79040764D01*
X126377889Y-79040764D02*
X126377889Y-120921981D01*
X126377889Y-120921981D02*
X127325297Y-121869389D01*
X127325297Y-121869389D02*
X131470611Y-121869389D01*
X131496000Y-121844000D02*
X131496000Y-121729660D01*
X112700000Y-142116020D02*
X112700000Y-137952898D01*
X120800000Y-137300000D02*
X121800000Y-138300000D01*
X121800000Y-138300000D02*
X122760000Y-138300000D01*
X112700000Y-137952898D02*
X114291694Y-136361204D01*
X114291694Y-136361204D02*
X116661204Y-136361204D01*
X116661204Y-136361204D02*
X117600000Y-137300000D01*
X117600000Y-137300000D02*
X120800000Y-137300000D01*
X117925000Y-146300000D02*
X111900000Y-146300000D01*
X111430000Y-145843980D02*
X111430000Y-145830000D01*
X111430000Y-145830000D02*
X111900000Y-146300000D01*
X117925000Y-146300000D02*
X124900000Y-139325000D01*
X124200000Y-136400000D02*
X122760000Y-136400000D01*
X124900000Y-137100000D02*
X124900000Y-139300000D01*
X124900000Y-139300000D02*
X124900000Y-139325000D01*
X124200000Y-136400000D02*
X124900000Y-137100000D01*
X141973496Y-81013496D02*
X141973500Y-81013500D01*
X141973496Y-78981500D02*
X141973496Y-81013496D01*
X58026500Y-81013498D02*
X58026502Y-81013500D01*
X58026500Y-79045001D02*
X58026500Y-81013498D01*
X118350000Y-138300000D02*
X120140000Y-138300000D01*
M02*
