G04 #@! TF.GenerationSoftware,KiCad,Pcbnew,5.1.9+dfsg1-1~bpo10+1*
G04 #@! TF.CreationDate,2021-11-09T03:07:47+00:00*
G04 #@! TF.ProjectId,120-channel-pogo-pin-board,3132302d-6368-4616-9e6e-656c2d706f67,v3.4*
G04 #@! TF.SameCoordinates,Original*
G04 #@! TF.FileFunction,Copper,L2,Inr*
G04 #@! TF.FilePolarity,Positive*
%FSLAX46Y46*%
G04 Gerber Fmt 4.6, Leading zero omitted, Abs format (unit mm)*
G04 Created by KiCad (PCBNEW 5.1.9+dfsg1-1~bpo10+1) date 2021-11-09 03:07:47*
%MOMM*%
%LPD*%
G01*
G04 APERTURE LIST*
G04 #@! TA.AperFunction,ComponentPad*
%ADD10R,1.700000X1.700000*%
G04 #@! TD*
G04 #@! TA.AperFunction,ComponentPad*
%ADD11O,1.700000X1.700000*%
G04 #@! TD*
G04 #@! TA.AperFunction,ComponentPad*
%ADD12C,1.750000*%
G04 #@! TD*
G04 #@! TA.AperFunction,ComponentPad*
%ADD13C,6.400000*%
G04 #@! TD*
G04 #@! TA.AperFunction,ViaPad*
%ADD14C,0.762000*%
G04 #@! TD*
G04 #@! TA.AperFunction,Conductor*
%ADD15C,0.800000*%
G04 #@! TD*
G04 #@! TA.AperFunction,Conductor*
%ADD16C,0.254000*%
G04 #@! TD*
G04 #@! TA.AperFunction,Conductor*
%ADD17C,0.100000*%
G04 #@! TD*
G04 APERTURE END LIST*
D10*
X64483180Y-79687620D03*
D11*
X67023180Y-79687620D03*
X64483180Y-82227620D03*
X67023180Y-82227620D03*
X64483180Y-84767620D03*
X67023180Y-84767620D03*
X64483180Y-87307620D03*
X67023180Y-87307620D03*
X64483180Y-89847620D03*
X67023180Y-89847620D03*
X64483180Y-92387620D03*
X67023180Y-92387620D03*
X64483180Y-94927620D03*
X67023180Y-94927620D03*
X64483180Y-97467620D03*
X67023180Y-97467620D03*
X64483180Y-100007620D03*
X67023180Y-100007620D03*
X64483180Y-102547620D03*
X67023180Y-102547620D03*
X64483180Y-105087620D03*
X67023180Y-105087620D03*
X64483180Y-107627620D03*
X67023180Y-107627620D03*
X64483180Y-110167620D03*
X67023180Y-110167620D03*
X64483180Y-112707620D03*
X67023180Y-112707620D03*
X64483180Y-115247620D03*
X67023180Y-115247620D03*
X64483180Y-117787620D03*
X67023180Y-117787620D03*
X67023180Y-120327620D03*
X64483180Y-120327620D03*
D12*
X49619100Y-143480000D03*
X76924100Y-143480000D03*
D13*
X149000000Y-81000000D03*
X51000000Y-81000000D03*
X149000000Y-132000000D03*
X51000000Y-132000000D03*
D12*
X83172500Y-143480000D03*
X116827500Y-143480000D03*
X123075900Y-143480000D03*
X150380900Y-143480000D03*
D10*
X69588580Y-79687620D03*
D11*
X72128580Y-79687620D03*
X69588580Y-82227620D03*
X72128580Y-82227620D03*
X69588580Y-84767620D03*
X72128580Y-84767620D03*
X69588580Y-87307620D03*
X72128580Y-87307620D03*
X69588580Y-89847620D03*
X72128580Y-89847620D03*
X69588580Y-92387620D03*
X72128580Y-92387620D03*
X69588580Y-94927620D03*
X72128580Y-94927620D03*
X69588580Y-97467620D03*
X72128580Y-97467620D03*
X69588580Y-100007620D03*
X72128580Y-100007620D03*
X69588580Y-102547620D03*
X72128580Y-102547620D03*
X69588580Y-105087620D03*
X72128580Y-105087620D03*
X69588580Y-107627620D03*
X72128580Y-107627620D03*
X69588580Y-110167620D03*
X72128580Y-110167620D03*
X69588580Y-112707620D03*
X72128580Y-112707620D03*
X69588580Y-115247620D03*
X72128580Y-115247620D03*
X69588580Y-117787620D03*
X72128580Y-117787620D03*
X72128580Y-120327620D03*
X69588580Y-120327620D03*
D10*
X135448240Y-120314920D03*
D11*
X132908240Y-120314920D03*
X135448240Y-117774920D03*
X132908240Y-117774920D03*
X135448240Y-115234920D03*
X132908240Y-115234920D03*
X135448240Y-112694920D03*
X132908240Y-112694920D03*
X135448240Y-110154920D03*
X132908240Y-110154920D03*
X135448240Y-107614920D03*
X132908240Y-107614920D03*
X135448240Y-105074920D03*
X132908240Y-105074920D03*
X135448240Y-102534920D03*
X132908240Y-102534920D03*
X135448240Y-99994920D03*
X132908240Y-99994920D03*
X135448240Y-97454920D03*
X132908240Y-97454920D03*
X135448240Y-94914920D03*
X132908240Y-94914920D03*
X135448240Y-92374920D03*
X132908240Y-92374920D03*
X135448240Y-89834920D03*
X132908240Y-89834920D03*
X135448240Y-87294920D03*
X132908240Y-87294920D03*
X135448240Y-84754920D03*
X132908240Y-84754920D03*
X135448240Y-82214920D03*
X132908240Y-82214920D03*
X132908240Y-79674920D03*
X135448240Y-79674920D03*
D10*
X130429200Y-120325080D03*
D11*
X127889200Y-120325080D03*
X130429200Y-117785080D03*
X127889200Y-117785080D03*
X130429200Y-115245080D03*
X127889200Y-115245080D03*
X130429200Y-112705080D03*
X127889200Y-112705080D03*
X130429200Y-110165080D03*
X127889200Y-110165080D03*
X130429200Y-107625080D03*
X127889200Y-107625080D03*
X130429200Y-105085080D03*
X127889200Y-105085080D03*
X130429200Y-102545080D03*
X127889200Y-102545080D03*
X130429200Y-100005080D03*
X127889200Y-100005080D03*
X130429200Y-97465080D03*
X127889200Y-97465080D03*
X130429200Y-94925080D03*
X127889200Y-94925080D03*
X130429200Y-92385080D03*
X127889200Y-92385080D03*
X130429200Y-89845080D03*
X127889200Y-89845080D03*
X130429200Y-87305080D03*
X127889200Y-87305080D03*
X130429200Y-84765080D03*
X127889200Y-84765080D03*
X130429200Y-82225080D03*
X127889200Y-82225080D03*
X127889200Y-79685080D03*
X130429200Y-79685080D03*
D14*
X62900000Y-81650000D03*
X67023180Y-82227620D03*
X69588580Y-82227620D03*
X51200000Y-144800000D03*
X52500000Y-144800000D03*
X64483180Y-82227620D03*
X56300000Y-144800000D03*
X69588580Y-87307620D03*
X64450000Y-87350000D03*
X57600000Y-144800000D03*
X64483180Y-84767620D03*
X55000000Y-144800000D03*
X69588580Y-84767620D03*
X53800000Y-144800000D03*
X61900000Y-84300000D03*
X67023180Y-84767620D03*
X59900000Y-86750000D03*
X67023180Y-87307620D03*
X69588580Y-89847620D03*
X58800000Y-144800000D03*
X58400000Y-89250000D03*
X67023180Y-89847620D03*
X60100000Y-144800000D03*
X64483180Y-89847620D03*
X69600000Y-92400000D03*
X61300000Y-144700000D03*
X56850000Y-91800000D03*
X67023180Y-92387620D03*
X62600000Y-144800000D03*
X64483180Y-92387620D03*
X69600000Y-94950000D03*
X63900000Y-144900000D03*
X58050000Y-94250000D03*
X67023180Y-94927620D03*
X65100000Y-144800000D03*
X64483180Y-94927620D03*
X66446600Y-144843980D03*
X69588580Y-97467620D03*
X57750000Y-96850000D03*
X67023180Y-97467620D03*
X67700000Y-144700000D03*
X64483180Y-97467620D03*
X68986600Y-144843980D03*
X69588580Y-100007620D03*
X57800000Y-99450000D03*
X67023180Y-100007620D03*
X70256600Y-144843980D03*
X64483180Y-100007620D03*
X71526600Y-144843980D03*
X69588580Y-102547620D03*
X58650000Y-102000000D03*
X67023180Y-102547620D03*
X72796600Y-144843980D03*
X64483180Y-102547620D03*
X69588580Y-105087620D03*
X74066600Y-144843980D03*
X59400000Y-104500000D03*
X67023180Y-105087620D03*
X75336600Y-144843980D03*
X64483180Y-105087620D03*
X144983400Y-144843980D03*
X136969500Y-84137500D03*
X132908240Y-84754920D03*
X146253400Y-144843980D03*
X127889200Y-84765080D03*
X147523400Y-144843980D03*
X137160000Y-81534000D03*
X132910740Y-82214920D03*
X148793400Y-144843980D03*
X127899360Y-82204760D03*
X127891698Y-94925080D03*
X136100000Y-144800000D03*
X134800000Y-144900000D03*
X136842500Y-94234000D03*
X132910740Y-94914920D03*
X133553400Y-144843980D03*
X127891700Y-97465080D03*
X136842500Y-96774000D03*
X132283400Y-144843980D03*
X132910738Y-97454920D03*
X127891702Y-100005080D03*
X131000000Y-144900000D03*
X143713400Y-144843980D03*
X127893594Y-87339326D03*
X124663400Y-144843980D03*
X136842500Y-104394000D03*
X132910740Y-105074920D03*
X125933400Y-144843980D03*
X127891702Y-105085080D03*
X127203400Y-144843980D03*
X136842500Y-101854000D03*
X132910740Y-102534918D03*
X128473400Y-144843980D03*
X127891700Y-102545080D03*
X136842500Y-99314000D03*
X129743400Y-144843980D03*
X132910740Y-99994920D03*
X137363400Y-144843980D03*
X136906000Y-91757500D03*
X132910740Y-92374920D03*
X138633400Y-144843980D03*
X127891700Y-92385080D03*
X139903400Y-144843980D03*
X136842500Y-89154000D03*
X132910740Y-89834918D03*
X127893594Y-89879326D03*
X141173400Y-144843980D03*
X142443400Y-144843980D03*
X136906000Y-86614000D03*
X132910740Y-87294920D03*
X64483180Y-117787620D03*
X96200000Y-144800000D03*
X62700000Y-117950000D03*
X67023180Y-117787620D03*
X94900000Y-144900000D03*
X69588580Y-117787620D03*
X64500000Y-115250000D03*
X93700000Y-144900000D03*
X62000000Y-115400000D03*
X67023180Y-115247620D03*
X92400000Y-144900000D03*
X69588580Y-115247620D03*
X64450000Y-112700000D03*
X91100000Y-144900000D03*
X61250000Y-112450000D03*
X67023180Y-112707620D03*
X108890000Y-144843980D03*
X127876500Y-107620000D03*
X136842500Y-106934000D03*
X107620000Y-144843980D03*
X132910740Y-107614920D03*
X106350000Y-144843980D03*
X127891700Y-110165080D03*
X136842500Y-109474000D03*
X132910740Y-110154920D03*
X105080000Y-144843980D03*
X103810000Y-144843980D03*
X127891700Y-112705080D03*
X84800000Y-144800000D03*
X69600000Y-107650000D03*
X59650000Y-108000000D03*
X67023180Y-107627620D03*
X86100000Y-144800000D03*
X64483180Y-107627620D03*
X69588580Y-110167620D03*
X87300000Y-144800000D03*
X60400000Y-110200000D03*
X67023180Y-110167620D03*
X64483180Y-110167620D03*
X88600000Y-144800000D03*
X89900000Y-144900000D03*
X69588580Y-112707620D03*
X97460000Y-144843980D03*
X136842500Y-117094000D03*
X132910740Y-117774922D03*
X127891698Y-117785080D03*
X98730000Y-144843980D03*
X136842500Y-114554000D03*
X100000000Y-144843980D03*
X132910738Y-115234920D03*
X101270000Y-144843980D03*
X127891700Y-115245080D03*
X136842500Y-112014000D03*
X102540000Y-144843980D03*
X132910740Y-112694920D03*
X64483180Y-120327620D03*
X115600000Y-137200000D03*
X124100000Y-137600000D03*
X135450740Y-120314920D03*
X122760000Y-137350000D03*
X112700000Y-144843980D03*
X110160000Y-144843980D03*
X69588580Y-120327620D03*
X69588580Y-79687620D03*
X130429200Y-120325080D03*
X140000000Y-81000000D03*
X140050000Y-79000000D03*
X59931500Y-80950002D03*
X59931500Y-79045000D03*
X114500000Y-137100000D03*
X67000000Y-120300000D03*
X132910740Y-120314920D03*
X113970000Y-144843980D03*
X72123500Y-79680000D03*
X72128580Y-120327620D03*
X127891702Y-120325080D03*
X127889200Y-79685080D03*
X142000000Y-81000000D03*
X141950000Y-79000000D03*
X58026502Y-81013500D03*
X58026500Y-79045001D03*
D15*
X49800000Y-147200000D02*
X48100000Y-145500000D01*
X152300000Y-144050000D02*
X152300000Y-135300000D01*
X149000000Y-132000000D02*
X152300000Y-135300000D01*
X48100000Y-138400000D02*
X48100000Y-145500000D01*
X51000000Y-135500000D02*
X51000000Y-132000000D01*
X51000000Y-135500000D02*
X48100000Y-138400000D01*
X152300000Y-144050000D02*
X152300000Y-144800000D01*
X152300000Y-144800000D02*
X149900000Y-147200000D01*
X149900000Y-147200000D02*
X49800000Y-147200000D01*
D16*
X153070500Y-78447144D02*
X153070500Y-144358791D01*
X151025870Y-146440597D01*
X151021057Y-145124144D01*
X151378820Y-144976319D01*
X151875475Y-144480530D01*
X152144593Y-143832421D01*
X152145206Y-143130658D01*
X151877219Y-142482080D01*
X151381430Y-141985425D01*
X151009016Y-141830785D01*
X150990499Y-136766036D01*
X150980313Y-136716662D01*
X150953303Y-136676697D01*
X150006937Y-135730331D01*
X151150246Y-135265819D01*
X151194360Y-135236343D01*
X151561305Y-134740910D01*
X149000000Y-132179605D01*
X148985858Y-132193748D01*
X148806253Y-132014143D01*
X148820395Y-132000000D01*
X149179605Y-132000000D01*
X151740910Y-134561305D01*
X152236343Y-134194360D01*
X152829736Y-132788829D01*
X152840087Y-131263207D01*
X152265819Y-129849754D01*
X152236343Y-129805640D01*
X151740910Y-129438695D01*
X149179605Y-132000000D01*
X148820395Y-132000000D01*
X148806253Y-131985858D01*
X148985858Y-131806253D01*
X149000000Y-131820395D01*
X151561305Y-129259090D01*
X151194360Y-128763657D01*
X149788829Y-128170264D01*
X149355284Y-128167322D01*
X150445303Y-127077303D01*
X150473166Y-127035289D01*
X150482500Y-126987500D01*
X150482500Y-91300499D01*
X150472494Y-91251089D01*
X150445303Y-91210696D01*
X142975517Y-83740910D01*
X146438695Y-83740910D01*
X146805640Y-84236343D01*
X148211171Y-84829736D01*
X149736793Y-84840087D01*
X151150246Y-84265819D01*
X151194360Y-84236343D01*
X151561305Y-83740910D01*
X149000000Y-81179605D01*
X146438695Y-83740910D01*
X142975517Y-83740910D01*
X141724268Y-82489661D01*
X141722991Y-81736793D01*
X145159913Y-81736793D01*
X145734181Y-83150246D01*
X145763657Y-83194360D01*
X146259090Y-83561305D01*
X148820395Y-81000000D01*
X149179605Y-81000000D01*
X151740910Y-83561305D01*
X152236343Y-83194360D01*
X152829736Y-81788829D01*
X152840087Y-80263207D01*
X152265819Y-78849754D01*
X152236343Y-78805640D01*
X151740910Y-78438695D01*
X149179605Y-81000000D01*
X148820395Y-81000000D01*
X146259090Y-78438695D01*
X145763657Y-78805640D01*
X145170264Y-80211171D01*
X145159913Y-81736793D01*
X141722991Y-81736793D01*
X141717089Y-78259090D01*
X146438695Y-78259090D01*
X149000000Y-80820395D01*
X151561305Y-78259090D01*
X151194360Y-77763657D01*
X149788829Y-77170264D01*
X148263207Y-77159913D01*
X146849754Y-77734181D01*
X146805640Y-77763657D01*
X146438695Y-78259090D01*
X141717089Y-78259090D01*
X141713680Y-76250784D01*
X141703590Y-76201391D01*
X141675079Y-76159815D01*
X141632638Y-76132607D01*
X141586680Y-76124000D01*
X125429500Y-76124000D01*
X125429500Y-76079500D01*
X150702856Y-76079500D01*
X153070500Y-78447144D01*
G04 #@! TA.AperFunction,Conductor*
D17*
G36*
X153070500Y-78447144D02*
G01*
X153070500Y-144358791D01*
X151025870Y-146440597D01*
X151021057Y-145124144D01*
X151378820Y-144976319D01*
X151875475Y-144480530D01*
X152144593Y-143832421D01*
X152145206Y-143130658D01*
X151877219Y-142482080D01*
X151381430Y-141985425D01*
X151009016Y-141830785D01*
X150990499Y-136766036D01*
X150980313Y-136716662D01*
X150953303Y-136676697D01*
X150006937Y-135730331D01*
X151150246Y-135265819D01*
X151194360Y-135236343D01*
X151561305Y-134740910D01*
X149000000Y-132179605D01*
X148985858Y-132193748D01*
X148806253Y-132014143D01*
X148820395Y-132000000D01*
X149179605Y-132000000D01*
X151740910Y-134561305D01*
X152236343Y-134194360D01*
X152829736Y-132788829D01*
X152840087Y-131263207D01*
X152265819Y-129849754D01*
X152236343Y-129805640D01*
X151740910Y-129438695D01*
X149179605Y-132000000D01*
X148820395Y-132000000D01*
X148806253Y-131985858D01*
X148985858Y-131806253D01*
X149000000Y-131820395D01*
X151561305Y-129259090D01*
X151194360Y-128763657D01*
X149788829Y-128170264D01*
X149355284Y-128167322D01*
X150445303Y-127077303D01*
X150473166Y-127035289D01*
X150482500Y-126987500D01*
X150482500Y-91300499D01*
X150472494Y-91251089D01*
X150445303Y-91210696D01*
X142975517Y-83740910D01*
X146438695Y-83740910D01*
X146805640Y-84236343D01*
X148211171Y-84829736D01*
X149736793Y-84840087D01*
X151150246Y-84265819D01*
X151194360Y-84236343D01*
X151561305Y-83740910D01*
X149000000Y-81179605D01*
X146438695Y-83740910D01*
X142975517Y-83740910D01*
X141724268Y-82489661D01*
X141722991Y-81736793D01*
X145159913Y-81736793D01*
X145734181Y-83150246D01*
X145763657Y-83194360D01*
X146259090Y-83561305D01*
X148820395Y-81000000D01*
X149179605Y-81000000D01*
X151740910Y-83561305D01*
X152236343Y-83194360D01*
X152829736Y-81788829D01*
X152840087Y-80263207D01*
X152265819Y-78849754D01*
X152236343Y-78805640D01*
X151740910Y-78438695D01*
X149179605Y-81000000D01*
X148820395Y-81000000D01*
X146259090Y-78438695D01*
X145763657Y-78805640D01*
X145170264Y-80211171D01*
X145159913Y-81736793D01*
X141722991Y-81736793D01*
X141717089Y-78259090D01*
X146438695Y-78259090D01*
X149000000Y-80820395D01*
X151561305Y-78259090D01*
X151194360Y-77763657D01*
X149788829Y-77170264D01*
X148263207Y-77159913D01*
X146849754Y-77734181D01*
X146805640Y-77763657D01*
X146438695Y-78259090D01*
X141717089Y-78259090D01*
X141713680Y-76250784D01*
X141703590Y-76201391D01*
X141675079Y-76159815D01*
X141632638Y-76132607D01*
X141586680Y-76124000D01*
X125429500Y-76124000D01*
X125429500Y-76079500D01*
X150702856Y-76079500D01*
X153070500Y-78447144D01*
G37*
G04 #@! TD.AperFunction*
D16*
X74570500Y-76251000D02*
X58407500Y-76251000D01*
X58358090Y-76261006D01*
X58316465Y-76289447D01*
X58289185Y-76331841D01*
X58280500Y-76378000D01*
X58280500Y-83126079D01*
X49364254Y-92031108D01*
X49336364Y-92073104D01*
X49327000Y-92120967D01*
X49327000Y-126606500D01*
X49337006Y-126655910D01*
X49364197Y-126696303D01*
X50831664Y-128163770D01*
X50263207Y-128159913D01*
X48849754Y-128734181D01*
X48805640Y-128763657D01*
X48438695Y-129259090D01*
X51000000Y-131820395D01*
X51014143Y-131806253D01*
X51193748Y-131985858D01*
X51179605Y-132000000D01*
X51193748Y-132014143D01*
X51014143Y-132193748D01*
X51000000Y-132179605D01*
X48438695Y-134740910D01*
X48805640Y-135236343D01*
X50211171Y-135829736D01*
X51409527Y-135837867D01*
X49110197Y-138137197D01*
X49082334Y-138179211D01*
X49073000Y-138227000D01*
X49073000Y-141796993D01*
X48621180Y-141983681D01*
X48124525Y-142479470D01*
X47855407Y-143127579D01*
X47854794Y-143829342D01*
X48122781Y-144477920D01*
X48618570Y-144974575D01*
X49073000Y-145163271D01*
X49073000Y-146896356D01*
X46979500Y-144802856D01*
X46979500Y-132736793D01*
X47159913Y-132736793D01*
X47734181Y-134150246D01*
X47763657Y-134194360D01*
X48259090Y-134561305D01*
X50820395Y-132000000D01*
X48259090Y-129438695D01*
X47763657Y-129805640D01*
X47170264Y-131211171D01*
X47159913Y-132736793D01*
X46979500Y-132736793D01*
X46979500Y-83740910D01*
X48438695Y-83740910D01*
X48805640Y-84236343D01*
X50211171Y-84829736D01*
X51736793Y-84840087D01*
X53150246Y-84265819D01*
X53194360Y-84236343D01*
X53561305Y-83740910D01*
X51000000Y-81179605D01*
X48438695Y-83740910D01*
X46979500Y-83740910D01*
X46979500Y-81736793D01*
X47159913Y-81736793D01*
X47734181Y-83150246D01*
X47763657Y-83194360D01*
X48259090Y-83561305D01*
X50820395Y-81000000D01*
X51179605Y-81000000D01*
X53740910Y-83561305D01*
X54236343Y-83194360D01*
X54829736Y-81788829D01*
X54840087Y-80263207D01*
X54265819Y-78849754D01*
X54236343Y-78805640D01*
X53740910Y-78438695D01*
X51179605Y-81000000D01*
X50820395Y-81000000D01*
X48259090Y-78438695D01*
X47763657Y-78805640D01*
X47170264Y-80211171D01*
X47159913Y-81736793D01*
X46979500Y-81736793D01*
X46979500Y-78447144D01*
X47167554Y-78259090D01*
X48438695Y-78259090D01*
X51000000Y-80820395D01*
X53561305Y-78259090D01*
X53194360Y-77763657D01*
X51788829Y-77170264D01*
X50263207Y-77159913D01*
X48849754Y-77734181D01*
X48805640Y-77763657D01*
X48438695Y-78259090D01*
X47167554Y-78259090D01*
X49347144Y-76079500D01*
X74570500Y-76079500D01*
X74570500Y-76251000D01*
G04 #@! TA.AperFunction,Conductor*
D17*
G36*
X74570500Y-76251000D02*
G01*
X58407500Y-76251000D01*
X58358090Y-76261006D01*
X58316465Y-76289447D01*
X58289185Y-76331841D01*
X58280500Y-76378000D01*
X58280500Y-83126079D01*
X49364254Y-92031108D01*
X49336364Y-92073104D01*
X49327000Y-92120967D01*
X49327000Y-126606500D01*
X49337006Y-126655910D01*
X49364197Y-126696303D01*
X50831664Y-128163770D01*
X50263207Y-128159913D01*
X48849754Y-128734181D01*
X48805640Y-128763657D01*
X48438695Y-129259090D01*
X51000000Y-131820395D01*
X51014143Y-131806253D01*
X51193748Y-131985858D01*
X51179605Y-132000000D01*
X51193748Y-132014143D01*
X51014143Y-132193748D01*
X51000000Y-132179605D01*
X48438695Y-134740910D01*
X48805640Y-135236343D01*
X50211171Y-135829736D01*
X51409527Y-135837867D01*
X49110197Y-138137197D01*
X49082334Y-138179211D01*
X49073000Y-138227000D01*
X49073000Y-141796993D01*
X48621180Y-141983681D01*
X48124525Y-142479470D01*
X47855407Y-143127579D01*
X47854794Y-143829342D01*
X48122781Y-144477920D01*
X48618570Y-144974575D01*
X49073000Y-145163271D01*
X49073000Y-146896356D01*
X46979500Y-144802856D01*
X46979500Y-132736793D01*
X47159913Y-132736793D01*
X47734181Y-134150246D01*
X47763657Y-134194360D01*
X48259090Y-134561305D01*
X50820395Y-132000000D01*
X48259090Y-129438695D01*
X47763657Y-129805640D01*
X47170264Y-131211171D01*
X47159913Y-132736793D01*
X46979500Y-132736793D01*
X46979500Y-83740910D01*
X48438695Y-83740910D01*
X48805640Y-84236343D01*
X50211171Y-84829736D01*
X51736793Y-84840087D01*
X53150246Y-84265819D01*
X53194360Y-84236343D01*
X53561305Y-83740910D01*
X51000000Y-81179605D01*
X48438695Y-83740910D01*
X46979500Y-83740910D01*
X46979500Y-81736793D01*
X47159913Y-81736793D01*
X47734181Y-83150246D01*
X47763657Y-83194360D01*
X48259090Y-83561305D01*
X50820395Y-81000000D01*
X51179605Y-81000000D01*
X53740910Y-83561305D01*
X54236343Y-83194360D01*
X54829736Y-81788829D01*
X54840087Y-80263207D01*
X54265819Y-78849754D01*
X54236343Y-78805640D01*
X53740910Y-78438695D01*
X51179605Y-81000000D01*
X50820395Y-81000000D01*
X48259090Y-78438695D01*
X47763657Y-78805640D01*
X47170264Y-80211171D01*
X47159913Y-81736793D01*
X46979500Y-81736793D01*
X46979500Y-78447144D01*
X47167554Y-78259090D01*
X48438695Y-78259090D01*
X51000000Y-80820395D01*
X53561305Y-78259090D01*
X53194360Y-77763657D01*
X51788829Y-77170264D01*
X50263207Y-77159913D01*
X48849754Y-77734181D01*
X48805640Y-77763657D01*
X48438695Y-78259090D01*
X47167554Y-78259090D01*
X49347144Y-76079500D01*
X74570500Y-76079500D01*
X74570500Y-76251000D01*
G37*
G04 #@! TD.AperFunction*
D16*
X74732500Y-129000000D02*
X74802341Y-129351112D01*
X75001230Y-129648770D01*
X75298888Y-129847659D01*
X75650000Y-129917500D01*
X124350000Y-129917500D01*
X124701112Y-129847659D01*
X124998770Y-129648770D01*
X125197659Y-129351112D01*
X125267500Y-129000000D01*
X125267500Y-79685080D01*
X126281305Y-79685080D01*
X126401347Y-80288572D01*
X126743198Y-80800187D01*
X126975011Y-80955080D01*
X126743198Y-81109973D01*
X126401347Y-81621588D01*
X126281305Y-82225080D01*
X126401347Y-82828572D01*
X126743198Y-83340187D01*
X126975011Y-83495080D01*
X126743198Y-83649973D01*
X126401347Y-84161588D01*
X126281305Y-84765080D01*
X126401347Y-85368572D01*
X126743198Y-85880187D01*
X126975011Y-86035080D01*
X126743198Y-86189973D01*
X126401347Y-86701588D01*
X126281305Y-87305080D01*
X126401347Y-87908572D01*
X126743198Y-88420187D01*
X126975011Y-88575080D01*
X126743198Y-88729973D01*
X126401347Y-89241588D01*
X126281305Y-89845080D01*
X126401347Y-90448572D01*
X126743198Y-90960187D01*
X126975011Y-91115080D01*
X126743198Y-91269973D01*
X126401347Y-91781588D01*
X126281305Y-92385080D01*
X126401347Y-92988572D01*
X126743198Y-93500187D01*
X126975011Y-93655080D01*
X126743198Y-93809973D01*
X126401347Y-94321588D01*
X126281305Y-94925080D01*
X126401347Y-95528572D01*
X126743198Y-96040187D01*
X126975011Y-96195080D01*
X126743198Y-96349973D01*
X126401347Y-96861588D01*
X126281305Y-97465080D01*
X126401347Y-98068572D01*
X126743198Y-98580187D01*
X126975011Y-98735080D01*
X126743198Y-98889973D01*
X126401347Y-99401588D01*
X126281305Y-100005080D01*
X126401347Y-100608572D01*
X126743198Y-101120187D01*
X126975011Y-101275080D01*
X126743198Y-101429973D01*
X126401347Y-101941588D01*
X126281305Y-102545080D01*
X126401347Y-103148572D01*
X126743198Y-103660187D01*
X126975011Y-103815080D01*
X126743198Y-103969973D01*
X126401347Y-104481588D01*
X126281305Y-105085080D01*
X126401347Y-105688572D01*
X126743198Y-106200187D01*
X126975011Y-106355080D01*
X126743198Y-106509973D01*
X126401347Y-107021588D01*
X126281305Y-107625080D01*
X126401347Y-108228572D01*
X126743198Y-108740187D01*
X126975011Y-108895080D01*
X126743198Y-109049973D01*
X126401347Y-109561588D01*
X126281305Y-110165080D01*
X126401347Y-110768572D01*
X126743198Y-111280187D01*
X126975011Y-111435080D01*
X126743198Y-111589973D01*
X126401347Y-112101588D01*
X126281305Y-112705080D01*
X126401347Y-113308572D01*
X126743198Y-113820187D01*
X126975011Y-113975080D01*
X126743198Y-114129973D01*
X126401347Y-114641588D01*
X126281305Y-115245080D01*
X126401347Y-115848572D01*
X126743198Y-116360187D01*
X126975011Y-116515080D01*
X126743198Y-116669973D01*
X126401347Y-117181588D01*
X126281305Y-117785080D01*
X126401347Y-118388572D01*
X126743198Y-118900187D01*
X126975011Y-119055080D01*
X126743198Y-119209973D01*
X126401347Y-119721588D01*
X126281305Y-120325080D01*
X126401347Y-120928572D01*
X126743198Y-121440187D01*
X127254813Y-121782038D01*
X127858305Y-121902080D01*
X127920095Y-121902080D01*
X128523587Y-121782038D01*
X129008956Y-121457724D01*
X129040873Y-121534779D01*
X129219502Y-121713407D01*
X129452891Y-121810080D01*
X130143450Y-121810080D01*
X130302200Y-121651330D01*
X130302200Y-120452080D01*
X130282200Y-120452080D01*
X130282200Y-120198080D01*
X130302200Y-120198080D01*
X130302200Y-120178080D01*
X130556200Y-120178080D01*
X130556200Y-120198080D01*
X130576200Y-120198080D01*
X130576200Y-120452080D01*
X130556200Y-120452080D01*
X130556200Y-121651330D01*
X130714950Y-121810080D01*
X131405509Y-121810080D01*
X131638898Y-121713407D01*
X131817527Y-121534779D01*
X131839526Y-121481669D01*
X132273853Y-121771878D01*
X132877345Y-121891920D01*
X132939135Y-121891920D01*
X133542627Y-121771878D01*
X133949820Y-121499800D01*
X134066912Y-121681766D01*
X134309855Y-121847763D01*
X134598240Y-121906162D01*
X136298240Y-121906162D01*
X136567650Y-121855469D01*
X136815086Y-121696248D01*
X136981083Y-121453305D01*
X137039482Y-121164920D01*
X137039482Y-119464920D01*
X136988789Y-119195510D01*
X136829568Y-118948074D01*
X136641376Y-118819487D01*
X136936093Y-118378412D01*
X136971161Y-118202113D01*
X137061928Y-118202192D01*
X137469312Y-118033864D01*
X137781269Y-117722451D01*
X137950307Y-117315362D01*
X137950692Y-116874572D01*
X137782364Y-116467188D01*
X137470951Y-116155231D01*
X137063862Y-115986193D01*
X136837481Y-115985995D01*
X136936093Y-115838412D01*
X136971161Y-115662113D01*
X137061928Y-115662192D01*
X137469312Y-115493864D01*
X137781269Y-115182451D01*
X137950307Y-114775362D01*
X137950692Y-114334572D01*
X137782364Y-113927188D01*
X137470951Y-113615231D01*
X137063862Y-113446193D01*
X136837481Y-113445995D01*
X136936093Y-113298412D01*
X136971161Y-113122113D01*
X137061928Y-113122192D01*
X137469312Y-112953864D01*
X137781269Y-112642451D01*
X137950307Y-112235362D01*
X137950692Y-111794572D01*
X137782364Y-111387188D01*
X137470951Y-111075231D01*
X137063862Y-110906193D01*
X136837481Y-110905995D01*
X136936093Y-110758412D01*
X136971161Y-110582113D01*
X137061928Y-110582192D01*
X137469312Y-110413864D01*
X137781269Y-110102451D01*
X137950307Y-109695362D01*
X137950692Y-109254572D01*
X137782364Y-108847188D01*
X137470951Y-108535231D01*
X137063862Y-108366193D01*
X136837481Y-108365995D01*
X136936093Y-108218412D01*
X136971161Y-108042113D01*
X137061928Y-108042192D01*
X137469312Y-107873864D01*
X137781269Y-107562451D01*
X137950307Y-107155362D01*
X137950692Y-106714572D01*
X137782364Y-106307188D01*
X137470951Y-105995231D01*
X137063862Y-105826193D01*
X136837481Y-105825995D01*
X136936093Y-105678412D01*
X136971161Y-105502113D01*
X137061928Y-105502192D01*
X137469312Y-105333864D01*
X137781269Y-105022451D01*
X137950307Y-104615362D01*
X137950692Y-104174572D01*
X137782364Y-103767188D01*
X137470951Y-103455231D01*
X137063862Y-103286193D01*
X136837481Y-103285995D01*
X136936093Y-103138412D01*
X136971161Y-102962113D01*
X137061928Y-102962192D01*
X137469312Y-102793864D01*
X137781269Y-102482451D01*
X137950307Y-102075362D01*
X137950692Y-101634572D01*
X137782364Y-101227188D01*
X137470951Y-100915231D01*
X137063862Y-100746193D01*
X136837481Y-100745995D01*
X136936093Y-100598412D01*
X136971161Y-100422113D01*
X137061928Y-100422192D01*
X137469312Y-100253864D01*
X137781269Y-99942451D01*
X137950307Y-99535362D01*
X137950692Y-99094572D01*
X137782364Y-98687188D01*
X137470951Y-98375231D01*
X137063862Y-98206193D01*
X136837481Y-98205995D01*
X136936093Y-98058412D01*
X136971161Y-97882113D01*
X137061928Y-97882192D01*
X137469312Y-97713864D01*
X137781269Y-97402451D01*
X137950307Y-96995362D01*
X137950692Y-96554572D01*
X137782364Y-96147188D01*
X137470951Y-95835231D01*
X137063862Y-95666193D01*
X136837481Y-95665995D01*
X136936093Y-95518412D01*
X136971161Y-95342113D01*
X137061928Y-95342192D01*
X137469312Y-95173864D01*
X137781269Y-94862451D01*
X137950307Y-94455362D01*
X137950692Y-94014572D01*
X137782364Y-93607188D01*
X137470951Y-93295231D01*
X137063862Y-93126193D01*
X136837481Y-93125995D01*
X136936093Y-92978412D01*
X136958543Y-92865546D01*
X137125428Y-92865692D01*
X137532812Y-92697364D01*
X137844769Y-92385951D01*
X138013807Y-91978862D01*
X138014192Y-91538072D01*
X137845864Y-91130688D01*
X137534451Y-90818731D01*
X137127362Y-90649693D01*
X136795113Y-90649403D01*
X136936093Y-90438412D01*
X136971161Y-90262113D01*
X137061928Y-90262192D01*
X137469312Y-90093864D01*
X137781269Y-89782451D01*
X137950307Y-89375362D01*
X137950692Y-88934572D01*
X137782364Y-88527188D01*
X137470951Y-88215231D01*
X137063862Y-88046193D01*
X136837481Y-88045995D01*
X136936093Y-87898412D01*
X136971172Y-87722057D01*
X137125428Y-87722192D01*
X137532812Y-87553864D01*
X137844769Y-87242451D01*
X138013807Y-86835362D01*
X138014192Y-86394572D01*
X137845864Y-85987188D01*
X137534451Y-85675231D01*
X137127362Y-85506193D01*
X136837518Y-85505940D01*
X136936093Y-85358412D01*
X136958554Y-85245491D01*
X137188928Y-85245692D01*
X137596312Y-85077364D01*
X137908269Y-84765951D01*
X138077307Y-84358862D01*
X138077692Y-83918072D01*
X137909364Y-83510688D01*
X137597951Y-83198731D01*
X137190862Y-83029693D01*
X136795150Y-83029347D01*
X136936093Y-82818412D01*
X136971216Y-82641835D01*
X137379428Y-82642192D01*
X137786812Y-82473864D01*
X138098769Y-82162451D01*
X138267807Y-81755362D01*
X138268192Y-81314572D01*
X138099864Y-80907188D01*
X137788451Y-80595231D01*
X137381362Y-80426193D01*
X136940572Y-80425808D01*
X136798337Y-80484579D01*
X136936093Y-80278412D01*
X137056135Y-79674920D01*
X136936093Y-79071428D01*
X136594242Y-78559813D01*
X136082627Y-78217962D01*
X135479135Y-78097920D01*
X135417345Y-78097920D01*
X134813853Y-78217962D01*
X134302238Y-78559813D01*
X134178240Y-78745389D01*
X134054242Y-78559813D01*
X133542627Y-78217962D01*
X132939135Y-78097920D01*
X132877345Y-78097920D01*
X132273853Y-78217962D01*
X131762238Y-78559813D01*
X131598118Y-78805435D01*
X131310558Y-78489897D01*
X130786092Y-78243594D01*
X130556200Y-78364261D01*
X130556200Y-79558080D01*
X130576200Y-79558080D01*
X130576200Y-79812080D01*
X130556200Y-79812080D01*
X130556200Y-79832080D01*
X130302200Y-79832080D01*
X130302200Y-79812080D01*
X130282200Y-79812080D01*
X130282200Y-79558080D01*
X130302200Y-79558080D01*
X130302200Y-78364261D01*
X130072308Y-78243594D01*
X129547842Y-78489897D01*
X129221193Y-78848327D01*
X129035202Y-78569973D01*
X128523587Y-78228122D01*
X127920095Y-78108080D01*
X127858305Y-78108080D01*
X127254813Y-78228122D01*
X126743198Y-78569973D01*
X126401347Y-79081588D01*
X126281305Y-79685080D01*
X125267500Y-79685080D01*
X125267500Y-77627000D01*
X140373000Y-77627000D01*
X140373000Y-83000000D01*
X140383006Y-83049410D01*
X140410197Y-83089803D01*
X148873000Y-91552606D01*
X148873000Y-126447394D01*
X145410197Y-129910197D01*
X145382334Y-129952211D01*
X145373000Y-130000000D01*
X145373000Y-130494611D01*
X145073684Y-131215445D01*
X145072320Y-132777702D01*
X145668911Y-134221560D01*
X146772629Y-135327207D01*
X148215445Y-135926316D01*
X148246737Y-135926343D01*
X149873000Y-137552606D01*
X149873000Y-141956494D01*
X149474625Y-142121099D01*
X149023582Y-142571355D01*
X148779179Y-143159945D01*
X148778676Y-143735967D01*
X148573972Y-143735788D01*
X148166588Y-143904116D01*
X148158659Y-143912031D01*
X148151851Y-143905211D01*
X147744762Y-143736173D01*
X147303972Y-143735788D01*
X146896588Y-143904116D01*
X146888659Y-143912031D01*
X146881851Y-143905211D01*
X146474762Y-143736173D01*
X146033972Y-143735788D01*
X145626588Y-143904116D01*
X145618659Y-143912031D01*
X145611851Y-143905211D01*
X145204762Y-143736173D01*
X144763972Y-143735788D01*
X144356588Y-143904116D01*
X144348659Y-143912031D01*
X144341851Y-143905211D01*
X143934762Y-143736173D01*
X143493972Y-143735788D01*
X143086588Y-143904116D01*
X143078659Y-143912031D01*
X143071851Y-143905211D01*
X142664762Y-143736173D01*
X142223972Y-143735788D01*
X141816588Y-143904116D01*
X141808659Y-143912031D01*
X141801851Y-143905211D01*
X141394762Y-143736173D01*
X140953972Y-143735788D01*
X140546588Y-143904116D01*
X140538659Y-143912031D01*
X140531851Y-143905211D01*
X140124762Y-143736173D01*
X139683972Y-143735788D01*
X139276588Y-143904116D01*
X139268659Y-143912031D01*
X139261851Y-143905211D01*
X138854762Y-143736173D01*
X138413972Y-143735788D01*
X138006588Y-143904116D01*
X137998659Y-143912031D01*
X137991851Y-143905211D01*
X137584762Y-143736173D01*
X137143972Y-143735788D01*
X136761136Y-143893973D01*
X136728451Y-143861231D01*
X136321362Y-143692193D01*
X135880572Y-143691808D01*
X135473188Y-143860136D01*
X135388524Y-143944652D01*
X135021362Y-143792193D01*
X134580572Y-143791808D01*
X134218139Y-143941563D01*
X134181851Y-143905211D01*
X133774762Y-143736173D01*
X133333972Y-143735788D01*
X132926588Y-143904116D01*
X132918659Y-143912031D01*
X132911851Y-143905211D01*
X132504762Y-143736173D01*
X132063972Y-143735788D01*
X131656588Y-143904116D01*
X131607915Y-143952704D01*
X131221362Y-143792193D01*
X130780572Y-143791808D01*
X130411059Y-143944488D01*
X130371851Y-143905211D01*
X129964762Y-143736173D01*
X129523972Y-143735788D01*
X129116588Y-143904116D01*
X129108659Y-143912031D01*
X129101851Y-143905211D01*
X128694762Y-143736173D01*
X128253972Y-143735788D01*
X127846588Y-143904116D01*
X127838659Y-143912031D01*
X127831851Y-143905211D01*
X127424762Y-143736173D01*
X126983972Y-143735788D01*
X126576588Y-143904116D01*
X126568659Y-143912031D01*
X126561851Y-143905211D01*
X126154762Y-143736173D01*
X125713972Y-143735788D01*
X125306588Y-143904116D01*
X125298659Y-143912031D01*
X125291851Y-143905211D01*
X124884762Y-143736173D01*
X124677677Y-143735992D01*
X124678177Y-143162741D01*
X124434801Y-142573725D01*
X123984545Y-142122682D01*
X123395955Y-141878279D01*
X122758641Y-141877723D01*
X122169625Y-142121099D01*
X121718582Y-142571355D01*
X121474179Y-143159945D01*
X121473623Y-143797259D01*
X121716999Y-144386275D01*
X122167255Y-144837318D01*
X122755845Y-145081721D01*
X123393159Y-145082277D01*
X123555250Y-145015302D01*
X123555208Y-145063408D01*
X123723536Y-145470792D01*
X124034949Y-145782749D01*
X124442038Y-145951787D01*
X124882828Y-145952172D01*
X125290212Y-145783844D01*
X125298141Y-145775929D01*
X125304949Y-145782749D01*
X125712038Y-145951787D01*
X126152828Y-145952172D01*
X126560212Y-145783844D01*
X126568141Y-145775929D01*
X126574949Y-145782749D01*
X126982038Y-145951787D01*
X127422828Y-145952172D01*
X127830212Y-145783844D01*
X127838141Y-145775929D01*
X127844949Y-145782749D01*
X128252038Y-145951787D01*
X128692828Y-145952172D01*
X129100212Y-145783844D01*
X129108141Y-145775929D01*
X129114949Y-145782749D01*
X129522038Y-145951787D01*
X129962828Y-145952172D01*
X130332341Y-145799492D01*
X130371549Y-145838769D01*
X130778638Y-146007807D01*
X131219428Y-146008192D01*
X131626812Y-145839864D01*
X131675485Y-145791276D01*
X132062038Y-145951787D01*
X132502828Y-145952172D01*
X132910212Y-145783844D01*
X132918141Y-145775929D01*
X132924949Y-145782749D01*
X133332038Y-145951787D01*
X133772828Y-145952172D01*
X134135261Y-145802417D01*
X134171549Y-145838769D01*
X134578638Y-146007807D01*
X135019428Y-146008192D01*
X135426812Y-145839864D01*
X135511476Y-145755348D01*
X135878638Y-145907807D01*
X136319428Y-145908192D01*
X136702264Y-145750007D01*
X136734949Y-145782749D01*
X137142038Y-145951787D01*
X137582828Y-145952172D01*
X137990212Y-145783844D01*
X137998141Y-145775929D01*
X138004949Y-145782749D01*
X138412038Y-145951787D01*
X138852828Y-145952172D01*
X139260212Y-145783844D01*
X139268141Y-145775929D01*
X139274949Y-145782749D01*
X139682038Y-145951787D01*
X140122828Y-145952172D01*
X140530212Y-145783844D01*
X140538141Y-145775929D01*
X140544949Y-145782749D01*
X140952038Y-145951787D01*
X141392828Y-145952172D01*
X141800212Y-145783844D01*
X141808141Y-145775929D01*
X141814949Y-145782749D01*
X142222038Y-145951787D01*
X142662828Y-145952172D01*
X143070212Y-145783844D01*
X143078141Y-145775929D01*
X143084949Y-145782749D01*
X143492038Y-145951787D01*
X143932828Y-145952172D01*
X144340212Y-145783844D01*
X144348141Y-145775929D01*
X144354949Y-145782749D01*
X144762038Y-145951787D01*
X145202828Y-145952172D01*
X145610212Y-145783844D01*
X145618141Y-145775929D01*
X145624949Y-145782749D01*
X146032038Y-145951787D01*
X146472828Y-145952172D01*
X146880212Y-145783844D01*
X146888141Y-145775929D01*
X146894949Y-145782749D01*
X147302038Y-145951787D01*
X147742828Y-145952172D01*
X148150212Y-145783844D01*
X148158141Y-145775929D01*
X148164949Y-145782749D01*
X148572038Y-145951787D01*
X149012828Y-145952172D01*
X149420212Y-145783844D01*
X149732169Y-145472431D01*
X149873000Y-145133272D01*
X149873000Y-145633182D01*
X149433182Y-146073000D01*
X50266818Y-146073000D01*
X50127000Y-145933182D01*
X50127000Y-145104599D01*
X50260136Y-145426812D01*
X50571549Y-145738769D01*
X50978638Y-145907807D01*
X51419428Y-145908192D01*
X51826812Y-145739864D01*
X51849767Y-145716949D01*
X51871549Y-145738769D01*
X52278638Y-145907807D01*
X52719428Y-145908192D01*
X53126812Y-145739864D01*
X53149767Y-145716949D01*
X53171549Y-145738769D01*
X53578638Y-145907807D01*
X54019428Y-145908192D01*
X54400434Y-145750763D01*
X54778638Y-145907807D01*
X55219428Y-145908192D01*
X55626812Y-145739864D01*
X55649767Y-145716949D01*
X55671549Y-145738769D01*
X56078638Y-145907807D01*
X56519428Y-145908192D01*
X56926812Y-145739864D01*
X56949767Y-145716949D01*
X56971549Y-145738769D01*
X57378638Y-145907807D01*
X57819428Y-145908192D01*
X58200434Y-145750763D01*
X58578638Y-145907807D01*
X59019428Y-145908192D01*
X59426812Y-145739864D01*
X59449767Y-145716949D01*
X59471549Y-145738769D01*
X59878638Y-145907807D01*
X60319428Y-145908192D01*
X60726812Y-145739864D01*
X60782099Y-145684673D01*
X61078638Y-145807807D01*
X61519428Y-145808192D01*
X61888584Y-145655659D01*
X61971549Y-145738769D01*
X62378638Y-145907807D01*
X62819428Y-145908192D01*
X63188584Y-145755659D01*
X63271549Y-145838769D01*
X63678638Y-146007807D01*
X64119428Y-146008192D01*
X64526812Y-145839864D01*
X64582099Y-145784673D01*
X64878638Y-145907807D01*
X65319428Y-145908192D01*
X65726812Y-145739864D01*
X65751118Y-145715601D01*
X65818149Y-145782749D01*
X66225238Y-145951787D01*
X66666028Y-145952172D01*
X67073412Y-145783844D01*
X67175501Y-145681933D01*
X67478638Y-145807807D01*
X67919428Y-145808192D01*
X68248015Y-145672422D01*
X68358149Y-145782749D01*
X68765238Y-145951787D01*
X69206028Y-145952172D01*
X69613412Y-145783844D01*
X69621341Y-145775929D01*
X69628149Y-145782749D01*
X70035238Y-145951787D01*
X70476028Y-145952172D01*
X70883412Y-145783844D01*
X70891341Y-145775929D01*
X70898149Y-145782749D01*
X71305238Y-145951787D01*
X71746028Y-145952172D01*
X72153412Y-145783844D01*
X72161341Y-145775929D01*
X72168149Y-145782749D01*
X72575238Y-145951787D01*
X73016028Y-145952172D01*
X73423412Y-145783844D01*
X73431341Y-145775929D01*
X73438149Y-145782749D01*
X73845238Y-145951787D01*
X74286028Y-145952172D01*
X74693412Y-145783844D01*
X74701341Y-145775929D01*
X74708149Y-145782749D01*
X75115238Y-145951787D01*
X75556028Y-145952172D01*
X75963412Y-145783844D01*
X76275369Y-145472431D01*
X76444407Y-145065342D01*
X76444451Y-145015452D01*
X76604045Y-145081721D01*
X77241359Y-145082277D01*
X77830375Y-144838901D01*
X78281418Y-144388645D01*
X78525821Y-143800055D01*
X78525823Y-143797259D01*
X81570223Y-143797259D01*
X81813599Y-144386275D01*
X82263855Y-144837318D01*
X82852445Y-145081721D01*
X83489759Y-145082277D01*
X83691826Y-144998785D01*
X83691808Y-145019428D01*
X83860136Y-145426812D01*
X84171549Y-145738769D01*
X84578638Y-145907807D01*
X85019428Y-145908192D01*
X85426812Y-145739864D01*
X85449767Y-145716949D01*
X85471549Y-145738769D01*
X85878638Y-145907807D01*
X86319428Y-145908192D01*
X86700434Y-145750763D01*
X87078638Y-145907807D01*
X87519428Y-145908192D01*
X87926812Y-145739864D01*
X87949767Y-145716949D01*
X87971549Y-145738769D01*
X88378638Y-145907807D01*
X88819428Y-145908192D01*
X89188584Y-145755659D01*
X89271549Y-145838769D01*
X89678638Y-146007807D01*
X90119428Y-146008192D01*
X90500434Y-145850763D01*
X90878638Y-146007807D01*
X91319428Y-146008192D01*
X91726812Y-145839864D01*
X91749767Y-145816949D01*
X91771549Y-145838769D01*
X92178638Y-146007807D01*
X92619428Y-146008192D01*
X93026812Y-145839864D01*
X93049767Y-145816949D01*
X93071549Y-145838769D01*
X93478638Y-146007807D01*
X93919428Y-146008192D01*
X94300434Y-145850763D01*
X94678638Y-146007807D01*
X95119428Y-146008192D01*
X95526812Y-145839864D01*
X95611476Y-145755348D01*
X95978638Y-145907807D01*
X96419428Y-145908192D01*
X96799857Y-145751002D01*
X96831549Y-145782749D01*
X97238638Y-145951787D01*
X97679428Y-145952172D01*
X98086812Y-145783844D01*
X98094741Y-145775929D01*
X98101549Y-145782749D01*
X98508638Y-145951787D01*
X98949428Y-145952172D01*
X99356812Y-145783844D01*
X99364741Y-145775929D01*
X99371549Y-145782749D01*
X99778638Y-145951787D01*
X100219428Y-145952172D01*
X100626812Y-145783844D01*
X100634741Y-145775929D01*
X100641549Y-145782749D01*
X101048638Y-145951787D01*
X101489428Y-145952172D01*
X101896812Y-145783844D01*
X101904741Y-145775929D01*
X101911549Y-145782749D01*
X102318638Y-145951787D01*
X102759428Y-145952172D01*
X103166812Y-145783844D01*
X103174741Y-145775929D01*
X103181549Y-145782749D01*
X103588638Y-145951787D01*
X104029428Y-145952172D01*
X104436812Y-145783844D01*
X104444741Y-145775929D01*
X104451549Y-145782749D01*
X104858638Y-145951787D01*
X105299428Y-145952172D01*
X105706812Y-145783844D01*
X105714741Y-145775929D01*
X105721549Y-145782749D01*
X106128638Y-145951787D01*
X106569428Y-145952172D01*
X106976812Y-145783844D01*
X106984741Y-145775929D01*
X106991549Y-145782749D01*
X107398638Y-145951787D01*
X107839428Y-145952172D01*
X108246812Y-145783844D01*
X108254741Y-145775929D01*
X108261549Y-145782749D01*
X108668638Y-145951787D01*
X109109428Y-145952172D01*
X109516812Y-145783844D01*
X109828769Y-145472431D01*
X109997807Y-145065342D01*
X109997808Y-145063408D01*
X112861808Y-145063408D01*
X113030136Y-145470792D01*
X113341549Y-145782749D01*
X113748638Y-145951787D01*
X114189428Y-145952172D01*
X114596812Y-145783844D01*
X114908769Y-145472431D01*
X115077807Y-145065342D01*
X115078192Y-144624552D01*
X114909864Y-144217168D01*
X114598451Y-143905211D01*
X114338474Y-143797259D01*
X115225223Y-143797259D01*
X115468599Y-144386275D01*
X115918855Y-144837318D01*
X116507445Y-145081721D01*
X117144759Y-145082277D01*
X117733775Y-144838901D01*
X118184818Y-144388645D01*
X118429221Y-143800055D01*
X118429777Y-143162741D01*
X118186401Y-142573725D01*
X117736145Y-142122682D01*
X117147555Y-141878279D01*
X116510241Y-141877723D01*
X115921225Y-142121099D01*
X115470182Y-142571355D01*
X115225779Y-143159945D01*
X115225223Y-143797259D01*
X114338474Y-143797259D01*
X114191362Y-143736173D01*
X113750572Y-143735788D01*
X113343188Y-143904116D01*
X113031231Y-144215529D01*
X112862193Y-144622618D01*
X112861808Y-145063408D01*
X109997808Y-145063408D01*
X109998192Y-144624552D01*
X109829864Y-144217168D01*
X109518451Y-143905211D01*
X109111362Y-143736173D01*
X108670572Y-143735788D01*
X108263188Y-143904116D01*
X108255259Y-143912031D01*
X108248451Y-143905211D01*
X107841362Y-143736173D01*
X107400572Y-143735788D01*
X106993188Y-143904116D01*
X106985259Y-143912031D01*
X106978451Y-143905211D01*
X106571362Y-143736173D01*
X106130572Y-143735788D01*
X105723188Y-143904116D01*
X105715259Y-143912031D01*
X105708451Y-143905211D01*
X105301362Y-143736173D01*
X104860572Y-143735788D01*
X104453188Y-143904116D01*
X104445259Y-143912031D01*
X104438451Y-143905211D01*
X104031362Y-143736173D01*
X103590572Y-143735788D01*
X103183188Y-143904116D01*
X103175259Y-143912031D01*
X103168451Y-143905211D01*
X102761362Y-143736173D01*
X102320572Y-143735788D01*
X101913188Y-143904116D01*
X101905259Y-143912031D01*
X101898451Y-143905211D01*
X101491362Y-143736173D01*
X101050572Y-143735788D01*
X100643188Y-143904116D01*
X100635259Y-143912031D01*
X100628451Y-143905211D01*
X100221362Y-143736173D01*
X99780572Y-143735788D01*
X99373188Y-143904116D01*
X99365259Y-143912031D01*
X99358451Y-143905211D01*
X98951362Y-143736173D01*
X98510572Y-143735788D01*
X98103188Y-143904116D01*
X98095259Y-143912031D01*
X98088451Y-143905211D01*
X97681362Y-143736173D01*
X97240572Y-143735788D01*
X96860143Y-143892978D01*
X96828451Y-143861231D01*
X96421362Y-143692193D01*
X95980572Y-143691808D01*
X95573188Y-143860136D01*
X95488524Y-143944652D01*
X95121362Y-143792193D01*
X94680572Y-143791808D01*
X94299566Y-143949237D01*
X93921362Y-143792193D01*
X93480572Y-143791808D01*
X93073188Y-143960136D01*
X93050233Y-143983051D01*
X93028451Y-143961231D01*
X92621362Y-143792193D01*
X92180572Y-143791808D01*
X91773188Y-143960136D01*
X91750233Y-143983051D01*
X91728451Y-143961231D01*
X91321362Y-143792193D01*
X90880572Y-143791808D01*
X90499566Y-143949237D01*
X90121362Y-143792193D01*
X89680572Y-143791808D01*
X89311416Y-143944341D01*
X89228451Y-143861231D01*
X88821362Y-143692193D01*
X88380572Y-143691808D01*
X87973188Y-143860136D01*
X87950233Y-143883051D01*
X87928451Y-143861231D01*
X87521362Y-143692193D01*
X87080572Y-143691808D01*
X86699566Y-143849237D01*
X86321362Y-143692193D01*
X85880572Y-143691808D01*
X85473188Y-143860136D01*
X85450233Y-143883051D01*
X85428451Y-143861231D01*
X85021362Y-143692193D01*
X84774315Y-143691977D01*
X84774777Y-143162741D01*
X84531401Y-142573725D01*
X84081145Y-142122682D01*
X83492555Y-141878279D01*
X82855241Y-141877723D01*
X82266225Y-142121099D01*
X81815182Y-142571355D01*
X81570779Y-143159945D01*
X81570223Y-143797259D01*
X78525823Y-143797259D01*
X78526377Y-143162741D01*
X78283001Y-142573725D01*
X77832745Y-142122682D01*
X77244155Y-141878279D01*
X76606841Y-141877723D01*
X76017825Y-142121099D01*
X75566782Y-142571355D01*
X75322379Y-143159945D01*
X75321876Y-143735967D01*
X75117172Y-143735788D01*
X74709788Y-143904116D01*
X74701859Y-143912031D01*
X74695051Y-143905211D01*
X74287962Y-143736173D01*
X73847172Y-143735788D01*
X73439788Y-143904116D01*
X73431859Y-143912031D01*
X73425051Y-143905211D01*
X73017962Y-143736173D01*
X72577172Y-143735788D01*
X72169788Y-143904116D01*
X72161859Y-143912031D01*
X72155051Y-143905211D01*
X71747962Y-143736173D01*
X71307172Y-143735788D01*
X70899788Y-143904116D01*
X70891859Y-143912031D01*
X70885051Y-143905211D01*
X70477962Y-143736173D01*
X70037172Y-143735788D01*
X69629788Y-143904116D01*
X69621859Y-143912031D01*
X69615051Y-143905211D01*
X69207962Y-143736173D01*
X68767172Y-143735788D01*
X68438585Y-143871558D01*
X68328451Y-143761231D01*
X67921362Y-143592193D01*
X67480572Y-143591808D01*
X67073188Y-143760136D01*
X66971099Y-143862047D01*
X66667962Y-143736173D01*
X66227172Y-143735788D01*
X65819788Y-143904116D01*
X65795482Y-143928379D01*
X65728451Y-143861231D01*
X65321362Y-143692193D01*
X64880572Y-143691808D01*
X64473188Y-143860136D01*
X64417901Y-143915327D01*
X64121362Y-143792193D01*
X63680572Y-143791808D01*
X63311416Y-143944341D01*
X63228451Y-143861231D01*
X62821362Y-143692193D01*
X62380572Y-143691808D01*
X62011416Y-143844341D01*
X61928451Y-143761231D01*
X61521362Y-143592193D01*
X61080572Y-143591808D01*
X60673188Y-143760136D01*
X60617901Y-143815327D01*
X60321362Y-143692193D01*
X59880572Y-143691808D01*
X59473188Y-143860136D01*
X59450233Y-143883051D01*
X59428451Y-143861231D01*
X59021362Y-143692193D01*
X58580572Y-143691808D01*
X58199566Y-143849237D01*
X57821362Y-143692193D01*
X57380572Y-143691808D01*
X56973188Y-143860136D01*
X56950233Y-143883051D01*
X56928451Y-143861231D01*
X56521362Y-143692193D01*
X56080572Y-143691808D01*
X55673188Y-143860136D01*
X55650233Y-143883051D01*
X55628451Y-143861231D01*
X55221362Y-143692193D01*
X54780572Y-143691808D01*
X54399566Y-143849237D01*
X54021362Y-143692193D01*
X53580572Y-143691808D01*
X53173188Y-143860136D01*
X53150233Y-143883051D01*
X53128451Y-143861231D01*
X52721362Y-143692193D01*
X52280572Y-143691808D01*
X51873188Y-143860136D01*
X51850233Y-143883051D01*
X51828451Y-143861231D01*
X51421362Y-143692193D01*
X51220915Y-143692018D01*
X51221377Y-143162741D01*
X50978001Y-142573725D01*
X50527745Y-142122682D01*
X50127000Y-141956279D01*
X50127000Y-139052606D01*
X51860178Y-137319428D01*
X113391808Y-137319428D01*
X113560136Y-137726812D01*
X113871549Y-138038769D01*
X114278638Y-138207807D01*
X114719428Y-138208192D01*
X114946989Y-138114166D01*
X114971549Y-138138769D01*
X115378638Y-138307807D01*
X115819428Y-138308192D01*
X116226812Y-138139864D01*
X116538769Y-137828451D01*
X116542515Y-137819428D01*
X122991808Y-137819428D01*
X123160136Y-138226812D01*
X123471549Y-138538769D01*
X123878638Y-138707807D01*
X124319428Y-138708192D01*
X124726812Y-138539864D01*
X125038769Y-138228451D01*
X125207807Y-137821362D01*
X125208192Y-137380572D01*
X125039864Y-136973188D01*
X124728451Y-136661231D01*
X124321362Y-136492193D01*
X123880572Y-136491808D01*
X123473188Y-136660136D01*
X123161231Y-136971549D01*
X122992193Y-137378638D01*
X122991808Y-137819428D01*
X116542515Y-137819428D01*
X116707807Y-137421362D01*
X116708192Y-136980572D01*
X116539864Y-136573188D01*
X116228451Y-136261231D01*
X115821362Y-136092193D01*
X115380572Y-136091808D01*
X115153011Y-136185834D01*
X115128451Y-136161231D01*
X114721362Y-135992193D01*
X114280572Y-135991808D01*
X113873188Y-136160136D01*
X113561231Y-136471549D01*
X113392193Y-136878638D01*
X113391808Y-137319428D01*
X51860178Y-137319428D01*
X55089803Y-134089803D01*
X55117666Y-134047789D01*
X55127000Y-134000000D01*
X55127000Y-130500000D01*
X55116994Y-130450590D01*
X55089803Y-130410197D01*
X50627000Y-125947394D01*
X50627000Y-112669428D01*
X60141808Y-112669428D01*
X60310136Y-113076812D01*
X60621549Y-113388769D01*
X61028638Y-113557807D01*
X61469428Y-113558192D01*
X61876812Y-113389864D01*
X62188769Y-113078451D01*
X62357807Y-112671362D01*
X62358192Y-112230572D01*
X62189864Y-111823188D01*
X61878451Y-111511231D01*
X61471362Y-111342193D01*
X61030572Y-111341808D01*
X60623188Y-111510136D01*
X60311231Y-111821549D01*
X60142193Y-112228638D01*
X60141808Y-112669428D01*
X50627000Y-112669428D01*
X50627000Y-110419428D01*
X59291808Y-110419428D01*
X59460136Y-110826812D01*
X59771549Y-111138769D01*
X60178638Y-111307807D01*
X60619428Y-111308192D01*
X61026812Y-111139864D01*
X61338769Y-110828451D01*
X61507807Y-110421362D01*
X61508192Y-109980572D01*
X61339864Y-109573188D01*
X61028451Y-109261231D01*
X60621362Y-109092193D01*
X60180572Y-109091808D01*
X59773188Y-109260136D01*
X59461231Y-109571549D01*
X59292193Y-109978638D01*
X59291808Y-110419428D01*
X50627000Y-110419428D01*
X50627000Y-108219428D01*
X58541808Y-108219428D01*
X58710136Y-108626812D01*
X59021549Y-108938769D01*
X59428638Y-109107807D01*
X59869428Y-109108192D01*
X60276812Y-108939864D01*
X60588769Y-108628451D01*
X60757807Y-108221362D01*
X60758192Y-107780572D01*
X60589864Y-107373188D01*
X60278451Y-107061231D01*
X59871362Y-106892193D01*
X59430572Y-106891808D01*
X59023188Y-107060136D01*
X58711231Y-107371549D01*
X58542193Y-107778638D01*
X58541808Y-108219428D01*
X50627000Y-108219428D01*
X50627000Y-104719428D01*
X58291808Y-104719428D01*
X58460136Y-105126812D01*
X58771549Y-105438769D01*
X59178638Y-105607807D01*
X59619428Y-105608192D01*
X60026812Y-105439864D01*
X60338769Y-105128451D01*
X60507807Y-104721362D01*
X60508192Y-104280572D01*
X60339864Y-103873188D01*
X60028451Y-103561231D01*
X59621362Y-103392193D01*
X59180572Y-103391808D01*
X58773188Y-103560136D01*
X58461231Y-103871549D01*
X58292193Y-104278638D01*
X58291808Y-104719428D01*
X50627000Y-104719428D01*
X50627000Y-102219428D01*
X57541808Y-102219428D01*
X57710136Y-102626812D01*
X58021549Y-102938769D01*
X58428638Y-103107807D01*
X58869428Y-103108192D01*
X59276812Y-102939864D01*
X59588769Y-102628451D01*
X59757807Y-102221362D01*
X59758192Y-101780572D01*
X59589864Y-101373188D01*
X59278451Y-101061231D01*
X58871362Y-100892193D01*
X58430572Y-100891808D01*
X58023188Y-101060136D01*
X57711231Y-101371549D01*
X57542193Y-101778638D01*
X57541808Y-102219428D01*
X50627000Y-102219428D01*
X50627000Y-99669428D01*
X56691808Y-99669428D01*
X56860136Y-100076812D01*
X57171549Y-100388769D01*
X57578638Y-100557807D01*
X58019428Y-100558192D01*
X58426812Y-100389864D01*
X58738769Y-100078451D01*
X58907807Y-99671362D01*
X58908192Y-99230572D01*
X58739864Y-98823188D01*
X58428451Y-98511231D01*
X58021362Y-98342193D01*
X57580572Y-98341808D01*
X57173188Y-98510136D01*
X56861231Y-98821549D01*
X56692193Y-99228638D01*
X56691808Y-99669428D01*
X50627000Y-99669428D01*
X50627000Y-97069428D01*
X56641808Y-97069428D01*
X56810136Y-97476812D01*
X57121549Y-97788769D01*
X57528638Y-97957807D01*
X57969428Y-97958192D01*
X58376812Y-97789864D01*
X58688769Y-97478451D01*
X58857807Y-97071362D01*
X58858192Y-96630572D01*
X58689864Y-96223188D01*
X58378451Y-95911231D01*
X57971362Y-95742193D01*
X57530572Y-95741808D01*
X57123188Y-95910136D01*
X56811231Y-96221549D01*
X56642193Y-96628638D01*
X56641808Y-97069428D01*
X50627000Y-97069428D01*
X50627000Y-94469428D01*
X56941808Y-94469428D01*
X57110136Y-94876812D01*
X57421549Y-95188769D01*
X57828638Y-95357807D01*
X58269428Y-95358192D01*
X58676812Y-95189864D01*
X58988769Y-94878451D01*
X59157807Y-94471362D01*
X59158192Y-94030572D01*
X58989864Y-93623188D01*
X58678451Y-93311231D01*
X58271362Y-93142193D01*
X57830572Y-93141808D01*
X57423188Y-93310136D01*
X57111231Y-93621549D01*
X56942193Y-94028638D01*
X56941808Y-94469428D01*
X50627000Y-94469428D01*
X50627000Y-92552606D01*
X51160178Y-92019428D01*
X55741808Y-92019428D01*
X55910136Y-92426812D01*
X56221549Y-92738769D01*
X56628638Y-92907807D01*
X57069428Y-92908192D01*
X57476812Y-92739864D01*
X57788769Y-92428451D01*
X57957807Y-92021362D01*
X57958192Y-91580572D01*
X57789864Y-91173188D01*
X57478451Y-90861231D01*
X57071362Y-90692193D01*
X56630572Y-90691808D01*
X56223188Y-90860136D01*
X55911231Y-91171549D01*
X55742193Y-91578638D01*
X55741808Y-92019428D01*
X51160178Y-92019428D01*
X53710178Y-89469428D01*
X57291808Y-89469428D01*
X57460136Y-89876812D01*
X57771549Y-90188769D01*
X58178638Y-90357807D01*
X58619428Y-90358192D01*
X59026812Y-90189864D01*
X59338769Y-89878451D01*
X59507807Y-89471362D01*
X59508192Y-89030572D01*
X59339864Y-88623188D01*
X59028451Y-88311231D01*
X58621362Y-88142193D01*
X58180572Y-88141808D01*
X57773188Y-88310136D01*
X57461231Y-88621549D01*
X57292193Y-89028638D01*
X57291808Y-89469428D01*
X53710178Y-89469428D01*
X56210178Y-86969428D01*
X58791808Y-86969428D01*
X58960136Y-87376812D01*
X59271549Y-87688769D01*
X59678638Y-87857807D01*
X60119428Y-87858192D01*
X60526812Y-87689864D01*
X60838769Y-87378451D01*
X61007807Y-86971362D01*
X61008192Y-86530572D01*
X60839864Y-86123188D01*
X60528451Y-85811231D01*
X60121362Y-85642193D01*
X59680572Y-85641808D01*
X59273188Y-85810136D01*
X58961231Y-86121549D01*
X58792193Y-86528638D01*
X58791808Y-86969428D01*
X56210178Y-86969428D01*
X58660178Y-84519428D01*
X60791808Y-84519428D01*
X60960136Y-84926812D01*
X61271549Y-85238769D01*
X61678638Y-85407807D01*
X62119428Y-85408192D01*
X62526812Y-85239864D01*
X62838769Y-84928451D01*
X62885088Y-84816903D01*
X62995327Y-85371112D01*
X63337178Y-85882727D01*
X63568991Y-86037620D01*
X63337178Y-86192513D01*
X62995327Y-86704128D01*
X62875285Y-87307620D01*
X62995327Y-87911112D01*
X63337178Y-88422727D01*
X63568991Y-88577620D01*
X63337178Y-88732513D01*
X62995327Y-89244128D01*
X62875285Y-89847620D01*
X62995327Y-90451112D01*
X63337178Y-90962727D01*
X63568991Y-91117620D01*
X63337178Y-91272513D01*
X62995327Y-91784128D01*
X62875285Y-92387620D01*
X62995327Y-92991112D01*
X63337178Y-93502727D01*
X63568991Y-93657620D01*
X63337178Y-93812513D01*
X62995327Y-94324128D01*
X62875285Y-94927620D01*
X62995327Y-95531112D01*
X63337178Y-96042727D01*
X63568991Y-96197620D01*
X63337178Y-96352513D01*
X62995327Y-96864128D01*
X62875285Y-97467620D01*
X62995327Y-98071112D01*
X63337178Y-98582727D01*
X63568991Y-98737620D01*
X63337178Y-98892513D01*
X62995327Y-99404128D01*
X62875285Y-100007620D01*
X62995327Y-100611112D01*
X63337178Y-101122727D01*
X63568991Y-101277620D01*
X63337178Y-101432513D01*
X62995327Y-101944128D01*
X62875285Y-102547620D01*
X62995327Y-103151112D01*
X63337178Y-103662727D01*
X63568991Y-103817620D01*
X63337178Y-103972513D01*
X62995327Y-104484128D01*
X62875285Y-105087620D01*
X62995327Y-105691112D01*
X63337178Y-106202727D01*
X63568991Y-106357620D01*
X63337178Y-106512513D01*
X62995327Y-107024128D01*
X62875285Y-107627620D01*
X62995327Y-108231112D01*
X63337178Y-108742727D01*
X63568991Y-108897620D01*
X63337178Y-109052513D01*
X62995327Y-109564128D01*
X62875285Y-110167620D01*
X62995327Y-110771112D01*
X63337178Y-111282727D01*
X63568991Y-111437620D01*
X63337178Y-111592513D01*
X62995327Y-112104128D01*
X62875285Y-112707620D01*
X62995327Y-113311112D01*
X63337178Y-113822727D01*
X63568991Y-113977620D01*
X63337178Y-114132513D01*
X62995327Y-114644128D01*
X62959974Y-114821858D01*
X62939864Y-114773188D01*
X62628451Y-114461231D01*
X62221362Y-114292193D01*
X61780572Y-114291808D01*
X61373188Y-114460136D01*
X61061231Y-114771549D01*
X60892193Y-115178638D01*
X60891808Y-115619428D01*
X61060136Y-116026812D01*
X61371549Y-116338769D01*
X61778638Y-116507807D01*
X62219428Y-116508192D01*
X62626812Y-116339864D01*
X62938769Y-116028451D01*
X63005861Y-115866877D01*
X63337178Y-116362727D01*
X63568991Y-116517620D01*
X63337178Y-116672513D01*
X63158114Y-116940501D01*
X62921362Y-116842193D01*
X62480572Y-116841808D01*
X62073188Y-117010136D01*
X61761231Y-117321549D01*
X61592193Y-117728638D01*
X61591808Y-118169428D01*
X61760136Y-118576812D01*
X62071549Y-118888769D01*
X62478638Y-119057807D01*
X62919428Y-119058192D01*
X63326812Y-118889864D01*
X63327874Y-118888803D01*
X63337178Y-118902727D01*
X63568991Y-119057620D01*
X63337178Y-119212513D01*
X62995327Y-119724128D01*
X62875285Y-120327620D01*
X62995327Y-120931112D01*
X63337178Y-121442727D01*
X63848793Y-121784578D01*
X64452285Y-121904620D01*
X64514075Y-121904620D01*
X65117567Y-121784578D01*
X65629182Y-121442727D01*
X65753180Y-121257151D01*
X65877178Y-121442727D01*
X66388793Y-121784578D01*
X66992285Y-121904620D01*
X67054075Y-121904620D01*
X67657567Y-121784578D01*
X68169182Y-121442727D01*
X68365918Y-121148292D01*
X68707222Y-121522803D01*
X69231688Y-121769106D01*
X69461580Y-121648439D01*
X69461580Y-120454620D01*
X69441580Y-120454620D01*
X69441580Y-120200620D01*
X69461580Y-120200620D01*
X69461580Y-120180620D01*
X69715580Y-120180620D01*
X69715580Y-120200620D01*
X69735580Y-120200620D01*
X69735580Y-120454620D01*
X69715580Y-120454620D01*
X69715580Y-121648439D01*
X69945472Y-121769106D01*
X70469938Y-121522803D01*
X70796587Y-121164373D01*
X70982578Y-121442727D01*
X71494193Y-121784578D01*
X72097685Y-121904620D01*
X72159475Y-121904620D01*
X72762967Y-121784578D01*
X73274582Y-121442727D01*
X73616433Y-120931112D01*
X73736475Y-120327620D01*
X73616433Y-119724128D01*
X73274582Y-119212513D01*
X73042769Y-119057620D01*
X73274582Y-118902727D01*
X73616433Y-118391112D01*
X73736475Y-117787620D01*
X73616433Y-117184128D01*
X73274582Y-116672513D01*
X73042769Y-116517620D01*
X73274582Y-116362727D01*
X73616433Y-115851112D01*
X73736475Y-115247620D01*
X73616433Y-114644128D01*
X73274582Y-114132513D01*
X73042769Y-113977620D01*
X73274582Y-113822727D01*
X73616433Y-113311112D01*
X73736475Y-112707620D01*
X73616433Y-112104128D01*
X73274582Y-111592513D01*
X73042769Y-111437620D01*
X73274582Y-111282727D01*
X73616433Y-110771112D01*
X73736475Y-110167620D01*
X73616433Y-109564128D01*
X73274582Y-109052513D01*
X73042769Y-108897620D01*
X73274582Y-108742727D01*
X73616433Y-108231112D01*
X73736475Y-107627620D01*
X73616433Y-107024128D01*
X73274582Y-106512513D01*
X73042769Y-106357620D01*
X73274582Y-106202727D01*
X73616433Y-105691112D01*
X73736475Y-105087620D01*
X73616433Y-104484128D01*
X73274582Y-103972513D01*
X73042769Y-103817620D01*
X73274582Y-103662727D01*
X73616433Y-103151112D01*
X73736475Y-102547620D01*
X73616433Y-101944128D01*
X73274582Y-101432513D01*
X73042769Y-101277620D01*
X73274582Y-101122727D01*
X73616433Y-100611112D01*
X73736475Y-100007620D01*
X73616433Y-99404128D01*
X73274582Y-98892513D01*
X73042769Y-98737620D01*
X73274582Y-98582727D01*
X73616433Y-98071112D01*
X73736475Y-97467620D01*
X73616433Y-96864128D01*
X73274582Y-96352513D01*
X73042769Y-96197620D01*
X73274582Y-96042727D01*
X73616433Y-95531112D01*
X73736475Y-94927620D01*
X73616433Y-94324128D01*
X73274582Y-93812513D01*
X73042769Y-93657620D01*
X73274582Y-93502727D01*
X73616433Y-92991112D01*
X73736475Y-92387620D01*
X73616433Y-91784128D01*
X73274582Y-91272513D01*
X73042769Y-91117620D01*
X73274582Y-90962727D01*
X73616433Y-90451112D01*
X73736475Y-89847620D01*
X73616433Y-89244128D01*
X73274582Y-88732513D01*
X73042769Y-88577620D01*
X73274582Y-88422727D01*
X73616433Y-87911112D01*
X73736475Y-87307620D01*
X73616433Y-86704128D01*
X73274582Y-86192513D01*
X73042769Y-86037620D01*
X73274582Y-85882727D01*
X73616433Y-85371112D01*
X73736475Y-84767620D01*
X73616433Y-84164128D01*
X73274582Y-83652513D01*
X73042769Y-83497620D01*
X73274582Y-83342727D01*
X73616433Y-82831112D01*
X73736475Y-82227620D01*
X73616433Y-81624128D01*
X73274582Y-81112513D01*
X73042769Y-80957620D01*
X73274582Y-80802727D01*
X73616433Y-80291112D01*
X73736475Y-79687620D01*
X73616433Y-79084128D01*
X73274582Y-78572513D01*
X72762967Y-78230662D01*
X72159475Y-78110620D01*
X72097685Y-78110620D01*
X71494193Y-78230662D01*
X71008824Y-78554976D01*
X70976907Y-78477921D01*
X70798278Y-78299293D01*
X70564889Y-78202620D01*
X69874330Y-78202620D01*
X69715580Y-78361370D01*
X69715580Y-79560620D01*
X69735580Y-79560620D01*
X69735580Y-79814620D01*
X69715580Y-79814620D01*
X69715580Y-79834620D01*
X69461580Y-79834620D01*
X69461580Y-79814620D01*
X69441580Y-79814620D01*
X69441580Y-79560620D01*
X69461580Y-79560620D01*
X69461580Y-78361370D01*
X69302830Y-78202620D01*
X68612271Y-78202620D01*
X68378882Y-78299293D01*
X68200253Y-78477921D01*
X68162830Y-78568269D01*
X67657567Y-78230662D01*
X67054075Y-78110620D01*
X66992285Y-78110620D01*
X66388793Y-78230662D01*
X65981600Y-78502740D01*
X65864508Y-78320774D01*
X65621565Y-78154777D01*
X65333180Y-78096378D01*
X63633180Y-78096378D01*
X63363770Y-78147071D01*
X63116334Y-78306292D01*
X62950337Y-78549235D01*
X62891938Y-78837620D01*
X62891938Y-80537620D01*
X62892761Y-80541993D01*
X62680572Y-80541808D01*
X62273188Y-80710136D01*
X61961231Y-81021549D01*
X61792193Y-81428638D01*
X61791808Y-81869428D01*
X61960136Y-82276812D01*
X62271549Y-82588769D01*
X62678638Y-82757807D01*
X62980798Y-82758071D01*
X62995327Y-82831112D01*
X63337178Y-83342727D01*
X63568991Y-83497620D01*
X63337178Y-83652513D01*
X63008136Y-84144958D01*
X63008192Y-84080572D01*
X62839864Y-83673188D01*
X62528451Y-83361231D01*
X62121362Y-83192193D01*
X61680572Y-83191808D01*
X61273188Y-83360136D01*
X60961231Y-83671549D01*
X60792193Y-84078638D01*
X60791808Y-84519428D01*
X58660178Y-84519428D01*
X59589803Y-83589803D01*
X59617666Y-83547789D01*
X59627000Y-83500000D01*
X59627000Y-77627000D01*
X74732500Y-77627000D01*
X74732500Y-129000000D01*
G04 #@! TA.AperFunction,Conductor*
D17*
G36*
X74732500Y-129000000D02*
G01*
X74802341Y-129351112D01*
X75001230Y-129648770D01*
X75298888Y-129847659D01*
X75650000Y-129917500D01*
X124350000Y-129917500D01*
X124701112Y-129847659D01*
X124998770Y-129648770D01*
X125197659Y-129351112D01*
X125267500Y-129000000D01*
X125267500Y-79685080D01*
X126281305Y-79685080D01*
X126401347Y-80288572D01*
X126743198Y-80800187D01*
X126975011Y-80955080D01*
X126743198Y-81109973D01*
X126401347Y-81621588D01*
X126281305Y-82225080D01*
X126401347Y-82828572D01*
X126743198Y-83340187D01*
X126975011Y-83495080D01*
X126743198Y-83649973D01*
X126401347Y-84161588D01*
X126281305Y-84765080D01*
X126401347Y-85368572D01*
X126743198Y-85880187D01*
X126975011Y-86035080D01*
X126743198Y-86189973D01*
X126401347Y-86701588D01*
X126281305Y-87305080D01*
X126401347Y-87908572D01*
X126743198Y-88420187D01*
X126975011Y-88575080D01*
X126743198Y-88729973D01*
X126401347Y-89241588D01*
X126281305Y-89845080D01*
X126401347Y-90448572D01*
X126743198Y-90960187D01*
X126975011Y-91115080D01*
X126743198Y-91269973D01*
X126401347Y-91781588D01*
X126281305Y-92385080D01*
X126401347Y-92988572D01*
X126743198Y-93500187D01*
X126975011Y-93655080D01*
X126743198Y-93809973D01*
X126401347Y-94321588D01*
X126281305Y-94925080D01*
X126401347Y-95528572D01*
X126743198Y-96040187D01*
X126975011Y-96195080D01*
X126743198Y-96349973D01*
X126401347Y-96861588D01*
X126281305Y-97465080D01*
X126401347Y-98068572D01*
X126743198Y-98580187D01*
X126975011Y-98735080D01*
X126743198Y-98889973D01*
X126401347Y-99401588D01*
X126281305Y-100005080D01*
X126401347Y-100608572D01*
X126743198Y-101120187D01*
X126975011Y-101275080D01*
X126743198Y-101429973D01*
X126401347Y-101941588D01*
X126281305Y-102545080D01*
X126401347Y-103148572D01*
X126743198Y-103660187D01*
X126975011Y-103815080D01*
X126743198Y-103969973D01*
X126401347Y-104481588D01*
X126281305Y-105085080D01*
X126401347Y-105688572D01*
X126743198Y-106200187D01*
X126975011Y-106355080D01*
X126743198Y-106509973D01*
X126401347Y-107021588D01*
X126281305Y-107625080D01*
X126401347Y-108228572D01*
X126743198Y-108740187D01*
X126975011Y-108895080D01*
X126743198Y-109049973D01*
X126401347Y-109561588D01*
X126281305Y-110165080D01*
X126401347Y-110768572D01*
X126743198Y-111280187D01*
X126975011Y-111435080D01*
X126743198Y-111589973D01*
X126401347Y-112101588D01*
X126281305Y-112705080D01*
X126401347Y-113308572D01*
X126743198Y-113820187D01*
X126975011Y-113975080D01*
X126743198Y-114129973D01*
X126401347Y-114641588D01*
X126281305Y-115245080D01*
X126401347Y-115848572D01*
X126743198Y-116360187D01*
X126975011Y-116515080D01*
X126743198Y-116669973D01*
X126401347Y-117181588D01*
X126281305Y-117785080D01*
X126401347Y-118388572D01*
X126743198Y-118900187D01*
X126975011Y-119055080D01*
X126743198Y-119209973D01*
X126401347Y-119721588D01*
X126281305Y-120325080D01*
X126401347Y-120928572D01*
X126743198Y-121440187D01*
X127254813Y-121782038D01*
X127858305Y-121902080D01*
X127920095Y-121902080D01*
X128523587Y-121782038D01*
X129008956Y-121457724D01*
X129040873Y-121534779D01*
X129219502Y-121713407D01*
X129452891Y-121810080D01*
X130143450Y-121810080D01*
X130302200Y-121651330D01*
X130302200Y-120452080D01*
X130282200Y-120452080D01*
X130282200Y-120198080D01*
X130302200Y-120198080D01*
X130302200Y-120178080D01*
X130556200Y-120178080D01*
X130556200Y-120198080D01*
X130576200Y-120198080D01*
X130576200Y-120452080D01*
X130556200Y-120452080D01*
X130556200Y-121651330D01*
X130714950Y-121810080D01*
X131405509Y-121810080D01*
X131638898Y-121713407D01*
X131817527Y-121534779D01*
X131839526Y-121481669D01*
X132273853Y-121771878D01*
X132877345Y-121891920D01*
X132939135Y-121891920D01*
X133542627Y-121771878D01*
X133949820Y-121499800D01*
X134066912Y-121681766D01*
X134309855Y-121847763D01*
X134598240Y-121906162D01*
X136298240Y-121906162D01*
X136567650Y-121855469D01*
X136815086Y-121696248D01*
X136981083Y-121453305D01*
X137039482Y-121164920D01*
X137039482Y-119464920D01*
X136988789Y-119195510D01*
X136829568Y-118948074D01*
X136641376Y-118819487D01*
X136936093Y-118378412D01*
X136971161Y-118202113D01*
X137061928Y-118202192D01*
X137469312Y-118033864D01*
X137781269Y-117722451D01*
X137950307Y-117315362D01*
X137950692Y-116874572D01*
X137782364Y-116467188D01*
X137470951Y-116155231D01*
X137063862Y-115986193D01*
X136837481Y-115985995D01*
X136936093Y-115838412D01*
X136971161Y-115662113D01*
X137061928Y-115662192D01*
X137469312Y-115493864D01*
X137781269Y-115182451D01*
X137950307Y-114775362D01*
X137950692Y-114334572D01*
X137782364Y-113927188D01*
X137470951Y-113615231D01*
X137063862Y-113446193D01*
X136837481Y-113445995D01*
X136936093Y-113298412D01*
X136971161Y-113122113D01*
X137061928Y-113122192D01*
X137469312Y-112953864D01*
X137781269Y-112642451D01*
X137950307Y-112235362D01*
X137950692Y-111794572D01*
X137782364Y-111387188D01*
X137470951Y-111075231D01*
X137063862Y-110906193D01*
X136837481Y-110905995D01*
X136936093Y-110758412D01*
X136971161Y-110582113D01*
X137061928Y-110582192D01*
X137469312Y-110413864D01*
X137781269Y-110102451D01*
X137950307Y-109695362D01*
X137950692Y-109254572D01*
X137782364Y-108847188D01*
X137470951Y-108535231D01*
X137063862Y-108366193D01*
X136837481Y-108365995D01*
X136936093Y-108218412D01*
X136971161Y-108042113D01*
X137061928Y-108042192D01*
X137469312Y-107873864D01*
X137781269Y-107562451D01*
X137950307Y-107155362D01*
X137950692Y-106714572D01*
X137782364Y-106307188D01*
X137470951Y-105995231D01*
X137063862Y-105826193D01*
X136837481Y-105825995D01*
X136936093Y-105678412D01*
X136971161Y-105502113D01*
X137061928Y-105502192D01*
X137469312Y-105333864D01*
X137781269Y-105022451D01*
X137950307Y-104615362D01*
X137950692Y-104174572D01*
X137782364Y-103767188D01*
X137470951Y-103455231D01*
X137063862Y-103286193D01*
X136837481Y-103285995D01*
X136936093Y-103138412D01*
X136971161Y-102962113D01*
X137061928Y-102962192D01*
X137469312Y-102793864D01*
X137781269Y-102482451D01*
X137950307Y-102075362D01*
X137950692Y-101634572D01*
X137782364Y-101227188D01*
X137470951Y-100915231D01*
X137063862Y-100746193D01*
X136837481Y-100745995D01*
X136936093Y-100598412D01*
X136971161Y-100422113D01*
X137061928Y-100422192D01*
X137469312Y-100253864D01*
X137781269Y-99942451D01*
X137950307Y-99535362D01*
X137950692Y-99094572D01*
X137782364Y-98687188D01*
X137470951Y-98375231D01*
X137063862Y-98206193D01*
X136837481Y-98205995D01*
X136936093Y-98058412D01*
X136971161Y-97882113D01*
X137061928Y-97882192D01*
X137469312Y-97713864D01*
X137781269Y-97402451D01*
X137950307Y-96995362D01*
X137950692Y-96554572D01*
X137782364Y-96147188D01*
X137470951Y-95835231D01*
X137063862Y-95666193D01*
X136837481Y-95665995D01*
X136936093Y-95518412D01*
X136971161Y-95342113D01*
X137061928Y-95342192D01*
X137469312Y-95173864D01*
X137781269Y-94862451D01*
X137950307Y-94455362D01*
X137950692Y-94014572D01*
X137782364Y-93607188D01*
X137470951Y-93295231D01*
X137063862Y-93126193D01*
X136837481Y-93125995D01*
X136936093Y-92978412D01*
X136958543Y-92865546D01*
X137125428Y-92865692D01*
X137532812Y-92697364D01*
X137844769Y-92385951D01*
X138013807Y-91978862D01*
X138014192Y-91538072D01*
X137845864Y-91130688D01*
X137534451Y-90818731D01*
X137127362Y-90649693D01*
X136795113Y-90649403D01*
X136936093Y-90438412D01*
X136971161Y-90262113D01*
X137061928Y-90262192D01*
X137469312Y-90093864D01*
X137781269Y-89782451D01*
X137950307Y-89375362D01*
X137950692Y-88934572D01*
X137782364Y-88527188D01*
X137470951Y-88215231D01*
X137063862Y-88046193D01*
X136837481Y-88045995D01*
X136936093Y-87898412D01*
X136971172Y-87722057D01*
X137125428Y-87722192D01*
X137532812Y-87553864D01*
X137844769Y-87242451D01*
X138013807Y-86835362D01*
X138014192Y-86394572D01*
X137845864Y-85987188D01*
X137534451Y-85675231D01*
X137127362Y-85506193D01*
X136837518Y-85505940D01*
X136936093Y-85358412D01*
X136958554Y-85245491D01*
X137188928Y-85245692D01*
X137596312Y-85077364D01*
X137908269Y-84765951D01*
X138077307Y-84358862D01*
X138077692Y-83918072D01*
X137909364Y-83510688D01*
X137597951Y-83198731D01*
X137190862Y-83029693D01*
X136795150Y-83029347D01*
X136936093Y-82818412D01*
X136971216Y-82641835D01*
X137379428Y-82642192D01*
X137786812Y-82473864D01*
X138098769Y-82162451D01*
X138267807Y-81755362D01*
X138268192Y-81314572D01*
X138099864Y-80907188D01*
X137788451Y-80595231D01*
X137381362Y-80426193D01*
X136940572Y-80425808D01*
X136798337Y-80484579D01*
X136936093Y-80278412D01*
X137056135Y-79674920D01*
X136936093Y-79071428D01*
X136594242Y-78559813D01*
X136082627Y-78217962D01*
X135479135Y-78097920D01*
X135417345Y-78097920D01*
X134813853Y-78217962D01*
X134302238Y-78559813D01*
X134178240Y-78745389D01*
X134054242Y-78559813D01*
X133542627Y-78217962D01*
X132939135Y-78097920D01*
X132877345Y-78097920D01*
X132273853Y-78217962D01*
X131762238Y-78559813D01*
X131598118Y-78805435D01*
X131310558Y-78489897D01*
X130786092Y-78243594D01*
X130556200Y-78364261D01*
X130556200Y-79558080D01*
X130576200Y-79558080D01*
X130576200Y-79812080D01*
X130556200Y-79812080D01*
X130556200Y-79832080D01*
X130302200Y-79832080D01*
X130302200Y-79812080D01*
X130282200Y-79812080D01*
X130282200Y-79558080D01*
X130302200Y-79558080D01*
X130302200Y-78364261D01*
X130072308Y-78243594D01*
X129547842Y-78489897D01*
X129221193Y-78848327D01*
X129035202Y-78569973D01*
X128523587Y-78228122D01*
X127920095Y-78108080D01*
X127858305Y-78108080D01*
X127254813Y-78228122D01*
X126743198Y-78569973D01*
X126401347Y-79081588D01*
X126281305Y-79685080D01*
X125267500Y-79685080D01*
X125267500Y-77627000D01*
X140373000Y-77627000D01*
X140373000Y-83000000D01*
X140383006Y-83049410D01*
X140410197Y-83089803D01*
X148873000Y-91552606D01*
X148873000Y-126447394D01*
X145410197Y-129910197D01*
X145382334Y-129952211D01*
X145373000Y-130000000D01*
X145373000Y-130494611D01*
X145073684Y-131215445D01*
X145072320Y-132777702D01*
X145668911Y-134221560D01*
X146772629Y-135327207D01*
X148215445Y-135926316D01*
X148246737Y-135926343D01*
X149873000Y-137552606D01*
X149873000Y-141956494D01*
X149474625Y-142121099D01*
X149023582Y-142571355D01*
X148779179Y-143159945D01*
X148778676Y-143735967D01*
X148573972Y-143735788D01*
X148166588Y-143904116D01*
X148158659Y-143912031D01*
X148151851Y-143905211D01*
X147744762Y-143736173D01*
X147303972Y-143735788D01*
X146896588Y-143904116D01*
X146888659Y-143912031D01*
X146881851Y-143905211D01*
X146474762Y-143736173D01*
X146033972Y-143735788D01*
X145626588Y-143904116D01*
X145618659Y-143912031D01*
X145611851Y-143905211D01*
X145204762Y-143736173D01*
X144763972Y-143735788D01*
X144356588Y-143904116D01*
X144348659Y-143912031D01*
X144341851Y-143905211D01*
X143934762Y-143736173D01*
X143493972Y-143735788D01*
X143086588Y-143904116D01*
X143078659Y-143912031D01*
X143071851Y-143905211D01*
X142664762Y-143736173D01*
X142223972Y-143735788D01*
X141816588Y-143904116D01*
X141808659Y-143912031D01*
X141801851Y-143905211D01*
X141394762Y-143736173D01*
X140953972Y-143735788D01*
X140546588Y-143904116D01*
X140538659Y-143912031D01*
X140531851Y-143905211D01*
X140124762Y-143736173D01*
X139683972Y-143735788D01*
X139276588Y-143904116D01*
X139268659Y-143912031D01*
X139261851Y-143905211D01*
X138854762Y-143736173D01*
X138413972Y-143735788D01*
X138006588Y-143904116D01*
X137998659Y-143912031D01*
X137991851Y-143905211D01*
X137584762Y-143736173D01*
X137143972Y-143735788D01*
X136761136Y-143893973D01*
X136728451Y-143861231D01*
X136321362Y-143692193D01*
X135880572Y-143691808D01*
X135473188Y-143860136D01*
X135388524Y-143944652D01*
X135021362Y-143792193D01*
X134580572Y-143791808D01*
X134218139Y-143941563D01*
X134181851Y-143905211D01*
X133774762Y-143736173D01*
X133333972Y-143735788D01*
X132926588Y-143904116D01*
X132918659Y-143912031D01*
X132911851Y-143905211D01*
X132504762Y-143736173D01*
X132063972Y-143735788D01*
X131656588Y-143904116D01*
X131607915Y-143952704D01*
X131221362Y-143792193D01*
X130780572Y-143791808D01*
X130411059Y-143944488D01*
X130371851Y-143905211D01*
X129964762Y-143736173D01*
X129523972Y-143735788D01*
X129116588Y-143904116D01*
X129108659Y-143912031D01*
X129101851Y-143905211D01*
X128694762Y-143736173D01*
X128253972Y-143735788D01*
X127846588Y-143904116D01*
X127838659Y-143912031D01*
X127831851Y-143905211D01*
X127424762Y-143736173D01*
X126983972Y-143735788D01*
X126576588Y-143904116D01*
X126568659Y-143912031D01*
X126561851Y-143905211D01*
X126154762Y-143736173D01*
X125713972Y-143735788D01*
X125306588Y-143904116D01*
X125298659Y-143912031D01*
X125291851Y-143905211D01*
X124884762Y-143736173D01*
X124677677Y-143735992D01*
X124678177Y-143162741D01*
X124434801Y-142573725D01*
X123984545Y-142122682D01*
X123395955Y-141878279D01*
X122758641Y-141877723D01*
X122169625Y-142121099D01*
X121718582Y-142571355D01*
X121474179Y-143159945D01*
X121473623Y-143797259D01*
X121716999Y-144386275D01*
X122167255Y-144837318D01*
X122755845Y-145081721D01*
X123393159Y-145082277D01*
X123555250Y-145015302D01*
X123555208Y-145063408D01*
X123723536Y-145470792D01*
X124034949Y-145782749D01*
X124442038Y-145951787D01*
X124882828Y-145952172D01*
X125290212Y-145783844D01*
X125298141Y-145775929D01*
X125304949Y-145782749D01*
X125712038Y-145951787D01*
X126152828Y-145952172D01*
X126560212Y-145783844D01*
X126568141Y-145775929D01*
X126574949Y-145782749D01*
X126982038Y-145951787D01*
X127422828Y-145952172D01*
X127830212Y-145783844D01*
X127838141Y-145775929D01*
X127844949Y-145782749D01*
X128252038Y-145951787D01*
X128692828Y-145952172D01*
X129100212Y-145783844D01*
X129108141Y-145775929D01*
X129114949Y-145782749D01*
X129522038Y-145951787D01*
X129962828Y-145952172D01*
X130332341Y-145799492D01*
X130371549Y-145838769D01*
X130778638Y-146007807D01*
X131219428Y-146008192D01*
X131626812Y-145839864D01*
X131675485Y-145791276D01*
X132062038Y-145951787D01*
X132502828Y-145952172D01*
X132910212Y-145783844D01*
X132918141Y-145775929D01*
X132924949Y-145782749D01*
X133332038Y-145951787D01*
X133772828Y-145952172D01*
X134135261Y-145802417D01*
X134171549Y-145838769D01*
X134578638Y-146007807D01*
X135019428Y-146008192D01*
X135426812Y-145839864D01*
X135511476Y-145755348D01*
X135878638Y-145907807D01*
X136319428Y-145908192D01*
X136702264Y-145750007D01*
X136734949Y-145782749D01*
X137142038Y-145951787D01*
X137582828Y-145952172D01*
X137990212Y-145783844D01*
X137998141Y-145775929D01*
X138004949Y-145782749D01*
X138412038Y-145951787D01*
X138852828Y-145952172D01*
X139260212Y-145783844D01*
X139268141Y-145775929D01*
X139274949Y-145782749D01*
X139682038Y-145951787D01*
X140122828Y-145952172D01*
X140530212Y-145783844D01*
X140538141Y-145775929D01*
X140544949Y-145782749D01*
X140952038Y-145951787D01*
X141392828Y-145952172D01*
X141800212Y-145783844D01*
X141808141Y-145775929D01*
X141814949Y-145782749D01*
X142222038Y-145951787D01*
X142662828Y-145952172D01*
X143070212Y-145783844D01*
X143078141Y-145775929D01*
X143084949Y-145782749D01*
X143492038Y-145951787D01*
X143932828Y-145952172D01*
X144340212Y-145783844D01*
X144348141Y-145775929D01*
X144354949Y-145782749D01*
X144762038Y-145951787D01*
X145202828Y-145952172D01*
X145610212Y-145783844D01*
X145618141Y-145775929D01*
X145624949Y-145782749D01*
X146032038Y-145951787D01*
X146472828Y-145952172D01*
X146880212Y-145783844D01*
X146888141Y-145775929D01*
X146894949Y-145782749D01*
X147302038Y-145951787D01*
X147742828Y-145952172D01*
X148150212Y-145783844D01*
X148158141Y-145775929D01*
X148164949Y-145782749D01*
X148572038Y-145951787D01*
X149012828Y-145952172D01*
X149420212Y-145783844D01*
X149732169Y-145472431D01*
X149873000Y-145133272D01*
X149873000Y-145633182D01*
X149433182Y-146073000D01*
X50266818Y-146073000D01*
X50127000Y-145933182D01*
X50127000Y-145104599D01*
X50260136Y-145426812D01*
X50571549Y-145738769D01*
X50978638Y-145907807D01*
X51419428Y-145908192D01*
X51826812Y-145739864D01*
X51849767Y-145716949D01*
X51871549Y-145738769D01*
X52278638Y-145907807D01*
X52719428Y-145908192D01*
X53126812Y-145739864D01*
X53149767Y-145716949D01*
X53171549Y-145738769D01*
X53578638Y-145907807D01*
X54019428Y-145908192D01*
X54400434Y-145750763D01*
X54778638Y-145907807D01*
X55219428Y-145908192D01*
X55626812Y-145739864D01*
X55649767Y-145716949D01*
X55671549Y-145738769D01*
X56078638Y-145907807D01*
X56519428Y-145908192D01*
X56926812Y-145739864D01*
X56949767Y-145716949D01*
X56971549Y-145738769D01*
X57378638Y-145907807D01*
X57819428Y-145908192D01*
X58200434Y-145750763D01*
X58578638Y-145907807D01*
X59019428Y-145908192D01*
X59426812Y-145739864D01*
X59449767Y-145716949D01*
X59471549Y-145738769D01*
X59878638Y-145907807D01*
X60319428Y-145908192D01*
X60726812Y-145739864D01*
X60782099Y-145684673D01*
X61078638Y-145807807D01*
X61519428Y-145808192D01*
X61888584Y-145655659D01*
X61971549Y-145738769D01*
X62378638Y-145907807D01*
X62819428Y-145908192D01*
X63188584Y-145755659D01*
X63271549Y-145838769D01*
X63678638Y-146007807D01*
X64119428Y-146008192D01*
X64526812Y-145839864D01*
X64582099Y-145784673D01*
X64878638Y-145907807D01*
X65319428Y-145908192D01*
X65726812Y-145739864D01*
X65751118Y-145715601D01*
X65818149Y-145782749D01*
X66225238Y-145951787D01*
X66666028Y-145952172D01*
X67073412Y-145783844D01*
X67175501Y-145681933D01*
X67478638Y-145807807D01*
X67919428Y-145808192D01*
X68248015Y-145672422D01*
X68358149Y-145782749D01*
X68765238Y-145951787D01*
X69206028Y-145952172D01*
X69613412Y-145783844D01*
X69621341Y-145775929D01*
X69628149Y-145782749D01*
X70035238Y-145951787D01*
X70476028Y-145952172D01*
X70883412Y-145783844D01*
X70891341Y-145775929D01*
X70898149Y-145782749D01*
X71305238Y-145951787D01*
X71746028Y-145952172D01*
X72153412Y-145783844D01*
X72161341Y-145775929D01*
X72168149Y-145782749D01*
X72575238Y-145951787D01*
X73016028Y-145952172D01*
X73423412Y-145783844D01*
X73431341Y-145775929D01*
X73438149Y-145782749D01*
X73845238Y-145951787D01*
X74286028Y-145952172D01*
X74693412Y-145783844D01*
X74701341Y-145775929D01*
X74708149Y-145782749D01*
X75115238Y-145951787D01*
X75556028Y-145952172D01*
X75963412Y-145783844D01*
X76275369Y-145472431D01*
X76444407Y-145065342D01*
X76444451Y-145015452D01*
X76604045Y-145081721D01*
X77241359Y-145082277D01*
X77830375Y-144838901D01*
X78281418Y-144388645D01*
X78525821Y-143800055D01*
X78525823Y-143797259D01*
X81570223Y-143797259D01*
X81813599Y-144386275D01*
X82263855Y-144837318D01*
X82852445Y-145081721D01*
X83489759Y-145082277D01*
X83691826Y-144998785D01*
X83691808Y-145019428D01*
X83860136Y-145426812D01*
X84171549Y-145738769D01*
X84578638Y-145907807D01*
X85019428Y-145908192D01*
X85426812Y-145739864D01*
X85449767Y-145716949D01*
X85471549Y-145738769D01*
X85878638Y-145907807D01*
X86319428Y-145908192D01*
X86700434Y-145750763D01*
X87078638Y-145907807D01*
X87519428Y-145908192D01*
X87926812Y-145739864D01*
X87949767Y-145716949D01*
X87971549Y-145738769D01*
X88378638Y-145907807D01*
X88819428Y-145908192D01*
X89188584Y-145755659D01*
X89271549Y-145838769D01*
X89678638Y-146007807D01*
X90119428Y-146008192D01*
X90500434Y-145850763D01*
X90878638Y-146007807D01*
X91319428Y-146008192D01*
X91726812Y-145839864D01*
X91749767Y-145816949D01*
X91771549Y-145838769D01*
X92178638Y-146007807D01*
X92619428Y-146008192D01*
X93026812Y-145839864D01*
X93049767Y-145816949D01*
X93071549Y-145838769D01*
X93478638Y-146007807D01*
X93919428Y-146008192D01*
X94300434Y-145850763D01*
X94678638Y-146007807D01*
X95119428Y-146008192D01*
X95526812Y-145839864D01*
X95611476Y-145755348D01*
X95978638Y-145907807D01*
X96419428Y-145908192D01*
X96799857Y-145751002D01*
X96831549Y-145782749D01*
X97238638Y-145951787D01*
X97679428Y-145952172D01*
X98086812Y-145783844D01*
X98094741Y-145775929D01*
X98101549Y-145782749D01*
X98508638Y-145951787D01*
X98949428Y-145952172D01*
X99356812Y-145783844D01*
X99364741Y-145775929D01*
X99371549Y-145782749D01*
X99778638Y-145951787D01*
X100219428Y-145952172D01*
X100626812Y-145783844D01*
X100634741Y-145775929D01*
X100641549Y-145782749D01*
X101048638Y-145951787D01*
X101489428Y-145952172D01*
X101896812Y-145783844D01*
X101904741Y-145775929D01*
X101911549Y-145782749D01*
X102318638Y-145951787D01*
X102759428Y-145952172D01*
X103166812Y-145783844D01*
X103174741Y-145775929D01*
X103181549Y-145782749D01*
X103588638Y-145951787D01*
X104029428Y-145952172D01*
X104436812Y-145783844D01*
X104444741Y-145775929D01*
X104451549Y-145782749D01*
X104858638Y-145951787D01*
X105299428Y-145952172D01*
X105706812Y-145783844D01*
X105714741Y-145775929D01*
X105721549Y-145782749D01*
X106128638Y-145951787D01*
X106569428Y-145952172D01*
X106976812Y-145783844D01*
X106984741Y-145775929D01*
X106991549Y-145782749D01*
X107398638Y-145951787D01*
X107839428Y-145952172D01*
X108246812Y-145783844D01*
X108254741Y-145775929D01*
X108261549Y-145782749D01*
X108668638Y-145951787D01*
X109109428Y-145952172D01*
X109516812Y-145783844D01*
X109828769Y-145472431D01*
X109997807Y-145065342D01*
X109997808Y-145063408D01*
X112861808Y-145063408D01*
X113030136Y-145470792D01*
X113341549Y-145782749D01*
X113748638Y-145951787D01*
X114189428Y-145952172D01*
X114596812Y-145783844D01*
X114908769Y-145472431D01*
X115077807Y-145065342D01*
X115078192Y-144624552D01*
X114909864Y-144217168D01*
X114598451Y-143905211D01*
X114338474Y-143797259D01*
X115225223Y-143797259D01*
X115468599Y-144386275D01*
X115918855Y-144837318D01*
X116507445Y-145081721D01*
X117144759Y-145082277D01*
X117733775Y-144838901D01*
X118184818Y-144388645D01*
X118429221Y-143800055D01*
X118429777Y-143162741D01*
X118186401Y-142573725D01*
X117736145Y-142122682D01*
X117147555Y-141878279D01*
X116510241Y-141877723D01*
X115921225Y-142121099D01*
X115470182Y-142571355D01*
X115225779Y-143159945D01*
X115225223Y-143797259D01*
X114338474Y-143797259D01*
X114191362Y-143736173D01*
X113750572Y-143735788D01*
X113343188Y-143904116D01*
X113031231Y-144215529D01*
X112862193Y-144622618D01*
X112861808Y-145063408D01*
X109997808Y-145063408D01*
X109998192Y-144624552D01*
X109829864Y-144217168D01*
X109518451Y-143905211D01*
X109111362Y-143736173D01*
X108670572Y-143735788D01*
X108263188Y-143904116D01*
X108255259Y-143912031D01*
X108248451Y-143905211D01*
X107841362Y-143736173D01*
X107400572Y-143735788D01*
X106993188Y-143904116D01*
X106985259Y-143912031D01*
X106978451Y-143905211D01*
X106571362Y-143736173D01*
X106130572Y-143735788D01*
X105723188Y-143904116D01*
X105715259Y-143912031D01*
X105708451Y-143905211D01*
X105301362Y-143736173D01*
X104860572Y-143735788D01*
X104453188Y-143904116D01*
X104445259Y-143912031D01*
X104438451Y-143905211D01*
X104031362Y-143736173D01*
X103590572Y-143735788D01*
X103183188Y-143904116D01*
X103175259Y-143912031D01*
X103168451Y-143905211D01*
X102761362Y-143736173D01*
X102320572Y-143735788D01*
X101913188Y-143904116D01*
X101905259Y-143912031D01*
X101898451Y-143905211D01*
X101491362Y-143736173D01*
X101050572Y-143735788D01*
X100643188Y-143904116D01*
X100635259Y-143912031D01*
X100628451Y-143905211D01*
X100221362Y-143736173D01*
X99780572Y-143735788D01*
X99373188Y-143904116D01*
X99365259Y-143912031D01*
X99358451Y-143905211D01*
X98951362Y-143736173D01*
X98510572Y-143735788D01*
X98103188Y-143904116D01*
X98095259Y-143912031D01*
X98088451Y-143905211D01*
X97681362Y-143736173D01*
X97240572Y-143735788D01*
X96860143Y-143892978D01*
X96828451Y-143861231D01*
X96421362Y-143692193D01*
X95980572Y-143691808D01*
X95573188Y-143860136D01*
X95488524Y-143944652D01*
X95121362Y-143792193D01*
X94680572Y-143791808D01*
X94299566Y-143949237D01*
X93921362Y-143792193D01*
X93480572Y-143791808D01*
X93073188Y-143960136D01*
X93050233Y-143983051D01*
X93028451Y-143961231D01*
X92621362Y-143792193D01*
X92180572Y-143791808D01*
X91773188Y-143960136D01*
X91750233Y-143983051D01*
X91728451Y-143961231D01*
X91321362Y-143792193D01*
X90880572Y-143791808D01*
X90499566Y-143949237D01*
X90121362Y-143792193D01*
X89680572Y-143791808D01*
X89311416Y-143944341D01*
X89228451Y-143861231D01*
X88821362Y-143692193D01*
X88380572Y-143691808D01*
X87973188Y-143860136D01*
X87950233Y-143883051D01*
X87928451Y-143861231D01*
X87521362Y-143692193D01*
X87080572Y-143691808D01*
X86699566Y-143849237D01*
X86321362Y-143692193D01*
X85880572Y-143691808D01*
X85473188Y-143860136D01*
X85450233Y-143883051D01*
X85428451Y-143861231D01*
X85021362Y-143692193D01*
X84774315Y-143691977D01*
X84774777Y-143162741D01*
X84531401Y-142573725D01*
X84081145Y-142122682D01*
X83492555Y-141878279D01*
X82855241Y-141877723D01*
X82266225Y-142121099D01*
X81815182Y-142571355D01*
X81570779Y-143159945D01*
X81570223Y-143797259D01*
X78525823Y-143797259D01*
X78526377Y-143162741D01*
X78283001Y-142573725D01*
X77832745Y-142122682D01*
X77244155Y-141878279D01*
X76606841Y-141877723D01*
X76017825Y-142121099D01*
X75566782Y-142571355D01*
X75322379Y-143159945D01*
X75321876Y-143735967D01*
X75117172Y-143735788D01*
X74709788Y-143904116D01*
X74701859Y-143912031D01*
X74695051Y-143905211D01*
X74287962Y-143736173D01*
X73847172Y-143735788D01*
X73439788Y-143904116D01*
X73431859Y-143912031D01*
X73425051Y-143905211D01*
X73017962Y-143736173D01*
X72577172Y-143735788D01*
X72169788Y-143904116D01*
X72161859Y-143912031D01*
X72155051Y-143905211D01*
X71747962Y-143736173D01*
X71307172Y-143735788D01*
X70899788Y-143904116D01*
X70891859Y-143912031D01*
X70885051Y-143905211D01*
X70477962Y-143736173D01*
X70037172Y-143735788D01*
X69629788Y-143904116D01*
X69621859Y-143912031D01*
X69615051Y-143905211D01*
X69207962Y-143736173D01*
X68767172Y-143735788D01*
X68438585Y-143871558D01*
X68328451Y-143761231D01*
X67921362Y-143592193D01*
X67480572Y-143591808D01*
X67073188Y-143760136D01*
X66971099Y-143862047D01*
X66667962Y-143736173D01*
X66227172Y-143735788D01*
X65819788Y-143904116D01*
X65795482Y-143928379D01*
X65728451Y-143861231D01*
X65321362Y-143692193D01*
X64880572Y-143691808D01*
X64473188Y-143860136D01*
X64417901Y-143915327D01*
X64121362Y-143792193D01*
X63680572Y-143791808D01*
X63311416Y-143944341D01*
X63228451Y-143861231D01*
X62821362Y-143692193D01*
X62380572Y-143691808D01*
X62011416Y-143844341D01*
X61928451Y-143761231D01*
X61521362Y-143592193D01*
X61080572Y-143591808D01*
X60673188Y-143760136D01*
X60617901Y-143815327D01*
X60321362Y-143692193D01*
X59880572Y-143691808D01*
X59473188Y-143860136D01*
X59450233Y-143883051D01*
X59428451Y-143861231D01*
X59021362Y-143692193D01*
X58580572Y-143691808D01*
X58199566Y-143849237D01*
X57821362Y-143692193D01*
X57380572Y-143691808D01*
X56973188Y-143860136D01*
X56950233Y-143883051D01*
X56928451Y-143861231D01*
X56521362Y-143692193D01*
X56080572Y-143691808D01*
X55673188Y-143860136D01*
X55650233Y-143883051D01*
X55628451Y-143861231D01*
X55221362Y-143692193D01*
X54780572Y-143691808D01*
X54399566Y-143849237D01*
X54021362Y-143692193D01*
X53580572Y-143691808D01*
X53173188Y-143860136D01*
X53150233Y-143883051D01*
X53128451Y-143861231D01*
X52721362Y-143692193D01*
X52280572Y-143691808D01*
X51873188Y-143860136D01*
X51850233Y-143883051D01*
X51828451Y-143861231D01*
X51421362Y-143692193D01*
X51220915Y-143692018D01*
X51221377Y-143162741D01*
X50978001Y-142573725D01*
X50527745Y-142122682D01*
X50127000Y-141956279D01*
X50127000Y-139052606D01*
X51860178Y-137319428D01*
X113391808Y-137319428D01*
X113560136Y-137726812D01*
X113871549Y-138038769D01*
X114278638Y-138207807D01*
X114719428Y-138208192D01*
X114946989Y-138114166D01*
X114971549Y-138138769D01*
X115378638Y-138307807D01*
X115819428Y-138308192D01*
X116226812Y-138139864D01*
X116538769Y-137828451D01*
X116542515Y-137819428D01*
X122991808Y-137819428D01*
X123160136Y-138226812D01*
X123471549Y-138538769D01*
X123878638Y-138707807D01*
X124319428Y-138708192D01*
X124726812Y-138539864D01*
X125038769Y-138228451D01*
X125207807Y-137821362D01*
X125208192Y-137380572D01*
X125039864Y-136973188D01*
X124728451Y-136661231D01*
X124321362Y-136492193D01*
X123880572Y-136491808D01*
X123473188Y-136660136D01*
X123161231Y-136971549D01*
X122992193Y-137378638D01*
X122991808Y-137819428D01*
X116542515Y-137819428D01*
X116707807Y-137421362D01*
X116708192Y-136980572D01*
X116539864Y-136573188D01*
X116228451Y-136261231D01*
X115821362Y-136092193D01*
X115380572Y-136091808D01*
X115153011Y-136185834D01*
X115128451Y-136161231D01*
X114721362Y-135992193D01*
X114280572Y-135991808D01*
X113873188Y-136160136D01*
X113561231Y-136471549D01*
X113392193Y-136878638D01*
X113391808Y-137319428D01*
X51860178Y-137319428D01*
X55089803Y-134089803D01*
X55117666Y-134047789D01*
X55127000Y-134000000D01*
X55127000Y-130500000D01*
X55116994Y-130450590D01*
X55089803Y-130410197D01*
X50627000Y-125947394D01*
X50627000Y-112669428D01*
X60141808Y-112669428D01*
X60310136Y-113076812D01*
X60621549Y-113388769D01*
X61028638Y-113557807D01*
X61469428Y-113558192D01*
X61876812Y-113389864D01*
X62188769Y-113078451D01*
X62357807Y-112671362D01*
X62358192Y-112230572D01*
X62189864Y-111823188D01*
X61878451Y-111511231D01*
X61471362Y-111342193D01*
X61030572Y-111341808D01*
X60623188Y-111510136D01*
X60311231Y-111821549D01*
X60142193Y-112228638D01*
X60141808Y-112669428D01*
X50627000Y-112669428D01*
X50627000Y-110419428D01*
X59291808Y-110419428D01*
X59460136Y-110826812D01*
X59771549Y-111138769D01*
X60178638Y-111307807D01*
X60619428Y-111308192D01*
X61026812Y-111139864D01*
X61338769Y-110828451D01*
X61507807Y-110421362D01*
X61508192Y-109980572D01*
X61339864Y-109573188D01*
X61028451Y-109261231D01*
X60621362Y-109092193D01*
X60180572Y-109091808D01*
X59773188Y-109260136D01*
X59461231Y-109571549D01*
X59292193Y-109978638D01*
X59291808Y-110419428D01*
X50627000Y-110419428D01*
X50627000Y-108219428D01*
X58541808Y-108219428D01*
X58710136Y-108626812D01*
X59021549Y-108938769D01*
X59428638Y-109107807D01*
X59869428Y-109108192D01*
X60276812Y-108939864D01*
X60588769Y-108628451D01*
X60757807Y-108221362D01*
X60758192Y-107780572D01*
X60589864Y-107373188D01*
X60278451Y-107061231D01*
X59871362Y-106892193D01*
X59430572Y-106891808D01*
X59023188Y-107060136D01*
X58711231Y-107371549D01*
X58542193Y-107778638D01*
X58541808Y-108219428D01*
X50627000Y-108219428D01*
X50627000Y-104719428D01*
X58291808Y-104719428D01*
X58460136Y-105126812D01*
X58771549Y-105438769D01*
X59178638Y-105607807D01*
X59619428Y-105608192D01*
X60026812Y-105439864D01*
X60338769Y-105128451D01*
X60507807Y-104721362D01*
X60508192Y-104280572D01*
X60339864Y-103873188D01*
X60028451Y-103561231D01*
X59621362Y-103392193D01*
X59180572Y-103391808D01*
X58773188Y-103560136D01*
X58461231Y-103871549D01*
X58292193Y-104278638D01*
X58291808Y-104719428D01*
X50627000Y-104719428D01*
X50627000Y-102219428D01*
X57541808Y-102219428D01*
X57710136Y-102626812D01*
X58021549Y-102938769D01*
X58428638Y-103107807D01*
X58869428Y-103108192D01*
X59276812Y-102939864D01*
X59588769Y-102628451D01*
X59757807Y-102221362D01*
X59758192Y-101780572D01*
X59589864Y-101373188D01*
X59278451Y-101061231D01*
X58871362Y-100892193D01*
X58430572Y-100891808D01*
X58023188Y-101060136D01*
X57711231Y-101371549D01*
X57542193Y-101778638D01*
X57541808Y-102219428D01*
X50627000Y-102219428D01*
X50627000Y-99669428D01*
X56691808Y-99669428D01*
X56860136Y-100076812D01*
X57171549Y-100388769D01*
X57578638Y-100557807D01*
X58019428Y-100558192D01*
X58426812Y-100389864D01*
X58738769Y-100078451D01*
X58907807Y-99671362D01*
X58908192Y-99230572D01*
X58739864Y-98823188D01*
X58428451Y-98511231D01*
X58021362Y-98342193D01*
X57580572Y-98341808D01*
X57173188Y-98510136D01*
X56861231Y-98821549D01*
X56692193Y-99228638D01*
X56691808Y-99669428D01*
X50627000Y-99669428D01*
X50627000Y-97069428D01*
X56641808Y-97069428D01*
X56810136Y-97476812D01*
X57121549Y-97788769D01*
X57528638Y-97957807D01*
X57969428Y-97958192D01*
X58376812Y-97789864D01*
X58688769Y-97478451D01*
X58857807Y-97071362D01*
X58858192Y-96630572D01*
X58689864Y-96223188D01*
X58378451Y-95911231D01*
X57971362Y-95742193D01*
X57530572Y-95741808D01*
X57123188Y-95910136D01*
X56811231Y-96221549D01*
X56642193Y-96628638D01*
X56641808Y-97069428D01*
X50627000Y-97069428D01*
X50627000Y-94469428D01*
X56941808Y-94469428D01*
X57110136Y-94876812D01*
X57421549Y-95188769D01*
X57828638Y-95357807D01*
X58269428Y-95358192D01*
X58676812Y-95189864D01*
X58988769Y-94878451D01*
X59157807Y-94471362D01*
X59158192Y-94030572D01*
X58989864Y-93623188D01*
X58678451Y-93311231D01*
X58271362Y-93142193D01*
X57830572Y-93141808D01*
X57423188Y-93310136D01*
X57111231Y-93621549D01*
X56942193Y-94028638D01*
X56941808Y-94469428D01*
X50627000Y-94469428D01*
X50627000Y-92552606D01*
X51160178Y-92019428D01*
X55741808Y-92019428D01*
X55910136Y-92426812D01*
X56221549Y-92738769D01*
X56628638Y-92907807D01*
X57069428Y-92908192D01*
X57476812Y-92739864D01*
X57788769Y-92428451D01*
X57957807Y-92021362D01*
X57958192Y-91580572D01*
X57789864Y-91173188D01*
X57478451Y-90861231D01*
X57071362Y-90692193D01*
X56630572Y-90691808D01*
X56223188Y-90860136D01*
X55911231Y-91171549D01*
X55742193Y-91578638D01*
X55741808Y-92019428D01*
X51160178Y-92019428D01*
X53710178Y-89469428D01*
X57291808Y-89469428D01*
X57460136Y-89876812D01*
X57771549Y-90188769D01*
X58178638Y-90357807D01*
X58619428Y-90358192D01*
X59026812Y-90189864D01*
X59338769Y-89878451D01*
X59507807Y-89471362D01*
X59508192Y-89030572D01*
X59339864Y-88623188D01*
X59028451Y-88311231D01*
X58621362Y-88142193D01*
X58180572Y-88141808D01*
X57773188Y-88310136D01*
X57461231Y-88621549D01*
X57292193Y-89028638D01*
X57291808Y-89469428D01*
X53710178Y-89469428D01*
X56210178Y-86969428D01*
X58791808Y-86969428D01*
X58960136Y-87376812D01*
X59271549Y-87688769D01*
X59678638Y-87857807D01*
X60119428Y-87858192D01*
X60526812Y-87689864D01*
X60838769Y-87378451D01*
X61007807Y-86971362D01*
X61008192Y-86530572D01*
X60839864Y-86123188D01*
X60528451Y-85811231D01*
X60121362Y-85642193D01*
X59680572Y-85641808D01*
X59273188Y-85810136D01*
X58961231Y-86121549D01*
X58792193Y-86528638D01*
X58791808Y-86969428D01*
X56210178Y-86969428D01*
X58660178Y-84519428D01*
X60791808Y-84519428D01*
X60960136Y-84926812D01*
X61271549Y-85238769D01*
X61678638Y-85407807D01*
X62119428Y-85408192D01*
X62526812Y-85239864D01*
X62838769Y-84928451D01*
X62885088Y-84816903D01*
X62995327Y-85371112D01*
X63337178Y-85882727D01*
X63568991Y-86037620D01*
X63337178Y-86192513D01*
X62995327Y-86704128D01*
X62875285Y-87307620D01*
X62995327Y-87911112D01*
X63337178Y-88422727D01*
X63568991Y-88577620D01*
X63337178Y-88732513D01*
X62995327Y-89244128D01*
X62875285Y-89847620D01*
X62995327Y-90451112D01*
X63337178Y-90962727D01*
X63568991Y-91117620D01*
X63337178Y-91272513D01*
X62995327Y-91784128D01*
X62875285Y-92387620D01*
X62995327Y-92991112D01*
X63337178Y-93502727D01*
X63568991Y-93657620D01*
X63337178Y-93812513D01*
X62995327Y-94324128D01*
X62875285Y-94927620D01*
X62995327Y-95531112D01*
X63337178Y-96042727D01*
X63568991Y-96197620D01*
X63337178Y-96352513D01*
X62995327Y-96864128D01*
X62875285Y-97467620D01*
X62995327Y-98071112D01*
X63337178Y-98582727D01*
X63568991Y-98737620D01*
X63337178Y-98892513D01*
X62995327Y-99404128D01*
X62875285Y-100007620D01*
X62995327Y-100611112D01*
X63337178Y-101122727D01*
X63568991Y-101277620D01*
X63337178Y-101432513D01*
X62995327Y-101944128D01*
X62875285Y-102547620D01*
X62995327Y-103151112D01*
X63337178Y-103662727D01*
X63568991Y-103817620D01*
X63337178Y-103972513D01*
X62995327Y-104484128D01*
X62875285Y-105087620D01*
X62995327Y-105691112D01*
X63337178Y-106202727D01*
X63568991Y-106357620D01*
X63337178Y-106512513D01*
X62995327Y-107024128D01*
X62875285Y-107627620D01*
X62995327Y-108231112D01*
X63337178Y-108742727D01*
X63568991Y-108897620D01*
X63337178Y-109052513D01*
X62995327Y-109564128D01*
X62875285Y-110167620D01*
X62995327Y-110771112D01*
X63337178Y-111282727D01*
X63568991Y-111437620D01*
X63337178Y-111592513D01*
X62995327Y-112104128D01*
X62875285Y-112707620D01*
X62995327Y-113311112D01*
X63337178Y-113822727D01*
X63568991Y-113977620D01*
X63337178Y-114132513D01*
X62995327Y-114644128D01*
X62959974Y-114821858D01*
X62939864Y-114773188D01*
X62628451Y-114461231D01*
X62221362Y-114292193D01*
X61780572Y-114291808D01*
X61373188Y-114460136D01*
X61061231Y-114771549D01*
X60892193Y-115178638D01*
X60891808Y-115619428D01*
X61060136Y-116026812D01*
X61371549Y-116338769D01*
X61778638Y-116507807D01*
X62219428Y-116508192D01*
X62626812Y-116339864D01*
X62938769Y-116028451D01*
X63005861Y-115866877D01*
X63337178Y-116362727D01*
X63568991Y-116517620D01*
X63337178Y-116672513D01*
X63158114Y-116940501D01*
X62921362Y-116842193D01*
X62480572Y-116841808D01*
X62073188Y-117010136D01*
X61761231Y-117321549D01*
X61592193Y-117728638D01*
X61591808Y-118169428D01*
X61760136Y-118576812D01*
X62071549Y-118888769D01*
X62478638Y-119057807D01*
X62919428Y-119058192D01*
X63326812Y-118889864D01*
X63327874Y-118888803D01*
X63337178Y-118902727D01*
X63568991Y-119057620D01*
X63337178Y-119212513D01*
X62995327Y-119724128D01*
X62875285Y-120327620D01*
X62995327Y-120931112D01*
X63337178Y-121442727D01*
X63848793Y-121784578D01*
X64452285Y-121904620D01*
X64514075Y-121904620D01*
X65117567Y-121784578D01*
X65629182Y-121442727D01*
X65753180Y-121257151D01*
X65877178Y-121442727D01*
X66388793Y-121784578D01*
X66992285Y-121904620D01*
X67054075Y-121904620D01*
X67657567Y-121784578D01*
X68169182Y-121442727D01*
X68365918Y-121148292D01*
X68707222Y-121522803D01*
X69231688Y-121769106D01*
X69461580Y-121648439D01*
X69461580Y-120454620D01*
X69441580Y-120454620D01*
X69441580Y-120200620D01*
X69461580Y-120200620D01*
X69461580Y-120180620D01*
X69715580Y-120180620D01*
X69715580Y-120200620D01*
X69735580Y-120200620D01*
X69735580Y-120454620D01*
X69715580Y-120454620D01*
X69715580Y-121648439D01*
X69945472Y-121769106D01*
X70469938Y-121522803D01*
X70796587Y-121164373D01*
X70982578Y-121442727D01*
X71494193Y-121784578D01*
X72097685Y-121904620D01*
X72159475Y-121904620D01*
X72762967Y-121784578D01*
X73274582Y-121442727D01*
X73616433Y-120931112D01*
X73736475Y-120327620D01*
X73616433Y-119724128D01*
X73274582Y-119212513D01*
X73042769Y-119057620D01*
X73274582Y-118902727D01*
X73616433Y-118391112D01*
X73736475Y-117787620D01*
X73616433Y-117184128D01*
X73274582Y-116672513D01*
X73042769Y-116517620D01*
X73274582Y-116362727D01*
X73616433Y-115851112D01*
X73736475Y-115247620D01*
X73616433Y-114644128D01*
X73274582Y-114132513D01*
X73042769Y-113977620D01*
X73274582Y-113822727D01*
X73616433Y-113311112D01*
X73736475Y-112707620D01*
X73616433Y-112104128D01*
X73274582Y-111592513D01*
X73042769Y-111437620D01*
X73274582Y-111282727D01*
X73616433Y-110771112D01*
X73736475Y-110167620D01*
X73616433Y-109564128D01*
X73274582Y-109052513D01*
X73042769Y-108897620D01*
X73274582Y-108742727D01*
X73616433Y-108231112D01*
X73736475Y-107627620D01*
X73616433Y-107024128D01*
X73274582Y-106512513D01*
X73042769Y-106357620D01*
X73274582Y-106202727D01*
X73616433Y-105691112D01*
X73736475Y-105087620D01*
X73616433Y-104484128D01*
X73274582Y-103972513D01*
X73042769Y-103817620D01*
X73274582Y-103662727D01*
X73616433Y-103151112D01*
X73736475Y-102547620D01*
X73616433Y-101944128D01*
X73274582Y-101432513D01*
X73042769Y-101277620D01*
X73274582Y-101122727D01*
X73616433Y-100611112D01*
X73736475Y-100007620D01*
X73616433Y-99404128D01*
X73274582Y-98892513D01*
X73042769Y-98737620D01*
X73274582Y-98582727D01*
X73616433Y-98071112D01*
X73736475Y-97467620D01*
X73616433Y-96864128D01*
X73274582Y-96352513D01*
X73042769Y-96197620D01*
X73274582Y-96042727D01*
X73616433Y-95531112D01*
X73736475Y-94927620D01*
X73616433Y-94324128D01*
X73274582Y-93812513D01*
X73042769Y-93657620D01*
X73274582Y-93502727D01*
X73616433Y-92991112D01*
X73736475Y-92387620D01*
X73616433Y-91784128D01*
X73274582Y-91272513D01*
X73042769Y-91117620D01*
X73274582Y-90962727D01*
X73616433Y-90451112D01*
X73736475Y-89847620D01*
X73616433Y-89244128D01*
X73274582Y-88732513D01*
X73042769Y-88577620D01*
X73274582Y-88422727D01*
X73616433Y-87911112D01*
X73736475Y-87307620D01*
X73616433Y-86704128D01*
X73274582Y-86192513D01*
X73042769Y-86037620D01*
X73274582Y-85882727D01*
X73616433Y-85371112D01*
X73736475Y-84767620D01*
X73616433Y-84164128D01*
X73274582Y-83652513D01*
X73042769Y-83497620D01*
X73274582Y-83342727D01*
X73616433Y-82831112D01*
X73736475Y-82227620D01*
X73616433Y-81624128D01*
X73274582Y-81112513D01*
X73042769Y-80957620D01*
X73274582Y-80802727D01*
X73616433Y-80291112D01*
X73736475Y-79687620D01*
X73616433Y-79084128D01*
X73274582Y-78572513D01*
X72762967Y-78230662D01*
X72159475Y-78110620D01*
X72097685Y-78110620D01*
X71494193Y-78230662D01*
X71008824Y-78554976D01*
X70976907Y-78477921D01*
X70798278Y-78299293D01*
X70564889Y-78202620D01*
X69874330Y-78202620D01*
X69715580Y-78361370D01*
X69715580Y-79560620D01*
X69735580Y-79560620D01*
X69735580Y-79814620D01*
X69715580Y-79814620D01*
X69715580Y-79834620D01*
X69461580Y-79834620D01*
X69461580Y-79814620D01*
X69441580Y-79814620D01*
X69441580Y-79560620D01*
X69461580Y-79560620D01*
X69461580Y-78361370D01*
X69302830Y-78202620D01*
X68612271Y-78202620D01*
X68378882Y-78299293D01*
X68200253Y-78477921D01*
X68162830Y-78568269D01*
X67657567Y-78230662D01*
X67054075Y-78110620D01*
X66992285Y-78110620D01*
X66388793Y-78230662D01*
X65981600Y-78502740D01*
X65864508Y-78320774D01*
X65621565Y-78154777D01*
X65333180Y-78096378D01*
X63633180Y-78096378D01*
X63363770Y-78147071D01*
X63116334Y-78306292D01*
X62950337Y-78549235D01*
X62891938Y-78837620D01*
X62891938Y-80537620D01*
X62892761Y-80541993D01*
X62680572Y-80541808D01*
X62273188Y-80710136D01*
X61961231Y-81021549D01*
X61792193Y-81428638D01*
X61791808Y-81869428D01*
X61960136Y-82276812D01*
X62271549Y-82588769D01*
X62678638Y-82757807D01*
X62980798Y-82758071D01*
X62995327Y-82831112D01*
X63337178Y-83342727D01*
X63568991Y-83497620D01*
X63337178Y-83652513D01*
X63008136Y-84144958D01*
X63008192Y-84080572D01*
X62839864Y-83673188D01*
X62528451Y-83361231D01*
X62121362Y-83192193D01*
X61680572Y-83191808D01*
X61273188Y-83360136D01*
X60961231Y-83671549D01*
X60792193Y-84078638D01*
X60791808Y-84519428D01*
X58660178Y-84519428D01*
X59589803Y-83589803D01*
X59617666Y-83547789D01*
X59627000Y-83500000D01*
X59627000Y-77627000D01*
X74732500Y-77627000D01*
X74732500Y-129000000D01*
G37*
G04 #@! TD.AperFunction*
M02*
