G04 #@! TF.GenerationSoftware,KiCad,Pcbnew,5.1.9+dfsg1-1~bpo10+1*
G04 #@! TF.CreationDate,2021-11-09T03:07:47+00:00*
G04 #@! TF.ProjectId,120-channel-pogo-pin-board,3132302d-6368-4616-9e6e-656c2d706f67,v3.4*
G04 #@! TF.SameCoordinates,Original*
G04 #@! TF.FileFunction,Soldermask,Top*
G04 #@! TF.FilePolarity,Negative*
%FSLAX46Y46*%
G04 Gerber Fmt 4.6, Leading zero omitted, Abs format (unit mm)*
G04 Created by KiCad (PCBNEW 5.1.9+dfsg1-1~bpo10+1) date 2021-11-09 03:07:47*
%MOMM*%
%LPD*%
G01*
G04 APERTURE LIST*
%ADD10O,2.208000X2.208000*%
%ADD11C,2.258000*%
%ADD12C,6.908000*%
G04 APERTURE END LIST*
G36*
G01*
X63379180Y-80537620D02*
X63379180Y-78837620D01*
G75*
G02*
X63633180Y-78583620I254000J0D01*
G01*
X65333180Y-78583620D01*
G75*
G02*
X65587180Y-78837620I0J-254000D01*
G01*
X65587180Y-80537620D01*
G75*
G02*
X65333180Y-80791620I-254000J0D01*
G01*
X63633180Y-80791620D01*
G75*
G02*
X63379180Y-80537620I0J254000D01*
G01*
G37*
D10*
X67023180Y-79687620D03*
X64483180Y-82227620D03*
X67023180Y-82227620D03*
X64483180Y-84767620D03*
X67023180Y-84767620D03*
X64483180Y-87307620D03*
X67023180Y-87307620D03*
X64483180Y-89847620D03*
X67023180Y-89847620D03*
X64483180Y-92387620D03*
X67023180Y-92387620D03*
X64483180Y-94927620D03*
X67023180Y-94927620D03*
X64483180Y-97467620D03*
X67023180Y-97467620D03*
X64483180Y-100007620D03*
X67023180Y-100007620D03*
X64483180Y-102547620D03*
X67023180Y-102547620D03*
X64483180Y-105087620D03*
X67023180Y-105087620D03*
X64483180Y-107627620D03*
X67023180Y-107627620D03*
X64483180Y-110167620D03*
X67023180Y-110167620D03*
X64483180Y-112707620D03*
X67023180Y-112707620D03*
X64483180Y-115247620D03*
X67023180Y-115247620D03*
X64483180Y-117787620D03*
X67023180Y-117787620D03*
X67023180Y-120327620D03*
X64483180Y-120327620D03*
G36*
G01*
X63284300Y-143226000D02*
X63284300Y-141006040D01*
G75*
G02*
X63538300Y-140752040I254000J0D01*
G01*
X64274900Y-140752040D01*
G75*
G02*
X64528900Y-141006040I0J-254000D01*
G01*
X64528900Y-143226000D01*
G75*
G02*
X64274900Y-143480000I-254000J0D01*
G01*
X63538300Y-143480000D01*
G75*
G02*
X63284300Y-143226000I0J254000D01*
G01*
G37*
G36*
G01*
X63284300Y-145953960D02*
X63284300Y-143734000D01*
G75*
G02*
X63538300Y-143480000I254000J0D01*
G01*
X64274900Y-143480000D01*
G75*
G02*
X64528900Y-143734000I0J-254000D01*
G01*
X64528900Y-145953960D01*
G75*
G02*
X64274900Y-146207960I-254000J0D01*
G01*
X63538300Y-146207960D01*
G75*
G02*
X63284300Y-145953960I0J254000D01*
G01*
G37*
G36*
G01*
X64554300Y-143226000D02*
X64554300Y-141006040D01*
G75*
G02*
X64808300Y-140752040I254000J0D01*
G01*
X65544900Y-140752040D01*
G75*
G02*
X65798900Y-141006040I0J-254000D01*
G01*
X65798900Y-143226000D01*
G75*
G02*
X65544900Y-143480000I-254000J0D01*
G01*
X64808300Y-143480000D01*
G75*
G02*
X64554300Y-143226000I0J254000D01*
G01*
G37*
G36*
G01*
X64554300Y-145953960D02*
X64554300Y-143734000D01*
G75*
G02*
X64808300Y-143480000I254000J0D01*
G01*
X65544900Y-143480000D01*
G75*
G02*
X65798900Y-143734000I0J-254000D01*
G01*
X65798900Y-145953960D01*
G75*
G02*
X65544900Y-146207960I-254000J0D01*
G01*
X64808300Y-146207960D01*
G75*
G02*
X64554300Y-145953960I0J254000D01*
G01*
G37*
G36*
G01*
X65824300Y-143226000D02*
X65824300Y-141006040D01*
G75*
G02*
X66078300Y-140752040I254000J0D01*
G01*
X66814900Y-140752040D01*
G75*
G02*
X67068900Y-141006040I0J-254000D01*
G01*
X67068900Y-143226000D01*
G75*
G02*
X66814900Y-143480000I-254000J0D01*
G01*
X66078300Y-143480000D01*
G75*
G02*
X65824300Y-143226000I0J254000D01*
G01*
G37*
G36*
G01*
X65824300Y-145953960D02*
X65824300Y-143734000D01*
G75*
G02*
X66078300Y-143480000I254000J0D01*
G01*
X66814900Y-143480000D01*
G75*
G02*
X67068900Y-143734000I0J-254000D01*
G01*
X67068900Y-145953960D01*
G75*
G02*
X66814900Y-146207960I-254000J0D01*
G01*
X66078300Y-146207960D01*
G75*
G02*
X65824300Y-145953960I0J254000D01*
G01*
G37*
G36*
G01*
X67094300Y-143226000D02*
X67094300Y-141006040D01*
G75*
G02*
X67348300Y-140752040I254000J0D01*
G01*
X68084900Y-140752040D01*
G75*
G02*
X68338900Y-141006040I0J-254000D01*
G01*
X68338900Y-143226000D01*
G75*
G02*
X68084900Y-143480000I-254000J0D01*
G01*
X67348300Y-143480000D01*
G75*
G02*
X67094300Y-143226000I0J254000D01*
G01*
G37*
G36*
G01*
X67094300Y-145953960D02*
X67094300Y-143734000D01*
G75*
G02*
X67348300Y-143480000I254000J0D01*
G01*
X68084900Y-143480000D01*
G75*
G02*
X68338900Y-143734000I0J-254000D01*
G01*
X68338900Y-145953960D01*
G75*
G02*
X68084900Y-146207960I-254000J0D01*
G01*
X67348300Y-146207960D01*
G75*
G02*
X67094300Y-145953960I0J254000D01*
G01*
G37*
G36*
G01*
X68364300Y-143226000D02*
X68364300Y-141006040D01*
G75*
G02*
X68618300Y-140752040I254000J0D01*
G01*
X69354900Y-140752040D01*
G75*
G02*
X69608900Y-141006040I0J-254000D01*
G01*
X69608900Y-143226000D01*
G75*
G02*
X69354900Y-143480000I-254000J0D01*
G01*
X68618300Y-143480000D01*
G75*
G02*
X68364300Y-143226000I0J254000D01*
G01*
G37*
G36*
G01*
X68364300Y-145953960D02*
X68364300Y-143734000D01*
G75*
G02*
X68618300Y-143480000I254000J0D01*
G01*
X69354900Y-143480000D01*
G75*
G02*
X69608900Y-143734000I0J-254000D01*
G01*
X69608900Y-145953960D01*
G75*
G02*
X69354900Y-146207960I-254000J0D01*
G01*
X68618300Y-146207960D01*
G75*
G02*
X68364300Y-145953960I0J254000D01*
G01*
G37*
G36*
G01*
X50584300Y-143226000D02*
X50584300Y-141006040D01*
G75*
G02*
X50838300Y-140752040I254000J0D01*
G01*
X51574900Y-140752040D01*
G75*
G02*
X51828900Y-141006040I0J-254000D01*
G01*
X51828900Y-143226000D01*
G75*
G02*
X51574900Y-143480000I-254000J0D01*
G01*
X50838300Y-143480000D01*
G75*
G02*
X50584300Y-143226000I0J254000D01*
G01*
G37*
G36*
G01*
X50584300Y-145953960D02*
X50584300Y-143734000D01*
G75*
G02*
X50838300Y-143480000I254000J0D01*
G01*
X51574900Y-143480000D01*
G75*
G02*
X51828900Y-143734000I0J-254000D01*
G01*
X51828900Y-145953960D01*
G75*
G02*
X51574900Y-146207960I-254000J0D01*
G01*
X50838300Y-146207960D01*
G75*
G02*
X50584300Y-145953960I0J254000D01*
G01*
G37*
G36*
G01*
X51854300Y-143226000D02*
X51854300Y-141006040D01*
G75*
G02*
X52108300Y-140752040I254000J0D01*
G01*
X52844900Y-140752040D01*
G75*
G02*
X53098900Y-141006040I0J-254000D01*
G01*
X53098900Y-143226000D01*
G75*
G02*
X52844900Y-143480000I-254000J0D01*
G01*
X52108300Y-143480000D01*
G75*
G02*
X51854300Y-143226000I0J254000D01*
G01*
G37*
G36*
G01*
X51854300Y-145953960D02*
X51854300Y-143734000D01*
G75*
G02*
X52108300Y-143480000I254000J0D01*
G01*
X52844900Y-143480000D01*
G75*
G02*
X53098900Y-143734000I0J-254000D01*
G01*
X53098900Y-145953960D01*
G75*
G02*
X52844900Y-146207960I-254000J0D01*
G01*
X52108300Y-146207960D01*
G75*
G02*
X51854300Y-145953960I0J254000D01*
G01*
G37*
G36*
G01*
X53124300Y-143226000D02*
X53124300Y-141006040D01*
G75*
G02*
X53378300Y-140752040I254000J0D01*
G01*
X54114900Y-140752040D01*
G75*
G02*
X54368900Y-141006040I0J-254000D01*
G01*
X54368900Y-143226000D01*
G75*
G02*
X54114900Y-143480000I-254000J0D01*
G01*
X53378300Y-143480000D01*
G75*
G02*
X53124300Y-143226000I0J254000D01*
G01*
G37*
G36*
G01*
X53124300Y-145953960D02*
X53124300Y-143734000D01*
G75*
G02*
X53378300Y-143480000I254000J0D01*
G01*
X54114900Y-143480000D01*
G75*
G02*
X54368900Y-143734000I0J-254000D01*
G01*
X54368900Y-145953960D01*
G75*
G02*
X54114900Y-146207960I-254000J0D01*
G01*
X53378300Y-146207960D01*
G75*
G02*
X53124300Y-145953960I0J254000D01*
G01*
G37*
G36*
G01*
X54394300Y-143226000D02*
X54394300Y-141006040D01*
G75*
G02*
X54648300Y-140752040I254000J0D01*
G01*
X55384900Y-140752040D01*
G75*
G02*
X55638900Y-141006040I0J-254000D01*
G01*
X55638900Y-143226000D01*
G75*
G02*
X55384900Y-143480000I-254000J0D01*
G01*
X54648300Y-143480000D01*
G75*
G02*
X54394300Y-143226000I0J254000D01*
G01*
G37*
G36*
G01*
X54394300Y-145953960D02*
X54394300Y-143734000D01*
G75*
G02*
X54648300Y-143480000I254000J0D01*
G01*
X55384900Y-143480000D01*
G75*
G02*
X55638900Y-143734000I0J-254000D01*
G01*
X55638900Y-145953960D01*
G75*
G02*
X55384900Y-146207960I-254000J0D01*
G01*
X54648300Y-146207960D01*
G75*
G02*
X54394300Y-145953960I0J254000D01*
G01*
G37*
G36*
G01*
X55664300Y-143226000D02*
X55664300Y-141006040D01*
G75*
G02*
X55918300Y-140752040I254000J0D01*
G01*
X56654900Y-140752040D01*
G75*
G02*
X56908900Y-141006040I0J-254000D01*
G01*
X56908900Y-143226000D01*
G75*
G02*
X56654900Y-143480000I-254000J0D01*
G01*
X55918300Y-143480000D01*
G75*
G02*
X55664300Y-143226000I0J254000D01*
G01*
G37*
G36*
G01*
X55664300Y-145953960D02*
X55664300Y-143734000D01*
G75*
G02*
X55918300Y-143480000I254000J0D01*
G01*
X56654900Y-143480000D01*
G75*
G02*
X56908900Y-143734000I0J-254000D01*
G01*
X56908900Y-145953960D01*
G75*
G02*
X56654900Y-146207960I-254000J0D01*
G01*
X55918300Y-146207960D01*
G75*
G02*
X55664300Y-145953960I0J254000D01*
G01*
G37*
G36*
G01*
X74714300Y-145953960D02*
X74714300Y-143734000D01*
G75*
G02*
X74968300Y-143480000I254000J0D01*
G01*
X75704900Y-143480000D01*
G75*
G02*
X75958900Y-143734000I0J-254000D01*
G01*
X75958900Y-145953960D01*
G75*
G02*
X75704900Y-146207960I-254000J0D01*
G01*
X74968300Y-146207960D01*
G75*
G02*
X74714300Y-145953960I0J254000D01*
G01*
G37*
G36*
G01*
X74714300Y-143226000D02*
X74714300Y-141006040D01*
G75*
G02*
X74968300Y-140752040I254000J0D01*
G01*
X75704900Y-140752040D01*
G75*
G02*
X75958900Y-141006040I0J-254000D01*
G01*
X75958900Y-143226000D01*
G75*
G02*
X75704900Y-143480000I-254000J0D01*
G01*
X74968300Y-143480000D01*
G75*
G02*
X74714300Y-143226000I0J254000D01*
G01*
G37*
G36*
G01*
X73444300Y-145953960D02*
X73444300Y-143734000D01*
G75*
G02*
X73698300Y-143480000I254000J0D01*
G01*
X74434900Y-143480000D01*
G75*
G02*
X74688900Y-143734000I0J-254000D01*
G01*
X74688900Y-145953960D01*
G75*
G02*
X74434900Y-146207960I-254000J0D01*
G01*
X73698300Y-146207960D01*
G75*
G02*
X73444300Y-145953960I0J254000D01*
G01*
G37*
G36*
G01*
X73444300Y-143226000D02*
X73444300Y-141006040D01*
G75*
G02*
X73698300Y-140752040I254000J0D01*
G01*
X74434900Y-140752040D01*
G75*
G02*
X74688900Y-141006040I0J-254000D01*
G01*
X74688900Y-143226000D01*
G75*
G02*
X74434900Y-143480000I-254000J0D01*
G01*
X73698300Y-143480000D01*
G75*
G02*
X73444300Y-143226000I0J254000D01*
G01*
G37*
G36*
G01*
X72174300Y-145953960D02*
X72174300Y-143734000D01*
G75*
G02*
X72428300Y-143480000I254000J0D01*
G01*
X73164900Y-143480000D01*
G75*
G02*
X73418900Y-143734000I0J-254000D01*
G01*
X73418900Y-145953960D01*
G75*
G02*
X73164900Y-146207960I-254000J0D01*
G01*
X72428300Y-146207960D01*
G75*
G02*
X72174300Y-145953960I0J254000D01*
G01*
G37*
G36*
G01*
X72174300Y-143226000D02*
X72174300Y-141006040D01*
G75*
G02*
X72428300Y-140752040I254000J0D01*
G01*
X73164900Y-140752040D01*
G75*
G02*
X73418900Y-141006040I0J-254000D01*
G01*
X73418900Y-143226000D01*
G75*
G02*
X73164900Y-143480000I-254000J0D01*
G01*
X72428300Y-143480000D01*
G75*
G02*
X72174300Y-143226000I0J254000D01*
G01*
G37*
G36*
G01*
X70904300Y-145953960D02*
X70904300Y-143734000D01*
G75*
G02*
X71158300Y-143480000I254000J0D01*
G01*
X71894900Y-143480000D01*
G75*
G02*
X72148900Y-143734000I0J-254000D01*
G01*
X72148900Y-145953960D01*
G75*
G02*
X71894900Y-146207960I-254000J0D01*
G01*
X71158300Y-146207960D01*
G75*
G02*
X70904300Y-145953960I0J254000D01*
G01*
G37*
G36*
G01*
X70904300Y-143226000D02*
X70904300Y-141006040D01*
G75*
G02*
X71158300Y-140752040I254000J0D01*
G01*
X71894900Y-140752040D01*
G75*
G02*
X72148900Y-141006040I0J-254000D01*
G01*
X72148900Y-143226000D01*
G75*
G02*
X71894900Y-143480000I-254000J0D01*
G01*
X71158300Y-143480000D01*
G75*
G02*
X70904300Y-143226000I0J254000D01*
G01*
G37*
G36*
G01*
X69634300Y-145953960D02*
X69634300Y-143734000D01*
G75*
G02*
X69888300Y-143480000I254000J0D01*
G01*
X70624900Y-143480000D01*
G75*
G02*
X70878900Y-143734000I0J-254000D01*
G01*
X70878900Y-145953960D01*
G75*
G02*
X70624900Y-146207960I-254000J0D01*
G01*
X69888300Y-146207960D01*
G75*
G02*
X69634300Y-145953960I0J254000D01*
G01*
G37*
G36*
G01*
X69634300Y-143226000D02*
X69634300Y-141006040D01*
G75*
G02*
X69888300Y-140752040I254000J0D01*
G01*
X70624900Y-140752040D01*
G75*
G02*
X70878900Y-141006040I0J-254000D01*
G01*
X70878900Y-143226000D01*
G75*
G02*
X70624900Y-143480000I-254000J0D01*
G01*
X69888300Y-143480000D01*
G75*
G02*
X69634300Y-143226000I0J254000D01*
G01*
G37*
G36*
G01*
X62014300Y-145953960D02*
X62014300Y-143734000D01*
G75*
G02*
X62268300Y-143480000I254000J0D01*
G01*
X63004900Y-143480000D01*
G75*
G02*
X63258900Y-143734000I0J-254000D01*
G01*
X63258900Y-145953960D01*
G75*
G02*
X63004900Y-146207960I-254000J0D01*
G01*
X62268300Y-146207960D01*
G75*
G02*
X62014300Y-145953960I0J254000D01*
G01*
G37*
G36*
G01*
X62014300Y-143226000D02*
X62014300Y-141006040D01*
G75*
G02*
X62268300Y-140752040I254000J0D01*
G01*
X63004900Y-140752040D01*
G75*
G02*
X63258900Y-141006040I0J-254000D01*
G01*
X63258900Y-143226000D01*
G75*
G02*
X63004900Y-143480000I-254000J0D01*
G01*
X62268300Y-143480000D01*
G75*
G02*
X62014300Y-143226000I0J254000D01*
G01*
G37*
G36*
G01*
X60744300Y-145953960D02*
X60744300Y-143734000D01*
G75*
G02*
X60998300Y-143480000I254000J0D01*
G01*
X61734900Y-143480000D01*
G75*
G02*
X61988900Y-143734000I0J-254000D01*
G01*
X61988900Y-145953960D01*
G75*
G02*
X61734900Y-146207960I-254000J0D01*
G01*
X60998300Y-146207960D01*
G75*
G02*
X60744300Y-145953960I0J254000D01*
G01*
G37*
G36*
G01*
X60744300Y-143226000D02*
X60744300Y-141006040D01*
G75*
G02*
X60998300Y-140752040I254000J0D01*
G01*
X61734900Y-140752040D01*
G75*
G02*
X61988900Y-141006040I0J-254000D01*
G01*
X61988900Y-143226000D01*
G75*
G02*
X61734900Y-143480000I-254000J0D01*
G01*
X60998300Y-143480000D01*
G75*
G02*
X60744300Y-143226000I0J254000D01*
G01*
G37*
G36*
G01*
X59474300Y-145953960D02*
X59474300Y-143734000D01*
G75*
G02*
X59728300Y-143480000I254000J0D01*
G01*
X60464900Y-143480000D01*
G75*
G02*
X60718900Y-143734000I0J-254000D01*
G01*
X60718900Y-145953960D01*
G75*
G02*
X60464900Y-146207960I-254000J0D01*
G01*
X59728300Y-146207960D01*
G75*
G02*
X59474300Y-145953960I0J254000D01*
G01*
G37*
G36*
G01*
X59474300Y-143226000D02*
X59474300Y-141006040D01*
G75*
G02*
X59728300Y-140752040I254000J0D01*
G01*
X60464900Y-140752040D01*
G75*
G02*
X60718900Y-141006040I0J-254000D01*
G01*
X60718900Y-143226000D01*
G75*
G02*
X60464900Y-143480000I-254000J0D01*
G01*
X59728300Y-143480000D01*
G75*
G02*
X59474300Y-143226000I0J254000D01*
G01*
G37*
G36*
G01*
X58204300Y-145953960D02*
X58204300Y-143734000D01*
G75*
G02*
X58458300Y-143480000I254000J0D01*
G01*
X59194900Y-143480000D01*
G75*
G02*
X59448900Y-143734000I0J-254000D01*
G01*
X59448900Y-145953960D01*
G75*
G02*
X59194900Y-146207960I-254000J0D01*
G01*
X58458300Y-146207960D01*
G75*
G02*
X58204300Y-145953960I0J254000D01*
G01*
G37*
G36*
G01*
X58204300Y-143226000D02*
X58204300Y-141006040D01*
G75*
G02*
X58458300Y-140752040I254000J0D01*
G01*
X59194900Y-140752040D01*
G75*
G02*
X59448900Y-141006040I0J-254000D01*
G01*
X59448900Y-143226000D01*
G75*
G02*
X59194900Y-143480000I-254000J0D01*
G01*
X58458300Y-143480000D01*
G75*
G02*
X58204300Y-143226000I0J254000D01*
G01*
G37*
G36*
G01*
X56934300Y-145953960D02*
X56934300Y-143734000D01*
G75*
G02*
X57188300Y-143480000I254000J0D01*
G01*
X57924900Y-143480000D01*
G75*
G02*
X58178900Y-143734000I0J-254000D01*
G01*
X58178900Y-145953960D01*
G75*
G02*
X57924900Y-146207960I-254000J0D01*
G01*
X57188300Y-146207960D01*
G75*
G02*
X56934300Y-145953960I0J254000D01*
G01*
G37*
G36*
G01*
X56934300Y-143226000D02*
X56934300Y-141006040D01*
G75*
G02*
X57188300Y-140752040I254000J0D01*
G01*
X57924900Y-140752040D01*
G75*
G02*
X58178900Y-141006040I0J-254000D01*
G01*
X58178900Y-143226000D01*
G75*
G02*
X57924900Y-143480000I-254000J0D01*
G01*
X57188300Y-143480000D01*
G75*
G02*
X56934300Y-143226000I0J254000D01*
G01*
G37*
D11*
X49619100Y-143480000D03*
X76924100Y-143480000D03*
D12*
X149000000Y-81000000D03*
X51000000Y-81000000D03*
X149000000Y-132000000D03*
X51000000Y-132000000D03*
G36*
G01*
X139246000Y-81625000D02*
X139246000Y-80375000D01*
G75*
G02*
X139500000Y-80121000I254000J0D01*
G01*
X140500000Y-80121000D01*
G75*
G02*
X140754000Y-80375000I0J-254000D01*
G01*
X140754000Y-81625000D01*
G75*
G02*
X140500000Y-81879000I-254000J0D01*
G01*
X139500000Y-81879000D01*
G75*
G02*
X139246000Y-81625000I0J254000D01*
G01*
G37*
G36*
G01*
X141246000Y-81625000D02*
X141246000Y-80375000D01*
G75*
G02*
X141500000Y-80121000I254000J0D01*
G01*
X142500000Y-80121000D01*
G75*
G02*
X142754000Y-80375000I0J-254000D01*
G01*
X142754000Y-81625000D01*
G75*
G02*
X142500000Y-81879000I-254000J0D01*
G01*
X141500000Y-81879000D01*
G75*
G02*
X141246000Y-81625000I0J254000D01*
G01*
G37*
G36*
G01*
X60754000Y-80375000D02*
X60754000Y-81625000D01*
G75*
G02*
X60500000Y-81879000I-254000J0D01*
G01*
X59500000Y-81879000D01*
G75*
G02*
X59246000Y-81625000I0J254000D01*
G01*
X59246000Y-80375000D01*
G75*
G02*
X59500000Y-80121000I254000J0D01*
G01*
X60500000Y-80121000D01*
G75*
G02*
X60754000Y-80375000I0J-254000D01*
G01*
G37*
G36*
G01*
X58754000Y-80375000D02*
X58754000Y-81625000D01*
G75*
G02*
X58500000Y-81879000I-254000J0D01*
G01*
X57500000Y-81879000D01*
G75*
G02*
X57246000Y-81625000I0J254000D01*
G01*
X57246000Y-80375000D01*
G75*
G02*
X57500000Y-80121000I254000J0D01*
G01*
X58500000Y-80121000D01*
G75*
G02*
X58754000Y-80375000I0J-254000D01*
G01*
G37*
G36*
G01*
X139446000Y-79650000D02*
X139446000Y-78350000D01*
G75*
G02*
X139700000Y-78096000I254000J0D01*
G01*
X140400000Y-78096000D01*
G75*
G02*
X140654000Y-78350000I0J-254000D01*
G01*
X140654000Y-79650000D01*
G75*
G02*
X140400000Y-79904000I-254000J0D01*
G01*
X139700000Y-79904000D01*
G75*
G02*
X139446000Y-79650000I0J254000D01*
G01*
G37*
G36*
G01*
X141346000Y-79650000D02*
X141346000Y-78350000D01*
G75*
G02*
X141600000Y-78096000I254000J0D01*
G01*
X142300000Y-78096000D01*
G75*
G02*
X142554000Y-78350000I0J-254000D01*
G01*
X142554000Y-79650000D01*
G75*
G02*
X142300000Y-79904000I-254000J0D01*
G01*
X141600000Y-79904000D01*
G75*
G02*
X141346000Y-79650000I0J254000D01*
G01*
G37*
G36*
G01*
X60554000Y-78350000D02*
X60554000Y-79650000D01*
G75*
G02*
X60300000Y-79904000I-254000J0D01*
G01*
X59600000Y-79904000D01*
G75*
G02*
X59346000Y-79650000I0J254000D01*
G01*
X59346000Y-78350000D01*
G75*
G02*
X59600000Y-78096000I254000J0D01*
G01*
X60300000Y-78096000D01*
G75*
G02*
X60554000Y-78350000I0J-254000D01*
G01*
G37*
G36*
G01*
X58654000Y-78350000D02*
X58654000Y-79650000D01*
G75*
G02*
X58400000Y-79904000I-254000J0D01*
G01*
X57700000Y-79904000D01*
G75*
G02*
X57446000Y-79650000I0J254000D01*
G01*
X57446000Y-78350000D01*
G75*
G02*
X57700000Y-78096000I254000J0D01*
G01*
X58400000Y-78096000D01*
G75*
G02*
X58654000Y-78350000I0J-254000D01*
G01*
G37*
G36*
G01*
X119000000Y-138904000D02*
X117700000Y-138904000D01*
G75*
G02*
X117446000Y-138650000I0J254000D01*
G01*
X117446000Y-137950000D01*
G75*
G02*
X117700000Y-137696000I254000J0D01*
G01*
X119000000Y-137696000D01*
G75*
G02*
X119254000Y-137950000I0J-254000D01*
G01*
X119254000Y-138650000D01*
G75*
G02*
X119000000Y-138904000I-254000J0D01*
G01*
G37*
G36*
G01*
X119000000Y-137004000D02*
X117700000Y-137004000D01*
G75*
G02*
X117446000Y-136750000I0J254000D01*
G01*
X117446000Y-136050000D01*
G75*
G02*
X117700000Y-135796000I254000J0D01*
G01*
X119000000Y-135796000D01*
G75*
G02*
X119254000Y-136050000I0J-254000D01*
G01*
X119254000Y-136750000D01*
G75*
G02*
X119000000Y-137004000I-254000J0D01*
G01*
G37*
G36*
G01*
X123624000Y-137975000D02*
X123624000Y-138625000D01*
G75*
G02*
X123370000Y-138879000I-254000J0D01*
G01*
X122150000Y-138879000D01*
G75*
G02*
X121896000Y-138625000I0J254000D01*
G01*
X121896000Y-137975000D01*
G75*
G02*
X122150000Y-137721000I254000J0D01*
G01*
X123370000Y-137721000D01*
G75*
G02*
X123624000Y-137975000I0J-254000D01*
G01*
G37*
G36*
G01*
X123624000Y-137025000D02*
X123624000Y-137675000D01*
G75*
G02*
X123370000Y-137929000I-254000J0D01*
G01*
X122150000Y-137929000D01*
G75*
G02*
X121896000Y-137675000I0J254000D01*
G01*
X121896000Y-137025000D01*
G75*
G02*
X122150000Y-136771000I254000J0D01*
G01*
X123370000Y-136771000D01*
G75*
G02*
X123624000Y-137025000I0J-254000D01*
G01*
G37*
G36*
G01*
X123624000Y-136075000D02*
X123624000Y-136725000D01*
G75*
G02*
X123370000Y-136979000I-254000J0D01*
G01*
X122150000Y-136979000D01*
G75*
G02*
X121896000Y-136725000I0J254000D01*
G01*
X121896000Y-136075000D01*
G75*
G02*
X122150000Y-135821000I254000J0D01*
G01*
X123370000Y-135821000D01*
G75*
G02*
X123624000Y-136075000I0J-254000D01*
G01*
G37*
G36*
G01*
X121004000Y-136075000D02*
X121004000Y-136725000D01*
G75*
G02*
X120750000Y-136979000I-254000J0D01*
G01*
X119530000Y-136979000D01*
G75*
G02*
X119276000Y-136725000I0J254000D01*
G01*
X119276000Y-136075000D01*
G75*
G02*
X119530000Y-135821000I254000J0D01*
G01*
X120750000Y-135821000D01*
G75*
G02*
X121004000Y-136075000I0J-254000D01*
G01*
G37*
G36*
G01*
X121004000Y-137975000D02*
X121004000Y-138625000D01*
G75*
G02*
X120750000Y-138879000I-254000J0D01*
G01*
X119530000Y-138879000D01*
G75*
G02*
X119276000Y-138625000I0J254000D01*
G01*
X119276000Y-137975000D01*
G75*
G02*
X119530000Y-137721000I254000J0D01*
G01*
X120750000Y-137721000D01*
G75*
G02*
X121004000Y-137975000I0J-254000D01*
G01*
G37*
G36*
G01*
X85407700Y-145953960D02*
X85407700Y-143734000D01*
G75*
G02*
X85661700Y-143480000I254000J0D01*
G01*
X86398300Y-143480000D01*
G75*
G02*
X86652300Y-143734000I0J-254000D01*
G01*
X86652300Y-145953960D01*
G75*
G02*
X86398300Y-146207960I-254000J0D01*
G01*
X85661700Y-146207960D01*
G75*
G02*
X85407700Y-145953960I0J254000D01*
G01*
G37*
G36*
G01*
X85407700Y-143226000D02*
X85407700Y-141006040D01*
G75*
G02*
X85661700Y-140752040I254000J0D01*
G01*
X86398300Y-140752040D01*
G75*
G02*
X86652300Y-141006040I0J-254000D01*
G01*
X86652300Y-143226000D01*
G75*
G02*
X86398300Y-143480000I-254000J0D01*
G01*
X85661700Y-143480000D01*
G75*
G02*
X85407700Y-143226000I0J254000D01*
G01*
G37*
G36*
G01*
X94297700Y-145953960D02*
X94297700Y-143734000D01*
G75*
G02*
X94551700Y-143480000I254000J0D01*
G01*
X95288300Y-143480000D01*
G75*
G02*
X95542300Y-143734000I0J-254000D01*
G01*
X95542300Y-145953960D01*
G75*
G02*
X95288300Y-146207960I-254000J0D01*
G01*
X94551700Y-146207960D01*
G75*
G02*
X94297700Y-145953960I0J254000D01*
G01*
G37*
G36*
G01*
X94297700Y-143226000D02*
X94297700Y-141006040D01*
G75*
G02*
X94551700Y-140752040I254000J0D01*
G01*
X95288300Y-140752040D01*
G75*
G02*
X95542300Y-141006040I0J-254000D01*
G01*
X95542300Y-143226000D01*
G75*
G02*
X95288300Y-143480000I-254000J0D01*
G01*
X94551700Y-143480000D01*
G75*
G02*
X94297700Y-143226000I0J254000D01*
G01*
G37*
G36*
G01*
X93027700Y-145953960D02*
X93027700Y-143734000D01*
G75*
G02*
X93281700Y-143480000I254000J0D01*
G01*
X94018300Y-143480000D01*
G75*
G02*
X94272300Y-143734000I0J-254000D01*
G01*
X94272300Y-145953960D01*
G75*
G02*
X94018300Y-146207960I-254000J0D01*
G01*
X93281700Y-146207960D01*
G75*
G02*
X93027700Y-145953960I0J254000D01*
G01*
G37*
G36*
G01*
X93027700Y-143226000D02*
X93027700Y-141006040D01*
G75*
G02*
X93281700Y-140752040I254000J0D01*
G01*
X94018300Y-140752040D01*
G75*
G02*
X94272300Y-141006040I0J-254000D01*
G01*
X94272300Y-143226000D01*
G75*
G02*
X94018300Y-143480000I-254000J0D01*
G01*
X93281700Y-143480000D01*
G75*
G02*
X93027700Y-143226000I0J254000D01*
G01*
G37*
G36*
G01*
X91757700Y-145953960D02*
X91757700Y-143734000D01*
G75*
G02*
X92011700Y-143480000I254000J0D01*
G01*
X92748300Y-143480000D01*
G75*
G02*
X93002300Y-143734000I0J-254000D01*
G01*
X93002300Y-145953960D01*
G75*
G02*
X92748300Y-146207960I-254000J0D01*
G01*
X92011700Y-146207960D01*
G75*
G02*
X91757700Y-145953960I0J254000D01*
G01*
G37*
G36*
G01*
X91757700Y-143226000D02*
X91757700Y-141006040D01*
G75*
G02*
X92011700Y-140752040I254000J0D01*
G01*
X92748300Y-140752040D01*
G75*
G02*
X93002300Y-141006040I0J-254000D01*
G01*
X93002300Y-143226000D01*
G75*
G02*
X92748300Y-143480000I-254000J0D01*
G01*
X92011700Y-143480000D01*
G75*
G02*
X91757700Y-143226000I0J254000D01*
G01*
G37*
G36*
G01*
X90487700Y-145953960D02*
X90487700Y-143734000D01*
G75*
G02*
X90741700Y-143480000I254000J0D01*
G01*
X91478300Y-143480000D01*
G75*
G02*
X91732300Y-143734000I0J-254000D01*
G01*
X91732300Y-145953960D01*
G75*
G02*
X91478300Y-146207960I-254000J0D01*
G01*
X90741700Y-146207960D01*
G75*
G02*
X90487700Y-145953960I0J254000D01*
G01*
G37*
G36*
G01*
X90487700Y-143226000D02*
X90487700Y-141006040D01*
G75*
G02*
X90741700Y-140752040I254000J0D01*
G01*
X91478300Y-140752040D01*
G75*
G02*
X91732300Y-141006040I0J-254000D01*
G01*
X91732300Y-143226000D01*
G75*
G02*
X91478300Y-143480000I-254000J0D01*
G01*
X90741700Y-143480000D01*
G75*
G02*
X90487700Y-143226000I0J254000D01*
G01*
G37*
G36*
G01*
X103187700Y-143226000D02*
X103187700Y-141006040D01*
G75*
G02*
X103441700Y-140752040I254000J0D01*
G01*
X104178300Y-140752040D01*
G75*
G02*
X104432300Y-141006040I0J-254000D01*
G01*
X104432300Y-143226000D01*
G75*
G02*
X104178300Y-143480000I-254000J0D01*
G01*
X103441700Y-143480000D01*
G75*
G02*
X103187700Y-143226000I0J254000D01*
G01*
G37*
G36*
G01*
X103187700Y-145953960D02*
X103187700Y-143734000D01*
G75*
G02*
X103441700Y-143480000I254000J0D01*
G01*
X104178300Y-143480000D01*
G75*
G02*
X104432300Y-143734000I0J-254000D01*
G01*
X104432300Y-145953960D01*
G75*
G02*
X104178300Y-146207960I-254000J0D01*
G01*
X103441700Y-146207960D01*
G75*
G02*
X103187700Y-145953960I0J254000D01*
G01*
G37*
G36*
G01*
X104457700Y-143226000D02*
X104457700Y-141006040D01*
G75*
G02*
X104711700Y-140752040I254000J0D01*
G01*
X105448300Y-140752040D01*
G75*
G02*
X105702300Y-141006040I0J-254000D01*
G01*
X105702300Y-143226000D01*
G75*
G02*
X105448300Y-143480000I-254000J0D01*
G01*
X104711700Y-143480000D01*
G75*
G02*
X104457700Y-143226000I0J254000D01*
G01*
G37*
G36*
G01*
X104457700Y-145953960D02*
X104457700Y-143734000D01*
G75*
G02*
X104711700Y-143480000I254000J0D01*
G01*
X105448300Y-143480000D01*
G75*
G02*
X105702300Y-143734000I0J-254000D01*
G01*
X105702300Y-145953960D01*
G75*
G02*
X105448300Y-146207960I-254000J0D01*
G01*
X104711700Y-146207960D01*
G75*
G02*
X104457700Y-145953960I0J254000D01*
G01*
G37*
G36*
G01*
X105727700Y-143226000D02*
X105727700Y-141006040D01*
G75*
G02*
X105981700Y-140752040I254000J0D01*
G01*
X106718300Y-140752040D01*
G75*
G02*
X106972300Y-141006040I0J-254000D01*
G01*
X106972300Y-143226000D01*
G75*
G02*
X106718300Y-143480000I-254000J0D01*
G01*
X105981700Y-143480000D01*
G75*
G02*
X105727700Y-143226000I0J254000D01*
G01*
G37*
G36*
G01*
X105727700Y-145953960D02*
X105727700Y-143734000D01*
G75*
G02*
X105981700Y-143480000I254000J0D01*
G01*
X106718300Y-143480000D01*
G75*
G02*
X106972300Y-143734000I0J-254000D01*
G01*
X106972300Y-145953960D01*
G75*
G02*
X106718300Y-146207960I-254000J0D01*
G01*
X105981700Y-146207960D01*
G75*
G02*
X105727700Y-145953960I0J254000D01*
G01*
G37*
G36*
G01*
X106997700Y-143226000D02*
X106997700Y-141006040D01*
G75*
G02*
X107251700Y-140752040I254000J0D01*
G01*
X107988300Y-140752040D01*
G75*
G02*
X108242300Y-141006040I0J-254000D01*
G01*
X108242300Y-143226000D01*
G75*
G02*
X107988300Y-143480000I-254000J0D01*
G01*
X107251700Y-143480000D01*
G75*
G02*
X106997700Y-143226000I0J254000D01*
G01*
G37*
G36*
G01*
X106997700Y-145953960D02*
X106997700Y-143734000D01*
G75*
G02*
X107251700Y-143480000I254000J0D01*
G01*
X107988300Y-143480000D01*
G75*
G02*
X108242300Y-143734000I0J-254000D01*
G01*
X108242300Y-145953960D01*
G75*
G02*
X107988300Y-146207960I-254000J0D01*
G01*
X107251700Y-146207960D01*
G75*
G02*
X106997700Y-145953960I0J254000D01*
G01*
G37*
G36*
G01*
X108267700Y-143226000D02*
X108267700Y-141006040D01*
G75*
G02*
X108521700Y-140752040I254000J0D01*
G01*
X109258300Y-140752040D01*
G75*
G02*
X109512300Y-141006040I0J-254000D01*
G01*
X109512300Y-143226000D01*
G75*
G02*
X109258300Y-143480000I-254000J0D01*
G01*
X108521700Y-143480000D01*
G75*
G02*
X108267700Y-143226000I0J254000D01*
G01*
G37*
G36*
G01*
X108267700Y-145953960D02*
X108267700Y-143734000D01*
G75*
G02*
X108521700Y-143480000I254000J0D01*
G01*
X109258300Y-143480000D01*
G75*
G02*
X109512300Y-143734000I0J-254000D01*
G01*
X109512300Y-145953960D01*
G75*
G02*
X109258300Y-146207960I-254000J0D01*
G01*
X108521700Y-146207960D01*
G75*
G02*
X108267700Y-145953960I0J254000D01*
G01*
G37*
G36*
G01*
X84137700Y-143226000D02*
X84137700Y-141006040D01*
G75*
G02*
X84391700Y-140752040I254000J0D01*
G01*
X85128300Y-140752040D01*
G75*
G02*
X85382300Y-141006040I0J-254000D01*
G01*
X85382300Y-143226000D01*
G75*
G02*
X85128300Y-143480000I-254000J0D01*
G01*
X84391700Y-143480000D01*
G75*
G02*
X84137700Y-143226000I0J254000D01*
G01*
G37*
G36*
G01*
X84137700Y-145953960D02*
X84137700Y-143734000D01*
G75*
G02*
X84391700Y-143480000I254000J0D01*
G01*
X85128300Y-143480000D01*
G75*
G02*
X85382300Y-143734000I0J-254000D01*
G01*
X85382300Y-145953960D01*
G75*
G02*
X85128300Y-146207960I-254000J0D01*
G01*
X84391700Y-146207960D01*
G75*
G02*
X84137700Y-145953960I0J254000D01*
G01*
G37*
G36*
G01*
X86677700Y-143226000D02*
X86677700Y-141006040D01*
G75*
G02*
X86931700Y-140752040I254000J0D01*
G01*
X87668300Y-140752040D01*
G75*
G02*
X87922300Y-141006040I0J-254000D01*
G01*
X87922300Y-143226000D01*
G75*
G02*
X87668300Y-143480000I-254000J0D01*
G01*
X86931700Y-143480000D01*
G75*
G02*
X86677700Y-143226000I0J254000D01*
G01*
G37*
G36*
G01*
X86677700Y-145953960D02*
X86677700Y-143734000D01*
G75*
G02*
X86931700Y-143480000I254000J0D01*
G01*
X87668300Y-143480000D01*
G75*
G02*
X87922300Y-143734000I0J-254000D01*
G01*
X87922300Y-145953960D01*
G75*
G02*
X87668300Y-146207960I-254000J0D01*
G01*
X86931700Y-146207960D01*
G75*
G02*
X86677700Y-145953960I0J254000D01*
G01*
G37*
G36*
G01*
X87947700Y-143226000D02*
X87947700Y-141006040D01*
G75*
G02*
X88201700Y-140752040I254000J0D01*
G01*
X88938300Y-140752040D01*
G75*
G02*
X89192300Y-141006040I0J-254000D01*
G01*
X89192300Y-143226000D01*
G75*
G02*
X88938300Y-143480000I-254000J0D01*
G01*
X88201700Y-143480000D01*
G75*
G02*
X87947700Y-143226000I0J254000D01*
G01*
G37*
G36*
G01*
X87947700Y-145953960D02*
X87947700Y-143734000D01*
G75*
G02*
X88201700Y-143480000I254000J0D01*
G01*
X88938300Y-143480000D01*
G75*
G02*
X89192300Y-143734000I0J-254000D01*
G01*
X89192300Y-145953960D01*
G75*
G02*
X88938300Y-146207960I-254000J0D01*
G01*
X88201700Y-146207960D01*
G75*
G02*
X87947700Y-145953960I0J254000D01*
G01*
G37*
G36*
G01*
X89217700Y-143226000D02*
X89217700Y-141006040D01*
G75*
G02*
X89471700Y-140752040I254000J0D01*
G01*
X90208300Y-140752040D01*
G75*
G02*
X90462300Y-141006040I0J-254000D01*
G01*
X90462300Y-143226000D01*
G75*
G02*
X90208300Y-143480000I-254000J0D01*
G01*
X89471700Y-143480000D01*
G75*
G02*
X89217700Y-143226000I0J254000D01*
G01*
G37*
G36*
G01*
X89217700Y-145953960D02*
X89217700Y-143734000D01*
G75*
G02*
X89471700Y-143480000I254000J0D01*
G01*
X90208300Y-143480000D01*
G75*
G02*
X90462300Y-143734000I0J-254000D01*
G01*
X90462300Y-145953960D01*
G75*
G02*
X90208300Y-146207960I-254000J0D01*
G01*
X89471700Y-146207960D01*
G75*
G02*
X89217700Y-145953960I0J254000D01*
G01*
G37*
G36*
G01*
X95567700Y-143226000D02*
X95567700Y-141006040D01*
G75*
G02*
X95821700Y-140752040I254000J0D01*
G01*
X96558300Y-140752040D01*
G75*
G02*
X96812300Y-141006040I0J-254000D01*
G01*
X96812300Y-143226000D01*
G75*
G02*
X96558300Y-143480000I-254000J0D01*
G01*
X95821700Y-143480000D01*
G75*
G02*
X95567700Y-143226000I0J254000D01*
G01*
G37*
G36*
G01*
X95567700Y-145953960D02*
X95567700Y-143734000D01*
G75*
G02*
X95821700Y-143480000I254000J0D01*
G01*
X96558300Y-143480000D01*
G75*
G02*
X96812300Y-143734000I0J-254000D01*
G01*
X96812300Y-145953960D01*
G75*
G02*
X96558300Y-146207960I-254000J0D01*
G01*
X95821700Y-146207960D01*
G75*
G02*
X95567700Y-145953960I0J254000D01*
G01*
G37*
G36*
G01*
X114617700Y-145953960D02*
X114617700Y-143734000D01*
G75*
G02*
X114871700Y-143480000I254000J0D01*
G01*
X115608300Y-143480000D01*
G75*
G02*
X115862300Y-143734000I0J-254000D01*
G01*
X115862300Y-145953960D01*
G75*
G02*
X115608300Y-146207960I-254000J0D01*
G01*
X114871700Y-146207960D01*
G75*
G02*
X114617700Y-145953960I0J254000D01*
G01*
G37*
G36*
G01*
X114617700Y-143226000D02*
X114617700Y-141006040D01*
G75*
G02*
X114871700Y-140752040I254000J0D01*
G01*
X115608300Y-140752040D01*
G75*
G02*
X115862300Y-141006040I0J-254000D01*
G01*
X115862300Y-143226000D01*
G75*
G02*
X115608300Y-143480000I-254000J0D01*
G01*
X114871700Y-143480000D01*
G75*
G02*
X114617700Y-143226000I0J254000D01*
G01*
G37*
G36*
G01*
X113347700Y-145953960D02*
X113347700Y-143734000D01*
G75*
G02*
X113601700Y-143480000I254000J0D01*
G01*
X114338300Y-143480000D01*
G75*
G02*
X114592300Y-143734000I0J-254000D01*
G01*
X114592300Y-145953960D01*
G75*
G02*
X114338300Y-146207960I-254000J0D01*
G01*
X113601700Y-146207960D01*
G75*
G02*
X113347700Y-145953960I0J254000D01*
G01*
G37*
G36*
G01*
X113347700Y-143226000D02*
X113347700Y-141006040D01*
G75*
G02*
X113601700Y-140752040I254000J0D01*
G01*
X114338300Y-140752040D01*
G75*
G02*
X114592300Y-141006040I0J-254000D01*
G01*
X114592300Y-143226000D01*
G75*
G02*
X114338300Y-143480000I-254000J0D01*
G01*
X113601700Y-143480000D01*
G75*
G02*
X113347700Y-143226000I0J254000D01*
G01*
G37*
G36*
G01*
X112077700Y-145953960D02*
X112077700Y-143734000D01*
G75*
G02*
X112331700Y-143480000I254000J0D01*
G01*
X113068300Y-143480000D01*
G75*
G02*
X113322300Y-143734000I0J-254000D01*
G01*
X113322300Y-145953960D01*
G75*
G02*
X113068300Y-146207960I-254000J0D01*
G01*
X112331700Y-146207960D01*
G75*
G02*
X112077700Y-145953960I0J254000D01*
G01*
G37*
G36*
G01*
X112077700Y-143226000D02*
X112077700Y-141006040D01*
G75*
G02*
X112331700Y-140752040I254000J0D01*
G01*
X113068300Y-140752040D01*
G75*
G02*
X113322300Y-141006040I0J-254000D01*
G01*
X113322300Y-143226000D01*
G75*
G02*
X113068300Y-143480000I-254000J0D01*
G01*
X112331700Y-143480000D01*
G75*
G02*
X112077700Y-143226000I0J254000D01*
G01*
G37*
G36*
G01*
X110807700Y-145953960D02*
X110807700Y-143734000D01*
G75*
G02*
X111061700Y-143480000I254000J0D01*
G01*
X111798300Y-143480000D01*
G75*
G02*
X112052300Y-143734000I0J-254000D01*
G01*
X112052300Y-145953960D01*
G75*
G02*
X111798300Y-146207960I-254000J0D01*
G01*
X111061700Y-146207960D01*
G75*
G02*
X110807700Y-145953960I0J254000D01*
G01*
G37*
G36*
G01*
X110807700Y-143226000D02*
X110807700Y-141006040D01*
G75*
G02*
X111061700Y-140752040I254000J0D01*
G01*
X111798300Y-140752040D01*
G75*
G02*
X112052300Y-141006040I0J-254000D01*
G01*
X112052300Y-143226000D01*
G75*
G02*
X111798300Y-143480000I-254000J0D01*
G01*
X111061700Y-143480000D01*
G75*
G02*
X110807700Y-143226000I0J254000D01*
G01*
G37*
G36*
G01*
X109537700Y-145953960D02*
X109537700Y-143734000D01*
G75*
G02*
X109791700Y-143480000I254000J0D01*
G01*
X110528300Y-143480000D01*
G75*
G02*
X110782300Y-143734000I0J-254000D01*
G01*
X110782300Y-145953960D01*
G75*
G02*
X110528300Y-146207960I-254000J0D01*
G01*
X109791700Y-146207960D01*
G75*
G02*
X109537700Y-145953960I0J254000D01*
G01*
G37*
G36*
G01*
X109537700Y-143226000D02*
X109537700Y-141006040D01*
G75*
G02*
X109791700Y-140752040I254000J0D01*
G01*
X110528300Y-140752040D01*
G75*
G02*
X110782300Y-141006040I0J-254000D01*
G01*
X110782300Y-143226000D01*
G75*
G02*
X110528300Y-143480000I-254000J0D01*
G01*
X109791700Y-143480000D01*
G75*
G02*
X109537700Y-143226000I0J254000D01*
G01*
G37*
G36*
G01*
X101917700Y-145953960D02*
X101917700Y-143734000D01*
G75*
G02*
X102171700Y-143480000I254000J0D01*
G01*
X102908300Y-143480000D01*
G75*
G02*
X103162300Y-143734000I0J-254000D01*
G01*
X103162300Y-145953960D01*
G75*
G02*
X102908300Y-146207960I-254000J0D01*
G01*
X102171700Y-146207960D01*
G75*
G02*
X101917700Y-145953960I0J254000D01*
G01*
G37*
G36*
G01*
X101917700Y-143226000D02*
X101917700Y-141006040D01*
G75*
G02*
X102171700Y-140752040I254000J0D01*
G01*
X102908300Y-140752040D01*
G75*
G02*
X103162300Y-141006040I0J-254000D01*
G01*
X103162300Y-143226000D01*
G75*
G02*
X102908300Y-143480000I-254000J0D01*
G01*
X102171700Y-143480000D01*
G75*
G02*
X101917700Y-143226000I0J254000D01*
G01*
G37*
G36*
G01*
X100647700Y-145953960D02*
X100647700Y-143734000D01*
G75*
G02*
X100901700Y-143480000I254000J0D01*
G01*
X101638300Y-143480000D01*
G75*
G02*
X101892300Y-143734000I0J-254000D01*
G01*
X101892300Y-145953960D01*
G75*
G02*
X101638300Y-146207960I-254000J0D01*
G01*
X100901700Y-146207960D01*
G75*
G02*
X100647700Y-145953960I0J254000D01*
G01*
G37*
G36*
G01*
X100647700Y-143226000D02*
X100647700Y-141006040D01*
G75*
G02*
X100901700Y-140752040I254000J0D01*
G01*
X101638300Y-140752040D01*
G75*
G02*
X101892300Y-141006040I0J-254000D01*
G01*
X101892300Y-143226000D01*
G75*
G02*
X101638300Y-143480000I-254000J0D01*
G01*
X100901700Y-143480000D01*
G75*
G02*
X100647700Y-143226000I0J254000D01*
G01*
G37*
G36*
G01*
X99377700Y-145953960D02*
X99377700Y-143734000D01*
G75*
G02*
X99631700Y-143480000I254000J0D01*
G01*
X100368300Y-143480000D01*
G75*
G02*
X100622300Y-143734000I0J-254000D01*
G01*
X100622300Y-145953960D01*
G75*
G02*
X100368300Y-146207960I-254000J0D01*
G01*
X99631700Y-146207960D01*
G75*
G02*
X99377700Y-145953960I0J254000D01*
G01*
G37*
G36*
G01*
X99377700Y-143226000D02*
X99377700Y-141006040D01*
G75*
G02*
X99631700Y-140752040I254000J0D01*
G01*
X100368300Y-140752040D01*
G75*
G02*
X100622300Y-141006040I0J-254000D01*
G01*
X100622300Y-143226000D01*
G75*
G02*
X100368300Y-143480000I-254000J0D01*
G01*
X99631700Y-143480000D01*
G75*
G02*
X99377700Y-143226000I0J254000D01*
G01*
G37*
G36*
G01*
X98107700Y-145953960D02*
X98107700Y-143734000D01*
G75*
G02*
X98361700Y-143480000I254000J0D01*
G01*
X99098300Y-143480000D01*
G75*
G02*
X99352300Y-143734000I0J-254000D01*
G01*
X99352300Y-145953960D01*
G75*
G02*
X99098300Y-146207960I-254000J0D01*
G01*
X98361700Y-146207960D01*
G75*
G02*
X98107700Y-145953960I0J254000D01*
G01*
G37*
G36*
G01*
X98107700Y-143226000D02*
X98107700Y-141006040D01*
G75*
G02*
X98361700Y-140752040I254000J0D01*
G01*
X99098300Y-140752040D01*
G75*
G02*
X99352300Y-141006040I0J-254000D01*
G01*
X99352300Y-143226000D01*
G75*
G02*
X99098300Y-143480000I-254000J0D01*
G01*
X98361700Y-143480000D01*
G75*
G02*
X98107700Y-143226000I0J254000D01*
G01*
G37*
G36*
G01*
X96837700Y-145953960D02*
X96837700Y-143734000D01*
G75*
G02*
X97091700Y-143480000I254000J0D01*
G01*
X97828300Y-143480000D01*
G75*
G02*
X98082300Y-143734000I0J-254000D01*
G01*
X98082300Y-145953960D01*
G75*
G02*
X97828300Y-146207960I-254000J0D01*
G01*
X97091700Y-146207960D01*
G75*
G02*
X96837700Y-145953960I0J254000D01*
G01*
G37*
G36*
G01*
X96837700Y-143226000D02*
X96837700Y-141006040D01*
G75*
G02*
X97091700Y-140752040I254000J0D01*
G01*
X97828300Y-140752040D01*
G75*
G02*
X98082300Y-141006040I0J-254000D01*
G01*
X98082300Y-143226000D01*
G75*
G02*
X97828300Y-143480000I-254000J0D01*
G01*
X97091700Y-143480000D01*
G75*
G02*
X96837700Y-143226000I0J254000D01*
G01*
G37*
D11*
X83172500Y-143480000D03*
X116827500Y-143480000D03*
G36*
G01*
X136741100Y-143226000D02*
X136741100Y-141006040D01*
G75*
G02*
X136995100Y-140752040I254000J0D01*
G01*
X137731700Y-140752040D01*
G75*
G02*
X137985700Y-141006040I0J-254000D01*
G01*
X137985700Y-143226000D01*
G75*
G02*
X137731700Y-143480000I-254000J0D01*
G01*
X136995100Y-143480000D01*
G75*
G02*
X136741100Y-143226000I0J254000D01*
G01*
G37*
G36*
G01*
X136741100Y-145953960D02*
X136741100Y-143734000D01*
G75*
G02*
X136995100Y-143480000I254000J0D01*
G01*
X137731700Y-143480000D01*
G75*
G02*
X137985700Y-143734000I0J-254000D01*
G01*
X137985700Y-145953960D01*
G75*
G02*
X137731700Y-146207960I-254000J0D01*
G01*
X136995100Y-146207960D01*
G75*
G02*
X136741100Y-145953960I0J254000D01*
G01*
G37*
G36*
G01*
X138011100Y-143226000D02*
X138011100Y-141006040D01*
G75*
G02*
X138265100Y-140752040I254000J0D01*
G01*
X139001700Y-140752040D01*
G75*
G02*
X139255700Y-141006040I0J-254000D01*
G01*
X139255700Y-143226000D01*
G75*
G02*
X139001700Y-143480000I-254000J0D01*
G01*
X138265100Y-143480000D01*
G75*
G02*
X138011100Y-143226000I0J254000D01*
G01*
G37*
G36*
G01*
X138011100Y-145953960D02*
X138011100Y-143734000D01*
G75*
G02*
X138265100Y-143480000I254000J0D01*
G01*
X139001700Y-143480000D01*
G75*
G02*
X139255700Y-143734000I0J-254000D01*
G01*
X139255700Y-145953960D01*
G75*
G02*
X139001700Y-146207960I-254000J0D01*
G01*
X138265100Y-146207960D01*
G75*
G02*
X138011100Y-145953960I0J254000D01*
G01*
G37*
G36*
G01*
X139281100Y-143226000D02*
X139281100Y-141006040D01*
G75*
G02*
X139535100Y-140752040I254000J0D01*
G01*
X140271700Y-140752040D01*
G75*
G02*
X140525700Y-141006040I0J-254000D01*
G01*
X140525700Y-143226000D01*
G75*
G02*
X140271700Y-143480000I-254000J0D01*
G01*
X139535100Y-143480000D01*
G75*
G02*
X139281100Y-143226000I0J254000D01*
G01*
G37*
G36*
G01*
X139281100Y-145953960D02*
X139281100Y-143734000D01*
G75*
G02*
X139535100Y-143480000I254000J0D01*
G01*
X140271700Y-143480000D01*
G75*
G02*
X140525700Y-143734000I0J-254000D01*
G01*
X140525700Y-145953960D01*
G75*
G02*
X140271700Y-146207960I-254000J0D01*
G01*
X139535100Y-146207960D01*
G75*
G02*
X139281100Y-145953960I0J254000D01*
G01*
G37*
G36*
G01*
X140551100Y-143226000D02*
X140551100Y-141006040D01*
G75*
G02*
X140805100Y-140752040I254000J0D01*
G01*
X141541700Y-140752040D01*
G75*
G02*
X141795700Y-141006040I0J-254000D01*
G01*
X141795700Y-143226000D01*
G75*
G02*
X141541700Y-143480000I-254000J0D01*
G01*
X140805100Y-143480000D01*
G75*
G02*
X140551100Y-143226000I0J254000D01*
G01*
G37*
G36*
G01*
X140551100Y-145953960D02*
X140551100Y-143734000D01*
G75*
G02*
X140805100Y-143480000I254000J0D01*
G01*
X141541700Y-143480000D01*
G75*
G02*
X141795700Y-143734000I0J-254000D01*
G01*
X141795700Y-145953960D01*
G75*
G02*
X141541700Y-146207960I-254000J0D01*
G01*
X140805100Y-146207960D01*
G75*
G02*
X140551100Y-145953960I0J254000D01*
G01*
G37*
G36*
G01*
X141821100Y-143226000D02*
X141821100Y-141006040D01*
G75*
G02*
X142075100Y-140752040I254000J0D01*
G01*
X142811700Y-140752040D01*
G75*
G02*
X143065700Y-141006040I0J-254000D01*
G01*
X143065700Y-143226000D01*
G75*
G02*
X142811700Y-143480000I-254000J0D01*
G01*
X142075100Y-143480000D01*
G75*
G02*
X141821100Y-143226000I0J254000D01*
G01*
G37*
G36*
G01*
X141821100Y-145953960D02*
X141821100Y-143734000D01*
G75*
G02*
X142075100Y-143480000I254000J0D01*
G01*
X142811700Y-143480000D01*
G75*
G02*
X143065700Y-143734000I0J-254000D01*
G01*
X143065700Y-145953960D01*
G75*
G02*
X142811700Y-146207960I-254000J0D01*
G01*
X142075100Y-146207960D01*
G75*
G02*
X141821100Y-145953960I0J254000D01*
G01*
G37*
G36*
G01*
X124041100Y-143226000D02*
X124041100Y-141006040D01*
G75*
G02*
X124295100Y-140752040I254000J0D01*
G01*
X125031700Y-140752040D01*
G75*
G02*
X125285700Y-141006040I0J-254000D01*
G01*
X125285700Y-143226000D01*
G75*
G02*
X125031700Y-143480000I-254000J0D01*
G01*
X124295100Y-143480000D01*
G75*
G02*
X124041100Y-143226000I0J254000D01*
G01*
G37*
G36*
G01*
X124041100Y-145953960D02*
X124041100Y-143734000D01*
G75*
G02*
X124295100Y-143480000I254000J0D01*
G01*
X125031700Y-143480000D01*
G75*
G02*
X125285700Y-143734000I0J-254000D01*
G01*
X125285700Y-145953960D01*
G75*
G02*
X125031700Y-146207960I-254000J0D01*
G01*
X124295100Y-146207960D01*
G75*
G02*
X124041100Y-145953960I0J254000D01*
G01*
G37*
G36*
G01*
X125311100Y-143226000D02*
X125311100Y-141006040D01*
G75*
G02*
X125565100Y-140752040I254000J0D01*
G01*
X126301700Y-140752040D01*
G75*
G02*
X126555700Y-141006040I0J-254000D01*
G01*
X126555700Y-143226000D01*
G75*
G02*
X126301700Y-143480000I-254000J0D01*
G01*
X125565100Y-143480000D01*
G75*
G02*
X125311100Y-143226000I0J254000D01*
G01*
G37*
G36*
G01*
X125311100Y-145953960D02*
X125311100Y-143734000D01*
G75*
G02*
X125565100Y-143480000I254000J0D01*
G01*
X126301700Y-143480000D01*
G75*
G02*
X126555700Y-143734000I0J-254000D01*
G01*
X126555700Y-145953960D01*
G75*
G02*
X126301700Y-146207960I-254000J0D01*
G01*
X125565100Y-146207960D01*
G75*
G02*
X125311100Y-145953960I0J254000D01*
G01*
G37*
G36*
G01*
X126581100Y-143226000D02*
X126581100Y-141006040D01*
G75*
G02*
X126835100Y-140752040I254000J0D01*
G01*
X127571700Y-140752040D01*
G75*
G02*
X127825700Y-141006040I0J-254000D01*
G01*
X127825700Y-143226000D01*
G75*
G02*
X127571700Y-143480000I-254000J0D01*
G01*
X126835100Y-143480000D01*
G75*
G02*
X126581100Y-143226000I0J254000D01*
G01*
G37*
G36*
G01*
X126581100Y-145953960D02*
X126581100Y-143734000D01*
G75*
G02*
X126835100Y-143480000I254000J0D01*
G01*
X127571700Y-143480000D01*
G75*
G02*
X127825700Y-143734000I0J-254000D01*
G01*
X127825700Y-145953960D01*
G75*
G02*
X127571700Y-146207960I-254000J0D01*
G01*
X126835100Y-146207960D01*
G75*
G02*
X126581100Y-145953960I0J254000D01*
G01*
G37*
G36*
G01*
X127851100Y-143226000D02*
X127851100Y-141006040D01*
G75*
G02*
X128105100Y-140752040I254000J0D01*
G01*
X128841700Y-140752040D01*
G75*
G02*
X129095700Y-141006040I0J-254000D01*
G01*
X129095700Y-143226000D01*
G75*
G02*
X128841700Y-143480000I-254000J0D01*
G01*
X128105100Y-143480000D01*
G75*
G02*
X127851100Y-143226000I0J254000D01*
G01*
G37*
G36*
G01*
X127851100Y-145953960D02*
X127851100Y-143734000D01*
G75*
G02*
X128105100Y-143480000I254000J0D01*
G01*
X128841700Y-143480000D01*
G75*
G02*
X129095700Y-143734000I0J-254000D01*
G01*
X129095700Y-145953960D01*
G75*
G02*
X128841700Y-146207960I-254000J0D01*
G01*
X128105100Y-146207960D01*
G75*
G02*
X127851100Y-145953960I0J254000D01*
G01*
G37*
G36*
G01*
X129121100Y-143226000D02*
X129121100Y-141006040D01*
G75*
G02*
X129375100Y-140752040I254000J0D01*
G01*
X130111700Y-140752040D01*
G75*
G02*
X130365700Y-141006040I0J-254000D01*
G01*
X130365700Y-143226000D01*
G75*
G02*
X130111700Y-143480000I-254000J0D01*
G01*
X129375100Y-143480000D01*
G75*
G02*
X129121100Y-143226000I0J254000D01*
G01*
G37*
G36*
G01*
X129121100Y-145953960D02*
X129121100Y-143734000D01*
G75*
G02*
X129375100Y-143480000I254000J0D01*
G01*
X130111700Y-143480000D01*
G75*
G02*
X130365700Y-143734000I0J-254000D01*
G01*
X130365700Y-145953960D01*
G75*
G02*
X130111700Y-146207960I-254000J0D01*
G01*
X129375100Y-146207960D01*
G75*
G02*
X129121100Y-145953960I0J254000D01*
G01*
G37*
G36*
G01*
X148171100Y-145953960D02*
X148171100Y-143734000D01*
G75*
G02*
X148425100Y-143480000I254000J0D01*
G01*
X149161700Y-143480000D01*
G75*
G02*
X149415700Y-143734000I0J-254000D01*
G01*
X149415700Y-145953960D01*
G75*
G02*
X149161700Y-146207960I-254000J0D01*
G01*
X148425100Y-146207960D01*
G75*
G02*
X148171100Y-145953960I0J254000D01*
G01*
G37*
G36*
G01*
X148171100Y-143226000D02*
X148171100Y-141006040D01*
G75*
G02*
X148425100Y-140752040I254000J0D01*
G01*
X149161700Y-140752040D01*
G75*
G02*
X149415700Y-141006040I0J-254000D01*
G01*
X149415700Y-143226000D01*
G75*
G02*
X149161700Y-143480000I-254000J0D01*
G01*
X148425100Y-143480000D01*
G75*
G02*
X148171100Y-143226000I0J254000D01*
G01*
G37*
G36*
G01*
X146901100Y-145953960D02*
X146901100Y-143734000D01*
G75*
G02*
X147155100Y-143480000I254000J0D01*
G01*
X147891700Y-143480000D01*
G75*
G02*
X148145700Y-143734000I0J-254000D01*
G01*
X148145700Y-145953960D01*
G75*
G02*
X147891700Y-146207960I-254000J0D01*
G01*
X147155100Y-146207960D01*
G75*
G02*
X146901100Y-145953960I0J254000D01*
G01*
G37*
G36*
G01*
X146901100Y-143226000D02*
X146901100Y-141006040D01*
G75*
G02*
X147155100Y-140752040I254000J0D01*
G01*
X147891700Y-140752040D01*
G75*
G02*
X148145700Y-141006040I0J-254000D01*
G01*
X148145700Y-143226000D01*
G75*
G02*
X147891700Y-143480000I-254000J0D01*
G01*
X147155100Y-143480000D01*
G75*
G02*
X146901100Y-143226000I0J254000D01*
G01*
G37*
G36*
G01*
X145631100Y-145953960D02*
X145631100Y-143734000D01*
G75*
G02*
X145885100Y-143480000I254000J0D01*
G01*
X146621700Y-143480000D01*
G75*
G02*
X146875700Y-143734000I0J-254000D01*
G01*
X146875700Y-145953960D01*
G75*
G02*
X146621700Y-146207960I-254000J0D01*
G01*
X145885100Y-146207960D01*
G75*
G02*
X145631100Y-145953960I0J254000D01*
G01*
G37*
G36*
G01*
X145631100Y-143226000D02*
X145631100Y-141006040D01*
G75*
G02*
X145885100Y-140752040I254000J0D01*
G01*
X146621700Y-140752040D01*
G75*
G02*
X146875700Y-141006040I0J-254000D01*
G01*
X146875700Y-143226000D01*
G75*
G02*
X146621700Y-143480000I-254000J0D01*
G01*
X145885100Y-143480000D01*
G75*
G02*
X145631100Y-143226000I0J254000D01*
G01*
G37*
G36*
G01*
X144361100Y-145953960D02*
X144361100Y-143734000D01*
G75*
G02*
X144615100Y-143480000I254000J0D01*
G01*
X145351700Y-143480000D01*
G75*
G02*
X145605700Y-143734000I0J-254000D01*
G01*
X145605700Y-145953960D01*
G75*
G02*
X145351700Y-146207960I-254000J0D01*
G01*
X144615100Y-146207960D01*
G75*
G02*
X144361100Y-145953960I0J254000D01*
G01*
G37*
G36*
G01*
X144361100Y-143226000D02*
X144361100Y-141006040D01*
G75*
G02*
X144615100Y-140752040I254000J0D01*
G01*
X145351700Y-140752040D01*
G75*
G02*
X145605700Y-141006040I0J-254000D01*
G01*
X145605700Y-143226000D01*
G75*
G02*
X145351700Y-143480000I-254000J0D01*
G01*
X144615100Y-143480000D01*
G75*
G02*
X144361100Y-143226000I0J254000D01*
G01*
G37*
G36*
G01*
X143091100Y-145953960D02*
X143091100Y-143734000D01*
G75*
G02*
X143345100Y-143480000I254000J0D01*
G01*
X144081700Y-143480000D01*
G75*
G02*
X144335700Y-143734000I0J-254000D01*
G01*
X144335700Y-145953960D01*
G75*
G02*
X144081700Y-146207960I-254000J0D01*
G01*
X143345100Y-146207960D01*
G75*
G02*
X143091100Y-145953960I0J254000D01*
G01*
G37*
G36*
G01*
X143091100Y-143226000D02*
X143091100Y-141006040D01*
G75*
G02*
X143345100Y-140752040I254000J0D01*
G01*
X144081700Y-140752040D01*
G75*
G02*
X144335700Y-141006040I0J-254000D01*
G01*
X144335700Y-143226000D01*
G75*
G02*
X144081700Y-143480000I-254000J0D01*
G01*
X143345100Y-143480000D01*
G75*
G02*
X143091100Y-143226000I0J254000D01*
G01*
G37*
G36*
G01*
X135471100Y-145953960D02*
X135471100Y-143734000D01*
G75*
G02*
X135725100Y-143480000I254000J0D01*
G01*
X136461700Y-143480000D01*
G75*
G02*
X136715700Y-143734000I0J-254000D01*
G01*
X136715700Y-145953960D01*
G75*
G02*
X136461700Y-146207960I-254000J0D01*
G01*
X135725100Y-146207960D01*
G75*
G02*
X135471100Y-145953960I0J254000D01*
G01*
G37*
G36*
G01*
X135471100Y-143226000D02*
X135471100Y-141006040D01*
G75*
G02*
X135725100Y-140752040I254000J0D01*
G01*
X136461700Y-140752040D01*
G75*
G02*
X136715700Y-141006040I0J-254000D01*
G01*
X136715700Y-143226000D01*
G75*
G02*
X136461700Y-143480000I-254000J0D01*
G01*
X135725100Y-143480000D01*
G75*
G02*
X135471100Y-143226000I0J254000D01*
G01*
G37*
G36*
G01*
X134201100Y-145953960D02*
X134201100Y-143734000D01*
G75*
G02*
X134455100Y-143480000I254000J0D01*
G01*
X135191700Y-143480000D01*
G75*
G02*
X135445700Y-143734000I0J-254000D01*
G01*
X135445700Y-145953960D01*
G75*
G02*
X135191700Y-146207960I-254000J0D01*
G01*
X134455100Y-146207960D01*
G75*
G02*
X134201100Y-145953960I0J254000D01*
G01*
G37*
G36*
G01*
X134201100Y-143226000D02*
X134201100Y-141006040D01*
G75*
G02*
X134455100Y-140752040I254000J0D01*
G01*
X135191700Y-140752040D01*
G75*
G02*
X135445700Y-141006040I0J-254000D01*
G01*
X135445700Y-143226000D01*
G75*
G02*
X135191700Y-143480000I-254000J0D01*
G01*
X134455100Y-143480000D01*
G75*
G02*
X134201100Y-143226000I0J254000D01*
G01*
G37*
G36*
G01*
X132931100Y-145953960D02*
X132931100Y-143734000D01*
G75*
G02*
X133185100Y-143480000I254000J0D01*
G01*
X133921700Y-143480000D01*
G75*
G02*
X134175700Y-143734000I0J-254000D01*
G01*
X134175700Y-145953960D01*
G75*
G02*
X133921700Y-146207960I-254000J0D01*
G01*
X133185100Y-146207960D01*
G75*
G02*
X132931100Y-145953960I0J254000D01*
G01*
G37*
G36*
G01*
X132931100Y-143226000D02*
X132931100Y-141006040D01*
G75*
G02*
X133185100Y-140752040I254000J0D01*
G01*
X133921700Y-140752040D01*
G75*
G02*
X134175700Y-141006040I0J-254000D01*
G01*
X134175700Y-143226000D01*
G75*
G02*
X133921700Y-143480000I-254000J0D01*
G01*
X133185100Y-143480000D01*
G75*
G02*
X132931100Y-143226000I0J254000D01*
G01*
G37*
G36*
G01*
X131661100Y-145953960D02*
X131661100Y-143734000D01*
G75*
G02*
X131915100Y-143480000I254000J0D01*
G01*
X132651700Y-143480000D01*
G75*
G02*
X132905700Y-143734000I0J-254000D01*
G01*
X132905700Y-145953960D01*
G75*
G02*
X132651700Y-146207960I-254000J0D01*
G01*
X131915100Y-146207960D01*
G75*
G02*
X131661100Y-145953960I0J254000D01*
G01*
G37*
G36*
G01*
X131661100Y-143226000D02*
X131661100Y-141006040D01*
G75*
G02*
X131915100Y-140752040I254000J0D01*
G01*
X132651700Y-140752040D01*
G75*
G02*
X132905700Y-141006040I0J-254000D01*
G01*
X132905700Y-143226000D01*
G75*
G02*
X132651700Y-143480000I-254000J0D01*
G01*
X131915100Y-143480000D01*
G75*
G02*
X131661100Y-143226000I0J254000D01*
G01*
G37*
G36*
G01*
X130391100Y-145953960D02*
X130391100Y-143734000D01*
G75*
G02*
X130645100Y-143480000I254000J0D01*
G01*
X131381700Y-143480000D01*
G75*
G02*
X131635700Y-143734000I0J-254000D01*
G01*
X131635700Y-145953960D01*
G75*
G02*
X131381700Y-146207960I-254000J0D01*
G01*
X130645100Y-146207960D01*
G75*
G02*
X130391100Y-145953960I0J254000D01*
G01*
G37*
G36*
G01*
X130391100Y-143226000D02*
X130391100Y-141006040D01*
G75*
G02*
X130645100Y-140752040I254000J0D01*
G01*
X131381700Y-140752040D01*
G75*
G02*
X131635700Y-141006040I0J-254000D01*
G01*
X131635700Y-143226000D01*
G75*
G02*
X131381700Y-143480000I-254000J0D01*
G01*
X130645100Y-143480000D01*
G75*
G02*
X130391100Y-143226000I0J254000D01*
G01*
G37*
X123075900Y-143480000D03*
X150380900Y-143480000D03*
G36*
G01*
X68484580Y-80537620D02*
X68484580Y-78837620D01*
G75*
G02*
X68738580Y-78583620I254000J0D01*
G01*
X70438580Y-78583620D01*
G75*
G02*
X70692580Y-78837620I0J-254000D01*
G01*
X70692580Y-80537620D01*
G75*
G02*
X70438580Y-80791620I-254000J0D01*
G01*
X68738580Y-80791620D01*
G75*
G02*
X68484580Y-80537620I0J254000D01*
G01*
G37*
D10*
X72128580Y-79687620D03*
X69588580Y-82227620D03*
X72128580Y-82227620D03*
X69588580Y-84767620D03*
X72128580Y-84767620D03*
X69588580Y-87307620D03*
X72128580Y-87307620D03*
X69588580Y-89847620D03*
X72128580Y-89847620D03*
X69588580Y-92387620D03*
X72128580Y-92387620D03*
X69588580Y-94927620D03*
X72128580Y-94927620D03*
X69588580Y-97467620D03*
X72128580Y-97467620D03*
X69588580Y-100007620D03*
X72128580Y-100007620D03*
X69588580Y-102547620D03*
X72128580Y-102547620D03*
X69588580Y-105087620D03*
X72128580Y-105087620D03*
X69588580Y-107627620D03*
X72128580Y-107627620D03*
X69588580Y-110167620D03*
X72128580Y-110167620D03*
X69588580Y-112707620D03*
X72128580Y-112707620D03*
X69588580Y-115247620D03*
X72128580Y-115247620D03*
X69588580Y-117787620D03*
X72128580Y-117787620D03*
X72128580Y-120327620D03*
X69588580Y-120327620D03*
G36*
G01*
X136552240Y-119464920D02*
X136552240Y-121164920D01*
G75*
G02*
X136298240Y-121418920I-254000J0D01*
G01*
X134598240Y-121418920D01*
G75*
G02*
X134344240Y-121164920I0J254000D01*
G01*
X134344240Y-119464920D01*
G75*
G02*
X134598240Y-119210920I254000J0D01*
G01*
X136298240Y-119210920D01*
G75*
G02*
X136552240Y-119464920I0J-254000D01*
G01*
G37*
X132908240Y-120314920D03*
X135448240Y-117774920D03*
X132908240Y-117774920D03*
X135448240Y-115234920D03*
X132908240Y-115234920D03*
X135448240Y-112694920D03*
X132908240Y-112694920D03*
X135448240Y-110154920D03*
X132908240Y-110154920D03*
X135448240Y-107614920D03*
X132908240Y-107614920D03*
X135448240Y-105074920D03*
X132908240Y-105074920D03*
X135448240Y-102534920D03*
X132908240Y-102534920D03*
X135448240Y-99994920D03*
X132908240Y-99994920D03*
X135448240Y-97454920D03*
X132908240Y-97454920D03*
X135448240Y-94914920D03*
X132908240Y-94914920D03*
X135448240Y-92374920D03*
X132908240Y-92374920D03*
X135448240Y-89834920D03*
X132908240Y-89834920D03*
X135448240Y-87294920D03*
X132908240Y-87294920D03*
X135448240Y-84754920D03*
X132908240Y-84754920D03*
X135448240Y-82214920D03*
X132908240Y-82214920D03*
X132908240Y-79674920D03*
X135448240Y-79674920D03*
G36*
G01*
X131533200Y-119475080D02*
X131533200Y-121175080D01*
G75*
G02*
X131279200Y-121429080I-254000J0D01*
G01*
X129579200Y-121429080D01*
G75*
G02*
X129325200Y-121175080I0J254000D01*
G01*
X129325200Y-119475080D01*
G75*
G02*
X129579200Y-119221080I254000J0D01*
G01*
X131279200Y-119221080D01*
G75*
G02*
X131533200Y-119475080I0J-254000D01*
G01*
G37*
X127889200Y-120325080D03*
X130429200Y-117785080D03*
X127889200Y-117785080D03*
X130429200Y-115245080D03*
X127889200Y-115245080D03*
X130429200Y-112705080D03*
X127889200Y-112705080D03*
X130429200Y-110165080D03*
X127889200Y-110165080D03*
X130429200Y-107625080D03*
X127889200Y-107625080D03*
X130429200Y-105085080D03*
X127889200Y-105085080D03*
X130429200Y-102545080D03*
X127889200Y-102545080D03*
X130429200Y-100005080D03*
X127889200Y-100005080D03*
X130429200Y-97465080D03*
X127889200Y-97465080D03*
X130429200Y-94925080D03*
X127889200Y-94925080D03*
X130429200Y-92385080D03*
X127889200Y-92385080D03*
X130429200Y-89845080D03*
X127889200Y-89845080D03*
X130429200Y-87305080D03*
X127889200Y-87305080D03*
X130429200Y-84765080D03*
X127889200Y-84765080D03*
X130429200Y-82225080D03*
X127889200Y-82225080D03*
X127889200Y-79685080D03*
X130429200Y-79685080D03*
M02*
