G04 #@! TF.FileFunction,Paste,Top*
%FSLAX46Y46*%
G04 Gerber Fmt 4.6, Leading zero omitted, Abs format (unit mm)*
G04 Created by KiCad (PCBNEW 4.0.7) date 03/15/18 15:44:52*
%MOMM*%
%LPD*%
G01*
G04 APERTURE LIST*
%ADD10C,0.150000*%
%ADD11R,0.736600X2.219960*%
%ADD12R,1.000000X1.250000*%
%ADD13R,0.700000X1.300000*%
%ADD14R,1.300000X0.700000*%
%ADD15R,1.220000X0.650000*%
G04 APERTURE END LIST*
D10*
D11*
X63906600Y-142116020D03*
X63906600Y-144843980D03*
X65176600Y-142116020D03*
X65176600Y-144843980D03*
X66446600Y-142116020D03*
X66446600Y-144843980D03*
X67716600Y-142116020D03*
X67716600Y-144843980D03*
X68986600Y-142116020D03*
X68986600Y-144843980D03*
X51206600Y-142116020D03*
X51206600Y-144843980D03*
X52476600Y-142116020D03*
X52476600Y-144843980D03*
X53746600Y-142116020D03*
X53746600Y-144843980D03*
X55016600Y-142116020D03*
X55016600Y-144843980D03*
X56286600Y-142116020D03*
X56286600Y-144843980D03*
X75336600Y-144843980D03*
X75336600Y-142116020D03*
X74066600Y-144843980D03*
X74066600Y-142116020D03*
X72796600Y-144843980D03*
X72796600Y-142116020D03*
X71526600Y-144843980D03*
X71526600Y-142116020D03*
X70256600Y-144843980D03*
X70256600Y-142116020D03*
X62636600Y-144843980D03*
X62636600Y-142116020D03*
X61366600Y-144843980D03*
X61366600Y-142116020D03*
X60096600Y-144843980D03*
X60096600Y-142116020D03*
X58826600Y-144843980D03*
X58826600Y-142116020D03*
X57556600Y-144843980D03*
X57556600Y-142116020D03*
D12*
X140000000Y-81000000D03*
X142000000Y-81000000D03*
X60000000Y-81000000D03*
X58000000Y-81000000D03*
D13*
X140050000Y-79000000D03*
X141950000Y-79000000D03*
X59950000Y-79000000D03*
X58050000Y-79000000D03*
D14*
X118350000Y-138300000D03*
X118350000Y-136400000D03*
D15*
X122760000Y-138300000D03*
X122760000Y-137350000D03*
X122760000Y-136400000D03*
X120140000Y-136400000D03*
X120140000Y-138300000D03*
D11*
X86030000Y-144843980D03*
X86030000Y-142116020D03*
X94920000Y-144843980D03*
X94920000Y-142116020D03*
X93650000Y-144843980D03*
X93650000Y-142116020D03*
X92380000Y-144843980D03*
X92380000Y-142116020D03*
X91110000Y-144843980D03*
X91110000Y-142116020D03*
X103810000Y-142116020D03*
X103810000Y-144843980D03*
X105080000Y-142116020D03*
X105080000Y-144843980D03*
X106350000Y-142116020D03*
X106350000Y-144843980D03*
X107620000Y-142116020D03*
X107620000Y-144843980D03*
X108890000Y-142116020D03*
X108890000Y-144843980D03*
X84760000Y-142116020D03*
X84760000Y-144843980D03*
X87300000Y-142116020D03*
X87300000Y-144843980D03*
X88570000Y-142116020D03*
X88570000Y-144843980D03*
X89840000Y-142116020D03*
X89840000Y-144843980D03*
X96190000Y-142116020D03*
X96190000Y-144843980D03*
X115240000Y-144843980D03*
X115240000Y-142116020D03*
X113970000Y-144843980D03*
X113970000Y-142116020D03*
X112700000Y-144843980D03*
X112700000Y-142116020D03*
X111430000Y-144843980D03*
X111430000Y-142116020D03*
X110160000Y-144843980D03*
X110160000Y-142116020D03*
X102540000Y-144843980D03*
X102540000Y-142116020D03*
X101270000Y-144843980D03*
X101270000Y-142116020D03*
X100000000Y-144843980D03*
X100000000Y-142116020D03*
X98730000Y-144843980D03*
X98730000Y-142116020D03*
X97460000Y-144843980D03*
X97460000Y-142116020D03*
X137363400Y-142116020D03*
X137363400Y-144843980D03*
X138633400Y-142116020D03*
X138633400Y-144843980D03*
X139903400Y-142116020D03*
X139903400Y-144843980D03*
X141173400Y-142116020D03*
X141173400Y-144843980D03*
X142443400Y-142116020D03*
X142443400Y-144843980D03*
X124663400Y-142116020D03*
X124663400Y-144843980D03*
X125933400Y-142116020D03*
X125933400Y-144843980D03*
X127203400Y-142116020D03*
X127203400Y-144843980D03*
X128473400Y-142116020D03*
X128473400Y-144843980D03*
X129743400Y-142116020D03*
X129743400Y-144843980D03*
X148793400Y-144843980D03*
X148793400Y-142116020D03*
X147523400Y-144843980D03*
X147523400Y-142116020D03*
X146253400Y-144843980D03*
X146253400Y-142116020D03*
X144983400Y-144843980D03*
X144983400Y-142116020D03*
X143713400Y-144843980D03*
X143713400Y-142116020D03*
X136093400Y-144843980D03*
X136093400Y-142116020D03*
X134823400Y-144843980D03*
X134823400Y-142116020D03*
X133553400Y-144843980D03*
X133553400Y-142116020D03*
X132283400Y-144843980D03*
X132283400Y-142116020D03*
X131013400Y-144843980D03*
X131013400Y-142116020D03*
M02*
