G04 #@! TF.FileFunction,Legend,Top*
%FSLAX46Y46*%
G04 Gerber Fmt 4.6, Leading zero omitted, Abs format (unit mm)*
G04 Created by KiCad (PCBNEW 4.0.1-stable) date 2017-03-20 12:41:44 PM*
%MOMM*%
G01*
G04 APERTURE LIST*
%ADD10C,0.150000*%
%ADD11C,0.101600*%
%ADD12C,0.200000*%
%ADD13C,0.127000*%
%ADD14C,0.120000*%
%ADD15C,0.010000*%
G04 APERTURE END LIST*
D10*
D11*
X125501428Y-117417905D02*
X125349047Y-117417905D01*
X125272857Y-117456000D01*
X125234762Y-117494095D01*
X125158571Y-117608381D01*
X125120476Y-117760762D01*
X125120476Y-118065524D01*
X125158571Y-118141714D01*
X125196666Y-118179810D01*
X125272857Y-118217905D01*
X125425238Y-118217905D01*
X125501428Y-118179810D01*
X125539524Y-118141714D01*
X125577619Y-118065524D01*
X125577619Y-117875048D01*
X125539524Y-117798857D01*
X125501428Y-117760762D01*
X125425238Y-117722667D01*
X125272857Y-117722667D01*
X125196666Y-117760762D01*
X125158571Y-117798857D01*
X125120476Y-117875048D01*
X125844286Y-117417905D02*
X126339524Y-117417905D01*
X126072857Y-117722667D01*
X126187143Y-117722667D01*
X126263333Y-117760762D01*
X126301429Y-117798857D01*
X126339524Y-117875048D01*
X126339524Y-118065524D01*
X126301429Y-118141714D01*
X126263333Y-118179810D01*
X126187143Y-118217905D01*
X125958571Y-118217905D01*
X125882381Y-118179810D01*
X125844286Y-118141714D01*
X137693428Y-117417905D02*
X137541047Y-117417905D01*
X137464857Y-117456000D01*
X137426762Y-117494095D01*
X137350571Y-117608381D01*
X137312476Y-117760762D01*
X137312476Y-118065524D01*
X137350571Y-118141714D01*
X137388666Y-118179810D01*
X137464857Y-118217905D01*
X137617238Y-118217905D01*
X137693428Y-118179810D01*
X137731524Y-118141714D01*
X137769619Y-118065524D01*
X137769619Y-117875048D01*
X137731524Y-117798857D01*
X137693428Y-117760762D01*
X137617238Y-117722667D01*
X137464857Y-117722667D01*
X137388666Y-117760762D01*
X137350571Y-117798857D01*
X137312476Y-117875048D01*
X138264857Y-117417905D02*
X138341048Y-117417905D01*
X138417238Y-117456000D01*
X138455333Y-117494095D01*
X138493429Y-117570286D01*
X138531524Y-117722667D01*
X138531524Y-117913143D01*
X138493429Y-118065524D01*
X138455333Y-118141714D01*
X138417238Y-118179810D01*
X138341048Y-118217905D01*
X138264857Y-118217905D01*
X138188667Y-118179810D01*
X138150571Y-118141714D01*
X138112476Y-118065524D01*
X138074381Y-117913143D01*
X138074381Y-117722667D01*
X138112476Y-117570286D01*
X138150571Y-117494095D01*
X138188667Y-117456000D01*
X138264857Y-117417905D01*
X137709333Y-82612667D02*
X137309333Y-82612667D01*
X137509333Y-82612667D02*
X137509333Y-81912667D01*
X137442667Y-82012667D01*
X137376000Y-82079333D01*
X137309333Y-82112667D01*
X138376000Y-82612667D02*
X137976000Y-82612667D01*
X138176000Y-82612667D02*
X138176000Y-81912667D01*
X138109334Y-82012667D01*
X138042667Y-82079333D01*
X137976000Y-82112667D01*
X138976001Y-81912667D02*
X138842667Y-81912667D01*
X138776001Y-81946000D01*
X138742667Y-81979333D01*
X138676001Y-82079333D01*
X138642667Y-82212667D01*
X138642667Y-82479333D01*
X138676001Y-82546000D01*
X138709334Y-82579333D01*
X138776001Y-82612667D01*
X138909334Y-82612667D01*
X138976001Y-82579333D01*
X139009334Y-82546000D01*
X139042667Y-82479333D01*
X139042667Y-82312667D01*
X139009334Y-82246000D01*
X138976001Y-82212667D01*
X138909334Y-82179333D01*
X138776001Y-82179333D01*
X138709334Y-82212667D01*
X138676001Y-82246000D01*
X138642667Y-82312667D01*
X125009333Y-82612667D02*
X124609333Y-82612667D01*
X124809333Y-82612667D02*
X124809333Y-81912667D01*
X124742667Y-82012667D01*
X124676000Y-82079333D01*
X124609333Y-82112667D01*
X125676000Y-82612667D02*
X125276000Y-82612667D01*
X125476000Y-82612667D02*
X125476000Y-81912667D01*
X125409334Y-82012667D01*
X125342667Y-82079333D01*
X125276000Y-82112667D01*
X126009334Y-82612667D02*
X126142667Y-82612667D01*
X126209334Y-82579333D01*
X126242667Y-82546000D01*
X126309334Y-82446000D01*
X126342667Y-82312667D01*
X126342667Y-82046000D01*
X126309334Y-81979333D01*
X126276001Y-81946000D01*
X126209334Y-81912667D01*
X126076001Y-81912667D01*
X126009334Y-81946000D01*
X125976001Y-81979333D01*
X125942667Y-82046000D01*
X125942667Y-82212667D01*
X125976001Y-82279333D01*
X126009334Y-82312667D01*
X126076001Y-82346000D01*
X126209334Y-82346000D01*
X126276001Y-82312667D01*
X126309334Y-82279333D01*
X126342667Y-82212667D01*
X73993334Y-81821905D02*
X74488572Y-81821905D01*
X74221905Y-82126667D01*
X74336191Y-82126667D01*
X74412381Y-82164762D01*
X74450477Y-82202857D01*
X74488572Y-82279048D01*
X74488572Y-82469524D01*
X74450477Y-82545714D01*
X74412381Y-82583810D01*
X74336191Y-82621905D01*
X74107619Y-82621905D01*
X74031429Y-82583810D01*
X73993334Y-82545714D01*
X61969524Y-117331905D02*
X61588571Y-117331905D01*
X61550476Y-117712857D01*
X61588571Y-117674762D01*
X61664762Y-117636667D01*
X61855238Y-117636667D01*
X61931428Y-117674762D01*
X61969524Y-117712857D01*
X62007619Y-117789048D01*
X62007619Y-117979524D01*
X61969524Y-118055714D01*
X61931428Y-118093810D01*
X61855238Y-118131905D01*
X61664762Y-118131905D01*
X61588571Y-118093810D01*
X61550476Y-118055714D01*
X62693333Y-117331905D02*
X62540952Y-117331905D01*
X62464762Y-117370000D01*
X62426667Y-117408095D01*
X62350476Y-117522381D01*
X62312381Y-117674762D01*
X62312381Y-117979524D01*
X62350476Y-118055714D01*
X62388571Y-118093810D01*
X62464762Y-118131905D01*
X62617143Y-118131905D01*
X62693333Y-118093810D01*
X62731429Y-118055714D01*
X62769524Y-117979524D01*
X62769524Y-117789048D01*
X62731429Y-117712857D01*
X62693333Y-117674762D01*
X62617143Y-117636667D01*
X62464762Y-117636667D01*
X62388571Y-117674762D01*
X62350476Y-117712857D01*
X62312381Y-117789048D01*
X74239524Y-117331905D02*
X73858571Y-117331905D01*
X73820476Y-117712857D01*
X73858571Y-117674762D01*
X73934762Y-117636667D01*
X74125238Y-117636667D01*
X74201428Y-117674762D01*
X74239524Y-117712857D01*
X74277619Y-117789048D01*
X74277619Y-117979524D01*
X74239524Y-118055714D01*
X74201428Y-118093810D01*
X74125238Y-118131905D01*
X73934762Y-118131905D01*
X73858571Y-118093810D01*
X73820476Y-118055714D01*
X74658571Y-118131905D02*
X74810952Y-118131905D01*
X74887143Y-118093810D01*
X74925238Y-118055714D01*
X75001429Y-117941429D01*
X75039524Y-117789048D01*
X75039524Y-117484286D01*
X75001429Y-117408095D01*
X74963333Y-117370000D01*
X74887143Y-117331905D01*
X74734762Y-117331905D01*
X74658571Y-117370000D01*
X74620476Y-117408095D01*
X74582381Y-117484286D01*
X74582381Y-117674762D01*
X74620476Y-117750952D01*
X74658571Y-117789048D01*
X74734762Y-117827143D01*
X74887143Y-117827143D01*
X74963333Y-117789048D01*
X75001429Y-117750952D01*
X75039524Y-117674762D01*
X128064286Y-122640000D02*
X128092857Y-122668571D01*
X128121429Y-122754285D01*
X128121429Y-122811428D01*
X128092857Y-122897143D01*
X128035714Y-122954285D01*
X127978571Y-122982857D01*
X127864286Y-123011428D01*
X127778571Y-123011428D01*
X127664286Y-122982857D01*
X127607143Y-122954285D01*
X127550000Y-122897143D01*
X127521429Y-122811428D01*
X127521429Y-122754285D01*
X127550000Y-122668571D01*
X127578571Y-122640000D01*
X128092857Y-122411428D02*
X128121429Y-122325714D01*
X128121429Y-122182857D01*
X128092857Y-122125714D01*
X128064286Y-122097143D01*
X128007143Y-122068571D01*
X127950000Y-122068571D01*
X127892857Y-122097143D01*
X127864286Y-122125714D01*
X127835714Y-122182857D01*
X127807143Y-122297143D01*
X127778571Y-122354285D01*
X127750000Y-122382857D01*
X127692857Y-122411428D01*
X127635714Y-122411428D01*
X127578571Y-122382857D01*
X127550000Y-122354285D01*
X127521429Y-122297143D01*
X127521429Y-122154285D01*
X127550000Y-122068571D01*
X130140000Y-123247142D02*
X130111429Y-123304285D01*
X130111429Y-123389999D01*
X130140000Y-123475714D01*
X130197143Y-123532856D01*
X130254286Y-123561428D01*
X130368571Y-123589999D01*
X130454286Y-123589999D01*
X130568571Y-123561428D01*
X130625714Y-123532856D01*
X130682857Y-123475714D01*
X130711429Y-123389999D01*
X130711429Y-123332856D01*
X130682857Y-123247142D01*
X130654286Y-123218571D01*
X130454286Y-123218571D01*
X130454286Y-123332856D01*
X130711429Y-122961428D02*
X130111429Y-122961428D01*
X130711429Y-122618571D01*
X130111429Y-122618571D01*
X130711429Y-122332857D02*
X130111429Y-122332857D01*
X130111429Y-122190000D01*
X130140000Y-122104285D01*
X130197143Y-122047143D01*
X130254286Y-122018571D01*
X130368571Y-121990000D01*
X130454286Y-121990000D01*
X130568571Y-122018571D01*
X130625714Y-122047143D01*
X130682857Y-122104285D01*
X130711429Y-122190000D01*
X130711429Y-122332857D01*
X133191429Y-124522857D02*
X132591429Y-124522857D01*
X132877143Y-124522857D02*
X132877143Y-124180000D01*
X133191429Y-124180000D02*
X132591429Y-124180000D01*
X132591429Y-123980000D02*
X133191429Y-123780000D01*
X132591429Y-123580000D01*
X133248571Y-123522857D02*
X133248571Y-123065714D01*
X132591429Y-122808571D02*
X132591429Y-122694285D01*
X132620000Y-122637143D01*
X132677143Y-122580000D01*
X132791429Y-122551428D01*
X132991429Y-122551428D01*
X133105714Y-122580000D01*
X133162857Y-122637143D01*
X133191429Y-122694285D01*
X133191429Y-122808571D01*
X133162857Y-122865714D01*
X133105714Y-122922857D01*
X132991429Y-122951428D01*
X132791429Y-122951428D01*
X132677143Y-122922857D01*
X132620000Y-122865714D01*
X132591429Y-122808571D01*
X132877143Y-122294286D02*
X132877143Y-122094286D01*
X133191429Y-122008572D02*
X133191429Y-122294286D01*
X132591429Y-122294286D01*
X132591429Y-122008572D01*
X135201429Y-123195715D02*
X135801429Y-122795715D01*
X135201429Y-122795715D02*
X135801429Y-123195715D01*
X135258571Y-122595714D02*
X135230000Y-122567143D01*
X135201429Y-122510000D01*
X135201429Y-122367143D01*
X135230000Y-122310000D01*
X135258571Y-122281429D01*
X135315714Y-122252857D01*
X135372857Y-122252857D01*
X135458571Y-122281429D01*
X135801429Y-122624286D01*
X135801429Y-122252857D01*
X135211429Y-77885715D02*
X135811429Y-77485715D01*
X135211429Y-77485715D02*
X135811429Y-77885715D01*
X135268571Y-77285714D02*
X135240000Y-77257143D01*
X135211429Y-77200000D01*
X135211429Y-77057143D01*
X135240000Y-77000000D01*
X135268571Y-76971429D01*
X135325714Y-76942857D01*
X135382857Y-76942857D01*
X135468571Y-76971429D01*
X135811429Y-77314286D01*
X135811429Y-76942857D01*
X133261429Y-77912857D02*
X132661429Y-77912857D01*
X132947143Y-77912857D02*
X132947143Y-77570000D01*
X133261429Y-77570000D02*
X132661429Y-77570000D01*
X132661429Y-77370000D02*
X133261429Y-77170000D01*
X132661429Y-76970000D01*
X133318571Y-76912857D02*
X133318571Y-76455714D01*
X132661429Y-76198571D02*
X132661429Y-76084285D01*
X132690000Y-76027143D01*
X132747143Y-75970000D01*
X132861429Y-75941428D01*
X133061429Y-75941428D01*
X133175714Y-75970000D01*
X133232857Y-76027143D01*
X133261429Y-76084285D01*
X133261429Y-76198571D01*
X133232857Y-76255714D01*
X133175714Y-76312857D01*
X133061429Y-76341428D01*
X132861429Y-76341428D01*
X132747143Y-76312857D01*
X132690000Y-76255714D01*
X132661429Y-76198571D01*
X132947143Y-75684286D02*
X132947143Y-75484286D01*
X133261429Y-75398572D02*
X133261429Y-75684286D01*
X132661429Y-75684286D01*
X132661429Y-75398572D01*
X130220000Y-77567142D02*
X130191429Y-77624285D01*
X130191429Y-77709999D01*
X130220000Y-77795714D01*
X130277143Y-77852856D01*
X130334286Y-77881428D01*
X130448571Y-77909999D01*
X130534286Y-77909999D01*
X130648571Y-77881428D01*
X130705714Y-77852856D01*
X130762857Y-77795714D01*
X130791429Y-77709999D01*
X130791429Y-77652856D01*
X130762857Y-77567142D01*
X130734286Y-77538571D01*
X130534286Y-77538571D01*
X130534286Y-77652856D01*
X130791429Y-77281428D02*
X130191429Y-77281428D01*
X130791429Y-76938571D01*
X130191429Y-76938571D01*
X130791429Y-76652857D02*
X130191429Y-76652857D01*
X130191429Y-76510000D01*
X130220000Y-76424285D01*
X130277143Y-76367143D01*
X130334286Y-76338571D01*
X130448571Y-76310000D01*
X130534286Y-76310000D01*
X130648571Y-76338571D01*
X130705714Y-76367143D01*
X130762857Y-76424285D01*
X130791429Y-76510000D01*
X130791429Y-76652857D01*
X128124286Y-77480000D02*
X128152857Y-77508571D01*
X128181429Y-77594285D01*
X128181429Y-77651428D01*
X128152857Y-77737143D01*
X128095714Y-77794285D01*
X128038571Y-77822857D01*
X127924286Y-77851428D01*
X127838571Y-77851428D01*
X127724286Y-77822857D01*
X127667143Y-77794285D01*
X127610000Y-77737143D01*
X127581429Y-77651428D01*
X127581429Y-77594285D01*
X127610000Y-77508571D01*
X127638571Y-77480000D01*
X128152857Y-77251428D02*
X128181429Y-77165714D01*
X128181429Y-77022857D01*
X128152857Y-76965714D01*
X128124286Y-76937143D01*
X128067143Y-76908571D01*
X128010000Y-76908571D01*
X127952857Y-76937143D01*
X127924286Y-76965714D01*
X127895714Y-77022857D01*
X127867143Y-77137143D01*
X127838571Y-77194285D01*
X127810000Y-77222857D01*
X127752857Y-77251428D01*
X127695714Y-77251428D01*
X127638571Y-77222857D01*
X127610000Y-77194285D01*
X127581429Y-77137143D01*
X127581429Y-76994285D01*
X127610000Y-76908571D01*
X72464286Y-122760000D02*
X72492857Y-122788571D01*
X72521429Y-122874285D01*
X72521429Y-122931428D01*
X72492857Y-123017143D01*
X72435714Y-123074285D01*
X72378571Y-123102857D01*
X72264286Y-123131428D01*
X72178571Y-123131428D01*
X72064286Y-123102857D01*
X72007143Y-123074285D01*
X71950000Y-123017143D01*
X71921429Y-122931428D01*
X71921429Y-122874285D01*
X71950000Y-122788571D01*
X71978571Y-122760000D01*
X72492857Y-122531428D02*
X72521429Y-122445714D01*
X72521429Y-122302857D01*
X72492857Y-122245714D01*
X72464286Y-122217143D01*
X72407143Y-122188571D01*
X72350000Y-122188571D01*
X72292857Y-122217143D01*
X72264286Y-122245714D01*
X72235714Y-122302857D01*
X72207143Y-122417143D01*
X72178571Y-122474285D01*
X72150000Y-122502857D01*
X72092857Y-122531428D01*
X72035714Y-122531428D01*
X71978571Y-122502857D01*
X71950000Y-122474285D01*
X71921429Y-122417143D01*
X71921429Y-122274285D01*
X71950000Y-122188571D01*
X64181429Y-122835715D02*
X64781429Y-122435715D01*
X64181429Y-122435715D02*
X64781429Y-122835715D01*
X64781429Y-121892857D02*
X64781429Y-122235714D01*
X64781429Y-122064286D02*
X64181429Y-122064286D01*
X64267143Y-122121429D01*
X64324286Y-122178571D01*
X64352857Y-122235714D01*
X67351429Y-124562857D02*
X66751429Y-124562857D01*
X67037143Y-124562857D02*
X67037143Y-124220000D01*
X67351429Y-124220000D02*
X66751429Y-124220000D01*
X66751429Y-124020000D02*
X67351429Y-123820000D01*
X66751429Y-123620000D01*
X67408571Y-123562857D02*
X67408571Y-123105714D01*
X66751429Y-122848571D02*
X66751429Y-122734285D01*
X66780000Y-122677143D01*
X66837143Y-122620000D01*
X66951429Y-122591428D01*
X67151429Y-122591428D01*
X67265714Y-122620000D01*
X67322857Y-122677143D01*
X67351429Y-122734285D01*
X67351429Y-122848571D01*
X67322857Y-122905714D01*
X67265714Y-122962857D01*
X67151429Y-122991428D01*
X66951429Y-122991428D01*
X66837143Y-122962857D01*
X66780000Y-122905714D01*
X66751429Y-122848571D01*
X67037143Y-122334286D02*
X67037143Y-122134286D01*
X67351429Y-122048572D02*
X67351429Y-122334286D01*
X66751429Y-122334286D01*
X66751429Y-122048572D01*
X69320000Y-123297142D02*
X69291429Y-123354285D01*
X69291429Y-123439999D01*
X69320000Y-123525714D01*
X69377143Y-123582856D01*
X69434286Y-123611428D01*
X69548571Y-123639999D01*
X69634286Y-123639999D01*
X69748571Y-123611428D01*
X69805714Y-123582856D01*
X69862857Y-123525714D01*
X69891429Y-123439999D01*
X69891429Y-123382856D01*
X69862857Y-123297142D01*
X69834286Y-123268571D01*
X69634286Y-123268571D01*
X69634286Y-123382856D01*
X69891429Y-123011428D02*
X69291429Y-123011428D01*
X69891429Y-122668571D01*
X69291429Y-122668571D01*
X69891429Y-122382857D02*
X69291429Y-122382857D01*
X69291429Y-122240000D01*
X69320000Y-122154285D01*
X69377143Y-122097143D01*
X69434286Y-122068571D01*
X69548571Y-122040000D01*
X69634286Y-122040000D01*
X69748571Y-122068571D01*
X69805714Y-122097143D01*
X69862857Y-122154285D01*
X69891429Y-122240000D01*
X69891429Y-122382857D01*
X72394286Y-77670000D02*
X72422857Y-77698571D01*
X72451429Y-77784285D01*
X72451429Y-77841428D01*
X72422857Y-77927143D01*
X72365714Y-77984285D01*
X72308571Y-78012857D01*
X72194286Y-78041428D01*
X72108571Y-78041428D01*
X71994286Y-78012857D01*
X71937143Y-77984285D01*
X71880000Y-77927143D01*
X71851429Y-77841428D01*
X71851429Y-77784285D01*
X71880000Y-77698571D01*
X71908571Y-77670000D01*
X72422857Y-77441428D02*
X72451429Y-77355714D01*
X72451429Y-77212857D01*
X72422857Y-77155714D01*
X72394286Y-77127143D01*
X72337143Y-77098571D01*
X72280000Y-77098571D01*
X72222857Y-77127143D01*
X72194286Y-77155714D01*
X72165714Y-77212857D01*
X72137143Y-77327143D01*
X72108571Y-77384285D01*
X72080000Y-77412857D01*
X72022857Y-77441428D01*
X71965714Y-77441428D01*
X71908571Y-77412857D01*
X71880000Y-77384285D01*
X71851429Y-77327143D01*
X71851429Y-77184285D01*
X71880000Y-77098571D01*
X69380000Y-77707142D02*
X69351429Y-77764285D01*
X69351429Y-77849999D01*
X69380000Y-77935714D01*
X69437143Y-77992856D01*
X69494286Y-78021428D01*
X69608571Y-78049999D01*
X69694286Y-78049999D01*
X69808571Y-78021428D01*
X69865714Y-77992856D01*
X69922857Y-77935714D01*
X69951429Y-77849999D01*
X69951429Y-77792856D01*
X69922857Y-77707142D01*
X69894286Y-77678571D01*
X69694286Y-77678571D01*
X69694286Y-77792856D01*
X69951429Y-77421428D02*
X69351429Y-77421428D01*
X69951429Y-77078571D01*
X69351429Y-77078571D01*
X69951429Y-76792857D02*
X69351429Y-76792857D01*
X69351429Y-76650000D01*
X69380000Y-76564285D01*
X69437143Y-76507143D01*
X69494286Y-76478571D01*
X69608571Y-76450000D01*
X69694286Y-76450000D01*
X69808571Y-76478571D01*
X69865714Y-76507143D01*
X69922857Y-76564285D01*
X69951429Y-76650000D01*
X69951429Y-76792857D01*
X67271429Y-78017857D02*
X66671429Y-78017857D01*
X66957143Y-78017857D02*
X66957143Y-77675000D01*
X67271429Y-77675000D02*
X66671429Y-77675000D01*
X66671429Y-77475000D02*
X67271429Y-77275000D01*
X66671429Y-77075000D01*
X67328571Y-77017857D02*
X67328571Y-76560714D01*
X66671429Y-76303571D02*
X66671429Y-76189285D01*
X66700000Y-76132143D01*
X66757143Y-76075000D01*
X66871429Y-76046428D01*
X67071429Y-76046428D01*
X67185714Y-76075000D01*
X67242857Y-76132143D01*
X67271429Y-76189285D01*
X67271429Y-76303571D01*
X67242857Y-76360714D01*
X67185714Y-76417857D01*
X67071429Y-76446428D01*
X66871429Y-76446428D01*
X66757143Y-76417857D01*
X66700000Y-76360714D01*
X66671429Y-76303571D01*
X66957143Y-75789286D02*
X66957143Y-75589286D01*
X67271429Y-75503572D02*
X67271429Y-75789286D01*
X66671429Y-75789286D01*
X66671429Y-75503572D01*
X64041429Y-78015715D02*
X64641429Y-77615715D01*
X64041429Y-77615715D02*
X64641429Y-78015715D01*
X64641429Y-77072857D02*
X64641429Y-77415714D01*
X64641429Y-77244286D02*
X64041429Y-77244286D01*
X64127143Y-77301429D01*
X64184286Y-77358571D01*
X64212857Y-77415714D01*
X62336905Y-81836905D02*
X62413096Y-81836905D01*
X62489286Y-81875000D01*
X62527381Y-81913095D01*
X62565477Y-81989286D01*
X62603572Y-82141667D01*
X62603572Y-82332143D01*
X62565477Y-82484524D01*
X62527381Y-82560714D01*
X62489286Y-82598810D01*
X62413096Y-82636905D01*
X62336905Y-82636905D01*
X62260715Y-82598810D01*
X62222619Y-82560714D01*
X62184524Y-82484524D01*
X62146429Y-82332143D01*
X62146429Y-82141667D01*
X62184524Y-81989286D01*
X62222619Y-81913095D01*
X62260715Y-81875000D01*
X62336905Y-81836905D01*
D12*
X105923809Y-129352381D02*
X105923809Y-128352381D01*
X106266666Y-129352381D02*
X106266666Y-128828571D01*
X106228571Y-128733333D01*
X106152381Y-128685714D01*
X106038095Y-128685714D01*
X105961904Y-128733333D01*
X105923809Y-128780952D01*
X106533333Y-128685714D02*
X106838095Y-128685714D01*
X106647619Y-128352381D02*
X106647619Y-129209524D01*
X106685714Y-129304762D01*
X106761905Y-129352381D01*
X106838095Y-129352381D01*
X106990476Y-128685714D02*
X107295238Y-128685714D01*
X107104762Y-128352381D02*
X107104762Y-129209524D01*
X107142857Y-129304762D01*
X107219048Y-129352381D01*
X107295238Y-129352381D01*
X107561905Y-128685714D02*
X107561905Y-129685714D01*
X107561905Y-128733333D02*
X107638096Y-128685714D01*
X107790477Y-128685714D01*
X107866667Y-128733333D01*
X107904762Y-128780952D01*
X107942858Y-128876190D01*
X107942858Y-129161905D01*
X107904762Y-129257143D01*
X107866667Y-129304762D01*
X107790477Y-129352381D01*
X107638096Y-129352381D01*
X107561905Y-129304762D01*
X108285715Y-129257143D02*
X108323810Y-129304762D01*
X108285715Y-129352381D01*
X108247620Y-129304762D01*
X108285715Y-129257143D01*
X108285715Y-129352381D01*
X108285715Y-128733333D02*
X108323810Y-128780952D01*
X108285715Y-128828571D01*
X108247620Y-128780952D01*
X108285715Y-128733333D01*
X108285715Y-128828571D01*
X109238096Y-128304762D02*
X108552381Y-129590476D01*
X110076191Y-128304762D02*
X109390476Y-129590476D01*
X110304762Y-129304762D02*
X110380952Y-129352381D01*
X110533333Y-129352381D01*
X110609524Y-129304762D01*
X110647619Y-129209524D01*
X110647619Y-129161905D01*
X110609524Y-129066667D01*
X110533333Y-129019048D01*
X110419048Y-129019048D01*
X110342857Y-128971429D01*
X110304762Y-128876190D01*
X110304762Y-128828571D01*
X110342857Y-128733333D01*
X110419048Y-128685714D01*
X110533333Y-128685714D01*
X110609524Y-128733333D01*
X111333333Y-129304762D02*
X111257143Y-129352381D01*
X111104762Y-129352381D01*
X111028571Y-129304762D01*
X110990476Y-129257143D01*
X110952381Y-129161905D01*
X110952381Y-128876190D01*
X110990476Y-128780952D01*
X111028571Y-128733333D01*
X111104762Y-128685714D01*
X111257143Y-128685714D01*
X111333333Y-128733333D01*
X111676190Y-129352381D02*
X111676190Y-128685714D01*
X111676190Y-128352381D02*
X111638095Y-128400000D01*
X111676190Y-128447619D01*
X111714285Y-128400000D01*
X111676190Y-128352381D01*
X111676190Y-128447619D01*
X112057142Y-128971429D02*
X112666666Y-128971429D01*
X113047618Y-129352381D02*
X113047618Y-128352381D01*
X113047618Y-128733333D02*
X113123809Y-128685714D01*
X113276190Y-128685714D01*
X113352380Y-128733333D01*
X113390475Y-128780952D01*
X113428571Y-128876190D01*
X113428571Y-129161905D01*
X113390475Y-129257143D01*
X113352380Y-129304762D01*
X113276190Y-129352381D01*
X113123809Y-129352381D01*
X113047618Y-129304762D01*
X113885714Y-129352381D02*
X113809523Y-129304762D01*
X113771428Y-129257143D01*
X113733333Y-129161905D01*
X113733333Y-128876190D01*
X113771428Y-128780952D01*
X113809523Y-128733333D01*
X113885714Y-128685714D01*
X114000000Y-128685714D01*
X114076190Y-128733333D01*
X114114285Y-128780952D01*
X114152381Y-128876190D01*
X114152381Y-129161905D01*
X114114285Y-129257143D01*
X114076190Y-129304762D01*
X114000000Y-129352381D01*
X113885714Y-129352381D01*
X114380952Y-128685714D02*
X114685714Y-128685714D01*
X114495238Y-128352381D02*
X114495238Y-129209524D01*
X114533333Y-129304762D01*
X114609524Y-129352381D01*
X114685714Y-129352381D01*
X114914286Y-129304762D02*
X114990476Y-129352381D01*
X115142857Y-129352381D01*
X115219048Y-129304762D01*
X115257143Y-129209524D01*
X115257143Y-129161905D01*
X115219048Y-129066667D01*
X115142857Y-129019048D01*
X115028572Y-129019048D01*
X114952381Y-128971429D01*
X114914286Y-128876190D01*
X114914286Y-128828571D01*
X114952381Y-128733333D01*
X115028572Y-128685714D01*
X115142857Y-128685714D01*
X115219048Y-128733333D01*
X115600000Y-129257143D02*
X115638095Y-129304762D01*
X115600000Y-129352381D01*
X115561905Y-129304762D01*
X115600000Y-129257143D01*
X115600000Y-129352381D01*
X116323809Y-129304762D02*
X116247619Y-129352381D01*
X116095238Y-129352381D01*
X116019047Y-129304762D01*
X115980952Y-129257143D01*
X115942857Y-129161905D01*
X115942857Y-128876190D01*
X115980952Y-128780952D01*
X116019047Y-128733333D01*
X116095238Y-128685714D01*
X116247619Y-128685714D01*
X116323809Y-128733333D01*
X116780952Y-129352381D02*
X116704761Y-129304762D01*
X116666666Y-129257143D01*
X116628571Y-129161905D01*
X116628571Y-128876190D01*
X116666666Y-128780952D01*
X116704761Y-128733333D01*
X116780952Y-128685714D01*
X116895238Y-128685714D01*
X116971428Y-128733333D01*
X117009523Y-128780952D01*
X117047619Y-128876190D01*
X117047619Y-129161905D01*
X117009523Y-129257143D01*
X116971428Y-129304762D01*
X116895238Y-129352381D01*
X116780952Y-129352381D01*
X117390476Y-129352381D02*
X117390476Y-128685714D01*
X117390476Y-128780952D02*
X117428571Y-128733333D01*
X117504762Y-128685714D01*
X117619048Y-128685714D01*
X117695238Y-128733333D01*
X117733333Y-128828571D01*
X117733333Y-129352381D01*
X117733333Y-128828571D02*
X117771429Y-128733333D01*
X117847619Y-128685714D01*
X117961905Y-128685714D01*
X118038095Y-128733333D01*
X118076190Y-128828571D01*
X118076190Y-129352381D01*
X106019048Y-130904762D02*
X106133334Y-130952381D01*
X106323810Y-130952381D01*
X106400000Y-130904762D01*
X106438096Y-130857143D01*
X106476191Y-130761905D01*
X106476191Y-130666667D01*
X106438096Y-130571429D01*
X106400000Y-130523810D01*
X106323810Y-130476190D01*
X106171429Y-130428571D01*
X106095238Y-130380952D01*
X106057143Y-130333333D01*
X106019048Y-130238095D01*
X106019048Y-130142857D01*
X106057143Y-130047619D01*
X106095238Y-130000000D01*
X106171429Y-129952381D01*
X106361905Y-129952381D01*
X106476191Y-130000000D01*
X107161905Y-130904762D02*
X107085715Y-130952381D01*
X106933334Y-130952381D01*
X106857143Y-130904762D01*
X106819048Y-130857143D01*
X106780953Y-130761905D01*
X106780953Y-130476190D01*
X106819048Y-130380952D01*
X106857143Y-130333333D01*
X106933334Y-130285714D01*
X107085715Y-130285714D01*
X107161905Y-130333333D01*
X107504762Y-130952381D02*
X107504762Y-130285714D01*
X107504762Y-129952381D02*
X107466667Y-130000000D01*
X107504762Y-130047619D01*
X107542857Y-130000000D01*
X107504762Y-129952381D01*
X107504762Y-130047619D01*
X107885714Y-130571429D02*
X108495238Y-130571429D01*
X109142857Y-130428571D02*
X109257143Y-130476190D01*
X109295238Y-130523810D01*
X109333333Y-130619048D01*
X109333333Y-130761905D01*
X109295238Y-130857143D01*
X109257143Y-130904762D01*
X109180952Y-130952381D01*
X108876190Y-130952381D01*
X108876190Y-129952381D01*
X109142857Y-129952381D01*
X109219047Y-130000000D01*
X109257143Y-130047619D01*
X109295238Y-130142857D01*
X109295238Y-130238095D01*
X109257143Y-130333333D01*
X109219047Y-130380952D01*
X109142857Y-130428571D01*
X108876190Y-130428571D01*
X109790476Y-130952381D02*
X109714285Y-130904762D01*
X109676190Y-130857143D01*
X109638095Y-130761905D01*
X109638095Y-130476190D01*
X109676190Y-130380952D01*
X109714285Y-130333333D01*
X109790476Y-130285714D01*
X109904762Y-130285714D01*
X109980952Y-130333333D01*
X110019047Y-130380952D01*
X110057143Y-130476190D01*
X110057143Y-130761905D01*
X110019047Y-130857143D01*
X109980952Y-130904762D01*
X109904762Y-130952381D01*
X109790476Y-130952381D01*
X110285714Y-130285714D02*
X110590476Y-130285714D01*
X110400000Y-129952381D02*
X110400000Y-130809524D01*
X110438095Y-130904762D01*
X110514286Y-130952381D01*
X110590476Y-130952381D01*
X110819048Y-130904762D02*
X110895238Y-130952381D01*
X111047619Y-130952381D01*
X111123810Y-130904762D01*
X111161905Y-130809524D01*
X111161905Y-130761905D01*
X111123810Y-130666667D01*
X111047619Y-130619048D01*
X110933334Y-130619048D01*
X110857143Y-130571429D01*
X110819048Y-130476190D01*
X110819048Y-130428571D01*
X110857143Y-130333333D01*
X110933334Y-130285714D01*
X111047619Y-130285714D01*
X111123810Y-130333333D01*
X112114286Y-130952381D02*
X112114286Y-129952381D01*
X112495238Y-130285714D02*
X112495238Y-130952381D01*
X112495238Y-130380952D02*
X112533333Y-130333333D01*
X112609524Y-130285714D01*
X112723810Y-130285714D01*
X112800000Y-130333333D01*
X112838095Y-130428571D01*
X112838095Y-130952381D01*
X113561905Y-130904762D02*
X113485715Y-130952381D01*
X113333334Y-130952381D01*
X113257143Y-130904762D01*
X113219048Y-130857143D01*
X113180953Y-130761905D01*
X113180953Y-130476190D01*
X113219048Y-130380952D01*
X113257143Y-130333333D01*
X113333334Y-130285714D01*
X113485715Y-130285714D01*
X113561905Y-130333333D01*
X113904762Y-130857143D02*
X113942857Y-130904762D01*
X113904762Y-130952381D01*
X113866667Y-130904762D01*
X113904762Y-130857143D01*
X113904762Y-130952381D01*
X114323809Y-130904762D02*
X114323809Y-130952381D01*
X114285714Y-131047619D01*
X114247619Y-131095238D01*
X115238095Y-130047619D02*
X115276190Y-130000000D01*
X115352381Y-129952381D01*
X115542857Y-129952381D01*
X115619047Y-130000000D01*
X115657143Y-130047619D01*
X115695238Y-130142857D01*
X115695238Y-130238095D01*
X115657143Y-130380952D01*
X115200000Y-130952381D01*
X115695238Y-130952381D01*
X116190476Y-129952381D02*
X116266667Y-129952381D01*
X116342857Y-130000000D01*
X116380952Y-130047619D01*
X116419048Y-130142857D01*
X116457143Y-130333333D01*
X116457143Y-130571429D01*
X116419048Y-130761905D01*
X116380952Y-130857143D01*
X116342857Y-130904762D01*
X116266667Y-130952381D01*
X116190476Y-130952381D01*
X116114286Y-130904762D01*
X116076190Y-130857143D01*
X116038095Y-130761905D01*
X116000000Y-130571429D01*
X116000000Y-130333333D01*
X116038095Y-130142857D01*
X116076190Y-130047619D01*
X116114286Y-130000000D01*
X116190476Y-129952381D01*
X117219048Y-130952381D02*
X116761905Y-130952381D01*
X116990476Y-130952381D02*
X116990476Y-129952381D01*
X116914286Y-130095238D01*
X116838095Y-130190476D01*
X116761905Y-130238095D01*
X117485715Y-129952381D02*
X118019048Y-129952381D01*
X117676191Y-130952381D01*
X83090476Y-131952381D02*
X83090476Y-130952381D01*
X83280952Y-130952381D01*
X83395238Y-131000000D01*
X83471429Y-131095238D01*
X83509524Y-131190476D01*
X83547619Y-131380952D01*
X83547619Y-131523810D01*
X83509524Y-131714286D01*
X83471429Y-131809524D01*
X83395238Y-131904762D01*
X83280952Y-131952381D01*
X83090476Y-131952381D01*
X83890476Y-131952381D02*
X83890476Y-131285714D01*
X83890476Y-131476190D02*
X83928571Y-131380952D01*
X83966667Y-131333333D01*
X84042857Y-131285714D01*
X84119048Y-131285714D01*
X84500000Y-131952381D02*
X84423809Y-131904762D01*
X84385714Y-131857143D01*
X84347619Y-131761905D01*
X84347619Y-131476190D01*
X84385714Y-131380952D01*
X84423809Y-131333333D01*
X84500000Y-131285714D01*
X84614286Y-131285714D01*
X84690476Y-131333333D01*
X84728571Y-131380952D01*
X84766667Y-131476190D01*
X84766667Y-131761905D01*
X84728571Y-131857143D01*
X84690476Y-131904762D01*
X84614286Y-131952381D01*
X84500000Y-131952381D01*
X85109524Y-131285714D02*
X85109524Y-132285714D01*
X85109524Y-131333333D02*
X85185715Y-131285714D01*
X85338096Y-131285714D01*
X85414286Y-131333333D01*
X85452381Y-131380952D01*
X85490477Y-131476190D01*
X85490477Y-131761905D01*
X85452381Y-131857143D01*
X85414286Y-131904762D01*
X85338096Y-131952381D01*
X85185715Y-131952381D01*
X85109524Y-131904762D01*
X86100001Y-131428571D02*
X86214287Y-131476190D01*
X86252382Y-131523810D01*
X86290477Y-131619048D01*
X86290477Y-131761905D01*
X86252382Y-131857143D01*
X86214287Y-131904762D01*
X86138096Y-131952381D01*
X85833334Y-131952381D01*
X85833334Y-130952381D01*
X86100001Y-130952381D01*
X86176191Y-131000000D01*
X86214287Y-131047619D01*
X86252382Y-131142857D01*
X86252382Y-131238095D01*
X86214287Y-131333333D01*
X86176191Y-131380952D01*
X86100001Y-131428571D01*
X85833334Y-131428571D01*
X86747620Y-131952381D02*
X86671429Y-131904762D01*
X86633334Y-131857143D01*
X86595239Y-131761905D01*
X86595239Y-131476190D01*
X86633334Y-131380952D01*
X86671429Y-131333333D01*
X86747620Y-131285714D01*
X86861906Y-131285714D01*
X86938096Y-131333333D01*
X86976191Y-131380952D01*
X87014287Y-131476190D01*
X87014287Y-131761905D01*
X86976191Y-131857143D01*
X86938096Y-131904762D01*
X86861906Y-131952381D01*
X86747620Y-131952381D01*
X87242858Y-131285714D02*
X87547620Y-131285714D01*
X87357144Y-130952381D02*
X87357144Y-131809524D01*
X87395239Y-131904762D01*
X87471430Y-131952381D01*
X87547620Y-131952381D01*
X83509524Y-133552381D02*
X83052381Y-133552381D01*
X83280952Y-133552381D02*
X83280952Y-132552381D01*
X83204762Y-132695238D01*
X83128571Y-132790476D01*
X83052381Y-132838095D01*
X83814286Y-132647619D02*
X83852381Y-132600000D01*
X83928572Y-132552381D01*
X84119048Y-132552381D01*
X84195238Y-132600000D01*
X84233334Y-132647619D01*
X84271429Y-132742857D01*
X84271429Y-132838095D01*
X84233334Y-132980952D01*
X83776191Y-133552381D01*
X84271429Y-133552381D01*
X84766667Y-132552381D02*
X84842858Y-132552381D01*
X84919048Y-132600000D01*
X84957143Y-132647619D01*
X84995239Y-132742857D01*
X85033334Y-132933333D01*
X85033334Y-133171429D01*
X84995239Y-133361905D01*
X84957143Y-133457143D01*
X84919048Y-133504762D01*
X84842858Y-133552381D01*
X84766667Y-133552381D01*
X84690477Y-133504762D01*
X84652381Y-133457143D01*
X84614286Y-133361905D01*
X84576191Y-133171429D01*
X84576191Y-132933333D01*
X84614286Y-132742857D01*
X84652381Y-132647619D01*
X84690477Y-132600000D01*
X84766667Y-132552381D01*
X85376191Y-133171429D02*
X85985715Y-133171429D01*
X86709524Y-133504762D02*
X86633334Y-133552381D01*
X86480953Y-133552381D01*
X86404762Y-133504762D01*
X86366667Y-133457143D01*
X86328572Y-133361905D01*
X86328572Y-133076190D01*
X86366667Y-132980952D01*
X86404762Y-132933333D01*
X86480953Y-132885714D01*
X86633334Y-132885714D01*
X86709524Y-132933333D01*
X87052381Y-133552381D02*
X87052381Y-132552381D01*
X87395238Y-133552381D02*
X87395238Y-133028571D01*
X87357143Y-132933333D01*
X87280953Y-132885714D01*
X87166667Y-132885714D01*
X87090476Y-132933333D01*
X87052381Y-132980952D01*
X88119048Y-133552381D02*
X88119048Y-133028571D01*
X88080953Y-132933333D01*
X88004763Y-132885714D01*
X87852382Y-132885714D01*
X87776191Y-132933333D01*
X88119048Y-133504762D02*
X88042858Y-133552381D01*
X87852382Y-133552381D01*
X87776191Y-133504762D01*
X87738096Y-133409524D01*
X87738096Y-133314286D01*
X87776191Y-133219048D01*
X87852382Y-133171429D01*
X88042858Y-133171429D01*
X88119048Y-133123810D01*
X88500001Y-132885714D02*
X88500001Y-133552381D01*
X88500001Y-132980952D02*
X88538096Y-132933333D01*
X88614287Y-132885714D01*
X88728573Y-132885714D01*
X88804763Y-132933333D01*
X88842858Y-133028571D01*
X88842858Y-133552381D01*
X89223811Y-132885714D02*
X89223811Y-133552381D01*
X89223811Y-132980952D02*
X89261906Y-132933333D01*
X89338097Y-132885714D01*
X89452383Y-132885714D01*
X89528573Y-132933333D01*
X89566668Y-133028571D01*
X89566668Y-133552381D01*
X90252383Y-133504762D02*
X90176193Y-133552381D01*
X90023812Y-133552381D01*
X89947621Y-133504762D01*
X89909526Y-133409524D01*
X89909526Y-133028571D01*
X89947621Y-132933333D01*
X90023812Y-132885714D01*
X90176193Y-132885714D01*
X90252383Y-132933333D01*
X90290478Y-133028571D01*
X90290478Y-133123810D01*
X89909526Y-133219048D01*
X90747621Y-133552381D02*
X90671430Y-133504762D01*
X90633335Y-133409524D01*
X90633335Y-132552381D01*
X91661907Y-132885714D02*
X91661907Y-133885714D01*
X91661907Y-132933333D02*
X91738098Y-132885714D01*
X91890479Y-132885714D01*
X91966669Y-132933333D01*
X92004764Y-132980952D01*
X92042860Y-133076190D01*
X92042860Y-133361905D01*
X92004764Y-133457143D01*
X91966669Y-133504762D01*
X91890479Y-133552381D01*
X91738098Y-133552381D01*
X91661907Y-133504762D01*
X92500003Y-133552381D02*
X92423812Y-133504762D01*
X92385717Y-133457143D01*
X92347622Y-133361905D01*
X92347622Y-133076190D01*
X92385717Y-132980952D01*
X92423812Y-132933333D01*
X92500003Y-132885714D01*
X92614289Y-132885714D01*
X92690479Y-132933333D01*
X92728574Y-132980952D01*
X92766670Y-133076190D01*
X92766670Y-133361905D01*
X92728574Y-133457143D01*
X92690479Y-133504762D01*
X92614289Y-133552381D01*
X92500003Y-133552381D01*
X93452384Y-132885714D02*
X93452384Y-133695238D01*
X93414289Y-133790476D01*
X93376194Y-133838095D01*
X93300003Y-133885714D01*
X93185718Y-133885714D01*
X93109527Y-133838095D01*
X93452384Y-133504762D02*
X93376194Y-133552381D01*
X93223813Y-133552381D01*
X93147622Y-133504762D01*
X93109527Y-133457143D01*
X93071432Y-133361905D01*
X93071432Y-133076190D01*
X93109527Y-132980952D01*
X93147622Y-132933333D01*
X93223813Y-132885714D01*
X93376194Y-132885714D01*
X93452384Y-132933333D01*
X93947623Y-133552381D02*
X93871432Y-133504762D01*
X93833337Y-133457143D01*
X93795242Y-133361905D01*
X93795242Y-133076190D01*
X93833337Y-132980952D01*
X93871432Y-132933333D01*
X93947623Y-132885714D01*
X94061909Y-132885714D01*
X94138099Y-132933333D01*
X94176194Y-132980952D01*
X94214290Y-133076190D01*
X94214290Y-133361905D01*
X94176194Y-133457143D01*
X94138099Y-133504762D01*
X94061909Y-133552381D01*
X93947623Y-133552381D01*
X94557147Y-133171429D02*
X95166671Y-133171429D01*
X95547623Y-132885714D02*
X95547623Y-133885714D01*
X95547623Y-132933333D02*
X95623814Y-132885714D01*
X95776195Y-132885714D01*
X95852385Y-132933333D01*
X95890480Y-132980952D01*
X95928576Y-133076190D01*
X95928576Y-133361905D01*
X95890480Y-133457143D01*
X95852385Y-133504762D01*
X95776195Y-133552381D01*
X95623814Y-133552381D01*
X95547623Y-133504762D01*
X96271433Y-133552381D02*
X96271433Y-132885714D01*
X96271433Y-132552381D02*
X96233338Y-132600000D01*
X96271433Y-132647619D01*
X96309528Y-132600000D01*
X96271433Y-132552381D01*
X96271433Y-132647619D01*
X96652385Y-132885714D02*
X96652385Y-133552381D01*
X96652385Y-132980952D02*
X96690480Y-132933333D01*
X96766671Y-132885714D01*
X96880957Y-132885714D01*
X96957147Y-132933333D01*
X96995242Y-133028571D01*
X96995242Y-133552381D01*
X97985719Y-133552381D02*
X97985719Y-132552381D01*
X97985719Y-132933333D02*
X98061910Y-132885714D01*
X98214291Y-132885714D01*
X98290481Y-132933333D01*
X98328576Y-132980952D01*
X98366672Y-133076190D01*
X98366672Y-133361905D01*
X98328576Y-133457143D01*
X98290481Y-133504762D01*
X98214291Y-133552381D01*
X98061910Y-133552381D01*
X97985719Y-133504762D01*
X98823815Y-133552381D02*
X98747624Y-133504762D01*
X98709529Y-133457143D01*
X98671434Y-133361905D01*
X98671434Y-133076190D01*
X98709529Y-132980952D01*
X98747624Y-132933333D01*
X98823815Y-132885714D01*
X98938101Y-132885714D01*
X99014291Y-132933333D01*
X99052386Y-132980952D01*
X99090482Y-133076190D01*
X99090482Y-133361905D01*
X99052386Y-133457143D01*
X99014291Y-133504762D01*
X98938101Y-133552381D01*
X98823815Y-133552381D01*
X99776196Y-133552381D02*
X99776196Y-133028571D01*
X99738101Y-132933333D01*
X99661911Y-132885714D01*
X99509530Y-132885714D01*
X99433339Y-132933333D01*
X99776196Y-133504762D02*
X99700006Y-133552381D01*
X99509530Y-133552381D01*
X99433339Y-133504762D01*
X99395244Y-133409524D01*
X99395244Y-133314286D01*
X99433339Y-133219048D01*
X99509530Y-133171429D01*
X99700006Y-133171429D01*
X99776196Y-133123810D01*
X100157149Y-133552381D02*
X100157149Y-132885714D01*
X100157149Y-133076190D02*
X100195244Y-132980952D01*
X100233340Y-132933333D01*
X100309530Y-132885714D01*
X100385721Y-132885714D01*
X100995244Y-133552381D02*
X100995244Y-132552381D01*
X100995244Y-133504762D02*
X100919054Y-133552381D01*
X100766673Y-133552381D01*
X100690482Y-133504762D01*
X100652387Y-133457143D01*
X100614292Y-133361905D01*
X100614292Y-133076190D01*
X100652387Y-132980952D01*
X100690482Y-132933333D01*
X100766673Y-132885714D01*
X100919054Y-132885714D01*
X100995244Y-132933333D01*
X101909531Y-132885714D02*
X102100007Y-133552381D01*
X102290483Y-132885714D01*
X102519055Y-132552381D02*
X103014293Y-132552381D01*
X102747626Y-132933333D01*
X102861912Y-132933333D01*
X102938102Y-132980952D01*
X102976198Y-133028571D01*
X103014293Y-133123810D01*
X103014293Y-133361905D01*
X102976198Y-133457143D01*
X102938102Y-133504762D01*
X102861912Y-133552381D01*
X102633340Y-133552381D01*
X102557150Y-133504762D01*
X102519055Y-133457143D01*
X103357150Y-133457143D02*
X103395245Y-133504762D01*
X103357150Y-133552381D01*
X103319055Y-133504762D01*
X103357150Y-133457143D01*
X103357150Y-133552381D01*
X104157150Y-133552381D02*
X103700007Y-133552381D01*
X103928578Y-133552381D02*
X103928578Y-132552381D01*
X103852388Y-132695238D01*
X103776197Y-132790476D01*
X103700007Y-132838095D01*
D13*
X49619100Y-145191200D02*
X49619100Y-143768800D01*
X48907900Y-144480000D02*
X50330300Y-144480000D01*
X50121994Y-144480000D02*
G75*
G03X50121994Y-144480000I-502894J0D01*
G01*
X48097640Y-145623000D02*
X48097640Y-143337000D01*
X49873100Y-145623000D02*
X48097640Y-145623000D01*
X49873100Y-147337500D02*
X49873100Y-145623000D01*
X50381100Y-142448000D02*
X50381100Y-141622500D01*
X49873100Y-142448000D02*
X50381100Y-142448000D01*
X49873100Y-143337000D02*
X49873100Y-142448000D01*
X48097640Y-143337000D02*
X49873100Y-143337000D01*
X50381100Y-141622500D02*
X76670100Y-141622500D01*
X76670100Y-141622500D02*
X76670100Y-143337000D01*
X76670100Y-143337000D02*
X78445560Y-143337000D01*
X78445560Y-143337000D02*
X78445560Y-145623000D01*
X78445560Y-145623000D02*
X76670100Y-145623000D01*
X76670100Y-145623000D02*
X76670100Y-147337500D01*
X76670100Y-147337500D02*
X49873100Y-147337500D01*
X77426994Y-144480000D02*
G75*
G03X77426994Y-144480000I-502894J0D01*
G01*
X76212900Y-144480000D02*
X77635300Y-144480000D01*
X76924100Y-145191200D02*
X76924100Y-143768800D01*
D14*
X63093180Y-80957620D02*
X63093180Y-121717620D01*
X63093180Y-121717620D02*
X68413180Y-121717620D01*
X68413180Y-121717620D02*
X68413180Y-78297620D01*
X68413180Y-78297620D02*
X65753180Y-78297620D01*
X65753180Y-78297620D02*
X65753180Y-80957620D01*
X65753180Y-80957620D02*
X63093180Y-80957620D01*
X63093180Y-79687620D02*
X63093180Y-78297620D01*
X63093180Y-78297620D02*
X64483180Y-78297620D01*
X68198580Y-80957620D02*
X68198580Y-121717620D01*
X68198580Y-121717620D02*
X73518580Y-121717620D01*
X73518580Y-121717620D02*
X73518580Y-78297620D01*
X73518580Y-78297620D02*
X70858580Y-78297620D01*
X70858580Y-78297620D02*
X70858580Y-80957620D01*
X70858580Y-80957620D02*
X68198580Y-80957620D01*
X68198580Y-79687620D02*
X68198580Y-78297620D01*
X68198580Y-78297620D02*
X69588580Y-78297620D01*
X136838240Y-119044920D02*
X136838240Y-78284920D01*
X136838240Y-78284920D02*
X131518240Y-78284920D01*
X131518240Y-78284920D02*
X131518240Y-121704920D01*
X131518240Y-121704920D02*
X134178240Y-121704920D01*
X134178240Y-121704920D02*
X134178240Y-119044920D01*
X134178240Y-119044920D02*
X136838240Y-119044920D01*
X136838240Y-120314920D02*
X136838240Y-121704920D01*
X136838240Y-121704920D02*
X135448240Y-121704920D01*
X131819200Y-119055080D02*
X131819200Y-78295080D01*
X131819200Y-78295080D02*
X126499200Y-78295080D01*
X126499200Y-78295080D02*
X126499200Y-121715080D01*
X126499200Y-121715080D02*
X129159200Y-121715080D01*
X129159200Y-121715080D02*
X129159200Y-119055080D01*
X129159200Y-119055080D02*
X131819200Y-119055080D01*
X131819200Y-120325080D02*
X131819200Y-121715080D01*
X131819200Y-121715080D02*
X130429200Y-121715080D01*
X141500000Y-80150000D02*
X140500000Y-80150000D01*
X140500000Y-81850000D02*
X141500000Y-81850000D01*
X58500000Y-81850000D02*
X59500000Y-81850000D01*
X59500000Y-80150000D02*
X58500000Y-80150000D01*
X141600000Y-79880000D02*
X140400000Y-79880000D01*
X140400000Y-78120000D02*
X141600000Y-78120000D01*
X58400000Y-78120000D02*
X59600000Y-78120000D01*
X59600000Y-79880000D02*
X58400000Y-79880000D01*
X119230000Y-136750000D02*
X119230000Y-137950000D01*
X117470000Y-137950000D02*
X117470000Y-136750000D01*
X122330000Y-135790000D02*
X120570000Y-135790000D01*
X120570000Y-138860000D02*
X123000000Y-138860000D01*
D15*
G36*
X78437162Y-131373430D02*
X78438990Y-131376248D01*
X78480771Y-131421927D01*
X78495751Y-131433009D01*
X78510309Y-131449766D01*
X78478054Y-131455352D01*
X78473350Y-131455411D01*
X78428030Y-131442195D01*
X78416588Y-131398650D01*
X78421416Y-131362508D01*
X78437162Y-131373430D01*
X78437162Y-131373430D01*
G37*
X78437162Y-131373430D02*
X78438990Y-131376248D01*
X78480771Y-131421927D01*
X78495751Y-131433009D01*
X78510309Y-131449766D01*
X78478054Y-131455352D01*
X78473350Y-131455411D01*
X78428030Y-131442195D01*
X78416588Y-131398650D01*
X78421416Y-131362508D01*
X78437162Y-131373430D01*
G36*
X98608752Y-131393945D02*
X98608811Y-131398650D01*
X98595595Y-131443969D01*
X98552050Y-131455411D01*
X98515908Y-131450583D01*
X98526830Y-131434837D01*
X98529648Y-131433009D01*
X98575327Y-131391228D01*
X98586409Y-131376248D01*
X98603166Y-131361690D01*
X98608752Y-131393945D01*
X98608752Y-131393945D01*
G37*
X98608752Y-131393945D02*
X98608811Y-131398650D01*
X98595595Y-131443969D01*
X98552050Y-131455411D01*
X98515908Y-131450583D01*
X98526830Y-131434837D01*
X98529648Y-131433009D01*
X98575327Y-131391228D01*
X98586409Y-131376248D01*
X98603166Y-131361690D01*
X98608752Y-131393945D01*
G36*
X79857960Y-127830288D02*
X80080775Y-128052071D01*
X80181937Y-127951081D01*
X80255379Y-127889534D01*
X80329580Y-127845754D01*
X80363750Y-127834050D01*
X80411260Y-127829512D01*
X80454190Y-127841995D01*
X80506012Y-127878253D01*
X80574514Y-127939716D01*
X80704628Y-128061423D01*
X80926351Y-127840728D01*
X81148073Y-127620033D01*
X81424701Y-127900141D01*
X80981525Y-128345379D01*
X81050872Y-128414727D01*
X81120220Y-128484074D01*
X81565458Y-128040898D01*
X81845566Y-128317526D01*
X81401806Y-128763352D01*
X81471127Y-128832672D01*
X81540447Y-128901993D01*
X81986273Y-128458233D01*
X82118936Y-128592565D01*
X82183185Y-128660653D01*
X82230306Y-128716368D01*
X82251267Y-128748923D01*
X82251600Y-128750968D01*
X82234649Y-128777483D01*
X82188570Y-128831521D01*
X82120527Y-128905058D01*
X82042862Y-128984866D01*
X81834125Y-129194693D01*
X81941262Y-129303858D01*
X82006980Y-129378486D01*
X82039813Y-129439607D01*
X82048400Y-129500000D01*
X82038956Y-129562974D01*
X82004876Y-129624353D01*
X81941262Y-129696141D01*
X81834125Y-129805306D01*
X82042862Y-130015133D01*
X82125032Y-130099687D01*
X82191976Y-130172294D01*
X82236531Y-130224929D01*
X82251600Y-130249031D01*
X82234894Y-130277605D01*
X82190799Y-130330804D01*
X82128348Y-130397843D01*
X82118936Y-130407434D01*
X81986273Y-130541766D01*
X81540447Y-130098006D01*
X81471127Y-130167327D01*
X81401806Y-130236647D01*
X81845566Y-130682473D01*
X81565458Y-130959101D01*
X81120220Y-130515925D01*
X81050872Y-130585272D01*
X80981525Y-130654620D01*
X81424701Y-131099858D01*
X81148073Y-131379966D01*
X80926351Y-131159271D01*
X80704628Y-130938576D01*
X80574514Y-131060283D01*
X80502131Y-131124929D01*
X80451257Y-131159455D01*
X80408452Y-131170612D01*
X80364144Y-131165938D01*
X80300456Y-131138970D01*
X80224735Y-131087384D01*
X80181136Y-131049042D01*
X80078382Y-130948197D01*
X79863802Y-131163898D01*
X79779502Y-131247521D01*
X79708313Y-131316040D01*
X79657701Y-131362414D01*
X79635133Y-131379599D01*
X79635093Y-131379600D01*
X79611806Y-131362797D01*
X79562869Y-131318287D01*
X79497911Y-131254914D01*
X79482831Y-131239729D01*
X79344698Y-131099858D01*
X79787874Y-130654620D01*
X79718527Y-130585272D01*
X79649179Y-130515925D01*
X79203941Y-130959101D01*
X78923833Y-130682473D01*
X79367593Y-130236647D01*
X79298272Y-130167327D01*
X79228952Y-130098006D01*
X78783126Y-130541766D01*
X78506498Y-130261658D01*
X78947366Y-129817500D01*
X78834183Y-129698328D01*
X78755612Y-129602841D01*
X78721375Y-129521240D01*
X78724103Y-129500000D01*
X79381400Y-129500000D01*
X79389221Y-129528510D01*
X79414959Y-129570261D01*
X79462026Y-129629113D01*
X79533833Y-129708927D01*
X79633791Y-129813562D01*
X79765312Y-129946879D01*
X79859170Y-130040628D01*
X80007545Y-130186421D01*
X80136524Y-130309455D01*
X80242665Y-130406622D01*
X80322523Y-130474815D01*
X80372656Y-130510929D01*
X80385976Y-130516000D01*
X80419042Y-130498050D01*
X80483623Y-130446240D01*
X80576340Y-130363631D01*
X80693815Y-130253284D01*
X80832669Y-130118257D01*
X80911505Y-130040000D01*
X81064479Y-129886019D01*
X81183651Y-129763183D01*
X81272240Y-129667850D01*
X81333463Y-129596377D01*
X81370538Y-129545120D01*
X81386682Y-129510437D01*
X81388000Y-129500495D01*
X81379213Y-129471301D01*
X81350714Y-129426883D01*
X81299298Y-129363601D01*
X81221757Y-129277820D01*
X81114885Y-129165900D01*
X80975476Y-129024206D01*
X80912000Y-128960494D01*
X80760697Y-128810913D01*
X80630556Y-128686087D01*
X80524627Y-128588779D01*
X80445958Y-128521753D01*
X80397597Y-128487773D01*
X80386471Y-128484000D01*
X80352931Y-128501989D01*
X80287657Y-128554064D01*
X80193801Y-128637382D01*
X80074516Y-128749102D01*
X79932954Y-128886381D01*
X79859170Y-128959371D01*
X79707412Y-129111436D01*
X79589230Y-129232539D01*
X79501214Y-129326542D01*
X79439952Y-129397304D01*
X79402033Y-129448686D01*
X79384045Y-129484548D01*
X79381400Y-129500000D01*
X78724103Y-129500000D01*
X78731474Y-129442611D01*
X78785906Y-129356038D01*
X78834183Y-129301671D01*
X78947366Y-129182500D01*
X78726932Y-128960420D01*
X78506498Y-128738341D01*
X78783126Y-128458233D01*
X79228952Y-128901993D01*
X79298272Y-128832672D01*
X79367593Y-128763352D01*
X78923833Y-128317526D01*
X79203941Y-128040898D01*
X79649179Y-128484074D01*
X79718527Y-128414727D01*
X79787874Y-128345379D01*
X79344106Y-127899545D01*
X79489626Y-127754026D01*
X79635145Y-127608506D01*
X79857960Y-127830288D01*
X79857960Y-127830288D01*
G37*
X79857960Y-127830288D02*
X80080775Y-128052071D01*
X80181937Y-127951081D01*
X80255379Y-127889534D01*
X80329580Y-127845754D01*
X80363750Y-127834050D01*
X80411260Y-127829512D01*
X80454190Y-127841995D01*
X80506012Y-127878253D01*
X80574514Y-127939716D01*
X80704628Y-128061423D01*
X80926351Y-127840728D01*
X81148073Y-127620033D01*
X81424701Y-127900141D01*
X80981525Y-128345379D01*
X81050872Y-128414727D01*
X81120220Y-128484074D01*
X81565458Y-128040898D01*
X81845566Y-128317526D01*
X81401806Y-128763352D01*
X81471127Y-128832672D01*
X81540447Y-128901993D01*
X81986273Y-128458233D01*
X82118936Y-128592565D01*
X82183185Y-128660653D01*
X82230306Y-128716368D01*
X82251267Y-128748923D01*
X82251600Y-128750968D01*
X82234649Y-128777483D01*
X82188570Y-128831521D01*
X82120527Y-128905058D01*
X82042862Y-128984866D01*
X81834125Y-129194693D01*
X81941262Y-129303858D01*
X82006980Y-129378486D01*
X82039813Y-129439607D01*
X82048400Y-129500000D01*
X82038956Y-129562974D01*
X82004876Y-129624353D01*
X81941262Y-129696141D01*
X81834125Y-129805306D01*
X82042862Y-130015133D01*
X82125032Y-130099687D01*
X82191976Y-130172294D01*
X82236531Y-130224929D01*
X82251600Y-130249031D01*
X82234894Y-130277605D01*
X82190799Y-130330804D01*
X82128348Y-130397843D01*
X82118936Y-130407434D01*
X81986273Y-130541766D01*
X81540447Y-130098006D01*
X81471127Y-130167327D01*
X81401806Y-130236647D01*
X81845566Y-130682473D01*
X81565458Y-130959101D01*
X81120220Y-130515925D01*
X81050872Y-130585272D01*
X80981525Y-130654620D01*
X81424701Y-131099858D01*
X81148073Y-131379966D01*
X80926351Y-131159271D01*
X80704628Y-130938576D01*
X80574514Y-131060283D01*
X80502131Y-131124929D01*
X80451257Y-131159455D01*
X80408452Y-131170612D01*
X80364144Y-131165938D01*
X80300456Y-131138970D01*
X80224735Y-131087384D01*
X80181136Y-131049042D01*
X80078382Y-130948197D01*
X79863802Y-131163898D01*
X79779502Y-131247521D01*
X79708313Y-131316040D01*
X79657701Y-131362414D01*
X79635133Y-131379599D01*
X79635093Y-131379600D01*
X79611806Y-131362797D01*
X79562869Y-131318287D01*
X79497911Y-131254914D01*
X79482831Y-131239729D01*
X79344698Y-131099858D01*
X79787874Y-130654620D01*
X79718527Y-130585272D01*
X79649179Y-130515925D01*
X79203941Y-130959101D01*
X78923833Y-130682473D01*
X79367593Y-130236647D01*
X79298272Y-130167327D01*
X79228952Y-130098006D01*
X78783126Y-130541766D01*
X78506498Y-130261658D01*
X78947366Y-129817500D01*
X78834183Y-129698328D01*
X78755612Y-129602841D01*
X78721375Y-129521240D01*
X78724103Y-129500000D01*
X79381400Y-129500000D01*
X79389221Y-129528510D01*
X79414959Y-129570261D01*
X79462026Y-129629113D01*
X79533833Y-129708927D01*
X79633791Y-129813562D01*
X79765312Y-129946879D01*
X79859170Y-130040628D01*
X80007545Y-130186421D01*
X80136524Y-130309455D01*
X80242665Y-130406622D01*
X80322523Y-130474815D01*
X80372656Y-130510929D01*
X80385976Y-130516000D01*
X80419042Y-130498050D01*
X80483623Y-130446240D01*
X80576340Y-130363631D01*
X80693815Y-130253284D01*
X80832669Y-130118257D01*
X80911505Y-130040000D01*
X81064479Y-129886019D01*
X81183651Y-129763183D01*
X81272240Y-129667850D01*
X81333463Y-129596377D01*
X81370538Y-129545120D01*
X81386682Y-129510437D01*
X81388000Y-129500495D01*
X81379213Y-129471301D01*
X81350714Y-129426883D01*
X81299298Y-129363601D01*
X81221757Y-129277820D01*
X81114885Y-129165900D01*
X80975476Y-129024206D01*
X80912000Y-128960494D01*
X80760697Y-128810913D01*
X80630556Y-128686087D01*
X80524627Y-128588779D01*
X80445958Y-128521753D01*
X80397597Y-128487773D01*
X80386471Y-128484000D01*
X80352931Y-128501989D01*
X80287657Y-128554064D01*
X80193801Y-128637382D01*
X80074516Y-128749102D01*
X79932954Y-128886381D01*
X79859170Y-128959371D01*
X79707412Y-129111436D01*
X79589230Y-129232539D01*
X79501214Y-129326542D01*
X79439952Y-129397304D01*
X79402033Y-129448686D01*
X79384045Y-129484548D01*
X79381400Y-129500000D01*
X78724103Y-129500000D01*
X78731474Y-129442611D01*
X78785906Y-129356038D01*
X78834183Y-129301671D01*
X78947366Y-129182500D01*
X78726932Y-128960420D01*
X78506498Y-128738341D01*
X78783126Y-128458233D01*
X79228952Y-128901993D01*
X79298272Y-128832672D01*
X79367593Y-128763352D01*
X78923833Y-128317526D01*
X79203941Y-128040898D01*
X79649179Y-128484074D01*
X79718527Y-128414727D01*
X79787874Y-128345379D01*
X79344106Y-127899545D01*
X79489626Y-127754026D01*
X79635145Y-127608506D01*
X79857960Y-127830288D01*
G36*
X83925645Y-128459157D02*
X84132239Y-128459639D01*
X84294640Y-128460972D01*
X84419450Y-128463563D01*
X84513272Y-128467816D01*
X84582711Y-128474136D01*
X84634370Y-128482929D01*
X84674853Y-128494601D01*
X84705212Y-128506998D01*
X84820482Y-128585345D01*
X84900758Y-128695493D01*
X84937220Y-128815389D01*
X84950688Y-128915800D01*
X84813213Y-128915800D01*
X84732787Y-128913673D01*
X84687674Y-128902570D01*
X84662420Y-128875409D01*
X84646974Y-128839599D01*
X84618212Y-128763399D01*
X83944720Y-128763399D01*
X83738141Y-128763753D01*
X83576536Y-128765032D01*
X83454084Y-128767562D01*
X83364963Y-128771668D01*
X83303352Y-128777677D01*
X83263428Y-128785913D01*
X83239370Y-128796703D01*
X83231314Y-128803314D01*
X83206169Y-128856031D01*
X83192112Y-128941511D01*
X83188980Y-129042981D01*
X83196609Y-129143663D01*
X83214835Y-129226785D01*
X83235850Y-129268102D01*
X83250898Y-129283817D01*
X83270632Y-129296168D01*
X83301000Y-129305633D01*
X83347949Y-129312691D01*
X83417428Y-129317821D01*
X83515384Y-129321502D01*
X83647764Y-129324212D01*
X83820518Y-129326431D01*
X83980832Y-129328066D01*
X84681364Y-129334900D01*
X84774608Y-129406063D01*
X84843621Y-129465317D01*
X84891273Y-129526839D01*
X84921313Y-129601597D01*
X84937493Y-129700557D01*
X84943562Y-129834686D01*
X84944000Y-129901382D01*
X84940015Y-130053911D01*
X84925234Y-130167429D01*
X84895411Y-130253302D01*
X84846303Y-130322894D01*
X84773666Y-130387571D01*
X84758039Y-130399364D01*
X84734965Y-130414837D01*
X84708244Y-130427052D01*
X84671839Y-130436457D01*
X84619711Y-130443495D01*
X84545823Y-130448614D01*
X84444135Y-130452258D01*
X84308611Y-130454875D01*
X84133211Y-130456909D01*
X83957939Y-130458434D01*
X83732934Y-130459753D01*
X83553326Y-130459515D01*
X83413732Y-130457527D01*
X83308768Y-130453594D01*
X83233049Y-130447522D01*
X83181192Y-130439117D01*
X83150229Y-130429289D01*
X83058112Y-130365027D01*
X82979998Y-130268237D01*
X82929134Y-130157182D01*
X82919066Y-130110550D01*
X82905311Y-130008000D01*
X83048355Y-130008000D01*
X83133733Y-130011276D01*
X83178216Y-130022809D01*
X83191388Y-130045150D01*
X83191400Y-130046100D01*
X83208214Y-130091171D01*
X83242200Y-130135000D01*
X83260407Y-130150704D01*
X83283927Y-130162795D01*
X83319106Y-130171743D01*
X83372292Y-130178019D01*
X83449834Y-130182091D01*
X83558079Y-130184432D01*
X83703375Y-130185510D01*
X83892070Y-130185796D01*
X83928000Y-130185800D01*
X84140571Y-130185796D01*
X84307782Y-130184350D01*
X84435069Y-130179304D01*
X84527865Y-130168505D01*
X84591607Y-130149796D01*
X84631730Y-130121023D01*
X84653668Y-130080030D01*
X84662856Y-130024662D01*
X84664730Y-129952763D01*
X84664600Y-129893700D01*
X84664756Y-129811677D01*
X84661715Y-129746624D01*
X84650210Y-129696579D01*
X84624976Y-129659579D01*
X84580747Y-129633661D01*
X84512256Y-129616862D01*
X84414238Y-129607219D01*
X84281427Y-129602769D01*
X84108557Y-129601550D01*
X83890362Y-129601599D01*
X83880956Y-129601600D01*
X83676890Y-129601466D01*
X83517243Y-129600747D01*
X83395635Y-129598967D01*
X83305685Y-129595650D01*
X83241011Y-129590320D01*
X83195234Y-129582501D01*
X83161973Y-129571717D01*
X83134846Y-129557492D01*
X83114941Y-129544450D01*
X83037843Y-129486539D01*
X82984393Y-129428452D01*
X82950027Y-129358986D01*
X82930183Y-129266942D01*
X82920298Y-129141119D01*
X82917615Y-129060083D01*
X82915420Y-128932376D01*
X82917460Y-128843044D01*
X82925373Y-128779727D01*
X82940793Y-128730067D01*
X82965358Y-128681705D01*
X82968415Y-128676405D01*
X83046647Y-128582351D01*
X83138245Y-128517655D01*
X83173500Y-128499918D01*
X83208319Y-128486148D01*
X83249370Y-128475849D01*
X83303320Y-128468526D01*
X83376836Y-128463685D01*
X83476584Y-128460829D01*
X83609233Y-128459463D01*
X83781449Y-128459093D01*
X83925645Y-128459157D01*
X83925645Y-128459157D01*
G37*
X83925645Y-128459157D02*
X84132239Y-128459639D01*
X84294640Y-128460972D01*
X84419450Y-128463563D01*
X84513272Y-128467816D01*
X84582711Y-128474136D01*
X84634370Y-128482929D01*
X84674853Y-128494601D01*
X84705212Y-128506998D01*
X84820482Y-128585345D01*
X84900758Y-128695493D01*
X84937220Y-128815389D01*
X84950688Y-128915800D01*
X84813213Y-128915800D01*
X84732787Y-128913673D01*
X84687674Y-128902570D01*
X84662420Y-128875409D01*
X84646974Y-128839599D01*
X84618212Y-128763399D01*
X83944720Y-128763399D01*
X83738141Y-128763753D01*
X83576536Y-128765032D01*
X83454084Y-128767562D01*
X83364963Y-128771668D01*
X83303352Y-128777677D01*
X83263428Y-128785913D01*
X83239370Y-128796703D01*
X83231314Y-128803314D01*
X83206169Y-128856031D01*
X83192112Y-128941511D01*
X83188980Y-129042981D01*
X83196609Y-129143663D01*
X83214835Y-129226785D01*
X83235850Y-129268102D01*
X83250898Y-129283817D01*
X83270632Y-129296168D01*
X83301000Y-129305633D01*
X83347949Y-129312691D01*
X83417428Y-129317821D01*
X83515384Y-129321502D01*
X83647764Y-129324212D01*
X83820518Y-129326431D01*
X83980832Y-129328066D01*
X84681364Y-129334900D01*
X84774608Y-129406063D01*
X84843621Y-129465317D01*
X84891273Y-129526839D01*
X84921313Y-129601597D01*
X84937493Y-129700557D01*
X84943562Y-129834686D01*
X84944000Y-129901382D01*
X84940015Y-130053911D01*
X84925234Y-130167429D01*
X84895411Y-130253302D01*
X84846303Y-130322894D01*
X84773666Y-130387571D01*
X84758039Y-130399364D01*
X84734965Y-130414837D01*
X84708244Y-130427052D01*
X84671839Y-130436457D01*
X84619711Y-130443495D01*
X84545823Y-130448614D01*
X84444135Y-130452258D01*
X84308611Y-130454875D01*
X84133211Y-130456909D01*
X83957939Y-130458434D01*
X83732934Y-130459753D01*
X83553326Y-130459515D01*
X83413732Y-130457527D01*
X83308768Y-130453594D01*
X83233049Y-130447522D01*
X83181192Y-130439117D01*
X83150229Y-130429289D01*
X83058112Y-130365027D01*
X82979998Y-130268237D01*
X82929134Y-130157182D01*
X82919066Y-130110550D01*
X82905311Y-130008000D01*
X83048355Y-130008000D01*
X83133733Y-130011276D01*
X83178216Y-130022809D01*
X83191388Y-130045150D01*
X83191400Y-130046100D01*
X83208214Y-130091171D01*
X83242200Y-130135000D01*
X83260407Y-130150704D01*
X83283927Y-130162795D01*
X83319106Y-130171743D01*
X83372292Y-130178019D01*
X83449834Y-130182091D01*
X83558079Y-130184432D01*
X83703375Y-130185510D01*
X83892070Y-130185796D01*
X83928000Y-130185800D01*
X84140571Y-130185796D01*
X84307782Y-130184350D01*
X84435069Y-130179304D01*
X84527865Y-130168505D01*
X84591607Y-130149796D01*
X84631730Y-130121023D01*
X84653668Y-130080030D01*
X84662856Y-130024662D01*
X84664730Y-129952763D01*
X84664600Y-129893700D01*
X84664756Y-129811677D01*
X84661715Y-129746624D01*
X84650210Y-129696579D01*
X84624976Y-129659579D01*
X84580747Y-129633661D01*
X84512256Y-129616862D01*
X84414238Y-129607219D01*
X84281427Y-129602769D01*
X84108557Y-129601550D01*
X83890362Y-129601599D01*
X83880956Y-129601600D01*
X83676890Y-129601466D01*
X83517243Y-129600747D01*
X83395635Y-129598967D01*
X83305685Y-129595650D01*
X83241011Y-129590320D01*
X83195234Y-129582501D01*
X83161973Y-129571717D01*
X83134846Y-129557492D01*
X83114941Y-129544450D01*
X83037843Y-129486539D01*
X82984393Y-129428452D01*
X82950027Y-129358986D01*
X82930183Y-129266942D01*
X82920298Y-129141119D01*
X82917615Y-129060083D01*
X82915420Y-128932376D01*
X82917460Y-128843044D01*
X82925373Y-128779727D01*
X82940793Y-128730067D01*
X82965358Y-128681705D01*
X82968415Y-128676405D01*
X83046647Y-128582351D01*
X83138245Y-128517655D01*
X83173500Y-128499918D01*
X83208319Y-128486148D01*
X83249370Y-128475849D01*
X83303320Y-128468526D01*
X83376836Y-128463685D01*
X83476584Y-128460829D01*
X83609233Y-128459463D01*
X83781449Y-128459093D01*
X83925645Y-128459157D01*
G36*
X87250317Y-128604649D02*
X87242700Y-128750700D01*
X86406677Y-128757402D01*
X86138933Y-128760361D01*
X85921211Y-128764562D01*
X85752745Y-128770035D01*
X85632772Y-128776810D01*
X85560527Y-128784919D01*
X85536727Y-128792262D01*
X85525810Y-128811801D01*
X85517356Y-128853549D01*
X85511104Y-128922665D01*
X85506794Y-129024311D01*
X85504164Y-129163645D01*
X85502954Y-129345829D01*
X85502800Y-129463569D01*
X85502911Y-129660673D01*
X85503586Y-129813169D01*
X85505338Y-129927250D01*
X85508678Y-130009107D01*
X85514118Y-130064935D01*
X85522170Y-130100923D01*
X85533347Y-130123266D01*
X85548159Y-130138155D01*
X85559251Y-130146259D01*
X85581216Y-130157375D01*
X85615484Y-130166247D01*
X85667378Y-130173114D01*
X85742220Y-130178216D01*
X85845333Y-130181794D01*
X85982038Y-130184089D01*
X86157659Y-130185339D01*
X86377517Y-130185785D01*
X86435551Y-130185800D01*
X87255400Y-130185800D01*
X87255400Y-130465200D01*
X86398150Y-130463589D01*
X86168905Y-130462410D01*
X85963926Y-130459868D01*
X85788186Y-130456111D01*
X85646660Y-130451282D01*
X85544320Y-130445528D01*
X85486143Y-130438994D01*
X85477413Y-130436664D01*
X85411379Y-130399994D01*
X85354349Y-130355724D01*
X85317422Y-130319572D01*
X85288179Y-130283693D01*
X85265723Y-130241926D01*
X85249160Y-130188107D01*
X85237596Y-130116076D01*
X85230134Y-130019670D01*
X85225879Y-129892727D01*
X85223938Y-129729085D01*
X85223414Y-129522582D01*
X85223400Y-129454217D01*
X85223522Y-129245809D01*
X85224188Y-129081952D01*
X85225850Y-128956395D01*
X85228959Y-128862888D01*
X85233965Y-128795181D01*
X85241319Y-128747026D01*
X85251472Y-128712171D01*
X85264875Y-128684368D01*
X85280755Y-128659206D01*
X85339756Y-128594280D01*
X85419993Y-128533493D01*
X85451237Y-128515750D01*
X85483396Y-128500236D01*
X85515731Y-128487818D01*
X85554023Y-128478151D01*
X85604052Y-128470891D01*
X85671600Y-128465694D01*
X85762447Y-128462215D01*
X85882373Y-128460111D01*
X86037161Y-128459036D01*
X86232590Y-128458648D01*
X86411149Y-128458599D01*
X87257935Y-128458599D01*
X87250317Y-128604649D01*
X87250317Y-128604649D01*
G37*
X87250317Y-128604649D02*
X87242700Y-128750700D01*
X86406677Y-128757402D01*
X86138933Y-128760361D01*
X85921211Y-128764562D01*
X85752745Y-128770035D01*
X85632772Y-128776810D01*
X85560527Y-128784919D01*
X85536727Y-128792262D01*
X85525810Y-128811801D01*
X85517356Y-128853549D01*
X85511104Y-128922665D01*
X85506794Y-129024311D01*
X85504164Y-129163645D01*
X85502954Y-129345829D01*
X85502800Y-129463569D01*
X85502911Y-129660673D01*
X85503586Y-129813169D01*
X85505338Y-129927250D01*
X85508678Y-130009107D01*
X85514118Y-130064935D01*
X85522170Y-130100923D01*
X85533347Y-130123266D01*
X85548159Y-130138155D01*
X85559251Y-130146259D01*
X85581216Y-130157375D01*
X85615484Y-130166247D01*
X85667378Y-130173114D01*
X85742220Y-130178216D01*
X85845333Y-130181794D01*
X85982038Y-130184089D01*
X86157659Y-130185339D01*
X86377517Y-130185785D01*
X86435551Y-130185800D01*
X87255400Y-130185800D01*
X87255400Y-130465200D01*
X86398150Y-130463589D01*
X86168905Y-130462410D01*
X85963926Y-130459868D01*
X85788186Y-130456111D01*
X85646660Y-130451282D01*
X85544320Y-130445528D01*
X85486143Y-130438994D01*
X85477413Y-130436664D01*
X85411379Y-130399994D01*
X85354349Y-130355724D01*
X85317422Y-130319572D01*
X85288179Y-130283693D01*
X85265723Y-130241926D01*
X85249160Y-130188107D01*
X85237596Y-130116076D01*
X85230134Y-130019670D01*
X85225879Y-129892727D01*
X85223938Y-129729085D01*
X85223414Y-129522582D01*
X85223400Y-129454217D01*
X85223522Y-129245809D01*
X85224188Y-129081952D01*
X85225850Y-128956395D01*
X85228959Y-128862888D01*
X85233965Y-128795181D01*
X85241319Y-128747026D01*
X85251472Y-128712171D01*
X85264875Y-128684368D01*
X85280755Y-128659206D01*
X85339756Y-128594280D01*
X85419993Y-128533493D01*
X85451237Y-128515750D01*
X85483396Y-128500236D01*
X85515731Y-128487818D01*
X85554023Y-128478151D01*
X85604052Y-128470891D01*
X85671600Y-128465694D01*
X85762447Y-128462215D01*
X85882373Y-128460111D01*
X86037161Y-128459036D01*
X86232590Y-128458648D01*
X86411149Y-128458599D01*
X87257935Y-128458599D01*
X87250317Y-128604649D01*
G36*
X87890400Y-130465200D02*
X87611000Y-130465200D01*
X87611000Y-128458600D01*
X87890400Y-128458600D01*
X87890400Y-130465200D01*
X87890400Y-130465200D01*
G37*
X87890400Y-130465200D02*
X87611000Y-130465200D01*
X87611000Y-128458600D01*
X87890400Y-128458600D01*
X87890400Y-130465200D01*
G36*
X90405000Y-128458600D02*
X91108180Y-128458600D01*
X91317003Y-128458799D01*
X91481533Y-128459683D01*
X91608276Y-128461676D01*
X91703737Y-128465205D01*
X91774424Y-128470696D01*
X91826843Y-128478574D01*
X91867499Y-128489266D01*
X91902898Y-128503197D01*
X91921339Y-128511839D01*
X92034558Y-128593421D01*
X92095601Y-128674770D01*
X92159884Y-128784462D01*
X92152392Y-129493511D01*
X92144900Y-130202561D01*
X92076483Y-130292206D01*
X92041558Y-130336442D01*
X92007434Y-130372412D01*
X91968687Y-130400971D01*
X91919896Y-130422973D01*
X91855639Y-130439274D01*
X91770493Y-130450727D01*
X91659037Y-130458188D01*
X91515847Y-130462511D01*
X91335501Y-130464551D01*
X91112579Y-130465162D01*
X90979011Y-130465200D01*
X90125600Y-130465200D01*
X90125600Y-129484189D01*
X90405000Y-129484189D01*
X90405120Y-129677750D01*
X90405838Y-129826818D01*
X90407694Y-129937700D01*
X90411223Y-130016703D01*
X90416965Y-130070133D01*
X90425456Y-130104298D01*
X90437235Y-130125505D01*
X90452839Y-130140060D01*
X90461451Y-130146259D01*
X90486491Y-130158854D01*
X90525259Y-130168543D01*
X90583899Y-130175680D01*
X90668557Y-130180620D01*
X90785378Y-130183717D01*
X90940506Y-130185325D01*
X91140088Y-130185799D01*
X91147251Y-130185800D01*
X91342794Y-130185596D01*
X91493918Y-130184667D01*
X91607004Y-130182537D01*
X91688433Y-130178728D01*
X91744585Y-130172765D01*
X91781843Y-130164170D01*
X91806585Y-130152468D01*
X91825193Y-130137180D01*
X91827400Y-130135000D01*
X91843343Y-130116477D01*
X91855556Y-130092540D01*
X91864533Y-130056716D01*
X91870770Y-130002533D01*
X91874760Y-129923516D01*
X91876999Y-129813193D01*
X91877980Y-129665092D01*
X91878199Y-129472738D01*
X91878200Y-129470250D01*
X91877831Y-129274535D01*
X91876460Y-129123335D01*
X91873685Y-129010365D01*
X91869107Y-128929342D01*
X91862326Y-128873985D01*
X91852942Y-128838009D01*
X91840555Y-128815132D01*
X91836163Y-128809850D01*
X91820056Y-128795769D01*
X91796279Y-128784844D01*
X91758777Y-128776680D01*
X91701497Y-128770880D01*
X91618382Y-128767048D01*
X91503380Y-128764788D01*
X91350434Y-128763705D01*
X91153491Y-128763402D01*
X91125856Y-128763400D01*
X90924044Y-128763574D01*
X90767095Y-128764377D01*
X90649074Y-128766229D01*
X90564046Y-128769550D01*
X90506076Y-128774759D01*
X90469226Y-128782276D01*
X90447563Y-128792522D01*
X90435149Y-128805916D01*
X90431293Y-128812530D01*
X90422738Y-128854384D01*
X90415653Y-128942329D01*
X90410221Y-129071671D01*
X90406628Y-129237715D01*
X90405056Y-129435769D01*
X90405000Y-129484189D01*
X90125600Y-129484189D01*
X90125600Y-127798200D01*
X90405000Y-127798200D01*
X90405000Y-128458600D01*
X90405000Y-128458600D01*
G37*
X90405000Y-128458600D02*
X91108180Y-128458600D01*
X91317003Y-128458799D01*
X91481533Y-128459683D01*
X91608276Y-128461676D01*
X91703737Y-128465205D01*
X91774424Y-128470696D01*
X91826843Y-128478574D01*
X91867499Y-128489266D01*
X91902898Y-128503197D01*
X91921339Y-128511839D01*
X92034558Y-128593421D01*
X92095601Y-128674770D01*
X92159884Y-128784462D01*
X92152392Y-129493511D01*
X92144900Y-130202561D01*
X92076483Y-130292206D01*
X92041558Y-130336442D01*
X92007434Y-130372412D01*
X91968687Y-130400971D01*
X91919896Y-130422973D01*
X91855639Y-130439274D01*
X91770493Y-130450727D01*
X91659037Y-130458188D01*
X91515847Y-130462511D01*
X91335501Y-130464551D01*
X91112579Y-130465162D01*
X90979011Y-130465200D01*
X90125600Y-130465200D01*
X90125600Y-129484189D01*
X90405000Y-129484189D01*
X90405120Y-129677750D01*
X90405838Y-129826818D01*
X90407694Y-129937700D01*
X90411223Y-130016703D01*
X90416965Y-130070133D01*
X90425456Y-130104298D01*
X90437235Y-130125505D01*
X90452839Y-130140060D01*
X90461451Y-130146259D01*
X90486491Y-130158854D01*
X90525259Y-130168543D01*
X90583899Y-130175680D01*
X90668557Y-130180620D01*
X90785378Y-130183717D01*
X90940506Y-130185325D01*
X91140088Y-130185799D01*
X91147251Y-130185800D01*
X91342794Y-130185596D01*
X91493918Y-130184667D01*
X91607004Y-130182537D01*
X91688433Y-130178728D01*
X91744585Y-130172765D01*
X91781843Y-130164170D01*
X91806585Y-130152468D01*
X91825193Y-130137180D01*
X91827400Y-130135000D01*
X91843343Y-130116477D01*
X91855556Y-130092540D01*
X91864533Y-130056716D01*
X91870770Y-130002533D01*
X91874760Y-129923516D01*
X91876999Y-129813193D01*
X91877980Y-129665092D01*
X91878199Y-129472738D01*
X91878200Y-129470250D01*
X91877831Y-129274535D01*
X91876460Y-129123335D01*
X91873685Y-129010365D01*
X91869107Y-128929342D01*
X91862326Y-128873985D01*
X91852942Y-128838009D01*
X91840555Y-128815132D01*
X91836163Y-128809850D01*
X91820056Y-128795769D01*
X91796279Y-128784844D01*
X91758777Y-128776680D01*
X91701497Y-128770880D01*
X91618382Y-128767048D01*
X91503380Y-128764788D01*
X91350434Y-128763705D01*
X91153491Y-128763402D01*
X91125856Y-128763400D01*
X90924044Y-128763574D01*
X90767095Y-128764377D01*
X90649074Y-128766229D01*
X90564046Y-128769550D01*
X90506076Y-128774759D01*
X90469226Y-128782276D01*
X90447563Y-128792522D01*
X90435149Y-128805916D01*
X90431293Y-128812530D01*
X90422738Y-128854384D01*
X90415653Y-128942329D01*
X90410221Y-129071671D01*
X90406628Y-129237715D01*
X90405056Y-129435769D01*
X90405000Y-129484189D01*
X90125600Y-129484189D01*
X90125600Y-127798200D01*
X90405000Y-127798200D01*
X90405000Y-128458600D01*
G36*
X93629680Y-128459209D02*
X93789333Y-128460045D01*
X93911592Y-128462113D01*
X94003160Y-128465865D01*
X94070737Y-128471749D01*
X94121028Y-128480217D01*
X94160735Y-128491717D01*
X94196559Y-128506700D01*
X94206803Y-128511580D01*
X94287610Y-128562248D01*
X94357326Y-128624887D01*
X94373572Y-128644930D01*
X94390077Y-128669421D01*
X94403065Y-128695317D01*
X94412958Y-128728652D01*
X94420177Y-128775459D01*
X94425143Y-128841770D01*
X94428277Y-128933619D01*
X94430000Y-129057039D01*
X94430733Y-129218062D01*
X94430898Y-129422723D01*
X94430900Y-129466387D01*
X94430750Y-129680400D01*
X94430043Y-129849577D01*
X94428394Y-129979884D01*
X94425419Y-130077284D01*
X94420732Y-130147742D01*
X94413949Y-130197221D01*
X94404683Y-130231688D01*
X94392550Y-130257105D01*
X94378530Y-130277617D01*
X94318051Y-130345431D01*
X94256070Y-130400130D01*
X94233301Y-130415388D01*
X94206510Y-130427438D01*
X94169670Y-130436719D01*
X94116756Y-130443671D01*
X94041745Y-130448734D01*
X93938610Y-130452348D01*
X93801328Y-130454953D01*
X93623872Y-130456989D01*
X93457539Y-130458434D01*
X93230971Y-130459735D01*
X93049969Y-130459428D01*
X92909321Y-130457327D01*
X92803814Y-130453249D01*
X92728235Y-130447010D01*
X92677371Y-130438428D01*
X92651640Y-130430050D01*
X92559995Y-130368723D01*
X92481337Y-130279639D01*
X92431088Y-130181539D01*
X92423887Y-130153302D01*
X92420099Y-130106316D01*
X92417250Y-130016255D01*
X92415415Y-129890837D01*
X92414670Y-129737779D01*
X92415090Y-129564798D01*
X92415882Y-129472930D01*
X92691000Y-129472930D01*
X92691215Y-129665365D01*
X92692192Y-129813491D01*
X92694430Y-129923797D01*
X92698426Y-130002771D01*
X92704678Y-130056905D01*
X92713685Y-130092686D01*
X92725943Y-130116605D01*
X92741800Y-130135000D01*
X92760007Y-130150704D01*
X92783527Y-130162795D01*
X92818706Y-130171743D01*
X92871892Y-130178019D01*
X92949434Y-130182091D01*
X93057679Y-130184432D01*
X93202975Y-130185510D01*
X93391670Y-130185796D01*
X93427600Y-130185800D01*
X93624105Y-130185599D01*
X93776159Y-130184685D01*
X93890109Y-130182586D01*
X93972303Y-130178834D01*
X94029090Y-130172956D01*
X94066816Y-130164484D01*
X94091830Y-130152946D01*
X94110479Y-130137874D01*
X94113400Y-130135000D01*
X94129343Y-130116477D01*
X94141556Y-130092540D01*
X94150533Y-130056716D01*
X94156770Y-130002533D01*
X94160760Y-129923516D01*
X94162999Y-129813193D01*
X94163980Y-129665092D01*
X94164199Y-129472738D01*
X94164200Y-129470250D01*
X94163831Y-129274535D01*
X94162460Y-129123335D01*
X94159685Y-129010365D01*
X94155107Y-128929342D01*
X94148326Y-128873985D01*
X94138942Y-128838009D01*
X94126555Y-128815132D01*
X94122163Y-128809850D01*
X94106056Y-128795769D01*
X94082279Y-128784844D01*
X94044777Y-128776680D01*
X93987497Y-128770880D01*
X93904382Y-128767048D01*
X93789380Y-128764788D01*
X93636434Y-128763705D01*
X93439491Y-128763402D01*
X93411856Y-128763400D01*
X93210044Y-128763574D01*
X93053095Y-128764377D01*
X92935074Y-128766229D01*
X92850046Y-128769550D01*
X92792076Y-128774759D01*
X92755226Y-128782276D01*
X92733563Y-128792522D01*
X92721149Y-128805916D01*
X92717293Y-128812530D01*
X92708694Y-128854446D01*
X92701577Y-128942306D01*
X92696133Y-129071270D01*
X92692557Y-129236498D01*
X92691039Y-129433152D01*
X92691000Y-129472930D01*
X92415882Y-129472930D01*
X92416526Y-129398400D01*
X92418979Y-129196036D01*
X92421493Y-129038033D01*
X92424650Y-128917956D01*
X92429034Y-128829368D01*
X92435227Y-128765833D01*
X92443815Y-128720916D01*
X92455379Y-128688181D01*
X92470503Y-128661191D01*
X92485287Y-128639790D01*
X92524108Y-128589640D01*
X92565224Y-128549728D01*
X92614699Y-128518888D01*
X92678598Y-128495956D01*
X92762985Y-128479767D01*
X92873924Y-128469158D01*
X93017481Y-128462963D01*
X93199719Y-128460017D01*
X93425930Y-128459157D01*
X93629680Y-128459209D01*
X93629680Y-128459209D01*
G37*
X93629680Y-128459209D02*
X93789333Y-128460045D01*
X93911592Y-128462113D01*
X94003160Y-128465865D01*
X94070737Y-128471749D01*
X94121028Y-128480217D01*
X94160735Y-128491717D01*
X94196559Y-128506700D01*
X94206803Y-128511580D01*
X94287610Y-128562248D01*
X94357326Y-128624887D01*
X94373572Y-128644930D01*
X94390077Y-128669421D01*
X94403065Y-128695317D01*
X94412958Y-128728652D01*
X94420177Y-128775459D01*
X94425143Y-128841770D01*
X94428277Y-128933619D01*
X94430000Y-129057039D01*
X94430733Y-129218062D01*
X94430898Y-129422723D01*
X94430900Y-129466387D01*
X94430750Y-129680400D01*
X94430043Y-129849577D01*
X94428394Y-129979884D01*
X94425419Y-130077284D01*
X94420732Y-130147742D01*
X94413949Y-130197221D01*
X94404683Y-130231688D01*
X94392550Y-130257105D01*
X94378530Y-130277617D01*
X94318051Y-130345431D01*
X94256070Y-130400130D01*
X94233301Y-130415388D01*
X94206510Y-130427438D01*
X94169670Y-130436719D01*
X94116756Y-130443671D01*
X94041745Y-130448734D01*
X93938610Y-130452348D01*
X93801328Y-130454953D01*
X93623872Y-130456989D01*
X93457539Y-130458434D01*
X93230971Y-130459735D01*
X93049969Y-130459428D01*
X92909321Y-130457327D01*
X92803814Y-130453249D01*
X92728235Y-130447010D01*
X92677371Y-130438428D01*
X92651640Y-130430050D01*
X92559995Y-130368723D01*
X92481337Y-130279639D01*
X92431088Y-130181539D01*
X92423887Y-130153302D01*
X92420099Y-130106316D01*
X92417250Y-130016255D01*
X92415415Y-129890837D01*
X92414670Y-129737779D01*
X92415090Y-129564798D01*
X92415882Y-129472930D01*
X92691000Y-129472930D01*
X92691215Y-129665365D01*
X92692192Y-129813491D01*
X92694430Y-129923797D01*
X92698426Y-130002771D01*
X92704678Y-130056905D01*
X92713685Y-130092686D01*
X92725943Y-130116605D01*
X92741800Y-130135000D01*
X92760007Y-130150704D01*
X92783527Y-130162795D01*
X92818706Y-130171743D01*
X92871892Y-130178019D01*
X92949434Y-130182091D01*
X93057679Y-130184432D01*
X93202975Y-130185510D01*
X93391670Y-130185796D01*
X93427600Y-130185800D01*
X93624105Y-130185599D01*
X93776159Y-130184685D01*
X93890109Y-130182586D01*
X93972303Y-130178834D01*
X94029090Y-130172956D01*
X94066816Y-130164484D01*
X94091830Y-130152946D01*
X94110479Y-130137874D01*
X94113400Y-130135000D01*
X94129343Y-130116477D01*
X94141556Y-130092540D01*
X94150533Y-130056716D01*
X94156770Y-130002533D01*
X94160760Y-129923516D01*
X94162999Y-129813193D01*
X94163980Y-129665092D01*
X94164199Y-129472738D01*
X94164200Y-129470250D01*
X94163831Y-129274535D01*
X94162460Y-129123335D01*
X94159685Y-129010365D01*
X94155107Y-128929342D01*
X94148326Y-128873985D01*
X94138942Y-128838009D01*
X94126555Y-128815132D01*
X94122163Y-128809850D01*
X94106056Y-128795769D01*
X94082279Y-128784844D01*
X94044777Y-128776680D01*
X93987497Y-128770880D01*
X93904382Y-128767048D01*
X93789380Y-128764788D01*
X93636434Y-128763705D01*
X93439491Y-128763402D01*
X93411856Y-128763400D01*
X93210044Y-128763574D01*
X93053095Y-128764377D01*
X92935074Y-128766229D01*
X92850046Y-128769550D01*
X92792076Y-128774759D01*
X92755226Y-128782276D01*
X92733563Y-128792522D01*
X92721149Y-128805916D01*
X92717293Y-128812530D01*
X92708694Y-128854446D01*
X92701577Y-128942306D01*
X92696133Y-129071270D01*
X92692557Y-129236498D01*
X92691039Y-129433152D01*
X92691000Y-129472930D01*
X92415882Y-129472930D01*
X92416526Y-129398400D01*
X92418979Y-129196036D01*
X92421493Y-129038033D01*
X92424650Y-128917956D01*
X92429034Y-128829368D01*
X92435227Y-128765833D01*
X92443815Y-128720916D01*
X92455379Y-128688181D01*
X92470503Y-128661191D01*
X92485287Y-128639790D01*
X92524108Y-128589640D01*
X92565224Y-128549728D01*
X92614699Y-128518888D01*
X92678598Y-128495956D01*
X92762985Y-128479767D01*
X92873924Y-128469158D01*
X93017481Y-128462963D01*
X93199719Y-128460017D01*
X93425930Y-128459157D01*
X93629680Y-128459209D01*
G36*
X95002400Y-128458600D02*
X95435467Y-128458599D01*
X95868535Y-128458599D01*
X95860917Y-128604649D01*
X95853300Y-128750700D01*
X95002400Y-128764628D01*
X95002400Y-129435673D01*
X95002500Y-129637484D01*
X95003123Y-129794541D01*
X95004748Y-129912892D01*
X95007856Y-129998583D01*
X95012927Y-130057661D01*
X95020441Y-130096173D01*
X95030880Y-130120165D01*
X95044722Y-130135684D01*
X95058851Y-130146259D01*
X95092453Y-130162489D01*
X95144604Y-130173818D01*
X95223385Y-130180986D01*
X95336877Y-130184733D01*
X95490651Y-130185800D01*
X95866000Y-130185800D01*
X95866000Y-130465200D01*
X95453250Y-130463589D01*
X95308806Y-130461519D01*
X95178215Y-130456848D01*
X95071729Y-130450156D01*
X94999602Y-130442023D01*
X94977013Y-130436664D01*
X94910979Y-130399994D01*
X94853949Y-130355724D01*
X94824250Y-130327602D01*
X94799419Y-130300459D01*
X94779021Y-130269722D01*
X94762618Y-130230815D01*
X94749777Y-130179164D01*
X94740060Y-130110194D01*
X94733034Y-130019330D01*
X94728261Y-129901999D01*
X94725307Y-129753625D01*
X94723736Y-129569634D01*
X94723111Y-129345451D01*
X94722999Y-129076502D01*
X94723000Y-128980561D01*
X94723000Y-127798200D01*
X95002400Y-127798200D01*
X95002400Y-128458600D01*
X95002400Y-128458600D01*
G37*
X95002400Y-128458600D02*
X95435467Y-128458599D01*
X95868535Y-128458599D01*
X95860917Y-128604649D01*
X95853300Y-128750700D01*
X95002400Y-128764628D01*
X95002400Y-129435673D01*
X95002500Y-129637484D01*
X95003123Y-129794541D01*
X95004748Y-129912892D01*
X95007856Y-129998583D01*
X95012927Y-130057661D01*
X95020441Y-130096173D01*
X95030880Y-130120165D01*
X95044722Y-130135684D01*
X95058851Y-130146259D01*
X95092453Y-130162489D01*
X95144604Y-130173818D01*
X95223385Y-130180986D01*
X95336877Y-130184733D01*
X95490651Y-130185800D01*
X95866000Y-130185800D01*
X95866000Y-130465200D01*
X95453250Y-130463589D01*
X95308806Y-130461519D01*
X95178215Y-130456848D01*
X95071729Y-130450156D01*
X94999602Y-130442023D01*
X94977013Y-130436664D01*
X94910979Y-130399994D01*
X94853949Y-130355724D01*
X94824250Y-130327602D01*
X94799419Y-130300459D01*
X94779021Y-130269722D01*
X94762618Y-130230815D01*
X94749777Y-130179164D01*
X94740060Y-130110194D01*
X94733034Y-130019330D01*
X94728261Y-129901999D01*
X94725307Y-129753625D01*
X94723736Y-129569634D01*
X94723111Y-129345451D01*
X94722999Y-129076502D01*
X94723000Y-128980561D01*
X94723000Y-127798200D01*
X95002400Y-127798200D01*
X95002400Y-128458600D01*
G36*
X97343079Y-128459671D02*
X97528369Y-128462772D01*
X97678281Y-128467734D01*
X97788195Y-128474387D01*
X97853493Y-128482562D01*
X97864596Y-128485615D01*
X97965739Y-128544597D01*
X98054549Y-128633524D01*
X98119962Y-128737822D01*
X98150913Y-128842916D01*
X98152000Y-128864184D01*
X98146650Y-128892985D01*
X98122830Y-128908547D01*
X98068881Y-128914818D01*
X97999600Y-128915800D01*
X97913755Y-128913637D01*
X97867374Y-128904901D01*
X97849222Y-128886223D01*
X97847200Y-128870080D01*
X97844873Y-128839029D01*
X97834248Y-128814658D01*
X97809854Y-128796162D01*
X97766224Y-128782734D01*
X97697888Y-128773568D01*
X97599377Y-128767859D01*
X97465223Y-128764800D01*
X97289956Y-128763585D01*
X97123300Y-128763399D01*
X96902124Y-128764150D01*
X96728035Y-128766511D01*
X96597341Y-128770644D01*
X96506349Y-128776711D01*
X96451366Y-128784875D01*
X96429880Y-128793879D01*
X96411425Y-128838814D01*
X96400790Y-128918275D01*
X96397673Y-129016642D01*
X96401771Y-129118297D01*
X96412782Y-129207619D01*
X96430406Y-129268989D01*
X96439314Y-129282285D01*
X96457483Y-129294491D01*
X96488526Y-129303984D01*
X96538256Y-129311089D01*
X96612485Y-129316129D01*
X96717028Y-129319430D01*
X96857695Y-129321315D01*
X97040302Y-129322110D01*
X97154632Y-129322199D01*
X97357243Y-129322295D01*
X97515653Y-129322935D01*
X97636461Y-129324652D01*
X97726267Y-129327978D01*
X97791670Y-129333446D01*
X97839270Y-129341586D01*
X97875665Y-129352932D01*
X97907454Y-129368015D01*
X97937778Y-129385340D01*
X98030729Y-129456032D01*
X98094800Y-129546390D01*
X98133453Y-129664671D01*
X98150144Y-129819132D01*
X98151442Y-129895369D01*
X98141728Y-130069577D01*
X98111616Y-130204073D01*
X98058202Y-130306837D01*
X97978579Y-130385850D01*
X97970809Y-130391512D01*
X97945066Y-130409107D01*
X97918772Y-130423007D01*
X97885849Y-130433717D01*
X97840215Y-130441743D01*
X97775790Y-130447591D01*
X97686495Y-130451764D01*
X97566249Y-130454769D01*
X97408972Y-130457111D01*
X97208584Y-130459295D01*
X97147678Y-130459909D01*
X96934935Y-130461965D01*
X96766899Y-130463116D01*
X96637481Y-130462983D01*
X96540590Y-130461185D01*
X96470136Y-130457344D01*
X96420031Y-130451080D01*
X96384183Y-130442013D01*
X96356503Y-130429764D01*
X96330901Y-130413954D01*
X96322783Y-130408505D01*
X96225281Y-130322950D01*
X96155170Y-130221538D01*
X96121608Y-130118514D01*
X96120000Y-130093143D01*
X96120000Y-130008000D01*
X96259700Y-130008000D01*
X96340604Y-130010291D01*
X96382746Y-130019980D01*
X96398066Y-130041282D01*
X96399400Y-130057359D01*
X96418858Y-130108196D01*
X96455851Y-130146259D01*
X96501022Y-130160210D01*
X96587195Y-130171529D01*
X96705758Y-130180216D01*
X96848100Y-130186275D01*
X97005610Y-130189709D01*
X97169674Y-130190519D01*
X97331683Y-130188707D01*
X97483023Y-130184277D01*
X97615084Y-130177231D01*
X97719253Y-130167570D01*
X97786919Y-130155298D01*
X97807285Y-130145885D01*
X97828865Y-130108970D01*
X97841523Y-130044818D01*
X97846805Y-129943645D01*
X97847200Y-129893325D01*
X97847427Y-129810758D01*
X97844572Y-129745420D01*
X97833322Y-129695298D01*
X97808371Y-129658383D01*
X97764407Y-129632663D01*
X97696122Y-129616127D01*
X97598205Y-129606764D01*
X97465349Y-129602562D01*
X97292243Y-129601511D01*
X97077037Y-129601600D01*
X96857211Y-129601065D01*
X96682014Y-129598710D01*
X96545281Y-129593412D01*
X96440844Y-129584045D01*
X96362537Y-129569485D01*
X96304195Y-129548607D01*
X96259650Y-129520288D01*
X96222738Y-129483402D01*
X96189349Y-129439718D01*
X96164603Y-129399402D01*
X96147634Y-129353153D01*
X96136590Y-129289996D01*
X96129616Y-129198952D01*
X96124861Y-129069044D01*
X96124490Y-129055500D01*
X96121665Y-128924502D01*
X96122480Y-128833051D01*
X96128388Y-128769938D01*
X96140840Y-128723958D01*
X96161289Y-128683903D01*
X96175495Y-128661800D01*
X96235842Y-128595097D01*
X96316984Y-128533297D01*
X96347837Y-128515749D01*
X96384122Y-128498447D01*
X96420620Y-128485039D01*
X96464085Y-128475030D01*
X96521272Y-128467925D01*
X96598935Y-128463227D01*
X96703831Y-128460443D01*
X96842713Y-128459076D01*
X97022337Y-128458631D01*
X97127028Y-128458599D01*
X97343079Y-128459671D01*
X97343079Y-128459671D01*
G37*
X97343079Y-128459671D02*
X97528369Y-128462772D01*
X97678281Y-128467734D01*
X97788195Y-128474387D01*
X97853493Y-128482562D01*
X97864596Y-128485615D01*
X97965739Y-128544597D01*
X98054549Y-128633524D01*
X98119962Y-128737822D01*
X98150913Y-128842916D01*
X98152000Y-128864184D01*
X98146650Y-128892985D01*
X98122830Y-128908547D01*
X98068881Y-128914818D01*
X97999600Y-128915800D01*
X97913755Y-128913637D01*
X97867374Y-128904901D01*
X97849222Y-128886223D01*
X97847200Y-128870080D01*
X97844873Y-128839029D01*
X97834248Y-128814658D01*
X97809854Y-128796162D01*
X97766224Y-128782734D01*
X97697888Y-128773568D01*
X97599377Y-128767859D01*
X97465223Y-128764800D01*
X97289956Y-128763585D01*
X97123300Y-128763399D01*
X96902124Y-128764150D01*
X96728035Y-128766511D01*
X96597341Y-128770644D01*
X96506349Y-128776711D01*
X96451366Y-128784875D01*
X96429880Y-128793879D01*
X96411425Y-128838814D01*
X96400790Y-128918275D01*
X96397673Y-129016642D01*
X96401771Y-129118297D01*
X96412782Y-129207619D01*
X96430406Y-129268989D01*
X96439314Y-129282285D01*
X96457483Y-129294491D01*
X96488526Y-129303984D01*
X96538256Y-129311089D01*
X96612485Y-129316129D01*
X96717028Y-129319430D01*
X96857695Y-129321315D01*
X97040302Y-129322110D01*
X97154632Y-129322199D01*
X97357243Y-129322295D01*
X97515653Y-129322935D01*
X97636461Y-129324652D01*
X97726267Y-129327978D01*
X97791670Y-129333446D01*
X97839270Y-129341586D01*
X97875665Y-129352932D01*
X97907454Y-129368015D01*
X97937778Y-129385340D01*
X98030729Y-129456032D01*
X98094800Y-129546390D01*
X98133453Y-129664671D01*
X98150144Y-129819132D01*
X98151442Y-129895369D01*
X98141728Y-130069577D01*
X98111616Y-130204073D01*
X98058202Y-130306837D01*
X97978579Y-130385850D01*
X97970809Y-130391512D01*
X97945066Y-130409107D01*
X97918772Y-130423007D01*
X97885849Y-130433717D01*
X97840215Y-130441743D01*
X97775790Y-130447591D01*
X97686495Y-130451764D01*
X97566249Y-130454769D01*
X97408972Y-130457111D01*
X97208584Y-130459295D01*
X97147678Y-130459909D01*
X96934935Y-130461965D01*
X96766899Y-130463116D01*
X96637481Y-130462983D01*
X96540590Y-130461185D01*
X96470136Y-130457344D01*
X96420031Y-130451080D01*
X96384183Y-130442013D01*
X96356503Y-130429764D01*
X96330901Y-130413954D01*
X96322783Y-130408505D01*
X96225281Y-130322950D01*
X96155170Y-130221538D01*
X96121608Y-130118514D01*
X96120000Y-130093143D01*
X96120000Y-130008000D01*
X96259700Y-130008000D01*
X96340604Y-130010291D01*
X96382746Y-130019980D01*
X96398066Y-130041282D01*
X96399400Y-130057359D01*
X96418858Y-130108196D01*
X96455851Y-130146259D01*
X96501022Y-130160210D01*
X96587195Y-130171529D01*
X96705758Y-130180216D01*
X96848100Y-130186275D01*
X97005610Y-130189709D01*
X97169674Y-130190519D01*
X97331683Y-130188707D01*
X97483023Y-130184277D01*
X97615084Y-130177231D01*
X97719253Y-130167570D01*
X97786919Y-130155298D01*
X97807285Y-130145885D01*
X97828865Y-130108970D01*
X97841523Y-130044818D01*
X97846805Y-129943645D01*
X97847200Y-129893325D01*
X97847427Y-129810758D01*
X97844572Y-129745420D01*
X97833322Y-129695298D01*
X97808371Y-129658383D01*
X97764407Y-129632663D01*
X97696122Y-129616127D01*
X97598205Y-129606764D01*
X97465349Y-129602562D01*
X97292243Y-129601511D01*
X97077037Y-129601600D01*
X96857211Y-129601065D01*
X96682014Y-129598710D01*
X96545281Y-129593412D01*
X96440844Y-129584045D01*
X96362537Y-129569485D01*
X96304195Y-129548607D01*
X96259650Y-129520288D01*
X96222738Y-129483402D01*
X96189349Y-129439718D01*
X96164603Y-129399402D01*
X96147634Y-129353153D01*
X96136590Y-129289996D01*
X96129616Y-129198952D01*
X96124861Y-129069044D01*
X96124490Y-129055500D01*
X96121665Y-128924502D01*
X96122480Y-128833051D01*
X96128388Y-128769938D01*
X96140840Y-128723958D01*
X96161289Y-128683903D01*
X96175495Y-128661800D01*
X96235842Y-128595097D01*
X96316984Y-128533297D01*
X96347837Y-128515749D01*
X96384122Y-128498447D01*
X96420620Y-128485039D01*
X96464085Y-128475030D01*
X96521272Y-128467925D01*
X96598935Y-128463227D01*
X96703831Y-128460443D01*
X96842713Y-128459076D01*
X97022337Y-128458631D01*
X97127028Y-128458599D01*
X97343079Y-128459671D01*
G36*
X89693800Y-129601600D02*
X89037633Y-129601600D01*
X88859945Y-129600969D01*
X88699214Y-129599195D01*
X88562364Y-129596450D01*
X88456317Y-129592909D01*
X88387995Y-129588746D01*
X88364533Y-129584666D01*
X88355020Y-129551597D01*
X88348877Y-129485018D01*
X88347600Y-129432266D01*
X88347600Y-129296800D01*
X89693800Y-129296800D01*
X89693800Y-129601600D01*
X89693800Y-129601600D01*
G37*
X89693800Y-129601600D02*
X89037633Y-129601600D01*
X88859945Y-129600969D01*
X88699214Y-129599195D01*
X88562364Y-129596450D01*
X88456317Y-129592909D01*
X88387995Y-129588746D01*
X88364533Y-129584666D01*
X88355020Y-129551597D01*
X88348877Y-129485018D01*
X88347600Y-129432266D01*
X88347600Y-129296800D01*
X89693800Y-129296800D01*
X89693800Y-129601600D01*
G36*
X87890400Y-128103000D02*
X87611000Y-128103000D01*
X87611000Y-127798200D01*
X87890400Y-127798200D01*
X87890400Y-128103000D01*
X87890400Y-128103000D01*
G37*
X87890400Y-128103000D02*
X87611000Y-128103000D01*
X87611000Y-127798200D01*
X87890400Y-127798200D01*
X87890400Y-128103000D01*
G36*
X78509491Y-127574816D02*
X78498569Y-127590562D01*
X78495751Y-127592390D01*
X78450072Y-127634171D01*
X78438990Y-127649151D01*
X78422233Y-127663709D01*
X78416647Y-127631454D01*
X78416588Y-127626750D01*
X78429804Y-127581430D01*
X78473350Y-127569988D01*
X78509491Y-127574816D01*
X78509491Y-127574816D01*
G37*
X78509491Y-127574816D02*
X78498569Y-127590562D01*
X78495751Y-127592390D01*
X78450072Y-127634171D01*
X78438990Y-127649151D01*
X78422233Y-127663709D01*
X78416647Y-127631454D01*
X78416588Y-127626750D01*
X78429804Y-127581430D01*
X78473350Y-127569988D01*
X78509491Y-127574816D01*
G36*
X98600851Y-127587560D02*
X98609200Y-127620400D01*
X98607328Y-127659448D01*
X98594521Y-127661771D01*
X98559989Y-127626970D01*
X98552050Y-127618283D01*
X98522697Y-127582680D01*
X98530261Y-127570763D01*
X98558400Y-127569600D01*
X98600851Y-127587560D01*
X98600851Y-127587560D01*
G37*
X98600851Y-127587560D02*
X98609200Y-127620400D01*
X98607328Y-127659448D01*
X98594521Y-127661771D01*
X98559989Y-127626970D01*
X98552050Y-127618283D01*
X98522697Y-127582680D01*
X98530261Y-127570763D01*
X98558400Y-127569600D01*
X98600851Y-127587560D01*
D13*
X83172500Y-145191200D02*
X83172500Y-143768800D01*
X82461300Y-144480000D02*
X83883700Y-144480000D01*
X83675394Y-144480000D02*
G75*
G03X83675394Y-144480000I-502894J0D01*
G01*
X81651040Y-145623000D02*
X81651040Y-143337000D01*
X83426500Y-145623000D02*
X81651040Y-145623000D01*
X83426500Y-147337500D02*
X83426500Y-145623000D01*
X83934500Y-142448000D02*
X83934500Y-141622500D01*
X83426500Y-142448000D02*
X83934500Y-142448000D01*
X83426500Y-143337000D02*
X83426500Y-142448000D01*
X81651040Y-143337000D02*
X83426500Y-143337000D01*
X83934500Y-141622500D02*
X116573500Y-141622500D01*
X116573500Y-141622500D02*
X116573500Y-143337000D01*
X116573500Y-143337000D02*
X118348960Y-143337000D01*
X118348960Y-143337000D02*
X118348960Y-145623000D01*
X118348960Y-145623000D02*
X116573500Y-145623000D01*
X116573500Y-145623000D02*
X116573500Y-147337500D01*
X116573500Y-147337500D02*
X83426500Y-147337500D01*
X117330394Y-144480000D02*
G75*
G03X117330394Y-144480000I-502894J0D01*
G01*
X116116300Y-144480000D02*
X117538700Y-144480000D01*
X116827500Y-145191200D02*
X116827500Y-143768800D01*
X123075900Y-145191200D02*
X123075900Y-143768800D01*
X122364700Y-144480000D02*
X123787100Y-144480000D01*
X123578794Y-144480000D02*
G75*
G03X123578794Y-144480000I-502894J0D01*
G01*
X121554440Y-145623000D02*
X121554440Y-143337000D01*
X123329900Y-145623000D02*
X121554440Y-145623000D01*
X123329900Y-147337500D02*
X123329900Y-145623000D01*
X123837900Y-142448000D02*
X123837900Y-141622500D01*
X123329900Y-142448000D02*
X123837900Y-142448000D01*
X123329900Y-143337000D02*
X123329900Y-142448000D01*
X121554440Y-143337000D02*
X123329900Y-143337000D01*
X123837900Y-141622500D02*
X150126900Y-141622500D01*
X150126900Y-141622500D02*
X150126900Y-143337000D01*
X150126900Y-143337000D02*
X151902360Y-143337000D01*
X151902360Y-143337000D02*
X151902360Y-145623000D01*
X151902360Y-145623000D02*
X150126900Y-145623000D01*
X150126900Y-145623000D02*
X150126900Y-147337500D01*
X150126900Y-147337500D02*
X123329900Y-147337500D01*
X150883794Y-144480000D02*
G75*
G03X150883794Y-144480000I-502894J0D01*
G01*
X149669700Y-144480000D02*
X151092100Y-144480000D01*
X150380900Y-145191200D02*
X150380900Y-143768800D01*
D11*
X62726667Y-140029524D02*
X62726667Y-140936667D01*
X62666191Y-141118095D01*
X62545239Y-141239048D01*
X62363810Y-141299524D01*
X62242858Y-141299524D01*
X63875715Y-140452857D02*
X63875715Y-141299524D01*
X63573334Y-139969048D02*
X63270953Y-140876190D01*
X64057143Y-140876190D01*
X77121905Y-145904524D02*
X77908095Y-145904524D01*
X77484762Y-146388333D01*
X77666190Y-146388333D01*
X77787143Y-146448810D01*
X77847619Y-146509286D01*
X77908095Y-146630238D01*
X77908095Y-146932619D01*
X77847619Y-147053571D01*
X77787143Y-147114048D01*
X77666190Y-147174524D01*
X77303333Y-147174524D01*
X77182381Y-147114048D01*
X77121905Y-147053571D01*
X78512857Y-147174524D02*
X78754762Y-147174524D01*
X78875714Y-147114048D01*
X78936190Y-147053571D01*
X79057143Y-146872143D01*
X79117619Y-146630238D01*
X79117619Y-146146429D01*
X79057143Y-146025476D01*
X78996667Y-145965000D01*
X78875714Y-145904524D01*
X78633810Y-145904524D01*
X78512857Y-145965000D01*
X78452381Y-146025476D01*
X78391905Y-146146429D01*
X78391905Y-146448810D01*
X78452381Y-146569762D01*
X78512857Y-146630238D01*
X78633810Y-146690714D01*
X78875714Y-146690714D01*
X78996667Y-146630238D01*
X79057143Y-146569762D01*
X79117619Y-146448810D01*
X48964524Y-141454524D02*
X49085476Y-141454524D01*
X49206428Y-141515000D01*
X49266905Y-141575476D01*
X49327381Y-141696429D01*
X49387857Y-141938333D01*
X49387857Y-142240714D01*
X49327381Y-142482619D01*
X49266905Y-142603571D01*
X49206428Y-142664048D01*
X49085476Y-142724524D01*
X48964524Y-142724524D01*
X48843571Y-142664048D01*
X48783095Y-142603571D01*
X48722619Y-142482619D01*
X48662143Y-142240714D01*
X48662143Y-141938333D01*
X48722619Y-141696429D01*
X48783095Y-141575476D01*
X48843571Y-141515000D01*
X48964524Y-141454524D01*
D10*
X61361905Y-79377381D02*
X61361905Y-78377381D01*
X61742858Y-78377381D01*
X61838096Y-78425000D01*
X61885715Y-78472619D01*
X61933334Y-78567857D01*
X61933334Y-78710714D01*
X61885715Y-78805952D01*
X61838096Y-78853571D01*
X61742858Y-78901190D01*
X61361905Y-78901190D01*
X62314286Y-78472619D02*
X62361905Y-78425000D01*
X62457143Y-78377381D01*
X62695239Y-78377381D01*
X62790477Y-78425000D01*
X62838096Y-78472619D01*
X62885715Y-78567857D01*
X62885715Y-78663095D01*
X62838096Y-78805952D01*
X62266667Y-79377381D01*
X62885715Y-79377381D01*
X73811905Y-79352381D02*
X73811905Y-78352381D01*
X74192858Y-78352381D01*
X74288096Y-78400000D01*
X74335715Y-78447619D01*
X74383334Y-78542857D01*
X74383334Y-78685714D01*
X74335715Y-78780952D01*
X74288096Y-78828571D01*
X74192858Y-78876190D01*
X73811905Y-78876190D01*
X75335715Y-79352381D02*
X74764286Y-79352381D01*
X75050000Y-79352381D02*
X75050000Y-78352381D01*
X74954762Y-78495238D01*
X74859524Y-78590476D01*
X74764286Y-78638095D01*
X137121905Y-79352381D02*
X137121905Y-78352381D01*
X137502858Y-78352381D01*
X137598096Y-78400000D01*
X137645715Y-78447619D01*
X137693334Y-78542857D01*
X137693334Y-78685714D01*
X137645715Y-78780952D01*
X137598096Y-78828571D01*
X137502858Y-78876190D01*
X137121905Y-78876190D01*
X138026667Y-78352381D02*
X138645715Y-78352381D01*
X138312381Y-78733333D01*
X138455239Y-78733333D01*
X138550477Y-78780952D01*
X138598096Y-78828571D01*
X138645715Y-78923810D01*
X138645715Y-79161905D01*
X138598096Y-79257143D01*
X138550477Y-79304762D01*
X138455239Y-79352381D01*
X138169524Y-79352381D01*
X138074286Y-79304762D01*
X138026667Y-79257143D01*
X124737905Y-79446381D02*
X124737905Y-78446381D01*
X125118858Y-78446381D01*
X125214096Y-78494000D01*
X125261715Y-78541619D01*
X125309334Y-78636857D01*
X125309334Y-78779714D01*
X125261715Y-78874952D01*
X125214096Y-78922571D01*
X125118858Y-78970190D01*
X124737905Y-78970190D01*
X126166477Y-78779714D02*
X126166477Y-79446381D01*
X125928381Y-78398762D02*
X125690286Y-79113048D01*
X126309334Y-79113048D01*
X143521334Y-81307143D02*
X143473715Y-81354762D01*
X143330858Y-81402381D01*
X143235620Y-81402381D01*
X143092762Y-81354762D01*
X142997524Y-81259524D01*
X142949905Y-81164286D01*
X142902286Y-80973810D01*
X142902286Y-80830952D01*
X142949905Y-80640476D01*
X142997524Y-80545238D01*
X143092762Y-80450000D01*
X143235620Y-80402381D01*
X143330858Y-80402381D01*
X143473715Y-80450000D01*
X143521334Y-80497619D01*
X144473715Y-81402381D02*
X143902286Y-81402381D01*
X144188000Y-81402381D02*
X144188000Y-80402381D01*
X144092762Y-80545238D01*
X143997524Y-80640476D01*
X143902286Y-80688095D01*
X55891334Y-81370643D02*
X55843715Y-81418262D01*
X55700858Y-81465881D01*
X55605620Y-81465881D01*
X55462762Y-81418262D01*
X55367524Y-81323024D01*
X55319905Y-81227786D01*
X55272286Y-81037310D01*
X55272286Y-80894452D01*
X55319905Y-80703976D01*
X55367524Y-80608738D01*
X55462762Y-80513500D01*
X55605620Y-80465881D01*
X55700858Y-80465881D01*
X55843715Y-80513500D01*
X55891334Y-80561119D01*
X56272286Y-80561119D02*
X56319905Y-80513500D01*
X56415143Y-80465881D01*
X56653239Y-80465881D01*
X56748477Y-80513500D01*
X56796096Y-80561119D01*
X56843715Y-80656357D01*
X56843715Y-80751595D01*
X56796096Y-80894452D01*
X56224667Y-81465881D01*
X56843715Y-81465881D01*
X143172167Y-78973571D02*
X142838833Y-78973571D01*
X142838833Y-79497381D02*
X142838833Y-78497381D01*
X143315024Y-78497381D01*
X144029310Y-78973571D02*
X144172167Y-79021190D01*
X144219786Y-79068810D01*
X144267405Y-79164048D01*
X144267405Y-79306905D01*
X144219786Y-79402143D01*
X144172167Y-79449762D01*
X144076929Y-79497381D01*
X143695976Y-79497381D01*
X143695976Y-78497381D01*
X144029310Y-78497381D01*
X144124548Y-78545000D01*
X144172167Y-78592619D01*
X144219786Y-78687857D01*
X144219786Y-78783095D01*
X144172167Y-78878333D01*
X144124548Y-78925952D01*
X144029310Y-78973571D01*
X143695976Y-78973571D01*
X145219786Y-79497381D02*
X144648357Y-79497381D01*
X144934071Y-79497381D02*
X144934071Y-78497381D01*
X144838833Y-78640238D01*
X144743595Y-78735476D01*
X144648357Y-78783095D01*
X55097667Y-79037071D02*
X54764333Y-79037071D01*
X54764333Y-79560881D02*
X54764333Y-78560881D01*
X55240524Y-78560881D01*
X55954810Y-79037071D02*
X56097667Y-79084690D01*
X56145286Y-79132310D01*
X56192905Y-79227548D01*
X56192905Y-79370405D01*
X56145286Y-79465643D01*
X56097667Y-79513262D01*
X56002429Y-79560881D01*
X55621476Y-79560881D01*
X55621476Y-78560881D01*
X55954810Y-78560881D01*
X56050048Y-78608500D01*
X56097667Y-78656119D01*
X56145286Y-78751357D01*
X56145286Y-78846595D01*
X56097667Y-78941833D01*
X56050048Y-78989452D01*
X55954810Y-79037071D01*
X55621476Y-79037071D01*
X56573857Y-78656119D02*
X56621476Y-78608500D01*
X56716714Y-78560881D01*
X56954810Y-78560881D01*
X57050048Y-78608500D01*
X57097667Y-78656119D01*
X57145286Y-78751357D01*
X57145286Y-78846595D01*
X57097667Y-78989452D01*
X56526238Y-79560881D01*
X57145286Y-79560881D01*
X117152381Y-137516666D02*
X116676190Y-137850000D01*
X117152381Y-138088095D02*
X116152381Y-138088095D01*
X116152381Y-137707142D01*
X116200000Y-137611904D01*
X116247619Y-137564285D01*
X116342857Y-137516666D01*
X116485714Y-137516666D01*
X116580952Y-137564285D01*
X116628571Y-137611904D01*
X116676190Y-137707142D01*
X116676190Y-138088095D01*
X117152381Y-136564285D02*
X117152381Y-137135714D01*
X117152381Y-136850000D02*
X116152381Y-136850000D01*
X116295238Y-136945238D01*
X116390476Y-137040476D01*
X116438095Y-137135714D01*
X120688095Y-139252381D02*
X120688095Y-140061905D01*
X120735714Y-140157143D01*
X120783333Y-140204762D01*
X120878571Y-140252381D01*
X121069048Y-140252381D01*
X121164286Y-140204762D01*
X121211905Y-140157143D01*
X121259524Y-140061905D01*
X121259524Y-139252381D01*
X122259524Y-140252381D02*
X121688095Y-140252381D01*
X121973809Y-140252381D02*
X121973809Y-139252381D01*
X121878571Y-139395238D01*
X121783333Y-139490476D01*
X121688095Y-139538095D01*
D11*
X99526667Y-139979524D02*
X99526667Y-140886667D01*
X99466191Y-141068095D01*
X99345239Y-141189048D01*
X99163810Y-141249524D01*
X99042858Y-141249524D01*
X100736191Y-139979524D02*
X100131429Y-139979524D01*
X100070953Y-140584286D01*
X100131429Y-140523810D01*
X100252381Y-140463333D01*
X100554762Y-140463333D01*
X100675715Y-140523810D01*
X100736191Y-140584286D01*
X100796667Y-140705238D01*
X100796667Y-141007619D01*
X100736191Y-141128571D01*
X100675715Y-141189048D01*
X100554762Y-141249524D01*
X100252381Y-141249524D01*
X100131429Y-141189048D01*
X100070953Y-141128571D01*
X81712143Y-141752857D02*
X81712143Y-142599524D01*
X81409762Y-141269048D02*
X81107381Y-142176190D01*
X81893571Y-142176190D01*
X82619286Y-141329524D02*
X82740238Y-141329524D01*
X82861190Y-141390000D01*
X82921667Y-141450476D01*
X82982143Y-141571429D01*
X83042619Y-141813333D01*
X83042619Y-142115714D01*
X82982143Y-142357619D01*
X82921667Y-142478571D01*
X82861190Y-142539048D01*
X82740238Y-142599524D01*
X82619286Y-142599524D01*
X82498333Y-142539048D01*
X82437857Y-142478571D01*
X82377381Y-142357619D01*
X82316905Y-142115714D01*
X82316905Y-141813333D01*
X82377381Y-141571429D01*
X82437857Y-141450476D01*
X82498333Y-141390000D01*
X82619286Y-141329524D01*
X117321905Y-146179524D02*
X118168571Y-146179524D01*
X117624286Y-147449524D01*
X118712857Y-147449524D02*
X118954762Y-147449524D01*
X119075714Y-147389048D01*
X119136190Y-147328571D01*
X119257143Y-147147143D01*
X119317619Y-146905238D01*
X119317619Y-146421429D01*
X119257143Y-146300476D01*
X119196667Y-146240000D01*
X119075714Y-146179524D01*
X118833810Y-146179524D01*
X118712857Y-146240000D01*
X118652381Y-146300476D01*
X118591905Y-146421429D01*
X118591905Y-146723810D01*
X118652381Y-146844762D01*
X118712857Y-146905238D01*
X118833810Y-146965714D01*
X119075714Y-146965714D01*
X119196667Y-146905238D01*
X119257143Y-146844762D01*
X119317619Y-146723810D01*
X136626667Y-139904524D02*
X136626667Y-140811667D01*
X136566191Y-140993095D01*
X136445239Y-141114048D01*
X136263810Y-141174524D01*
X136142858Y-141174524D01*
X137775715Y-139904524D02*
X137533810Y-139904524D01*
X137412858Y-139965000D01*
X137352381Y-140025476D01*
X137231429Y-140206905D01*
X137170953Y-140448810D01*
X137170953Y-140932619D01*
X137231429Y-141053571D01*
X137291905Y-141114048D01*
X137412858Y-141174524D01*
X137654762Y-141174524D01*
X137775715Y-141114048D01*
X137836191Y-141053571D01*
X137896667Y-140932619D01*
X137896667Y-140630238D01*
X137836191Y-140509286D01*
X137775715Y-140448810D01*
X137654762Y-140388333D01*
X137412858Y-140388333D01*
X137291905Y-140448810D01*
X137231429Y-140509286D01*
X137170953Y-140630238D01*
X121349286Y-142098810D02*
X121228333Y-142038333D01*
X121167857Y-141977857D01*
X121107381Y-141856905D01*
X121107381Y-141796429D01*
X121167857Y-141675476D01*
X121228333Y-141615000D01*
X121349286Y-141554524D01*
X121591190Y-141554524D01*
X121712143Y-141615000D01*
X121772619Y-141675476D01*
X121833095Y-141796429D01*
X121833095Y-141856905D01*
X121772619Y-141977857D01*
X121712143Y-142038333D01*
X121591190Y-142098810D01*
X121349286Y-142098810D01*
X121228333Y-142159286D01*
X121167857Y-142219762D01*
X121107381Y-142340714D01*
X121107381Y-142582619D01*
X121167857Y-142703571D01*
X121228333Y-142764048D01*
X121349286Y-142824524D01*
X121591190Y-142824524D01*
X121712143Y-142764048D01*
X121772619Y-142703571D01*
X121833095Y-142582619D01*
X121833095Y-142340714D01*
X121772619Y-142219762D01*
X121712143Y-142159286D01*
X121591190Y-142098810D01*
X122619286Y-141554524D02*
X122740238Y-141554524D01*
X122861190Y-141615000D01*
X122921667Y-141675476D01*
X122982143Y-141796429D01*
X123042619Y-142038333D01*
X123042619Y-142340714D01*
X122982143Y-142582619D01*
X122921667Y-142703571D01*
X122861190Y-142764048D01*
X122740238Y-142824524D01*
X122619286Y-142824524D01*
X122498333Y-142764048D01*
X122437857Y-142703571D01*
X122377381Y-142582619D01*
X122316905Y-142340714D01*
X122316905Y-142038333D01*
X122377381Y-141796429D01*
X122437857Y-141675476D01*
X122498333Y-141615000D01*
X122619286Y-141554524D01*
X151328333Y-147249524D02*
X150602619Y-147249524D01*
X150965476Y-147249524D02*
X150965476Y-145979524D01*
X150844524Y-146160952D01*
X150723571Y-146281905D01*
X150602619Y-146342381D01*
X152537857Y-147249524D02*
X151812143Y-147249524D01*
X152175000Y-147249524D02*
X152175000Y-145979524D01*
X152054048Y-146160952D01*
X151933095Y-146281905D01*
X151812143Y-146342381D01*
X153142619Y-147249524D02*
X153384524Y-147249524D01*
X153505476Y-147189048D01*
X153565952Y-147128571D01*
X153686905Y-146947143D01*
X153747381Y-146705238D01*
X153747381Y-146221429D01*
X153686905Y-146100476D01*
X153626429Y-146040000D01*
X153505476Y-145979524D01*
X153263572Y-145979524D01*
X153142619Y-146040000D01*
X153082143Y-146100476D01*
X153021667Y-146221429D01*
X153021667Y-146523810D01*
X153082143Y-146644762D01*
X153142619Y-146705238D01*
X153263572Y-146765714D01*
X153505476Y-146765714D01*
X153626429Y-146705238D01*
X153686905Y-146644762D01*
X153747381Y-146523810D01*
M02*
