G04 #@! TF.FileFunction,Copper,L4,Bot,Signal*
%FSLAX46Y46*%
G04 Gerber Fmt 4.6, Leading zero omitted, Abs format (unit mm)*
G04 Created by KiCad (PCBNEW 4.0.7) date 03/15/18 15:44:52*
%MOMM*%
%LPD*%
G01*
G04 APERTURE LIST*
%ADD10C,0.150000*%
%ADD11R,1.700000X1.700000*%
%ADD12O,1.700000X1.700000*%
%ADD13C,1.750000*%
%ADD14C,6.400000*%
%ADD15C,0.762000*%
%ADD16C,0.177800*%
G04 APERTURE END LIST*
D10*
D11*
X64483180Y-79687620D03*
D12*
X67023180Y-79687620D03*
X64483180Y-82227620D03*
X67023180Y-82227620D03*
X64483180Y-84767620D03*
X67023180Y-84767620D03*
X64483180Y-87307620D03*
X67023180Y-87307620D03*
X64483180Y-89847620D03*
X67023180Y-89847620D03*
X64483180Y-92387620D03*
X67023180Y-92387620D03*
X64483180Y-94927620D03*
X67023180Y-94927620D03*
X64483180Y-97467620D03*
X67023180Y-97467620D03*
X64483180Y-100007620D03*
X67023180Y-100007620D03*
X64483180Y-102547620D03*
X67023180Y-102547620D03*
X64483180Y-105087620D03*
X67023180Y-105087620D03*
X64483180Y-107627620D03*
X67023180Y-107627620D03*
X64483180Y-110167620D03*
X67023180Y-110167620D03*
X64483180Y-112707620D03*
X67023180Y-112707620D03*
X64483180Y-115247620D03*
X67023180Y-115247620D03*
X64483180Y-117787620D03*
X67023180Y-117787620D03*
X67023180Y-120327620D03*
X64483180Y-120327620D03*
D13*
X49619100Y-143480000D03*
X76924100Y-143480000D03*
D14*
X149000000Y-81000000D03*
X51000000Y-81000000D03*
X149000000Y-132000000D03*
X51000000Y-132000000D03*
D13*
X83172500Y-143480000D03*
X116827500Y-143480000D03*
X123075900Y-143480000D03*
X150380900Y-143480000D03*
D11*
X69588580Y-79687620D03*
D12*
X72128580Y-79687620D03*
X69588580Y-82227620D03*
X72128580Y-82227620D03*
X69588580Y-84767620D03*
X72128580Y-84767620D03*
X69588580Y-87307620D03*
X72128580Y-87307620D03*
X69588580Y-89847620D03*
X72128580Y-89847620D03*
X69588580Y-92387620D03*
X72128580Y-92387620D03*
X69588580Y-94927620D03*
X72128580Y-94927620D03*
X69588580Y-97467620D03*
X72128580Y-97467620D03*
X69588580Y-100007620D03*
X72128580Y-100007620D03*
X69588580Y-102547620D03*
X72128580Y-102547620D03*
X69588580Y-105087620D03*
X72128580Y-105087620D03*
X69588580Y-107627620D03*
X72128580Y-107627620D03*
X69588580Y-110167620D03*
X72128580Y-110167620D03*
X69588580Y-112707620D03*
X72128580Y-112707620D03*
X69588580Y-115247620D03*
X72128580Y-115247620D03*
X69588580Y-117787620D03*
X72128580Y-117787620D03*
X72128580Y-120327620D03*
X69588580Y-120327620D03*
D11*
X135448240Y-120314920D03*
D12*
X132908240Y-120314920D03*
X135448240Y-117774920D03*
X132908240Y-117774920D03*
X135448240Y-115234920D03*
X132908240Y-115234920D03*
X135448240Y-112694920D03*
X132908240Y-112694920D03*
X135448240Y-110154920D03*
X132908240Y-110154920D03*
X135448240Y-107614920D03*
X132908240Y-107614920D03*
X135448240Y-105074920D03*
X132908240Y-105074920D03*
X135448240Y-102534920D03*
X132908240Y-102534920D03*
X135448240Y-99994920D03*
X132908240Y-99994920D03*
X135448240Y-97454920D03*
X132908240Y-97454920D03*
X135448240Y-94914920D03*
X132908240Y-94914920D03*
X135448240Y-92374920D03*
X132908240Y-92374920D03*
X135448240Y-89834920D03*
X132908240Y-89834920D03*
X135448240Y-87294920D03*
X132908240Y-87294920D03*
X135448240Y-84754920D03*
X132908240Y-84754920D03*
X135448240Y-82214920D03*
X132908240Y-82214920D03*
X132908240Y-79674920D03*
X135448240Y-79674920D03*
D11*
X130429200Y-120325080D03*
D12*
X127889200Y-120325080D03*
X130429200Y-117785080D03*
X127889200Y-117785080D03*
X130429200Y-115245080D03*
X127889200Y-115245080D03*
X130429200Y-112705080D03*
X127889200Y-112705080D03*
X130429200Y-110165080D03*
X127889200Y-110165080D03*
X130429200Y-107625080D03*
X127889200Y-107625080D03*
X130429200Y-105085080D03*
X127889200Y-105085080D03*
X130429200Y-102545080D03*
X127889200Y-102545080D03*
X130429200Y-100005080D03*
X127889200Y-100005080D03*
X130429200Y-97465080D03*
X127889200Y-97465080D03*
X130429200Y-94925080D03*
X127889200Y-94925080D03*
X130429200Y-92385080D03*
X127889200Y-92385080D03*
X130429200Y-89845080D03*
X127889200Y-89845080D03*
X130429200Y-87305080D03*
X127889200Y-87305080D03*
X130429200Y-84765080D03*
X127889200Y-84765080D03*
X130429200Y-82225080D03*
X127889200Y-82225080D03*
X127889200Y-79685080D03*
X130429200Y-79685080D03*
D15*
X62900000Y-81650000D03*
X67023180Y-82227620D03*
X69588580Y-82227620D03*
X51200000Y-144800000D03*
X52500000Y-144800000D03*
X64483180Y-82227620D03*
X56300000Y-144800000D03*
X69588580Y-87307620D03*
X64450000Y-87350000D03*
X57600000Y-144800000D03*
X64483180Y-84767620D03*
X55000000Y-144800000D03*
X69588580Y-84767620D03*
X53800000Y-144800000D03*
X61900000Y-84300000D03*
X67023180Y-84767620D03*
X59900000Y-86750000D03*
X67023180Y-87307620D03*
X69588580Y-89847620D03*
X58800000Y-144800000D03*
X58400000Y-89250000D03*
X67023180Y-89847620D03*
X60100000Y-144800000D03*
X64483180Y-89847620D03*
X69600000Y-92400000D03*
X61300000Y-144700000D03*
X56850000Y-91800000D03*
X67023180Y-92387620D03*
X62600000Y-144800000D03*
X64483180Y-92387620D03*
X69600000Y-94950000D03*
X63900000Y-144900000D03*
X58050000Y-94250000D03*
X67023180Y-94927620D03*
X65100000Y-144800000D03*
X64483180Y-94927620D03*
X66446600Y-144843980D03*
X69588580Y-97467620D03*
X57750000Y-96850000D03*
X67023180Y-97467620D03*
X67700000Y-144700000D03*
X64483180Y-97467620D03*
X68986600Y-144843980D03*
X69588580Y-100007620D03*
X57800000Y-99450000D03*
X67023180Y-100007620D03*
X70256600Y-144843980D03*
X64483180Y-100007620D03*
X71526600Y-144843980D03*
X69588580Y-102547620D03*
X58650000Y-102000000D03*
X67023180Y-102547620D03*
X72796600Y-144843980D03*
X64483180Y-102547620D03*
X69588580Y-105087620D03*
X74066600Y-144843980D03*
X59400000Y-104500000D03*
X67023180Y-105087620D03*
X75336600Y-144843980D03*
X64483180Y-105087620D03*
X144983400Y-144843980D03*
X136969500Y-84137500D03*
X132908240Y-84754920D03*
X146253400Y-144843980D03*
X127889200Y-84765080D03*
X147523400Y-144843980D03*
X137160000Y-81534000D03*
X132910740Y-82214920D03*
X148793400Y-144843980D03*
X127899360Y-82204760D03*
X127891698Y-94925080D03*
X136100000Y-144800000D03*
X134800000Y-144900000D03*
X136842500Y-94234000D03*
X132910740Y-94914920D03*
X133553400Y-144843980D03*
X127891700Y-97465080D03*
X136842500Y-96774000D03*
X132283400Y-144843980D03*
X132910738Y-97454920D03*
X127891702Y-100005080D03*
X131000000Y-144900000D03*
X143713400Y-144843980D03*
X127893594Y-87339326D03*
X124663400Y-144843980D03*
X136842500Y-104394000D03*
X132910740Y-105074920D03*
X125933400Y-144843980D03*
X127891702Y-105085080D03*
X127203400Y-144843980D03*
X136842500Y-101854000D03*
X132910740Y-102534918D03*
X128473400Y-144843980D03*
X127891700Y-102545080D03*
X136842500Y-99314000D03*
X129743400Y-144843980D03*
X132910740Y-99994920D03*
X137363400Y-144843980D03*
X136906000Y-91757500D03*
X132910740Y-92374920D03*
X138633400Y-144843980D03*
X127891700Y-92385080D03*
X139903400Y-144843980D03*
X136842500Y-89154000D03*
X132910740Y-89834918D03*
X127893594Y-89879326D03*
X141173400Y-144843980D03*
X142443400Y-144843980D03*
X136906000Y-86614000D03*
X132910740Y-87294920D03*
X64483180Y-117787620D03*
X96200000Y-144800000D03*
X62700000Y-117950000D03*
X67023180Y-117787620D03*
X94900000Y-144900000D03*
X69588580Y-117787620D03*
X64500000Y-115250000D03*
X93700000Y-144900000D03*
X62000000Y-115400000D03*
X67023180Y-115247620D03*
X92400000Y-144900000D03*
X69588580Y-115247620D03*
X64450000Y-112700000D03*
X91100000Y-144900000D03*
X61250000Y-112450000D03*
X67023180Y-112707620D03*
X108890000Y-144843980D03*
X127876500Y-107620000D03*
X136842500Y-106934000D03*
X107620000Y-144843980D03*
X132910740Y-107614920D03*
X106350000Y-144843980D03*
X127891700Y-110165080D03*
X136842500Y-109474000D03*
X132910740Y-110154920D03*
X105080000Y-144843980D03*
X103810000Y-144843980D03*
X127891700Y-112705080D03*
X84800000Y-144800000D03*
X69600000Y-107650000D03*
X59650000Y-108000000D03*
X67023180Y-107627620D03*
X86100000Y-144800000D03*
X64483180Y-107627620D03*
X69588580Y-110167620D03*
X87300000Y-144800000D03*
X60400000Y-110200000D03*
X67023180Y-110167620D03*
X64483180Y-110167620D03*
X88600000Y-144800000D03*
X89900000Y-144900000D03*
X69588580Y-112707620D03*
X97460000Y-144843980D03*
X136842500Y-117094000D03*
X132910740Y-117774922D03*
X127891698Y-117785080D03*
X98730000Y-144843980D03*
X136842500Y-114554000D03*
X100000000Y-144843980D03*
X132910738Y-115234920D03*
X101270000Y-144843980D03*
X127891700Y-115245080D03*
X136842500Y-112014000D03*
X102540000Y-144843980D03*
X132910740Y-112694920D03*
X64483180Y-120327620D03*
X115600000Y-137200000D03*
X124100000Y-137600000D03*
X135450740Y-120314920D03*
X122760000Y-137350000D03*
X112700000Y-144843980D03*
X110160000Y-144843980D03*
X69588580Y-120327620D03*
X69588580Y-79687620D03*
X130429200Y-120325080D03*
X140000000Y-81000000D03*
X140050000Y-79000000D03*
X59931500Y-80950002D03*
X59931500Y-79045000D03*
X114500000Y-137100000D03*
X67000000Y-120300000D03*
X132910740Y-120314920D03*
X113970000Y-144843980D03*
X72123500Y-79680000D03*
X72128580Y-120327620D03*
X127891702Y-120325080D03*
X127889200Y-79685080D03*
X142000000Y-81000000D03*
X141950000Y-79000000D03*
X58026502Y-81013500D03*
X58026500Y-79045001D03*
D16*
X51232000Y-137973000D02*
X51232000Y-144768000D01*
X69588580Y-82227620D02*
X68310960Y-80950000D01*
X68310960Y-80950000D02*
X62662000Y-80950000D01*
X62662000Y-80950000D02*
X61392000Y-82220000D01*
X51232000Y-137973000D02*
X55105500Y-134099500D01*
X55105500Y-134099500D02*
X55105500Y-130162500D01*
X55105500Y-130162500D02*
X51740000Y-126797000D01*
X51740000Y-91872000D02*
X61392000Y-82220000D01*
X51740000Y-126797000D02*
X51740000Y-91872000D01*
X51232000Y-144768000D02*
X51200000Y-144800000D01*
X52476600Y-137231309D02*
X52476600Y-144776600D01*
X52095611Y-92019297D02*
X52095611Y-126649703D01*
X52095611Y-126649703D02*
X55461111Y-130015202D01*
X55461111Y-130015202D02*
X55461111Y-134246798D01*
X55461111Y-134246798D02*
X52476600Y-137231309D01*
X61044904Y-83070004D02*
X52095611Y-92019297D01*
X52476600Y-144776600D02*
X52500000Y-144800000D01*
X61714908Y-82400000D02*
X61044904Y-83070004D01*
X64310800Y-82400000D02*
X61714908Y-82400000D01*
X64483180Y-82227620D02*
X64310800Y-82400000D01*
X61044904Y-83069994D02*
X61044904Y-83070004D01*
X61044909Y-83069999D02*
X61044904Y-83070004D01*
X53543433Y-137673202D02*
X53543433Y-142043433D01*
X53162444Y-126207808D02*
X53162444Y-99896106D01*
X56527944Y-129573308D02*
X53162444Y-126207808D01*
X56527944Y-134688692D02*
X56527944Y-129573308D01*
X53543433Y-137673202D02*
X56527944Y-134688692D01*
X59602898Y-86052898D02*
X53162444Y-92493352D01*
X53162444Y-99896106D02*
X53162444Y-92493352D01*
X53543433Y-142043433D02*
X56300000Y-144800000D01*
X59602898Y-86052898D02*
X68333858Y-86052898D01*
X68330960Y-86050000D02*
X69588580Y-87307620D01*
X68333858Y-86052898D02*
X68330960Y-86050000D01*
X59602898Y-86052898D02*
X59605796Y-86050000D01*
X53899045Y-137820500D02*
X53899045Y-141099045D01*
X64350000Y-87450000D02*
X64450000Y-87350000D01*
X53644990Y-100812810D02*
X53644990Y-92513704D01*
X56883554Y-134835992D02*
X53899045Y-137820500D01*
X53644990Y-126187446D02*
X56883554Y-129426010D01*
X53644990Y-100812810D02*
X53644990Y-126187446D01*
X56883554Y-129426010D02*
X56883554Y-134835992D01*
X53644990Y-92513704D02*
X58708694Y-87450000D01*
X58708694Y-87450000D02*
X64350000Y-87450000D01*
X53899045Y-141099045D02*
X57600000Y-144800000D01*
X53187822Y-137525904D02*
X53187822Y-142987822D01*
X64483180Y-84767620D02*
X64250800Y-85000000D01*
X64250800Y-85000000D02*
X60152898Y-85000000D01*
X52806824Y-93343176D02*
X52806824Y-92346074D01*
X52806824Y-92346074D02*
X60152898Y-85000000D01*
X52806824Y-99300000D02*
X52806824Y-99374118D01*
X52806824Y-93343176D02*
X52806824Y-99300000D01*
X52806824Y-99374118D02*
X52806833Y-99374109D01*
X52806833Y-99374109D02*
X52806833Y-126355107D01*
X52806833Y-126355107D02*
X56172333Y-129720606D01*
X56172333Y-129720606D02*
X56172333Y-134541394D01*
X56172333Y-134541394D02*
X53187822Y-137525904D01*
X53187822Y-142987822D02*
X55000000Y-144800000D01*
X52832211Y-137378606D02*
X52832211Y-143832211D01*
X52451222Y-126502404D02*
X52451222Y-98148318D01*
X52832211Y-137378606D02*
X55816722Y-134394096D01*
X55816722Y-134394096D02*
X55816722Y-129867904D01*
X52451222Y-98148318D02*
X52451213Y-98148327D01*
X55816722Y-129867904D02*
X52451222Y-126502404D01*
X69588580Y-84767620D02*
X68320960Y-83500000D01*
X68320960Y-83500000D02*
X61150000Y-83500000D01*
X61150000Y-83500000D02*
X52451213Y-92198787D01*
X52451213Y-92198787D02*
X52451213Y-98148318D01*
X52451213Y-98148327D02*
X52451213Y-98148318D01*
X52832211Y-143832211D02*
X53800000Y-144800000D01*
X67023180Y-84767620D02*
X67023180Y-84473180D01*
X54254655Y-137967798D02*
X54254655Y-140254655D01*
X69588580Y-89847620D02*
X68290960Y-88550000D01*
X68290960Y-88550000D02*
X58111592Y-88550000D01*
X58111592Y-88550000D02*
X54000600Y-92660992D01*
X54000600Y-92660992D02*
X54000600Y-102819402D01*
X54000600Y-126040146D02*
X54000600Y-102819402D01*
X57239166Y-134983288D02*
X57239166Y-129278712D01*
X57239166Y-129278712D02*
X54000600Y-126040146D01*
X54254655Y-137967798D02*
X57239166Y-134983288D01*
X54254655Y-140254655D02*
X58800000Y-144800000D01*
X57086777Y-135638586D02*
X57086777Y-141786777D01*
X54356211Y-103289289D02*
X54356211Y-125892848D01*
X57594777Y-129131414D02*
X54356211Y-125892848D01*
X57594777Y-135130586D02*
X57594777Y-129131414D01*
X57086777Y-135638586D02*
X57594777Y-135130586D01*
X57086777Y-141786777D02*
X60100000Y-144800000D01*
X54356202Y-103289289D02*
X54356211Y-103289289D01*
X54356202Y-92808288D02*
X54356202Y-103289289D01*
X57264490Y-89900000D02*
X54356202Y-92808288D01*
X64430800Y-89900000D02*
X57264490Y-89900000D01*
X64483180Y-89847620D02*
X64430800Y-89900000D01*
X54356211Y-103289289D02*
X54356211Y-103289289D01*
X57442388Y-135785884D02*
X57442388Y-140842388D01*
X54711822Y-92955566D02*
X56567388Y-91100000D01*
X56567388Y-91100000D02*
X68300000Y-91100000D01*
X68300000Y-91100000D02*
X69600000Y-92400000D01*
X57442388Y-135785884D02*
X57950388Y-135277884D01*
X57950388Y-135277884D02*
X57950388Y-128984116D01*
X54711822Y-125745550D02*
X54711822Y-104109369D01*
X57950388Y-128984116D02*
X54711822Y-125745550D01*
X54711822Y-104109369D02*
X54711822Y-92955566D01*
X57442388Y-140842388D02*
X61300000Y-144700000D01*
X57797999Y-135933182D02*
X57797999Y-139997999D01*
X55067433Y-104733509D02*
X55067433Y-125598252D01*
X58305999Y-128836818D02*
X55067433Y-125598252D01*
X58305999Y-135425182D02*
X58305999Y-128836818D01*
X57797999Y-135933182D02*
X58305999Y-135425182D01*
X57797999Y-139997999D02*
X62600000Y-144800000D01*
X55067433Y-104733509D02*
X55067424Y-104733509D01*
X55067424Y-93650000D02*
X55067424Y-104733509D01*
X56217424Y-92500000D02*
X55067424Y-93650000D01*
X64370800Y-92500000D02*
X56217424Y-92500000D01*
X64370800Y-92500000D02*
X64483180Y-92387620D01*
X55067433Y-104733509D02*
X55067433Y-104733509D01*
X58153610Y-136080480D02*
X58153610Y-139153610D01*
X55423044Y-95876946D02*
X57699990Y-93600000D01*
X57699990Y-93600000D02*
X68250000Y-93600000D01*
X68250000Y-93600000D02*
X69600000Y-94950000D01*
X55423044Y-105336496D02*
X55423044Y-125450954D01*
X55423044Y-125450954D02*
X58661610Y-128689520D01*
X58661610Y-128689520D02*
X58661610Y-135572480D01*
X58661610Y-135572480D02*
X58153610Y-136080480D01*
X55423044Y-105336496D02*
X55423044Y-95876946D01*
X58153610Y-139153610D02*
X63900000Y-144900000D01*
X58572721Y-136164278D02*
X58572721Y-138272721D01*
X59017221Y-128542222D02*
X55778655Y-125303656D01*
X55778655Y-105815896D02*
X55778655Y-125303656D01*
X58572721Y-136164278D02*
X59017221Y-135719778D01*
X59017221Y-135719778D02*
X59017221Y-128542222D01*
X58572721Y-138272721D02*
X65100000Y-144800000D01*
X55778655Y-105815896D02*
X55778646Y-105815896D01*
X55778646Y-96700000D02*
X55778646Y-105815896D01*
X57578646Y-94900000D02*
X55778646Y-96700000D01*
X64455560Y-94900000D02*
X57578646Y-94900000D01*
X64455560Y-94900000D02*
X64483180Y-94927620D01*
X55778655Y-105815896D02*
X55778655Y-105815896D01*
X59372832Y-137770212D02*
X59372832Y-128394933D01*
X66446600Y-144843980D02*
X59372832Y-137770212D01*
X59372841Y-128394924D02*
X59372841Y-128394933D01*
X59372832Y-128394933D02*
X59372841Y-128394924D01*
X56134266Y-107165274D02*
X56134257Y-107165274D01*
X56134257Y-97415743D02*
X56134257Y-107165274D01*
X57400000Y-96150000D02*
X56134257Y-97415743D01*
X68270960Y-96150000D02*
X57400000Y-96150000D01*
X68270960Y-96150000D02*
X69588580Y-97467620D01*
X56134266Y-107165274D02*
X56134266Y-107165274D01*
X56134266Y-107165274D02*
X56134266Y-125156358D01*
X56134266Y-125156358D02*
X59372841Y-128394933D01*
X59372841Y-128394933D02*
X59372832Y-128394924D01*
X59728443Y-136728443D02*
X59728443Y-128247635D01*
X59728443Y-136728443D02*
X59900000Y-136900000D01*
X59900000Y-136900000D02*
X67700000Y-144700000D01*
X59728452Y-128247626D02*
X59728452Y-128247635D01*
X59728443Y-128247635D02*
X59728452Y-128247626D01*
X56489877Y-108400000D02*
X56489877Y-98800000D01*
X56489859Y-98799991D02*
X56489859Y-98800000D01*
X56489868Y-98799991D02*
X56489859Y-98799991D01*
X56489877Y-98800000D02*
X56489868Y-98799991D01*
X64400800Y-97550000D02*
X64483180Y-97467620D01*
X57739859Y-97550000D02*
X56489859Y-98800000D01*
X64400800Y-97550000D02*
X57739859Y-97550000D01*
X56489859Y-98800000D02*
X56489859Y-98800000D01*
X56489877Y-125009060D02*
X56489877Y-108400000D01*
X59728452Y-128247635D02*
X56489877Y-125009060D01*
X56489877Y-108400000D02*
X56489877Y-108391065D01*
X59728443Y-128247626D02*
X59728452Y-128247635D01*
X60084054Y-135941434D02*
X60084054Y-128100329D01*
X68986600Y-144843980D02*
X60084054Y-135941434D01*
X60084060Y-128100323D02*
X60084060Y-128100334D01*
X60084054Y-128100329D02*
X60084060Y-128100323D01*
X56845488Y-108994052D02*
X56845479Y-108994052D01*
X56845479Y-99454521D02*
X56845479Y-108994052D01*
X57600000Y-98700000D02*
X56845479Y-99454521D01*
X68280960Y-98700000D02*
X57600000Y-98700000D01*
X68280960Y-98700000D02*
X69588580Y-100007620D01*
X56845488Y-108994052D02*
X56845488Y-108994052D01*
X56845488Y-108994052D02*
X56845488Y-124861762D01*
X56845488Y-124861762D02*
X60084060Y-128100334D01*
X60084060Y-128100334D02*
X60084054Y-128100328D01*
X60439665Y-127953030D02*
X60439665Y-135027036D01*
X57201099Y-110219843D02*
X57201099Y-124714464D01*
X60439665Y-127953030D02*
X57201099Y-124714464D01*
X60439656Y-135027041D02*
X60439656Y-135027036D01*
X60439660Y-135027041D02*
X60439656Y-135027041D01*
X60439665Y-135027036D02*
X60439660Y-135027041D01*
X60439656Y-135027036D02*
X70256600Y-144843980D01*
X60439656Y-135027036D02*
X60439656Y-135027036D01*
X57201099Y-110219843D02*
X57201090Y-110219843D01*
X57201090Y-101049991D02*
X57201090Y-110219843D01*
X58151081Y-100100000D02*
X57201090Y-101049991D01*
X64390800Y-100100000D02*
X58151081Y-100100000D01*
X64390800Y-100100000D02*
X64483180Y-100007620D01*
X57201099Y-110219843D02*
X57201099Y-110219843D01*
X60795276Y-134100000D02*
X60800000Y-134100000D01*
X60795276Y-134104724D02*
X60800000Y-134100000D01*
X60795276Y-134112656D02*
X60795276Y-134104724D01*
X60795276Y-134112656D02*
X71526600Y-144843980D01*
X60795276Y-127805732D02*
X60795276Y-134100000D01*
X57556710Y-124567166D02*
X60795276Y-127805732D01*
X57556710Y-110822830D02*
X57556710Y-124567166D01*
X57556710Y-102093290D02*
X57556710Y-110822830D01*
X58350000Y-101300000D02*
X57556710Y-102093290D01*
X68340960Y-101300000D02*
X58350000Y-101300000D01*
X68340960Y-101300000D02*
X69588580Y-102547620D01*
X61150887Y-133200000D02*
X61152620Y-133200000D01*
X61152620Y-133200000D02*
X72796600Y-144843980D01*
X57912321Y-111350000D02*
X57912312Y-111350000D01*
X57912312Y-103450000D02*
X57912312Y-111350000D01*
X58662312Y-102700000D02*
X57912312Y-103450000D01*
X64330800Y-102700000D02*
X58662312Y-102700000D01*
X64330800Y-102700000D02*
X64483180Y-102547620D01*
X57912321Y-124419868D02*
X57912321Y-111350000D01*
X57912321Y-111350000D02*
X57912321Y-111252141D01*
X61150887Y-127658434D02*
X57912321Y-124419868D01*
X61150887Y-133200000D02*
X61150887Y-127658434D01*
X61506498Y-127511136D02*
X61506498Y-132283878D01*
X69588580Y-105087620D02*
X68350000Y-103849040D01*
X68350000Y-103849040D02*
X59118874Y-103849040D01*
X59118874Y-103849040D02*
X58267932Y-104699982D01*
X58267932Y-104699982D02*
X58267932Y-111399438D01*
X58267932Y-111399438D02*
X58267932Y-124272570D01*
X58267932Y-124272570D02*
X61506498Y-127511136D01*
X61522620Y-132300000D02*
X74066600Y-144843980D01*
X61506498Y-132283878D02*
X61522620Y-132300000D01*
X61862109Y-131369489D02*
X61862109Y-127363838D01*
X61862109Y-127363838D02*
X58623543Y-124125272D01*
X58623543Y-111600000D02*
X58623543Y-124125272D01*
X61862109Y-131369489D02*
X75336600Y-144843980D01*
X58623543Y-111600000D02*
X58623534Y-111600000D01*
X58623534Y-105900000D02*
X58623534Y-111600000D01*
X59373534Y-105150000D02*
X58623534Y-105900000D01*
X64420800Y-105150000D02*
X59373534Y-105150000D01*
X64420800Y-105150000D02*
X64483180Y-105087620D01*
X58623543Y-111600000D02*
X58623543Y-111546735D01*
X136969500Y-84137500D02*
X139461276Y-84137500D01*
X143700667Y-133982594D02*
X145709049Y-135990976D01*
X143700667Y-129784106D02*
X143700667Y-133982594D01*
X147650466Y-125834307D02*
X143700667Y-129784106D01*
X147650466Y-92326690D02*
X147650466Y-125834307D01*
X140083776Y-84760000D02*
X147650466Y-92326690D01*
X144983400Y-144843980D02*
X145709043Y-144118337D01*
X145709043Y-144118337D02*
X145709043Y-135990971D01*
X145709043Y-135990971D02*
X145709049Y-135990965D01*
X145709049Y-135990976D02*
X145709049Y-135990965D01*
X139461276Y-84137500D02*
X140083776Y-84760000D01*
X132908240Y-84754920D02*
X132913320Y-84760000D01*
X146160491Y-135939509D02*
X146160491Y-144751071D01*
X146160491Y-144751071D02*
X146253400Y-144843980D01*
X148006077Y-92179393D02*
X139228685Y-83402001D01*
X144056278Y-129931404D02*
X148006077Y-125981605D01*
X144056278Y-133835296D02*
X144056278Y-129931404D01*
X146160491Y-135939509D02*
X144056278Y-133835296D01*
X148006077Y-125981605D02*
X148006077Y-92179393D01*
X139228685Y-83402001D02*
X129257359Y-83402001D01*
X129257359Y-83402001D02*
X127889200Y-84770160D01*
X137160000Y-81534000D02*
X137863592Y-81534000D01*
X148361688Y-92032096D02*
X138549592Y-82220000D01*
X148361688Y-126128903D02*
X148361688Y-92032096D01*
X144411889Y-130078702D02*
X148361688Y-126128903D01*
X144411889Y-133687998D02*
X144411889Y-130078702D01*
X147561946Y-136838055D02*
X144411889Y-133687998D01*
X147523400Y-144843980D02*
X147561946Y-144805434D01*
X147561946Y-136838055D02*
X147561946Y-144805434D01*
X137863592Y-81534000D02*
X138549592Y-82220000D01*
X132953960Y-82220000D02*
X132943800Y-82230160D01*
X137655500Y-80823000D02*
X129372560Y-80823000D01*
X127899360Y-82296200D02*
X129372560Y-80823000D01*
X148768000Y-91935500D02*
X137655500Y-80823000D01*
X148768000Y-126225500D02*
X148768000Y-91935500D01*
X144767500Y-133540700D02*
X144767500Y-130226000D01*
X148793400Y-137566600D02*
X144767500Y-133540700D01*
X144767500Y-130226000D02*
X148768000Y-126225500D01*
X148793400Y-137566600D02*
X148793400Y-144843980D01*
X141211390Y-128753020D02*
X141211390Y-139688610D01*
X127899360Y-94930160D02*
X127889200Y-94940320D01*
X129296360Y-93533160D02*
X127889200Y-94940320D01*
X141983660Y-93533160D02*
X129296360Y-93533160D01*
X145161189Y-96710689D02*
X141983660Y-93533160D01*
X145161189Y-124803221D02*
X145161189Y-96710689D01*
X141211390Y-128753020D02*
X145161189Y-124803221D01*
X141211390Y-139688610D02*
X136100000Y-144800000D01*
X136842500Y-94234000D02*
X141935200Y-94234000D01*
X140855779Y-138844221D02*
X134800000Y-144900000D01*
X140855779Y-128605722D02*
X144754888Y-124706613D01*
X144754888Y-124706613D02*
X144754888Y-97053688D01*
X144754888Y-97053688D02*
X142621200Y-94920000D01*
X140855779Y-128605722D02*
X140855779Y-138844221D01*
X141935200Y-94234000D02*
X142621200Y-94920000D01*
X132923480Y-94894600D02*
X132948880Y-94920000D01*
X140500159Y-128458433D02*
X140500159Y-128458424D01*
X140500159Y-137897221D02*
X140500159Y-128458424D01*
X140500159Y-137897221D02*
X133553400Y-144843980D01*
X144399277Y-124559315D02*
X144399277Y-99314277D01*
X141148000Y-96063000D02*
X129352240Y-96063000D01*
X129352240Y-96063000D02*
X127914600Y-97500640D01*
X140500168Y-128458424D02*
X140500159Y-128458433D01*
X140500159Y-128458433D02*
X144399277Y-124559315D01*
X144399277Y-99314277D02*
X141148000Y-96063000D01*
X141287500Y-96774000D02*
X144043666Y-99530166D01*
X144043666Y-124412017D02*
X144043666Y-99530166D01*
X140144557Y-128311126D02*
X144043666Y-124412017D01*
X140144557Y-136982823D02*
X140144557Y-128311126D01*
X140144557Y-136982823D02*
X132283400Y-144843980D01*
X136842500Y-96774000D02*
X141287500Y-96774000D01*
X139788946Y-128163828D02*
X139788946Y-136111054D01*
X129339340Y-98590500D02*
X127899360Y-100030480D01*
X143688055Y-101841555D02*
X140437000Y-98590500D01*
X143688055Y-124264719D02*
X143688055Y-101841555D01*
X127899360Y-100040640D02*
X127899360Y-100030480D01*
X139788946Y-128163828D02*
X143688055Y-124264719D01*
X140437000Y-98590500D02*
X129339340Y-98590500D01*
X139788946Y-136111054D02*
X131000000Y-144900000D01*
X145157582Y-135942418D02*
X145157582Y-143399798D01*
X145157582Y-143399798D02*
X143713400Y-144843980D01*
X127899360Y-87320320D02*
X129316680Y-85903000D01*
X129316680Y-85903000D02*
X140723868Y-85903000D01*
X140723868Y-85903000D02*
X147294855Y-92473987D01*
X147294855Y-92473987D02*
X147294855Y-125687009D01*
X147294855Y-125687009D02*
X143345056Y-129636808D01*
X143345056Y-129636808D02*
X143345056Y-134129892D01*
X143345056Y-134129892D02*
X145157582Y-135942418D01*
X136842500Y-104394000D02*
X139192000Y-104394000D01*
X124663400Y-144843980D02*
X127607380Y-141900000D01*
X127607380Y-141900000D02*
X128607380Y-141900000D01*
X128607380Y-141900000D02*
X138010891Y-132496489D01*
X138010891Y-132496489D02*
X138010891Y-127427338D01*
X138010891Y-127427338D02*
X141808499Y-123629730D01*
X141808499Y-123629730D02*
X141808499Y-107010499D01*
X139192000Y-104394000D02*
X141808499Y-107010499D01*
X127879040Y-105080000D02*
X127889200Y-105080000D01*
X129286200Y-103683000D02*
X127889200Y-105080000D01*
X139090600Y-103683000D02*
X129286200Y-103683000D01*
X142265611Y-106858011D02*
X139090600Y-103683000D01*
X138366502Y-127574636D02*
X142265611Y-123675527D01*
X142265611Y-123675527D02*
X142265611Y-106858011D01*
X138366502Y-132669198D02*
X138366502Y-127574636D01*
X128735700Y-142300000D02*
X138366502Y-132669198D01*
X128477380Y-142300000D02*
X128735700Y-142300000D01*
X128477380Y-142300000D02*
X125933400Y-144843980D01*
X136842500Y-101854000D02*
X139598400Y-101854000D01*
X142621222Y-123822825D02*
X142621222Y-104876822D01*
X138722113Y-127721934D02*
X142621222Y-123822825D01*
X138722113Y-133300000D02*
X138722113Y-127721934D01*
X127203400Y-144843980D02*
X138722122Y-133325258D01*
X138722122Y-133325258D02*
X138722122Y-133300000D01*
X138722113Y-133300000D02*
X138722122Y-133300000D01*
X139598400Y-101854000D02*
X142621222Y-104876822D01*
X132893002Y-102539998D02*
X132893000Y-102540000D01*
X139077724Y-134239656D02*
X139077724Y-127869241D01*
X128473400Y-144843980D02*
X139077724Y-134239656D01*
X139077715Y-127869232D02*
X139077715Y-127869241D01*
X139077724Y-127869241D02*
X139077715Y-127869232D01*
X127960320Y-102484120D02*
X127914600Y-102529840D01*
X139077724Y-127869232D02*
X139077715Y-127869241D01*
X139077715Y-127869241D02*
X142976833Y-123970123D01*
X142976833Y-123970123D02*
X142976833Y-104686333D01*
X142976833Y-104686333D02*
X139433500Y-101143000D01*
X139433500Y-101143000D02*
X129301440Y-101143000D01*
X129301440Y-101143000D02*
X127960320Y-102484120D01*
X136842500Y-99314000D02*
X140563600Y-99314000D01*
X143332444Y-124117421D02*
X143332444Y-102082844D01*
X139433326Y-128016539D02*
X143332444Y-124117421D01*
X140563600Y-99314000D02*
X143332444Y-102082844D01*
X139433326Y-128016539D02*
X139433326Y-128016530D01*
X139433326Y-135154054D02*
X139433326Y-128016530D01*
X139433326Y-135154054D02*
X129743400Y-144843980D01*
X139433335Y-128016530D02*
X139433326Y-128016539D01*
X136906000Y-91757500D02*
X142963900Y-91757500D01*
X137363400Y-144843980D02*
X141821001Y-140386379D01*
X145516800Y-94310400D02*
X143586400Y-92380000D01*
X141821001Y-135120382D02*
X141567001Y-134866382D01*
X141567001Y-134866382D02*
X141567001Y-128900318D01*
X141567001Y-128900318D02*
X145516800Y-124950519D01*
X145516800Y-124950519D02*
X145516800Y-94310400D01*
X141821001Y-135120382D02*
X141821001Y-140386379D01*
X142963900Y-91757500D02*
X143586400Y-92380000D01*
X132923480Y-92354600D02*
X132948880Y-92380000D01*
X142288690Y-141188690D02*
X142288690Y-135085171D01*
X138633400Y-144843980D02*
X142288690Y-141188690D01*
X141922603Y-134719084D02*
X141922612Y-134719084D01*
X142288690Y-135085171D02*
X141922603Y-134719084D01*
X127934920Y-92344440D02*
X127889200Y-92390160D01*
X129296360Y-90983000D02*
X127934920Y-92344440D01*
X142799000Y-90983000D02*
X129296360Y-90983000D01*
X145872411Y-94056411D02*
X142799000Y-90983000D01*
X141922612Y-129047616D02*
X145872411Y-125097817D01*
X145872411Y-125097817D02*
X145872411Y-94056411D01*
X141922612Y-134719084D02*
X141922612Y-134719084D01*
X141922612Y-134719084D02*
X141922612Y-129047616D01*
X136842500Y-89154000D02*
X142466144Y-89154000D01*
X146228022Y-125245115D02*
X146228022Y-92915878D01*
X142278223Y-129194914D02*
X146228022Y-125245115D01*
X142278223Y-134571786D02*
X142278223Y-129194914D01*
X143003219Y-135296782D02*
X142278223Y-134571786D01*
X146228022Y-92915878D02*
X143152142Y-89839998D01*
X139903400Y-144843980D02*
X143000000Y-141747380D01*
X143003219Y-141744161D02*
X143000000Y-141740942D01*
X143000000Y-141740942D02*
X143000000Y-141700000D01*
X143000000Y-141700000D02*
X143000000Y-141747380D01*
X143003219Y-135296782D02*
X143003219Y-141744161D01*
X142466144Y-89154000D02*
X143152142Y-89839998D01*
X132918402Y-89839998D02*
X132908240Y-89850160D01*
X143804673Y-142212707D02*
X143804673Y-135595327D01*
X141173400Y-144843980D02*
X143800000Y-142217380D01*
X129357320Y-88443000D02*
X127924760Y-89875560D01*
X129357320Y-88443000D02*
X142258052Y-88443000D01*
X142258052Y-88443000D02*
X146583633Y-92768581D01*
X146583633Y-125392413D02*
X142633834Y-129342212D01*
X146583633Y-92768581D02*
X146583633Y-125392413D01*
X142633834Y-129342212D02*
X142633834Y-134424488D01*
X142633834Y-134424488D02*
X143804673Y-135595327D01*
X143804673Y-142212707D02*
X143800000Y-142217380D01*
X136906000Y-86614000D02*
X140931960Y-86614000D01*
X142989445Y-134277190D02*
X144406128Y-135693873D01*
X142989445Y-129489510D02*
X142989445Y-134277190D01*
X146939244Y-125539711D02*
X142989445Y-129489510D01*
X146939244Y-92621284D02*
X146939244Y-125539711D01*
X141617960Y-87300000D02*
X146939244Y-92621284D01*
X142443400Y-144843980D02*
X144406128Y-142881252D01*
X144406128Y-135693873D02*
X144406128Y-142881252D01*
X140931960Y-86614000D02*
X141617960Y-87300000D01*
X132923480Y-87274600D02*
X132948880Y-87300000D01*
X89087700Y-138000000D02*
X89400000Y-138000000D01*
X64483180Y-117787620D02*
X62408000Y-119862800D01*
X62408000Y-119862800D02*
X62408000Y-122880639D01*
X65418219Y-125890858D02*
X62408000Y-122880639D01*
X89087700Y-138000000D02*
X75857000Y-138000000D01*
X75857000Y-138000000D02*
X65418219Y-127561219D01*
X65418219Y-127561219D02*
X65418219Y-125890858D01*
X89400000Y-138000000D02*
X96200000Y-144800000D01*
X88200000Y-138400000D02*
X88600000Y-138400000D01*
X94900000Y-144700000D02*
X94900000Y-144900000D01*
X88600000Y-138400000D02*
X94900000Y-144700000D01*
X62014599Y-122990147D02*
X62014599Y-122990156D01*
X62014599Y-117650000D02*
X62014599Y-122990156D01*
X63114599Y-116550000D02*
X62014599Y-117650000D01*
X68350960Y-116550000D02*
X63114599Y-116550000D01*
X68350960Y-116550000D02*
X69588580Y-117787620D01*
X62014608Y-122990156D02*
X62014599Y-122990147D01*
X62014599Y-122990147D02*
X65062608Y-126038156D01*
X65062608Y-126038156D02*
X65062608Y-127708517D01*
X65062608Y-127708517D02*
X75754091Y-138400000D01*
X75754091Y-138400000D02*
X88200000Y-138400000D01*
X88200000Y-138400000D02*
X88217700Y-138400000D01*
X87347700Y-138800000D02*
X87800000Y-138800000D01*
X61658997Y-116691003D02*
X63100000Y-115250000D01*
X63100000Y-115250000D02*
X64500000Y-115250000D01*
X61658997Y-123137455D02*
X64706997Y-126185454D01*
X64706997Y-127855815D02*
X75651182Y-138800000D01*
X64706997Y-126185454D02*
X64706997Y-127855815D01*
X75651182Y-138800000D02*
X87347700Y-138800000D01*
X61658997Y-123137455D02*
X61658997Y-116691003D01*
X93700000Y-144700000D02*
X93700000Y-144900000D01*
X87800000Y-138800000D02*
X93700000Y-144700000D01*
X86477700Y-139200000D02*
X87000000Y-139200000D01*
X75500000Y-139200000D02*
X64351386Y-128051386D01*
X64351386Y-128051386D02*
X64351386Y-126332752D01*
X75500000Y-139200000D02*
X86477700Y-139200000D01*
X61303377Y-123284743D02*
X64351386Y-126332752D01*
X92400000Y-144600000D02*
X92400000Y-144900000D01*
X87000000Y-139200000D02*
X92400000Y-144600000D01*
X61303377Y-123284743D02*
X61303377Y-123284752D01*
X61303377Y-115100000D02*
X61303377Y-123284752D01*
X62503377Y-113900000D02*
X61303377Y-115100000D01*
X68240960Y-113900000D02*
X62503377Y-113900000D01*
X68240960Y-113900000D02*
X69588580Y-115247620D01*
X61303377Y-123284743D02*
X61303386Y-123284752D01*
X85900000Y-139600000D02*
X86100000Y-139600000D01*
X60947775Y-123432051D02*
X60947775Y-113702225D01*
X60947775Y-123432051D02*
X63995775Y-126480050D01*
X63995775Y-126480050D02*
X63995775Y-128200000D01*
X63997102Y-128200000D02*
X75397102Y-139600000D01*
X63995775Y-128200000D02*
X63997102Y-128200000D01*
X61950000Y-112700000D02*
X64450000Y-112700000D01*
X60947775Y-113702225D02*
X61950000Y-112700000D01*
X85900000Y-139600000D02*
X75397102Y-139600000D01*
X91100000Y-144600000D02*
X91100000Y-144900000D01*
X86100000Y-139600000D02*
X91100000Y-144600000D01*
X128488378Y-141506303D02*
X128488378Y-141516105D01*
X128483477Y-141511204D02*
X128488378Y-141516105D01*
X112222776Y-141511204D02*
X128483477Y-141511204D01*
X112222776Y-141511204D02*
X108890000Y-144843980D01*
X127807920Y-107609840D02*
X127886660Y-107609840D01*
X129273500Y-106223000D02*
X127886660Y-107609840D01*
X138735000Y-106223000D02*
X129273500Y-106223000D01*
X141452888Y-108940888D02*
X138735000Y-106223000D01*
X141452888Y-123482432D02*
X141452888Y-108940888D01*
X137655280Y-127280040D02*
X141452888Y-123482432D01*
X137655280Y-132339401D02*
X137655280Y-127280040D01*
X128488378Y-141506303D02*
X137655280Y-132339401D01*
X136842500Y-106934000D02*
X138811000Y-106934000D01*
X137299669Y-132192103D02*
X137299669Y-127132742D01*
X137299669Y-127132742D02*
X141097277Y-123335134D01*
X141097277Y-123335134D02*
X141097277Y-109220277D01*
X138811000Y-106934000D02*
X141097277Y-109220277D01*
X137299669Y-132192103D02*
X137299678Y-132192103D01*
X128336179Y-141155602D02*
X137299678Y-132192103D01*
X111308378Y-141155602D02*
X128336179Y-141155602D01*
X111308378Y-141155602D02*
X107620000Y-144843980D01*
X137299669Y-132192103D02*
X137299669Y-132192103D01*
X136944058Y-132044805D02*
X136944067Y-132044805D01*
X128188872Y-140800000D02*
X136944067Y-132044805D01*
X110393980Y-140800000D02*
X128188872Y-140800000D01*
X110393980Y-140800000D02*
X106350000Y-144843980D01*
X129083000Y-108953500D02*
X127876500Y-110160000D01*
X136944058Y-132044805D02*
X136944058Y-132044805D01*
X136944058Y-132044805D02*
X136944058Y-126985444D01*
X136944058Y-126985444D02*
X140741666Y-123187836D01*
X140741666Y-123187836D02*
X140741666Y-111023666D01*
X140741666Y-111023666D02*
X138481000Y-108763000D01*
X138481000Y-108763000D02*
X129083000Y-108763000D01*
X129083000Y-108763000D02*
X129083000Y-108953500D01*
X136842500Y-109474000D02*
X138366500Y-109474000D01*
X128052342Y-140433612D02*
X136588447Y-131897507D01*
X136588447Y-131897507D02*
X136588447Y-126838146D01*
X136588447Y-126838146D02*
X140386055Y-123040538D01*
X140386055Y-123040538D02*
X140386055Y-111493555D01*
X128000000Y-140433612D02*
X128052342Y-140433612D01*
X138366500Y-109474000D02*
X140386055Y-111493555D01*
X109490368Y-140433612D02*
X128000000Y-140433612D01*
X128000000Y-140433612D02*
X128052331Y-140433612D01*
X109490368Y-140433612D02*
X105080000Y-144843980D01*
X138107609Y-111303000D02*
X129273500Y-111303000D01*
X127876500Y-112700000D02*
X129273500Y-111303000D01*
X140030444Y-122893240D02*
X140030444Y-113225835D01*
X140030444Y-113225835D02*
X138107609Y-111303000D01*
X136232836Y-126690848D02*
X140030444Y-122893240D01*
X136232836Y-131750209D02*
X136232836Y-126690848D01*
X127905035Y-140078010D02*
X136232836Y-131750209D01*
X108575970Y-140078010D02*
X127905035Y-140078010D01*
X108575970Y-140078010D02*
X103810000Y-144843980D01*
X74961051Y-141738949D02*
X83138949Y-141738949D01*
X84800000Y-143400000D02*
X84800000Y-144800000D01*
X83138949Y-141738949D02*
X84800000Y-143400000D01*
X58979154Y-111700000D02*
X58979154Y-107720846D01*
X68300000Y-106350000D02*
X69600000Y-107650000D01*
X60350000Y-106350000D02*
X68300000Y-106350000D01*
X58979154Y-107720846D02*
X60350000Y-106350000D01*
X62217720Y-129000000D02*
X62222102Y-129000000D01*
X62222102Y-129000000D02*
X74961051Y-141738949D01*
X62217720Y-127216540D02*
X62217720Y-129000000D01*
X58979154Y-123977974D02*
X62217720Y-127216540D01*
X58979154Y-111694032D02*
X58979154Y-111700000D01*
X58979154Y-111700000D02*
X58979154Y-123977974D01*
X83300000Y-141300000D02*
X83400000Y-141300000D01*
X62573331Y-127069242D02*
X62573331Y-128848331D01*
X59334765Y-123830676D02*
X62573331Y-127069242D01*
X59334765Y-111841329D02*
X59334765Y-123830676D01*
X62600000Y-128875000D02*
X75025000Y-141300000D01*
X75025000Y-141300000D02*
X83300000Y-141300000D01*
X62573331Y-128848331D02*
X62600000Y-128875000D01*
X86100000Y-144000000D02*
X86100000Y-144800000D01*
X83400000Y-141300000D02*
X86100000Y-144000000D01*
X59334765Y-111841329D02*
X59334756Y-111841329D01*
X59334756Y-109315244D02*
X59334756Y-111841329D01*
X61050000Y-107600000D02*
X59334756Y-109315244D01*
X64455560Y-107600000D02*
X61050000Y-107600000D01*
X64455560Y-107600000D02*
X64483180Y-107627620D01*
X59334765Y-111841329D02*
X59334765Y-111841329D01*
X83800000Y-140900000D02*
X84000000Y-140900000D01*
X62928942Y-126921944D02*
X59700000Y-123693002D01*
X62928942Y-128700000D02*
X62928942Y-126921944D01*
X62944204Y-128700000D02*
X75144204Y-140900000D01*
X75144204Y-140900000D02*
X83800000Y-140900000D01*
X62928942Y-128700000D02*
X62944204Y-128700000D01*
X60700000Y-108900000D02*
X59700000Y-109900000D01*
X68320960Y-108900000D02*
X60700000Y-108900000D01*
X69588580Y-110167620D02*
X68320960Y-108900000D01*
X59700000Y-109900000D02*
X59700000Y-123693002D01*
X87300000Y-144200000D02*
X87300000Y-144800000D01*
X84000000Y-140900000D02*
X87300000Y-144200000D01*
X84500000Y-140400000D02*
X84700000Y-140400000D01*
X61150000Y-110400000D02*
X60150000Y-111400000D01*
X64250800Y-110400000D02*
X61150000Y-110400000D01*
X64483180Y-110167620D02*
X64250800Y-110400000D01*
X63284553Y-128537451D02*
X75147102Y-140400000D01*
X75147102Y-140400000D02*
X84500000Y-140400000D01*
X60150000Y-123640094D02*
X63284553Y-126774646D01*
X63284553Y-126774646D02*
X63284553Y-128537451D01*
X60150000Y-123640094D02*
X60150000Y-111400000D01*
X88600000Y-144300000D02*
X88600000Y-144800000D01*
X84700000Y-140400000D02*
X88600000Y-144300000D01*
X85100000Y-140000000D02*
X85400000Y-140000000D01*
X60592159Y-123579344D02*
X63640164Y-126627348D01*
X63640164Y-128325000D02*
X63640164Y-126627348D01*
X63640164Y-128390164D02*
X75250000Y-140000000D01*
X75250000Y-140000000D02*
X85100000Y-140000000D01*
X63640164Y-128325000D02*
X63640164Y-128390164D01*
X89900000Y-144500000D02*
X89900000Y-144900000D01*
X85400000Y-140000000D02*
X89900000Y-144500000D01*
X60592159Y-123579344D02*
X60592159Y-123579355D01*
X60592159Y-112163443D02*
X60592159Y-123579355D01*
X61355602Y-111400000D02*
X60592159Y-112163443D01*
X68280960Y-111400000D02*
X61355602Y-111400000D01*
X68280960Y-111400000D02*
X69588580Y-112707620D01*
X60592159Y-123579344D02*
X60592164Y-123579349D01*
X136842500Y-117094000D02*
X137223500Y-117094000D01*
X97460000Y-144843980D02*
X104003980Y-138300000D01*
X104003980Y-138300000D02*
X108900000Y-138300000D01*
X138227000Y-122182139D02*
X138227000Y-118097500D01*
X134454781Y-125954358D02*
X138227000Y-122182139D01*
X127337250Y-138037250D02*
X134454781Y-130919719D01*
X127100000Y-138274500D02*
X127337250Y-138037250D01*
X134454781Y-130919719D02*
X134454781Y-125954358D01*
X108900000Y-138300000D02*
X127074500Y-138300000D01*
X127074500Y-138300000D02*
X127100000Y-138300000D01*
X127100000Y-138300000D02*
X127100000Y-138274500D01*
X137223500Y-117094000D02*
X138227000Y-118097500D01*
X132893000Y-117780000D02*
X132893002Y-117780002D01*
X127315807Y-138655602D02*
X134810392Y-131161017D01*
X138608000Y-122304048D02*
X134810392Y-126101656D01*
X138608000Y-116954500D02*
X138608000Y-122304048D01*
X138036500Y-116383000D02*
X138608000Y-116954500D01*
X129273500Y-116383000D02*
X138036500Y-116383000D01*
X134810392Y-126101656D02*
X134810392Y-131161017D01*
X127876500Y-117780000D02*
X129273500Y-116383000D01*
X104918378Y-138655602D02*
X98730000Y-144843980D01*
X104918378Y-138655602D02*
X127315807Y-138655602D01*
X136842500Y-114554000D02*
X137764509Y-114554000D01*
X135166003Y-131308305D02*
X135166003Y-126248954D01*
X135166003Y-126248954D02*
X138963611Y-122451346D01*
X138963611Y-122451346D02*
X138963611Y-115753102D01*
X137764509Y-114554000D02*
X138963611Y-115753102D01*
X135166003Y-131308305D02*
X127463104Y-139011204D01*
X105832776Y-139011204D02*
X127463104Y-139011204D01*
X105832776Y-139011204D02*
X100000000Y-144843980D01*
X135166003Y-131308305D02*
X135166012Y-131308305D01*
X135166012Y-131308305D02*
X135166003Y-131308305D01*
X135166003Y-131308315D02*
X135166003Y-131308305D01*
X138369216Y-113830298D02*
X129349702Y-113830298D01*
X127940000Y-115240000D02*
X129349702Y-113830298D01*
X135521614Y-126396252D02*
X139319222Y-122598644D01*
X135521614Y-131455613D02*
X135521614Y-126396252D01*
X139319222Y-122598644D02*
X139319222Y-114780304D01*
X139319222Y-114780304D02*
X138369216Y-113830298D01*
X127610421Y-139366806D02*
X135521614Y-131455613D01*
X106747174Y-139366806D02*
X127610421Y-139366806D01*
X106747174Y-139366806D02*
X101270000Y-144843980D01*
X136842500Y-112014000D02*
X138239500Y-112014000D01*
X139674833Y-122745942D02*
X139674833Y-113449333D01*
X135877225Y-131602911D02*
X135877225Y-126543550D01*
X135877225Y-126543550D02*
X139674833Y-122745942D01*
X138239500Y-112014000D02*
X139674833Y-113449333D01*
X135877225Y-131602911D02*
X135877234Y-131602911D01*
X127757737Y-139722408D02*
X135877234Y-131602911D01*
X107661572Y-139722408D02*
X127757737Y-139722408D01*
X107661572Y-139722408D02*
X102540000Y-144843980D01*
X135877225Y-131602911D02*
X135877225Y-131602911D01*
X111023261Y-137123261D02*
X111723261Y-137123261D01*
X64483180Y-121529701D02*
X80076740Y-137123261D01*
X64483180Y-120327620D02*
X64483180Y-121529701D01*
X80076740Y-137123261D02*
X111023261Y-137123261D01*
X115000000Y-137800000D02*
X115600000Y-137200000D01*
X112400000Y-137800000D02*
X115000000Y-137800000D01*
X111723261Y-137123261D02*
X112400000Y-137800000D01*
X124108908Y-137608908D02*
X127208907Y-137608908D01*
X124100000Y-137600000D02*
X124108908Y-137608908D01*
X134099170Y-130718645D02*
X127208907Y-137608908D01*
X134099170Y-121653830D02*
X134099170Y-130718645D01*
X135433000Y-120320000D02*
X134099170Y-121653830D01*
X122800000Y-137400000D02*
X122800000Y-137390000D01*
X122800000Y-137390000D02*
X122760000Y-137350000D01*
X112700000Y-144843980D02*
X112700000Y-144800000D01*
X110200000Y-144800000D02*
X110200000Y-144803980D01*
X110200000Y-144803980D02*
X110160000Y-144843980D01*
X130400000Y-120300000D02*
X130404120Y-120300000D01*
X130404120Y-120300000D02*
X130429200Y-120325080D01*
X111750000Y-136600000D02*
X114000000Y-136600000D01*
X81900000Y-136600000D02*
X80975000Y-135675000D01*
X80975000Y-135675000D02*
X67000000Y-121700000D01*
X67000000Y-121700000D02*
X67000000Y-120300000D01*
X81900000Y-136600000D02*
X111750000Y-136600000D01*
X114000000Y-136600000D02*
X114500000Y-137100000D01*
X114500000Y-137100000D02*
X115100000Y-136500000D01*
X115100000Y-136500000D02*
X127814918Y-136500000D01*
X133743559Y-130562439D02*
X133743559Y-130571359D01*
X133324118Y-120320000D02*
X133743559Y-120739441D01*
X133743559Y-120739441D02*
X133743559Y-130562439D01*
X132893000Y-120320000D02*
X133324118Y-120320000D01*
X133743559Y-130571359D02*
X127814918Y-136500000D01*
X114000000Y-144813980D02*
X113970000Y-144843980D01*
X114000000Y-144813980D02*
X114000000Y-144800000D01*
M02*
