M48
;DRILL file {KiCad 4.0.1-stable} date 2017-04-25 2:34:55 PM
;FORMAT={2:4/ absolute / inch / suppress leading zeros}
FMAT,2
INCH,TZ
T1C0.015
T2C0.050
T3C0.126
%
G90
G05
M72
T1
X20157Y-57008
X20669Y-57008
X21181Y-57008
X21654Y-57008
X22165Y-57008
X22382Y-36142
X22677Y-57008
X22736Y-38130
X22756Y-39154
X22845Y-31120
X22845Y-31895
X22854Y-37106
X22992Y-35138
X23091Y-40157
X23150Y-57008
X23386Y-41142
X23484Y-42520
X23583Y-34154
X23595Y-31120
X23595Y-31870
X23661Y-57008
X23780Y-43386
X24114Y-44272
X24134Y-56969
X24370Y-33189
X24409Y-45433
X24646Y-57008
X24685Y-46437
X24764Y-32146
X25157Y-57047
X25374Y-34390
X25374Y-44370
X25387Y-32373
X25387Y-33373
X25387Y-35373
X25387Y-36373
X25387Y-37373
X25387Y-38373
X25387Y-39373
X25387Y-40373
X25387Y-41373
X25387Y-42373
X25387Y-43373
X25387Y-46373
X25387Y-47373
X25394Y-45374
X25630Y-57008
X26160Y-57025
X26378Y-47362
X26387Y-32373
X26387Y-33373
X26387Y-34373
X26387Y-35373
X26387Y-36373
X26387Y-37373
X26387Y-38373
X26387Y-39373
X26387Y-40373
X26387Y-41373
X26387Y-42373
X26387Y-43373
X26387Y-44373
X26387Y-45373
X26387Y-46373
X26654Y-56969
X27160Y-57025
X27397Y-31373
X27397Y-32373
X27397Y-33373
X27397Y-34373
X27397Y-35373
X27397Y-38373
X27397Y-39373
X27397Y-40373
X27397Y-41373
X27397Y-43373
X27397Y-44373
X27397Y-45373
X27397Y-46373
X27397Y-47373
X27402Y-36378
X27402Y-37382
X27402Y-42382
X27660Y-57025
X28160Y-57025
X28395Y-31370
X28397Y-47373
X28660Y-57025
X29160Y-57025
X29660Y-57025
X33386Y-57008
X33898Y-57008
X34370Y-57008
X34882Y-57008
X35394Y-57047
X35866Y-57047
X36378Y-57047
X36890Y-57047
X37362Y-57047
X37874Y-57008
X38370Y-57025
X38870Y-57025
X39370Y-57025
X39870Y-57025
X40370Y-57025
X40870Y-57025
X41370Y-57025
X41870Y-57025
X42370Y-57025
X42870Y-57025
X43370Y-57025
X44370Y-57025
X44870Y-57025
X45079Y-53976
X45512Y-54016
X48331Y-54075
X48858Y-54173
X49080Y-57025
X49580Y-57025
X50080Y-57025
X50345Y-42370
X50350Y-31372
X50350Y-33372
X50351Y-37372
X50351Y-46372
X50351Y-36372
X50351Y-38372
X50351Y-40372
X50351Y-43372
X50351Y-44372
X50351Y-45372
X50351Y-39372
X50351Y-41372
X50351Y-47372
X50352Y-34386
X50352Y-35386
X50354Y-32364
X50580Y-57025
X51080Y-57025
X51350Y-47372
X51575Y-57047
X52080Y-57025
X52326Y-33368
X52327Y-38368
X52327Y-45368
X52327Y-32368
X52327Y-34368
X52327Y-35368
X52327Y-36368
X52327Y-37368
X52327Y-39368
X52327Y-40368
X52327Y-41368
X52327Y-42368
X52327Y-43368
X52327Y-44368
X52327Y-46368
X52327Y-47368
X52580Y-57025
X53071Y-57047
X53327Y-47368
X53583Y-57008
X54080Y-57025
X54580Y-57025
X55080Y-57025
X55118Y-31890
X55138Y-31102
X55580Y-57025
X55886Y-31102
X55906Y-31890
X56080Y-57025
X56580Y-57025
X57080Y-57025
X57580Y-57025
X58080Y-57025
X58580Y-57025
T2
X19535Y-56488
X30285Y-56488
X32745Y-56488
X45995Y-56488
X48455Y-56488
X59205Y-56488
T3
X20079Y-31890
X20079Y-51969
X58661Y-31890
X58661Y-51969
T0
M30
