G04 #@! TF.FileFunction,Copper,L4,Bot,Signal*
%FSLAX46Y46*%
G04 Gerber Fmt 4.6, Leading zero omitted, Abs format (unit mm)*
G04 Created by KiCad (PCBNEW 4.0.1-stable) date 2017-04-25 11:00:09 AM*
%MOMM*%
G01*
G04 APERTURE LIST*
%ADD10C,0.150000*%
%ADD11C,1.750000*%
%ADD12C,6.400000*%
%ADD13C,0.762000*%
%ADD14C,0.177800*%
G04 APERTURE END LIST*
D10*
D11*
X49619100Y-144480000D03*
X76924100Y-144480000D03*
D12*
X149000000Y-81000000D03*
X51000000Y-81000000D03*
X149000000Y-132000000D03*
X51000000Y-132000000D03*
D11*
X83172500Y-144480000D03*
X116827500Y-144480000D03*
X123075900Y-144480000D03*
X150380900Y-144480000D03*
D13*
X67023180Y-82227620D03*
X62900000Y-81650000D03*
X69588580Y-82227620D03*
X51206600Y-145843980D03*
X64483180Y-82227620D03*
X52476600Y-145843980D03*
X69588580Y-87307620D03*
X56286600Y-145843980D03*
X57556600Y-145843980D03*
X64450000Y-87350000D03*
X64483180Y-84767620D03*
X55016600Y-145843980D03*
X69588580Y-84767620D03*
X53746600Y-145843980D03*
X67023180Y-84767620D03*
X61900000Y-84300000D03*
X59900000Y-86750000D03*
X67023180Y-87307620D03*
X69588580Y-89847620D03*
X58826600Y-145843980D03*
X67023180Y-89847620D03*
X58400000Y-89250000D03*
X64483180Y-89847620D03*
X60096600Y-145843980D03*
X61366600Y-145843980D03*
X69600000Y-92400000D03*
X67023180Y-92387620D03*
X56850000Y-91800000D03*
X64483180Y-92387620D03*
X62636600Y-145843980D03*
X63906600Y-145843980D03*
X69600000Y-94950000D03*
X67023180Y-94927620D03*
X58050000Y-94250000D03*
X64483180Y-94927620D03*
X65176600Y-145843980D03*
X69588580Y-97467620D03*
X66446600Y-145843980D03*
X67023180Y-97467620D03*
X57750000Y-96850000D03*
X64483180Y-97467620D03*
X67716600Y-145843980D03*
X69588580Y-100007620D03*
X68986600Y-145843980D03*
X67023180Y-100007620D03*
X57800000Y-99450000D03*
X64483180Y-100007620D03*
X70256600Y-145843980D03*
X69588580Y-102547620D03*
X71526600Y-145843980D03*
X58650000Y-102000000D03*
X67023180Y-102547620D03*
X64483180Y-102547620D03*
X72796600Y-145843980D03*
X69588580Y-105087620D03*
X74066600Y-145843980D03*
X67023180Y-105087620D03*
X59400000Y-104500000D03*
X64483180Y-105087620D03*
X75336600Y-145843980D03*
X132908240Y-84754920D03*
X144983400Y-145843980D03*
X127889200Y-84765080D03*
X146253400Y-145843980D03*
X132910740Y-82214920D03*
X147523400Y-145843980D03*
X127899360Y-82204760D03*
X148793400Y-145843980D03*
X127891698Y-94925080D03*
X136093400Y-145843980D03*
X132910740Y-94914920D03*
X134823400Y-145843980D03*
X127891700Y-97465080D03*
X133553400Y-145843980D03*
X132910738Y-97454920D03*
X132283400Y-145843980D03*
X127891702Y-100005080D03*
X131013400Y-145843980D03*
X143713400Y-145843980D03*
X127893594Y-87339326D03*
X132910740Y-105074920D03*
X124663400Y-145843980D03*
X127891702Y-105085080D03*
X125933400Y-145843980D03*
X132910740Y-102534918D03*
X127203400Y-145843980D03*
X127891700Y-102545080D03*
X128473400Y-145843980D03*
X132910740Y-99994920D03*
X129743400Y-145843980D03*
X132910740Y-92374920D03*
X137363400Y-145843980D03*
X127891700Y-92385080D03*
X138633400Y-145843980D03*
X132910740Y-89834918D03*
X139903400Y-145843980D03*
X127893594Y-89879326D03*
X141173400Y-145843980D03*
X132910740Y-87294920D03*
X142443400Y-145843980D03*
X64483180Y-117787620D03*
X96190000Y-145843980D03*
X67023180Y-117787620D03*
X62700000Y-117950000D03*
X69588580Y-117787620D03*
X94920000Y-145843980D03*
X93650000Y-145843980D03*
X64500000Y-115250000D03*
X67023180Y-115247620D03*
X62000000Y-115400000D03*
X69588580Y-115247620D03*
X92380000Y-145843980D03*
X64450000Y-112700000D03*
X91110000Y-145847000D03*
X67023180Y-112707620D03*
X61250000Y-112450000D03*
X108890000Y-145843980D03*
X127876500Y-107620000D03*
X107620000Y-145843980D03*
X132910740Y-107614920D03*
X127891700Y-110165080D03*
X106350000Y-145843980D03*
X132910740Y-110154920D03*
X105080000Y-145843980D03*
X127891700Y-112705080D03*
X103822701Y-145821600D03*
X69600000Y-107650000D03*
X84760000Y-145910598D03*
X67023180Y-107627620D03*
X59650000Y-108000000D03*
X64483180Y-107627620D03*
X86025000Y-145825000D03*
X87325000Y-145750000D03*
X69588580Y-110167620D03*
X67023180Y-110167620D03*
X60400000Y-110200000D03*
X88550000Y-145750000D03*
X64483180Y-110167620D03*
X69588580Y-112707620D03*
X89850000Y-145775000D03*
X132910740Y-117774922D03*
X97460000Y-145843980D03*
X98730000Y-145847000D03*
X127891698Y-117785080D03*
X132910738Y-115234920D03*
X99974588Y-145910500D03*
X127891700Y-115245080D03*
X101270000Y-145910500D03*
X132910740Y-112694920D03*
X102540000Y-145843980D03*
X64483180Y-120327620D03*
X114625000Y-138925000D03*
X121475000Y-138900000D03*
X135450740Y-120314920D03*
X115900000Y-131300000D03*
X115925000Y-139200000D03*
X118300000Y-131400000D03*
X69588580Y-120327620D03*
X69588580Y-79687620D03*
X118650000Y-139225000D03*
X122775000Y-137350000D03*
X110160000Y-145843980D03*
X130429200Y-120325080D03*
X112700000Y-145843980D03*
X140000000Y-81000000D03*
X140050000Y-79000000D03*
X59931500Y-80950002D03*
X59931500Y-79045000D03*
X67000000Y-120300000D03*
X113400000Y-138250000D03*
X132910740Y-120314920D03*
X113970000Y-145843980D03*
X72123500Y-79680000D03*
X72128580Y-120327620D03*
X127891702Y-120325080D03*
X127889200Y-79685080D03*
X142000000Y-81000000D03*
X141950000Y-79000000D03*
X58026502Y-81013500D03*
X58026500Y-79045001D03*
D14*
X63200000Y-81350000D02*
X62900000Y-81650000D01*
X66145560Y-81350000D02*
X63200000Y-81350000D01*
X67023180Y-82227620D02*
X66145560Y-81350000D01*
X51740000Y-126797000D02*
X51740000Y-91872000D01*
X51740000Y-91872000D02*
X61392000Y-82220000D01*
X55105500Y-130162500D02*
X51740000Y-126797000D01*
X55105500Y-134099500D02*
X55105500Y-130162500D01*
X51232000Y-137973000D02*
X55105500Y-134099500D01*
X51232000Y-145818580D02*
X51232000Y-137973000D01*
X51206600Y-145843980D02*
X51232000Y-145818580D01*
X62662000Y-80950000D02*
X61392000Y-82220000D01*
X68310960Y-80950000D02*
X62662000Y-80950000D01*
X68310960Y-80950000D02*
X69588580Y-82227620D01*
X61714908Y-82400000D02*
X61044904Y-83070004D01*
X64310800Y-82400000D02*
X61714908Y-82400000D01*
X64483180Y-82227620D02*
X64310800Y-82400000D01*
X61044904Y-83069994D02*
X61044904Y-83070004D01*
X61044909Y-83069999D02*
X61044904Y-83070004D01*
X61044904Y-83070004D02*
X52095611Y-92019297D01*
X52476600Y-144556200D02*
X52476600Y-145843980D01*
X52476600Y-137231309D02*
X52476600Y-144556200D01*
X55461111Y-134246798D02*
X52476600Y-137231309D01*
X55461111Y-130015202D02*
X55461111Y-134246798D01*
X52095611Y-126649703D02*
X55461111Y-130015202D01*
X52095611Y-92019297D02*
X52095611Y-126649703D01*
X59602898Y-86052898D02*
X68333858Y-86052898D01*
X68330960Y-86050000D02*
X69588580Y-87307620D01*
X68333858Y-86052898D02*
X68330960Y-86050000D01*
X53162444Y-99896106D02*
X53162444Y-92493352D01*
X53162444Y-92493352D02*
X59602898Y-86052898D01*
X59602898Y-86052898D02*
X59605796Y-86050000D01*
X56286600Y-145843980D02*
X56286600Y-145102300D01*
X56286600Y-145102300D02*
X53543433Y-142359133D01*
X53543433Y-142359133D02*
X53543433Y-137673202D01*
X53543433Y-137673202D02*
X56527944Y-134688692D01*
X56527944Y-134688692D02*
X56527944Y-129573308D01*
X56527944Y-129573308D02*
X53162444Y-126207808D01*
X53162444Y-126207808D02*
X53162444Y-99896106D01*
X58708694Y-87450000D02*
X64350000Y-87450000D01*
X53644990Y-92513704D02*
X58708694Y-87450000D01*
X53899045Y-141444745D02*
X57556600Y-145102300D01*
X57556600Y-145843980D02*
X57556600Y-145102300D01*
X53899045Y-137820500D02*
X53899045Y-141444745D01*
X56883554Y-129426010D02*
X56883554Y-134835992D01*
X53644990Y-100812810D02*
X53644990Y-126187446D01*
X53644990Y-126187446D02*
X56883554Y-129426010D01*
X56883554Y-134835992D02*
X53899045Y-137820500D01*
X53644990Y-100812810D02*
X53644990Y-92513704D01*
X64350000Y-87450000D02*
X64450000Y-87350000D01*
X55016600Y-145843980D02*
X55016600Y-145102300D01*
X53187822Y-143273522D02*
X55016600Y-145102300D01*
X56172333Y-134541394D02*
X53187822Y-137525904D01*
X56172333Y-129720606D02*
X56172333Y-134541394D01*
X52806833Y-126355107D02*
X56172333Y-129720606D01*
X52806833Y-99374109D02*
X52806833Y-126355107D01*
X53187822Y-137525904D02*
X53187822Y-143273522D01*
X52806824Y-99374118D02*
X52806833Y-99374109D01*
X52806824Y-93343176D02*
X52806824Y-99300000D01*
X52806824Y-99300000D02*
X52806824Y-99374118D01*
X52806824Y-92346074D02*
X60152898Y-85000000D01*
X52806824Y-93343176D02*
X52806824Y-92346074D01*
X64250800Y-85000000D02*
X60152898Y-85000000D01*
X64250800Y-85000000D02*
X64483180Y-84767620D01*
X52451213Y-98148327D02*
X52451213Y-98148318D01*
X52451213Y-92198787D02*
X52451213Y-98148318D01*
X61150000Y-83500000D02*
X52451213Y-92198787D01*
X68320960Y-83500000D02*
X61150000Y-83500000D01*
X68320960Y-83500000D02*
X69588580Y-84767620D01*
X53746600Y-145843980D02*
X53746600Y-144556200D01*
X53746600Y-144556200D02*
X52832211Y-143641811D01*
X55816722Y-129867904D02*
X52451222Y-126502404D01*
X52451222Y-98148318D02*
X52451213Y-98148327D01*
X52832211Y-143641811D02*
X52832211Y-137378606D01*
X55816722Y-134394096D02*
X55816722Y-129867904D01*
X52832211Y-137378606D02*
X55816722Y-134394096D01*
X52451222Y-126502404D02*
X52451222Y-98148318D01*
X67023180Y-84767620D02*
X67023180Y-84473180D01*
X62344398Y-83855602D02*
X61900000Y-84300000D01*
X66405602Y-83855602D02*
X62344398Y-83855602D01*
X67023180Y-84473180D02*
X66405602Y-83855602D01*
X60241500Y-86408500D02*
X59900000Y-86750000D01*
X66124060Y-86408500D02*
X60241500Y-86408500D01*
X67023180Y-87307620D02*
X66124060Y-86408500D01*
X54254655Y-137967798D02*
X57239166Y-134983288D01*
X57239166Y-129278712D02*
X54000600Y-126040146D01*
X58826600Y-145843980D02*
X58826600Y-145102300D01*
X58826600Y-145102300D02*
X54254655Y-140530355D01*
X54254655Y-140530355D02*
X54254655Y-137967798D01*
X57239166Y-134983288D02*
X57239166Y-129278712D01*
X54000600Y-126040146D02*
X54000600Y-102819402D01*
X54000600Y-92660992D02*
X54000600Y-102819402D01*
X58111592Y-88550000D02*
X54000600Y-92660992D01*
X68290960Y-88550000D02*
X58111592Y-88550000D01*
X68290960Y-88550000D02*
X69588580Y-89847620D01*
X58744398Y-88905602D02*
X58400000Y-89250000D01*
X66081162Y-88905602D02*
X58744398Y-88905602D01*
X66081162Y-88905602D02*
X67023180Y-89847620D01*
X54356202Y-103289289D02*
X54356211Y-103289289D01*
X54356202Y-92808288D02*
X54356202Y-103289289D01*
X57264490Y-89900000D02*
X54356202Y-92808288D01*
X64430800Y-89900000D02*
X57264490Y-89900000D01*
X64483180Y-89847620D02*
X64430800Y-89900000D01*
X60096600Y-145843980D02*
X60096600Y-145102300D01*
X60096600Y-145102300D02*
X57086777Y-142092477D01*
X57086777Y-142092477D02*
X57086777Y-135638586D01*
X57086777Y-135638586D02*
X57594777Y-135130586D01*
X57594777Y-135130586D02*
X57594777Y-129131414D01*
X57594777Y-129131414D02*
X54356211Y-125892848D01*
X54356211Y-125892848D02*
X54356211Y-103289289D01*
X54356211Y-103289289D02*
X54356211Y-103289289D01*
X54711822Y-104109369D02*
X54711822Y-92955566D01*
X61366600Y-145843980D02*
X61366600Y-145102300D01*
X57442388Y-141178088D02*
X57442388Y-135785884D01*
X57950388Y-128984116D02*
X54711822Y-125745550D01*
X54711822Y-125745550D02*
X54711822Y-104109369D01*
X57950388Y-135277884D02*
X57950388Y-128984116D01*
X57442388Y-135785884D02*
X57950388Y-135277884D01*
X61366600Y-145102300D02*
X57442388Y-141178088D01*
X68300000Y-91100000D02*
X69600000Y-92400000D01*
X56567388Y-91100000D02*
X68300000Y-91100000D01*
X54711822Y-92955566D02*
X56567388Y-91100000D01*
X57194398Y-91455602D02*
X56850000Y-91800000D01*
X66091162Y-91455602D02*
X57194398Y-91455602D01*
X66091162Y-91455602D02*
X67023180Y-92387620D01*
X55067433Y-104733509D02*
X55067424Y-104733509D01*
X55067424Y-93650000D02*
X55067424Y-104733509D01*
X56217424Y-92500000D02*
X55067424Y-93650000D01*
X64370800Y-92500000D02*
X56217424Y-92500000D01*
X64370800Y-92500000D02*
X64483180Y-92387620D01*
X62636600Y-145843980D02*
X62636600Y-145102300D01*
X62636600Y-145102300D02*
X57797999Y-140263699D01*
X57797999Y-140263699D02*
X57797999Y-135933182D01*
X57797999Y-135933182D02*
X58305999Y-135425182D01*
X58305999Y-135425182D02*
X58305999Y-128836818D01*
X58305999Y-128836818D02*
X55067433Y-125598252D01*
X55067433Y-125598252D02*
X55067433Y-104733509D01*
X55067433Y-104733509D02*
X55067433Y-104733509D01*
X55423044Y-105336496D02*
X55423044Y-95876946D01*
X63906600Y-145843980D02*
X63906600Y-145102300D01*
X58153610Y-139349310D02*
X63906600Y-145102300D01*
X58153610Y-136080480D02*
X58153610Y-139349310D01*
X58661610Y-135572480D02*
X58153610Y-136080480D01*
X58661610Y-128689520D02*
X58661610Y-135572480D01*
X55423044Y-125450954D02*
X58661610Y-128689520D01*
X55423044Y-105336496D02*
X55423044Y-125450954D01*
X68250000Y-93600000D02*
X69600000Y-94950000D01*
X57699990Y-93600000D02*
X68250000Y-93600000D01*
X55423044Y-95876946D02*
X57699990Y-93600000D01*
X58344398Y-93955602D02*
X58050000Y-94250000D01*
X66051162Y-93955602D02*
X58344398Y-93955602D01*
X66051162Y-93955602D02*
X67023180Y-94927620D01*
X55778655Y-105815896D02*
X55778646Y-105815896D01*
X55778646Y-96700000D02*
X55778646Y-105815896D01*
X57578646Y-94900000D02*
X55778646Y-96700000D01*
X64455560Y-94900000D02*
X57578646Y-94900000D01*
X64455560Y-94900000D02*
X64483180Y-94927620D01*
X59017221Y-135719778D02*
X59017221Y-128542222D01*
X65176600Y-145102300D02*
X58572721Y-138498421D01*
X58572721Y-136164278D02*
X59017221Y-135719778D01*
X55778655Y-125303656D02*
X55778655Y-105815896D01*
X55778655Y-105815896D02*
X55778655Y-105815896D01*
X65176600Y-145843980D02*
X65176600Y-145102300D01*
X58572721Y-138498421D02*
X58572721Y-136164278D01*
X59017221Y-128542222D02*
X55778655Y-125303656D01*
X56134266Y-107165274D02*
X56134257Y-107165274D01*
X56134257Y-97415743D02*
X56134257Y-107165274D01*
X57400000Y-96150000D02*
X56134257Y-97415743D01*
X68270960Y-96150000D02*
X57400000Y-96150000D01*
X68270960Y-96150000D02*
X69588580Y-97467620D01*
X56134266Y-107165274D02*
X56134266Y-107165274D01*
X56134266Y-107165274D02*
X56134266Y-125156358D01*
X56134266Y-125156358D02*
X59372832Y-128394924D01*
X59372832Y-128394924D02*
X59372832Y-138028532D01*
X59372832Y-138028532D02*
X66446600Y-145102300D01*
X66446600Y-145102300D02*
X66446600Y-145843980D01*
X58094398Y-96505602D02*
X57750000Y-96850000D01*
X66061162Y-96505602D02*
X58094398Y-96505602D01*
X66061162Y-96505602D02*
X67023180Y-97467620D01*
X56489877Y-108400000D02*
X56489877Y-98800000D01*
X56489859Y-98799991D02*
X56489859Y-98800000D01*
X56489868Y-98799991D02*
X56489859Y-98799991D01*
X56489877Y-98800000D02*
X56489868Y-98799991D01*
X64400800Y-97550000D02*
X64483180Y-97467620D01*
X57739859Y-97550000D02*
X56489859Y-98800000D01*
X64400800Y-97550000D02*
X57739859Y-97550000D01*
X56489859Y-98800000D02*
X56489859Y-98800000D01*
X67716600Y-145843980D02*
X67716600Y-145102300D01*
X56489877Y-125009060D02*
X56489877Y-108400000D01*
X56489877Y-108400000D02*
X56489877Y-108391065D01*
X59728443Y-128247626D02*
X56489877Y-125009060D01*
X59728443Y-137114143D02*
X59728443Y-128247626D01*
X67716600Y-145102300D02*
X59728443Y-137114143D01*
X56845488Y-108994052D02*
X56845479Y-108994052D01*
X56845479Y-99454521D02*
X56845479Y-108994052D01*
X57600000Y-98700000D02*
X56845479Y-99454521D01*
X68280960Y-98700000D02*
X57600000Y-98700000D01*
X68280960Y-98700000D02*
X69588580Y-100007620D01*
X56845488Y-108994052D02*
X56845488Y-108994052D01*
X56845488Y-108994052D02*
X56845488Y-124861762D01*
X68986600Y-145102300D02*
X68986600Y-145843980D01*
X56845488Y-124861762D02*
X60084054Y-128100328D01*
X60084054Y-128100328D02*
X60084054Y-136199754D01*
X60084054Y-136199754D02*
X68986600Y-145102300D01*
X58194398Y-99055602D02*
X57800000Y-99450000D01*
X66071162Y-99055602D02*
X58194398Y-99055602D01*
X66071162Y-99055602D02*
X67023180Y-100007620D01*
X57201099Y-110219843D02*
X57201090Y-110219843D01*
X57201090Y-101049991D02*
X57201090Y-110219843D01*
X58151081Y-100100000D02*
X57201090Y-101049991D01*
X64390800Y-100100000D02*
X58151081Y-100100000D01*
X64390800Y-100100000D02*
X64483180Y-100007620D01*
X60439665Y-127953030D02*
X57201099Y-124714464D01*
X57201099Y-124714464D02*
X57201099Y-110219843D01*
X57201099Y-110219843D02*
X57201099Y-110219843D01*
X60439665Y-135285365D02*
X60439665Y-127953030D01*
X70256600Y-145843980D02*
X70256600Y-145102300D01*
X70256600Y-145102300D02*
X60439665Y-135285365D01*
X71526600Y-145843980D02*
X71526600Y-145102300D01*
X60795276Y-127805732D02*
X60795276Y-134370976D01*
X60795276Y-134370976D02*
X71526600Y-145102300D01*
X57556710Y-124567166D02*
X60795276Y-127805732D01*
X57556710Y-110822830D02*
X57556710Y-124567166D01*
X57556710Y-102093290D02*
X57556710Y-110822830D01*
X58350000Y-101300000D02*
X57556710Y-102093290D01*
X68340960Y-101300000D02*
X58350000Y-101300000D01*
X68340960Y-101300000D02*
X69588580Y-102547620D01*
X66131162Y-101655602D02*
X67023180Y-102547620D01*
X66131162Y-101655602D02*
X58994398Y-101655602D01*
X58650000Y-102000000D02*
X58994398Y-101655602D01*
X57912321Y-111350000D02*
X57912312Y-111350000D01*
X57912312Y-103450000D02*
X57912312Y-111350000D01*
X58662312Y-102700000D02*
X57912312Y-103450000D01*
X64330800Y-102700000D02*
X58662312Y-102700000D01*
X64330800Y-102700000D02*
X64483180Y-102547620D01*
X72796600Y-145843980D02*
X72796600Y-145102300D01*
X57912321Y-124419868D02*
X57912321Y-111350000D01*
X57912321Y-111350000D02*
X57912321Y-111252141D01*
X61150887Y-127658434D02*
X57912321Y-124419868D01*
X61150887Y-133456587D02*
X61150887Y-127658434D01*
X72796600Y-145102300D02*
X61150887Y-133456587D01*
X58267932Y-124272570D02*
X61506498Y-127511136D01*
X58267932Y-111399438D02*
X58267932Y-124272570D01*
X61506498Y-127511136D02*
X61506498Y-132542198D01*
X61506498Y-132542198D02*
X74066600Y-145102300D01*
X74066600Y-145843980D02*
X74066600Y-145102300D01*
X58267932Y-104699982D02*
X58267932Y-111399438D01*
X59118874Y-103849040D02*
X58267932Y-104699982D01*
X68350000Y-103849040D02*
X59118874Y-103849040D01*
X68350000Y-103849040D02*
X69588580Y-105087620D01*
X59695358Y-104204642D02*
X59400000Y-104500000D01*
X66140202Y-104204642D02*
X59695358Y-104204642D01*
X66140202Y-104204642D02*
X67023180Y-105087620D01*
X58623543Y-111600000D02*
X58623534Y-111600000D01*
X58623534Y-105900000D02*
X58623534Y-111600000D01*
X59373534Y-105150000D02*
X58623534Y-105900000D01*
X64420800Y-105150000D02*
X59373534Y-105150000D01*
X64420800Y-105150000D02*
X64483180Y-105087620D01*
X58623543Y-124125272D02*
X58623543Y-111600000D01*
X58623543Y-111600000D02*
X58623543Y-111546735D01*
X75336600Y-145302300D02*
X61862109Y-131827809D01*
X61862109Y-131827809D02*
X61862109Y-127363838D01*
X75336600Y-145843980D02*
X75336600Y-145302300D01*
X61862109Y-127363838D02*
X58623543Y-124125272D01*
X132908240Y-84754920D02*
X132913320Y-84760000D01*
X132913320Y-84760000D02*
X140083776Y-84760000D01*
X140083776Y-84760000D02*
X147650466Y-92326690D01*
X147650466Y-92326690D02*
X147650466Y-125834307D01*
X147650466Y-142435234D02*
X144983400Y-145102300D01*
X147650466Y-125834307D02*
X143700667Y-129784106D01*
X143700667Y-129784106D02*
X143700667Y-133982594D01*
X143700667Y-133982594D02*
X147650466Y-137932393D01*
X147650466Y-137932393D02*
X147650466Y-142435234D01*
X144983400Y-145102300D02*
X144983400Y-145843980D01*
X146253400Y-145843980D02*
X146253400Y-145102300D01*
X148006077Y-92179393D02*
X139736685Y-83910001D01*
X146253400Y-145102300D02*
X148006077Y-143349623D01*
X144056278Y-129931404D02*
X148006077Y-125981605D01*
X148006077Y-143349623D02*
X148006077Y-137785095D01*
X144056278Y-133835296D02*
X144056278Y-129931404D01*
X148006077Y-137785095D02*
X144056278Y-133835296D01*
X148006077Y-125981605D02*
X148006077Y-92179393D01*
X139736685Y-83910001D02*
X128749359Y-83910001D01*
X128749359Y-83910001D02*
X127889200Y-84770160D01*
X147523400Y-145843980D02*
X147523400Y-145102300D01*
X147523400Y-145102300D02*
X148361688Y-144264012D01*
X148361688Y-137637797D02*
X144411889Y-133687998D01*
X148361688Y-144264012D02*
X148361688Y-137637797D01*
X144411889Y-133687998D02*
X144411889Y-130078702D01*
X138549592Y-82220000D02*
X132953960Y-82220000D01*
X144411889Y-130078702D02*
X148361688Y-126128903D01*
X148361688Y-126128903D02*
X148361688Y-92032096D01*
X148361688Y-92032096D02*
X138549592Y-82220000D01*
X132953960Y-82220000D02*
X132943800Y-82230160D01*
X148793400Y-145843980D02*
X148793400Y-137566600D01*
X144767500Y-130226000D02*
X148768000Y-126225500D01*
X148793400Y-137566600D02*
X144767500Y-133540700D01*
X144767500Y-133540700D02*
X144767500Y-130226000D01*
X148768000Y-126225500D02*
X148768000Y-91935500D01*
X148768000Y-91935500D02*
X137973000Y-81140500D01*
X129055060Y-81140500D02*
X127899360Y-82296200D01*
X137973000Y-81140500D02*
X129055060Y-81140500D01*
X136093400Y-145843980D02*
X136093400Y-145102300D01*
X136093400Y-145102300D02*
X141211390Y-139984310D01*
X141211390Y-139984310D02*
X141211390Y-128753020D01*
X141211390Y-128753020D02*
X145161189Y-124803221D01*
X145161189Y-124803221D02*
X145161189Y-95935989D01*
X145161189Y-95935989D02*
X142885360Y-93660160D01*
X142885360Y-93660160D02*
X129169360Y-93660160D01*
X129169360Y-93660160D02*
X127889200Y-94940320D01*
X127889200Y-94940320D02*
X127899360Y-94930160D01*
X134823400Y-145843980D02*
X134823400Y-145102300D01*
X140855779Y-128605722D02*
X144754888Y-124706613D01*
X142621200Y-94920000D02*
X132948880Y-94920000D01*
X134823400Y-145102300D02*
X140855779Y-139069921D01*
X140855779Y-139069921D02*
X140855779Y-128605722D01*
X144754888Y-124706613D02*
X144754888Y-97053688D01*
X144754888Y-97053688D02*
X142621200Y-94920000D01*
X132948880Y-94920000D02*
X132923480Y-94894600D01*
X133553400Y-145843980D02*
X133553400Y-145102300D01*
X144399277Y-124559315D02*
X144399277Y-98222077D01*
X133553400Y-145102300D02*
X140500168Y-138155532D01*
X142367200Y-96190000D02*
X129225240Y-96190000D01*
X129225240Y-96190000D02*
X127914600Y-97500640D01*
X140500168Y-138155532D02*
X140500168Y-128458424D01*
X140500168Y-128458424D02*
X144399277Y-124559315D01*
X144399277Y-98222077D02*
X142367200Y-96190000D01*
X132283400Y-145843980D02*
X132283400Y-145102300D01*
X140144557Y-128311126D02*
X144043666Y-124412017D01*
X132283400Y-145102300D02*
X140144557Y-137241143D01*
X140144557Y-137241143D02*
X140144557Y-128311126D01*
X144043666Y-124412017D02*
X144043666Y-99593666D01*
X144043666Y-99593666D02*
X141910000Y-97460000D01*
X141910000Y-97460000D02*
X132893000Y-97460000D01*
X131013400Y-145843980D02*
X131013400Y-145102300D01*
X131013400Y-145102300D02*
X139788946Y-136326754D01*
X139788946Y-136326754D02*
X139788946Y-128163828D01*
X141529000Y-98857000D02*
X129072840Y-98857000D01*
X139788946Y-128163828D02*
X143688055Y-124264719D01*
X127899360Y-100030480D02*
X127899360Y-100040640D01*
X143688055Y-124264719D02*
X143688055Y-101016055D01*
X143688055Y-101016055D02*
X141529000Y-98857000D01*
X129072840Y-98857000D02*
X127899360Y-100030480D01*
X127899360Y-87320320D02*
X128935680Y-86284000D01*
X128935680Y-86284000D02*
X141104868Y-86284000D01*
X147294855Y-138079691D02*
X147294855Y-141520845D01*
X141104868Y-86284000D02*
X147294855Y-92473987D01*
X147294855Y-92473987D02*
X147294855Y-125687009D01*
X147294855Y-141520845D02*
X143713400Y-145102300D01*
X147294855Y-125687009D02*
X143345056Y-129636808D01*
X143345056Y-129636808D02*
X143345056Y-134129892D01*
X143345056Y-134129892D02*
X147294855Y-138079691D01*
X143713400Y-145102300D02*
X143713400Y-145843980D01*
X124663400Y-145843980D02*
X138010891Y-132496489D01*
X138010891Y-132496489D02*
X138010891Y-127427338D01*
X138010891Y-127427338D02*
X141808499Y-123629730D01*
X141808499Y-123629730D02*
X141808499Y-107929990D01*
X141808499Y-107929990D02*
X138958509Y-105080000D01*
X138958509Y-105080000D02*
X132893000Y-105080000D01*
X125933400Y-145843980D02*
X125933400Y-145102300D01*
X125933400Y-145102300D02*
X138366502Y-132669198D01*
X138366502Y-132669198D02*
X138366502Y-127574636D01*
X142265611Y-123675527D02*
X142265611Y-106858011D01*
X138366502Y-127574636D02*
X142265611Y-123675527D01*
X142265611Y-106858011D02*
X139217600Y-103810000D01*
X139217600Y-103810000D02*
X129159200Y-103810000D01*
X129159200Y-103810000D02*
X127889200Y-105080000D01*
X127889200Y-105080000D02*
X127879040Y-105080000D01*
X127203400Y-145843980D02*
X127203400Y-145102300D01*
X127203400Y-145102300D02*
X138722113Y-133583587D01*
X138722113Y-133583587D02*
X138722113Y-127721934D01*
X138722113Y-127721934D02*
X142621222Y-123822825D01*
X142621222Y-123822825D02*
X142621222Y-104876822D01*
X132893002Y-102539998D02*
X132893000Y-102540000D01*
X142621222Y-104876822D02*
X140284398Y-102539998D01*
X140284398Y-102539998D02*
X132893002Y-102539998D01*
X128473400Y-145843980D02*
X128473400Y-145102300D01*
X128473400Y-145102300D02*
X139077724Y-134497976D01*
X139077724Y-134497976D02*
X139077724Y-127869232D01*
X127960320Y-102484120D02*
X127914600Y-102529840D01*
X139077724Y-127869232D02*
X142976833Y-123970123D01*
X142976833Y-123970123D02*
X142976833Y-103403633D01*
X142976833Y-103403633D02*
X140843200Y-101270000D01*
X140843200Y-101270000D02*
X129174440Y-101270000D01*
X129174440Y-101270000D02*
X127960320Y-102484120D01*
X129743400Y-145843980D02*
X129743400Y-145102300D01*
X129743400Y-145102300D02*
X139433335Y-135412365D01*
X139433335Y-135412365D02*
X139433335Y-128016530D01*
X139433335Y-128016530D02*
X143332444Y-124117421D01*
X143332444Y-124117421D02*
X143332444Y-102082844D01*
X143332444Y-102082844D02*
X141249600Y-100000000D01*
X141249600Y-100000000D02*
X132956500Y-100000000D01*
X137363400Y-145843980D02*
X137363400Y-145102300D01*
X145516800Y-94310400D02*
X143586400Y-92380000D01*
X132948880Y-92380000D02*
X132923480Y-92354600D01*
X137363400Y-145102300D02*
X141821001Y-140644699D01*
X141821001Y-140644699D02*
X141821001Y-135120382D01*
X141821001Y-135120382D02*
X141567001Y-134866382D01*
X141567001Y-134866382D02*
X141567001Y-128900318D01*
X141567001Y-128900318D02*
X145516800Y-124950519D01*
X145516800Y-124950519D02*
X145516800Y-94310400D01*
X143586400Y-92380000D02*
X132948880Y-92380000D01*
X138633400Y-145843980D02*
X138633400Y-145102300D01*
X143129112Y-135925584D02*
X141922612Y-134719084D01*
X138633400Y-145102300D02*
X143129112Y-140606588D01*
X143129112Y-140606588D02*
X143129112Y-135925584D01*
X141922612Y-134719084D02*
X141922612Y-129047616D01*
X145872411Y-125097817D02*
X145872411Y-93243611D01*
X141922612Y-129047616D02*
X145872411Y-125097817D01*
X145872411Y-93243611D02*
X143738800Y-91110000D01*
X143738800Y-91110000D02*
X129169360Y-91110000D01*
X129169360Y-91110000D02*
X127934920Y-92344440D01*
X127934920Y-92344440D02*
X127889200Y-92390160D01*
X139903400Y-145843980D02*
X139903400Y-145102300D01*
X144373723Y-140631977D02*
X144373723Y-136667286D01*
X139903400Y-145102300D02*
X144373723Y-140631977D01*
X146228022Y-92915878D02*
X143152142Y-89839998D01*
X143152142Y-89839998D02*
X132918402Y-89839998D01*
X144373723Y-136667286D02*
X142278223Y-134571786D01*
X142278223Y-134571786D02*
X142278223Y-129194914D01*
X142278223Y-129194914D02*
X146228022Y-125245115D01*
X146228022Y-125245115D02*
X146228022Y-92915878D01*
X132918402Y-89839998D02*
X132908240Y-89850160D01*
X127924760Y-89875560D02*
X129230320Y-88570000D01*
X129230320Y-88570000D02*
X142385052Y-88570000D01*
X145681834Y-140593866D02*
X141173400Y-145102300D01*
X142385052Y-88570000D02*
X146583633Y-92768581D01*
X146583633Y-125392413D02*
X142633834Y-129342212D01*
X146583633Y-92768581D02*
X146583633Y-125392413D01*
X142633834Y-129342212D02*
X142633834Y-134424488D01*
X142633834Y-134424488D02*
X145681834Y-137472487D01*
X145681834Y-137472487D02*
X145681834Y-140593866D01*
X141173400Y-145102300D02*
X141173400Y-145843980D01*
X132923480Y-87274600D02*
X132948880Y-87300000D01*
X132948880Y-87300000D02*
X141617960Y-87300000D01*
X141617960Y-87300000D02*
X146939244Y-92621284D01*
X146939244Y-92621284D02*
X146939244Y-125539711D01*
X146939244Y-125539711D02*
X142989445Y-129489510D01*
X146939244Y-138226989D02*
X146939244Y-140606456D01*
X142989445Y-129489510D02*
X142989445Y-134277190D01*
X146939244Y-140606456D02*
X142443400Y-145102300D01*
X142989445Y-134277190D02*
X146939244Y-138226989D01*
X142443400Y-145102300D02*
X142443400Y-145843980D01*
X65418219Y-127561219D02*
X65418219Y-125890858D01*
X77357000Y-139500000D02*
X65418219Y-127561219D01*
X90587700Y-139500000D02*
X77357000Y-139500000D01*
X96190000Y-145102300D02*
X90587700Y-139500000D01*
X96190000Y-145843980D02*
X96190000Y-145102300D01*
X65418219Y-125890858D02*
X62408000Y-122880639D01*
X62408000Y-119862800D02*
X62408000Y-122880639D01*
X62408000Y-119862800D02*
X64483180Y-117787620D01*
X63744398Y-116905602D02*
X62700000Y-117950000D01*
X66141162Y-116905602D02*
X63744398Y-116905602D01*
X66141162Y-116905602D02*
X67023180Y-117787620D01*
X62014599Y-122990147D02*
X62014599Y-122990156D01*
X62014599Y-117650000D02*
X62014599Y-122990156D01*
X63114599Y-116550000D02*
X62014599Y-117650000D01*
X68350960Y-116550000D02*
X63114599Y-116550000D01*
X68350960Y-116550000D02*
X69588580Y-117787620D01*
X62014608Y-122990156D02*
X62014599Y-122990147D01*
X62014599Y-122990147D02*
X65062608Y-126038156D01*
X65062608Y-126038156D02*
X65062608Y-127708517D01*
X65062608Y-127708517D02*
X77354091Y-140000000D01*
X77354091Y-140000000D02*
X89817700Y-140000000D01*
X89817700Y-140000000D02*
X94920000Y-145102300D01*
X94920000Y-145102300D02*
X94920000Y-145843980D01*
X61658997Y-123137455D02*
X61658997Y-116691003D01*
X93650000Y-145843980D02*
X93650000Y-145102300D01*
X89147700Y-140600000D02*
X93650000Y-145102300D01*
X77451182Y-140600000D02*
X89147700Y-140600000D01*
X64706997Y-126185454D02*
X64706997Y-127855815D01*
X64706997Y-127855815D02*
X77451182Y-140600000D01*
X61658997Y-123137455D02*
X64706997Y-126185454D01*
X63100000Y-115250000D02*
X64500000Y-115250000D01*
X61658997Y-116691003D02*
X63100000Y-115250000D01*
X63144398Y-114255602D02*
X62000000Y-115400000D01*
X66031162Y-114255602D02*
X63144398Y-114255602D01*
X66031162Y-114255602D02*
X67023180Y-115247620D01*
X61303377Y-123284743D02*
X61303377Y-123284752D01*
X61303377Y-115100000D02*
X61303377Y-123284752D01*
X62503377Y-113900000D02*
X61303377Y-115100000D01*
X68240960Y-113900000D02*
X62503377Y-113900000D01*
X68240960Y-113900000D02*
X69588580Y-115247620D01*
X64351386Y-126332752D02*
X61303377Y-123284743D01*
X61303377Y-123284743D02*
X61303386Y-123284752D01*
X77400000Y-141100000D02*
X88377700Y-141100000D01*
X92380000Y-145102300D02*
X92380000Y-145843980D01*
X88377700Y-141100000D02*
X92380000Y-145102300D01*
X64351386Y-128051386D02*
X64351386Y-126332752D01*
X77400000Y-141100000D02*
X64351386Y-128051386D01*
X60947775Y-123432051D02*
X60947775Y-113702225D01*
X60947775Y-123432051D02*
X63995775Y-126480050D01*
X63995775Y-126480050D02*
X63995775Y-128200000D01*
X63997102Y-128200000D02*
X77252704Y-141455602D01*
X86700000Y-141455602D02*
X77252704Y-141455602D01*
X63995775Y-128200000D02*
X63997102Y-128200000D01*
X61950000Y-112700000D02*
X64450000Y-112700000D01*
X60947775Y-113702225D02*
X61950000Y-112700000D01*
X86700000Y-141455602D02*
X87755602Y-141455602D01*
X91110000Y-144810000D02*
X91110000Y-145847000D01*
X87755602Y-141455602D02*
X91110000Y-144810000D01*
X86700000Y-141455602D02*
X86718602Y-141455602D01*
X61944398Y-111755602D02*
X61250000Y-112450000D01*
X66071162Y-111755602D02*
X61944398Y-111755602D01*
X66071162Y-111755602D02*
X67023180Y-112707620D01*
X110390160Y-143334840D02*
X108890000Y-144835000D01*
X108890000Y-145843980D02*
X108890000Y-144835000D01*
X110390160Y-143334840D02*
X126659841Y-143334840D01*
X127807920Y-107609840D02*
X127886660Y-107609840D01*
X129019500Y-106477000D02*
X127886660Y-107609840D01*
X139852600Y-106477000D02*
X129019500Y-106477000D01*
X141452888Y-108077288D02*
X139852600Y-106477000D01*
X141452888Y-123482432D02*
X141452888Y-108077288D01*
X137655280Y-127280040D02*
X141452888Y-123482432D01*
X137655280Y-132339401D02*
X137655280Y-127280040D01*
X126659841Y-143334840D02*
X137655280Y-132339401D01*
X126520886Y-142970886D02*
X109554114Y-142970886D01*
X107620000Y-145680000D02*
X107620000Y-145843980D01*
X107620000Y-144905000D02*
X107620000Y-145843980D01*
X109554114Y-142970886D02*
X107620000Y-144905000D01*
X132893000Y-107620000D02*
X139217600Y-107620000D01*
X141097277Y-123335134D02*
X141097277Y-109499677D01*
X137299669Y-127132742D02*
X141097277Y-123335134D01*
X137299669Y-132192103D02*
X137299669Y-127132742D01*
X126520886Y-142970886D02*
X137299669Y-132192103D01*
X141097277Y-109499677D02*
X139217600Y-107620000D01*
X106350000Y-145843980D02*
X106350000Y-145102300D01*
X106350000Y-145102300D02*
X108844022Y-142608278D01*
X129083000Y-108953500D02*
X127876500Y-110160000D01*
X108844022Y-142608278D02*
X126380585Y-142608278D01*
X136944058Y-132044805D02*
X136944058Y-126985444D01*
X126380585Y-142608278D02*
X136944058Y-132044805D01*
X136944058Y-126985444D02*
X140741666Y-123187836D01*
X140741666Y-123187836D02*
X140741666Y-112044757D01*
X140741666Y-112044757D02*
X137586909Y-108890000D01*
X137586909Y-108890000D02*
X129083000Y-108890000D01*
X129083000Y-108890000D02*
X129083000Y-108953500D01*
X105080000Y-145843980D02*
X105080000Y-145102300D01*
X136588447Y-131897507D02*
X136588447Y-126838146D01*
X105080000Y-145102300D02*
X107929633Y-142252667D01*
X107929633Y-142252667D02*
X126233287Y-142252667D01*
X126233287Y-142252667D02*
X136588447Y-131897507D01*
X138354000Y-110160000D02*
X132893000Y-110160000D01*
X136588447Y-126838146D02*
X140386055Y-123040538D01*
X140386055Y-112192055D02*
X138354000Y-110160000D01*
X140386055Y-123040538D02*
X140386055Y-112192055D01*
X103822701Y-145821600D02*
X103857792Y-145821600D01*
X103857792Y-145821600D02*
X107782336Y-141897056D01*
X107782336Y-141897056D02*
X126085989Y-141897056D01*
X126085989Y-141897056D02*
X136232836Y-131750209D01*
X136232836Y-131750209D02*
X136232836Y-126690848D01*
X136232836Y-126690848D02*
X140030444Y-122893240D01*
X140030444Y-113670335D02*
X137726609Y-111366500D01*
X140030444Y-122893240D02*
X140030444Y-113670335D01*
X129210000Y-111366500D02*
X127876500Y-112700000D01*
X137726609Y-111366500D02*
X129210000Y-111366500D01*
X58979154Y-111700000D02*
X58979154Y-107720846D01*
X68300000Y-106350000D02*
X69600000Y-107650000D01*
X60350000Y-106350000D02*
X68300000Y-106350000D01*
X58979154Y-107720846D02*
X60350000Y-106350000D01*
X62217720Y-129000000D02*
X62222102Y-129000000D01*
X62222102Y-129000000D02*
X76455714Y-143233612D01*
X76455714Y-143233612D02*
X84108612Y-143233612D01*
X84108612Y-143233612D02*
X84760000Y-143885000D01*
X84760000Y-143885000D02*
X84760000Y-145910598D01*
X62217720Y-127216540D02*
X62217720Y-129000000D01*
X58979154Y-123977974D02*
X62217720Y-127216540D01*
X58979154Y-111694032D02*
X58979154Y-111700000D01*
X58979154Y-111700000D02*
X58979154Y-123977974D01*
X60944398Y-106705602D02*
X59650000Y-108000000D01*
X66101162Y-106705602D02*
X60944398Y-106705602D01*
X66101162Y-106705602D02*
X67023180Y-107627620D01*
X59334765Y-111841329D02*
X59334756Y-111841329D01*
X59334756Y-109315244D02*
X59334756Y-111841329D01*
X61050000Y-107600000D02*
X59334756Y-109315244D01*
X64455560Y-107600000D02*
X61050000Y-107600000D01*
X64455560Y-107600000D02*
X64483180Y-107627620D01*
X62573331Y-127069242D02*
X62573331Y-128848331D01*
X59334765Y-123830676D02*
X62573331Y-127069242D01*
X59334765Y-111841329D02*
X59334765Y-111841329D01*
X59334765Y-111841329D02*
X59334765Y-123830676D01*
X62600000Y-128875000D02*
X76603010Y-142878010D01*
X76603010Y-142878010D02*
X84878010Y-142878010D01*
X84878010Y-142878010D02*
X86025000Y-144025000D01*
X86025000Y-144025000D02*
X86025000Y-145825000D01*
X62573331Y-128848331D02*
X62600000Y-128875000D01*
X59700000Y-109900000D02*
X59700000Y-123693002D01*
X69588580Y-110167620D02*
X68320960Y-108900000D01*
X68320960Y-108900000D02*
X60700000Y-108900000D01*
X60700000Y-108900000D02*
X59700000Y-109900000D01*
X62928942Y-128700000D02*
X62944204Y-128700000D01*
X87325000Y-144425000D02*
X87325000Y-145750000D01*
X85422408Y-142522408D02*
X87325000Y-144425000D01*
X76766612Y-142522408D02*
X85422408Y-142522408D01*
X62944204Y-128700000D02*
X76766612Y-142522408D01*
X62928942Y-128700000D02*
X62928942Y-126921944D01*
X62928942Y-126921944D02*
X59700000Y-123693002D01*
X61344398Y-109255602D02*
X60400000Y-110200000D01*
X66111162Y-109255602D02*
X61344398Y-109255602D01*
X66111162Y-109255602D02*
X67023180Y-110167620D01*
X60150000Y-123640094D02*
X60150000Y-111400000D01*
X63284553Y-126774646D02*
X63284553Y-128537451D01*
X60150000Y-123640094D02*
X63284553Y-126774646D01*
X88550000Y-144450000D02*
X88550000Y-145750000D01*
X86266806Y-142166806D02*
X88550000Y-144450000D01*
X76913908Y-142166806D02*
X86266806Y-142166806D01*
X63284553Y-128537451D02*
X76913908Y-142166806D01*
X64250800Y-110400000D02*
X64483180Y-110167620D01*
X64250800Y-110400000D02*
X61150000Y-110400000D01*
X61150000Y-110400000D02*
X60150000Y-111400000D01*
X60592159Y-123579344D02*
X60592159Y-123579355D01*
X60592159Y-112163443D02*
X60592159Y-123579355D01*
X61355602Y-111400000D02*
X60592159Y-112163443D01*
X68280960Y-111400000D02*
X61355602Y-111400000D01*
X68280960Y-111400000D02*
X69588580Y-112707620D01*
X63640164Y-128325000D02*
X63640164Y-128390164D01*
X89850000Y-144750000D02*
X89850000Y-145775000D01*
X86911204Y-141811204D02*
X89850000Y-144750000D01*
X77061204Y-141811204D02*
X86911204Y-141811204D01*
X63640164Y-128390164D02*
X77061204Y-141811204D01*
X63640164Y-128325000D02*
X63640164Y-126627348D01*
X63640164Y-126627348D02*
X60592159Y-123579344D01*
X60592159Y-123579344D02*
X60592164Y-123579349D01*
X97460000Y-145843980D02*
X97460000Y-145102300D01*
X97460000Y-145102300D02*
X100588800Y-141973500D01*
X100588800Y-141973500D02*
X105191346Y-141973500D01*
X105191346Y-141973500D02*
X107070845Y-140094001D01*
X134454781Y-130919719D02*
X134454781Y-125954358D01*
X107070845Y-140094001D02*
X125280499Y-140094001D01*
X138227000Y-118097500D02*
X137909502Y-117780002D01*
X125280499Y-140094001D02*
X134454781Y-130919719D01*
X134454781Y-125954358D02*
X138227000Y-122182139D01*
X138227000Y-122182139D02*
X138227000Y-118097500D01*
X137909502Y-117780002D02*
X132893002Y-117780002D01*
X132893002Y-117780002D02*
X132893000Y-117780000D01*
X97460000Y-145783500D02*
X97460000Y-145843980D01*
X127876500Y-117780000D02*
X129146500Y-116510000D01*
X134810392Y-126101656D02*
X134810392Y-131161017D01*
X129146500Y-116510000D02*
X137719000Y-116510000D01*
X137719000Y-116510000D02*
X138608000Y-117399000D01*
X138608000Y-117399000D02*
X138608000Y-122304048D01*
X138608000Y-122304048D02*
X134810392Y-126101656D01*
X125521797Y-140449612D02*
X107218143Y-140449612D01*
X134810392Y-131161017D02*
X125521797Y-140449612D01*
X107218143Y-140449612D02*
X105338644Y-142329111D01*
X105338644Y-142329111D02*
X102247889Y-142329111D01*
X102247889Y-142329111D02*
X99110999Y-145466001D01*
X99110999Y-145466001D02*
X98730000Y-145847000D01*
X99974588Y-145910500D02*
X103200366Y-142684722D01*
X103200366Y-142684722D02*
X105485942Y-142684722D01*
X105485942Y-142684722D02*
X107365441Y-140805223D01*
X107365441Y-140805223D02*
X125669095Y-140805223D01*
X125669095Y-140805223D02*
X135166003Y-131308315D01*
X135166003Y-131308315D02*
X135166003Y-126248954D01*
X135166003Y-126248954D02*
X138963611Y-122451346D01*
X138963611Y-122451346D02*
X138963611Y-116515102D01*
X138963611Y-116515102D02*
X137688509Y-115240000D01*
X137688509Y-115240000D02*
X132893000Y-115240000D01*
X101270000Y-145910500D02*
X101270000Y-145371685D01*
X125816393Y-141160834D02*
X135521614Y-131455613D01*
X101270000Y-145371685D02*
X103601352Y-143040333D01*
X103601352Y-143040333D02*
X105633241Y-143040333D01*
X105633241Y-143040333D02*
X107512740Y-141160834D01*
X139319222Y-116367804D02*
X137480216Y-114528798D01*
X107512740Y-141160834D02*
X125816393Y-141160834D01*
X139319222Y-122598644D02*
X139319222Y-116367804D01*
X135521614Y-131455613D02*
X135521614Y-126396252D01*
X135521614Y-126396252D02*
X139319222Y-122598644D01*
X128651202Y-114528798D02*
X127940000Y-115240000D01*
X137480216Y-114528798D02*
X128651202Y-114528798D01*
X102540000Y-145843980D02*
X102540000Y-145102300D01*
X102540000Y-145102300D02*
X104246356Y-143395944D01*
X105780539Y-143395944D02*
X107635038Y-141541445D01*
X104246356Y-143395944D02*
X105780539Y-143395944D01*
X107635038Y-141541445D02*
X125938691Y-141541445D01*
X135877225Y-126543550D02*
X139674833Y-122745942D01*
X125938691Y-141541445D02*
X135877225Y-131602911D01*
X135877225Y-131602911D02*
X135877225Y-126543550D01*
X139674833Y-122745942D02*
X139674833Y-114020833D01*
X138354000Y-112700000D02*
X132893000Y-112700000D01*
X139674833Y-114020833D02*
X138354000Y-112700000D01*
X102819399Y-145440601D02*
X102438400Y-145821600D01*
X64483180Y-120327620D02*
X64483180Y-121529701D01*
X64483180Y-121529701D02*
X81653479Y-138700000D01*
X114625000Y-138925000D02*
X81878479Y-138925000D01*
X81878479Y-138925000D02*
X81653479Y-138700000D01*
X121716093Y-138658907D02*
X121475000Y-138900000D01*
X126158908Y-138658907D02*
X121716093Y-138658907D01*
X134099170Y-130718645D02*
X126158908Y-138658907D01*
X134099170Y-121653830D02*
X134099170Y-130718645D01*
X135433000Y-120320000D02*
X134099170Y-121653830D01*
X110200000Y-145803980D02*
X110160000Y-145843980D01*
X110200000Y-145803980D02*
X110200000Y-145800000D01*
X130400000Y-120300000D02*
X130404120Y-120300000D01*
X130404120Y-120300000D02*
X130429200Y-120325080D01*
X112700000Y-145843980D02*
X112700000Y-145800000D01*
X67000000Y-121700000D02*
X67000000Y-120300000D01*
X80975000Y-135675000D02*
X67000000Y-121700000D01*
X114200000Y-138250000D02*
X126064918Y-138250000D01*
X126064918Y-138250000D02*
X126682459Y-137632459D01*
X114200000Y-138250000D02*
X113400000Y-138250000D01*
X113400000Y-138250000D02*
X83550000Y-138250000D01*
X83550000Y-138250000D02*
X80975000Y-135675000D01*
X128639918Y-135675000D02*
X126682459Y-137632459D01*
X133743559Y-130562439D02*
X133743559Y-130571359D01*
X133324118Y-120320000D02*
X133743559Y-120739441D01*
X133743559Y-120739441D02*
X133743559Y-130562439D01*
X132893000Y-120320000D02*
X133324118Y-120320000D01*
X133743559Y-130571359D02*
X126682459Y-137632459D01*
X113970000Y-145843980D02*
X113975000Y-145848980D01*
X113975000Y-145850000D02*
X113975000Y-145848980D01*
M02*
