M48
;DRILL file {KiCad 4.0.7} date 03/15/18 15:44:54
;FORMAT={-:-/ absolute / inch / decimal}
FMAT,2
INCH,TZ
T1C0.015
T2C0.030
T3C0.050
T4C0.126
%
G90
G05
M72
T1
X2.0157Y-5.7008
X2.0669Y-5.7008
X2.1181Y-5.7008
X2.1654Y-5.7008
X2.2165Y-5.7008
X2.2382Y-3.6142
X2.2677Y-5.7008
X2.2736Y-3.813
X2.2756Y-3.9154
X2.2845Y-3.112
X2.2845Y-3.1895
X2.2854Y-3.7106
X2.2992Y-3.5138
X2.3091Y-4.0157
X2.315Y-5.7008
X2.3386Y-4.1142
X2.3484Y-4.252
X2.3583Y-3.4154
X2.3595Y-3.112
X2.3595Y-3.187
X2.3661Y-5.7008
X2.378Y-4.3386
X2.4114Y-4.4272
X2.4134Y-5.6969
X2.437Y-3.3189
X2.4409Y-4.5433
X2.4646Y-5.7008
X2.4685Y-4.6437
X2.4764Y-3.2146
X2.5157Y-5.7047
X2.5374Y-3.439
X2.5374Y-4.437
X2.5387Y-3.2373
X2.5387Y-3.3373
X2.5387Y-3.5373
X2.5387Y-3.6373
X2.5387Y-3.7373
X2.5387Y-3.8373
X2.5387Y-3.9373
X2.5387Y-4.0373
X2.5387Y-4.1373
X2.5387Y-4.2373
X2.5387Y-4.3373
X2.5387Y-4.6373
X2.5387Y-4.7373
X2.5394Y-4.5374
X2.563Y-5.7008
X2.616Y-5.7025
X2.6378Y-4.7362
X2.6387Y-3.2373
X2.6387Y-3.3373
X2.6387Y-3.4373
X2.6387Y-3.5373
X2.6387Y-3.6373
X2.6387Y-3.7373
X2.6387Y-3.8373
X2.6387Y-3.9373
X2.6387Y-4.0373
X2.6387Y-4.1373
X2.6387Y-4.2373
X2.6387Y-4.3373
X2.6387Y-4.4373
X2.6387Y-4.5373
X2.6387Y-4.6373
X2.6654Y-5.6969
X2.716Y-5.7025
X2.7397Y-3.1373
X2.7397Y-3.2373
X2.7397Y-3.3373
X2.7397Y-3.4373
X2.7397Y-3.5373
X2.7397Y-3.8373
X2.7397Y-3.9373
X2.7397Y-4.0373
X2.7397Y-4.1373
X2.7397Y-4.3373
X2.7397Y-4.4373
X2.7397Y-4.5373
X2.7397Y-4.6373
X2.7397Y-4.7373
X2.7402Y-3.6378
X2.7402Y-3.7382
X2.7402Y-4.2382
X2.766Y-5.7025
X2.816Y-5.7025
X2.8395Y-3.137
X2.8397Y-4.7373
X2.866Y-5.7025
X2.916Y-5.7025
X2.966Y-5.7025
X3.3386Y-5.7008
X3.3898Y-5.7008
X3.437Y-5.7008
X3.4882Y-5.7008
X3.5394Y-5.7047
X3.5866Y-5.7047
X3.6378Y-5.7047
X3.689Y-5.7047
X3.7362Y-5.7047
X3.7874Y-5.7008
X3.837Y-5.7025
X3.887Y-5.7025
X3.937Y-5.7025
X3.987Y-5.7025
X4.037Y-5.7025
X4.087Y-5.7025
X4.137Y-5.7025
X4.187Y-5.7025
X4.237Y-5.7025
X4.287Y-5.7025
X4.337Y-5.7025
X4.437Y-5.7025
X4.487Y-5.7025
X4.5079Y-5.3976
X4.5512Y-5.4016
X4.8331Y-5.4075
X4.8858Y-5.4173
X4.908Y-5.7025
X4.958Y-5.7025
X5.008Y-5.7025
X5.0345Y-4.237
X5.035Y-3.1372
X5.035Y-3.3372
X5.0351Y-3.7372
X5.0351Y-4.6372
X5.0351Y-3.6372
X5.0351Y-3.8372
X5.0351Y-4.0372
X5.0351Y-4.3372
X5.0351Y-4.4372
X5.0351Y-4.5372
X5.0351Y-3.9372
X5.0351Y-4.1372
X5.0351Y-4.7372
X5.0352Y-3.4386
X5.0352Y-3.5386
X5.0354Y-3.2364
X5.058Y-5.7025
X5.108Y-5.7025
X5.135Y-4.7372
X5.1575Y-5.7047
X5.208Y-5.7025
X5.2326Y-3.3368
X5.2327Y-3.8368
X5.2327Y-4.5368
X5.2327Y-3.2368
X5.2327Y-3.4368
X5.2327Y-3.5368
X5.2327Y-3.6368
X5.2327Y-3.7368
X5.2327Y-3.9368
X5.2327Y-4.0368
X5.2327Y-4.1368
X5.2327Y-4.2368
X5.2327Y-4.3368
X5.2327Y-4.4368
X5.2327Y-4.6368
X5.2327Y-4.7368
X5.258Y-5.7025
X5.3071Y-5.7047
X5.3327Y-4.7368
X5.3583Y-5.7008
X5.3875Y-3.51
X5.3875Y-3.71
X5.3875Y-3.81
X5.3875Y-3.91
X5.3875Y-4.01
X5.3875Y-4.11
X5.3875Y-4.21
X5.3875Y-4.31
X5.3875Y-4.41
X5.3875Y-4.51
X5.3875Y-4.61
X5.39Y-3.41
X5.39Y-3.6125
X5.3925Y-3.3125
X5.4Y-3.21
X5.408Y-5.7025
X5.458Y-5.7025
X5.508Y-5.7025
X5.5118Y-3.189
X5.5138Y-3.1102
X5.558Y-5.7025
X5.5886Y-3.1102
X5.5906Y-3.189
X5.608Y-5.7025
X5.658Y-5.7025
X5.708Y-5.7025
X5.758Y-5.7025
X5.808Y-5.7025
X5.858Y-5.7025
T2
X2.5387Y-3.1373
X2.5387Y-3.2373
X2.5387Y-3.3373
X2.5387Y-3.4373
X2.5387Y-3.5373
X2.5387Y-3.6373
X2.5387Y-3.7373
X2.5387Y-3.8373
X2.5387Y-3.9373
X2.5387Y-4.0373
X2.5387Y-4.1373
X2.5387Y-4.2373
X2.5387Y-4.3373
X2.5387Y-4.4373
X2.5387Y-4.5373
X2.5387Y-4.6373
X2.5387Y-4.7373
X2.6387Y-3.1373
X2.6387Y-3.2373
X2.6387Y-3.3373
X2.6387Y-3.4373
X2.6387Y-3.5373
X2.6387Y-3.6373
X2.6387Y-3.7373
X2.6387Y-3.8373
X2.6387Y-3.9373
X2.6387Y-4.0373
X2.6387Y-4.1373
X2.6387Y-4.2373
X2.6387Y-4.3373
X2.6387Y-4.4373
X2.6387Y-4.5373
X2.6387Y-4.6373
X2.6387Y-4.7373
X2.7397Y-3.1373
X2.7397Y-3.2373
X2.7397Y-3.3373
X2.7397Y-3.4373
X2.7397Y-3.5373
X2.7397Y-3.6373
X2.7397Y-3.7373
X2.7397Y-3.8373
X2.7397Y-3.9373
X2.7397Y-4.0373
X2.7397Y-4.1373
X2.7397Y-4.2373
X2.7397Y-4.3373
X2.7397Y-4.4373
X2.7397Y-4.5373
X2.7397Y-4.6373
X2.7397Y-4.7373
X2.8397Y-3.1373
X2.8397Y-3.2373
X2.8397Y-3.3373
X2.8397Y-3.4373
X2.8397Y-3.5373
X2.8397Y-3.6373
X2.8397Y-3.7373
X2.8397Y-3.8373
X2.8397Y-3.9373
X2.8397Y-4.0373
X2.8397Y-4.1373
X2.8397Y-4.2373
X2.8397Y-4.3373
X2.8397Y-4.4373
X2.8397Y-4.5373
X2.8397Y-4.6373
X2.8397Y-4.7373
X5.035Y-3.1372
X5.035Y-3.2372
X5.035Y-3.3372
X5.035Y-3.4372
X5.035Y-3.5372
X5.035Y-3.6372
X5.035Y-3.7372
X5.035Y-3.8372
X5.035Y-3.9372
X5.035Y-4.0372
X5.035Y-4.1372
X5.035Y-4.2372
X5.035Y-4.3372
X5.035Y-4.4372
X5.035Y-4.5372
X5.035Y-4.6372
X5.035Y-4.7372
X5.135Y-3.1372
X5.135Y-3.2372
X5.135Y-3.3372
X5.135Y-3.4372
X5.135Y-3.5372
X5.135Y-3.6372
X5.135Y-3.7372
X5.135Y-3.8372
X5.135Y-3.9372
X5.135Y-4.0372
X5.135Y-4.1372
X5.135Y-4.2372
X5.135Y-4.3372
X5.135Y-4.4372
X5.135Y-4.5372
X5.135Y-4.6372
X5.135Y-4.7372
X5.2326Y-3.1368
X5.2326Y-3.2368
X5.2326Y-3.3368
X5.2326Y-3.4368
X5.2326Y-3.5368
X5.2326Y-3.6368
X5.2326Y-3.7368
X5.2326Y-3.8368
X5.2326Y-3.9368
X5.2326Y-4.0368
X5.2326Y-4.1368
X5.2326Y-4.2368
X5.2326Y-4.3368
X5.2326Y-4.4368
X5.2326Y-4.5368
X5.2326Y-4.6368
X5.2326Y-4.7368
X5.3326Y-3.1368
X5.3326Y-3.2368
X5.3326Y-3.3368
X5.3326Y-3.4368
X5.3326Y-3.5368
X5.3326Y-3.6368
X5.3326Y-3.7368
X5.3326Y-3.8368
X5.3326Y-3.9368
X5.3326Y-4.0368
X5.3326Y-4.1368
X5.3326Y-4.2368
X5.3326Y-4.3368
X5.3326Y-4.4368
X5.3326Y-4.5368
X5.3326Y-4.6368
X5.3326Y-4.7368
T3
X1.9535Y-5.6488
X3.0285Y-5.6488
X3.2745Y-5.6488
X4.5995Y-5.6488
X4.8455Y-5.6488
X5.9205Y-5.6488
T4
X2.0079Y-3.189
X2.0079Y-5.1969
X5.8661Y-3.189
X5.8661Y-5.1969
T0
M30
