M48
;DRILL file {KiCad 4.0.6} date 06/26/19 12:45:06
;FORMAT={-:-/ absolute / inch / decimal}
FMAT,2
INCH,TZ
T1C0.015
T2C0.022
T3C0.030
T4C0.126
%
G90
G05
M72
T1
X2.0204Y-5.6096
X2.0479Y-5.582
X2.0755Y-5.5544
X2.103Y-5.5269
X2.1306Y-5.4993
X2.1621Y-5.4718
X2.1897Y-5.4442
X2.2212Y-5.4166
X2.2382Y-3.6142
X2.2487Y-5.3891
X2.2736Y-3.813
X2.2756Y-3.9154
X2.2845Y-3.112
X2.2845Y-3.1895
X2.2854Y-3.7106
X2.2992Y-3.5138
X2.3091Y-4.0157
X2.3386Y-4.1142
X2.3583Y-3.4154
X2.3595Y-3.112
X2.3595Y-3.187
X2.3898Y-4.2126
X2.4114Y-4.4272
X2.4213Y-4.315
X2.437Y-3.3189
X2.4409Y-4.5433
X2.4685Y-4.6437
X2.4764Y-3.2146
X2.5374Y-3.439
X2.5374Y-4.437
X2.5387Y-3.2373
X2.5387Y-3.3373
X2.5387Y-3.5373
X2.5387Y-3.6373
X2.5387Y-3.7373
X2.5387Y-3.8373
X2.5387Y-3.9373
X2.5387Y-4.0373
X2.5387Y-4.1373
X2.5387Y-4.2373
X2.5387Y-4.3373
X2.5387Y-4.6373
X2.5387Y-4.7373
X2.5394Y-4.5374
X2.6378Y-4.7362
X2.6387Y-3.2373
X2.6387Y-3.3373
X2.6387Y-3.4373
X2.6387Y-3.5373
X2.6387Y-3.6373
X2.6387Y-3.7373
X2.6387Y-3.8373
X2.6387Y-3.9373
X2.6387Y-4.0373
X2.6387Y-4.1373
X2.6387Y-4.3373
X2.6387Y-4.4373
X2.6387Y-4.5373
X2.6387Y-4.6373
X2.6739Y-5.3536
X2.7093Y-5.3694
X2.7397Y-3.1373
X2.7397Y-3.2373
X2.7397Y-3.3373
X2.7397Y-3.4373
X2.7397Y-3.5373
X2.7397Y-3.8373
X2.7397Y-3.9373
X2.7397Y-4.0373
X2.7397Y-4.1373
X2.7397Y-4.3373
X2.7397Y-4.4373
X2.7397Y-4.5373
X2.7397Y-4.6373
X2.7397Y-4.7373
X2.7402Y-3.6378
X2.7402Y-3.7382
X2.7402Y-4.2382
X2.7448Y-5.3851
X2.7723Y-5.4127
X2.7999Y-5.4403
X2.8275Y-5.4678
X2.8395Y-3.137
X2.8397Y-4.7373
X2.855Y-5.4954
X2.8826Y-5.5229
X2.9101Y-5.5505
X2.9377Y-5.5781
X2.9653Y-5.6096
X3.1811Y-5.3976
X3.2008Y-5.5079
X3.2283Y-5.5354
X3.2362Y-5.4961
X3.2559Y-5.563
X3.2638Y-5.5236
X3.2835Y-5.5906
X3.2913Y-5.5512
X3.311Y-5.6181
X3.3189Y-5.5787
X3.8511Y-5.4284
X3.8786Y-5.2513
X3.8826Y-5.204
X3.8865Y-5.4403
X4.3432Y-5.3694
X4.4062Y-5.4048
X4.4338Y-5.5033
X4.4613Y-5.5308
X4.4928Y-5.5584
X4.5243Y-5.5859
X4.5282Y-5.3418
X4.5519Y-5.6135
X4.5834Y-5.4757
X4.6109Y-5.4481
X4.6385Y-5.4206
X4.666Y-5.393
X4.6975Y-5.3694
X4.6975Y-5.704
X4.7251Y-5.3379
X4.7369Y-5.704
X4.7802Y-5.708
X4.918Y-5.6096
X4.9456Y-5.582
X4.9731Y-5.5544
X5.0007Y-5.5269
X5.0282Y-5.4993
X5.0345Y-4.237
X5.035Y-3.1372
X5.035Y-3.3372
X5.0351Y-3.7372
X5.0351Y-4.6372
X5.0351Y-3.6372
X5.0351Y-3.8372
X5.0351Y-4.0372
X5.0351Y-4.3372
X5.0351Y-4.4372
X5.0351Y-3.9372
X5.0351Y-4.1372
X5.0351Y-4.7372
X5.0352Y-3.4386
X5.0352Y-3.5386
X5.0354Y-3.2364
X5.0558Y-5.4718
X5.0834Y-5.4442
X5.1109Y-5.4166
X5.135Y-4.7372
X5.1385Y-5.3891
X5.166Y-5.3615
X5.2326Y-3.3368
X5.2327Y-3.8368
X5.2327Y-4.5368
X5.2327Y-3.2368
X5.2327Y-3.4368
X5.2327Y-3.5368
X5.2327Y-3.6368
X5.2327Y-3.7368
X5.2327Y-3.9368
X5.2327Y-4.0368
X5.2327Y-4.1368
X5.2327Y-4.2368
X5.2327Y-4.3368
X5.2327Y-4.4368
X5.2327Y-4.6368
X5.2327Y-4.7368
X5.3327Y-4.7368
X5.3875Y-3.51
X5.3875Y-3.71
X5.3875Y-3.81
X5.3875Y-3.91
X5.3875Y-4.01
X5.3875Y-4.11
X5.3875Y-4.21
X5.3875Y-4.31
X5.3875Y-4.41
X5.3875Y-4.51
X5.3875Y-4.61
X5.39Y-3.41
X5.39Y-3.6125
X5.3925Y-3.3125
X5.4Y-3.21
X5.5118Y-3.189
X5.5138Y-3.1102
X5.5886Y-3.1102
X5.5906Y-3.189
X5.603Y-5.3615
X5.6306Y-5.3891
X5.6582Y-5.4166
X5.6857Y-5.4442
X5.7133Y-5.4718
X5.7408Y-5.4993
X5.7684Y-5.5269
X5.796Y-5.5544
X5.8275Y-5.582
X5.855Y-5.6096
T2
X2.0171Y-5.6509
X2.0171Y-5.7009
X2.0671Y-5.6509
X2.0671Y-5.7009
X2.1171Y-5.6509
X2.1171Y-5.7009
X2.1671Y-5.6509
X2.1671Y-5.7009
X2.2171Y-5.6509
X2.2171Y-5.7009
X2.2671Y-5.6509
X2.2671Y-5.7009
X2.3171Y-5.6509
X2.3171Y-5.7009
X2.3671Y-5.6509
X2.3671Y-5.7009
X2.4171Y-5.6509
X2.4171Y-5.7009
X2.4671Y-5.6509
X2.4671Y-5.7009
X2.5171Y-5.6509
X2.5171Y-5.7009
X2.5671Y-5.6509
X2.5671Y-5.7009
X2.6171Y-5.6509
X2.6171Y-5.7009
X2.6671Y-5.6509
X2.6671Y-5.7009
X2.7171Y-5.6509
X2.7171Y-5.7009
X2.7671Y-5.6509
X2.7671Y-5.7009
X2.8171Y-5.6509
X2.8171Y-5.7009
X2.8671Y-5.6509
X2.8671Y-5.7009
X2.9171Y-5.6509
X2.9171Y-5.7009
X2.9671Y-5.6509
X2.9671Y-5.7009
X3.337Y-5.6509
X3.337Y-5.7009
X3.387Y-5.6509
X3.387Y-5.7009
X3.437Y-5.6509
X3.437Y-5.7009
X3.487Y-5.6509
X3.487Y-5.7009
X3.537Y-5.6509
X3.537Y-5.7009
X3.587Y-5.6509
X3.587Y-5.7009
X3.637Y-5.6509
X3.637Y-5.7009
X3.687Y-5.6509
X3.687Y-5.7009
X3.737Y-5.6509
X3.737Y-5.7009
X3.787Y-5.6509
X3.787Y-5.7009
X3.837Y-5.6509
X3.837Y-5.7009
X3.887Y-5.6509
X3.887Y-5.7009
X3.937Y-5.6509
X3.937Y-5.7009
X3.987Y-5.6509
X3.987Y-5.7009
X4.037Y-5.6509
X4.037Y-5.7009
X4.087Y-5.6509
X4.087Y-5.7009
X4.137Y-5.6509
X4.137Y-5.7009
X4.187Y-5.6509
X4.187Y-5.7009
X4.237Y-5.6509
X4.237Y-5.7009
X4.287Y-5.6509
X4.287Y-5.7009
X4.337Y-5.6509
X4.337Y-5.7009
X4.387Y-5.6509
X4.387Y-5.7009
X4.437Y-5.6509
X4.437Y-5.7009
X4.487Y-5.6509
X4.487Y-5.7009
X4.537Y-5.6509
X4.537Y-5.7009
X4.9069Y-5.6509
X4.9069Y-5.7009
X4.9569Y-5.6509
X4.9569Y-5.7009
X5.0069Y-5.6509
X5.0069Y-5.7009
X5.0569Y-5.6509
X5.0569Y-5.7009
X5.1069Y-5.6509
X5.1069Y-5.7009
X5.1569Y-5.6509
X5.1569Y-5.7009
X5.2069Y-5.6509
X5.2069Y-5.7009
X5.2569Y-5.6509
X5.2569Y-5.7009
X5.3069Y-5.6509
X5.3069Y-5.7009
X5.3569Y-5.6509
X5.3569Y-5.7009
X5.4069Y-5.6509
X5.4069Y-5.7009
X5.4569Y-5.6509
X5.4569Y-5.7009
X5.5069Y-5.6509
X5.5069Y-5.7009
X5.5569Y-5.6509
X5.5569Y-5.7009
X5.6069Y-5.6509
X5.6069Y-5.7009
X5.6569Y-5.6509
X5.6569Y-5.7009
X5.7069Y-5.6509
X5.7069Y-5.7009
X5.7569Y-5.6509
X5.7569Y-5.7009
X5.8069Y-5.6509
X5.8069Y-5.7009
X5.8569Y-5.6509
X5.8569Y-5.7009
T3
X2.5387Y-3.1373
X2.5387Y-3.2373
X2.5387Y-3.3373
X2.5387Y-3.4373
X2.5387Y-3.5373
X2.5387Y-3.6373
X2.5387Y-3.7373
X2.5387Y-3.8373
X2.5387Y-3.9373
X2.5387Y-4.0373
X2.5387Y-4.1373
X2.5387Y-4.2373
X2.5387Y-4.3373
X2.5387Y-4.4373
X2.5387Y-4.5373
X2.5387Y-4.6373
X2.5387Y-4.7373
X2.6387Y-3.1373
X2.6387Y-3.2373
X2.6387Y-3.3373
X2.6387Y-3.4373
X2.6387Y-3.5373
X2.6387Y-3.6373
X2.6387Y-3.7373
X2.6387Y-3.8373
X2.6387Y-3.9373
X2.6387Y-4.0373
X2.6387Y-4.1373
X2.6387Y-4.2373
X2.6387Y-4.3373
X2.6387Y-4.4373
X2.6387Y-4.5373
X2.6387Y-4.6373
X2.6387Y-4.7373
X2.7397Y-3.1373
X2.7397Y-3.2373
X2.7397Y-3.3373
X2.7397Y-3.4373
X2.7397Y-3.5373
X2.7397Y-3.6373
X2.7397Y-3.7373
X2.7397Y-3.8373
X2.7397Y-3.9373
X2.7397Y-4.0373
X2.7397Y-4.1373
X2.7397Y-4.2373
X2.7397Y-4.3373
X2.7397Y-4.4373
X2.7397Y-4.5373
X2.7397Y-4.6373
X2.7397Y-4.7373
X2.8397Y-3.1373
X2.8397Y-3.2373
X2.8397Y-3.3373
X2.8397Y-3.4373
X2.8397Y-3.5373
X2.8397Y-3.6373
X2.8397Y-3.7373
X2.8397Y-3.8373
X2.8397Y-3.9373
X2.8397Y-4.0373
X2.8397Y-4.1373
X2.8397Y-4.2373
X2.8397Y-4.3373
X2.8397Y-4.4373
X2.8397Y-4.5373
X2.8397Y-4.6373
X2.8397Y-4.7373
X5.035Y-3.1372
X5.035Y-3.2372
X5.035Y-3.3372
X5.035Y-3.4372
X5.035Y-3.5372
X5.035Y-3.6372
X5.035Y-3.7372
X5.035Y-3.8372
X5.035Y-3.9372
X5.035Y-4.0372
X5.035Y-4.1372
X5.035Y-4.2372
X5.035Y-4.3372
X5.035Y-4.4372
X5.035Y-4.5372
X5.035Y-4.6372
X5.035Y-4.7372
X5.135Y-3.1372
X5.135Y-3.2372
X5.135Y-3.3372
X5.135Y-3.4372
X5.135Y-3.5372
X5.135Y-3.6372
X5.135Y-3.7372
X5.135Y-3.8372
X5.135Y-3.9372
X5.135Y-4.0372
X5.135Y-4.1372
X5.135Y-4.2372
X5.135Y-4.3372
X5.135Y-4.4372
X5.135Y-4.5372
X5.135Y-4.6372
X5.135Y-4.7372
X5.2326Y-3.1368
X5.2326Y-3.2368
X5.2326Y-3.3368
X5.2326Y-3.4368
X5.2326Y-3.5368
X5.2326Y-3.6368
X5.2326Y-3.7368
X5.2326Y-3.8368
X5.2326Y-3.9368
X5.2326Y-4.0368
X5.2326Y-4.1368
X5.2326Y-4.2368
X5.2326Y-4.3368
X5.2326Y-4.4368
X5.2326Y-4.5368
X5.2326Y-4.6368
X5.2326Y-4.7368
X5.3326Y-3.1368
X5.3326Y-3.2368
X5.3326Y-3.3368
X5.3326Y-3.4368
X5.3326Y-3.5368
X5.3326Y-3.6368
X5.3326Y-3.7368
X5.3326Y-3.8368
X5.3326Y-3.9368
X5.3326Y-4.0368
X5.3326Y-4.1368
X5.3326Y-4.2368
X5.3326Y-4.3368
X5.3326Y-4.4368
X5.3326Y-4.5368
X5.3326Y-4.6368
X5.3326Y-4.7368
T4
X2.0079Y-3.189
X2.0079Y-5.1969
X5.8661Y-3.189
X5.8661Y-5.1969
T0
M30
