G04 #@! TF.FileFunction,Legend,Top*
%FSLAX46Y46*%
G04 Gerber Fmt 4.6, Leading zero omitted, Abs format (unit mm)*
G04 Created by KiCad (PCBNEW 4.0.1-stable) date 2017-04-25 11:00:09 AM*
%MOMM*%
G01*
G04 APERTURE LIST*
%ADD10C,0.150000*%
%ADD11C,0.101600*%
%ADD12C,0.200000*%
%ADD13C,0.127000*%
%ADD14C,0.120000*%
%ADD15C,0.010000*%
G04 APERTURE END LIST*
D10*
D11*
X125501428Y-117417905D02*
X125349047Y-117417905D01*
X125272857Y-117456000D01*
X125234762Y-117494095D01*
X125158571Y-117608381D01*
X125120476Y-117760762D01*
X125120476Y-118065524D01*
X125158571Y-118141714D01*
X125196666Y-118179810D01*
X125272857Y-118217905D01*
X125425238Y-118217905D01*
X125501428Y-118179810D01*
X125539524Y-118141714D01*
X125577619Y-118065524D01*
X125577619Y-117875048D01*
X125539524Y-117798857D01*
X125501428Y-117760762D01*
X125425238Y-117722667D01*
X125272857Y-117722667D01*
X125196666Y-117760762D01*
X125158571Y-117798857D01*
X125120476Y-117875048D01*
X125844286Y-117417905D02*
X126339524Y-117417905D01*
X126072857Y-117722667D01*
X126187143Y-117722667D01*
X126263333Y-117760762D01*
X126301429Y-117798857D01*
X126339524Y-117875048D01*
X126339524Y-118065524D01*
X126301429Y-118141714D01*
X126263333Y-118179810D01*
X126187143Y-118217905D01*
X125958571Y-118217905D01*
X125882381Y-118179810D01*
X125844286Y-118141714D01*
X137693428Y-117417905D02*
X137541047Y-117417905D01*
X137464857Y-117456000D01*
X137426762Y-117494095D01*
X137350571Y-117608381D01*
X137312476Y-117760762D01*
X137312476Y-118065524D01*
X137350571Y-118141714D01*
X137388666Y-118179810D01*
X137464857Y-118217905D01*
X137617238Y-118217905D01*
X137693428Y-118179810D01*
X137731524Y-118141714D01*
X137769619Y-118065524D01*
X137769619Y-117875048D01*
X137731524Y-117798857D01*
X137693428Y-117760762D01*
X137617238Y-117722667D01*
X137464857Y-117722667D01*
X137388666Y-117760762D01*
X137350571Y-117798857D01*
X137312476Y-117875048D01*
X138264857Y-117417905D02*
X138341048Y-117417905D01*
X138417238Y-117456000D01*
X138455333Y-117494095D01*
X138493429Y-117570286D01*
X138531524Y-117722667D01*
X138531524Y-117913143D01*
X138493429Y-118065524D01*
X138455333Y-118141714D01*
X138417238Y-118179810D01*
X138341048Y-118217905D01*
X138264857Y-118217905D01*
X138188667Y-118179810D01*
X138150571Y-118141714D01*
X138112476Y-118065524D01*
X138074381Y-117913143D01*
X138074381Y-117722667D01*
X138112476Y-117570286D01*
X138150571Y-117494095D01*
X138188667Y-117456000D01*
X138264857Y-117417905D01*
X137709333Y-82612667D02*
X137309333Y-82612667D01*
X137509333Y-82612667D02*
X137509333Y-81912667D01*
X137442667Y-82012667D01*
X137376000Y-82079333D01*
X137309333Y-82112667D01*
X138376000Y-82612667D02*
X137976000Y-82612667D01*
X138176000Y-82612667D02*
X138176000Y-81912667D01*
X138109334Y-82012667D01*
X138042667Y-82079333D01*
X137976000Y-82112667D01*
X138976001Y-81912667D02*
X138842667Y-81912667D01*
X138776001Y-81946000D01*
X138742667Y-81979333D01*
X138676001Y-82079333D01*
X138642667Y-82212667D01*
X138642667Y-82479333D01*
X138676001Y-82546000D01*
X138709334Y-82579333D01*
X138776001Y-82612667D01*
X138909334Y-82612667D01*
X138976001Y-82579333D01*
X139009334Y-82546000D01*
X139042667Y-82479333D01*
X139042667Y-82312667D01*
X139009334Y-82246000D01*
X138976001Y-82212667D01*
X138909334Y-82179333D01*
X138776001Y-82179333D01*
X138709334Y-82212667D01*
X138676001Y-82246000D01*
X138642667Y-82312667D01*
X125009333Y-82612667D02*
X124609333Y-82612667D01*
X124809333Y-82612667D02*
X124809333Y-81912667D01*
X124742667Y-82012667D01*
X124676000Y-82079333D01*
X124609333Y-82112667D01*
X125676000Y-82612667D02*
X125276000Y-82612667D01*
X125476000Y-82612667D02*
X125476000Y-81912667D01*
X125409334Y-82012667D01*
X125342667Y-82079333D01*
X125276000Y-82112667D01*
X126009334Y-82612667D02*
X126142667Y-82612667D01*
X126209334Y-82579333D01*
X126242667Y-82546000D01*
X126309334Y-82446000D01*
X126342667Y-82312667D01*
X126342667Y-82046000D01*
X126309334Y-81979333D01*
X126276001Y-81946000D01*
X126209334Y-81912667D01*
X126076001Y-81912667D01*
X126009334Y-81946000D01*
X125976001Y-81979333D01*
X125942667Y-82046000D01*
X125942667Y-82212667D01*
X125976001Y-82279333D01*
X126009334Y-82312667D01*
X126076001Y-82346000D01*
X126209334Y-82346000D01*
X126276001Y-82312667D01*
X126309334Y-82279333D01*
X126342667Y-82212667D01*
X74221905Y-81821905D02*
X74298096Y-81821905D01*
X74374286Y-81860000D01*
X74412381Y-81898095D01*
X74450477Y-81974286D01*
X74488572Y-82126667D01*
X74488572Y-82317143D01*
X74450477Y-82469524D01*
X74412381Y-82545714D01*
X74374286Y-82583810D01*
X74298096Y-82621905D01*
X74221905Y-82621905D01*
X74145715Y-82583810D01*
X74107619Y-82545714D01*
X74069524Y-82469524D01*
X74031429Y-82317143D01*
X74031429Y-82126667D01*
X74069524Y-81974286D01*
X74107619Y-81898095D01*
X74145715Y-81860000D01*
X74221905Y-81821905D01*
X61969524Y-117331905D02*
X61588571Y-117331905D01*
X61550476Y-117712857D01*
X61588571Y-117674762D01*
X61664762Y-117636667D01*
X61855238Y-117636667D01*
X61931428Y-117674762D01*
X61969524Y-117712857D01*
X62007619Y-117789048D01*
X62007619Y-117979524D01*
X61969524Y-118055714D01*
X61931428Y-118093810D01*
X61855238Y-118131905D01*
X61664762Y-118131905D01*
X61588571Y-118093810D01*
X61550476Y-118055714D01*
X62388571Y-118131905D02*
X62540952Y-118131905D01*
X62617143Y-118093810D01*
X62655238Y-118055714D01*
X62731429Y-117941429D01*
X62769524Y-117789048D01*
X62769524Y-117484286D01*
X62731429Y-117408095D01*
X62693333Y-117370000D01*
X62617143Y-117331905D01*
X62464762Y-117331905D01*
X62388571Y-117370000D01*
X62350476Y-117408095D01*
X62312381Y-117484286D01*
X62312381Y-117674762D01*
X62350476Y-117750952D01*
X62388571Y-117789048D01*
X62464762Y-117827143D01*
X62617143Y-117827143D01*
X62693333Y-117789048D01*
X62731429Y-117750952D01*
X62769524Y-117674762D01*
X74239524Y-117331905D02*
X73858571Y-117331905D01*
X73820476Y-117712857D01*
X73858571Y-117674762D01*
X73934762Y-117636667D01*
X74125238Y-117636667D01*
X74201428Y-117674762D01*
X74239524Y-117712857D01*
X74277619Y-117789048D01*
X74277619Y-117979524D01*
X74239524Y-118055714D01*
X74201428Y-118093810D01*
X74125238Y-118131905D01*
X73934762Y-118131905D01*
X73858571Y-118093810D01*
X73820476Y-118055714D01*
X74963333Y-117331905D02*
X74810952Y-117331905D01*
X74734762Y-117370000D01*
X74696667Y-117408095D01*
X74620476Y-117522381D01*
X74582381Y-117674762D01*
X74582381Y-117979524D01*
X74620476Y-118055714D01*
X74658571Y-118093810D01*
X74734762Y-118131905D01*
X74887143Y-118131905D01*
X74963333Y-118093810D01*
X75001429Y-118055714D01*
X75039524Y-117979524D01*
X75039524Y-117789048D01*
X75001429Y-117712857D01*
X74963333Y-117674762D01*
X74887143Y-117636667D01*
X74734762Y-117636667D01*
X74658571Y-117674762D01*
X74620476Y-117712857D01*
X74582381Y-117789048D01*
X128064286Y-122640000D02*
X128092857Y-122668571D01*
X128121429Y-122754285D01*
X128121429Y-122811428D01*
X128092857Y-122897143D01*
X128035714Y-122954285D01*
X127978571Y-122982857D01*
X127864286Y-123011428D01*
X127778571Y-123011428D01*
X127664286Y-122982857D01*
X127607143Y-122954285D01*
X127550000Y-122897143D01*
X127521429Y-122811428D01*
X127521429Y-122754285D01*
X127550000Y-122668571D01*
X127578571Y-122640000D01*
X128092857Y-122411428D02*
X128121429Y-122325714D01*
X128121429Y-122182857D01*
X128092857Y-122125714D01*
X128064286Y-122097143D01*
X128007143Y-122068571D01*
X127950000Y-122068571D01*
X127892857Y-122097143D01*
X127864286Y-122125714D01*
X127835714Y-122182857D01*
X127807143Y-122297143D01*
X127778571Y-122354285D01*
X127750000Y-122382857D01*
X127692857Y-122411428D01*
X127635714Y-122411428D01*
X127578571Y-122382857D01*
X127550000Y-122354285D01*
X127521429Y-122297143D01*
X127521429Y-122154285D01*
X127550000Y-122068571D01*
X130140000Y-123247142D02*
X130111429Y-123304285D01*
X130111429Y-123389999D01*
X130140000Y-123475714D01*
X130197143Y-123532856D01*
X130254286Y-123561428D01*
X130368571Y-123589999D01*
X130454286Y-123589999D01*
X130568571Y-123561428D01*
X130625714Y-123532856D01*
X130682857Y-123475714D01*
X130711429Y-123389999D01*
X130711429Y-123332856D01*
X130682857Y-123247142D01*
X130654286Y-123218571D01*
X130454286Y-123218571D01*
X130454286Y-123332856D01*
X130711429Y-122961428D02*
X130111429Y-122961428D01*
X130711429Y-122618571D01*
X130111429Y-122618571D01*
X130711429Y-122332857D02*
X130111429Y-122332857D01*
X130111429Y-122190000D01*
X130140000Y-122104285D01*
X130197143Y-122047143D01*
X130254286Y-122018571D01*
X130368571Y-121990000D01*
X130454286Y-121990000D01*
X130568571Y-122018571D01*
X130625714Y-122047143D01*
X130682857Y-122104285D01*
X130711429Y-122190000D01*
X130711429Y-122332857D01*
X133191429Y-124522857D02*
X132591429Y-124522857D01*
X132877143Y-124522857D02*
X132877143Y-124180000D01*
X133191429Y-124180000D02*
X132591429Y-124180000D01*
X132591429Y-123980000D02*
X133191429Y-123780000D01*
X132591429Y-123580000D01*
X133248571Y-123522857D02*
X133248571Y-123065714D01*
X132591429Y-122808571D02*
X132591429Y-122694285D01*
X132620000Y-122637143D01*
X132677143Y-122580000D01*
X132791429Y-122551428D01*
X132991429Y-122551428D01*
X133105714Y-122580000D01*
X133162857Y-122637143D01*
X133191429Y-122694285D01*
X133191429Y-122808571D01*
X133162857Y-122865714D01*
X133105714Y-122922857D01*
X132991429Y-122951428D01*
X132791429Y-122951428D01*
X132677143Y-122922857D01*
X132620000Y-122865714D01*
X132591429Y-122808571D01*
X132877143Y-122294286D02*
X132877143Y-122094286D01*
X133191429Y-122008572D02*
X133191429Y-122294286D01*
X132591429Y-122294286D01*
X132591429Y-122008572D01*
X135201429Y-123195715D02*
X135801429Y-122795715D01*
X135201429Y-122795715D02*
X135801429Y-123195715D01*
X135258571Y-122595714D02*
X135230000Y-122567143D01*
X135201429Y-122510000D01*
X135201429Y-122367143D01*
X135230000Y-122310000D01*
X135258571Y-122281429D01*
X135315714Y-122252857D01*
X135372857Y-122252857D01*
X135458571Y-122281429D01*
X135801429Y-122624286D01*
X135801429Y-122252857D01*
X135211429Y-77885715D02*
X135811429Y-77485715D01*
X135211429Y-77485715D02*
X135811429Y-77885715D01*
X135268571Y-77285714D02*
X135240000Y-77257143D01*
X135211429Y-77200000D01*
X135211429Y-77057143D01*
X135240000Y-77000000D01*
X135268571Y-76971429D01*
X135325714Y-76942857D01*
X135382857Y-76942857D01*
X135468571Y-76971429D01*
X135811429Y-77314286D01*
X135811429Y-76942857D01*
X133261429Y-77912857D02*
X132661429Y-77912857D01*
X132947143Y-77912857D02*
X132947143Y-77570000D01*
X133261429Y-77570000D02*
X132661429Y-77570000D01*
X132661429Y-77370000D02*
X133261429Y-77170000D01*
X132661429Y-76970000D01*
X133318571Y-76912857D02*
X133318571Y-76455714D01*
X132661429Y-76198571D02*
X132661429Y-76084285D01*
X132690000Y-76027143D01*
X132747143Y-75970000D01*
X132861429Y-75941428D01*
X133061429Y-75941428D01*
X133175714Y-75970000D01*
X133232857Y-76027143D01*
X133261429Y-76084285D01*
X133261429Y-76198571D01*
X133232857Y-76255714D01*
X133175714Y-76312857D01*
X133061429Y-76341428D01*
X132861429Y-76341428D01*
X132747143Y-76312857D01*
X132690000Y-76255714D01*
X132661429Y-76198571D01*
X132947143Y-75684286D02*
X132947143Y-75484286D01*
X133261429Y-75398572D02*
X133261429Y-75684286D01*
X132661429Y-75684286D01*
X132661429Y-75398572D01*
X130220000Y-77567142D02*
X130191429Y-77624285D01*
X130191429Y-77709999D01*
X130220000Y-77795714D01*
X130277143Y-77852856D01*
X130334286Y-77881428D01*
X130448571Y-77909999D01*
X130534286Y-77909999D01*
X130648571Y-77881428D01*
X130705714Y-77852856D01*
X130762857Y-77795714D01*
X130791429Y-77709999D01*
X130791429Y-77652856D01*
X130762857Y-77567142D01*
X130734286Y-77538571D01*
X130534286Y-77538571D01*
X130534286Y-77652856D01*
X130791429Y-77281428D02*
X130191429Y-77281428D01*
X130791429Y-76938571D01*
X130191429Y-76938571D01*
X130791429Y-76652857D02*
X130191429Y-76652857D01*
X130191429Y-76510000D01*
X130220000Y-76424285D01*
X130277143Y-76367143D01*
X130334286Y-76338571D01*
X130448571Y-76310000D01*
X130534286Y-76310000D01*
X130648571Y-76338571D01*
X130705714Y-76367143D01*
X130762857Y-76424285D01*
X130791429Y-76510000D01*
X130791429Y-76652857D01*
X128124286Y-77480000D02*
X128152857Y-77508571D01*
X128181429Y-77594285D01*
X128181429Y-77651428D01*
X128152857Y-77737143D01*
X128095714Y-77794285D01*
X128038571Y-77822857D01*
X127924286Y-77851428D01*
X127838571Y-77851428D01*
X127724286Y-77822857D01*
X127667143Y-77794285D01*
X127610000Y-77737143D01*
X127581429Y-77651428D01*
X127581429Y-77594285D01*
X127610000Y-77508571D01*
X127638571Y-77480000D01*
X128152857Y-77251428D02*
X128181429Y-77165714D01*
X128181429Y-77022857D01*
X128152857Y-76965714D01*
X128124286Y-76937143D01*
X128067143Y-76908571D01*
X128010000Y-76908571D01*
X127952857Y-76937143D01*
X127924286Y-76965714D01*
X127895714Y-77022857D01*
X127867143Y-77137143D01*
X127838571Y-77194285D01*
X127810000Y-77222857D01*
X127752857Y-77251428D01*
X127695714Y-77251428D01*
X127638571Y-77222857D01*
X127610000Y-77194285D01*
X127581429Y-77137143D01*
X127581429Y-76994285D01*
X127610000Y-76908571D01*
X72464286Y-122760000D02*
X72492857Y-122788571D01*
X72521429Y-122874285D01*
X72521429Y-122931428D01*
X72492857Y-123017143D01*
X72435714Y-123074285D01*
X72378571Y-123102857D01*
X72264286Y-123131428D01*
X72178571Y-123131428D01*
X72064286Y-123102857D01*
X72007143Y-123074285D01*
X71950000Y-123017143D01*
X71921429Y-122931428D01*
X71921429Y-122874285D01*
X71950000Y-122788571D01*
X71978571Y-122760000D01*
X72492857Y-122531428D02*
X72521429Y-122445714D01*
X72521429Y-122302857D01*
X72492857Y-122245714D01*
X72464286Y-122217143D01*
X72407143Y-122188571D01*
X72350000Y-122188571D01*
X72292857Y-122217143D01*
X72264286Y-122245714D01*
X72235714Y-122302857D01*
X72207143Y-122417143D01*
X72178571Y-122474285D01*
X72150000Y-122502857D01*
X72092857Y-122531428D01*
X72035714Y-122531428D01*
X71978571Y-122502857D01*
X71950000Y-122474285D01*
X71921429Y-122417143D01*
X71921429Y-122274285D01*
X71950000Y-122188571D01*
X64181429Y-122835715D02*
X64781429Y-122435715D01*
X64181429Y-122435715D02*
X64781429Y-122835715D01*
X64781429Y-121892857D02*
X64781429Y-122235714D01*
X64781429Y-122064286D02*
X64181429Y-122064286D01*
X64267143Y-122121429D01*
X64324286Y-122178571D01*
X64352857Y-122235714D01*
X67351429Y-124562857D02*
X66751429Y-124562857D01*
X67037143Y-124562857D02*
X67037143Y-124220000D01*
X67351429Y-124220000D02*
X66751429Y-124220000D01*
X66751429Y-124020000D02*
X67351429Y-123820000D01*
X66751429Y-123620000D01*
X67408571Y-123562857D02*
X67408571Y-123105714D01*
X66751429Y-122848571D02*
X66751429Y-122734285D01*
X66780000Y-122677143D01*
X66837143Y-122620000D01*
X66951429Y-122591428D01*
X67151429Y-122591428D01*
X67265714Y-122620000D01*
X67322857Y-122677143D01*
X67351429Y-122734285D01*
X67351429Y-122848571D01*
X67322857Y-122905714D01*
X67265714Y-122962857D01*
X67151429Y-122991428D01*
X66951429Y-122991428D01*
X66837143Y-122962857D01*
X66780000Y-122905714D01*
X66751429Y-122848571D01*
X67037143Y-122334286D02*
X67037143Y-122134286D01*
X67351429Y-122048572D02*
X67351429Y-122334286D01*
X66751429Y-122334286D01*
X66751429Y-122048572D01*
X69320000Y-123297142D02*
X69291429Y-123354285D01*
X69291429Y-123439999D01*
X69320000Y-123525714D01*
X69377143Y-123582856D01*
X69434286Y-123611428D01*
X69548571Y-123639999D01*
X69634286Y-123639999D01*
X69748571Y-123611428D01*
X69805714Y-123582856D01*
X69862857Y-123525714D01*
X69891429Y-123439999D01*
X69891429Y-123382856D01*
X69862857Y-123297142D01*
X69834286Y-123268571D01*
X69634286Y-123268571D01*
X69634286Y-123382856D01*
X69891429Y-123011428D02*
X69291429Y-123011428D01*
X69891429Y-122668571D01*
X69291429Y-122668571D01*
X69891429Y-122382857D02*
X69291429Y-122382857D01*
X69291429Y-122240000D01*
X69320000Y-122154285D01*
X69377143Y-122097143D01*
X69434286Y-122068571D01*
X69548571Y-122040000D01*
X69634286Y-122040000D01*
X69748571Y-122068571D01*
X69805714Y-122097143D01*
X69862857Y-122154285D01*
X69891429Y-122240000D01*
X69891429Y-122382857D01*
X72394286Y-77670000D02*
X72422857Y-77698571D01*
X72451429Y-77784285D01*
X72451429Y-77841428D01*
X72422857Y-77927143D01*
X72365714Y-77984285D01*
X72308571Y-78012857D01*
X72194286Y-78041428D01*
X72108571Y-78041428D01*
X71994286Y-78012857D01*
X71937143Y-77984285D01*
X71880000Y-77927143D01*
X71851429Y-77841428D01*
X71851429Y-77784285D01*
X71880000Y-77698571D01*
X71908571Y-77670000D01*
X72422857Y-77441428D02*
X72451429Y-77355714D01*
X72451429Y-77212857D01*
X72422857Y-77155714D01*
X72394286Y-77127143D01*
X72337143Y-77098571D01*
X72280000Y-77098571D01*
X72222857Y-77127143D01*
X72194286Y-77155714D01*
X72165714Y-77212857D01*
X72137143Y-77327143D01*
X72108571Y-77384285D01*
X72080000Y-77412857D01*
X72022857Y-77441428D01*
X71965714Y-77441428D01*
X71908571Y-77412857D01*
X71880000Y-77384285D01*
X71851429Y-77327143D01*
X71851429Y-77184285D01*
X71880000Y-77098571D01*
X69380000Y-77707142D02*
X69351429Y-77764285D01*
X69351429Y-77849999D01*
X69380000Y-77935714D01*
X69437143Y-77992856D01*
X69494286Y-78021428D01*
X69608571Y-78049999D01*
X69694286Y-78049999D01*
X69808571Y-78021428D01*
X69865714Y-77992856D01*
X69922857Y-77935714D01*
X69951429Y-77849999D01*
X69951429Y-77792856D01*
X69922857Y-77707142D01*
X69894286Y-77678571D01*
X69694286Y-77678571D01*
X69694286Y-77792856D01*
X69951429Y-77421428D02*
X69351429Y-77421428D01*
X69951429Y-77078571D01*
X69351429Y-77078571D01*
X69951429Y-76792857D02*
X69351429Y-76792857D01*
X69351429Y-76650000D01*
X69380000Y-76564285D01*
X69437143Y-76507143D01*
X69494286Y-76478571D01*
X69608571Y-76450000D01*
X69694286Y-76450000D01*
X69808571Y-76478571D01*
X69865714Y-76507143D01*
X69922857Y-76564285D01*
X69951429Y-76650000D01*
X69951429Y-76792857D01*
X67271429Y-78017857D02*
X66671429Y-78017857D01*
X66957143Y-78017857D02*
X66957143Y-77675000D01*
X67271429Y-77675000D02*
X66671429Y-77675000D01*
X66671429Y-77475000D02*
X67271429Y-77275000D01*
X66671429Y-77075000D01*
X67328571Y-77017857D02*
X67328571Y-76560714D01*
X66671429Y-76303571D02*
X66671429Y-76189285D01*
X66700000Y-76132143D01*
X66757143Y-76075000D01*
X66871429Y-76046428D01*
X67071429Y-76046428D01*
X67185714Y-76075000D01*
X67242857Y-76132143D01*
X67271429Y-76189285D01*
X67271429Y-76303571D01*
X67242857Y-76360714D01*
X67185714Y-76417857D01*
X67071429Y-76446428D01*
X66871429Y-76446428D01*
X66757143Y-76417857D01*
X66700000Y-76360714D01*
X66671429Y-76303571D01*
X66957143Y-75789286D02*
X66957143Y-75589286D01*
X67271429Y-75503572D02*
X67271429Y-75789286D01*
X66671429Y-75789286D01*
X66671429Y-75503572D01*
X64041429Y-78015715D02*
X64641429Y-77615715D01*
X64041429Y-77615715D02*
X64641429Y-78015715D01*
X64641429Y-77072857D02*
X64641429Y-77415714D01*
X64641429Y-77244286D02*
X64041429Y-77244286D01*
X64127143Y-77301429D01*
X64184286Y-77358571D01*
X64212857Y-77415714D01*
X62108334Y-81836905D02*
X62603572Y-81836905D01*
X62336905Y-82141667D01*
X62451191Y-82141667D01*
X62527381Y-82179762D01*
X62565477Y-82217857D01*
X62603572Y-82294048D01*
X62603572Y-82484524D01*
X62565477Y-82560714D01*
X62527381Y-82598810D01*
X62451191Y-82636905D01*
X62222619Y-82636905D01*
X62146429Y-82598810D01*
X62108334Y-82560714D01*
D12*
X105923809Y-132652381D02*
X105923809Y-131652381D01*
X106266666Y-132652381D02*
X106266666Y-132128571D01*
X106228571Y-132033333D01*
X106152381Y-131985714D01*
X106038095Y-131985714D01*
X105961904Y-132033333D01*
X105923809Y-132080952D01*
X106533333Y-131985714D02*
X106838095Y-131985714D01*
X106647619Y-131652381D02*
X106647619Y-132509524D01*
X106685714Y-132604762D01*
X106761905Y-132652381D01*
X106838095Y-132652381D01*
X106990476Y-131985714D02*
X107295238Y-131985714D01*
X107104762Y-131652381D02*
X107104762Y-132509524D01*
X107142857Y-132604762D01*
X107219048Y-132652381D01*
X107295238Y-132652381D01*
X107561905Y-131985714D02*
X107561905Y-132985714D01*
X107561905Y-132033333D02*
X107638096Y-131985714D01*
X107790477Y-131985714D01*
X107866667Y-132033333D01*
X107904762Y-132080952D01*
X107942858Y-132176190D01*
X107942858Y-132461905D01*
X107904762Y-132557143D01*
X107866667Y-132604762D01*
X107790477Y-132652381D01*
X107638096Y-132652381D01*
X107561905Y-132604762D01*
X108285715Y-132557143D02*
X108323810Y-132604762D01*
X108285715Y-132652381D01*
X108247620Y-132604762D01*
X108285715Y-132557143D01*
X108285715Y-132652381D01*
X108285715Y-132033333D02*
X108323810Y-132080952D01*
X108285715Y-132128571D01*
X108247620Y-132080952D01*
X108285715Y-132033333D01*
X108285715Y-132128571D01*
X109238096Y-131604762D02*
X108552381Y-132890476D01*
X110076191Y-131604762D02*
X109390476Y-132890476D01*
X110304762Y-132604762D02*
X110380952Y-132652381D01*
X110533333Y-132652381D01*
X110609524Y-132604762D01*
X110647619Y-132509524D01*
X110647619Y-132461905D01*
X110609524Y-132366667D01*
X110533333Y-132319048D01*
X110419048Y-132319048D01*
X110342857Y-132271429D01*
X110304762Y-132176190D01*
X110304762Y-132128571D01*
X110342857Y-132033333D01*
X110419048Y-131985714D01*
X110533333Y-131985714D01*
X110609524Y-132033333D01*
X111333333Y-132604762D02*
X111257143Y-132652381D01*
X111104762Y-132652381D01*
X111028571Y-132604762D01*
X110990476Y-132557143D01*
X110952381Y-132461905D01*
X110952381Y-132176190D01*
X110990476Y-132080952D01*
X111028571Y-132033333D01*
X111104762Y-131985714D01*
X111257143Y-131985714D01*
X111333333Y-132033333D01*
X111676190Y-132652381D02*
X111676190Y-131985714D01*
X111676190Y-131652381D02*
X111638095Y-131700000D01*
X111676190Y-131747619D01*
X111714285Y-131700000D01*
X111676190Y-131652381D01*
X111676190Y-131747619D01*
X112057142Y-132271429D02*
X112666666Y-132271429D01*
X113047618Y-132652381D02*
X113047618Y-131652381D01*
X113047618Y-132033333D02*
X113123809Y-131985714D01*
X113276190Y-131985714D01*
X113352380Y-132033333D01*
X113390475Y-132080952D01*
X113428571Y-132176190D01*
X113428571Y-132461905D01*
X113390475Y-132557143D01*
X113352380Y-132604762D01*
X113276190Y-132652381D01*
X113123809Y-132652381D01*
X113047618Y-132604762D01*
X113885714Y-132652381D02*
X113809523Y-132604762D01*
X113771428Y-132557143D01*
X113733333Y-132461905D01*
X113733333Y-132176190D01*
X113771428Y-132080952D01*
X113809523Y-132033333D01*
X113885714Y-131985714D01*
X114000000Y-131985714D01*
X114076190Y-132033333D01*
X114114285Y-132080952D01*
X114152381Y-132176190D01*
X114152381Y-132461905D01*
X114114285Y-132557143D01*
X114076190Y-132604762D01*
X114000000Y-132652381D01*
X113885714Y-132652381D01*
X114380952Y-131985714D02*
X114685714Y-131985714D01*
X114495238Y-131652381D02*
X114495238Y-132509524D01*
X114533333Y-132604762D01*
X114609524Y-132652381D01*
X114685714Y-132652381D01*
X114914286Y-132604762D02*
X114990476Y-132652381D01*
X115142857Y-132652381D01*
X115219048Y-132604762D01*
X115257143Y-132509524D01*
X115257143Y-132461905D01*
X115219048Y-132366667D01*
X115142857Y-132319048D01*
X115028572Y-132319048D01*
X114952381Y-132271429D01*
X114914286Y-132176190D01*
X114914286Y-132128571D01*
X114952381Y-132033333D01*
X115028572Y-131985714D01*
X115142857Y-131985714D01*
X115219048Y-132033333D01*
X115600000Y-132557143D02*
X115638095Y-132604762D01*
X115600000Y-132652381D01*
X115561905Y-132604762D01*
X115600000Y-132557143D01*
X115600000Y-132652381D01*
X116323809Y-132604762D02*
X116247619Y-132652381D01*
X116095238Y-132652381D01*
X116019047Y-132604762D01*
X115980952Y-132557143D01*
X115942857Y-132461905D01*
X115942857Y-132176190D01*
X115980952Y-132080952D01*
X116019047Y-132033333D01*
X116095238Y-131985714D01*
X116247619Y-131985714D01*
X116323809Y-132033333D01*
X116780952Y-132652381D02*
X116704761Y-132604762D01*
X116666666Y-132557143D01*
X116628571Y-132461905D01*
X116628571Y-132176190D01*
X116666666Y-132080952D01*
X116704761Y-132033333D01*
X116780952Y-131985714D01*
X116895238Y-131985714D01*
X116971428Y-132033333D01*
X117009523Y-132080952D01*
X117047619Y-132176190D01*
X117047619Y-132461905D01*
X117009523Y-132557143D01*
X116971428Y-132604762D01*
X116895238Y-132652381D01*
X116780952Y-132652381D01*
X117390476Y-132652381D02*
X117390476Y-131985714D01*
X117390476Y-132080952D02*
X117428571Y-132033333D01*
X117504762Y-131985714D01*
X117619048Y-131985714D01*
X117695238Y-132033333D01*
X117733333Y-132128571D01*
X117733333Y-132652381D01*
X117733333Y-132128571D02*
X117771429Y-132033333D01*
X117847619Y-131985714D01*
X117961905Y-131985714D01*
X118038095Y-132033333D01*
X118076190Y-132128571D01*
X118076190Y-132652381D01*
X106019048Y-134204762D02*
X106133334Y-134252381D01*
X106323810Y-134252381D01*
X106400000Y-134204762D01*
X106438096Y-134157143D01*
X106476191Y-134061905D01*
X106476191Y-133966667D01*
X106438096Y-133871429D01*
X106400000Y-133823810D01*
X106323810Y-133776190D01*
X106171429Y-133728571D01*
X106095238Y-133680952D01*
X106057143Y-133633333D01*
X106019048Y-133538095D01*
X106019048Y-133442857D01*
X106057143Y-133347619D01*
X106095238Y-133300000D01*
X106171429Y-133252381D01*
X106361905Y-133252381D01*
X106476191Y-133300000D01*
X107161905Y-134204762D02*
X107085715Y-134252381D01*
X106933334Y-134252381D01*
X106857143Y-134204762D01*
X106819048Y-134157143D01*
X106780953Y-134061905D01*
X106780953Y-133776190D01*
X106819048Y-133680952D01*
X106857143Y-133633333D01*
X106933334Y-133585714D01*
X107085715Y-133585714D01*
X107161905Y-133633333D01*
X107504762Y-134252381D02*
X107504762Y-133585714D01*
X107504762Y-133252381D02*
X107466667Y-133300000D01*
X107504762Y-133347619D01*
X107542857Y-133300000D01*
X107504762Y-133252381D01*
X107504762Y-133347619D01*
X107885714Y-133871429D02*
X108495238Y-133871429D01*
X109142857Y-133728571D02*
X109257143Y-133776190D01*
X109295238Y-133823810D01*
X109333333Y-133919048D01*
X109333333Y-134061905D01*
X109295238Y-134157143D01*
X109257143Y-134204762D01*
X109180952Y-134252381D01*
X108876190Y-134252381D01*
X108876190Y-133252381D01*
X109142857Y-133252381D01*
X109219047Y-133300000D01*
X109257143Y-133347619D01*
X109295238Y-133442857D01*
X109295238Y-133538095D01*
X109257143Y-133633333D01*
X109219047Y-133680952D01*
X109142857Y-133728571D01*
X108876190Y-133728571D01*
X109790476Y-134252381D02*
X109714285Y-134204762D01*
X109676190Y-134157143D01*
X109638095Y-134061905D01*
X109638095Y-133776190D01*
X109676190Y-133680952D01*
X109714285Y-133633333D01*
X109790476Y-133585714D01*
X109904762Y-133585714D01*
X109980952Y-133633333D01*
X110019047Y-133680952D01*
X110057143Y-133776190D01*
X110057143Y-134061905D01*
X110019047Y-134157143D01*
X109980952Y-134204762D01*
X109904762Y-134252381D01*
X109790476Y-134252381D01*
X110285714Y-133585714D02*
X110590476Y-133585714D01*
X110400000Y-133252381D02*
X110400000Y-134109524D01*
X110438095Y-134204762D01*
X110514286Y-134252381D01*
X110590476Y-134252381D01*
X110819048Y-134204762D02*
X110895238Y-134252381D01*
X111047619Y-134252381D01*
X111123810Y-134204762D01*
X111161905Y-134109524D01*
X111161905Y-134061905D01*
X111123810Y-133966667D01*
X111047619Y-133919048D01*
X110933334Y-133919048D01*
X110857143Y-133871429D01*
X110819048Y-133776190D01*
X110819048Y-133728571D01*
X110857143Y-133633333D01*
X110933334Y-133585714D01*
X111047619Y-133585714D01*
X111123810Y-133633333D01*
X112114286Y-134252381D02*
X112114286Y-133252381D01*
X112495238Y-133585714D02*
X112495238Y-134252381D01*
X112495238Y-133680952D02*
X112533333Y-133633333D01*
X112609524Y-133585714D01*
X112723810Y-133585714D01*
X112800000Y-133633333D01*
X112838095Y-133728571D01*
X112838095Y-134252381D01*
X113561905Y-134204762D02*
X113485715Y-134252381D01*
X113333334Y-134252381D01*
X113257143Y-134204762D01*
X113219048Y-134157143D01*
X113180953Y-134061905D01*
X113180953Y-133776190D01*
X113219048Y-133680952D01*
X113257143Y-133633333D01*
X113333334Y-133585714D01*
X113485715Y-133585714D01*
X113561905Y-133633333D01*
X113904762Y-134157143D02*
X113942857Y-134204762D01*
X113904762Y-134252381D01*
X113866667Y-134204762D01*
X113904762Y-134157143D01*
X113904762Y-134252381D01*
X114323809Y-134204762D02*
X114323809Y-134252381D01*
X114285714Y-134347619D01*
X114247619Y-134395238D01*
X115238095Y-133347619D02*
X115276190Y-133300000D01*
X115352381Y-133252381D01*
X115542857Y-133252381D01*
X115619047Y-133300000D01*
X115657143Y-133347619D01*
X115695238Y-133442857D01*
X115695238Y-133538095D01*
X115657143Y-133680952D01*
X115200000Y-134252381D01*
X115695238Y-134252381D01*
X116190476Y-133252381D02*
X116266667Y-133252381D01*
X116342857Y-133300000D01*
X116380952Y-133347619D01*
X116419048Y-133442857D01*
X116457143Y-133633333D01*
X116457143Y-133871429D01*
X116419048Y-134061905D01*
X116380952Y-134157143D01*
X116342857Y-134204762D01*
X116266667Y-134252381D01*
X116190476Y-134252381D01*
X116114286Y-134204762D01*
X116076190Y-134157143D01*
X116038095Y-134061905D01*
X116000000Y-133871429D01*
X116000000Y-133633333D01*
X116038095Y-133442857D01*
X116076190Y-133347619D01*
X116114286Y-133300000D01*
X116190476Y-133252381D01*
X117219048Y-134252381D02*
X116761905Y-134252381D01*
X116990476Y-134252381D02*
X116990476Y-133252381D01*
X116914286Y-133395238D01*
X116838095Y-133490476D01*
X116761905Y-133538095D01*
X117485715Y-133252381D02*
X118019048Y-133252381D01*
X117676191Y-134252381D01*
X83190476Y-135652381D02*
X83190476Y-134652381D01*
X83380952Y-134652381D01*
X83495238Y-134700000D01*
X83571429Y-134795238D01*
X83609524Y-134890476D01*
X83647619Y-135080952D01*
X83647619Y-135223810D01*
X83609524Y-135414286D01*
X83571429Y-135509524D01*
X83495238Y-135604762D01*
X83380952Y-135652381D01*
X83190476Y-135652381D01*
X83990476Y-135652381D02*
X83990476Y-134985714D01*
X83990476Y-135176190D02*
X84028571Y-135080952D01*
X84066667Y-135033333D01*
X84142857Y-134985714D01*
X84219048Y-134985714D01*
X84600000Y-135652381D02*
X84523809Y-135604762D01*
X84485714Y-135557143D01*
X84447619Y-135461905D01*
X84447619Y-135176190D01*
X84485714Y-135080952D01*
X84523809Y-135033333D01*
X84600000Y-134985714D01*
X84714286Y-134985714D01*
X84790476Y-135033333D01*
X84828571Y-135080952D01*
X84866667Y-135176190D01*
X84866667Y-135461905D01*
X84828571Y-135557143D01*
X84790476Y-135604762D01*
X84714286Y-135652381D01*
X84600000Y-135652381D01*
X85209524Y-134985714D02*
X85209524Y-135985714D01*
X85209524Y-135033333D02*
X85285715Y-134985714D01*
X85438096Y-134985714D01*
X85514286Y-135033333D01*
X85552381Y-135080952D01*
X85590477Y-135176190D01*
X85590477Y-135461905D01*
X85552381Y-135557143D01*
X85514286Y-135604762D01*
X85438096Y-135652381D01*
X85285715Y-135652381D01*
X85209524Y-135604762D01*
X86200001Y-135128571D02*
X86314287Y-135176190D01*
X86352382Y-135223810D01*
X86390477Y-135319048D01*
X86390477Y-135461905D01*
X86352382Y-135557143D01*
X86314287Y-135604762D01*
X86238096Y-135652381D01*
X85933334Y-135652381D01*
X85933334Y-134652381D01*
X86200001Y-134652381D01*
X86276191Y-134700000D01*
X86314287Y-134747619D01*
X86352382Y-134842857D01*
X86352382Y-134938095D01*
X86314287Y-135033333D01*
X86276191Y-135080952D01*
X86200001Y-135128571D01*
X85933334Y-135128571D01*
X86847620Y-135652381D02*
X86771429Y-135604762D01*
X86733334Y-135557143D01*
X86695239Y-135461905D01*
X86695239Y-135176190D01*
X86733334Y-135080952D01*
X86771429Y-135033333D01*
X86847620Y-134985714D01*
X86961906Y-134985714D01*
X87038096Y-135033333D01*
X87076191Y-135080952D01*
X87114287Y-135176190D01*
X87114287Y-135461905D01*
X87076191Y-135557143D01*
X87038096Y-135604762D01*
X86961906Y-135652381D01*
X86847620Y-135652381D01*
X87342858Y-134985714D02*
X87647620Y-134985714D01*
X87457144Y-134652381D02*
X87457144Y-135509524D01*
X87495239Y-135604762D01*
X87571430Y-135652381D01*
X87647620Y-135652381D01*
X83609524Y-137252381D02*
X83152381Y-137252381D01*
X83380952Y-137252381D02*
X83380952Y-136252381D01*
X83304762Y-136395238D01*
X83228571Y-136490476D01*
X83152381Y-136538095D01*
X83914286Y-136347619D02*
X83952381Y-136300000D01*
X84028572Y-136252381D01*
X84219048Y-136252381D01*
X84295238Y-136300000D01*
X84333334Y-136347619D01*
X84371429Y-136442857D01*
X84371429Y-136538095D01*
X84333334Y-136680952D01*
X83876191Y-137252381D01*
X84371429Y-137252381D01*
X84866667Y-136252381D02*
X84942858Y-136252381D01*
X85019048Y-136300000D01*
X85057143Y-136347619D01*
X85095239Y-136442857D01*
X85133334Y-136633333D01*
X85133334Y-136871429D01*
X85095239Y-137061905D01*
X85057143Y-137157143D01*
X85019048Y-137204762D01*
X84942858Y-137252381D01*
X84866667Y-137252381D01*
X84790477Y-137204762D01*
X84752381Y-137157143D01*
X84714286Y-137061905D01*
X84676191Y-136871429D01*
X84676191Y-136633333D01*
X84714286Y-136442857D01*
X84752381Y-136347619D01*
X84790477Y-136300000D01*
X84866667Y-136252381D01*
X85476191Y-136871429D02*
X86085715Y-136871429D01*
X86809524Y-137204762D02*
X86733334Y-137252381D01*
X86580953Y-137252381D01*
X86504762Y-137204762D01*
X86466667Y-137157143D01*
X86428572Y-137061905D01*
X86428572Y-136776190D01*
X86466667Y-136680952D01*
X86504762Y-136633333D01*
X86580953Y-136585714D01*
X86733334Y-136585714D01*
X86809524Y-136633333D01*
X87152381Y-137252381D02*
X87152381Y-136252381D01*
X87495238Y-137252381D02*
X87495238Y-136728571D01*
X87457143Y-136633333D01*
X87380953Y-136585714D01*
X87266667Y-136585714D01*
X87190476Y-136633333D01*
X87152381Y-136680952D01*
X88219048Y-137252381D02*
X88219048Y-136728571D01*
X88180953Y-136633333D01*
X88104763Y-136585714D01*
X87952382Y-136585714D01*
X87876191Y-136633333D01*
X88219048Y-137204762D02*
X88142858Y-137252381D01*
X87952382Y-137252381D01*
X87876191Y-137204762D01*
X87838096Y-137109524D01*
X87838096Y-137014286D01*
X87876191Y-136919048D01*
X87952382Y-136871429D01*
X88142858Y-136871429D01*
X88219048Y-136823810D01*
X88600001Y-136585714D02*
X88600001Y-137252381D01*
X88600001Y-136680952D02*
X88638096Y-136633333D01*
X88714287Y-136585714D01*
X88828573Y-136585714D01*
X88904763Y-136633333D01*
X88942858Y-136728571D01*
X88942858Y-137252381D01*
X89323811Y-136585714D02*
X89323811Y-137252381D01*
X89323811Y-136680952D02*
X89361906Y-136633333D01*
X89438097Y-136585714D01*
X89552383Y-136585714D01*
X89628573Y-136633333D01*
X89666668Y-136728571D01*
X89666668Y-137252381D01*
X90352383Y-137204762D02*
X90276193Y-137252381D01*
X90123812Y-137252381D01*
X90047621Y-137204762D01*
X90009526Y-137109524D01*
X90009526Y-136728571D01*
X90047621Y-136633333D01*
X90123812Y-136585714D01*
X90276193Y-136585714D01*
X90352383Y-136633333D01*
X90390478Y-136728571D01*
X90390478Y-136823810D01*
X90009526Y-136919048D01*
X90847621Y-137252381D02*
X90771430Y-137204762D01*
X90733335Y-137109524D01*
X90733335Y-136252381D01*
X91761907Y-136585714D02*
X91761907Y-137585714D01*
X91761907Y-136633333D02*
X91838098Y-136585714D01*
X91990479Y-136585714D01*
X92066669Y-136633333D01*
X92104764Y-136680952D01*
X92142860Y-136776190D01*
X92142860Y-137061905D01*
X92104764Y-137157143D01*
X92066669Y-137204762D01*
X91990479Y-137252381D01*
X91838098Y-137252381D01*
X91761907Y-137204762D01*
X92600003Y-137252381D02*
X92523812Y-137204762D01*
X92485717Y-137157143D01*
X92447622Y-137061905D01*
X92447622Y-136776190D01*
X92485717Y-136680952D01*
X92523812Y-136633333D01*
X92600003Y-136585714D01*
X92714289Y-136585714D01*
X92790479Y-136633333D01*
X92828574Y-136680952D01*
X92866670Y-136776190D01*
X92866670Y-137061905D01*
X92828574Y-137157143D01*
X92790479Y-137204762D01*
X92714289Y-137252381D01*
X92600003Y-137252381D01*
X93552384Y-136585714D02*
X93552384Y-137395238D01*
X93514289Y-137490476D01*
X93476194Y-137538095D01*
X93400003Y-137585714D01*
X93285718Y-137585714D01*
X93209527Y-137538095D01*
X93552384Y-137204762D02*
X93476194Y-137252381D01*
X93323813Y-137252381D01*
X93247622Y-137204762D01*
X93209527Y-137157143D01*
X93171432Y-137061905D01*
X93171432Y-136776190D01*
X93209527Y-136680952D01*
X93247622Y-136633333D01*
X93323813Y-136585714D01*
X93476194Y-136585714D01*
X93552384Y-136633333D01*
X94047623Y-137252381D02*
X93971432Y-137204762D01*
X93933337Y-137157143D01*
X93895242Y-137061905D01*
X93895242Y-136776190D01*
X93933337Y-136680952D01*
X93971432Y-136633333D01*
X94047623Y-136585714D01*
X94161909Y-136585714D01*
X94238099Y-136633333D01*
X94276194Y-136680952D01*
X94314290Y-136776190D01*
X94314290Y-137061905D01*
X94276194Y-137157143D01*
X94238099Y-137204762D01*
X94161909Y-137252381D01*
X94047623Y-137252381D01*
X94657147Y-136871429D02*
X95266671Y-136871429D01*
X95647623Y-136585714D02*
X95647623Y-137585714D01*
X95647623Y-136633333D02*
X95723814Y-136585714D01*
X95876195Y-136585714D01*
X95952385Y-136633333D01*
X95990480Y-136680952D01*
X96028576Y-136776190D01*
X96028576Y-137061905D01*
X95990480Y-137157143D01*
X95952385Y-137204762D01*
X95876195Y-137252381D01*
X95723814Y-137252381D01*
X95647623Y-137204762D01*
X96371433Y-137252381D02*
X96371433Y-136585714D01*
X96371433Y-136252381D02*
X96333338Y-136300000D01*
X96371433Y-136347619D01*
X96409528Y-136300000D01*
X96371433Y-136252381D01*
X96371433Y-136347619D01*
X96752385Y-136585714D02*
X96752385Y-137252381D01*
X96752385Y-136680952D02*
X96790480Y-136633333D01*
X96866671Y-136585714D01*
X96980957Y-136585714D01*
X97057147Y-136633333D01*
X97095242Y-136728571D01*
X97095242Y-137252381D01*
X98085719Y-137252381D02*
X98085719Y-136252381D01*
X98085719Y-136633333D02*
X98161910Y-136585714D01*
X98314291Y-136585714D01*
X98390481Y-136633333D01*
X98428576Y-136680952D01*
X98466672Y-136776190D01*
X98466672Y-137061905D01*
X98428576Y-137157143D01*
X98390481Y-137204762D01*
X98314291Y-137252381D01*
X98161910Y-137252381D01*
X98085719Y-137204762D01*
X98923815Y-137252381D02*
X98847624Y-137204762D01*
X98809529Y-137157143D01*
X98771434Y-137061905D01*
X98771434Y-136776190D01*
X98809529Y-136680952D01*
X98847624Y-136633333D01*
X98923815Y-136585714D01*
X99038101Y-136585714D01*
X99114291Y-136633333D01*
X99152386Y-136680952D01*
X99190482Y-136776190D01*
X99190482Y-137061905D01*
X99152386Y-137157143D01*
X99114291Y-137204762D01*
X99038101Y-137252381D01*
X98923815Y-137252381D01*
X99876196Y-137252381D02*
X99876196Y-136728571D01*
X99838101Y-136633333D01*
X99761911Y-136585714D01*
X99609530Y-136585714D01*
X99533339Y-136633333D01*
X99876196Y-137204762D02*
X99800006Y-137252381D01*
X99609530Y-137252381D01*
X99533339Y-137204762D01*
X99495244Y-137109524D01*
X99495244Y-137014286D01*
X99533339Y-136919048D01*
X99609530Y-136871429D01*
X99800006Y-136871429D01*
X99876196Y-136823810D01*
X100257149Y-137252381D02*
X100257149Y-136585714D01*
X100257149Y-136776190D02*
X100295244Y-136680952D01*
X100333340Y-136633333D01*
X100409530Y-136585714D01*
X100485721Y-136585714D01*
X101095244Y-137252381D02*
X101095244Y-136252381D01*
X101095244Y-137204762D02*
X101019054Y-137252381D01*
X100866673Y-137252381D01*
X100790482Y-137204762D01*
X100752387Y-137157143D01*
X100714292Y-137061905D01*
X100714292Y-136776190D01*
X100752387Y-136680952D01*
X100790482Y-136633333D01*
X100866673Y-136585714D01*
X101019054Y-136585714D01*
X101095244Y-136633333D01*
X102009531Y-136585714D02*
X102200007Y-137252381D01*
X102390483Y-136585714D01*
X102619055Y-136252381D02*
X103114293Y-136252381D01*
X102847626Y-136633333D01*
X102961912Y-136633333D01*
X103038102Y-136680952D01*
X103076198Y-136728571D01*
X103114293Y-136823810D01*
X103114293Y-137061905D01*
X103076198Y-137157143D01*
X103038102Y-137204762D01*
X102961912Y-137252381D01*
X102733340Y-137252381D01*
X102657150Y-137204762D01*
X102619055Y-137157143D01*
X103457150Y-137157143D02*
X103495245Y-137204762D01*
X103457150Y-137252381D01*
X103419055Y-137204762D01*
X103457150Y-137157143D01*
X103457150Y-137252381D01*
X103800007Y-136347619D02*
X103838102Y-136300000D01*
X103914293Y-136252381D01*
X104104769Y-136252381D01*
X104180959Y-136300000D01*
X104219055Y-136347619D01*
X104257150Y-136442857D01*
X104257150Y-136538095D01*
X104219055Y-136680952D01*
X103761912Y-137252381D01*
X104257150Y-137252381D01*
D13*
X49619100Y-145191200D02*
X49619100Y-143768800D01*
X48907900Y-144480000D02*
X50330300Y-144480000D01*
X50121994Y-144480000D02*
G75*
G03X50121994Y-144480000I-502894J0D01*
G01*
X48097640Y-145623000D02*
X48097640Y-143337000D01*
X49873100Y-145623000D02*
X48097640Y-145623000D01*
X49873100Y-147337500D02*
X49873100Y-145623000D01*
X50381100Y-142448000D02*
X50381100Y-141622500D01*
X49873100Y-142448000D02*
X50381100Y-142448000D01*
X49873100Y-143337000D02*
X49873100Y-142448000D01*
X48097640Y-143337000D02*
X49873100Y-143337000D01*
X50381100Y-141622500D02*
X76670100Y-141622500D01*
X76670100Y-141622500D02*
X76670100Y-143337000D01*
X76670100Y-143337000D02*
X78445560Y-143337000D01*
X78445560Y-143337000D02*
X78445560Y-145623000D01*
X78445560Y-145623000D02*
X76670100Y-145623000D01*
X76670100Y-145623000D02*
X76670100Y-147337500D01*
X76670100Y-147337500D02*
X49873100Y-147337500D01*
X77426994Y-144480000D02*
G75*
G03X77426994Y-144480000I-502894J0D01*
G01*
X76212900Y-144480000D02*
X77635300Y-144480000D01*
X76924100Y-145191200D02*
X76924100Y-143768800D01*
D14*
X63093180Y-80957620D02*
X63093180Y-121717620D01*
X63093180Y-121717620D02*
X68413180Y-121717620D01*
X68413180Y-121717620D02*
X68413180Y-78297620D01*
X68413180Y-78297620D02*
X65753180Y-78297620D01*
X65753180Y-78297620D02*
X65753180Y-80957620D01*
X65753180Y-80957620D02*
X63093180Y-80957620D01*
X63093180Y-79687620D02*
X63093180Y-78297620D01*
X63093180Y-78297620D02*
X64483180Y-78297620D01*
X68198580Y-80957620D02*
X68198580Y-121717620D01*
X68198580Y-121717620D02*
X73518580Y-121717620D01*
X73518580Y-121717620D02*
X73518580Y-78297620D01*
X73518580Y-78297620D02*
X70858580Y-78297620D01*
X70858580Y-78297620D02*
X70858580Y-80957620D01*
X70858580Y-80957620D02*
X68198580Y-80957620D01*
X68198580Y-79687620D02*
X68198580Y-78297620D01*
X68198580Y-78297620D02*
X69588580Y-78297620D01*
X136838240Y-119044920D02*
X136838240Y-78284920D01*
X136838240Y-78284920D02*
X131518240Y-78284920D01*
X131518240Y-78284920D02*
X131518240Y-121704920D01*
X131518240Y-121704920D02*
X134178240Y-121704920D01*
X134178240Y-121704920D02*
X134178240Y-119044920D01*
X134178240Y-119044920D02*
X136838240Y-119044920D01*
X136838240Y-120314920D02*
X136838240Y-121704920D01*
X136838240Y-121704920D02*
X135448240Y-121704920D01*
X131819200Y-119055080D02*
X131819200Y-78295080D01*
X131819200Y-78295080D02*
X126499200Y-78295080D01*
X126499200Y-78295080D02*
X126499200Y-121715080D01*
X126499200Y-121715080D02*
X129159200Y-121715080D01*
X129159200Y-121715080D02*
X129159200Y-119055080D01*
X129159200Y-119055080D02*
X131819200Y-119055080D01*
X131819200Y-120325080D02*
X131819200Y-121715080D01*
X131819200Y-121715080D02*
X130429200Y-121715080D01*
X141500000Y-80150000D02*
X140500000Y-80150000D01*
X140500000Y-81850000D02*
X141500000Y-81850000D01*
X58500000Y-81850000D02*
X59500000Y-81850000D01*
X59500000Y-80150000D02*
X58500000Y-80150000D01*
X141600000Y-79880000D02*
X140400000Y-79880000D01*
X140400000Y-78120000D02*
X141600000Y-78120000D01*
X58400000Y-78120000D02*
X59600000Y-78120000D01*
X59600000Y-79880000D02*
X58400000Y-79880000D01*
X119230000Y-136750000D02*
X119230000Y-137950000D01*
X117470000Y-137950000D02*
X117470000Y-136750000D01*
X122330000Y-135790000D02*
X120570000Y-135790000D01*
X120570000Y-138860000D02*
X123000000Y-138860000D01*
D15*
G36*
X78937162Y-134873430D02*
X78938990Y-134876248D01*
X78980771Y-134921927D01*
X78995751Y-134933009D01*
X79010309Y-134949766D01*
X78978054Y-134955352D01*
X78973350Y-134955411D01*
X78928030Y-134942195D01*
X78916588Y-134898650D01*
X78921416Y-134862508D01*
X78937162Y-134873430D01*
X78937162Y-134873430D01*
G37*
X78937162Y-134873430D02*
X78938990Y-134876248D01*
X78980771Y-134921927D01*
X78995751Y-134933009D01*
X79010309Y-134949766D01*
X78978054Y-134955352D01*
X78973350Y-134955411D01*
X78928030Y-134942195D01*
X78916588Y-134898650D01*
X78921416Y-134862508D01*
X78937162Y-134873430D01*
G36*
X99108752Y-134893945D02*
X99108811Y-134898650D01*
X99095595Y-134943969D01*
X99052050Y-134955411D01*
X99015908Y-134950583D01*
X99026830Y-134934837D01*
X99029648Y-134933009D01*
X99075327Y-134891228D01*
X99086409Y-134876248D01*
X99103166Y-134861690D01*
X99108752Y-134893945D01*
X99108752Y-134893945D01*
G37*
X99108752Y-134893945D02*
X99108811Y-134898650D01*
X99095595Y-134943969D01*
X99052050Y-134955411D01*
X99015908Y-134950583D01*
X99026830Y-134934837D01*
X99029648Y-134933009D01*
X99075327Y-134891228D01*
X99086409Y-134876248D01*
X99103166Y-134861690D01*
X99108752Y-134893945D01*
G36*
X80357960Y-131330288D02*
X80580775Y-131552071D01*
X80681937Y-131451081D01*
X80755379Y-131389534D01*
X80829580Y-131345754D01*
X80863750Y-131334050D01*
X80911260Y-131329512D01*
X80954190Y-131341995D01*
X81006012Y-131378253D01*
X81074514Y-131439716D01*
X81204628Y-131561423D01*
X81426351Y-131340728D01*
X81648073Y-131120033D01*
X81924701Y-131400141D01*
X81481525Y-131845379D01*
X81550872Y-131914727D01*
X81620220Y-131984074D01*
X82065458Y-131540898D01*
X82345566Y-131817526D01*
X81901806Y-132263352D01*
X81971127Y-132332672D01*
X82040447Y-132401993D01*
X82486273Y-131958233D01*
X82618936Y-132092565D01*
X82683185Y-132160653D01*
X82730306Y-132216368D01*
X82751267Y-132248923D01*
X82751600Y-132250968D01*
X82734649Y-132277483D01*
X82688570Y-132331521D01*
X82620527Y-132405058D01*
X82542862Y-132484866D01*
X82334125Y-132694693D01*
X82441262Y-132803858D01*
X82506980Y-132878486D01*
X82539813Y-132939607D01*
X82548400Y-133000000D01*
X82538956Y-133062974D01*
X82504876Y-133124353D01*
X82441262Y-133196141D01*
X82334125Y-133305306D01*
X82542862Y-133515133D01*
X82625032Y-133599687D01*
X82691976Y-133672294D01*
X82736531Y-133724929D01*
X82751600Y-133749031D01*
X82734894Y-133777605D01*
X82690799Y-133830804D01*
X82628348Y-133897843D01*
X82618936Y-133907434D01*
X82486273Y-134041766D01*
X82040447Y-133598006D01*
X81971127Y-133667327D01*
X81901806Y-133736647D01*
X82345566Y-134182473D01*
X82065458Y-134459101D01*
X81620220Y-134015925D01*
X81550872Y-134085272D01*
X81481525Y-134154620D01*
X81924701Y-134599858D01*
X81648073Y-134879966D01*
X81426351Y-134659271D01*
X81204628Y-134438576D01*
X81074514Y-134560283D01*
X81002131Y-134624929D01*
X80951257Y-134659455D01*
X80908452Y-134670612D01*
X80864144Y-134665938D01*
X80800456Y-134638970D01*
X80724735Y-134587384D01*
X80681136Y-134549042D01*
X80578382Y-134448197D01*
X80363802Y-134663898D01*
X80279502Y-134747521D01*
X80208313Y-134816040D01*
X80157701Y-134862414D01*
X80135133Y-134879599D01*
X80135093Y-134879600D01*
X80111806Y-134862797D01*
X80062869Y-134818287D01*
X79997911Y-134754914D01*
X79982831Y-134739729D01*
X79844698Y-134599858D01*
X80287874Y-134154620D01*
X80218527Y-134085272D01*
X80149179Y-134015925D01*
X79703941Y-134459101D01*
X79423833Y-134182473D01*
X79867593Y-133736647D01*
X79798272Y-133667327D01*
X79728952Y-133598006D01*
X79283126Y-134041766D01*
X79006498Y-133761658D01*
X79447366Y-133317500D01*
X79334183Y-133198328D01*
X79255612Y-133102841D01*
X79221375Y-133021240D01*
X79224103Y-133000000D01*
X79881400Y-133000000D01*
X79889221Y-133028510D01*
X79914959Y-133070261D01*
X79962026Y-133129113D01*
X80033833Y-133208927D01*
X80133791Y-133313562D01*
X80265312Y-133446879D01*
X80359170Y-133540628D01*
X80507545Y-133686421D01*
X80636524Y-133809455D01*
X80742665Y-133906622D01*
X80822523Y-133974815D01*
X80872656Y-134010929D01*
X80885976Y-134016000D01*
X80919042Y-133998050D01*
X80983623Y-133946240D01*
X81076340Y-133863631D01*
X81193815Y-133753284D01*
X81332669Y-133618257D01*
X81411505Y-133540000D01*
X81564479Y-133386019D01*
X81683651Y-133263183D01*
X81772240Y-133167850D01*
X81833463Y-133096377D01*
X81870538Y-133045120D01*
X81886682Y-133010437D01*
X81888000Y-133000495D01*
X81879213Y-132971301D01*
X81850714Y-132926883D01*
X81799298Y-132863601D01*
X81721757Y-132777820D01*
X81614885Y-132665900D01*
X81475476Y-132524206D01*
X81412000Y-132460494D01*
X81260697Y-132310913D01*
X81130556Y-132186087D01*
X81024627Y-132088779D01*
X80945958Y-132021753D01*
X80897597Y-131987773D01*
X80886471Y-131984000D01*
X80852931Y-132001989D01*
X80787657Y-132054064D01*
X80693801Y-132137382D01*
X80574516Y-132249102D01*
X80432954Y-132386381D01*
X80359170Y-132459371D01*
X80207412Y-132611436D01*
X80089230Y-132732539D01*
X80001214Y-132826542D01*
X79939952Y-132897304D01*
X79902033Y-132948686D01*
X79884045Y-132984548D01*
X79881400Y-133000000D01*
X79224103Y-133000000D01*
X79231474Y-132942611D01*
X79285906Y-132856038D01*
X79334183Y-132801671D01*
X79447366Y-132682500D01*
X79226932Y-132460420D01*
X79006498Y-132238341D01*
X79283126Y-131958233D01*
X79728952Y-132401993D01*
X79798272Y-132332672D01*
X79867593Y-132263352D01*
X79423833Y-131817526D01*
X79703941Y-131540898D01*
X80149179Y-131984074D01*
X80218527Y-131914727D01*
X80287874Y-131845379D01*
X79844106Y-131399545D01*
X79989626Y-131254026D01*
X80135145Y-131108506D01*
X80357960Y-131330288D01*
X80357960Y-131330288D01*
G37*
X80357960Y-131330288D02*
X80580775Y-131552071D01*
X80681937Y-131451081D01*
X80755379Y-131389534D01*
X80829580Y-131345754D01*
X80863750Y-131334050D01*
X80911260Y-131329512D01*
X80954190Y-131341995D01*
X81006012Y-131378253D01*
X81074514Y-131439716D01*
X81204628Y-131561423D01*
X81426351Y-131340728D01*
X81648073Y-131120033D01*
X81924701Y-131400141D01*
X81481525Y-131845379D01*
X81550872Y-131914727D01*
X81620220Y-131984074D01*
X82065458Y-131540898D01*
X82345566Y-131817526D01*
X81901806Y-132263352D01*
X81971127Y-132332672D01*
X82040447Y-132401993D01*
X82486273Y-131958233D01*
X82618936Y-132092565D01*
X82683185Y-132160653D01*
X82730306Y-132216368D01*
X82751267Y-132248923D01*
X82751600Y-132250968D01*
X82734649Y-132277483D01*
X82688570Y-132331521D01*
X82620527Y-132405058D01*
X82542862Y-132484866D01*
X82334125Y-132694693D01*
X82441262Y-132803858D01*
X82506980Y-132878486D01*
X82539813Y-132939607D01*
X82548400Y-133000000D01*
X82538956Y-133062974D01*
X82504876Y-133124353D01*
X82441262Y-133196141D01*
X82334125Y-133305306D01*
X82542862Y-133515133D01*
X82625032Y-133599687D01*
X82691976Y-133672294D01*
X82736531Y-133724929D01*
X82751600Y-133749031D01*
X82734894Y-133777605D01*
X82690799Y-133830804D01*
X82628348Y-133897843D01*
X82618936Y-133907434D01*
X82486273Y-134041766D01*
X82040447Y-133598006D01*
X81971127Y-133667327D01*
X81901806Y-133736647D01*
X82345566Y-134182473D01*
X82065458Y-134459101D01*
X81620220Y-134015925D01*
X81550872Y-134085272D01*
X81481525Y-134154620D01*
X81924701Y-134599858D01*
X81648073Y-134879966D01*
X81426351Y-134659271D01*
X81204628Y-134438576D01*
X81074514Y-134560283D01*
X81002131Y-134624929D01*
X80951257Y-134659455D01*
X80908452Y-134670612D01*
X80864144Y-134665938D01*
X80800456Y-134638970D01*
X80724735Y-134587384D01*
X80681136Y-134549042D01*
X80578382Y-134448197D01*
X80363802Y-134663898D01*
X80279502Y-134747521D01*
X80208313Y-134816040D01*
X80157701Y-134862414D01*
X80135133Y-134879599D01*
X80135093Y-134879600D01*
X80111806Y-134862797D01*
X80062869Y-134818287D01*
X79997911Y-134754914D01*
X79982831Y-134739729D01*
X79844698Y-134599858D01*
X80287874Y-134154620D01*
X80218527Y-134085272D01*
X80149179Y-134015925D01*
X79703941Y-134459101D01*
X79423833Y-134182473D01*
X79867593Y-133736647D01*
X79798272Y-133667327D01*
X79728952Y-133598006D01*
X79283126Y-134041766D01*
X79006498Y-133761658D01*
X79447366Y-133317500D01*
X79334183Y-133198328D01*
X79255612Y-133102841D01*
X79221375Y-133021240D01*
X79224103Y-133000000D01*
X79881400Y-133000000D01*
X79889221Y-133028510D01*
X79914959Y-133070261D01*
X79962026Y-133129113D01*
X80033833Y-133208927D01*
X80133791Y-133313562D01*
X80265312Y-133446879D01*
X80359170Y-133540628D01*
X80507545Y-133686421D01*
X80636524Y-133809455D01*
X80742665Y-133906622D01*
X80822523Y-133974815D01*
X80872656Y-134010929D01*
X80885976Y-134016000D01*
X80919042Y-133998050D01*
X80983623Y-133946240D01*
X81076340Y-133863631D01*
X81193815Y-133753284D01*
X81332669Y-133618257D01*
X81411505Y-133540000D01*
X81564479Y-133386019D01*
X81683651Y-133263183D01*
X81772240Y-133167850D01*
X81833463Y-133096377D01*
X81870538Y-133045120D01*
X81886682Y-133010437D01*
X81888000Y-133000495D01*
X81879213Y-132971301D01*
X81850714Y-132926883D01*
X81799298Y-132863601D01*
X81721757Y-132777820D01*
X81614885Y-132665900D01*
X81475476Y-132524206D01*
X81412000Y-132460494D01*
X81260697Y-132310913D01*
X81130556Y-132186087D01*
X81024627Y-132088779D01*
X80945958Y-132021753D01*
X80897597Y-131987773D01*
X80886471Y-131984000D01*
X80852931Y-132001989D01*
X80787657Y-132054064D01*
X80693801Y-132137382D01*
X80574516Y-132249102D01*
X80432954Y-132386381D01*
X80359170Y-132459371D01*
X80207412Y-132611436D01*
X80089230Y-132732539D01*
X80001214Y-132826542D01*
X79939952Y-132897304D01*
X79902033Y-132948686D01*
X79884045Y-132984548D01*
X79881400Y-133000000D01*
X79224103Y-133000000D01*
X79231474Y-132942611D01*
X79285906Y-132856038D01*
X79334183Y-132801671D01*
X79447366Y-132682500D01*
X79226932Y-132460420D01*
X79006498Y-132238341D01*
X79283126Y-131958233D01*
X79728952Y-132401993D01*
X79798272Y-132332672D01*
X79867593Y-132263352D01*
X79423833Y-131817526D01*
X79703941Y-131540898D01*
X80149179Y-131984074D01*
X80218527Y-131914727D01*
X80287874Y-131845379D01*
X79844106Y-131399545D01*
X79989626Y-131254026D01*
X80135145Y-131108506D01*
X80357960Y-131330288D01*
G36*
X84425645Y-131959157D02*
X84632239Y-131959639D01*
X84794640Y-131960972D01*
X84919450Y-131963563D01*
X85013272Y-131967816D01*
X85082711Y-131974136D01*
X85134370Y-131982929D01*
X85174853Y-131994601D01*
X85205212Y-132006998D01*
X85320482Y-132085345D01*
X85400758Y-132195493D01*
X85437220Y-132315389D01*
X85450688Y-132415800D01*
X85313213Y-132415800D01*
X85232787Y-132413673D01*
X85187674Y-132402570D01*
X85162420Y-132375409D01*
X85146974Y-132339599D01*
X85118212Y-132263399D01*
X84444720Y-132263399D01*
X84238141Y-132263753D01*
X84076536Y-132265032D01*
X83954084Y-132267562D01*
X83864963Y-132271668D01*
X83803352Y-132277677D01*
X83763428Y-132285913D01*
X83739370Y-132296703D01*
X83731314Y-132303314D01*
X83706169Y-132356031D01*
X83692112Y-132441511D01*
X83688980Y-132542981D01*
X83696609Y-132643663D01*
X83714835Y-132726785D01*
X83735850Y-132768102D01*
X83750898Y-132783817D01*
X83770632Y-132796168D01*
X83801000Y-132805633D01*
X83847949Y-132812691D01*
X83917428Y-132817821D01*
X84015384Y-132821502D01*
X84147764Y-132824212D01*
X84320518Y-132826431D01*
X84480832Y-132828066D01*
X85181364Y-132834900D01*
X85274608Y-132906063D01*
X85343621Y-132965317D01*
X85391273Y-133026839D01*
X85421313Y-133101597D01*
X85437493Y-133200557D01*
X85443562Y-133334686D01*
X85444000Y-133401382D01*
X85440015Y-133553911D01*
X85425234Y-133667429D01*
X85395411Y-133753302D01*
X85346303Y-133822894D01*
X85273666Y-133887571D01*
X85258039Y-133899364D01*
X85234965Y-133914837D01*
X85208244Y-133927052D01*
X85171839Y-133936457D01*
X85119711Y-133943495D01*
X85045823Y-133948614D01*
X84944135Y-133952258D01*
X84808611Y-133954875D01*
X84633211Y-133956909D01*
X84457939Y-133958434D01*
X84232934Y-133959753D01*
X84053326Y-133959515D01*
X83913732Y-133957527D01*
X83808768Y-133953594D01*
X83733049Y-133947522D01*
X83681192Y-133939117D01*
X83650229Y-133929289D01*
X83558112Y-133865027D01*
X83479998Y-133768237D01*
X83429134Y-133657182D01*
X83419066Y-133610550D01*
X83405311Y-133508000D01*
X83548355Y-133508000D01*
X83633733Y-133511276D01*
X83678216Y-133522809D01*
X83691388Y-133545150D01*
X83691400Y-133546100D01*
X83708214Y-133591171D01*
X83742200Y-133635000D01*
X83760407Y-133650704D01*
X83783927Y-133662795D01*
X83819106Y-133671743D01*
X83872292Y-133678019D01*
X83949834Y-133682091D01*
X84058079Y-133684432D01*
X84203375Y-133685510D01*
X84392070Y-133685796D01*
X84428000Y-133685800D01*
X84640571Y-133685796D01*
X84807782Y-133684350D01*
X84935069Y-133679304D01*
X85027865Y-133668505D01*
X85091607Y-133649796D01*
X85131730Y-133621023D01*
X85153668Y-133580030D01*
X85162856Y-133524662D01*
X85164730Y-133452763D01*
X85164600Y-133393700D01*
X85164756Y-133311677D01*
X85161715Y-133246624D01*
X85150210Y-133196579D01*
X85124976Y-133159579D01*
X85080747Y-133133661D01*
X85012256Y-133116862D01*
X84914238Y-133107219D01*
X84781427Y-133102769D01*
X84608557Y-133101550D01*
X84390362Y-133101599D01*
X84380956Y-133101600D01*
X84176890Y-133101466D01*
X84017243Y-133100747D01*
X83895635Y-133098967D01*
X83805685Y-133095650D01*
X83741011Y-133090320D01*
X83695234Y-133082501D01*
X83661973Y-133071717D01*
X83634846Y-133057492D01*
X83614941Y-133044450D01*
X83537843Y-132986539D01*
X83484393Y-132928452D01*
X83450027Y-132858986D01*
X83430183Y-132766942D01*
X83420298Y-132641119D01*
X83417615Y-132560083D01*
X83415420Y-132432376D01*
X83417460Y-132343044D01*
X83425373Y-132279727D01*
X83440793Y-132230067D01*
X83465358Y-132181705D01*
X83468415Y-132176405D01*
X83546647Y-132082351D01*
X83638245Y-132017655D01*
X83673500Y-131999918D01*
X83708319Y-131986148D01*
X83749370Y-131975849D01*
X83803320Y-131968526D01*
X83876836Y-131963685D01*
X83976584Y-131960829D01*
X84109233Y-131959463D01*
X84281449Y-131959093D01*
X84425645Y-131959157D01*
X84425645Y-131959157D01*
G37*
X84425645Y-131959157D02*
X84632239Y-131959639D01*
X84794640Y-131960972D01*
X84919450Y-131963563D01*
X85013272Y-131967816D01*
X85082711Y-131974136D01*
X85134370Y-131982929D01*
X85174853Y-131994601D01*
X85205212Y-132006998D01*
X85320482Y-132085345D01*
X85400758Y-132195493D01*
X85437220Y-132315389D01*
X85450688Y-132415800D01*
X85313213Y-132415800D01*
X85232787Y-132413673D01*
X85187674Y-132402570D01*
X85162420Y-132375409D01*
X85146974Y-132339599D01*
X85118212Y-132263399D01*
X84444720Y-132263399D01*
X84238141Y-132263753D01*
X84076536Y-132265032D01*
X83954084Y-132267562D01*
X83864963Y-132271668D01*
X83803352Y-132277677D01*
X83763428Y-132285913D01*
X83739370Y-132296703D01*
X83731314Y-132303314D01*
X83706169Y-132356031D01*
X83692112Y-132441511D01*
X83688980Y-132542981D01*
X83696609Y-132643663D01*
X83714835Y-132726785D01*
X83735850Y-132768102D01*
X83750898Y-132783817D01*
X83770632Y-132796168D01*
X83801000Y-132805633D01*
X83847949Y-132812691D01*
X83917428Y-132817821D01*
X84015384Y-132821502D01*
X84147764Y-132824212D01*
X84320518Y-132826431D01*
X84480832Y-132828066D01*
X85181364Y-132834900D01*
X85274608Y-132906063D01*
X85343621Y-132965317D01*
X85391273Y-133026839D01*
X85421313Y-133101597D01*
X85437493Y-133200557D01*
X85443562Y-133334686D01*
X85444000Y-133401382D01*
X85440015Y-133553911D01*
X85425234Y-133667429D01*
X85395411Y-133753302D01*
X85346303Y-133822894D01*
X85273666Y-133887571D01*
X85258039Y-133899364D01*
X85234965Y-133914837D01*
X85208244Y-133927052D01*
X85171839Y-133936457D01*
X85119711Y-133943495D01*
X85045823Y-133948614D01*
X84944135Y-133952258D01*
X84808611Y-133954875D01*
X84633211Y-133956909D01*
X84457939Y-133958434D01*
X84232934Y-133959753D01*
X84053326Y-133959515D01*
X83913732Y-133957527D01*
X83808768Y-133953594D01*
X83733049Y-133947522D01*
X83681192Y-133939117D01*
X83650229Y-133929289D01*
X83558112Y-133865027D01*
X83479998Y-133768237D01*
X83429134Y-133657182D01*
X83419066Y-133610550D01*
X83405311Y-133508000D01*
X83548355Y-133508000D01*
X83633733Y-133511276D01*
X83678216Y-133522809D01*
X83691388Y-133545150D01*
X83691400Y-133546100D01*
X83708214Y-133591171D01*
X83742200Y-133635000D01*
X83760407Y-133650704D01*
X83783927Y-133662795D01*
X83819106Y-133671743D01*
X83872292Y-133678019D01*
X83949834Y-133682091D01*
X84058079Y-133684432D01*
X84203375Y-133685510D01*
X84392070Y-133685796D01*
X84428000Y-133685800D01*
X84640571Y-133685796D01*
X84807782Y-133684350D01*
X84935069Y-133679304D01*
X85027865Y-133668505D01*
X85091607Y-133649796D01*
X85131730Y-133621023D01*
X85153668Y-133580030D01*
X85162856Y-133524662D01*
X85164730Y-133452763D01*
X85164600Y-133393700D01*
X85164756Y-133311677D01*
X85161715Y-133246624D01*
X85150210Y-133196579D01*
X85124976Y-133159579D01*
X85080747Y-133133661D01*
X85012256Y-133116862D01*
X84914238Y-133107219D01*
X84781427Y-133102769D01*
X84608557Y-133101550D01*
X84390362Y-133101599D01*
X84380956Y-133101600D01*
X84176890Y-133101466D01*
X84017243Y-133100747D01*
X83895635Y-133098967D01*
X83805685Y-133095650D01*
X83741011Y-133090320D01*
X83695234Y-133082501D01*
X83661973Y-133071717D01*
X83634846Y-133057492D01*
X83614941Y-133044450D01*
X83537843Y-132986539D01*
X83484393Y-132928452D01*
X83450027Y-132858986D01*
X83430183Y-132766942D01*
X83420298Y-132641119D01*
X83417615Y-132560083D01*
X83415420Y-132432376D01*
X83417460Y-132343044D01*
X83425373Y-132279727D01*
X83440793Y-132230067D01*
X83465358Y-132181705D01*
X83468415Y-132176405D01*
X83546647Y-132082351D01*
X83638245Y-132017655D01*
X83673500Y-131999918D01*
X83708319Y-131986148D01*
X83749370Y-131975849D01*
X83803320Y-131968526D01*
X83876836Y-131963685D01*
X83976584Y-131960829D01*
X84109233Y-131959463D01*
X84281449Y-131959093D01*
X84425645Y-131959157D01*
G36*
X87750317Y-132104649D02*
X87742700Y-132250700D01*
X86906677Y-132257402D01*
X86638933Y-132260361D01*
X86421211Y-132264562D01*
X86252745Y-132270035D01*
X86132772Y-132276810D01*
X86060527Y-132284919D01*
X86036727Y-132292262D01*
X86025810Y-132311801D01*
X86017356Y-132353549D01*
X86011104Y-132422665D01*
X86006794Y-132524311D01*
X86004164Y-132663645D01*
X86002954Y-132845829D01*
X86002800Y-132963569D01*
X86002911Y-133160673D01*
X86003586Y-133313169D01*
X86005338Y-133427250D01*
X86008678Y-133509107D01*
X86014118Y-133564935D01*
X86022170Y-133600923D01*
X86033347Y-133623266D01*
X86048159Y-133638155D01*
X86059251Y-133646259D01*
X86081216Y-133657375D01*
X86115484Y-133666247D01*
X86167378Y-133673114D01*
X86242220Y-133678216D01*
X86345333Y-133681794D01*
X86482038Y-133684089D01*
X86657659Y-133685339D01*
X86877517Y-133685785D01*
X86935551Y-133685800D01*
X87755400Y-133685800D01*
X87755400Y-133965200D01*
X86898150Y-133963589D01*
X86668905Y-133962410D01*
X86463926Y-133959868D01*
X86288186Y-133956111D01*
X86146660Y-133951282D01*
X86044320Y-133945528D01*
X85986143Y-133938994D01*
X85977413Y-133936664D01*
X85911379Y-133899994D01*
X85854349Y-133855724D01*
X85817422Y-133819572D01*
X85788179Y-133783693D01*
X85765723Y-133741926D01*
X85749160Y-133688107D01*
X85737596Y-133616076D01*
X85730134Y-133519670D01*
X85725879Y-133392727D01*
X85723938Y-133229085D01*
X85723414Y-133022582D01*
X85723400Y-132954217D01*
X85723522Y-132745809D01*
X85724188Y-132581952D01*
X85725850Y-132456395D01*
X85728959Y-132362888D01*
X85733965Y-132295181D01*
X85741319Y-132247026D01*
X85751472Y-132212171D01*
X85764875Y-132184368D01*
X85780755Y-132159206D01*
X85839756Y-132094280D01*
X85919993Y-132033493D01*
X85951237Y-132015750D01*
X85983396Y-132000236D01*
X86015731Y-131987818D01*
X86054023Y-131978151D01*
X86104052Y-131970891D01*
X86171600Y-131965694D01*
X86262447Y-131962215D01*
X86382373Y-131960111D01*
X86537161Y-131959036D01*
X86732590Y-131958648D01*
X86911149Y-131958599D01*
X87757935Y-131958599D01*
X87750317Y-132104649D01*
X87750317Y-132104649D01*
G37*
X87750317Y-132104649D02*
X87742700Y-132250700D01*
X86906677Y-132257402D01*
X86638933Y-132260361D01*
X86421211Y-132264562D01*
X86252745Y-132270035D01*
X86132772Y-132276810D01*
X86060527Y-132284919D01*
X86036727Y-132292262D01*
X86025810Y-132311801D01*
X86017356Y-132353549D01*
X86011104Y-132422665D01*
X86006794Y-132524311D01*
X86004164Y-132663645D01*
X86002954Y-132845829D01*
X86002800Y-132963569D01*
X86002911Y-133160673D01*
X86003586Y-133313169D01*
X86005338Y-133427250D01*
X86008678Y-133509107D01*
X86014118Y-133564935D01*
X86022170Y-133600923D01*
X86033347Y-133623266D01*
X86048159Y-133638155D01*
X86059251Y-133646259D01*
X86081216Y-133657375D01*
X86115484Y-133666247D01*
X86167378Y-133673114D01*
X86242220Y-133678216D01*
X86345333Y-133681794D01*
X86482038Y-133684089D01*
X86657659Y-133685339D01*
X86877517Y-133685785D01*
X86935551Y-133685800D01*
X87755400Y-133685800D01*
X87755400Y-133965200D01*
X86898150Y-133963589D01*
X86668905Y-133962410D01*
X86463926Y-133959868D01*
X86288186Y-133956111D01*
X86146660Y-133951282D01*
X86044320Y-133945528D01*
X85986143Y-133938994D01*
X85977413Y-133936664D01*
X85911379Y-133899994D01*
X85854349Y-133855724D01*
X85817422Y-133819572D01*
X85788179Y-133783693D01*
X85765723Y-133741926D01*
X85749160Y-133688107D01*
X85737596Y-133616076D01*
X85730134Y-133519670D01*
X85725879Y-133392727D01*
X85723938Y-133229085D01*
X85723414Y-133022582D01*
X85723400Y-132954217D01*
X85723522Y-132745809D01*
X85724188Y-132581952D01*
X85725850Y-132456395D01*
X85728959Y-132362888D01*
X85733965Y-132295181D01*
X85741319Y-132247026D01*
X85751472Y-132212171D01*
X85764875Y-132184368D01*
X85780755Y-132159206D01*
X85839756Y-132094280D01*
X85919993Y-132033493D01*
X85951237Y-132015750D01*
X85983396Y-132000236D01*
X86015731Y-131987818D01*
X86054023Y-131978151D01*
X86104052Y-131970891D01*
X86171600Y-131965694D01*
X86262447Y-131962215D01*
X86382373Y-131960111D01*
X86537161Y-131959036D01*
X86732590Y-131958648D01*
X86911149Y-131958599D01*
X87757935Y-131958599D01*
X87750317Y-132104649D01*
G36*
X88390400Y-133965200D02*
X88111000Y-133965200D01*
X88111000Y-131958600D01*
X88390400Y-131958600D01*
X88390400Y-133965200D01*
X88390400Y-133965200D01*
G37*
X88390400Y-133965200D02*
X88111000Y-133965200D01*
X88111000Y-131958600D01*
X88390400Y-131958600D01*
X88390400Y-133965200D01*
G36*
X90905000Y-131958600D02*
X91608180Y-131958600D01*
X91817003Y-131958799D01*
X91981533Y-131959683D01*
X92108276Y-131961676D01*
X92203737Y-131965205D01*
X92274424Y-131970696D01*
X92326843Y-131978574D01*
X92367499Y-131989266D01*
X92402898Y-132003197D01*
X92421339Y-132011839D01*
X92534558Y-132093421D01*
X92595601Y-132174770D01*
X92659884Y-132284462D01*
X92652392Y-132993511D01*
X92644900Y-133702561D01*
X92576483Y-133792206D01*
X92541558Y-133836442D01*
X92507434Y-133872412D01*
X92468687Y-133900971D01*
X92419896Y-133922973D01*
X92355639Y-133939274D01*
X92270493Y-133950727D01*
X92159037Y-133958188D01*
X92015847Y-133962511D01*
X91835501Y-133964551D01*
X91612579Y-133965162D01*
X91479011Y-133965200D01*
X90625600Y-133965200D01*
X90625600Y-132984189D01*
X90905000Y-132984189D01*
X90905120Y-133177750D01*
X90905838Y-133326818D01*
X90907694Y-133437700D01*
X90911223Y-133516703D01*
X90916965Y-133570133D01*
X90925456Y-133604298D01*
X90937235Y-133625505D01*
X90952839Y-133640060D01*
X90961451Y-133646259D01*
X90986491Y-133658854D01*
X91025259Y-133668543D01*
X91083899Y-133675680D01*
X91168557Y-133680620D01*
X91285378Y-133683717D01*
X91440506Y-133685325D01*
X91640088Y-133685799D01*
X91647251Y-133685800D01*
X91842794Y-133685596D01*
X91993918Y-133684667D01*
X92107004Y-133682537D01*
X92188433Y-133678728D01*
X92244585Y-133672765D01*
X92281843Y-133664170D01*
X92306585Y-133652468D01*
X92325193Y-133637180D01*
X92327400Y-133635000D01*
X92343343Y-133616477D01*
X92355556Y-133592540D01*
X92364533Y-133556716D01*
X92370770Y-133502533D01*
X92374760Y-133423516D01*
X92376999Y-133313193D01*
X92377980Y-133165092D01*
X92378199Y-132972738D01*
X92378200Y-132970250D01*
X92377831Y-132774535D01*
X92376460Y-132623335D01*
X92373685Y-132510365D01*
X92369107Y-132429342D01*
X92362326Y-132373985D01*
X92352942Y-132338009D01*
X92340555Y-132315132D01*
X92336163Y-132309850D01*
X92320056Y-132295769D01*
X92296279Y-132284844D01*
X92258777Y-132276680D01*
X92201497Y-132270880D01*
X92118382Y-132267048D01*
X92003380Y-132264788D01*
X91850434Y-132263705D01*
X91653491Y-132263402D01*
X91625856Y-132263400D01*
X91424044Y-132263574D01*
X91267095Y-132264377D01*
X91149074Y-132266229D01*
X91064046Y-132269550D01*
X91006076Y-132274759D01*
X90969226Y-132282276D01*
X90947563Y-132292522D01*
X90935149Y-132305916D01*
X90931293Y-132312530D01*
X90922738Y-132354384D01*
X90915653Y-132442329D01*
X90910221Y-132571671D01*
X90906628Y-132737715D01*
X90905056Y-132935769D01*
X90905000Y-132984189D01*
X90625600Y-132984189D01*
X90625600Y-131298200D01*
X90905000Y-131298200D01*
X90905000Y-131958600D01*
X90905000Y-131958600D01*
G37*
X90905000Y-131958600D02*
X91608180Y-131958600D01*
X91817003Y-131958799D01*
X91981533Y-131959683D01*
X92108276Y-131961676D01*
X92203737Y-131965205D01*
X92274424Y-131970696D01*
X92326843Y-131978574D01*
X92367499Y-131989266D01*
X92402898Y-132003197D01*
X92421339Y-132011839D01*
X92534558Y-132093421D01*
X92595601Y-132174770D01*
X92659884Y-132284462D01*
X92652392Y-132993511D01*
X92644900Y-133702561D01*
X92576483Y-133792206D01*
X92541558Y-133836442D01*
X92507434Y-133872412D01*
X92468687Y-133900971D01*
X92419896Y-133922973D01*
X92355639Y-133939274D01*
X92270493Y-133950727D01*
X92159037Y-133958188D01*
X92015847Y-133962511D01*
X91835501Y-133964551D01*
X91612579Y-133965162D01*
X91479011Y-133965200D01*
X90625600Y-133965200D01*
X90625600Y-132984189D01*
X90905000Y-132984189D01*
X90905120Y-133177750D01*
X90905838Y-133326818D01*
X90907694Y-133437700D01*
X90911223Y-133516703D01*
X90916965Y-133570133D01*
X90925456Y-133604298D01*
X90937235Y-133625505D01*
X90952839Y-133640060D01*
X90961451Y-133646259D01*
X90986491Y-133658854D01*
X91025259Y-133668543D01*
X91083899Y-133675680D01*
X91168557Y-133680620D01*
X91285378Y-133683717D01*
X91440506Y-133685325D01*
X91640088Y-133685799D01*
X91647251Y-133685800D01*
X91842794Y-133685596D01*
X91993918Y-133684667D01*
X92107004Y-133682537D01*
X92188433Y-133678728D01*
X92244585Y-133672765D01*
X92281843Y-133664170D01*
X92306585Y-133652468D01*
X92325193Y-133637180D01*
X92327400Y-133635000D01*
X92343343Y-133616477D01*
X92355556Y-133592540D01*
X92364533Y-133556716D01*
X92370770Y-133502533D01*
X92374760Y-133423516D01*
X92376999Y-133313193D01*
X92377980Y-133165092D01*
X92378199Y-132972738D01*
X92378200Y-132970250D01*
X92377831Y-132774535D01*
X92376460Y-132623335D01*
X92373685Y-132510365D01*
X92369107Y-132429342D01*
X92362326Y-132373985D01*
X92352942Y-132338009D01*
X92340555Y-132315132D01*
X92336163Y-132309850D01*
X92320056Y-132295769D01*
X92296279Y-132284844D01*
X92258777Y-132276680D01*
X92201497Y-132270880D01*
X92118382Y-132267048D01*
X92003380Y-132264788D01*
X91850434Y-132263705D01*
X91653491Y-132263402D01*
X91625856Y-132263400D01*
X91424044Y-132263574D01*
X91267095Y-132264377D01*
X91149074Y-132266229D01*
X91064046Y-132269550D01*
X91006076Y-132274759D01*
X90969226Y-132282276D01*
X90947563Y-132292522D01*
X90935149Y-132305916D01*
X90931293Y-132312530D01*
X90922738Y-132354384D01*
X90915653Y-132442329D01*
X90910221Y-132571671D01*
X90906628Y-132737715D01*
X90905056Y-132935769D01*
X90905000Y-132984189D01*
X90625600Y-132984189D01*
X90625600Y-131298200D01*
X90905000Y-131298200D01*
X90905000Y-131958600D01*
G36*
X94129680Y-131959209D02*
X94289333Y-131960045D01*
X94411592Y-131962113D01*
X94503160Y-131965865D01*
X94570737Y-131971749D01*
X94621028Y-131980217D01*
X94660735Y-131991717D01*
X94696559Y-132006700D01*
X94706803Y-132011580D01*
X94787610Y-132062248D01*
X94857326Y-132124887D01*
X94873572Y-132144930D01*
X94890077Y-132169421D01*
X94903065Y-132195317D01*
X94912958Y-132228652D01*
X94920177Y-132275459D01*
X94925143Y-132341770D01*
X94928277Y-132433619D01*
X94930000Y-132557039D01*
X94930733Y-132718062D01*
X94930898Y-132922723D01*
X94930900Y-132966387D01*
X94930750Y-133180400D01*
X94930043Y-133349577D01*
X94928394Y-133479884D01*
X94925419Y-133577284D01*
X94920732Y-133647742D01*
X94913949Y-133697221D01*
X94904683Y-133731688D01*
X94892550Y-133757105D01*
X94878530Y-133777617D01*
X94818051Y-133845431D01*
X94756070Y-133900130D01*
X94733301Y-133915388D01*
X94706510Y-133927438D01*
X94669670Y-133936719D01*
X94616756Y-133943671D01*
X94541745Y-133948734D01*
X94438610Y-133952348D01*
X94301328Y-133954953D01*
X94123872Y-133956989D01*
X93957539Y-133958434D01*
X93730971Y-133959735D01*
X93549969Y-133959428D01*
X93409321Y-133957327D01*
X93303814Y-133953249D01*
X93228235Y-133947010D01*
X93177371Y-133938428D01*
X93151640Y-133930050D01*
X93059995Y-133868723D01*
X92981337Y-133779639D01*
X92931088Y-133681539D01*
X92923887Y-133653302D01*
X92920099Y-133606316D01*
X92917250Y-133516255D01*
X92915415Y-133390837D01*
X92914670Y-133237779D01*
X92915090Y-133064798D01*
X92915882Y-132972930D01*
X93191000Y-132972930D01*
X93191215Y-133165365D01*
X93192192Y-133313491D01*
X93194430Y-133423797D01*
X93198426Y-133502771D01*
X93204678Y-133556905D01*
X93213685Y-133592686D01*
X93225943Y-133616605D01*
X93241800Y-133635000D01*
X93260007Y-133650704D01*
X93283527Y-133662795D01*
X93318706Y-133671743D01*
X93371892Y-133678019D01*
X93449434Y-133682091D01*
X93557679Y-133684432D01*
X93702975Y-133685510D01*
X93891670Y-133685796D01*
X93927600Y-133685800D01*
X94124105Y-133685599D01*
X94276159Y-133684685D01*
X94390109Y-133682586D01*
X94472303Y-133678834D01*
X94529090Y-133672956D01*
X94566816Y-133664484D01*
X94591830Y-133652946D01*
X94610479Y-133637874D01*
X94613400Y-133635000D01*
X94629343Y-133616477D01*
X94641556Y-133592540D01*
X94650533Y-133556716D01*
X94656770Y-133502533D01*
X94660760Y-133423516D01*
X94662999Y-133313193D01*
X94663980Y-133165092D01*
X94664199Y-132972738D01*
X94664200Y-132970250D01*
X94663831Y-132774535D01*
X94662460Y-132623335D01*
X94659685Y-132510365D01*
X94655107Y-132429342D01*
X94648326Y-132373985D01*
X94638942Y-132338009D01*
X94626555Y-132315132D01*
X94622163Y-132309850D01*
X94606056Y-132295769D01*
X94582279Y-132284844D01*
X94544777Y-132276680D01*
X94487497Y-132270880D01*
X94404382Y-132267048D01*
X94289380Y-132264788D01*
X94136434Y-132263705D01*
X93939491Y-132263402D01*
X93911856Y-132263400D01*
X93710044Y-132263574D01*
X93553095Y-132264377D01*
X93435074Y-132266229D01*
X93350046Y-132269550D01*
X93292076Y-132274759D01*
X93255226Y-132282276D01*
X93233563Y-132292522D01*
X93221149Y-132305916D01*
X93217293Y-132312530D01*
X93208694Y-132354446D01*
X93201577Y-132442306D01*
X93196133Y-132571270D01*
X93192557Y-132736498D01*
X93191039Y-132933152D01*
X93191000Y-132972930D01*
X92915882Y-132972930D01*
X92916526Y-132898400D01*
X92918979Y-132696036D01*
X92921493Y-132538033D01*
X92924650Y-132417956D01*
X92929034Y-132329368D01*
X92935227Y-132265833D01*
X92943815Y-132220916D01*
X92955379Y-132188181D01*
X92970503Y-132161191D01*
X92985287Y-132139790D01*
X93024108Y-132089640D01*
X93065224Y-132049728D01*
X93114699Y-132018888D01*
X93178598Y-131995956D01*
X93262985Y-131979767D01*
X93373924Y-131969158D01*
X93517481Y-131962963D01*
X93699719Y-131960017D01*
X93925930Y-131959157D01*
X94129680Y-131959209D01*
X94129680Y-131959209D01*
G37*
X94129680Y-131959209D02*
X94289333Y-131960045D01*
X94411592Y-131962113D01*
X94503160Y-131965865D01*
X94570737Y-131971749D01*
X94621028Y-131980217D01*
X94660735Y-131991717D01*
X94696559Y-132006700D01*
X94706803Y-132011580D01*
X94787610Y-132062248D01*
X94857326Y-132124887D01*
X94873572Y-132144930D01*
X94890077Y-132169421D01*
X94903065Y-132195317D01*
X94912958Y-132228652D01*
X94920177Y-132275459D01*
X94925143Y-132341770D01*
X94928277Y-132433619D01*
X94930000Y-132557039D01*
X94930733Y-132718062D01*
X94930898Y-132922723D01*
X94930900Y-132966387D01*
X94930750Y-133180400D01*
X94930043Y-133349577D01*
X94928394Y-133479884D01*
X94925419Y-133577284D01*
X94920732Y-133647742D01*
X94913949Y-133697221D01*
X94904683Y-133731688D01*
X94892550Y-133757105D01*
X94878530Y-133777617D01*
X94818051Y-133845431D01*
X94756070Y-133900130D01*
X94733301Y-133915388D01*
X94706510Y-133927438D01*
X94669670Y-133936719D01*
X94616756Y-133943671D01*
X94541745Y-133948734D01*
X94438610Y-133952348D01*
X94301328Y-133954953D01*
X94123872Y-133956989D01*
X93957539Y-133958434D01*
X93730971Y-133959735D01*
X93549969Y-133959428D01*
X93409321Y-133957327D01*
X93303814Y-133953249D01*
X93228235Y-133947010D01*
X93177371Y-133938428D01*
X93151640Y-133930050D01*
X93059995Y-133868723D01*
X92981337Y-133779639D01*
X92931088Y-133681539D01*
X92923887Y-133653302D01*
X92920099Y-133606316D01*
X92917250Y-133516255D01*
X92915415Y-133390837D01*
X92914670Y-133237779D01*
X92915090Y-133064798D01*
X92915882Y-132972930D01*
X93191000Y-132972930D01*
X93191215Y-133165365D01*
X93192192Y-133313491D01*
X93194430Y-133423797D01*
X93198426Y-133502771D01*
X93204678Y-133556905D01*
X93213685Y-133592686D01*
X93225943Y-133616605D01*
X93241800Y-133635000D01*
X93260007Y-133650704D01*
X93283527Y-133662795D01*
X93318706Y-133671743D01*
X93371892Y-133678019D01*
X93449434Y-133682091D01*
X93557679Y-133684432D01*
X93702975Y-133685510D01*
X93891670Y-133685796D01*
X93927600Y-133685800D01*
X94124105Y-133685599D01*
X94276159Y-133684685D01*
X94390109Y-133682586D01*
X94472303Y-133678834D01*
X94529090Y-133672956D01*
X94566816Y-133664484D01*
X94591830Y-133652946D01*
X94610479Y-133637874D01*
X94613400Y-133635000D01*
X94629343Y-133616477D01*
X94641556Y-133592540D01*
X94650533Y-133556716D01*
X94656770Y-133502533D01*
X94660760Y-133423516D01*
X94662999Y-133313193D01*
X94663980Y-133165092D01*
X94664199Y-132972738D01*
X94664200Y-132970250D01*
X94663831Y-132774535D01*
X94662460Y-132623335D01*
X94659685Y-132510365D01*
X94655107Y-132429342D01*
X94648326Y-132373985D01*
X94638942Y-132338009D01*
X94626555Y-132315132D01*
X94622163Y-132309850D01*
X94606056Y-132295769D01*
X94582279Y-132284844D01*
X94544777Y-132276680D01*
X94487497Y-132270880D01*
X94404382Y-132267048D01*
X94289380Y-132264788D01*
X94136434Y-132263705D01*
X93939491Y-132263402D01*
X93911856Y-132263400D01*
X93710044Y-132263574D01*
X93553095Y-132264377D01*
X93435074Y-132266229D01*
X93350046Y-132269550D01*
X93292076Y-132274759D01*
X93255226Y-132282276D01*
X93233563Y-132292522D01*
X93221149Y-132305916D01*
X93217293Y-132312530D01*
X93208694Y-132354446D01*
X93201577Y-132442306D01*
X93196133Y-132571270D01*
X93192557Y-132736498D01*
X93191039Y-132933152D01*
X93191000Y-132972930D01*
X92915882Y-132972930D01*
X92916526Y-132898400D01*
X92918979Y-132696036D01*
X92921493Y-132538033D01*
X92924650Y-132417956D01*
X92929034Y-132329368D01*
X92935227Y-132265833D01*
X92943815Y-132220916D01*
X92955379Y-132188181D01*
X92970503Y-132161191D01*
X92985287Y-132139790D01*
X93024108Y-132089640D01*
X93065224Y-132049728D01*
X93114699Y-132018888D01*
X93178598Y-131995956D01*
X93262985Y-131979767D01*
X93373924Y-131969158D01*
X93517481Y-131962963D01*
X93699719Y-131960017D01*
X93925930Y-131959157D01*
X94129680Y-131959209D01*
G36*
X95502400Y-131958600D02*
X95935467Y-131958599D01*
X96368535Y-131958599D01*
X96360917Y-132104649D01*
X96353300Y-132250700D01*
X95502400Y-132264628D01*
X95502400Y-132935673D01*
X95502500Y-133137484D01*
X95503123Y-133294541D01*
X95504748Y-133412892D01*
X95507856Y-133498583D01*
X95512927Y-133557661D01*
X95520441Y-133596173D01*
X95530880Y-133620165D01*
X95544722Y-133635684D01*
X95558851Y-133646259D01*
X95592453Y-133662489D01*
X95644604Y-133673818D01*
X95723385Y-133680986D01*
X95836877Y-133684733D01*
X95990651Y-133685800D01*
X96366000Y-133685800D01*
X96366000Y-133965200D01*
X95953250Y-133963589D01*
X95808806Y-133961519D01*
X95678215Y-133956848D01*
X95571729Y-133950156D01*
X95499602Y-133942023D01*
X95477013Y-133936664D01*
X95410979Y-133899994D01*
X95353949Y-133855724D01*
X95324250Y-133827602D01*
X95299419Y-133800459D01*
X95279021Y-133769722D01*
X95262618Y-133730815D01*
X95249777Y-133679164D01*
X95240060Y-133610194D01*
X95233034Y-133519330D01*
X95228261Y-133401999D01*
X95225307Y-133253625D01*
X95223736Y-133069634D01*
X95223111Y-132845451D01*
X95222999Y-132576502D01*
X95223000Y-132480561D01*
X95223000Y-131298200D01*
X95502400Y-131298200D01*
X95502400Y-131958600D01*
X95502400Y-131958600D01*
G37*
X95502400Y-131958600D02*
X95935467Y-131958599D01*
X96368535Y-131958599D01*
X96360917Y-132104649D01*
X96353300Y-132250700D01*
X95502400Y-132264628D01*
X95502400Y-132935673D01*
X95502500Y-133137484D01*
X95503123Y-133294541D01*
X95504748Y-133412892D01*
X95507856Y-133498583D01*
X95512927Y-133557661D01*
X95520441Y-133596173D01*
X95530880Y-133620165D01*
X95544722Y-133635684D01*
X95558851Y-133646259D01*
X95592453Y-133662489D01*
X95644604Y-133673818D01*
X95723385Y-133680986D01*
X95836877Y-133684733D01*
X95990651Y-133685800D01*
X96366000Y-133685800D01*
X96366000Y-133965200D01*
X95953250Y-133963589D01*
X95808806Y-133961519D01*
X95678215Y-133956848D01*
X95571729Y-133950156D01*
X95499602Y-133942023D01*
X95477013Y-133936664D01*
X95410979Y-133899994D01*
X95353949Y-133855724D01*
X95324250Y-133827602D01*
X95299419Y-133800459D01*
X95279021Y-133769722D01*
X95262618Y-133730815D01*
X95249777Y-133679164D01*
X95240060Y-133610194D01*
X95233034Y-133519330D01*
X95228261Y-133401999D01*
X95225307Y-133253625D01*
X95223736Y-133069634D01*
X95223111Y-132845451D01*
X95222999Y-132576502D01*
X95223000Y-132480561D01*
X95223000Y-131298200D01*
X95502400Y-131298200D01*
X95502400Y-131958600D01*
G36*
X97843079Y-131959671D02*
X98028369Y-131962772D01*
X98178281Y-131967734D01*
X98288195Y-131974387D01*
X98353493Y-131982562D01*
X98364596Y-131985615D01*
X98465739Y-132044597D01*
X98554549Y-132133524D01*
X98619962Y-132237822D01*
X98650913Y-132342916D01*
X98652000Y-132364184D01*
X98646650Y-132392985D01*
X98622830Y-132408547D01*
X98568881Y-132414818D01*
X98499600Y-132415800D01*
X98413755Y-132413637D01*
X98367374Y-132404901D01*
X98349222Y-132386223D01*
X98347200Y-132370080D01*
X98344873Y-132339029D01*
X98334248Y-132314658D01*
X98309854Y-132296162D01*
X98266224Y-132282734D01*
X98197888Y-132273568D01*
X98099377Y-132267859D01*
X97965223Y-132264800D01*
X97789956Y-132263585D01*
X97623300Y-132263399D01*
X97402124Y-132264150D01*
X97228035Y-132266511D01*
X97097341Y-132270644D01*
X97006349Y-132276711D01*
X96951366Y-132284875D01*
X96929880Y-132293879D01*
X96911425Y-132338814D01*
X96900790Y-132418275D01*
X96897673Y-132516642D01*
X96901771Y-132618297D01*
X96912782Y-132707619D01*
X96930406Y-132768989D01*
X96939314Y-132782285D01*
X96957483Y-132794491D01*
X96988526Y-132803984D01*
X97038256Y-132811089D01*
X97112485Y-132816129D01*
X97217028Y-132819430D01*
X97357695Y-132821315D01*
X97540302Y-132822110D01*
X97654632Y-132822199D01*
X97857243Y-132822295D01*
X98015653Y-132822935D01*
X98136461Y-132824652D01*
X98226267Y-132827978D01*
X98291670Y-132833446D01*
X98339270Y-132841586D01*
X98375665Y-132852932D01*
X98407454Y-132868015D01*
X98437778Y-132885340D01*
X98530729Y-132956032D01*
X98594800Y-133046390D01*
X98633453Y-133164671D01*
X98650144Y-133319132D01*
X98651442Y-133395369D01*
X98641728Y-133569577D01*
X98611616Y-133704073D01*
X98558202Y-133806837D01*
X98478579Y-133885850D01*
X98470809Y-133891512D01*
X98445066Y-133909107D01*
X98418772Y-133923007D01*
X98385849Y-133933717D01*
X98340215Y-133941743D01*
X98275790Y-133947591D01*
X98186495Y-133951764D01*
X98066249Y-133954769D01*
X97908972Y-133957111D01*
X97708584Y-133959295D01*
X97647678Y-133959909D01*
X97434935Y-133961965D01*
X97266899Y-133963116D01*
X97137481Y-133962983D01*
X97040590Y-133961185D01*
X96970136Y-133957344D01*
X96920031Y-133951080D01*
X96884183Y-133942013D01*
X96856503Y-133929764D01*
X96830901Y-133913954D01*
X96822783Y-133908505D01*
X96725281Y-133822950D01*
X96655170Y-133721538D01*
X96621608Y-133618514D01*
X96620000Y-133593143D01*
X96620000Y-133508000D01*
X96759700Y-133508000D01*
X96840604Y-133510291D01*
X96882746Y-133519980D01*
X96898066Y-133541282D01*
X96899400Y-133557359D01*
X96918858Y-133608196D01*
X96955851Y-133646259D01*
X97001022Y-133660210D01*
X97087195Y-133671529D01*
X97205758Y-133680216D01*
X97348100Y-133686275D01*
X97505610Y-133689709D01*
X97669674Y-133690519D01*
X97831683Y-133688707D01*
X97983023Y-133684277D01*
X98115084Y-133677231D01*
X98219253Y-133667570D01*
X98286919Y-133655298D01*
X98307285Y-133645885D01*
X98328865Y-133608970D01*
X98341523Y-133544818D01*
X98346805Y-133443645D01*
X98347200Y-133393325D01*
X98347427Y-133310758D01*
X98344572Y-133245420D01*
X98333322Y-133195298D01*
X98308371Y-133158383D01*
X98264407Y-133132663D01*
X98196122Y-133116127D01*
X98098205Y-133106764D01*
X97965349Y-133102562D01*
X97792243Y-133101511D01*
X97577037Y-133101600D01*
X97357211Y-133101065D01*
X97182014Y-133098710D01*
X97045281Y-133093412D01*
X96940844Y-133084045D01*
X96862537Y-133069485D01*
X96804195Y-133048607D01*
X96759650Y-133020288D01*
X96722738Y-132983402D01*
X96689349Y-132939718D01*
X96664603Y-132899402D01*
X96647634Y-132853153D01*
X96636590Y-132789996D01*
X96629616Y-132698952D01*
X96624861Y-132569044D01*
X96624490Y-132555500D01*
X96621665Y-132424502D01*
X96622480Y-132333051D01*
X96628388Y-132269938D01*
X96640840Y-132223958D01*
X96661289Y-132183903D01*
X96675495Y-132161800D01*
X96735842Y-132095097D01*
X96816984Y-132033297D01*
X96847837Y-132015749D01*
X96884122Y-131998447D01*
X96920620Y-131985039D01*
X96964085Y-131975030D01*
X97021272Y-131967925D01*
X97098935Y-131963227D01*
X97203831Y-131960443D01*
X97342713Y-131959076D01*
X97522337Y-131958631D01*
X97627028Y-131958599D01*
X97843079Y-131959671D01*
X97843079Y-131959671D01*
G37*
X97843079Y-131959671D02*
X98028369Y-131962772D01*
X98178281Y-131967734D01*
X98288195Y-131974387D01*
X98353493Y-131982562D01*
X98364596Y-131985615D01*
X98465739Y-132044597D01*
X98554549Y-132133524D01*
X98619962Y-132237822D01*
X98650913Y-132342916D01*
X98652000Y-132364184D01*
X98646650Y-132392985D01*
X98622830Y-132408547D01*
X98568881Y-132414818D01*
X98499600Y-132415800D01*
X98413755Y-132413637D01*
X98367374Y-132404901D01*
X98349222Y-132386223D01*
X98347200Y-132370080D01*
X98344873Y-132339029D01*
X98334248Y-132314658D01*
X98309854Y-132296162D01*
X98266224Y-132282734D01*
X98197888Y-132273568D01*
X98099377Y-132267859D01*
X97965223Y-132264800D01*
X97789956Y-132263585D01*
X97623300Y-132263399D01*
X97402124Y-132264150D01*
X97228035Y-132266511D01*
X97097341Y-132270644D01*
X97006349Y-132276711D01*
X96951366Y-132284875D01*
X96929880Y-132293879D01*
X96911425Y-132338814D01*
X96900790Y-132418275D01*
X96897673Y-132516642D01*
X96901771Y-132618297D01*
X96912782Y-132707619D01*
X96930406Y-132768989D01*
X96939314Y-132782285D01*
X96957483Y-132794491D01*
X96988526Y-132803984D01*
X97038256Y-132811089D01*
X97112485Y-132816129D01*
X97217028Y-132819430D01*
X97357695Y-132821315D01*
X97540302Y-132822110D01*
X97654632Y-132822199D01*
X97857243Y-132822295D01*
X98015653Y-132822935D01*
X98136461Y-132824652D01*
X98226267Y-132827978D01*
X98291670Y-132833446D01*
X98339270Y-132841586D01*
X98375665Y-132852932D01*
X98407454Y-132868015D01*
X98437778Y-132885340D01*
X98530729Y-132956032D01*
X98594800Y-133046390D01*
X98633453Y-133164671D01*
X98650144Y-133319132D01*
X98651442Y-133395369D01*
X98641728Y-133569577D01*
X98611616Y-133704073D01*
X98558202Y-133806837D01*
X98478579Y-133885850D01*
X98470809Y-133891512D01*
X98445066Y-133909107D01*
X98418772Y-133923007D01*
X98385849Y-133933717D01*
X98340215Y-133941743D01*
X98275790Y-133947591D01*
X98186495Y-133951764D01*
X98066249Y-133954769D01*
X97908972Y-133957111D01*
X97708584Y-133959295D01*
X97647678Y-133959909D01*
X97434935Y-133961965D01*
X97266899Y-133963116D01*
X97137481Y-133962983D01*
X97040590Y-133961185D01*
X96970136Y-133957344D01*
X96920031Y-133951080D01*
X96884183Y-133942013D01*
X96856503Y-133929764D01*
X96830901Y-133913954D01*
X96822783Y-133908505D01*
X96725281Y-133822950D01*
X96655170Y-133721538D01*
X96621608Y-133618514D01*
X96620000Y-133593143D01*
X96620000Y-133508000D01*
X96759700Y-133508000D01*
X96840604Y-133510291D01*
X96882746Y-133519980D01*
X96898066Y-133541282D01*
X96899400Y-133557359D01*
X96918858Y-133608196D01*
X96955851Y-133646259D01*
X97001022Y-133660210D01*
X97087195Y-133671529D01*
X97205758Y-133680216D01*
X97348100Y-133686275D01*
X97505610Y-133689709D01*
X97669674Y-133690519D01*
X97831683Y-133688707D01*
X97983023Y-133684277D01*
X98115084Y-133677231D01*
X98219253Y-133667570D01*
X98286919Y-133655298D01*
X98307285Y-133645885D01*
X98328865Y-133608970D01*
X98341523Y-133544818D01*
X98346805Y-133443645D01*
X98347200Y-133393325D01*
X98347427Y-133310758D01*
X98344572Y-133245420D01*
X98333322Y-133195298D01*
X98308371Y-133158383D01*
X98264407Y-133132663D01*
X98196122Y-133116127D01*
X98098205Y-133106764D01*
X97965349Y-133102562D01*
X97792243Y-133101511D01*
X97577037Y-133101600D01*
X97357211Y-133101065D01*
X97182014Y-133098710D01*
X97045281Y-133093412D01*
X96940844Y-133084045D01*
X96862537Y-133069485D01*
X96804195Y-133048607D01*
X96759650Y-133020288D01*
X96722738Y-132983402D01*
X96689349Y-132939718D01*
X96664603Y-132899402D01*
X96647634Y-132853153D01*
X96636590Y-132789996D01*
X96629616Y-132698952D01*
X96624861Y-132569044D01*
X96624490Y-132555500D01*
X96621665Y-132424502D01*
X96622480Y-132333051D01*
X96628388Y-132269938D01*
X96640840Y-132223958D01*
X96661289Y-132183903D01*
X96675495Y-132161800D01*
X96735842Y-132095097D01*
X96816984Y-132033297D01*
X96847837Y-132015749D01*
X96884122Y-131998447D01*
X96920620Y-131985039D01*
X96964085Y-131975030D01*
X97021272Y-131967925D01*
X97098935Y-131963227D01*
X97203831Y-131960443D01*
X97342713Y-131959076D01*
X97522337Y-131958631D01*
X97627028Y-131958599D01*
X97843079Y-131959671D01*
G36*
X90193800Y-133101600D02*
X89537633Y-133101600D01*
X89359945Y-133100969D01*
X89199214Y-133099195D01*
X89062364Y-133096450D01*
X88956317Y-133092909D01*
X88887995Y-133088746D01*
X88864533Y-133084666D01*
X88855020Y-133051597D01*
X88848877Y-132985018D01*
X88847600Y-132932266D01*
X88847600Y-132796800D01*
X90193800Y-132796800D01*
X90193800Y-133101600D01*
X90193800Y-133101600D01*
G37*
X90193800Y-133101600D02*
X89537633Y-133101600D01*
X89359945Y-133100969D01*
X89199214Y-133099195D01*
X89062364Y-133096450D01*
X88956317Y-133092909D01*
X88887995Y-133088746D01*
X88864533Y-133084666D01*
X88855020Y-133051597D01*
X88848877Y-132985018D01*
X88847600Y-132932266D01*
X88847600Y-132796800D01*
X90193800Y-132796800D01*
X90193800Y-133101600D01*
G36*
X88390400Y-131603000D02*
X88111000Y-131603000D01*
X88111000Y-131298200D01*
X88390400Y-131298200D01*
X88390400Y-131603000D01*
X88390400Y-131603000D01*
G37*
X88390400Y-131603000D02*
X88111000Y-131603000D01*
X88111000Y-131298200D01*
X88390400Y-131298200D01*
X88390400Y-131603000D01*
G36*
X79009491Y-131074816D02*
X78998569Y-131090562D01*
X78995751Y-131092390D01*
X78950072Y-131134171D01*
X78938990Y-131149151D01*
X78922233Y-131163709D01*
X78916647Y-131131454D01*
X78916588Y-131126750D01*
X78929804Y-131081430D01*
X78973350Y-131069988D01*
X79009491Y-131074816D01*
X79009491Y-131074816D01*
G37*
X79009491Y-131074816D02*
X78998569Y-131090562D01*
X78995751Y-131092390D01*
X78950072Y-131134171D01*
X78938990Y-131149151D01*
X78922233Y-131163709D01*
X78916647Y-131131454D01*
X78916588Y-131126750D01*
X78929804Y-131081430D01*
X78973350Y-131069988D01*
X79009491Y-131074816D01*
G36*
X99100851Y-131087560D02*
X99109200Y-131120400D01*
X99107328Y-131159448D01*
X99094521Y-131161771D01*
X99059989Y-131126970D01*
X99052050Y-131118283D01*
X99022697Y-131082680D01*
X99030261Y-131070763D01*
X99058400Y-131069600D01*
X99100851Y-131087560D01*
X99100851Y-131087560D01*
G37*
X99100851Y-131087560D02*
X99109200Y-131120400D01*
X99107328Y-131159448D01*
X99094521Y-131161771D01*
X99059989Y-131126970D01*
X99052050Y-131118283D01*
X99022697Y-131082680D01*
X99030261Y-131070763D01*
X99058400Y-131069600D01*
X99100851Y-131087560D01*
D13*
X83172500Y-145191200D02*
X83172500Y-143768800D01*
X82461300Y-144480000D02*
X83883700Y-144480000D01*
X83675394Y-144480000D02*
G75*
G03X83675394Y-144480000I-502894J0D01*
G01*
X81651040Y-145623000D02*
X81651040Y-143337000D01*
X83426500Y-145623000D02*
X81651040Y-145623000D01*
X83426500Y-147337500D02*
X83426500Y-145623000D01*
X83934500Y-142448000D02*
X83934500Y-141622500D01*
X83426500Y-142448000D02*
X83934500Y-142448000D01*
X83426500Y-143337000D02*
X83426500Y-142448000D01*
X81651040Y-143337000D02*
X83426500Y-143337000D01*
X83934500Y-141622500D02*
X116573500Y-141622500D01*
X116573500Y-141622500D02*
X116573500Y-143337000D01*
X116573500Y-143337000D02*
X118348960Y-143337000D01*
X118348960Y-143337000D02*
X118348960Y-145623000D01*
X118348960Y-145623000D02*
X116573500Y-145623000D01*
X116573500Y-145623000D02*
X116573500Y-147337500D01*
X116573500Y-147337500D02*
X83426500Y-147337500D01*
X117330394Y-144480000D02*
G75*
G03X117330394Y-144480000I-502894J0D01*
G01*
X116116300Y-144480000D02*
X117538700Y-144480000D01*
X116827500Y-145191200D02*
X116827500Y-143768800D01*
X123075900Y-145191200D02*
X123075900Y-143768800D01*
X122364700Y-144480000D02*
X123787100Y-144480000D01*
X123578794Y-144480000D02*
G75*
G03X123578794Y-144480000I-502894J0D01*
G01*
X121554440Y-145623000D02*
X121554440Y-143337000D01*
X123329900Y-145623000D02*
X121554440Y-145623000D01*
X123329900Y-147337500D02*
X123329900Y-145623000D01*
X123837900Y-142448000D02*
X123837900Y-141622500D01*
X123329900Y-142448000D02*
X123837900Y-142448000D01*
X123329900Y-143337000D02*
X123329900Y-142448000D01*
X121554440Y-143337000D02*
X123329900Y-143337000D01*
X123837900Y-141622500D02*
X150126900Y-141622500D01*
X150126900Y-141622500D02*
X150126900Y-143337000D01*
X150126900Y-143337000D02*
X151902360Y-143337000D01*
X151902360Y-143337000D02*
X151902360Y-145623000D01*
X151902360Y-145623000D02*
X150126900Y-145623000D01*
X150126900Y-145623000D02*
X150126900Y-147337500D01*
X150126900Y-147337500D02*
X123329900Y-147337500D01*
X150883794Y-144480000D02*
G75*
G03X150883794Y-144480000I-502894J0D01*
G01*
X149669700Y-144480000D02*
X151092100Y-144480000D01*
X150380900Y-145191200D02*
X150380900Y-143768800D01*
D11*
X62726667Y-140029524D02*
X62726667Y-140936667D01*
X62666191Y-141118095D01*
X62545239Y-141239048D01*
X62363810Y-141299524D01*
X62242858Y-141299524D01*
X63875715Y-140452857D02*
X63875715Y-141299524D01*
X63573334Y-139969048D02*
X63270953Y-140876190D01*
X64057143Y-140876190D01*
X77121905Y-145904524D02*
X77908095Y-145904524D01*
X77484762Y-146388333D01*
X77666190Y-146388333D01*
X77787143Y-146448810D01*
X77847619Y-146509286D01*
X77908095Y-146630238D01*
X77908095Y-146932619D01*
X77847619Y-147053571D01*
X77787143Y-147114048D01*
X77666190Y-147174524D01*
X77303333Y-147174524D01*
X77182381Y-147114048D01*
X77121905Y-147053571D01*
X78512857Y-147174524D02*
X78754762Y-147174524D01*
X78875714Y-147114048D01*
X78936190Y-147053571D01*
X79057143Y-146872143D01*
X79117619Y-146630238D01*
X79117619Y-146146429D01*
X79057143Y-146025476D01*
X78996667Y-145965000D01*
X78875714Y-145904524D01*
X78633810Y-145904524D01*
X78512857Y-145965000D01*
X78452381Y-146025476D01*
X78391905Y-146146429D01*
X78391905Y-146448810D01*
X78452381Y-146569762D01*
X78512857Y-146630238D01*
X78633810Y-146690714D01*
X78875714Y-146690714D01*
X78996667Y-146630238D01*
X79057143Y-146569762D01*
X79117619Y-146448810D01*
X48964524Y-141454524D02*
X49085476Y-141454524D01*
X49206428Y-141515000D01*
X49266905Y-141575476D01*
X49327381Y-141696429D01*
X49387857Y-141938333D01*
X49387857Y-142240714D01*
X49327381Y-142482619D01*
X49266905Y-142603571D01*
X49206428Y-142664048D01*
X49085476Y-142724524D01*
X48964524Y-142724524D01*
X48843571Y-142664048D01*
X48783095Y-142603571D01*
X48722619Y-142482619D01*
X48662143Y-142240714D01*
X48662143Y-141938333D01*
X48722619Y-141696429D01*
X48783095Y-141575476D01*
X48843571Y-141515000D01*
X48964524Y-141454524D01*
D10*
X61361905Y-79377381D02*
X61361905Y-78377381D01*
X61742858Y-78377381D01*
X61838096Y-78425000D01*
X61885715Y-78472619D01*
X61933334Y-78567857D01*
X61933334Y-78710714D01*
X61885715Y-78805952D01*
X61838096Y-78853571D01*
X61742858Y-78901190D01*
X61361905Y-78901190D01*
X62314286Y-78472619D02*
X62361905Y-78425000D01*
X62457143Y-78377381D01*
X62695239Y-78377381D01*
X62790477Y-78425000D01*
X62838096Y-78472619D01*
X62885715Y-78567857D01*
X62885715Y-78663095D01*
X62838096Y-78805952D01*
X62266667Y-79377381D01*
X62885715Y-79377381D01*
X73811905Y-79352381D02*
X73811905Y-78352381D01*
X74192858Y-78352381D01*
X74288096Y-78400000D01*
X74335715Y-78447619D01*
X74383334Y-78542857D01*
X74383334Y-78685714D01*
X74335715Y-78780952D01*
X74288096Y-78828571D01*
X74192858Y-78876190D01*
X73811905Y-78876190D01*
X75335715Y-79352381D02*
X74764286Y-79352381D01*
X75050000Y-79352381D02*
X75050000Y-78352381D01*
X74954762Y-78495238D01*
X74859524Y-78590476D01*
X74764286Y-78638095D01*
X137121905Y-79352381D02*
X137121905Y-78352381D01*
X137502858Y-78352381D01*
X137598096Y-78400000D01*
X137645715Y-78447619D01*
X137693334Y-78542857D01*
X137693334Y-78685714D01*
X137645715Y-78780952D01*
X137598096Y-78828571D01*
X137502858Y-78876190D01*
X137121905Y-78876190D01*
X138026667Y-78352381D02*
X138645715Y-78352381D01*
X138312381Y-78733333D01*
X138455239Y-78733333D01*
X138550477Y-78780952D01*
X138598096Y-78828571D01*
X138645715Y-78923810D01*
X138645715Y-79161905D01*
X138598096Y-79257143D01*
X138550477Y-79304762D01*
X138455239Y-79352381D01*
X138169524Y-79352381D01*
X138074286Y-79304762D01*
X138026667Y-79257143D01*
X124737905Y-79446381D02*
X124737905Y-78446381D01*
X125118858Y-78446381D01*
X125214096Y-78494000D01*
X125261715Y-78541619D01*
X125309334Y-78636857D01*
X125309334Y-78779714D01*
X125261715Y-78874952D01*
X125214096Y-78922571D01*
X125118858Y-78970190D01*
X124737905Y-78970190D01*
X126166477Y-78779714D02*
X126166477Y-79446381D01*
X125928381Y-78398762D02*
X125690286Y-79113048D01*
X126309334Y-79113048D01*
X143521334Y-81307143D02*
X143473715Y-81354762D01*
X143330858Y-81402381D01*
X143235620Y-81402381D01*
X143092762Y-81354762D01*
X142997524Y-81259524D01*
X142949905Y-81164286D01*
X142902286Y-80973810D01*
X142902286Y-80830952D01*
X142949905Y-80640476D01*
X142997524Y-80545238D01*
X143092762Y-80450000D01*
X143235620Y-80402381D01*
X143330858Y-80402381D01*
X143473715Y-80450000D01*
X143521334Y-80497619D01*
X144473715Y-81402381D02*
X143902286Y-81402381D01*
X144188000Y-81402381D02*
X144188000Y-80402381D01*
X144092762Y-80545238D01*
X143997524Y-80640476D01*
X143902286Y-80688095D01*
X55891334Y-81370643D02*
X55843715Y-81418262D01*
X55700858Y-81465881D01*
X55605620Y-81465881D01*
X55462762Y-81418262D01*
X55367524Y-81323024D01*
X55319905Y-81227786D01*
X55272286Y-81037310D01*
X55272286Y-80894452D01*
X55319905Y-80703976D01*
X55367524Y-80608738D01*
X55462762Y-80513500D01*
X55605620Y-80465881D01*
X55700858Y-80465881D01*
X55843715Y-80513500D01*
X55891334Y-80561119D01*
X56272286Y-80561119D02*
X56319905Y-80513500D01*
X56415143Y-80465881D01*
X56653239Y-80465881D01*
X56748477Y-80513500D01*
X56796096Y-80561119D01*
X56843715Y-80656357D01*
X56843715Y-80751595D01*
X56796096Y-80894452D01*
X56224667Y-81465881D01*
X56843715Y-81465881D01*
X143172167Y-78973571D02*
X142838833Y-78973571D01*
X142838833Y-79497381D02*
X142838833Y-78497381D01*
X143315024Y-78497381D01*
X144029310Y-78973571D02*
X144172167Y-79021190D01*
X144219786Y-79068810D01*
X144267405Y-79164048D01*
X144267405Y-79306905D01*
X144219786Y-79402143D01*
X144172167Y-79449762D01*
X144076929Y-79497381D01*
X143695976Y-79497381D01*
X143695976Y-78497381D01*
X144029310Y-78497381D01*
X144124548Y-78545000D01*
X144172167Y-78592619D01*
X144219786Y-78687857D01*
X144219786Y-78783095D01*
X144172167Y-78878333D01*
X144124548Y-78925952D01*
X144029310Y-78973571D01*
X143695976Y-78973571D01*
X145219786Y-79497381D02*
X144648357Y-79497381D01*
X144934071Y-79497381D02*
X144934071Y-78497381D01*
X144838833Y-78640238D01*
X144743595Y-78735476D01*
X144648357Y-78783095D01*
X55097667Y-79037071D02*
X54764333Y-79037071D01*
X54764333Y-79560881D02*
X54764333Y-78560881D01*
X55240524Y-78560881D01*
X55954810Y-79037071D02*
X56097667Y-79084690D01*
X56145286Y-79132310D01*
X56192905Y-79227548D01*
X56192905Y-79370405D01*
X56145286Y-79465643D01*
X56097667Y-79513262D01*
X56002429Y-79560881D01*
X55621476Y-79560881D01*
X55621476Y-78560881D01*
X55954810Y-78560881D01*
X56050048Y-78608500D01*
X56097667Y-78656119D01*
X56145286Y-78751357D01*
X56145286Y-78846595D01*
X56097667Y-78941833D01*
X56050048Y-78989452D01*
X55954810Y-79037071D01*
X55621476Y-79037071D01*
X56573857Y-78656119D02*
X56621476Y-78608500D01*
X56716714Y-78560881D01*
X56954810Y-78560881D01*
X57050048Y-78608500D01*
X57097667Y-78656119D01*
X57145286Y-78751357D01*
X57145286Y-78846595D01*
X57097667Y-78989452D01*
X56526238Y-79560881D01*
X57145286Y-79560881D01*
X117152381Y-137516666D02*
X116676190Y-137850000D01*
X117152381Y-138088095D02*
X116152381Y-138088095D01*
X116152381Y-137707142D01*
X116200000Y-137611904D01*
X116247619Y-137564285D01*
X116342857Y-137516666D01*
X116485714Y-137516666D01*
X116580952Y-137564285D01*
X116628571Y-137611904D01*
X116676190Y-137707142D01*
X116676190Y-138088095D01*
X117152381Y-136564285D02*
X117152381Y-137135714D01*
X117152381Y-136850000D02*
X116152381Y-136850000D01*
X116295238Y-136945238D01*
X116390476Y-137040476D01*
X116438095Y-137135714D01*
X120688095Y-139252381D02*
X120688095Y-140061905D01*
X120735714Y-140157143D01*
X120783333Y-140204762D01*
X120878571Y-140252381D01*
X121069048Y-140252381D01*
X121164286Y-140204762D01*
X121211905Y-140157143D01*
X121259524Y-140061905D01*
X121259524Y-139252381D01*
X122259524Y-140252381D02*
X121688095Y-140252381D01*
X121973809Y-140252381D02*
X121973809Y-139252381D01*
X121878571Y-139395238D01*
X121783333Y-139490476D01*
X121688095Y-139538095D01*
D11*
X99526667Y-139979524D02*
X99526667Y-140886667D01*
X99466191Y-141068095D01*
X99345239Y-141189048D01*
X99163810Y-141249524D01*
X99042858Y-141249524D01*
X100736191Y-139979524D02*
X100131429Y-139979524D01*
X100070953Y-140584286D01*
X100131429Y-140523810D01*
X100252381Y-140463333D01*
X100554762Y-140463333D01*
X100675715Y-140523810D01*
X100736191Y-140584286D01*
X100796667Y-140705238D01*
X100796667Y-141007619D01*
X100736191Y-141128571D01*
X100675715Y-141189048D01*
X100554762Y-141249524D01*
X100252381Y-141249524D01*
X100131429Y-141189048D01*
X100070953Y-141128571D01*
X81712143Y-141752857D02*
X81712143Y-142599524D01*
X81409762Y-141269048D02*
X81107381Y-142176190D01*
X81893571Y-142176190D01*
X82619286Y-141329524D02*
X82740238Y-141329524D01*
X82861190Y-141390000D01*
X82921667Y-141450476D01*
X82982143Y-141571429D01*
X83042619Y-141813333D01*
X83042619Y-142115714D01*
X82982143Y-142357619D01*
X82921667Y-142478571D01*
X82861190Y-142539048D01*
X82740238Y-142599524D01*
X82619286Y-142599524D01*
X82498333Y-142539048D01*
X82437857Y-142478571D01*
X82377381Y-142357619D01*
X82316905Y-142115714D01*
X82316905Y-141813333D01*
X82377381Y-141571429D01*
X82437857Y-141450476D01*
X82498333Y-141390000D01*
X82619286Y-141329524D01*
X107796905Y-140004524D02*
X108643571Y-140004524D01*
X108099286Y-141274524D01*
X109308810Y-140548810D02*
X109187857Y-140488333D01*
X109127381Y-140427857D01*
X109066905Y-140306905D01*
X109066905Y-140246429D01*
X109127381Y-140125476D01*
X109187857Y-140065000D01*
X109308810Y-140004524D01*
X109550714Y-140004524D01*
X109671667Y-140065000D01*
X109732143Y-140125476D01*
X109792619Y-140246429D01*
X109792619Y-140306905D01*
X109732143Y-140427857D01*
X109671667Y-140488333D01*
X109550714Y-140548810D01*
X109308810Y-140548810D01*
X109187857Y-140609286D01*
X109127381Y-140669762D01*
X109066905Y-140790714D01*
X109066905Y-141032619D01*
X109127381Y-141153571D01*
X109187857Y-141214048D01*
X109308810Y-141274524D01*
X109550714Y-141274524D01*
X109671667Y-141214048D01*
X109732143Y-141153571D01*
X109792619Y-141032619D01*
X109792619Y-140790714D01*
X109732143Y-140669762D01*
X109671667Y-140609286D01*
X109550714Y-140548810D01*
X136626667Y-139904524D02*
X136626667Y-140811667D01*
X136566191Y-140993095D01*
X136445239Y-141114048D01*
X136263810Y-141174524D01*
X136142858Y-141174524D01*
X137775715Y-139904524D02*
X137533810Y-139904524D01*
X137412858Y-139965000D01*
X137352381Y-140025476D01*
X137231429Y-140206905D01*
X137170953Y-140448810D01*
X137170953Y-140932619D01*
X137231429Y-141053571D01*
X137291905Y-141114048D01*
X137412858Y-141174524D01*
X137654762Y-141174524D01*
X137775715Y-141114048D01*
X137836191Y-141053571D01*
X137896667Y-140932619D01*
X137896667Y-140630238D01*
X137836191Y-140509286D01*
X137775715Y-140448810D01*
X137654762Y-140388333D01*
X137412858Y-140388333D01*
X137291905Y-140448810D01*
X137231429Y-140509286D01*
X137170953Y-140630238D01*
X121349286Y-142098810D02*
X121228333Y-142038333D01*
X121167857Y-141977857D01*
X121107381Y-141856905D01*
X121107381Y-141796429D01*
X121167857Y-141675476D01*
X121228333Y-141615000D01*
X121349286Y-141554524D01*
X121591190Y-141554524D01*
X121712143Y-141615000D01*
X121772619Y-141675476D01*
X121833095Y-141796429D01*
X121833095Y-141856905D01*
X121772619Y-141977857D01*
X121712143Y-142038333D01*
X121591190Y-142098810D01*
X121349286Y-142098810D01*
X121228333Y-142159286D01*
X121167857Y-142219762D01*
X121107381Y-142340714D01*
X121107381Y-142582619D01*
X121167857Y-142703571D01*
X121228333Y-142764048D01*
X121349286Y-142824524D01*
X121591190Y-142824524D01*
X121712143Y-142764048D01*
X121772619Y-142703571D01*
X121833095Y-142582619D01*
X121833095Y-142340714D01*
X121772619Y-142219762D01*
X121712143Y-142159286D01*
X121591190Y-142098810D01*
X122619286Y-141554524D02*
X122740238Y-141554524D01*
X122861190Y-141615000D01*
X122921667Y-141675476D01*
X122982143Y-141796429D01*
X123042619Y-142038333D01*
X123042619Y-142340714D01*
X122982143Y-142582619D01*
X122921667Y-142703571D01*
X122861190Y-142764048D01*
X122740238Y-142824524D01*
X122619286Y-142824524D01*
X122498333Y-142764048D01*
X122437857Y-142703571D01*
X122377381Y-142582619D01*
X122316905Y-142340714D01*
X122316905Y-142038333D01*
X122377381Y-141796429D01*
X122437857Y-141675476D01*
X122498333Y-141615000D01*
X122619286Y-141554524D01*
X151328333Y-147249524D02*
X150602619Y-147249524D01*
X150965476Y-147249524D02*
X150965476Y-145979524D01*
X150844524Y-146160952D01*
X150723571Y-146281905D01*
X150602619Y-146342381D01*
X152537857Y-147249524D02*
X151812143Y-147249524D01*
X152175000Y-147249524D02*
X152175000Y-145979524D01*
X152054048Y-146160952D01*
X151933095Y-146281905D01*
X151812143Y-146342381D01*
X153142619Y-147249524D02*
X153384524Y-147249524D01*
X153505476Y-147189048D01*
X153565952Y-147128571D01*
X153686905Y-146947143D01*
X153747381Y-146705238D01*
X153747381Y-146221429D01*
X153686905Y-146100476D01*
X153626429Y-146040000D01*
X153505476Y-145979524D01*
X153263572Y-145979524D01*
X153142619Y-146040000D01*
X153082143Y-146100476D01*
X153021667Y-146221429D01*
X153021667Y-146523810D01*
X153082143Y-146644762D01*
X153142619Y-146705238D01*
X153263572Y-146765714D01*
X153505476Y-146765714D01*
X153626429Y-146705238D01*
X153686905Y-146644762D01*
X153747381Y-146523810D01*
M02*
