G04 #@! TF.FileFunction,Soldermask,Top*
%FSLAX46Y46*%
G04 Gerber Fmt 4.6, Leading zero omitted, Abs format (unit mm)*
G04 Created by KiCad (PCBNEW 4.0.1-stable) date 2017-04-25 2:34:53 PM*
%MOMM*%
G01*
G04 APERTURE LIST*
%ADD10C,0.150000*%
%ADD11R,1.244600X2.727960*%
%ADD12C,2.258000*%
%ADD13R,2.208000X2.208000*%
%ADD14O,2.208000X2.208000*%
%ADD15C,6.908000*%
%ADD16R,1.508000X1.758000*%
%ADD17R,1.208000X1.808000*%
%ADD18R,1.808000X1.208000*%
%ADD19R,1.728000X1.158000*%
G04 APERTURE END LIST*
D10*
D11*
X63906600Y-142116020D03*
X63906600Y-144843980D03*
X65176600Y-142116020D03*
X65176600Y-144843980D03*
X66446600Y-142116020D03*
X66446600Y-144843980D03*
X67716600Y-142116020D03*
X67716600Y-144843980D03*
X68986600Y-142116020D03*
X68986600Y-144843980D03*
X51206600Y-142116020D03*
X51206600Y-144843980D03*
X52476600Y-142116020D03*
X52476600Y-144843980D03*
X53746600Y-142116020D03*
X53746600Y-144843980D03*
X55016600Y-142116020D03*
X55016600Y-144843980D03*
X56286600Y-142116020D03*
X56286600Y-144843980D03*
X75336600Y-144843980D03*
X75336600Y-142116020D03*
X74066600Y-144843980D03*
X74066600Y-142116020D03*
X72796600Y-144843980D03*
X72796600Y-142116020D03*
X71526600Y-144843980D03*
X71526600Y-142116020D03*
X70256600Y-144843980D03*
X70256600Y-142116020D03*
X62636600Y-144843980D03*
X62636600Y-142116020D03*
X61366600Y-144843980D03*
X61366600Y-142116020D03*
X60096600Y-144843980D03*
X60096600Y-142116020D03*
X58826600Y-144843980D03*
X58826600Y-142116020D03*
X57556600Y-144843980D03*
X57556600Y-142116020D03*
D12*
X49619100Y-143480000D03*
X76924100Y-143480000D03*
D13*
X64483180Y-79687620D03*
D14*
X67023180Y-79687620D03*
X64483180Y-82227620D03*
X67023180Y-82227620D03*
X64483180Y-84767620D03*
X67023180Y-84767620D03*
X64483180Y-87307620D03*
X67023180Y-87307620D03*
X64483180Y-89847620D03*
X67023180Y-89847620D03*
X64483180Y-92387620D03*
X67023180Y-92387620D03*
X64483180Y-94927620D03*
X67023180Y-94927620D03*
X64483180Y-97467620D03*
X67023180Y-97467620D03*
X64483180Y-100007620D03*
X67023180Y-100007620D03*
X64483180Y-102547620D03*
X67023180Y-102547620D03*
X64483180Y-105087620D03*
X67023180Y-105087620D03*
X64483180Y-107627620D03*
X67023180Y-107627620D03*
X64483180Y-110167620D03*
X67023180Y-110167620D03*
X64483180Y-112707620D03*
X67023180Y-112707620D03*
X64483180Y-115247620D03*
X67023180Y-115247620D03*
X64483180Y-117787620D03*
X67023180Y-117787620D03*
X67023180Y-120327620D03*
X64483180Y-120327620D03*
D13*
X69588580Y-79687620D03*
D14*
X72128580Y-79687620D03*
X69588580Y-82227620D03*
X72128580Y-82227620D03*
X69588580Y-84767620D03*
X72128580Y-84767620D03*
X69588580Y-87307620D03*
X72128580Y-87307620D03*
X69588580Y-89847620D03*
X72128580Y-89847620D03*
X69588580Y-92387620D03*
X72128580Y-92387620D03*
X69588580Y-94927620D03*
X72128580Y-94927620D03*
X69588580Y-97467620D03*
X72128580Y-97467620D03*
X69588580Y-100007620D03*
X72128580Y-100007620D03*
X69588580Y-102547620D03*
X72128580Y-102547620D03*
X69588580Y-105087620D03*
X72128580Y-105087620D03*
X69588580Y-107627620D03*
X72128580Y-107627620D03*
X69588580Y-110167620D03*
X72128580Y-110167620D03*
X69588580Y-112707620D03*
X72128580Y-112707620D03*
X69588580Y-115247620D03*
X72128580Y-115247620D03*
X69588580Y-117787620D03*
X72128580Y-117787620D03*
X72128580Y-120327620D03*
X69588580Y-120327620D03*
D13*
X135448240Y-120314920D03*
D14*
X132908240Y-120314920D03*
X135448240Y-117774920D03*
X132908240Y-117774920D03*
X135448240Y-115234920D03*
X132908240Y-115234920D03*
X135448240Y-112694920D03*
X132908240Y-112694920D03*
X135448240Y-110154920D03*
X132908240Y-110154920D03*
X135448240Y-107614920D03*
X132908240Y-107614920D03*
X135448240Y-105074920D03*
X132908240Y-105074920D03*
X135448240Y-102534920D03*
X132908240Y-102534920D03*
X135448240Y-99994920D03*
X132908240Y-99994920D03*
X135448240Y-97454920D03*
X132908240Y-97454920D03*
X135448240Y-94914920D03*
X132908240Y-94914920D03*
X135448240Y-92374920D03*
X132908240Y-92374920D03*
X135448240Y-89834920D03*
X132908240Y-89834920D03*
X135448240Y-87294920D03*
X132908240Y-87294920D03*
X135448240Y-84754920D03*
X132908240Y-84754920D03*
X135448240Y-82214920D03*
X132908240Y-82214920D03*
X132908240Y-79674920D03*
X135448240Y-79674920D03*
D13*
X130429200Y-120325080D03*
D14*
X127889200Y-120325080D03*
X130429200Y-117785080D03*
X127889200Y-117785080D03*
X130429200Y-115245080D03*
X127889200Y-115245080D03*
X130429200Y-112705080D03*
X127889200Y-112705080D03*
X130429200Y-110165080D03*
X127889200Y-110165080D03*
X130429200Y-107625080D03*
X127889200Y-107625080D03*
X130429200Y-105085080D03*
X127889200Y-105085080D03*
X130429200Y-102545080D03*
X127889200Y-102545080D03*
X130429200Y-100005080D03*
X127889200Y-100005080D03*
X130429200Y-97465080D03*
X127889200Y-97465080D03*
X130429200Y-94925080D03*
X127889200Y-94925080D03*
X130429200Y-92385080D03*
X127889200Y-92385080D03*
X130429200Y-89845080D03*
X127889200Y-89845080D03*
X130429200Y-87305080D03*
X127889200Y-87305080D03*
X130429200Y-84765080D03*
X127889200Y-84765080D03*
X130429200Y-82225080D03*
X127889200Y-82225080D03*
X127889200Y-79685080D03*
X130429200Y-79685080D03*
D15*
X149000000Y-81000000D03*
X51000000Y-81000000D03*
X149000000Y-132000000D03*
X51000000Y-132000000D03*
D16*
X140000000Y-81000000D03*
X142000000Y-81000000D03*
X60000000Y-81000000D03*
X58000000Y-81000000D03*
D17*
X140050000Y-79000000D03*
X141950000Y-79000000D03*
X59950000Y-79000000D03*
X58050000Y-79000000D03*
D18*
X118350000Y-138300000D03*
X118350000Y-136400000D03*
D19*
X122760000Y-138300000D03*
X122760000Y-137350000D03*
X122760000Y-136400000D03*
X120140000Y-136400000D03*
X120140000Y-138300000D03*
D11*
X86030000Y-144843980D03*
X86030000Y-142116020D03*
X94920000Y-144843980D03*
X94920000Y-142116020D03*
X93650000Y-144843980D03*
X93650000Y-142116020D03*
X92380000Y-144843980D03*
X92380000Y-142116020D03*
X91110000Y-144843980D03*
X91110000Y-142116020D03*
X103810000Y-142116020D03*
X103810000Y-144843980D03*
X105080000Y-142116020D03*
X105080000Y-144843980D03*
X106350000Y-142116020D03*
X106350000Y-144843980D03*
X107620000Y-142116020D03*
X107620000Y-144843980D03*
X108890000Y-142116020D03*
X108890000Y-144843980D03*
X84760000Y-142116020D03*
X84760000Y-144843980D03*
X87300000Y-142116020D03*
X87300000Y-144843980D03*
X88570000Y-142116020D03*
X88570000Y-144843980D03*
X89840000Y-142116020D03*
X89840000Y-144843980D03*
X96190000Y-142116020D03*
X96190000Y-144843980D03*
X115240000Y-144843980D03*
X115240000Y-142116020D03*
X113970000Y-144843980D03*
X113970000Y-142116020D03*
X112700000Y-144843980D03*
X112700000Y-142116020D03*
X111430000Y-144843980D03*
X111430000Y-142116020D03*
X110160000Y-144843980D03*
X110160000Y-142116020D03*
X102540000Y-144843980D03*
X102540000Y-142116020D03*
X101270000Y-144843980D03*
X101270000Y-142116020D03*
X100000000Y-144843980D03*
X100000000Y-142116020D03*
X98730000Y-144843980D03*
X98730000Y-142116020D03*
X97460000Y-144843980D03*
X97460000Y-142116020D03*
D12*
X83172500Y-143480000D03*
X116827500Y-143480000D03*
D11*
X137363400Y-142116020D03*
X137363400Y-144843980D03*
X138633400Y-142116020D03*
X138633400Y-144843980D03*
X139903400Y-142116020D03*
X139903400Y-144843980D03*
X141173400Y-142116020D03*
X141173400Y-144843980D03*
X142443400Y-142116020D03*
X142443400Y-144843980D03*
X124663400Y-142116020D03*
X124663400Y-144843980D03*
X125933400Y-142116020D03*
X125933400Y-144843980D03*
X127203400Y-142116020D03*
X127203400Y-144843980D03*
X128473400Y-142116020D03*
X128473400Y-144843980D03*
X129743400Y-142116020D03*
X129743400Y-144843980D03*
X148793400Y-144843980D03*
X148793400Y-142116020D03*
X147523400Y-144843980D03*
X147523400Y-142116020D03*
X146253400Y-144843980D03*
X146253400Y-142116020D03*
X144983400Y-144843980D03*
X144983400Y-142116020D03*
X143713400Y-144843980D03*
X143713400Y-142116020D03*
X136093400Y-144843980D03*
X136093400Y-142116020D03*
X134823400Y-144843980D03*
X134823400Y-142116020D03*
X133553400Y-144843980D03*
X133553400Y-142116020D03*
X132283400Y-144843980D03*
X132283400Y-142116020D03*
X131013400Y-144843980D03*
X131013400Y-142116020D03*
D12*
X123075900Y-143480000D03*
X150380900Y-143480000D03*
M02*
