G04 #@! TF.FileFunction,Legend,Bot*
%FSLAX46Y46*%
G04 Gerber Fmt 4.6, Leading zero omitted, Abs format (unit mm)*
G04 Created by KiCad (PCBNEW 4.0.6) date 06/26/19 12:45:04*
%MOMM*%
%LPD*%
G01*
G04 APERTURE LIST*
%ADD10C,0.150000*%
%ADD11C,0.099060*%
%ADD12C,0.203200*%
G04 APERTURE END LIST*
D10*
D11*
X77699260Y-150900000D02*
X48900740Y-150900000D01*
X77699260Y-150900000D02*
X77699260Y-145312000D01*
X48900740Y-150900000D02*
X48900740Y-145312000D01*
X77699260Y-145312000D02*
X48900740Y-145312000D01*
X117574260Y-150900000D02*
X82425740Y-150900000D01*
X117574260Y-150900000D02*
X117574260Y-145312000D01*
X82425740Y-150900000D02*
X82425740Y-145312000D01*
X117574260Y-145312000D02*
X82425740Y-145312000D01*
X151099260Y-150900000D02*
X122300740Y-150900000D01*
X151099260Y-150900000D02*
X151099260Y-145312000D01*
X122300740Y-150900000D02*
X122300740Y-145312000D01*
X151099260Y-145312000D02*
X122300740Y-145312000D01*
D12*
X63638667Y-152502619D02*
X63638667Y-153228333D01*
X63687047Y-153373476D01*
X63783809Y-153470238D01*
X63928952Y-153518619D01*
X64025714Y-153518619D01*
X62719429Y-152841286D02*
X62719429Y-153518619D01*
X62961333Y-152454238D02*
X63203238Y-153179952D01*
X62574286Y-153179952D01*
X100338667Y-152248619D02*
X100338667Y-152974333D01*
X100387047Y-153119476D01*
X100483809Y-153216238D01*
X100628952Y-153264619D01*
X100725714Y-153264619D01*
X99371048Y-152248619D02*
X99854857Y-152248619D01*
X99903238Y-152732429D01*
X99854857Y-152684048D01*
X99758095Y-152635667D01*
X99516191Y-152635667D01*
X99419429Y-152684048D01*
X99371048Y-152732429D01*
X99322667Y-152829190D01*
X99322667Y-153071095D01*
X99371048Y-153167857D01*
X99419429Y-153216238D01*
X99516191Y-153264619D01*
X99758095Y-153264619D01*
X99854857Y-153216238D01*
X99903238Y-153167857D01*
X137038667Y-152502619D02*
X137038667Y-153228333D01*
X137087047Y-153373476D01*
X137183809Y-153470238D01*
X137328952Y-153518619D01*
X137425714Y-153518619D01*
X136119429Y-152502619D02*
X136312952Y-152502619D01*
X136409714Y-152551000D01*
X136458095Y-152599381D01*
X136554857Y-152744524D01*
X136603238Y-152938048D01*
X136603238Y-153325095D01*
X136554857Y-153421857D01*
X136506476Y-153470238D01*
X136409714Y-153518619D01*
X136216191Y-153518619D01*
X136119429Y-153470238D01*
X136071048Y-153421857D01*
X136022667Y-153325095D01*
X136022667Y-153083190D01*
X136071048Y-152986429D01*
X136119429Y-152938048D01*
X136216191Y-152889667D01*
X136409714Y-152889667D01*
X136506476Y-152938048D01*
X136554857Y-152986429D01*
X136603238Y-153083190D01*
M02*
