G04 #@! TF.FileFunction,Legend,Top*
%FSLAX46Y46*%
G04 Gerber Fmt 4.6, Leading zero omitted, Abs format (unit mm)*
G04 Created by KiCad (PCBNEW 4.0.1-stable) date 2017-03-20 10:11:16 AM*
%MOMM*%
G01*
G04 APERTURE LIST*
%ADD10C,0.150000*%
%ADD11C,0.200000*%
%ADD12C,0.120000*%
%ADD13C,0.127000*%
%ADD14C,0.101600*%
G04 APERTURE END LIST*
D10*
D11*
X127585095Y-131710381D02*
X127775571Y-132710381D01*
X127927952Y-131996095D01*
X128080333Y-132710381D01*
X128270809Y-131710381D01*
X128575571Y-132710381D02*
X128575571Y-131710381D01*
X128918428Y-132710381D02*
X128918428Y-132186571D01*
X128880333Y-132091333D01*
X128804143Y-132043714D01*
X128689857Y-132043714D01*
X128613666Y-132091333D01*
X128575571Y-132138952D01*
X129604143Y-132662762D02*
X129527953Y-132710381D01*
X129375572Y-132710381D01*
X129299381Y-132662762D01*
X129261286Y-132567524D01*
X129261286Y-132186571D01*
X129299381Y-132091333D01*
X129375572Y-132043714D01*
X129527953Y-132043714D01*
X129604143Y-132091333D01*
X129642238Y-132186571D01*
X129642238Y-132281810D01*
X129261286Y-132377048D01*
X130289857Y-132662762D02*
X130213667Y-132710381D01*
X130061286Y-132710381D01*
X129985095Y-132662762D01*
X129947000Y-132567524D01*
X129947000Y-132186571D01*
X129985095Y-132091333D01*
X130061286Y-132043714D01*
X130213667Y-132043714D01*
X130289857Y-132091333D01*
X130327952Y-132186571D01*
X130327952Y-132281810D01*
X129947000Y-132377048D01*
X130785095Y-132710381D02*
X130708904Y-132662762D01*
X130670809Y-132567524D01*
X130670809Y-131710381D01*
X131394619Y-132662762D02*
X131318429Y-132710381D01*
X131166048Y-132710381D01*
X131089857Y-132662762D01*
X131051762Y-132567524D01*
X131051762Y-132186571D01*
X131089857Y-132091333D01*
X131166048Y-132043714D01*
X131318429Y-132043714D01*
X131394619Y-132091333D01*
X131432714Y-132186571D01*
X131432714Y-132281810D01*
X131051762Y-132377048D01*
X131775571Y-132710381D02*
X131775571Y-132043714D01*
X131775571Y-132234190D02*
X131813666Y-132138952D01*
X131851762Y-132091333D01*
X131927952Y-132043714D01*
X132004143Y-132043714D01*
X133261286Y-132710381D02*
X132880333Y-132710381D01*
X132880333Y-131710381D01*
X133870809Y-132710381D02*
X133870809Y-132186571D01*
X133832714Y-132091333D01*
X133756524Y-132043714D01*
X133604143Y-132043714D01*
X133527952Y-132091333D01*
X133870809Y-132662762D02*
X133794619Y-132710381D01*
X133604143Y-132710381D01*
X133527952Y-132662762D01*
X133489857Y-132567524D01*
X133489857Y-132472286D01*
X133527952Y-132377048D01*
X133604143Y-132329429D01*
X133794619Y-132329429D01*
X133870809Y-132281810D01*
X134251762Y-132710381D02*
X134251762Y-131710381D01*
X134251762Y-132091333D02*
X134327953Y-132043714D01*
X134480334Y-132043714D01*
X134556524Y-132091333D01*
X134594619Y-132138952D01*
X134632715Y-132234190D01*
X134632715Y-132519905D01*
X134594619Y-132615143D01*
X134556524Y-132662762D01*
X134480334Y-132710381D01*
X134327953Y-132710381D01*
X134251762Y-132662762D01*
X135013667Y-132662762D02*
X135013667Y-132710381D01*
X134975572Y-132805619D01*
X134937477Y-132853238D01*
X135927953Y-131805619D02*
X135966048Y-131758000D01*
X136042239Y-131710381D01*
X136232715Y-131710381D01*
X136308905Y-131758000D01*
X136347001Y-131805619D01*
X136385096Y-131900857D01*
X136385096Y-131996095D01*
X136347001Y-132138952D01*
X135889858Y-132710381D01*
X136385096Y-132710381D01*
X136880334Y-131710381D02*
X136956525Y-131710381D01*
X137032715Y-131758000D01*
X137070810Y-131805619D01*
X137108906Y-131900857D01*
X137147001Y-132091333D01*
X137147001Y-132329429D01*
X137108906Y-132519905D01*
X137070810Y-132615143D01*
X137032715Y-132662762D01*
X136956525Y-132710381D01*
X136880334Y-132710381D01*
X136804144Y-132662762D01*
X136766048Y-132615143D01*
X136727953Y-132519905D01*
X136689858Y-132329429D01*
X136689858Y-132091333D01*
X136727953Y-131900857D01*
X136766048Y-131805619D01*
X136804144Y-131758000D01*
X136880334Y-131710381D01*
X137908906Y-132710381D02*
X137451763Y-132710381D01*
X137680334Y-132710381D02*
X137680334Y-131710381D01*
X137604144Y-131853238D01*
X137527953Y-131948476D01*
X137451763Y-131996095D01*
X138175573Y-131710381D02*
X138670811Y-131710381D01*
X138404144Y-132091333D01*
X138518430Y-132091333D01*
X138594620Y-132138952D01*
X138632716Y-132186571D01*
X138670811Y-132281810D01*
X138670811Y-132519905D01*
X138632716Y-132615143D01*
X138594620Y-132662762D01*
X138518430Y-132710381D01*
X138289858Y-132710381D01*
X138213668Y-132662762D01*
X138175573Y-132615143D01*
X127668474Y-130741881D02*
X127668474Y-129741881D01*
X128011331Y-130741881D02*
X128011331Y-130218071D01*
X127973236Y-130122833D01*
X127897046Y-130075214D01*
X127782760Y-130075214D01*
X127706569Y-130122833D01*
X127668474Y-130170452D01*
X128277998Y-130075214D02*
X128582760Y-130075214D01*
X128392284Y-129741881D02*
X128392284Y-130599024D01*
X128430379Y-130694262D01*
X128506570Y-130741881D01*
X128582760Y-130741881D01*
X128735141Y-130075214D02*
X129039903Y-130075214D01*
X128849427Y-129741881D02*
X128849427Y-130599024D01*
X128887522Y-130694262D01*
X128963713Y-130741881D01*
X129039903Y-130741881D01*
X129306570Y-130075214D02*
X129306570Y-131075214D01*
X129306570Y-130122833D02*
X129382761Y-130075214D01*
X129535142Y-130075214D01*
X129611332Y-130122833D01*
X129649427Y-130170452D01*
X129687523Y-130265690D01*
X129687523Y-130551405D01*
X129649427Y-130646643D01*
X129611332Y-130694262D01*
X129535142Y-130741881D01*
X129382761Y-130741881D01*
X129306570Y-130694262D01*
X130030380Y-130646643D02*
X130068475Y-130694262D01*
X130030380Y-130741881D01*
X129992285Y-130694262D01*
X130030380Y-130646643D01*
X130030380Y-130741881D01*
X130030380Y-130122833D02*
X130068475Y-130170452D01*
X130030380Y-130218071D01*
X129992285Y-130170452D01*
X130030380Y-130122833D01*
X130030380Y-130218071D01*
X130982761Y-129694262D02*
X130297046Y-130979976D01*
X131820856Y-129694262D02*
X131135141Y-130979976D01*
X132087522Y-130741881D02*
X132087522Y-130075214D01*
X132087522Y-130170452D02*
X132125617Y-130122833D01*
X132201808Y-130075214D01*
X132316094Y-130075214D01*
X132392284Y-130122833D01*
X132430379Y-130218071D01*
X132430379Y-130741881D01*
X132430379Y-130218071D02*
X132468475Y-130122833D01*
X132544665Y-130075214D01*
X132658951Y-130075214D01*
X132735141Y-130122833D01*
X132773236Y-130218071D01*
X132773236Y-130741881D01*
X133154189Y-130741881D02*
X133154189Y-130075214D01*
X133154189Y-129741881D02*
X133116094Y-129789500D01*
X133154189Y-129837119D01*
X133192284Y-129789500D01*
X133154189Y-129741881D01*
X133154189Y-129837119D01*
X133877998Y-130694262D02*
X133801808Y-130741881D01*
X133649427Y-130741881D01*
X133573236Y-130694262D01*
X133535141Y-130646643D01*
X133497046Y-130551405D01*
X133497046Y-130265690D01*
X133535141Y-130170452D01*
X133573236Y-130122833D01*
X133649427Y-130075214D01*
X133801808Y-130075214D01*
X133877998Y-130122833D01*
X134220855Y-130741881D02*
X134220855Y-130075214D01*
X134220855Y-130265690D02*
X134258950Y-130170452D01*
X134297046Y-130122833D01*
X134373236Y-130075214D01*
X134449427Y-130075214D01*
X134830379Y-130741881D02*
X134754188Y-130694262D01*
X134716093Y-130646643D01*
X134677998Y-130551405D01*
X134677998Y-130265690D01*
X134716093Y-130170452D01*
X134754188Y-130122833D01*
X134830379Y-130075214D01*
X134944665Y-130075214D01*
X135020855Y-130122833D01*
X135058950Y-130170452D01*
X135097046Y-130265690D01*
X135097046Y-130551405D01*
X135058950Y-130646643D01*
X135020855Y-130694262D01*
X134944665Y-130741881D01*
X134830379Y-130741881D01*
X135325617Y-130075214D02*
X135630379Y-130075214D01*
X135439903Y-130741881D02*
X135439903Y-129884738D01*
X135477998Y-129789500D01*
X135554189Y-129741881D01*
X135630379Y-129741881D01*
X136011332Y-130741881D02*
X135935141Y-130694262D01*
X135897046Y-130599024D01*
X135897046Y-129741881D01*
X136658951Y-130075214D02*
X136658951Y-130741881D01*
X136316094Y-130075214D02*
X136316094Y-130599024D01*
X136354189Y-130694262D01*
X136430380Y-130741881D01*
X136544666Y-130741881D01*
X136620856Y-130694262D01*
X136658951Y-130646643D01*
X137039904Y-130741881D02*
X137039904Y-130075214D01*
X137039904Y-129741881D02*
X137001809Y-129789500D01*
X137039904Y-129837119D01*
X137077999Y-129789500D01*
X137039904Y-129741881D01*
X137039904Y-129837119D01*
X137763713Y-130741881D02*
X137763713Y-129741881D01*
X137763713Y-130694262D02*
X137687523Y-130741881D01*
X137535142Y-130741881D01*
X137458951Y-130694262D01*
X137420856Y-130646643D01*
X137382761Y-130551405D01*
X137382761Y-130265690D01*
X137420856Y-130170452D01*
X137458951Y-130122833D01*
X137535142Y-130075214D01*
X137687523Y-130075214D01*
X137763713Y-130122833D01*
X138144666Y-130741881D02*
X138144666Y-130075214D01*
X138144666Y-129741881D02*
X138106571Y-129789500D01*
X138144666Y-129837119D01*
X138182761Y-129789500D01*
X138144666Y-129741881D01*
X138144666Y-129837119D01*
X138868475Y-130694262D02*
X138792285Y-130741881D01*
X138639904Y-130741881D01*
X138563713Y-130694262D01*
X138525618Y-130646643D01*
X138487523Y-130551405D01*
X138487523Y-130265690D01*
X138525618Y-130170452D01*
X138563713Y-130122833D01*
X138639904Y-130075214D01*
X138792285Y-130075214D01*
X138868475Y-130122833D01*
X139173237Y-130694262D02*
X139249427Y-130741881D01*
X139401808Y-130741881D01*
X139477999Y-130694262D01*
X139516094Y-130599024D01*
X139516094Y-130551405D01*
X139477999Y-130456167D01*
X139401808Y-130408548D01*
X139287523Y-130408548D01*
X139211332Y-130360929D01*
X139173237Y-130265690D01*
X139173237Y-130218071D01*
X139211332Y-130122833D01*
X139287523Y-130075214D01*
X139401808Y-130075214D01*
X139477999Y-130122833D01*
X139858951Y-130646643D02*
X139897046Y-130694262D01*
X139858951Y-130741881D01*
X139820856Y-130694262D01*
X139858951Y-130646643D01*
X139858951Y-130741881D01*
X140582760Y-130075214D02*
X140582760Y-130741881D01*
X140239903Y-130075214D02*
X140239903Y-130599024D01*
X140277998Y-130694262D01*
X140354189Y-130741881D01*
X140468475Y-130741881D01*
X140544665Y-130694262D01*
X140582760Y-130646643D01*
X140849427Y-130075214D02*
X141154189Y-130075214D01*
X140963713Y-129741881D02*
X140963713Y-130599024D01*
X141001808Y-130694262D01*
X141077999Y-130741881D01*
X141154189Y-130741881D01*
X141535142Y-130741881D02*
X141458951Y-130694262D01*
X141420856Y-130646643D01*
X141382761Y-130551405D01*
X141382761Y-130265690D01*
X141420856Y-130170452D01*
X141458951Y-130122833D01*
X141535142Y-130075214D01*
X141649428Y-130075214D01*
X141725618Y-130122833D01*
X141763713Y-130170452D01*
X141801809Y-130265690D01*
X141801809Y-130551405D01*
X141763713Y-130646643D01*
X141725618Y-130694262D01*
X141649428Y-130741881D01*
X141535142Y-130741881D01*
X142144666Y-130741881D02*
X142144666Y-130075214D01*
X142144666Y-130265690D02*
X142182761Y-130170452D01*
X142220857Y-130122833D01*
X142297047Y-130075214D01*
X142373238Y-130075214D01*
X142754190Y-130741881D02*
X142677999Y-130694262D01*
X142639904Y-130646643D01*
X142601809Y-130551405D01*
X142601809Y-130265690D01*
X142639904Y-130170452D01*
X142677999Y-130122833D01*
X142754190Y-130075214D01*
X142868476Y-130075214D01*
X142944666Y-130122833D01*
X142982761Y-130170452D01*
X143020857Y-130265690D01*
X143020857Y-130551405D01*
X142982761Y-130646643D01*
X142944666Y-130694262D01*
X142868476Y-130741881D01*
X142754190Y-130741881D01*
X143363714Y-130075214D02*
X143363714Y-130741881D01*
X143363714Y-130170452D02*
X143401809Y-130122833D01*
X143478000Y-130075214D01*
X143592286Y-130075214D01*
X143668476Y-130122833D01*
X143706571Y-130218071D01*
X143706571Y-130741881D01*
X143973238Y-130075214D02*
X144278000Y-130075214D01*
X144087524Y-129741881D02*
X144087524Y-130599024D01*
X144125619Y-130694262D01*
X144201810Y-130741881D01*
X144278000Y-130741881D01*
X144658953Y-130741881D02*
X144582762Y-130694262D01*
X144544667Y-130646643D01*
X144506572Y-130551405D01*
X144506572Y-130265690D01*
X144544667Y-130170452D01*
X144582762Y-130122833D01*
X144658953Y-130075214D01*
X144773239Y-130075214D01*
X144849429Y-130122833D01*
X144887524Y-130170452D01*
X144925620Y-130265690D01*
X144925620Y-130551405D01*
X144887524Y-130646643D01*
X144849429Y-130694262D01*
X144773239Y-130741881D01*
X144658953Y-130741881D01*
X145268477Y-130646643D02*
X145306572Y-130694262D01*
X145268477Y-130741881D01*
X145230382Y-130694262D01*
X145268477Y-130646643D01*
X145268477Y-130741881D01*
X145992286Y-130694262D02*
X145916096Y-130741881D01*
X145763715Y-130741881D01*
X145687524Y-130694262D01*
X145649429Y-130646643D01*
X145611334Y-130551405D01*
X145611334Y-130265690D01*
X145649429Y-130170452D01*
X145687524Y-130122833D01*
X145763715Y-130075214D01*
X145916096Y-130075214D01*
X145992286Y-130122833D01*
X146678000Y-130741881D02*
X146678000Y-130218071D01*
X146639905Y-130122833D01*
X146563715Y-130075214D01*
X146411334Y-130075214D01*
X146335143Y-130122833D01*
X146678000Y-130694262D02*
X146601810Y-130741881D01*
X146411334Y-130741881D01*
X146335143Y-130694262D01*
X146297048Y-130599024D01*
X146297048Y-130503786D01*
X146335143Y-130408548D01*
X146411334Y-130360929D01*
X146601810Y-130360929D01*
X146678000Y-130313310D01*
X147630382Y-129694262D02*
X146944667Y-130979976D01*
X148239905Y-130741881D02*
X148239905Y-129741881D01*
X148239905Y-130694262D02*
X148163715Y-130741881D01*
X148011334Y-130741881D01*
X147935143Y-130694262D01*
X147897048Y-130646643D01*
X147858953Y-130551405D01*
X147858953Y-130265690D01*
X147897048Y-130170452D01*
X147935143Y-130122833D01*
X148011334Y-130075214D01*
X148163715Y-130075214D01*
X148239905Y-130122833D01*
X148620858Y-130741881D02*
X148620858Y-130075214D01*
X148620858Y-130265690D02*
X148658953Y-130170452D01*
X148697049Y-130122833D01*
X148773239Y-130075214D01*
X148849430Y-130075214D01*
X149230382Y-130741881D02*
X149154191Y-130694262D01*
X149116096Y-130646643D01*
X149078001Y-130551405D01*
X149078001Y-130265690D01*
X149116096Y-130170452D01*
X149154191Y-130122833D01*
X149230382Y-130075214D01*
X149344668Y-130075214D01*
X149420858Y-130122833D01*
X149458953Y-130170452D01*
X149497049Y-130265690D01*
X149497049Y-130551405D01*
X149458953Y-130646643D01*
X149420858Y-130694262D01*
X149344668Y-130741881D01*
X149230382Y-130741881D01*
X149839906Y-130075214D02*
X149839906Y-131075214D01*
X149839906Y-130122833D02*
X149916097Y-130075214D01*
X150068478Y-130075214D01*
X150144668Y-130122833D01*
X150182763Y-130170452D01*
X150220859Y-130265690D01*
X150220859Y-130551405D01*
X150182763Y-130646643D01*
X150144668Y-130694262D01*
X150068478Y-130741881D01*
X149916097Y-130741881D01*
X149839906Y-130694262D01*
X150563716Y-130741881D02*
X150563716Y-129741881D01*
X150563716Y-130122833D02*
X150639907Y-130075214D01*
X150792288Y-130075214D01*
X150868478Y-130122833D01*
X150906573Y-130170452D01*
X150944669Y-130265690D01*
X150944669Y-130551405D01*
X150906573Y-130646643D01*
X150868478Y-130694262D01*
X150792288Y-130741881D01*
X150639907Y-130741881D01*
X150563716Y-130694262D01*
X151401812Y-130741881D02*
X151325621Y-130694262D01*
X151287526Y-130646643D01*
X151249431Y-130551405D01*
X151249431Y-130265690D01*
X151287526Y-130170452D01*
X151325621Y-130122833D01*
X151401812Y-130075214D01*
X151516098Y-130075214D01*
X151592288Y-130122833D01*
X151630383Y-130170452D01*
X151668479Y-130265690D01*
X151668479Y-130551405D01*
X151630383Y-130646643D01*
X151592288Y-130694262D01*
X151516098Y-130741881D01*
X151401812Y-130741881D01*
X151897050Y-130075214D02*
X152201812Y-130075214D01*
X152011336Y-129741881D02*
X152011336Y-130599024D01*
X152049431Y-130694262D01*
X152125622Y-130741881D01*
X152201812Y-130741881D01*
X128131735Y-129344881D02*
X127674592Y-129344881D01*
X127903163Y-129344881D02*
X127903163Y-128344881D01*
X127826973Y-128487738D01*
X127750782Y-128582976D01*
X127674592Y-128630595D01*
X128436497Y-128440119D02*
X128474592Y-128392500D01*
X128550783Y-128344881D01*
X128741259Y-128344881D01*
X128817449Y-128392500D01*
X128855545Y-128440119D01*
X128893640Y-128535357D01*
X128893640Y-128630595D01*
X128855545Y-128773452D01*
X128398402Y-129344881D01*
X128893640Y-129344881D01*
X129388878Y-128344881D02*
X129465069Y-128344881D01*
X129541259Y-128392500D01*
X129579354Y-128440119D01*
X129617450Y-128535357D01*
X129655545Y-128725833D01*
X129655545Y-128963929D01*
X129617450Y-129154405D01*
X129579354Y-129249643D01*
X129541259Y-129297262D01*
X129465069Y-129344881D01*
X129388878Y-129344881D01*
X129312688Y-129297262D01*
X129274592Y-129249643D01*
X129236497Y-129154405D01*
X129198402Y-128963929D01*
X129198402Y-128725833D01*
X129236497Y-128535357D01*
X129274592Y-128440119D01*
X129312688Y-128392500D01*
X129388878Y-128344881D01*
X129998402Y-128963929D02*
X130607926Y-128963929D01*
X131331735Y-129297262D02*
X131255545Y-129344881D01*
X131103164Y-129344881D01*
X131026973Y-129297262D01*
X130988878Y-129249643D01*
X130950783Y-129154405D01*
X130950783Y-128868690D01*
X130988878Y-128773452D01*
X131026973Y-128725833D01*
X131103164Y-128678214D01*
X131255545Y-128678214D01*
X131331735Y-128725833D01*
X131674592Y-129344881D02*
X131674592Y-128344881D01*
X132017449Y-129344881D02*
X132017449Y-128821071D01*
X131979354Y-128725833D01*
X131903164Y-128678214D01*
X131788878Y-128678214D01*
X131712687Y-128725833D01*
X131674592Y-128773452D01*
X132741259Y-129344881D02*
X132741259Y-128821071D01*
X132703164Y-128725833D01*
X132626974Y-128678214D01*
X132474593Y-128678214D01*
X132398402Y-128725833D01*
X132741259Y-129297262D02*
X132665069Y-129344881D01*
X132474593Y-129344881D01*
X132398402Y-129297262D01*
X132360307Y-129202024D01*
X132360307Y-129106786D01*
X132398402Y-129011548D01*
X132474593Y-128963929D01*
X132665069Y-128963929D01*
X132741259Y-128916310D01*
X133122212Y-128678214D02*
X133122212Y-129344881D01*
X133122212Y-128773452D02*
X133160307Y-128725833D01*
X133236498Y-128678214D01*
X133350784Y-128678214D01*
X133426974Y-128725833D01*
X133465069Y-128821071D01*
X133465069Y-129344881D01*
X133846022Y-128678214D02*
X133846022Y-129344881D01*
X133846022Y-128773452D02*
X133884117Y-128725833D01*
X133960308Y-128678214D01*
X134074594Y-128678214D01*
X134150784Y-128725833D01*
X134188879Y-128821071D01*
X134188879Y-129344881D01*
X134874594Y-129297262D02*
X134798404Y-129344881D01*
X134646023Y-129344881D01*
X134569832Y-129297262D01*
X134531737Y-129202024D01*
X134531737Y-128821071D01*
X134569832Y-128725833D01*
X134646023Y-128678214D01*
X134798404Y-128678214D01*
X134874594Y-128725833D01*
X134912689Y-128821071D01*
X134912689Y-128916310D01*
X134531737Y-129011548D01*
X135369832Y-129344881D02*
X135293641Y-129297262D01*
X135255546Y-129202024D01*
X135255546Y-128344881D01*
X136284118Y-128678214D02*
X136284118Y-129678214D01*
X136284118Y-128725833D02*
X136360309Y-128678214D01*
X136512690Y-128678214D01*
X136588880Y-128725833D01*
X136626975Y-128773452D01*
X136665071Y-128868690D01*
X136665071Y-129154405D01*
X136626975Y-129249643D01*
X136588880Y-129297262D01*
X136512690Y-129344881D01*
X136360309Y-129344881D01*
X136284118Y-129297262D01*
X137122214Y-129344881D02*
X137046023Y-129297262D01*
X137007928Y-129249643D01*
X136969833Y-129154405D01*
X136969833Y-128868690D01*
X137007928Y-128773452D01*
X137046023Y-128725833D01*
X137122214Y-128678214D01*
X137236500Y-128678214D01*
X137312690Y-128725833D01*
X137350785Y-128773452D01*
X137388881Y-128868690D01*
X137388881Y-129154405D01*
X137350785Y-129249643D01*
X137312690Y-129297262D01*
X137236500Y-129344881D01*
X137122214Y-129344881D01*
X138074595Y-128678214D02*
X138074595Y-129487738D01*
X138036500Y-129582976D01*
X137998405Y-129630595D01*
X137922214Y-129678214D01*
X137807929Y-129678214D01*
X137731738Y-129630595D01*
X138074595Y-129297262D02*
X137998405Y-129344881D01*
X137846024Y-129344881D01*
X137769833Y-129297262D01*
X137731738Y-129249643D01*
X137693643Y-129154405D01*
X137693643Y-128868690D01*
X137731738Y-128773452D01*
X137769833Y-128725833D01*
X137846024Y-128678214D01*
X137998405Y-128678214D01*
X138074595Y-128725833D01*
X138569834Y-129344881D02*
X138493643Y-129297262D01*
X138455548Y-129249643D01*
X138417453Y-129154405D01*
X138417453Y-128868690D01*
X138455548Y-128773452D01*
X138493643Y-128725833D01*
X138569834Y-128678214D01*
X138684120Y-128678214D01*
X138760310Y-128725833D01*
X138798405Y-128773452D01*
X138836501Y-128868690D01*
X138836501Y-129154405D01*
X138798405Y-129249643D01*
X138760310Y-129297262D01*
X138684120Y-129344881D01*
X138569834Y-129344881D01*
X139788882Y-128678214D02*
X139788882Y-129678214D01*
X139788882Y-128725833D02*
X139865073Y-128678214D01*
X140017454Y-128678214D01*
X140093644Y-128725833D01*
X140131739Y-128773452D01*
X140169835Y-128868690D01*
X140169835Y-129154405D01*
X140131739Y-129249643D01*
X140093644Y-129297262D01*
X140017454Y-129344881D01*
X139865073Y-129344881D01*
X139788882Y-129297262D01*
X140512692Y-129344881D02*
X140512692Y-128678214D01*
X140512692Y-128344881D02*
X140474597Y-128392500D01*
X140512692Y-128440119D01*
X140550787Y-128392500D01*
X140512692Y-128344881D01*
X140512692Y-128440119D01*
X140893644Y-128678214D02*
X140893644Y-129344881D01*
X140893644Y-128773452D02*
X140931739Y-128725833D01*
X141007930Y-128678214D01*
X141122216Y-128678214D01*
X141198406Y-128725833D01*
X141236501Y-128821071D01*
X141236501Y-129344881D01*
X142226978Y-129344881D02*
X142226978Y-128344881D01*
X142226978Y-128725833D02*
X142303169Y-128678214D01*
X142455550Y-128678214D01*
X142531740Y-128725833D01*
X142569835Y-128773452D01*
X142607931Y-128868690D01*
X142607931Y-129154405D01*
X142569835Y-129249643D01*
X142531740Y-129297262D01*
X142455550Y-129344881D01*
X142303169Y-129344881D01*
X142226978Y-129297262D01*
X143065074Y-129344881D02*
X142988883Y-129297262D01*
X142950788Y-129249643D01*
X142912693Y-129154405D01*
X142912693Y-128868690D01*
X142950788Y-128773452D01*
X142988883Y-128725833D01*
X143065074Y-128678214D01*
X143179360Y-128678214D01*
X143255550Y-128725833D01*
X143293645Y-128773452D01*
X143331741Y-128868690D01*
X143331741Y-129154405D01*
X143293645Y-129249643D01*
X143255550Y-129297262D01*
X143179360Y-129344881D01*
X143065074Y-129344881D01*
X144017455Y-129344881D02*
X144017455Y-128821071D01*
X143979360Y-128725833D01*
X143903170Y-128678214D01*
X143750789Y-128678214D01*
X143674598Y-128725833D01*
X144017455Y-129297262D02*
X143941265Y-129344881D01*
X143750789Y-129344881D01*
X143674598Y-129297262D01*
X143636503Y-129202024D01*
X143636503Y-129106786D01*
X143674598Y-129011548D01*
X143750789Y-128963929D01*
X143941265Y-128963929D01*
X144017455Y-128916310D01*
X144398408Y-129344881D02*
X144398408Y-128678214D01*
X144398408Y-128868690D02*
X144436503Y-128773452D01*
X144474599Y-128725833D01*
X144550789Y-128678214D01*
X144626980Y-128678214D01*
X145236503Y-129344881D02*
X145236503Y-128344881D01*
X145236503Y-129297262D02*
X145160313Y-129344881D01*
X145007932Y-129344881D01*
X144931741Y-129297262D01*
X144893646Y-129249643D01*
X144855551Y-129154405D01*
X144855551Y-128868690D01*
X144893646Y-128773452D01*
X144931741Y-128725833D01*
X145007932Y-128678214D01*
X145160313Y-128678214D01*
X145236503Y-128725833D01*
X146150790Y-128678214D02*
X146341266Y-129344881D01*
X146531742Y-128678214D01*
X146798409Y-128440119D02*
X146836504Y-128392500D01*
X146912695Y-128344881D01*
X147103171Y-128344881D01*
X147179361Y-128392500D01*
X147217457Y-128440119D01*
X147255552Y-128535357D01*
X147255552Y-128630595D01*
X147217457Y-128773452D01*
X146760314Y-129344881D01*
X147255552Y-129344881D01*
X147598409Y-129249643D02*
X147636504Y-129297262D01*
X147598409Y-129344881D01*
X147560314Y-129297262D01*
X147598409Y-129249643D01*
X147598409Y-129344881D01*
X148131742Y-128344881D02*
X148207933Y-128344881D01*
X148284123Y-128392500D01*
X148322218Y-128440119D01*
X148360314Y-128535357D01*
X148398409Y-128725833D01*
X148398409Y-128963929D01*
X148360314Y-129154405D01*
X148322218Y-129249643D01*
X148284123Y-129297262D01*
X148207933Y-129344881D01*
X148131742Y-129344881D01*
X148055552Y-129297262D01*
X148017456Y-129249643D01*
X147979361Y-129154405D01*
X147941266Y-128963929D01*
X147941266Y-128725833D01*
X147979361Y-128535357D01*
X148017456Y-128440119D01*
X148055552Y-128392500D01*
X148131742Y-128344881D01*
D12*
X63093180Y-80957620D02*
X63093180Y-121717620D01*
X63093180Y-121717620D02*
X68413180Y-121717620D01*
X68413180Y-121717620D02*
X68413180Y-78297620D01*
X68413180Y-78297620D02*
X65753180Y-78297620D01*
X65753180Y-78297620D02*
X65753180Y-80957620D01*
X65753180Y-80957620D02*
X63093180Y-80957620D01*
X63093180Y-79687620D02*
X63093180Y-78297620D01*
X63093180Y-78297620D02*
X64483180Y-78297620D01*
D13*
X83172500Y-145191200D02*
X83172500Y-143768800D01*
X82461300Y-144480000D02*
X83883700Y-144480000D01*
X83675394Y-144480000D02*
G75*
G03X83675394Y-144480000I-502894J0D01*
G01*
X81651040Y-145623000D02*
X81651040Y-143337000D01*
X83426500Y-145623000D02*
X81651040Y-145623000D01*
X83426500Y-147337500D02*
X83426500Y-145623000D01*
X83934500Y-142448000D02*
X83934500Y-141622500D01*
X83426500Y-142448000D02*
X83934500Y-142448000D01*
X83426500Y-143337000D02*
X83426500Y-142448000D01*
X81651040Y-143337000D02*
X83426500Y-143337000D01*
X83934500Y-141622500D02*
X116573500Y-141622500D01*
X116573500Y-141622500D02*
X116573500Y-143337000D01*
X116573500Y-143337000D02*
X118348960Y-143337000D01*
X118348960Y-143337000D02*
X118348960Y-145623000D01*
X118348960Y-145623000D02*
X116573500Y-145623000D01*
X116573500Y-145623000D02*
X116573500Y-147337500D01*
X116573500Y-147337500D02*
X83426500Y-147337500D01*
X117330394Y-144480000D02*
G75*
G03X117330394Y-144480000I-502894J0D01*
G01*
X116116300Y-144480000D02*
X117538700Y-144480000D01*
X116827500Y-145191200D02*
X116827500Y-143768800D01*
X49619100Y-145191200D02*
X49619100Y-143768800D01*
X48907900Y-144480000D02*
X50330300Y-144480000D01*
X50121994Y-144480000D02*
G75*
G03X50121994Y-144480000I-502894J0D01*
G01*
X48097640Y-145623000D02*
X48097640Y-143337000D01*
X49873100Y-145623000D02*
X48097640Y-145623000D01*
X49873100Y-147337500D02*
X49873100Y-145623000D01*
X50381100Y-142448000D02*
X50381100Y-141622500D01*
X49873100Y-142448000D02*
X50381100Y-142448000D01*
X49873100Y-143337000D02*
X49873100Y-142448000D01*
X48097640Y-143337000D02*
X49873100Y-143337000D01*
X50381100Y-141622500D02*
X76670100Y-141622500D01*
X76670100Y-141622500D02*
X76670100Y-143337000D01*
X76670100Y-143337000D02*
X78445560Y-143337000D01*
X78445560Y-143337000D02*
X78445560Y-145623000D01*
X78445560Y-145623000D02*
X76670100Y-145623000D01*
X76670100Y-145623000D02*
X76670100Y-147337500D01*
X76670100Y-147337500D02*
X49873100Y-147337500D01*
X77426994Y-144480000D02*
G75*
G03X77426994Y-144480000I-502894J0D01*
G01*
X76212900Y-144480000D02*
X77635300Y-144480000D01*
X76924100Y-145191200D02*
X76924100Y-143768800D01*
X123075900Y-145191200D02*
X123075900Y-143768800D01*
X122364700Y-144480000D02*
X123787100Y-144480000D01*
X123578794Y-144480000D02*
G75*
G03X123578794Y-144480000I-502894J0D01*
G01*
X121554440Y-145623000D02*
X121554440Y-143337000D01*
X123329900Y-145623000D02*
X121554440Y-145623000D01*
X123329900Y-147337500D02*
X123329900Y-145623000D01*
X123837900Y-142448000D02*
X123837900Y-141622500D01*
X123329900Y-142448000D02*
X123837900Y-142448000D01*
X123329900Y-143337000D02*
X123329900Y-142448000D01*
X121554440Y-143337000D02*
X123329900Y-143337000D01*
X123837900Y-141622500D02*
X150126900Y-141622500D01*
X150126900Y-141622500D02*
X150126900Y-143337000D01*
X150126900Y-143337000D02*
X151902360Y-143337000D01*
X151902360Y-143337000D02*
X151902360Y-145623000D01*
X151902360Y-145623000D02*
X150126900Y-145623000D01*
X150126900Y-145623000D02*
X150126900Y-147337500D01*
X150126900Y-147337500D02*
X123329900Y-147337500D01*
X150883794Y-144480000D02*
G75*
G03X150883794Y-144480000I-502894J0D01*
G01*
X149669700Y-144480000D02*
X151092100Y-144480000D01*
X150380900Y-145191200D02*
X150380900Y-143768800D01*
D12*
X68198580Y-80957620D02*
X68198580Y-121717620D01*
X68198580Y-121717620D02*
X73518580Y-121717620D01*
X73518580Y-121717620D02*
X73518580Y-78297620D01*
X73518580Y-78297620D02*
X70858580Y-78297620D01*
X70858580Y-78297620D02*
X70858580Y-80957620D01*
X70858580Y-80957620D02*
X68198580Y-80957620D01*
X68198580Y-79687620D02*
X68198580Y-78297620D01*
X68198580Y-78297620D02*
X69588580Y-78297620D01*
X136838240Y-119044920D02*
X136838240Y-78284920D01*
X136838240Y-78284920D02*
X131518240Y-78284920D01*
X131518240Y-78284920D02*
X131518240Y-121704920D01*
X131518240Y-121704920D02*
X134178240Y-121704920D01*
X134178240Y-121704920D02*
X134178240Y-119044920D01*
X134178240Y-119044920D02*
X136838240Y-119044920D01*
X136838240Y-120314920D02*
X136838240Y-121704920D01*
X136838240Y-121704920D02*
X135448240Y-121704920D01*
X131819200Y-119055080D02*
X131819200Y-78295080D01*
X131819200Y-78295080D02*
X126499200Y-78295080D01*
X126499200Y-78295080D02*
X126499200Y-121715080D01*
X126499200Y-121715080D02*
X129159200Y-121715080D01*
X129159200Y-121715080D02*
X129159200Y-119055080D01*
X129159200Y-119055080D02*
X131819200Y-119055080D01*
X131819200Y-120325080D02*
X131819200Y-121715080D01*
X131819200Y-121715080D02*
X130429200Y-121715080D01*
X141500000Y-80150000D02*
X140500000Y-80150000D01*
X140500000Y-81850000D02*
X141500000Y-81850000D01*
X58500000Y-81850000D02*
X59500000Y-81850000D01*
X59500000Y-80150000D02*
X58500000Y-80150000D01*
X141600000Y-79880000D02*
X140400000Y-79880000D01*
X140400000Y-78120000D02*
X141600000Y-78120000D01*
X58400000Y-78120000D02*
X59600000Y-78120000D01*
X59600000Y-79880000D02*
X58400000Y-79880000D01*
X119230000Y-136750000D02*
X119230000Y-137950000D01*
X117470000Y-137950000D02*
X117470000Y-136750000D01*
X122330000Y-135790000D02*
X120570000Y-135790000D01*
X120570000Y-138860000D02*
X123000000Y-138860000D01*
D10*
X65015085Y-77750001D02*
X65015085Y-76750001D01*
X65396038Y-76750001D01*
X65491276Y-76797620D01*
X65538895Y-76845239D01*
X65586514Y-76940477D01*
X65586514Y-77083334D01*
X65538895Y-77178572D01*
X65491276Y-77226191D01*
X65396038Y-77273810D01*
X65015085Y-77273810D01*
X65967466Y-76845239D02*
X66015085Y-76797620D01*
X66110323Y-76750001D01*
X66348419Y-76750001D01*
X66443657Y-76797620D01*
X66491276Y-76845239D01*
X66538895Y-76940477D01*
X66538895Y-77035715D01*
X66491276Y-77178572D01*
X65919847Y-77750001D01*
X66538895Y-77750001D01*
D14*
X89734167Y-140008024D02*
X89734167Y-140915167D01*
X89673691Y-141096595D01*
X89552739Y-141217548D01*
X89371310Y-141278024D01*
X89250358Y-141278024D01*
X90943691Y-140008024D02*
X90338929Y-140008024D01*
X90278453Y-140612786D01*
X90338929Y-140552310D01*
X90459881Y-140491833D01*
X90762262Y-140491833D01*
X90883215Y-140552310D01*
X90943691Y-140612786D01*
X91004167Y-140733738D01*
X91004167Y-141036119D01*
X90943691Y-141157071D01*
X90883215Y-141217548D01*
X90762262Y-141278024D01*
X90459881Y-141278024D01*
X90338929Y-141217548D01*
X90278453Y-141157071D01*
X95627571Y-140008024D02*
X96353286Y-140008024D01*
X95990429Y-141278024D02*
X95990429Y-140008024D01*
X97199952Y-140612786D02*
X96776619Y-140612786D01*
X96776619Y-141278024D02*
X96776619Y-140008024D01*
X97381381Y-140008024D01*
X97865190Y-141278024D02*
X97865190Y-140008024D01*
X98288523Y-140915167D01*
X98711857Y-140008024D01*
X98711857Y-141278024D01*
X99316619Y-140794214D02*
X100284238Y-140794214D01*
X101554238Y-141278024D02*
X100828524Y-141278024D01*
X101191381Y-141278024D02*
X101191381Y-140008024D01*
X101070429Y-140189452D01*
X100949476Y-140310405D01*
X100828524Y-140370881D01*
X102038048Y-140128976D02*
X102098524Y-140068500D01*
X102219476Y-140008024D01*
X102521857Y-140008024D01*
X102642810Y-140068500D01*
X102703286Y-140128976D01*
X102763762Y-140249929D01*
X102763762Y-140370881D01*
X102703286Y-140552310D01*
X101977572Y-141278024D01*
X102763762Y-141278024D01*
X103912810Y-140008024D02*
X103308048Y-140008024D01*
X103247572Y-140612786D01*
X103308048Y-140552310D01*
X103429000Y-140491833D01*
X103731381Y-140491833D01*
X103852334Y-140552310D01*
X103912810Y-140612786D01*
X103973286Y-140733738D01*
X103973286Y-141036119D01*
X103912810Y-141157071D01*
X103852334Y-141217548D01*
X103731381Y-141278024D01*
X103429000Y-141278024D01*
X103308048Y-141217548D01*
X103247572Y-141157071D01*
X104517572Y-140794214D02*
X105485191Y-140794214D01*
X106331858Y-140008024D02*
X106452810Y-140008024D01*
X106573762Y-140068500D01*
X106634239Y-140128976D01*
X106694715Y-140249929D01*
X106755191Y-140491833D01*
X106755191Y-140794214D01*
X106694715Y-141036119D01*
X106634239Y-141157071D01*
X106573762Y-141217548D01*
X106452810Y-141278024D01*
X106331858Y-141278024D01*
X106210905Y-141217548D01*
X106150429Y-141157071D01*
X106089953Y-141036119D01*
X106029477Y-140794214D01*
X106029477Y-140491833D01*
X106089953Y-140249929D01*
X106150429Y-140128976D01*
X106210905Y-140068500D01*
X106331858Y-140008024D01*
X107239001Y-140128976D02*
X107299477Y-140068500D01*
X107420429Y-140008024D01*
X107722810Y-140008024D01*
X107843763Y-140068500D01*
X107904239Y-140128976D01*
X107964715Y-140249929D01*
X107964715Y-140370881D01*
X107904239Y-140552310D01*
X107178525Y-141278024D01*
X107964715Y-141278024D01*
X108509001Y-140794214D02*
X109476620Y-140794214D01*
X109960430Y-140008024D02*
X110807096Y-141278024D01*
X110807096Y-140008024D02*
X109960430Y-141278024D01*
X111290906Y-140794214D02*
X112258525Y-140794214D01*
X112863287Y-141278024D02*
X112863287Y-140008024D01*
X113165668Y-140008024D01*
X113347096Y-140068500D01*
X113468049Y-140189452D01*
X113528525Y-140310405D01*
X113589001Y-140552310D01*
X113589001Y-140733738D01*
X113528525Y-140975643D01*
X113468049Y-141096595D01*
X113347096Y-141217548D01*
X113165668Y-141278024D01*
X112863287Y-141278024D01*
X114133287Y-141278024D02*
X114133287Y-140008024D01*
X114133287Y-140612786D02*
X114859001Y-140612786D01*
X114859001Y-141278024D02*
X114859001Y-140008024D01*
X52650167Y-140008024D02*
X52650167Y-140915167D01*
X52589691Y-141096595D01*
X52468739Y-141217548D01*
X52287310Y-141278024D01*
X52166358Y-141278024D01*
X53799215Y-140431357D02*
X53799215Y-141278024D01*
X53496834Y-139947548D02*
X53194453Y-140854690D01*
X53980643Y-140854690D01*
X56321071Y-140008024D02*
X57046786Y-140008024D01*
X56683929Y-141278024D02*
X56683929Y-140008024D01*
X57893452Y-140612786D02*
X57470119Y-140612786D01*
X57470119Y-141278024D02*
X57470119Y-140008024D01*
X58074881Y-140008024D01*
X58558690Y-141278024D02*
X58558690Y-140008024D01*
X58982023Y-140915167D01*
X59405357Y-140008024D01*
X59405357Y-141278024D01*
X60010119Y-140794214D02*
X60977738Y-140794214D01*
X62247738Y-141278024D02*
X61522024Y-141278024D01*
X61884881Y-141278024D02*
X61884881Y-140008024D01*
X61763929Y-140189452D01*
X61642976Y-140310405D01*
X61522024Y-140370881D01*
X62731548Y-140128976D02*
X62792024Y-140068500D01*
X62912976Y-140008024D01*
X63215357Y-140008024D01*
X63336310Y-140068500D01*
X63396786Y-140128976D01*
X63457262Y-140249929D01*
X63457262Y-140370881D01*
X63396786Y-140552310D01*
X62671072Y-141278024D01*
X63457262Y-141278024D01*
X64243453Y-140008024D02*
X64364405Y-140008024D01*
X64485357Y-140068500D01*
X64545834Y-140128976D01*
X64606310Y-140249929D01*
X64666786Y-140491833D01*
X64666786Y-140794214D01*
X64606310Y-141036119D01*
X64545834Y-141157071D01*
X64485357Y-141217548D01*
X64364405Y-141278024D01*
X64243453Y-141278024D01*
X64122500Y-141217548D01*
X64062024Y-141157071D01*
X64001548Y-141036119D01*
X63941072Y-140794214D01*
X63941072Y-140491833D01*
X64001548Y-140249929D01*
X64062024Y-140128976D01*
X64122500Y-140068500D01*
X64243453Y-140008024D01*
X65211072Y-140794214D02*
X66178691Y-140794214D01*
X67025358Y-140008024D02*
X67146310Y-140008024D01*
X67267262Y-140068500D01*
X67327739Y-140128976D01*
X67388215Y-140249929D01*
X67448691Y-140491833D01*
X67448691Y-140794214D01*
X67388215Y-141036119D01*
X67327739Y-141157071D01*
X67267262Y-141217548D01*
X67146310Y-141278024D01*
X67025358Y-141278024D01*
X66904405Y-141217548D01*
X66843929Y-141157071D01*
X66783453Y-141036119D01*
X66722977Y-140794214D01*
X66722977Y-140491833D01*
X66783453Y-140249929D01*
X66843929Y-140128976D01*
X66904405Y-140068500D01*
X67025358Y-140008024D01*
X67932501Y-140128976D02*
X67992977Y-140068500D01*
X68113929Y-140008024D01*
X68416310Y-140008024D01*
X68537263Y-140068500D01*
X68597739Y-140128976D01*
X68658215Y-140249929D01*
X68658215Y-140370881D01*
X68597739Y-140552310D01*
X67872025Y-141278024D01*
X68658215Y-141278024D01*
X69202501Y-140794214D02*
X70170120Y-140794214D01*
X70653930Y-140008024D02*
X71500596Y-141278024D01*
X71500596Y-140008024D02*
X70653930Y-141278024D01*
X71984406Y-140794214D02*
X72952025Y-140794214D01*
X73556787Y-141278024D02*
X73556787Y-140008024D01*
X73859168Y-140008024D01*
X74040596Y-140068500D01*
X74161549Y-140189452D01*
X74222025Y-140310405D01*
X74282501Y-140552310D01*
X74282501Y-140733738D01*
X74222025Y-140975643D01*
X74161549Y-141096595D01*
X74040596Y-141217548D01*
X73859168Y-141278024D01*
X73556787Y-141278024D01*
X74826787Y-141278024D02*
X74826787Y-140008024D01*
X74826787Y-140612786D02*
X75552501Y-140612786D01*
X75552501Y-141278024D02*
X75552501Y-140008024D01*
X126627667Y-140008024D02*
X126627667Y-140915167D01*
X126567191Y-141096595D01*
X126446239Y-141217548D01*
X126264810Y-141278024D01*
X126143858Y-141278024D01*
X127776715Y-140008024D02*
X127534810Y-140008024D01*
X127413858Y-140068500D01*
X127353381Y-140128976D01*
X127232429Y-140310405D01*
X127171953Y-140552310D01*
X127171953Y-141036119D01*
X127232429Y-141157071D01*
X127292905Y-141217548D01*
X127413858Y-141278024D01*
X127655762Y-141278024D01*
X127776715Y-141217548D01*
X127837191Y-141157071D01*
X127897667Y-141036119D01*
X127897667Y-140733738D01*
X127837191Y-140612786D01*
X127776715Y-140552310D01*
X127655762Y-140491833D01*
X127413858Y-140491833D01*
X127292905Y-140552310D01*
X127232429Y-140612786D01*
X127171953Y-140733738D01*
X130425571Y-140008024D02*
X131151286Y-140008024D01*
X130788429Y-141278024D02*
X130788429Y-140008024D01*
X131997952Y-140612786D02*
X131574619Y-140612786D01*
X131574619Y-141278024D02*
X131574619Y-140008024D01*
X132179381Y-140008024D01*
X132663190Y-141278024D02*
X132663190Y-140008024D01*
X133086523Y-140915167D01*
X133509857Y-140008024D01*
X133509857Y-141278024D01*
X134114619Y-140794214D02*
X135082238Y-140794214D01*
X136352238Y-141278024D02*
X135626524Y-141278024D01*
X135989381Y-141278024D02*
X135989381Y-140008024D01*
X135868429Y-140189452D01*
X135747476Y-140310405D01*
X135626524Y-140370881D01*
X136836048Y-140128976D02*
X136896524Y-140068500D01*
X137017476Y-140008024D01*
X137319857Y-140008024D01*
X137440810Y-140068500D01*
X137501286Y-140128976D01*
X137561762Y-140249929D01*
X137561762Y-140370881D01*
X137501286Y-140552310D01*
X136775572Y-141278024D01*
X137561762Y-141278024D01*
X138347953Y-140008024D02*
X138468905Y-140008024D01*
X138589857Y-140068500D01*
X138650334Y-140128976D01*
X138710810Y-140249929D01*
X138771286Y-140491833D01*
X138771286Y-140794214D01*
X138710810Y-141036119D01*
X138650334Y-141157071D01*
X138589857Y-141217548D01*
X138468905Y-141278024D01*
X138347953Y-141278024D01*
X138227000Y-141217548D01*
X138166524Y-141157071D01*
X138106048Y-141036119D01*
X138045572Y-140794214D01*
X138045572Y-140491833D01*
X138106048Y-140249929D01*
X138166524Y-140128976D01*
X138227000Y-140068500D01*
X138347953Y-140008024D01*
X139315572Y-140794214D02*
X140283191Y-140794214D01*
X141129858Y-140008024D02*
X141250810Y-140008024D01*
X141371762Y-140068500D01*
X141432239Y-140128976D01*
X141492715Y-140249929D01*
X141553191Y-140491833D01*
X141553191Y-140794214D01*
X141492715Y-141036119D01*
X141432239Y-141157071D01*
X141371762Y-141217548D01*
X141250810Y-141278024D01*
X141129858Y-141278024D01*
X141008905Y-141217548D01*
X140948429Y-141157071D01*
X140887953Y-141036119D01*
X140827477Y-140794214D01*
X140827477Y-140491833D01*
X140887953Y-140249929D01*
X140948429Y-140128976D01*
X141008905Y-140068500D01*
X141129858Y-140008024D01*
X142037001Y-140128976D02*
X142097477Y-140068500D01*
X142218429Y-140008024D01*
X142520810Y-140008024D01*
X142641763Y-140068500D01*
X142702239Y-140128976D01*
X142762715Y-140249929D01*
X142762715Y-140370881D01*
X142702239Y-140552310D01*
X141976525Y-141278024D01*
X142762715Y-141278024D01*
X143307001Y-140794214D02*
X144274620Y-140794214D01*
X144758430Y-140008024D02*
X145605096Y-141278024D01*
X145605096Y-140008024D02*
X144758430Y-141278024D01*
X146088906Y-140794214D02*
X147056525Y-140794214D01*
X147661287Y-141278024D02*
X147661287Y-140008024D01*
X147963668Y-140008024D01*
X148145096Y-140068500D01*
X148266049Y-140189452D01*
X148326525Y-140310405D01*
X148387001Y-140552310D01*
X148387001Y-140733738D01*
X148326525Y-140975643D01*
X148266049Y-141096595D01*
X148145096Y-141217548D01*
X147963668Y-141278024D01*
X147661287Y-141278024D01*
X148931287Y-141278024D02*
X148931287Y-140008024D01*
X148931287Y-140612786D02*
X149657001Y-140612786D01*
X149657001Y-141278024D02*
X149657001Y-140008024D01*
D10*
X70120485Y-77750001D02*
X70120485Y-76750001D01*
X70501438Y-76750001D01*
X70596676Y-76797620D01*
X70644295Y-76845239D01*
X70691914Y-76940477D01*
X70691914Y-77083334D01*
X70644295Y-77178572D01*
X70596676Y-77226191D01*
X70501438Y-77273810D01*
X70120485Y-77273810D01*
X71644295Y-77750001D02*
X71072866Y-77750001D01*
X71358580Y-77750001D02*
X71358580Y-76750001D01*
X71263342Y-76892858D01*
X71168104Y-76988096D01*
X71072866Y-77035715D01*
X133440145Y-123157301D02*
X133440145Y-122157301D01*
X133821098Y-122157301D01*
X133916336Y-122204920D01*
X133963955Y-122252539D01*
X134011574Y-122347777D01*
X134011574Y-122490634D01*
X133963955Y-122585872D01*
X133916336Y-122633491D01*
X133821098Y-122681110D01*
X133440145Y-122681110D01*
X134344907Y-122157301D02*
X134963955Y-122157301D01*
X134630621Y-122538253D01*
X134773479Y-122538253D01*
X134868717Y-122585872D01*
X134916336Y-122633491D01*
X134963955Y-122728730D01*
X134963955Y-122966825D01*
X134916336Y-123062063D01*
X134868717Y-123109682D01*
X134773479Y-123157301D01*
X134487764Y-123157301D01*
X134392526Y-123109682D01*
X134344907Y-123062063D01*
X128421105Y-123167461D02*
X128421105Y-122167461D01*
X128802058Y-122167461D01*
X128897296Y-122215080D01*
X128944915Y-122262699D01*
X128992534Y-122357937D01*
X128992534Y-122500794D01*
X128944915Y-122596032D01*
X128897296Y-122643651D01*
X128802058Y-122691270D01*
X128421105Y-122691270D01*
X129849677Y-122500794D02*
X129849677Y-123167461D01*
X129611581Y-122119842D02*
X129373486Y-122834128D01*
X129992534Y-122834128D01*
X148261905Y-77252381D02*
X148261905Y-76252381D01*
X148642858Y-76252381D01*
X148738096Y-76300000D01*
X148785715Y-76347619D01*
X148833334Y-76442857D01*
X148833334Y-76585714D01*
X148785715Y-76680952D01*
X148738096Y-76728571D01*
X148642858Y-76776190D01*
X148261905Y-76776190D01*
X149738096Y-76252381D02*
X149261905Y-76252381D01*
X149214286Y-76728571D01*
X149261905Y-76680952D01*
X149357143Y-76633333D01*
X149595239Y-76633333D01*
X149690477Y-76680952D01*
X149738096Y-76728571D01*
X149785715Y-76823810D01*
X149785715Y-77061905D01*
X149738096Y-77157143D01*
X149690477Y-77204762D01*
X149595239Y-77252381D01*
X149357143Y-77252381D01*
X149261905Y-77204762D01*
X149214286Y-77157143D01*
X50261905Y-77252381D02*
X50261905Y-76252381D01*
X50642858Y-76252381D01*
X50738096Y-76300000D01*
X50785715Y-76347619D01*
X50833334Y-76442857D01*
X50833334Y-76585714D01*
X50785715Y-76680952D01*
X50738096Y-76728571D01*
X50642858Y-76776190D01*
X50261905Y-76776190D01*
X51690477Y-76252381D02*
X51500000Y-76252381D01*
X51404762Y-76300000D01*
X51357143Y-76347619D01*
X51261905Y-76490476D01*
X51214286Y-76680952D01*
X51214286Y-77061905D01*
X51261905Y-77157143D01*
X51309524Y-77204762D01*
X51404762Y-77252381D01*
X51595239Y-77252381D01*
X51690477Y-77204762D01*
X51738096Y-77157143D01*
X51785715Y-77061905D01*
X51785715Y-76823810D01*
X51738096Y-76728571D01*
X51690477Y-76680952D01*
X51595239Y-76633333D01*
X51404762Y-76633333D01*
X51309524Y-76680952D01*
X51261905Y-76728571D01*
X51214286Y-76823810D01*
X148261905Y-128252381D02*
X148261905Y-127252381D01*
X148642858Y-127252381D01*
X148738096Y-127300000D01*
X148785715Y-127347619D01*
X148833334Y-127442857D01*
X148833334Y-127585714D01*
X148785715Y-127680952D01*
X148738096Y-127728571D01*
X148642858Y-127776190D01*
X148261905Y-127776190D01*
X149166667Y-127252381D02*
X149833334Y-127252381D01*
X149404762Y-128252381D01*
X50261905Y-128252381D02*
X50261905Y-127252381D01*
X50642858Y-127252381D01*
X50738096Y-127300000D01*
X50785715Y-127347619D01*
X50833334Y-127442857D01*
X50833334Y-127585714D01*
X50785715Y-127680952D01*
X50738096Y-127728571D01*
X50642858Y-127776190D01*
X50261905Y-127776190D01*
X51404762Y-127680952D02*
X51309524Y-127633333D01*
X51261905Y-127585714D01*
X51214286Y-127490476D01*
X51214286Y-127442857D01*
X51261905Y-127347619D01*
X51309524Y-127300000D01*
X51404762Y-127252381D01*
X51595239Y-127252381D01*
X51690477Y-127300000D01*
X51738096Y-127347619D01*
X51785715Y-127442857D01*
X51785715Y-127490476D01*
X51738096Y-127585714D01*
X51690477Y-127633333D01*
X51595239Y-127680952D01*
X51404762Y-127680952D01*
X51309524Y-127728571D01*
X51261905Y-127776190D01*
X51214286Y-127871429D01*
X51214286Y-128061905D01*
X51261905Y-128157143D01*
X51309524Y-128204762D01*
X51404762Y-128252381D01*
X51595239Y-128252381D01*
X51690477Y-128204762D01*
X51738096Y-128157143D01*
X51785715Y-128061905D01*
X51785715Y-127871429D01*
X51738096Y-127776190D01*
X51690477Y-127728571D01*
X51595239Y-127680952D01*
X143521334Y-81307143D02*
X143473715Y-81354762D01*
X143330858Y-81402381D01*
X143235620Y-81402381D01*
X143092762Y-81354762D01*
X142997524Y-81259524D01*
X142949905Y-81164286D01*
X142902286Y-80973810D01*
X142902286Y-80830952D01*
X142949905Y-80640476D01*
X142997524Y-80545238D01*
X143092762Y-80450000D01*
X143235620Y-80402381D01*
X143330858Y-80402381D01*
X143473715Y-80450000D01*
X143521334Y-80497619D01*
X144473715Y-81402381D02*
X143902286Y-81402381D01*
X144188000Y-81402381D02*
X144188000Y-80402381D01*
X144092762Y-80545238D01*
X143997524Y-80640476D01*
X143902286Y-80688095D01*
X55891334Y-81370643D02*
X55843715Y-81418262D01*
X55700858Y-81465881D01*
X55605620Y-81465881D01*
X55462762Y-81418262D01*
X55367524Y-81323024D01*
X55319905Y-81227786D01*
X55272286Y-81037310D01*
X55272286Y-80894452D01*
X55319905Y-80703976D01*
X55367524Y-80608738D01*
X55462762Y-80513500D01*
X55605620Y-80465881D01*
X55700858Y-80465881D01*
X55843715Y-80513500D01*
X55891334Y-80561119D01*
X56272286Y-80561119D02*
X56319905Y-80513500D01*
X56415143Y-80465881D01*
X56653239Y-80465881D01*
X56748477Y-80513500D01*
X56796096Y-80561119D01*
X56843715Y-80656357D01*
X56843715Y-80751595D01*
X56796096Y-80894452D01*
X56224667Y-81465881D01*
X56843715Y-81465881D01*
X143172167Y-78973571D02*
X142838833Y-78973571D01*
X142838833Y-79497381D02*
X142838833Y-78497381D01*
X143315024Y-78497381D01*
X144029310Y-78973571D02*
X144172167Y-79021190D01*
X144219786Y-79068810D01*
X144267405Y-79164048D01*
X144267405Y-79306905D01*
X144219786Y-79402143D01*
X144172167Y-79449762D01*
X144076929Y-79497381D01*
X143695976Y-79497381D01*
X143695976Y-78497381D01*
X144029310Y-78497381D01*
X144124548Y-78545000D01*
X144172167Y-78592619D01*
X144219786Y-78687857D01*
X144219786Y-78783095D01*
X144172167Y-78878333D01*
X144124548Y-78925952D01*
X144029310Y-78973571D01*
X143695976Y-78973571D01*
X145219786Y-79497381D02*
X144648357Y-79497381D01*
X144934071Y-79497381D02*
X144934071Y-78497381D01*
X144838833Y-78640238D01*
X144743595Y-78735476D01*
X144648357Y-78783095D01*
X55097667Y-79037071D02*
X54764333Y-79037071D01*
X54764333Y-79560881D02*
X54764333Y-78560881D01*
X55240524Y-78560881D01*
X55954810Y-79037071D02*
X56097667Y-79084690D01*
X56145286Y-79132310D01*
X56192905Y-79227548D01*
X56192905Y-79370405D01*
X56145286Y-79465643D01*
X56097667Y-79513262D01*
X56002429Y-79560881D01*
X55621476Y-79560881D01*
X55621476Y-78560881D01*
X55954810Y-78560881D01*
X56050048Y-78608500D01*
X56097667Y-78656119D01*
X56145286Y-78751357D01*
X56145286Y-78846595D01*
X56097667Y-78941833D01*
X56050048Y-78989452D01*
X55954810Y-79037071D01*
X55621476Y-79037071D01*
X56573857Y-78656119D02*
X56621476Y-78608500D01*
X56716714Y-78560881D01*
X56954810Y-78560881D01*
X57050048Y-78608500D01*
X57097667Y-78656119D01*
X57145286Y-78751357D01*
X57145286Y-78846595D01*
X57097667Y-78989452D01*
X56526238Y-79560881D01*
X57145286Y-79560881D01*
X117152381Y-137516666D02*
X116676190Y-137850000D01*
X117152381Y-138088095D02*
X116152381Y-138088095D01*
X116152381Y-137707142D01*
X116200000Y-137611904D01*
X116247619Y-137564285D01*
X116342857Y-137516666D01*
X116485714Y-137516666D01*
X116580952Y-137564285D01*
X116628571Y-137611904D01*
X116676190Y-137707142D01*
X116676190Y-138088095D01*
X117152381Y-136564285D02*
X117152381Y-137135714D01*
X117152381Y-136850000D02*
X116152381Y-136850000D01*
X116295238Y-136945238D01*
X116390476Y-137040476D01*
X116438095Y-137135714D01*
X120688095Y-139252381D02*
X120688095Y-140061905D01*
X120735714Y-140157143D01*
X120783333Y-140204762D01*
X120878571Y-140252381D01*
X121069048Y-140252381D01*
X121164286Y-140204762D01*
X121211905Y-140157143D01*
X121259524Y-140061905D01*
X121259524Y-139252381D01*
X122259524Y-140252381D02*
X121688095Y-140252381D01*
X121973809Y-140252381D02*
X121973809Y-139252381D01*
X121878571Y-139395238D01*
X121783333Y-139490476D01*
X121688095Y-139538095D01*
M02*
