G04 #@! TF.FileFunction,Copper,L1,Top,Signal*
%FSLAX46Y46*%
G04 Gerber Fmt 4.6, Leading zero omitted, Abs format (unit mm)*
G04 Created by KiCad (PCBNEW 4.0.1-stable) date 2017-03-20 12:41:44 PM*
%MOMM*%
G01*
G04 APERTURE LIST*
%ADD10C,0.150000*%
%ADD11R,0.736600X2.219960*%
%ADD12C,1.750000*%
%ADD13R,1.700000X1.700000*%
%ADD14O,1.700000X1.700000*%
%ADD15C,6.400000*%
%ADD16R,1.000000X1.250000*%
%ADD17R,0.700000X1.300000*%
%ADD18R,1.300000X0.700000*%
%ADD19R,1.220000X0.650000*%
%ADD20C,0.762000*%
%ADD21C,0.177800*%
G04 APERTURE END LIST*
D10*
D11*
X63906600Y-143116020D03*
X63906600Y-145843980D03*
X65176600Y-143116020D03*
X65176600Y-145843980D03*
X66446600Y-143116020D03*
X66446600Y-145843980D03*
X67716600Y-143116020D03*
X67716600Y-145843980D03*
X68986600Y-143116020D03*
X68986600Y-145843980D03*
X51206600Y-143116020D03*
X51206600Y-145843980D03*
X52476600Y-143116020D03*
X52476600Y-145843980D03*
X53746600Y-143116020D03*
X53746600Y-145843980D03*
X55016600Y-143116020D03*
X55016600Y-145843980D03*
X56286600Y-143116020D03*
X56286600Y-145843980D03*
X75336600Y-145843980D03*
X75336600Y-143116020D03*
X74066600Y-145843980D03*
X74066600Y-143116020D03*
X72796600Y-145843980D03*
X72796600Y-143116020D03*
X71526600Y-145843980D03*
X71526600Y-143116020D03*
X70256600Y-145843980D03*
X70256600Y-143116020D03*
X62636600Y-145843980D03*
X62636600Y-143116020D03*
X61366600Y-145843980D03*
X61366600Y-143116020D03*
X60096600Y-145843980D03*
X60096600Y-143116020D03*
X58826600Y-145843980D03*
X58826600Y-143116020D03*
X57556600Y-145843980D03*
X57556600Y-143116020D03*
D12*
X49619100Y-144480000D03*
X76924100Y-144480000D03*
D13*
X64483180Y-79687620D03*
D14*
X67023180Y-79687620D03*
X64483180Y-82227620D03*
X67023180Y-82227620D03*
X64483180Y-84767620D03*
X67023180Y-84767620D03*
X64483180Y-87307620D03*
X67023180Y-87307620D03*
X64483180Y-89847620D03*
X67023180Y-89847620D03*
X64483180Y-92387620D03*
X67023180Y-92387620D03*
X64483180Y-94927620D03*
X67023180Y-94927620D03*
X64483180Y-97467620D03*
X67023180Y-97467620D03*
X64483180Y-100007620D03*
X67023180Y-100007620D03*
X64483180Y-102547620D03*
X67023180Y-102547620D03*
X64483180Y-105087620D03*
X67023180Y-105087620D03*
X64483180Y-107627620D03*
X67023180Y-107627620D03*
X64483180Y-110167620D03*
X67023180Y-110167620D03*
X64483180Y-112707620D03*
X67023180Y-112707620D03*
X64483180Y-115247620D03*
X67023180Y-115247620D03*
X64483180Y-117787620D03*
X67023180Y-117787620D03*
X67023180Y-120327620D03*
X64483180Y-120327620D03*
D13*
X69588580Y-79687620D03*
D14*
X72128580Y-79687620D03*
X69588580Y-82227620D03*
X72128580Y-82227620D03*
X69588580Y-84767620D03*
X72128580Y-84767620D03*
X69588580Y-87307620D03*
X72128580Y-87307620D03*
X69588580Y-89847620D03*
X72128580Y-89847620D03*
X69588580Y-92387620D03*
X72128580Y-92387620D03*
X69588580Y-94927620D03*
X72128580Y-94927620D03*
X69588580Y-97467620D03*
X72128580Y-97467620D03*
X69588580Y-100007620D03*
X72128580Y-100007620D03*
X69588580Y-102547620D03*
X72128580Y-102547620D03*
X69588580Y-105087620D03*
X72128580Y-105087620D03*
X69588580Y-107627620D03*
X72128580Y-107627620D03*
X69588580Y-110167620D03*
X72128580Y-110167620D03*
X69588580Y-112707620D03*
X72128580Y-112707620D03*
X69588580Y-115247620D03*
X72128580Y-115247620D03*
X69588580Y-117787620D03*
X72128580Y-117787620D03*
X72128580Y-120327620D03*
X69588580Y-120327620D03*
D13*
X135448240Y-120314920D03*
D14*
X132908240Y-120314920D03*
X135448240Y-117774920D03*
X132908240Y-117774920D03*
X135448240Y-115234920D03*
X132908240Y-115234920D03*
X135448240Y-112694920D03*
X132908240Y-112694920D03*
X135448240Y-110154920D03*
X132908240Y-110154920D03*
X135448240Y-107614920D03*
X132908240Y-107614920D03*
X135448240Y-105074920D03*
X132908240Y-105074920D03*
X135448240Y-102534920D03*
X132908240Y-102534920D03*
X135448240Y-99994920D03*
X132908240Y-99994920D03*
X135448240Y-97454920D03*
X132908240Y-97454920D03*
X135448240Y-94914920D03*
X132908240Y-94914920D03*
X135448240Y-92374920D03*
X132908240Y-92374920D03*
X135448240Y-89834920D03*
X132908240Y-89834920D03*
X135448240Y-87294920D03*
X132908240Y-87294920D03*
X135448240Y-84754920D03*
X132908240Y-84754920D03*
X135448240Y-82214920D03*
X132908240Y-82214920D03*
X132908240Y-79674920D03*
X135448240Y-79674920D03*
D13*
X130429200Y-120325080D03*
D14*
X127889200Y-120325080D03*
X130429200Y-117785080D03*
X127889200Y-117785080D03*
X130429200Y-115245080D03*
X127889200Y-115245080D03*
X130429200Y-112705080D03*
X127889200Y-112705080D03*
X130429200Y-110165080D03*
X127889200Y-110165080D03*
X130429200Y-107625080D03*
X127889200Y-107625080D03*
X130429200Y-105085080D03*
X127889200Y-105085080D03*
X130429200Y-102545080D03*
X127889200Y-102545080D03*
X130429200Y-100005080D03*
X127889200Y-100005080D03*
X130429200Y-97465080D03*
X127889200Y-97465080D03*
X130429200Y-94925080D03*
X127889200Y-94925080D03*
X130429200Y-92385080D03*
X127889200Y-92385080D03*
X130429200Y-89845080D03*
X127889200Y-89845080D03*
X130429200Y-87305080D03*
X127889200Y-87305080D03*
X130429200Y-84765080D03*
X127889200Y-84765080D03*
X130429200Y-82225080D03*
X127889200Y-82225080D03*
X127889200Y-79685080D03*
X130429200Y-79685080D03*
D15*
X149000000Y-81000000D03*
X51000000Y-81000000D03*
X149000000Y-132000000D03*
X51000000Y-132000000D03*
D16*
X140000000Y-81000000D03*
X142000000Y-81000000D03*
X60000000Y-81000000D03*
X58000000Y-81000000D03*
D17*
X140050000Y-79000000D03*
X141950000Y-79000000D03*
X59950000Y-79000000D03*
X58050000Y-79000000D03*
D18*
X118350000Y-138300000D03*
X118350000Y-136400000D03*
D19*
X122760000Y-138300000D03*
X122760000Y-137350000D03*
X122760000Y-136400000D03*
X120140000Y-136400000D03*
X120140000Y-138300000D03*
D11*
X86030000Y-145843980D03*
X86030000Y-143116020D03*
X94920000Y-145843980D03*
X94920000Y-143116020D03*
X93650000Y-145843980D03*
X93650000Y-143116020D03*
X92380000Y-145843980D03*
X92380000Y-143116020D03*
X91110000Y-145843980D03*
X91110000Y-143116020D03*
X103810000Y-143116020D03*
X103810000Y-145843980D03*
X105080000Y-143116020D03*
X105080000Y-145843980D03*
X106350000Y-143116020D03*
X106350000Y-145843980D03*
X107620000Y-143116020D03*
X107620000Y-145843980D03*
X108890000Y-143116020D03*
X108890000Y-145843980D03*
X84760000Y-143116020D03*
X84760000Y-145843980D03*
X87300000Y-143116020D03*
X87300000Y-145843980D03*
X88570000Y-143116020D03*
X88570000Y-145843980D03*
X89840000Y-143116020D03*
X89840000Y-145843980D03*
X96190000Y-143116020D03*
X96190000Y-145843980D03*
X115240000Y-145843980D03*
X115240000Y-143116020D03*
X113970000Y-145843980D03*
X113970000Y-143116020D03*
X112700000Y-145843980D03*
X112700000Y-143116020D03*
X111430000Y-145843980D03*
X111430000Y-143116020D03*
X110160000Y-145843980D03*
X110160000Y-143116020D03*
X102540000Y-145843980D03*
X102540000Y-143116020D03*
X101270000Y-145843980D03*
X101270000Y-143116020D03*
X100000000Y-145843980D03*
X100000000Y-143116020D03*
X98730000Y-145843980D03*
X98730000Y-143116020D03*
X97460000Y-145843980D03*
X97460000Y-143116020D03*
D12*
X83172500Y-144480000D03*
X116827500Y-144480000D03*
D11*
X137363400Y-143116020D03*
X137363400Y-145843980D03*
X138633400Y-143116020D03*
X138633400Y-145843980D03*
X139903400Y-143116020D03*
X139903400Y-145843980D03*
X141173400Y-143116020D03*
X141173400Y-145843980D03*
X142443400Y-143116020D03*
X142443400Y-145843980D03*
X124663400Y-143116020D03*
X124663400Y-145843980D03*
X125933400Y-143116020D03*
X125933400Y-145843980D03*
X127203400Y-143116020D03*
X127203400Y-145843980D03*
X128473400Y-143116020D03*
X128473400Y-145843980D03*
X129743400Y-143116020D03*
X129743400Y-145843980D03*
X148793400Y-145843980D03*
X148793400Y-143116020D03*
X147523400Y-145843980D03*
X147523400Y-143116020D03*
X146253400Y-145843980D03*
X146253400Y-143116020D03*
X144983400Y-145843980D03*
X144983400Y-143116020D03*
X143713400Y-145843980D03*
X143713400Y-143116020D03*
X136093400Y-145843980D03*
X136093400Y-143116020D03*
X134823400Y-145843980D03*
X134823400Y-143116020D03*
X133553400Y-145843980D03*
X133553400Y-143116020D03*
X132283400Y-145843980D03*
X132283400Y-143116020D03*
X131013400Y-145843980D03*
X131013400Y-143116020D03*
D12*
X123075900Y-144480000D03*
X150380900Y-144480000D03*
D20*
X67020640Y-82227620D03*
X51206600Y-145843980D03*
X72128580Y-82227620D03*
X52476600Y-145843980D03*
X66980000Y-87300000D03*
X56286600Y-145843980D03*
X72060000Y-87300000D03*
X57556600Y-145843980D03*
X72128580Y-84767620D03*
X55016600Y-145843980D03*
X66920779Y-84665219D03*
X53746600Y-145843980D03*
X66980002Y-89840000D03*
X58826600Y-145843980D03*
X72128580Y-89847620D03*
X60096600Y-145843980D03*
X66980006Y-92380000D03*
X61366600Y-145843980D03*
X62636600Y-145843980D03*
X72128580Y-92387620D03*
X66979998Y-94920000D03*
X63906600Y-145843980D03*
X65176600Y-145843980D03*
X72128580Y-94927620D03*
X66446600Y-145843980D03*
X67023180Y-97467620D03*
X67716600Y-145843980D03*
X72128580Y-97467620D03*
X66980000Y-100000000D03*
X68986600Y-145843980D03*
X70256600Y-145843980D03*
X72128580Y-100007620D03*
X66980000Y-102540000D03*
X71526600Y-145843980D03*
X72796600Y-145843980D03*
X72128580Y-102547620D03*
X66980000Y-105080002D03*
X74066600Y-145843980D03*
X75336600Y-145843980D03*
X72128580Y-105087620D03*
X132908240Y-84754920D03*
X144983400Y-145843980D03*
X127889200Y-84765080D03*
X146253400Y-145843980D03*
X132910740Y-82214920D03*
X147523400Y-145843980D03*
X127899360Y-82204760D03*
X148793400Y-145843980D03*
X127891698Y-94925080D03*
X136093400Y-145843980D03*
X132910740Y-94914920D03*
X134823400Y-145843980D03*
X127891700Y-97465080D03*
X133553400Y-145843980D03*
X132910738Y-97454920D03*
X132283400Y-145843980D03*
X127891702Y-100005080D03*
X131013400Y-145843980D03*
X143713400Y-145843980D03*
X127893594Y-87339326D03*
X132910740Y-105074920D03*
X124663400Y-145843980D03*
X127891702Y-105085080D03*
X125933400Y-145843980D03*
X132910740Y-102534918D03*
X127203400Y-145843980D03*
X127891700Y-102545080D03*
X128473400Y-145843980D03*
X132910740Y-99994920D03*
X129743400Y-145843980D03*
X132910740Y-92374920D03*
X137363400Y-145843980D03*
X127891700Y-92385080D03*
X138633400Y-145843980D03*
X132910740Y-89834918D03*
X139903400Y-145843980D03*
X127893594Y-89879326D03*
X141173400Y-145843980D03*
X132910740Y-87294920D03*
X142443400Y-145843980D03*
X72128580Y-117787620D03*
X96190000Y-145843980D03*
X67023180Y-117787620D03*
X94920000Y-145843980D03*
X72128580Y-115247620D03*
X93650000Y-145843980D03*
X67023180Y-115247620D03*
X92380000Y-145843980D03*
X91110000Y-145847000D03*
X72128580Y-112707620D03*
X108890000Y-145843980D03*
X127876500Y-107620000D03*
X107620000Y-145843980D03*
X132910740Y-107614920D03*
X127891700Y-110165080D03*
X106350000Y-145843980D03*
X132910740Y-110154920D03*
X105080000Y-145843980D03*
X127891700Y-112705080D03*
X103822701Y-145821600D03*
X84760000Y-145910598D03*
X67023180Y-107627620D03*
X72128580Y-107627620D03*
X86025000Y-145825000D03*
X87325000Y-145750000D03*
X67043500Y-110160000D03*
X88550000Y-145750000D03*
X72128580Y-110167620D03*
X89850000Y-145775000D03*
X67023180Y-112707620D03*
X132910740Y-117774922D03*
X97460000Y-145843980D03*
X98730000Y-145847000D03*
X127891698Y-117785080D03*
X132910738Y-115234920D03*
X99974588Y-145910500D03*
X127891700Y-115245080D03*
X101270000Y-145910500D03*
X132910740Y-112694920D03*
X102540000Y-145843980D03*
X64483180Y-120327620D03*
X114625000Y-138925000D03*
X121475000Y-138900000D03*
X135450740Y-120314920D03*
X69588580Y-120327620D03*
X69588580Y-79687620D03*
X118525000Y-127800000D03*
X115925000Y-139200000D03*
X115925000Y-127800000D03*
X118650000Y-139225000D03*
X122775000Y-137350000D03*
X110160000Y-145843980D03*
X130429200Y-120325080D03*
X112700000Y-145843980D03*
X140000000Y-81000000D03*
X140050000Y-79000000D03*
X59931500Y-80950002D03*
X59931500Y-79045000D03*
X67000000Y-120300000D03*
X113400000Y-138250000D03*
X132910740Y-120314920D03*
X113970000Y-145843980D03*
X72123500Y-79680000D03*
X127891702Y-120325080D03*
X127889200Y-79685080D03*
X72128580Y-120327620D03*
X142000000Y-81000000D03*
X141950000Y-79000000D03*
X58026502Y-81013500D03*
X58026500Y-79045001D03*
D21*
X69588580Y-82227620D02*
X68377000Y-83426500D01*
X52476600Y-141828240D02*
X52476600Y-143116020D01*
X68377000Y-83426500D02*
X68377000Y-83490000D01*
X68377000Y-83490000D02*
X60624908Y-83490000D01*
X60624908Y-83490000D02*
X54224185Y-89890723D01*
X55461111Y-134246798D02*
X52476600Y-137231309D01*
X54224185Y-89890723D02*
X54201414Y-89890723D01*
X54201414Y-89890723D02*
X51549500Y-92542637D01*
X51549500Y-126167092D02*
X55461111Y-130078702D01*
X51549500Y-92542637D02*
X51549500Y-126167092D01*
X55461111Y-130078702D02*
X55461111Y-134246798D01*
X52476600Y-137231309D02*
X52476600Y-141828240D01*
X51193889Y-92395339D02*
X51193889Y-126314389D01*
X51193889Y-126314389D02*
X55105500Y-130226000D01*
X64483180Y-82227620D02*
X61369228Y-82220000D01*
X61369228Y-82220000D02*
X51193889Y-92395339D01*
X55105500Y-130226000D02*
X55105500Y-134099500D01*
X55105500Y-134099500D02*
X51206600Y-137998400D01*
X51206600Y-137998400D02*
X51206600Y-143116020D01*
X53746600Y-136464218D02*
X53746600Y-141828240D01*
X54371483Y-90246334D02*
X54348712Y-90246334D01*
X55816722Y-134394096D02*
X53746600Y-136464218D01*
X51905111Y-126019794D02*
X55816722Y-129931404D01*
X54348712Y-90246334D02*
X51905111Y-92689935D01*
X59857817Y-84760000D02*
X54371483Y-90246334D01*
X55816722Y-129931404D02*
X55816722Y-134394096D01*
X51905111Y-92689935D02*
X51905111Y-126019794D01*
X64483180Y-84767620D02*
X59857817Y-84760000D01*
X53746600Y-141828240D02*
X53746600Y-143116020D01*
X69588580Y-84767620D02*
X68250000Y-86093500D01*
X68250000Y-86093500D02*
X59027226Y-86093500D01*
X54518781Y-90601945D02*
X54496010Y-90601945D01*
X54496010Y-90601945D02*
X52260722Y-92837233D01*
X59027226Y-86093500D02*
X54518781Y-90601945D01*
X52260722Y-92837233D02*
X52260722Y-125872496D01*
X52260722Y-125872496D02*
X56172333Y-129784106D01*
X56172333Y-129784106D02*
X56172333Y-134541394D01*
X55016600Y-135697127D02*
X55016600Y-141828240D01*
X56172333Y-134541394D02*
X55016600Y-135697127D01*
X55016600Y-141828240D02*
X55016600Y-143116020D01*
X56883555Y-129489510D02*
X56883555Y-129983555D01*
X52971944Y-125577900D02*
X56883555Y-129489510D01*
X52971944Y-93131829D02*
X52971944Y-125577900D01*
X54813377Y-91313167D02*
X54790606Y-91313167D01*
X57556544Y-88570000D02*
X54813377Y-91313167D01*
X68300000Y-88570000D02*
X57556544Y-88570000D01*
X54790606Y-91313167D02*
X52971944Y-93131829D01*
X57556600Y-130656600D02*
X57556600Y-143116020D01*
X56883555Y-129983555D02*
X57556600Y-130656600D01*
X68300000Y-88570000D02*
X68326200Y-88570000D01*
X68326200Y-88570000D02*
X69588580Y-87307620D01*
X68313500Y-88570000D02*
X68300000Y-88570000D01*
X56286600Y-141828240D02*
X56286600Y-143116020D01*
X52616333Y-92984531D02*
X52616333Y-125725198D01*
X54643308Y-90957556D02*
X52616333Y-92984531D01*
X54666079Y-90957556D02*
X54643308Y-90957556D01*
X56286600Y-134930036D02*
X56286600Y-141828240D01*
X56527944Y-129636808D02*
X56527944Y-134688692D01*
X58323635Y-87300000D02*
X54666079Y-90957556D01*
X56527944Y-134688692D02*
X56286600Y-134930036D01*
X64483180Y-87307620D02*
X58323635Y-87300000D01*
X52616333Y-125725198D02*
X56527944Y-129636808D01*
X58826600Y-143116020D02*
X58826600Y-131417283D01*
X57239166Y-129829847D02*
X57239166Y-129342212D01*
X58826600Y-131417283D02*
X57239166Y-129829847D01*
X56789453Y-89840000D02*
X56797073Y-89847620D01*
X57239166Y-129342212D02*
X53327555Y-125430602D01*
X53327555Y-125430602D02*
X53327555Y-93279127D01*
X54937904Y-91668778D02*
X54960675Y-91668778D01*
X53327555Y-93279127D02*
X54937904Y-91668778D01*
X54960675Y-91668778D02*
X56789453Y-89840000D01*
X56797073Y-89847620D02*
X64483180Y-89847620D01*
X64483180Y-89847620D02*
X64475560Y-89840000D01*
X69588580Y-89847620D02*
X68326200Y-91110000D01*
X68326200Y-91110000D02*
X56022362Y-91110000D01*
X56022362Y-91110000D02*
X55107973Y-92024389D01*
X60096600Y-141828240D02*
X60096600Y-143116020D01*
X55107973Y-92024389D02*
X55085202Y-92024389D01*
X60096600Y-132184374D02*
X60096600Y-141828240D01*
X55085202Y-92024389D02*
X53683166Y-93426425D01*
X53683166Y-93426425D02*
X53683166Y-125283304D01*
X53683166Y-125283304D02*
X57594777Y-129194914D01*
X57594777Y-129194914D02*
X57594777Y-129682549D01*
X57594777Y-129682549D02*
X60096600Y-132184374D01*
X61366600Y-141828240D02*
X61366600Y-143116020D01*
X54038777Y-93573723D02*
X54038777Y-125136006D01*
X55232500Y-92380000D02*
X54038777Y-93573723D01*
X57950388Y-129535251D02*
X61366600Y-132951465D01*
X64483180Y-92387620D02*
X55232500Y-92380000D01*
X54038777Y-125136006D02*
X57950388Y-129047616D01*
X61366600Y-132951465D02*
X61366600Y-141828240D01*
X57950388Y-129047616D02*
X57950388Y-129535251D01*
X62636600Y-141828240D02*
X62636600Y-143116020D01*
X62636600Y-133718556D02*
X62636600Y-141828240D01*
X69588580Y-92387620D02*
X68262700Y-93713500D01*
X55740500Y-93713500D02*
X54394388Y-95059612D01*
X68262700Y-93713500D02*
X55740500Y-93713500D01*
X54394388Y-95059612D02*
X54394388Y-124988708D01*
X54394388Y-124988708D02*
X58305999Y-128900318D01*
X58305999Y-128900318D02*
X58305999Y-129387953D01*
X58305999Y-129387953D02*
X62636600Y-133718556D01*
X63906600Y-134455100D02*
X58661610Y-129210109D01*
X63906600Y-143116020D02*
X63906600Y-134455100D01*
X58661610Y-129210109D02*
X58661610Y-128753020D01*
X62097459Y-94920000D02*
X64483180Y-94927620D01*
X58661610Y-128753020D02*
X54887887Y-124979298D01*
X54887887Y-124979298D02*
X54887887Y-98757113D01*
X54887887Y-98757113D02*
X58725000Y-94920000D01*
X58725000Y-94920000D02*
X62097459Y-94920000D01*
X65176600Y-140175192D02*
X65176600Y-141828240D01*
X59017221Y-129062812D02*
X65163889Y-135209481D01*
X65163889Y-135209481D02*
X65163889Y-140162481D01*
X65163889Y-140162481D02*
X65176600Y-140175192D01*
X59017221Y-128605722D02*
X59017221Y-129062812D01*
X65176600Y-141828240D02*
X65176600Y-143116020D01*
X69588580Y-94927620D02*
X68160201Y-96343299D01*
X60872974Y-96343299D02*
X55290210Y-101926063D01*
X68160201Y-96343299D02*
X60872974Y-96343299D01*
X55290210Y-101926063D02*
X55290210Y-124878712D01*
X55290210Y-124878712D02*
X59017221Y-128605722D01*
X66446600Y-141828240D02*
X66446600Y-143116020D01*
X66446600Y-135989283D02*
X66446600Y-141828240D01*
X59372832Y-128458424D02*
X59372832Y-128915515D01*
X55645821Y-124731413D02*
X59372832Y-128458424D01*
X55645821Y-102073361D02*
X55645821Y-124731413D01*
X59372832Y-128915515D02*
X66446600Y-135989283D01*
X60259182Y-97460000D02*
X55645821Y-102073361D01*
X64483180Y-97467620D02*
X60259182Y-97460000D01*
X69588580Y-97467620D02*
X68313500Y-98730000D01*
X68313500Y-98730000D02*
X59492091Y-98730000D01*
X59728443Y-128768217D02*
X67716600Y-136756374D01*
X59492091Y-98730000D02*
X56003079Y-102219012D01*
X56003079Y-102219012D02*
X56003079Y-124585762D01*
X56003079Y-124585762D02*
X59728443Y-128311126D01*
X59728443Y-128311126D02*
X59728443Y-128768217D01*
X67716600Y-136756374D02*
X67716600Y-141828240D01*
X67716600Y-141828240D02*
X67716600Y-143116020D01*
X58725000Y-100000000D02*
X56392230Y-102332770D01*
X68986600Y-141828240D02*
X68986600Y-143116020D01*
X64483180Y-100007620D02*
X58725000Y-100000000D01*
X56392230Y-102332770D02*
X56392230Y-124472004D01*
X56392230Y-124472004D02*
X60084054Y-128163828D01*
X60084054Y-128620919D02*
X68986600Y-137523465D01*
X68986600Y-137523465D02*
X68986600Y-141828240D01*
X60084054Y-128163828D02*
X60084054Y-128620919D01*
X70256600Y-141828240D02*
X70256600Y-143116020D01*
X60439665Y-128448165D02*
X70256600Y-138265100D01*
X60439665Y-128016530D02*
X60439665Y-128448165D01*
X70256600Y-138265100D02*
X70256600Y-141828240D01*
X69588580Y-100007620D02*
X68313500Y-101270000D01*
X68313500Y-101270000D02*
X59227908Y-101270000D01*
X59227908Y-101270000D02*
X56748838Y-103749070D01*
X56748838Y-103749070D02*
X56748838Y-124325703D01*
X56748838Y-124325703D02*
X60439665Y-128016530D01*
X71526600Y-139032192D02*
X71526600Y-141828240D01*
X60795276Y-128300867D02*
X71526600Y-139032192D01*
X60795276Y-127869232D02*
X60795276Y-128300867D01*
X71526600Y-141828240D02*
X71526600Y-143116020D01*
X64483180Y-102547620D02*
X59360000Y-102540000D01*
X59360000Y-102540000D02*
X57121716Y-104778284D01*
X57121716Y-104778284D02*
X57121716Y-124195672D01*
X57121716Y-124195672D02*
X60795276Y-127869232D01*
X72796600Y-141828240D02*
X72796600Y-143116020D01*
X69588580Y-102547620D02*
X68313500Y-103810000D01*
X59360000Y-103810000D02*
X57494593Y-105675407D01*
X57494593Y-105675407D02*
X57494593Y-124065640D01*
X68313500Y-103810000D02*
X59360000Y-103810000D01*
X61150887Y-128153569D02*
X72796600Y-139799283D01*
X57494593Y-124065640D02*
X61150887Y-127721934D01*
X61150887Y-127721934D02*
X61150887Y-128153569D01*
X72796600Y-139799283D02*
X72796600Y-141828240D01*
X61506498Y-128006271D02*
X74066600Y-140566374D01*
X74066600Y-141828240D02*
X74066600Y-143116020D01*
X64483180Y-105087620D02*
X59360000Y-105080000D01*
X57861279Y-106578721D02*
X57861279Y-123929417D01*
X61506498Y-127574636D02*
X61506498Y-128006271D01*
X57861279Y-123929417D02*
X61506498Y-127574636D01*
X59360000Y-105080000D02*
X57861279Y-106578721D01*
X74066600Y-140566374D02*
X74066600Y-141828240D01*
X75336600Y-141828240D02*
X75336600Y-143116020D01*
X69588580Y-105087620D02*
X68313500Y-106350000D01*
X68313500Y-106350000D02*
X60630000Y-106350000D01*
X60630000Y-106350000D02*
X58216890Y-108763110D01*
X58216890Y-123782119D02*
X61862109Y-127427338D01*
X58216890Y-108763110D02*
X58216890Y-123782119D01*
X61862109Y-127427338D02*
X61862109Y-127858973D01*
X61862109Y-127858973D02*
X75336600Y-141333465D01*
X75336600Y-141333465D02*
X75336600Y-141828240D01*
X143700667Y-129657106D02*
X143700667Y-134096894D01*
X135514240Y-84818420D02*
X140083776Y-84823500D01*
X144983400Y-141828240D02*
X144983400Y-143116020D01*
X143700667Y-134096894D02*
X144983400Y-135379627D01*
X144983400Y-135379627D02*
X144983400Y-141828240D01*
X147752275Y-119368050D02*
X147752275Y-125605500D01*
X147701475Y-92441199D02*
X147701475Y-119317250D01*
X147701475Y-119317250D02*
X147752275Y-119368050D01*
X147752275Y-125605500D02*
X143700667Y-129657106D01*
X140083776Y-84823500D02*
X147701475Y-92441199D01*
X130429200Y-84765080D02*
X130429200Y-84744760D01*
X130429200Y-84744760D02*
X131683960Y-83490000D01*
X148107886Y-119220752D02*
X148107886Y-125752798D01*
X131683960Y-83490000D02*
X139253184Y-83490000D01*
X139253184Y-83490000D02*
X148057086Y-92293902D01*
X146253400Y-136146718D02*
X146253400Y-141828240D01*
X148057086Y-92293902D02*
X148057086Y-119169952D01*
X144056278Y-133949596D02*
X146253400Y-136146718D01*
X148057086Y-119169952D02*
X148107886Y-119220752D01*
X148107886Y-125752798D02*
X144056278Y-129804404D01*
X144056278Y-129804404D02*
X144056278Y-133949596D01*
X146253400Y-141828240D02*
X146253400Y-143116020D01*
X147523400Y-141828240D02*
X147523400Y-143116020D01*
X148463497Y-119073454D02*
X148463497Y-125900095D01*
X147523400Y-136913808D02*
X147523400Y-141828240D01*
X144411889Y-133802298D02*
X147523400Y-136913808D01*
X144411889Y-129951702D02*
X144411889Y-133802298D01*
X148463497Y-125900095D02*
X144411889Y-129951702D01*
X138549592Y-82283500D02*
X148412697Y-92146605D01*
X135450740Y-82278420D02*
X138549592Y-82283500D01*
X148412697Y-119022654D02*
X148463497Y-119073454D01*
X148412697Y-92146605D02*
X148412697Y-119022654D01*
X130368200Y-82225080D02*
X130378400Y-82225080D01*
X130378400Y-82225080D02*
X131589980Y-81013500D01*
X131589980Y-81013500D02*
X137782500Y-81013500D01*
X148793400Y-137680900D02*
X148793400Y-143116020D01*
X137782500Y-81013500D02*
X148793400Y-92024400D01*
X148793400Y-92024400D02*
X148793400Y-118900448D01*
X148793400Y-118900448D02*
X148819108Y-118926156D01*
X148819108Y-118926156D02*
X148819108Y-126047392D01*
X148819108Y-126047392D02*
X144767500Y-130099000D01*
X144767500Y-130099000D02*
X144767500Y-133655000D01*
X144767500Y-133655000D02*
X148793400Y-137680900D01*
X130431700Y-94988580D02*
X130431740Y-94988580D01*
X136093400Y-136103362D02*
X136093400Y-141828240D01*
X130431740Y-94988580D02*
X131770320Y-93650000D01*
X131770320Y-93650000D02*
X142044315Y-93650000D01*
X142044315Y-93650000D02*
X145212198Y-96817883D01*
X145212198Y-96817883D02*
X145212198Y-124625214D01*
X145212198Y-124625214D02*
X141211390Y-128626020D01*
X141211390Y-128626020D02*
X141211390Y-130985372D01*
X141211390Y-130985372D02*
X136093400Y-136103362D01*
X136093400Y-141828240D02*
X136093400Y-143116020D01*
X144856587Y-124477916D02*
X140855779Y-128478722D01*
X134823400Y-136870453D02*
X134823400Y-141828240D01*
X140855779Y-130838074D02*
X134823400Y-136870453D01*
X144856587Y-96965181D02*
X144856587Y-124477916D01*
X142811406Y-94920000D02*
X144856587Y-96965181D01*
X135450740Y-94914920D02*
X142811406Y-94920000D01*
X134823400Y-141828240D02*
X134823400Y-143116020D01*
X140855779Y-128478722D02*
X140855779Y-130838074D01*
X130431700Y-97465080D02*
X130431700Y-97462580D01*
X144500976Y-124330618D02*
X140500168Y-128331424D01*
X130431700Y-97462580D02*
X131704280Y-96190000D01*
X131704280Y-96190000D02*
X141300401Y-96190000D01*
X144500976Y-99390575D02*
X144500976Y-124330618D01*
X141300401Y-96190000D02*
X144500976Y-99390575D01*
X140500168Y-128331424D02*
X140500168Y-130690776D01*
X133553400Y-141828240D02*
X133553400Y-143116020D01*
X140500168Y-130690776D02*
X133553400Y-137637544D01*
X133553400Y-137637544D02*
X133553400Y-141828240D01*
X132283400Y-141828240D02*
X132283400Y-143116020D01*
X144145365Y-99537873D02*
X144145365Y-124183320D01*
X144145365Y-124183320D02*
X140144557Y-128184126D01*
X142067492Y-97460000D02*
X144145365Y-99537873D01*
X135450740Y-97454920D02*
X142067492Y-97460000D01*
X132283400Y-138404635D02*
X132283400Y-141828240D01*
X140144557Y-128184126D02*
X140144557Y-130543478D01*
X140144557Y-130543478D02*
X132283400Y-138404635D01*
X130431700Y-100005080D02*
X130434280Y-100005080D01*
X130434280Y-100005080D02*
X131709360Y-98730000D01*
X131709360Y-98730000D02*
X140621871Y-98730000D01*
X139788946Y-130396180D02*
X131013400Y-139171726D01*
X140621871Y-98730000D02*
X143789754Y-101897883D01*
X143789754Y-124036022D02*
X139788946Y-128036828D01*
X143789754Y-101897883D02*
X143789754Y-124036022D01*
X139788946Y-128036828D02*
X139788946Y-130396180D01*
X131013400Y-139171726D02*
X131013400Y-141828240D01*
X131013400Y-141828240D02*
X131013400Y-143116020D01*
X143713400Y-143116020D02*
X143713400Y-134612535D01*
X143713400Y-134612535D02*
X143345056Y-134244192D01*
X143345056Y-134244192D02*
X143345056Y-129509808D01*
X143345056Y-129509808D02*
X147396664Y-125458202D01*
X147396664Y-125458202D02*
X147396664Y-119515348D01*
X147396664Y-119515348D02*
X147345864Y-119464548D01*
X147345864Y-119464548D02*
X147345864Y-92588496D01*
X131633160Y-86157000D02*
X130431700Y-87358460D01*
X147345864Y-92588496D02*
X140914368Y-86157000D01*
X140914368Y-86157000D02*
X131633160Y-86157000D01*
X130431700Y-87358460D02*
X130431700Y-87368580D01*
X124663400Y-141828240D02*
X124663400Y-143116020D01*
X125806400Y-140335200D02*
X124663400Y-141478200D01*
X127335381Y-140335200D02*
X125806400Y-140335200D01*
X142011699Y-123299532D02*
X138010891Y-127300338D01*
X142011699Y-107175893D02*
X142011699Y-123299532D01*
X139915806Y-105080000D02*
X142011699Y-107175893D01*
X135450740Y-105074920D02*
X139915806Y-105080000D01*
X124663400Y-141478200D02*
X124663400Y-141828240D01*
X138010891Y-127300338D02*
X138010891Y-129659690D01*
X138010891Y-129659690D02*
X127335381Y-140335200D01*
X130431700Y-105085080D02*
X130431700Y-105064800D01*
X130431700Y-105064800D02*
X131686500Y-103810000D01*
X131686500Y-103810000D02*
X140132000Y-103810000D01*
X140132000Y-103810000D02*
X142367310Y-106045310D01*
X138366502Y-129806988D02*
X126479500Y-141693990D01*
X142367310Y-106045310D02*
X142367310Y-123446830D01*
X142367310Y-123446830D02*
X138366502Y-127447636D01*
X138366502Y-127447636D02*
X138366502Y-129806988D01*
X126479500Y-141693990D02*
X126479500Y-141828240D01*
X126479500Y-141828240D02*
X125933400Y-142374340D01*
X125933400Y-142374340D02*
X125933400Y-143116020D01*
X140320430Y-102540000D02*
X142722921Y-104942491D01*
X127203400Y-141472999D02*
X127203400Y-141828240D01*
X127203400Y-141828240D02*
X127203400Y-143116020D01*
X142722921Y-104942491D02*
X142722921Y-123594128D01*
X138722113Y-129954286D02*
X127203400Y-141472999D01*
X142722921Y-123594128D02*
X138722113Y-127594934D01*
X138722113Y-127594934D02*
X138722113Y-129954286D01*
X135450740Y-102534920D02*
X140320430Y-102540000D01*
X130431700Y-102608580D02*
X130431700Y-102583220D01*
X130431700Y-102583220D02*
X131744920Y-101270000D01*
X131744920Y-101270000D02*
X139553339Y-101270000D01*
X139077724Y-127742232D02*
X139077724Y-130101584D01*
X139553339Y-101270000D02*
X143078532Y-104795193D01*
X143078532Y-104795193D02*
X143078532Y-123741426D01*
X143078532Y-123741426D02*
X139077724Y-127742232D01*
X139077724Y-130101584D02*
X128473400Y-140705908D01*
X128473400Y-140705908D02*
X128473400Y-141828240D01*
X128473400Y-141828240D02*
X128473400Y-143116020D01*
X135514240Y-99994920D02*
X141388962Y-100000000D01*
X139433335Y-130248882D02*
X129743400Y-139938817D01*
X129743400Y-141828240D02*
X129743400Y-143116020D01*
X139433335Y-127889530D02*
X139433335Y-130248882D01*
X143434143Y-102045181D02*
X143434143Y-123888724D01*
X143434143Y-123888724D02*
X139433335Y-127889530D01*
X129743400Y-139938817D02*
X129743400Y-141828240D01*
X141388962Y-100000000D02*
X143434143Y-102045181D01*
X141567001Y-128773318D02*
X141567001Y-131132670D01*
X137363400Y-135336271D02*
X137363400Y-141828240D01*
X141567001Y-131132670D02*
X137363400Y-135336271D01*
X137363400Y-141828240D02*
X137363400Y-143116020D01*
X145567809Y-94425181D02*
X145567809Y-124772512D01*
X143586128Y-92443500D02*
X145567809Y-94425181D01*
X135450740Y-92438420D02*
X143586128Y-92443500D01*
X145567809Y-124772512D02*
X141567001Y-128773318D01*
X130431700Y-92448580D02*
X130454560Y-92425720D01*
X130480000Y-92380000D02*
X131750000Y-91110000D01*
X130454560Y-92425720D02*
X130459680Y-92425720D01*
X130459680Y-92425720D02*
X130480000Y-92405400D01*
X131750000Y-91110000D02*
X142755537Y-91110000D01*
X130480000Y-92405400D02*
X130480000Y-92380000D01*
X142755537Y-91110000D02*
X145923420Y-94277883D01*
X145923420Y-94277883D02*
X145923420Y-124919810D01*
X145923420Y-124919810D02*
X141922612Y-128920616D01*
X141922612Y-128920616D02*
X141922612Y-131279968D01*
X141922612Y-131279968D02*
X138633400Y-134569180D01*
X138633400Y-134569180D02*
X138633400Y-141828240D01*
X138633400Y-141828240D02*
X138633400Y-143116020D01*
X146279031Y-125067106D02*
X142278223Y-129067914D01*
X142278223Y-131427266D02*
X139928811Y-133776678D01*
X139928811Y-133776678D02*
X139928811Y-140814747D01*
X139903400Y-141828240D02*
X139903400Y-143116020D01*
X139903400Y-140840158D02*
X139903400Y-141828240D01*
X139928811Y-140814747D02*
X139903400Y-140840158D01*
X146279031Y-93030387D02*
X146279031Y-125067106D01*
X135450740Y-89834920D02*
X143088644Y-89840000D01*
X142278223Y-129067914D02*
X142278223Y-131427266D01*
X143088644Y-89840000D02*
X146279031Y-93030387D01*
X130431700Y-89845080D02*
X130431700Y-89837500D01*
X146634642Y-119759144D02*
X146685442Y-119809944D01*
X130431700Y-89837500D02*
X131699200Y-88570000D01*
X131699200Y-88570000D02*
X142321552Y-88570000D01*
X142321552Y-88570000D02*
X146634642Y-92883090D01*
X146634642Y-92883090D02*
X146634642Y-119759144D01*
X142633834Y-129215212D02*
X142633834Y-131574564D01*
X146685442Y-119809944D02*
X146685442Y-125163606D01*
X141173400Y-141828240D02*
X141173400Y-143116020D01*
X146685442Y-125163606D02*
X142633834Y-129215212D01*
X142633834Y-131574564D02*
X141173400Y-133034998D01*
X141173400Y-133034998D02*
X141173400Y-141828240D01*
X142443400Y-141828240D02*
X142443400Y-143116020D01*
X142989445Y-129362510D02*
X142989445Y-131721862D01*
X147041053Y-125310904D02*
X142989445Y-129362510D01*
X141554460Y-87300000D02*
X146990253Y-92735793D01*
X142989445Y-131721862D02*
X142443400Y-132267907D01*
X142443400Y-132267907D02*
X142443400Y-141828240D01*
X146990253Y-119611846D02*
X147041053Y-119662646D01*
X146990253Y-92735793D02*
X146990253Y-119611846D01*
X147041053Y-119662646D02*
X147041053Y-125310904D01*
X135450740Y-87294920D02*
X141554460Y-87300000D01*
X74033249Y-134569389D02*
X61900000Y-122436140D01*
X62852500Y-119050000D02*
X68313500Y-119050000D01*
X68313500Y-119050000D02*
X68885000Y-118478500D01*
X61900000Y-122436140D02*
X61900000Y-120002500D01*
X61900000Y-120002500D02*
X62852500Y-119050000D01*
X68885000Y-118478500D02*
X69588580Y-117787620D01*
X96190000Y-143116020D02*
X96190000Y-141828240D01*
X96190000Y-141828240D02*
X88931149Y-134569389D01*
X88931149Y-134569389D02*
X74033249Y-134569389D01*
X64483180Y-117787620D02*
X63035380Y-117787620D01*
X63035380Y-117787620D02*
X61417389Y-119405611D01*
X61417389Y-119405611D02*
X61417389Y-122456437D01*
X61417389Y-122456437D02*
X73885952Y-134925000D01*
X94920000Y-141564637D02*
X94920000Y-141828240D01*
X73885952Y-134925000D02*
X88280363Y-134925000D01*
X94920000Y-141828240D02*
X94920000Y-143116020D01*
X88280363Y-134925000D02*
X94920000Y-141564637D01*
X69588580Y-115247620D02*
X68313500Y-116510000D01*
X68313500Y-116510000D02*
X62032092Y-116510000D01*
X62032092Y-116510000D02*
X61061778Y-117480314D01*
X61061778Y-117480314D02*
X61061778Y-122603736D01*
X61061778Y-122603736D02*
X73789431Y-135331389D01*
X73789431Y-135331389D02*
X88183843Y-135331389D01*
X88183843Y-135331389D02*
X93650000Y-140797546D01*
X93650000Y-140797546D02*
X93650000Y-141828240D01*
X93650000Y-141828240D02*
X93650000Y-143116020D01*
X60706167Y-122751033D02*
X73642134Y-135687000D01*
X60706167Y-116631292D02*
X60706167Y-122751033D01*
X62097459Y-115240000D02*
X60706167Y-116631292D01*
X64483180Y-115247620D02*
X62097459Y-115240000D01*
X88036545Y-135687000D02*
X92380000Y-140030455D01*
X92380000Y-140030455D02*
X92380000Y-141828240D01*
X73642134Y-135687000D02*
X88036545Y-135687000D01*
X92380000Y-141828240D02*
X92380000Y-143116020D01*
X69588580Y-112707620D02*
X68313500Y-113970000D01*
X73494835Y-136042611D02*
X87889247Y-136042611D01*
X68313500Y-113970000D02*
X62864551Y-113970000D01*
X62864551Y-113970000D02*
X60350556Y-116483994D01*
X60350556Y-116483994D02*
X60350556Y-122898332D01*
X60350556Y-122898332D02*
X73494835Y-136042611D01*
X87889247Y-136042611D02*
X91110000Y-139263364D01*
X91110000Y-139263364D02*
X91110000Y-141828240D01*
X91110000Y-141828240D02*
X91110000Y-143116020D01*
X130431700Y-107561580D02*
X130431700Y-107541300D01*
X130431700Y-107541300D02*
X131623000Y-106350000D01*
X137734218Y-106350000D02*
X141656088Y-110271870D01*
X131623000Y-106350000D02*
X137734218Y-106350000D01*
X108890000Y-140510000D02*
X108890000Y-143116020D01*
X141656088Y-110271870D02*
X141656088Y-123152234D01*
X141656088Y-123152234D02*
X129158322Y-135650000D01*
X129158322Y-135650000D02*
X113750000Y-135650000D01*
X113750000Y-135650000D02*
X108890000Y-140510000D01*
X107620000Y-141089591D02*
X107620000Y-141828240D01*
X129055413Y-135250000D02*
X113459591Y-135250000D01*
X141300477Y-123004936D02*
X129055413Y-135250000D01*
X141300477Y-110419168D02*
X141300477Y-123004936D01*
X138501309Y-107620000D02*
X141300477Y-110419168D01*
X135450740Y-107614920D02*
X138501309Y-107620000D01*
X113459591Y-135250000D02*
X107620000Y-141089591D01*
X107620000Y-141828240D02*
X107620000Y-143116020D01*
X130431700Y-110165080D02*
X130474920Y-110165080D01*
X140944866Y-122857638D02*
X128952504Y-134850000D01*
X128952504Y-134850000D02*
X113328240Y-134850000D01*
X130474920Y-110165080D02*
X131750000Y-108890000D01*
X131750000Y-108890000D02*
X139268400Y-108890000D01*
X139268400Y-108890000D02*
X140944866Y-110566466D01*
X140944866Y-110566466D02*
X140944866Y-122857638D01*
X113328240Y-134850000D02*
X106350000Y-141828240D01*
X106350000Y-141828240D02*
X106350000Y-143116020D01*
X135450740Y-110154920D02*
X137682229Y-110160000D01*
X140589255Y-113067026D02*
X140589255Y-122710340D01*
X140589255Y-122710340D02*
X128874595Y-134425000D01*
X105080000Y-142374340D02*
X105080000Y-143116020D01*
X113029340Y-134425000D02*
X105080000Y-142374340D01*
X137682229Y-110160000D02*
X140589255Y-113067026D01*
X128874595Y-134425000D02*
X113029340Y-134425000D01*
X130431700Y-112705080D02*
X130431700Y-112684800D01*
X138138100Y-111366500D02*
X140132044Y-113360444D01*
X130431700Y-112684800D02*
X131750000Y-111366500D01*
X131750000Y-111366500D02*
X138138100Y-111366500D01*
X140132044Y-113360444D02*
X140132044Y-113403635D01*
X112134340Y-134050000D02*
X103810000Y-142374340D01*
X140132044Y-113403635D02*
X140233644Y-113505235D01*
X140233644Y-113505235D02*
X140233644Y-122563042D01*
X140233644Y-122563042D02*
X128746686Y-134050000D01*
X128746686Y-134050000D02*
X112134340Y-134050000D01*
X103810000Y-142374340D02*
X103810000Y-143116020D01*
X62217720Y-127280040D02*
X62217720Y-127711675D01*
X58572501Y-123634821D02*
X62217720Y-127280040D01*
X59995000Y-107620000D02*
X58572501Y-109042499D01*
X58572501Y-109042499D02*
X58572501Y-123634821D01*
X64483180Y-107627620D02*
X59995000Y-107620000D01*
X62217720Y-127711675D02*
X77622065Y-143116020D01*
X84213900Y-143116020D02*
X84760000Y-143116020D01*
X77622065Y-143116020D02*
X84213900Y-143116020D01*
X69588580Y-107627620D02*
X68313500Y-108890000D01*
X68313500Y-108890000D02*
X60630000Y-108890000D01*
X60630000Y-108890000D02*
X58928112Y-110591888D01*
X72905643Y-137465055D02*
X85014055Y-137465055D01*
X58928112Y-110591888D02*
X58928112Y-123487524D01*
X58928112Y-123487524D02*
X72905643Y-137465055D01*
X85014055Y-137465055D02*
X86030000Y-138481000D01*
X86030000Y-141828240D02*
X86030000Y-143116020D01*
X86030000Y-138481000D02*
X86030000Y-141828240D01*
X86025000Y-145825000D02*
X86030000Y-145830000D01*
X86030000Y-145830000D02*
X86030000Y-145843980D01*
X59283723Y-111506277D02*
X59283723Y-123340225D01*
X86055444Y-137109444D02*
X87300000Y-138354000D01*
X87300000Y-141828240D02*
X87300000Y-143116020D01*
X73052942Y-137109444D02*
X86055444Y-137109444D01*
X60630000Y-110160000D02*
X59283723Y-111506277D01*
X64483180Y-110167620D02*
X60630000Y-110160000D01*
X59283723Y-123340225D02*
X73052942Y-137109444D01*
X87300000Y-138354000D02*
X87300000Y-141828240D01*
X87325000Y-145750000D02*
X87300000Y-145775000D01*
X87300000Y-145775000D02*
X87300000Y-145843980D01*
X69588580Y-110167620D02*
X68313500Y-111430000D01*
X68313500Y-111430000D02*
X61265000Y-111430000D01*
X88570000Y-138481000D02*
X88570000Y-141828240D01*
X61265000Y-111430000D02*
X59639334Y-113055666D01*
X73200239Y-136753833D02*
X86842833Y-136753833D01*
X59639334Y-113055666D02*
X59639334Y-123192928D01*
X59639334Y-123192928D02*
X73200239Y-136753833D01*
X86842833Y-136753833D02*
X88570000Y-138481000D01*
X88570000Y-141828240D02*
X88570000Y-143116020D01*
X88570000Y-145770000D02*
X88550000Y-145750000D01*
X88570000Y-145770000D02*
X88570000Y-145843980D01*
X64483180Y-112707620D02*
X63035380Y-112707620D01*
X63035380Y-112707620D02*
X59994945Y-115748055D01*
X59994945Y-115748055D02*
X59994945Y-123045629D01*
X59994945Y-123045629D02*
X73347538Y-136398222D01*
X73347538Y-136398222D02*
X87741949Y-136398222D01*
X87741949Y-136398222D02*
X89840000Y-138496273D01*
X89840000Y-138496273D02*
X89840000Y-141828240D01*
X89840000Y-141828240D02*
X89840000Y-143116020D01*
X89850000Y-145775000D02*
X89840000Y-145785000D01*
X89840000Y-145785000D02*
X89840000Y-145843980D01*
X97409177Y-143179998D02*
X97409198Y-143179998D01*
X97409198Y-143179998D02*
X97409200Y-143179996D01*
X137459920Y-117774920D02*
X135450740Y-117774920D01*
X97409200Y-143179996D02*
X97409200Y-142316400D01*
X97409200Y-142316400D02*
X107658000Y-132067600D01*
X107658000Y-132067600D02*
X128214541Y-132067600D01*
X128214541Y-132067600D02*
X138442889Y-121839252D01*
X138442889Y-121839252D02*
X138442889Y-118757889D01*
X138442889Y-118757889D02*
X137459920Y-117774920D01*
X130429200Y-117785080D02*
X130429200Y-117767300D01*
X130429200Y-117767300D02*
X131686500Y-116510000D01*
X131686500Y-116510000D02*
X138163500Y-116510000D01*
X138163500Y-116510000D02*
X138798500Y-117145000D01*
X108712108Y-132435892D02*
X98679200Y-142468800D01*
X138798500Y-117145000D02*
X138798500Y-121986550D01*
X138798500Y-121986550D02*
X128349158Y-132435892D01*
X128349158Y-132435892D02*
X108712108Y-132435892D01*
X98679200Y-142468800D02*
X98679200Y-143180000D01*
X98679200Y-143180000D02*
X98679200Y-143230800D01*
X131027540Y-117785080D02*
X131027540Y-117760740D01*
X135450740Y-115234920D02*
X138481000Y-115240000D01*
X128496456Y-132791503D02*
X109582837Y-132791503D01*
X139166811Y-115925811D02*
X139166811Y-122121148D01*
X100000000Y-142374340D02*
X100000000Y-143116020D01*
X109582837Y-132791503D02*
X100000000Y-142374340D01*
X139166811Y-122121148D02*
X128496456Y-132791503D01*
X138481000Y-115240000D02*
X139166811Y-115925811D01*
X128632934Y-133157934D02*
X110486406Y-133157934D01*
X110486406Y-133157934D02*
X109697229Y-133947111D01*
X109697229Y-133947111D02*
X101270000Y-142374340D01*
X130431700Y-115245080D02*
X130431700Y-115224800D01*
X131686500Y-113970000D02*
X138481000Y-113970000D01*
X130431700Y-115224800D02*
X131686500Y-113970000D01*
X138481000Y-113970000D02*
X139522422Y-115011422D01*
X139522422Y-115011422D02*
X139522422Y-122268446D01*
X139522422Y-122268446D02*
X128632934Y-133157934D01*
X101270000Y-142374340D02*
X101270000Y-143116020D01*
X135450740Y-112694920D02*
X138925500Y-112700000D01*
X102540000Y-142374340D02*
X102540000Y-143116020D01*
X111314340Y-133600000D02*
X102540000Y-142374340D01*
X138925500Y-112700000D02*
X139878033Y-113652533D01*
X139878033Y-113652533D02*
X139878033Y-122415744D01*
X139878033Y-122415744D02*
X128693777Y-133600000D01*
X128693777Y-133600000D02*
X111314340Y-133600000D01*
X64483180Y-78659820D02*
X64483180Y-79687620D01*
X74028500Y-121145500D02*
X74028500Y-78537000D01*
X72783890Y-77292390D02*
X65850610Y-77292390D01*
X74028500Y-78537000D02*
X72783890Y-77292390D01*
X65850610Y-77292390D02*
X64483180Y-78659820D01*
X115240000Y-143116020D02*
X115240000Y-139540000D01*
X115240000Y-139540000D02*
X114625000Y-138925000D01*
X66317060Y-122161500D02*
X73012500Y-122161500D01*
X64483180Y-120327620D02*
X66317060Y-122161500D01*
X73012500Y-122161500D02*
X74028500Y-121145500D01*
X117331020Y-145843980D02*
X115240000Y-145843980D01*
X121475000Y-138900000D02*
X121475000Y-141700000D01*
X121475000Y-141700000D02*
X117331020Y-145843980D01*
X115240000Y-145843980D02*
X115556020Y-145843980D01*
X135450740Y-79738420D02*
X135450740Y-79728220D01*
X135450740Y-79728220D02*
X133307020Y-77584500D01*
X133307020Y-77584500D02*
X127331244Y-77584500D01*
X127331244Y-77584500D02*
X126022278Y-78893466D01*
X126022278Y-78893466D02*
X126022278Y-121069278D01*
X126022278Y-121069278D02*
X127178000Y-122225000D01*
X127178000Y-122225000D02*
X133540660Y-122225000D01*
X133540660Y-122225000D02*
X135450740Y-120314920D01*
X118350000Y-136400000D02*
X120140000Y-136400000D01*
X111430000Y-143116020D02*
X111430000Y-138720000D01*
X113750000Y-136400000D02*
X118350000Y-136400000D01*
X111430000Y-138720000D02*
X113750000Y-136400000D01*
X69588580Y-79687620D02*
X71234500Y-78029000D01*
X71234500Y-78029000D02*
X72509592Y-78029000D01*
X73253778Y-78773186D02*
X73253778Y-118609038D01*
X70707821Y-121444321D02*
X69583500Y-120320000D01*
X69583500Y-120322540D02*
X69588580Y-120327620D01*
X72509592Y-78029000D02*
X73253778Y-78773186D01*
X73245281Y-120828000D02*
X73245281Y-120863637D01*
X73253778Y-118609038D02*
X73266500Y-118621760D01*
X73245281Y-120863637D02*
X72664597Y-121444321D01*
X73266500Y-118621760D02*
X73266500Y-120828000D01*
X69583500Y-120320000D02*
X69583500Y-120322540D01*
X73266500Y-120828000D02*
X73245281Y-120828000D01*
X72664597Y-121444321D02*
X70707821Y-121444321D01*
X115925000Y-127800000D02*
X115950000Y-127825000D01*
X122775000Y-137350000D02*
X122760000Y-137350000D01*
X112700000Y-146585660D02*
X112700000Y-145843980D01*
X130050701Y-120706081D02*
X130431700Y-120325082D01*
X129315001Y-121441781D02*
X130050701Y-120706081D01*
X127400597Y-121441781D02*
X129315001Y-121441781D01*
X126772499Y-79704501D02*
X126733500Y-79743500D01*
X126772499Y-79149063D02*
X126772499Y-79704501D01*
X126733500Y-120774684D02*
X127400597Y-121441781D01*
X127353183Y-78568379D02*
X126772499Y-79149063D01*
X130429200Y-79685080D02*
X129312499Y-78568379D01*
X129312499Y-78568379D02*
X127353183Y-78568379D01*
X126733500Y-79743500D02*
X126733500Y-120774684D01*
X140000000Y-81000000D02*
X140000000Y-79050000D01*
X140000000Y-79050000D02*
X140050000Y-79000000D01*
X59931500Y-79045000D02*
X59931500Y-80950002D01*
X67023180Y-120323180D02*
X67000000Y-120300000D01*
X67023180Y-120323180D02*
X67023180Y-120327620D01*
X68501449Y-121805889D02*
X67873179Y-121177619D01*
X72865203Y-121805889D02*
X68501449Y-121805889D01*
X73672889Y-120998203D02*
X72865203Y-121805889D01*
X69062799Y-77648001D02*
X72631501Y-77648001D01*
X72631501Y-77648001D02*
X73672889Y-78689389D01*
X67023180Y-79687620D02*
X69062799Y-77648001D01*
X73672889Y-78689389D02*
X73672889Y-120998203D01*
X67873179Y-121177619D02*
X67023180Y-120327620D01*
X113970000Y-143116020D02*
X113970000Y-138820000D01*
X113970000Y-138820000D02*
X113400000Y-138250000D01*
X132910740Y-79738420D02*
X132910740Y-79164340D01*
X132910740Y-79164340D02*
X131686511Y-77940111D01*
X131686511Y-77940111D02*
X127478542Y-77940111D01*
X131470611Y-121869389D02*
X131496000Y-121844000D01*
X131496000Y-121729660D02*
X132910740Y-120314920D01*
X127478542Y-77940111D02*
X126377889Y-79040764D01*
X126377889Y-79040764D02*
X126377889Y-120921981D01*
X126377889Y-120921981D02*
X127325297Y-121869389D01*
X127325297Y-121869389D02*
X131470611Y-121869389D01*
X131496000Y-121844000D02*
X131496000Y-121729660D01*
X112700000Y-143116020D02*
X112700000Y-138000000D01*
X121800000Y-138300000D02*
X122760000Y-138300000D01*
X120900000Y-137400000D02*
X121800000Y-138300000D01*
X113300000Y-137400000D02*
X120900000Y-137400000D01*
X112700000Y-138000000D02*
X113300000Y-137400000D01*
X111430000Y-145843980D02*
X111430000Y-146830000D01*
X111430000Y-146830000D02*
X111950000Y-147350000D01*
X111950000Y-147350000D02*
X116875000Y-147350000D01*
X116875000Y-147350000D02*
X123925000Y-140300000D01*
X123925000Y-140300000D02*
X123925000Y-136900000D01*
X123925000Y-136900000D02*
X123425000Y-136400000D01*
X123425000Y-136400000D02*
X122760000Y-136400000D01*
X141973496Y-81013496D02*
X141973500Y-81013500D01*
X141973496Y-78981500D02*
X141973496Y-81013496D01*
X58026500Y-81013498D02*
X58026502Y-81013500D01*
X58026500Y-79045001D02*
X58026500Y-81013498D01*
X118350000Y-138300000D02*
X120140000Y-138300000D01*
M02*
