G04 #@! TF.FileFunction,Copper,L3,Inr,Plane*
%FSLAX46Y46*%
G04 Gerber Fmt 4.6, Leading zero omitted, Abs format (unit mm)*
G04 Created by KiCad (PCBNEW 4.0.6) date 06/26/19 12:45:04*
%MOMM*%
%LPD*%
G01*
G04 APERTURE LIST*
%ADD10C,0.150000*%
%ADD11R,1.700000X1.700000*%
%ADD12O,1.700000X1.700000*%
%ADD13C,6.400000*%
%ADD14C,0.814000*%
%ADD15C,0.762000*%
%ADD16C,0.177800*%
G04 APERTURE END LIST*
D10*
D11*
X64483180Y-79687620D03*
D12*
X67023180Y-79687620D03*
X64483180Y-82227620D03*
X67023180Y-82227620D03*
X64483180Y-84767620D03*
X67023180Y-84767620D03*
X64483180Y-87307620D03*
X67023180Y-87307620D03*
X64483180Y-89847620D03*
X67023180Y-89847620D03*
X64483180Y-92387620D03*
X67023180Y-92387620D03*
X64483180Y-94927620D03*
X67023180Y-94927620D03*
X64483180Y-97467620D03*
X67023180Y-97467620D03*
X64483180Y-100007620D03*
X67023180Y-100007620D03*
X64483180Y-102547620D03*
X67023180Y-102547620D03*
X64483180Y-105087620D03*
X67023180Y-105087620D03*
X64483180Y-107627620D03*
X67023180Y-107627620D03*
X64483180Y-110167620D03*
X67023180Y-110167620D03*
X64483180Y-112707620D03*
X67023180Y-112707620D03*
X64483180Y-115247620D03*
X67023180Y-115247620D03*
X64483180Y-117787620D03*
X67023180Y-117787620D03*
X67023180Y-120327620D03*
X64483180Y-120327620D03*
D13*
X149000000Y-81000000D03*
X51000000Y-81000000D03*
X149000000Y-132000000D03*
X51000000Y-132000000D03*
D11*
X69588580Y-79687620D03*
D12*
X72128580Y-79687620D03*
X69588580Y-82227620D03*
X72128580Y-82227620D03*
X69588580Y-84767620D03*
X72128580Y-84767620D03*
X69588580Y-87307620D03*
X72128580Y-87307620D03*
X69588580Y-89847620D03*
X72128580Y-89847620D03*
X69588580Y-92387620D03*
X72128580Y-92387620D03*
X69588580Y-94927620D03*
X72128580Y-94927620D03*
X69588580Y-97467620D03*
X72128580Y-97467620D03*
X69588580Y-100007620D03*
X72128580Y-100007620D03*
X69588580Y-102547620D03*
X72128580Y-102547620D03*
X69588580Y-105087620D03*
X72128580Y-105087620D03*
X69588580Y-107627620D03*
X72128580Y-107627620D03*
X69588580Y-110167620D03*
X72128580Y-110167620D03*
X69588580Y-112707620D03*
X72128580Y-112707620D03*
X69588580Y-115247620D03*
X72128580Y-115247620D03*
X69588580Y-117787620D03*
X72128580Y-117787620D03*
X72128580Y-120327620D03*
X69588580Y-120327620D03*
D11*
X135448240Y-120314920D03*
D12*
X132908240Y-120314920D03*
X135448240Y-117774920D03*
X132908240Y-117774920D03*
X135448240Y-115234920D03*
X132908240Y-115234920D03*
X135448240Y-112694920D03*
X132908240Y-112694920D03*
X135448240Y-110154920D03*
X132908240Y-110154920D03*
X135448240Y-107614920D03*
X132908240Y-107614920D03*
X135448240Y-105074920D03*
X132908240Y-105074920D03*
X135448240Y-102534920D03*
X132908240Y-102534920D03*
X135448240Y-99994920D03*
X132908240Y-99994920D03*
X135448240Y-97454920D03*
X132908240Y-97454920D03*
X135448240Y-94914920D03*
X132908240Y-94914920D03*
X135448240Y-92374920D03*
X132908240Y-92374920D03*
X135448240Y-89834920D03*
X132908240Y-89834920D03*
X135448240Y-87294920D03*
X132908240Y-87294920D03*
X135448240Y-84754920D03*
X132908240Y-84754920D03*
X135448240Y-82214920D03*
X132908240Y-82214920D03*
X132908240Y-79674920D03*
X135448240Y-79674920D03*
D11*
X130429200Y-120325080D03*
D12*
X127889200Y-120325080D03*
X130429200Y-117785080D03*
X127889200Y-117785080D03*
X130429200Y-115245080D03*
X127889200Y-115245080D03*
X130429200Y-112705080D03*
X127889200Y-112705080D03*
X130429200Y-110165080D03*
X127889200Y-110165080D03*
X130429200Y-107625080D03*
X127889200Y-107625080D03*
X130429200Y-105085080D03*
X127889200Y-105085080D03*
X130429200Y-102545080D03*
X127889200Y-102545080D03*
X130429200Y-100005080D03*
X127889200Y-100005080D03*
X130429200Y-97465080D03*
X127889200Y-97465080D03*
X130429200Y-94925080D03*
X127889200Y-94925080D03*
X130429200Y-92385080D03*
X127889200Y-92385080D03*
X130429200Y-89845080D03*
X127889200Y-89845080D03*
X130429200Y-87305080D03*
X127889200Y-87305080D03*
X130429200Y-84765080D03*
X127889200Y-84765080D03*
X130429200Y-82225080D03*
X127889200Y-82225080D03*
X127889200Y-79685080D03*
X130429200Y-79685080D03*
D14*
X52505000Y-143532000D03*
X51235000Y-143532000D03*
X51235000Y-144802000D03*
X52505000Y-144802000D03*
X56315000Y-144802000D03*
X57585000Y-144802000D03*
X55045000Y-144802000D03*
X53775000Y-144802000D03*
X53775000Y-143532000D03*
X55045000Y-143532000D03*
X57585000Y-143532000D03*
X56315000Y-143532000D03*
X70285000Y-144802000D03*
X71555000Y-144802000D03*
X74095000Y-144802000D03*
X72825000Y-144802000D03*
X72825000Y-143532000D03*
X74095000Y-143532000D03*
X71555000Y-143532000D03*
X70285000Y-143532000D03*
X75365000Y-143532000D03*
X75365000Y-144802000D03*
X69015000Y-144802000D03*
X69015000Y-143532000D03*
X61395000Y-143532000D03*
X62665000Y-143532000D03*
X60125000Y-143532000D03*
X58855000Y-143532000D03*
X63935000Y-143532000D03*
X65205000Y-143532000D03*
X67745000Y-143532000D03*
X66475000Y-143532000D03*
X66475000Y-144802000D03*
X67745000Y-144802000D03*
X65205000Y-144802000D03*
X63935000Y-144802000D03*
X58855000Y-144802000D03*
X60125000Y-144802000D03*
X62665000Y-144802000D03*
X61395000Y-144802000D03*
X89840000Y-143532000D03*
X88570000Y-143532000D03*
X87300000Y-143532000D03*
X87300000Y-144802000D03*
X88570000Y-144802000D03*
X89840000Y-144802000D03*
X86030000Y-144802000D03*
X84760000Y-144802000D03*
X84760000Y-143532000D03*
X86030000Y-143532000D03*
X92380000Y-143532000D03*
X91110000Y-143532000D03*
X91110000Y-144802000D03*
X92380000Y-144802000D03*
X96190000Y-144802000D03*
X97460000Y-144802000D03*
X94920000Y-144802000D03*
X93650000Y-144802000D03*
X93650000Y-143532000D03*
X94920000Y-143532000D03*
X97460000Y-143532000D03*
X96190000Y-143532000D03*
X110160000Y-144802000D03*
X111430000Y-144802000D03*
X113970000Y-144802000D03*
X112700000Y-144802000D03*
X112700000Y-143532000D03*
X113970000Y-143532000D03*
X111430000Y-143532000D03*
X110160000Y-143532000D03*
X115240000Y-143532000D03*
X115240000Y-144802000D03*
X108890000Y-144802000D03*
X108890000Y-143532000D03*
X101270000Y-143532000D03*
X102540000Y-143532000D03*
X100000000Y-143532000D03*
X98730000Y-143532000D03*
X103810000Y-143532000D03*
X105080000Y-143532000D03*
X107620000Y-143532000D03*
X106350000Y-143532000D03*
X106350000Y-144802000D03*
X107620000Y-144802000D03*
X105080000Y-144802000D03*
X103810000Y-144802000D03*
X98730000Y-144802000D03*
X100000000Y-144802000D03*
X102540000Y-144802000D03*
X101270000Y-144802000D03*
X125905000Y-143532000D03*
X124635000Y-143532000D03*
X124635000Y-144802000D03*
X125905000Y-144802000D03*
X129715000Y-144802000D03*
X130985000Y-144802000D03*
X128445000Y-144802000D03*
X127175000Y-144802000D03*
X127175000Y-143532000D03*
X128445000Y-143532000D03*
X130985000Y-143532000D03*
X129715000Y-143532000D03*
X143685000Y-144802000D03*
X144955000Y-144802000D03*
X147495000Y-144802000D03*
X146225000Y-144802000D03*
X146225000Y-143532000D03*
X147495000Y-143532000D03*
X144955000Y-143532000D03*
X143685000Y-143532000D03*
X148765000Y-143532000D03*
X148765000Y-144802000D03*
X142415000Y-144802000D03*
X142415000Y-143532000D03*
X134795000Y-143532000D03*
X136065000Y-143532000D03*
X133525000Y-143532000D03*
X132255000Y-143532000D03*
X137335000Y-143532000D03*
X138605000Y-143532000D03*
X141145000Y-143532000D03*
X139875000Y-143532000D03*
X139875000Y-144802000D03*
X141145000Y-144802000D03*
X138605000Y-144802000D03*
X137335000Y-144802000D03*
X132255000Y-144802000D03*
X133525000Y-144802000D03*
X136065000Y-144802000D03*
X134795000Y-144802000D03*
D15*
X62900000Y-81650000D03*
X67023180Y-82227620D03*
X51317386Y-142482615D03*
X69588580Y-82227620D03*
X52017386Y-141782615D03*
X64483180Y-82227620D03*
X54117386Y-139682615D03*
X69588580Y-87307620D03*
X54917386Y-138982615D03*
X64450000Y-87350000D03*
X53417386Y-140382615D03*
X64483180Y-84767620D03*
X52717386Y-141082615D03*
X69588580Y-84767620D03*
X61900000Y-84300000D03*
X67023180Y-84767620D03*
X59900000Y-86750000D03*
X67023180Y-87307620D03*
X55617386Y-138282615D03*
X69588580Y-89847620D03*
X58400000Y-89250000D03*
X67023180Y-89847620D03*
X56417386Y-137582615D03*
X64483180Y-89847620D03*
X57117386Y-136882615D03*
X69600000Y-92400000D03*
X56850000Y-91800000D03*
X67023180Y-92387620D03*
X67917386Y-135982615D03*
X64483180Y-92387620D03*
X68817386Y-136382615D03*
X69600000Y-94950000D03*
X58050000Y-94250000D03*
X67023180Y-94927620D03*
X69717386Y-136782615D03*
X64483180Y-94927620D03*
X70417386Y-137482615D03*
X69588580Y-97467620D03*
X57750000Y-96850000D03*
X67023180Y-97467620D03*
X71117386Y-138182615D03*
X64483180Y-97467620D03*
X71817386Y-138882615D03*
X69588580Y-100007620D03*
X57800000Y-99450000D03*
X67023180Y-100007620D03*
X72517386Y-139582615D03*
X64483180Y-100007620D03*
X73217386Y-140282615D03*
X69588580Y-102547620D03*
X58650000Y-102000000D03*
X67023180Y-102547620D03*
X73917386Y-140982615D03*
X64483180Y-102547620D03*
X74617386Y-141682615D03*
X69588580Y-105087620D03*
X59400000Y-104500000D03*
X67023180Y-105087620D03*
X75317386Y-142482615D03*
X64483180Y-105087620D03*
X146517386Y-140382615D03*
X136969500Y-84137500D03*
X132908240Y-84754920D03*
X147217386Y-141082615D03*
X127889200Y-84765080D03*
X137160000Y-81534000D03*
X148017386Y-141782615D03*
X132910740Y-82214920D03*
X148717386Y-142482615D03*
X127899360Y-82204760D03*
X131217386Y-136182615D03*
X127891698Y-94925080D03*
X130517386Y-136882615D03*
X136842500Y-94234000D03*
X132910740Y-94914920D03*
X129817386Y-137582615D03*
X127891700Y-97465080D03*
X136842500Y-96774000D03*
X129117386Y-138282615D03*
X132910738Y-97454920D03*
X128417386Y-138982615D03*
X127891702Y-100005080D03*
X145817386Y-139682615D03*
X127893594Y-87339326D03*
X124917386Y-142482615D03*
X136842500Y-104394000D03*
X132910740Y-105074920D03*
X125617386Y-141782615D03*
X127891702Y-105085080D03*
X136842500Y-101854000D03*
X126317386Y-141082615D03*
X132910740Y-102534918D03*
X127017386Y-140382615D03*
X127891700Y-102545080D03*
X136842500Y-99314000D03*
X127717386Y-139682615D03*
X132910740Y-99994920D03*
X136906000Y-91757500D03*
X142317386Y-136182615D03*
X132910740Y-92374920D03*
X143017386Y-136882615D03*
X127891700Y-92385080D03*
X136842500Y-89154000D03*
X143717386Y-137582615D03*
X132910740Y-89834918D03*
X144417386Y-138282615D03*
X127893594Y-89879326D03*
X145117386Y-138982615D03*
X136906000Y-86614000D03*
X132910740Y-87294920D03*
X80800000Y-137100000D03*
X64483180Y-117787620D03*
X62700000Y-117950000D03*
X67023180Y-117787620D03*
X84300000Y-141700000D03*
X69588580Y-117787620D03*
X83600000Y-141000000D03*
X64500000Y-115250000D03*
X62000000Y-115400000D03*
X67023180Y-115247620D03*
X82900000Y-140300000D03*
X69588580Y-115247620D03*
X82200000Y-139600000D03*
X64450000Y-112700000D03*
X61250000Y-112450000D03*
X67023180Y-112707620D03*
X115617386Y-142582615D03*
X127876500Y-107620000D03*
X114917386Y-141882615D03*
X136842500Y-106934000D03*
X132910740Y-107614920D03*
X114117386Y-141182615D03*
X127891700Y-110165080D03*
X113317386Y-140482615D03*
X136842500Y-109474000D03*
X132910740Y-110154920D03*
X112617386Y-139782615D03*
X127891700Y-112705080D03*
X84100000Y-142700000D03*
X69600000Y-107650000D03*
X60700000Y-107000000D03*
X83400000Y-142000000D03*
X64483180Y-107627620D03*
X82700000Y-141300000D03*
X69588580Y-110167620D03*
X61500000Y-109600000D03*
X67023180Y-110167620D03*
X82000000Y-140600000D03*
X64483180Y-110167620D03*
X81300000Y-139900000D03*
X69588580Y-112707620D03*
X136842500Y-117094000D03*
X119317386Y-136382615D03*
X132910740Y-117774922D03*
X118517386Y-136982615D03*
X127891698Y-117785080D03*
X117817386Y-137682615D03*
X136842500Y-114554000D03*
X132910738Y-115234920D03*
X117117386Y-138382615D03*
X136842500Y-112014000D03*
X116417386Y-139082615D03*
X132910740Y-112694920D03*
X111917386Y-137282615D03*
X64483180Y-120327620D03*
X119317386Y-144882615D03*
X120017386Y-135582615D03*
X135450740Y-120314920D03*
X98717386Y-138182615D03*
X98617386Y-132182615D03*
X69588580Y-120327620D03*
X69588580Y-79687620D03*
X130429200Y-120325080D03*
X140000000Y-81000000D03*
X140050000Y-79000000D03*
X59931500Y-80950002D03*
X59931500Y-79045000D03*
X110317386Y-136382615D03*
X67000000Y-120300000D03*
X132910740Y-120314920D03*
X120317386Y-144882615D03*
X72123500Y-79680000D03*
X72128580Y-120327620D03*
X127891702Y-120325080D03*
X127889200Y-79685080D03*
X97817386Y-137882615D03*
X115017386Y-135682615D03*
X98517386Y-133382615D03*
X121417386Y-144982615D03*
X142000000Y-81000000D03*
X141950000Y-79000000D03*
X58026502Y-81013500D03*
X58026500Y-79045001D03*
D16*
X67023180Y-82227620D02*
X67023180Y-82199680D01*
X67023180Y-82199680D02*
X65786000Y-80962500D01*
X63587500Y-80962500D02*
X62900000Y-81650000D01*
X65786000Y-80962500D02*
X63587500Y-80962500D01*
X53817386Y-138982615D02*
X54917386Y-138982615D01*
X50517386Y-142282615D02*
X53817386Y-138982615D01*
X50517386Y-145182615D02*
X50517386Y-142282615D01*
X50817386Y-145482615D02*
X50517386Y-145182615D01*
X56717386Y-145482615D02*
X50817386Y-145482615D01*
X56717386Y-145482615D02*
X57398001Y-144802000D01*
X57585000Y-144802000D02*
X57398001Y-144802000D01*
X67023180Y-84767620D02*
X67023180Y-84739680D01*
X67023180Y-84739680D02*
X65786000Y-83502500D01*
X62697500Y-83502500D02*
X61900000Y-84300000D01*
X65786000Y-83502500D02*
X62697500Y-83502500D01*
X65532000Y-86042500D02*
X60607500Y-86042500D01*
X60607500Y-86042500D02*
X59900000Y-86750000D01*
X65532000Y-86042500D02*
X66797120Y-87307620D01*
X67023180Y-87307620D02*
X66797120Y-87307620D01*
X54014488Y-138282615D02*
X55617386Y-138282615D01*
X50161784Y-142135319D02*
X54014488Y-138282615D01*
X50161784Y-145329911D02*
X50161784Y-142135319D01*
X50670090Y-145838217D02*
X50161784Y-145329911D01*
X57561784Y-145838217D02*
X50670090Y-145838217D01*
X58598001Y-144802000D02*
X57561784Y-145838217D01*
X58855000Y-144802000D02*
X58598001Y-144802000D01*
X67023180Y-89847620D02*
X67023180Y-89819680D01*
X67023180Y-89819680D02*
X65722500Y-88519000D01*
X59131000Y-88519000D02*
X58400000Y-89250000D01*
X65722500Y-88519000D02*
X59131000Y-88519000D01*
X54211590Y-137582615D02*
X56417386Y-137582615D01*
X49806182Y-141988023D02*
X54211590Y-137582615D01*
X49806182Y-145477207D02*
X49806182Y-141988023D01*
X50522794Y-146193819D02*
X49806182Y-145477207D01*
X58506182Y-146193819D02*
X50522794Y-146193819D01*
X58506182Y-146193819D02*
X59898001Y-144802000D01*
X60125000Y-144802000D02*
X59898001Y-144802000D01*
X54408692Y-136882615D02*
X57117386Y-136882615D01*
X49450580Y-141840727D02*
X54408692Y-136882615D01*
X49450580Y-145624503D02*
X49450580Y-141840727D01*
X50375498Y-146549421D02*
X49450580Y-145624503D01*
X59450580Y-146549421D02*
X50375498Y-146549421D01*
X59450580Y-146549421D02*
X61198001Y-144802000D01*
X61395000Y-144802000D02*
X61198001Y-144802000D01*
X67023180Y-92387620D02*
X66987620Y-92387620D01*
X66987620Y-92387620D02*
X65722500Y-91122500D01*
X57527500Y-91122500D02*
X56850000Y-91800000D01*
X65722500Y-91122500D02*
X57527500Y-91122500D01*
X68517386Y-135382615D02*
X67917386Y-135982615D01*
X65039794Y-146905023D02*
X62936771Y-144802000D01*
X65039794Y-146905023D02*
X76394978Y-146905023D01*
X76394978Y-146905023D02*
X77539794Y-145760207D01*
X77539794Y-145760207D02*
X77539794Y-141593431D01*
X77539794Y-141593431D02*
X71328978Y-135382615D01*
X71328978Y-135382615D02*
X68517386Y-135382615D01*
X62665000Y-144802000D02*
X62936771Y-144802000D01*
X69117386Y-136082615D02*
X68817386Y-136382615D01*
X65884192Y-146549421D02*
X64136771Y-144802000D01*
X65884192Y-146549421D02*
X76159274Y-146549421D01*
X76159274Y-146549421D02*
X77184192Y-145524503D01*
X77184192Y-145524503D02*
X77184192Y-141740727D01*
X77184192Y-141740727D02*
X71526080Y-136082615D01*
X71526080Y-136082615D02*
X69117386Y-136082615D01*
X63935000Y-144802000D02*
X64136771Y-144802000D01*
X58701000Y-93599000D02*
X58050000Y-94250000D01*
X65849500Y-93599000D02*
X58701000Y-93599000D01*
X67023180Y-94772680D02*
X65849500Y-93599000D01*
X67023180Y-94927620D02*
X67023180Y-94772680D01*
X69717386Y-136782615D02*
X71723182Y-136782615D01*
X76828590Y-141888023D02*
X71723182Y-136782615D01*
X76828590Y-145377207D02*
X76828590Y-141888023D01*
X76011978Y-146193819D02*
X76828590Y-145377207D01*
X66828590Y-146193819D02*
X76011978Y-146193819D01*
X65436771Y-144802000D02*
X66828590Y-146193819D01*
X65205000Y-144802000D02*
X65436771Y-144802000D01*
X71920284Y-137482615D02*
X70417386Y-137482615D01*
X76472988Y-142035319D02*
X71920284Y-137482615D01*
X76472988Y-145229911D02*
X76472988Y-142035319D01*
X75864682Y-145838217D02*
X76472988Y-145229911D01*
X67772988Y-145838217D02*
X75864682Y-145838217D01*
X67772988Y-145838217D02*
X66736771Y-144802000D01*
X66475000Y-144802000D02*
X66736771Y-144802000D01*
X67023180Y-97467620D02*
X67023180Y-97376180D01*
X67023180Y-97376180D02*
X65786000Y-96139000D01*
X65786000Y-96139000D02*
X58461000Y-96139000D01*
X58461000Y-96139000D02*
X57750000Y-96850000D01*
X72117386Y-138182615D02*
X71117386Y-138182615D01*
X76117386Y-142182615D02*
X72117386Y-138182615D01*
X76117386Y-145082615D02*
X76117386Y-142182615D01*
X75717386Y-145482615D02*
X76117386Y-145082615D01*
X68617386Y-145482615D02*
X75717386Y-145482615D01*
X67936771Y-144802000D02*
X68617386Y-145482615D01*
X67745000Y-144802000D02*
X67936771Y-144802000D01*
X67023180Y-100007620D02*
X67023180Y-99852680D01*
X67023180Y-99852680D02*
X65849500Y-98679000D01*
X65849500Y-98679000D02*
X58571000Y-98679000D01*
X58571000Y-98679000D02*
X57800000Y-99450000D01*
X65786000Y-101282500D02*
X59367500Y-101282500D01*
X59367500Y-101282500D02*
X58650000Y-102000000D01*
X67023180Y-102519680D02*
X65786000Y-101282500D01*
X67023180Y-102547620D02*
X67023180Y-102519680D01*
X67023180Y-105087620D02*
X66987620Y-105087620D01*
X66987620Y-105087620D02*
X65722500Y-103822500D01*
X60077500Y-103822500D02*
X59400000Y-104500000D01*
X65722500Y-103822500D02*
X60077500Y-103822500D01*
X133921500Y-83439000D02*
X132908240Y-84452260D01*
X136271000Y-83439000D02*
X136969500Y-84137500D01*
X133921500Y-83439000D02*
X136271000Y-83439000D01*
X132908240Y-84754920D02*
X132908240Y-84452260D01*
X133177080Y-82214920D02*
X134556500Y-80835500D01*
X136461500Y-80835500D02*
X137160000Y-81534000D01*
X134556500Y-80835500D02*
X136461500Y-80835500D01*
X132908240Y-82214920D02*
X133177080Y-82214920D01*
X132908240Y-82214920D02*
X132986580Y-82214920D01*
X134050580Y-146549421D02*
X123875498Y-146549421D01*
X123875498Y-146549421D02*
X122850580Y-145524503D01*
X122850580Y-145524503D02*
X122850580Y-142040727D01*
X122850580Y-142040727D02*
X128708692Y-136182615D01*
X128708692Y-136182615D02*
X131217386Y-136182615D01*
X135798001Y-144802000D02*
X134050580Y-146549421D01*
X136065000Y-144802000D02*
X135798001Y-144802000D01*
X128511590Y-136882615D02*
X130517386Y-136882615D01*
X123206182Y-142188023D02*
X128511590Y-136882615D01*
X123206182Y-145377207D02*
X123206182Y-142188023D01*
X124022794Y-146193819D02*
X123206182Y-145377207D01*
X133206182Y-146193819D02*
X124022794Y-146193819D01*
X134598001Y-144802000D02*
X133206182Y-146193819D01*
X134795000Y-144802000D02*
X134598001Y-144802000D01*
X136144000Y-93535500D02*
X136842500Y-94234000D01*
X133794500Y-93535500D02*
X136144000Y-93535500D01*
X132908240Y-94421760D02*
X133794500Y-93535500D01*
X132908240Y-94914920D02*
X132908240Y-94421760D01*
X132761784Y-145838217D02*
X133525000Y-145075001D01*
X132761784Y-145838217D02*
X124170090Y-145838217D01*
X124170090Y-145838217D02*
X123561784Y-145229911D01*
X123561784Y-145229911D02*
X123561784Y-142335319D01*
X123561784Y-142335319D02*
X128314488Y-137582615D01*
X128314488Y-137582615D02*
X129817386Y-137582615D01*
X133525000Y-144802000D02*
X133525000Y-145075001D01*
X132908240Y-97215760D02*
X134048500Y-96075500D01*
X134048500Y-96075500D02*
X136144000Y-96075500D01*
X136144000Y-96075500D02*
X136842500Y-96774000D01*
X128117386Y-138282615D02*
X129117386Y-138282615D01*
X123917386Y-142482615D02*
X128117386Y-138282615D01*
X123917386Y-145082615D02*
X123917386Y-142482615D01*
X124317386Y-145482615D02*
X123917386Y-145082615D01*
X131417386Y-145482615D02*
X124317386Y-145482615D01*
X131417386Y-145482615D02*
X132098001Y-144802000D01*
X132255000Y-144802000D02*
X132098001Y-144802000D01*
X132908240Y-97454920D02*
X132908240Y-97215760D01*
X132908240Y-104899260D02*
X134112000Y-103695500D01*
X134112000Y-103695500D02*
X136144000Y-103695500D01*
X136144000Y-103695500D02*
X136842500Y-104394000D01*
X132908240Y-105074920D02*
X132908240Y-104899260D01*
X136144000Y-101155500D02*
X136842500Y-101854000D01*
X134048500Y-101155500D02*
X136144000Y-101155500D01*
X132908240Y-102295760D02*
X134048500Y-101155500D01*
X132908240Y-102534920D02*
X132908240Y-102295760D01*
X136144000Y-98615500D02*
X136842500Y-99314000D01*
X133985000Y-98615500D02*
X136144000Y-98615500D01*
X132908240Y-99692260D02*
X133985000Y-98615500D01*
X132908240Y-99994920D02*
X132908240Y-99692260D01*
X132908240Y-92008760D02*
X133921500Y-90995500D01*
X133921500Y-90995500D02*
X136144000Y-90995500D01*
X136144000Y-90995500D02*
X136906000Y-91757500D01*
X145428978Y-136182615D02*
X142317386Y-136182615D01*
X150939794Y-141693431D02*
X145428978Y-136182615D01*
X150939794Y-145671799D02*
X150939794Y-141693431D01*
X149706570Y-146905023D02*
X150939794Y-145671799D01*
X139739794Y-146905023D02*
X149706570Y-146905023D01*
X139739794Y-146905023D02*
X137636771Y-144802000D01*
X137335000Y-144802000D02*
X137636771Y-144802000D01*
X132908240Y-92374920D02*
X132908240Y-92008760D01*
X145626080Y-136882615D02*
X143017386Y-136882615D01*
X150584192Y-141840727D02*
X145626080Y-136882615D01*
X150584192Y-145524503D02*
X150584192Y-141840727D01*
X149559274Y-146549421D02*
X150584192Y-145524503D01*
X140584192Y-146549421D02*
X149559274Y-146549421D01*
X140584192Y-146549421D02*
X138836771Y-144802000D01*
X138605000Y-144802000D02*
X138836771Y-144802000D01*
X132908240Y-89468760D02*
X133921500Y-88455500D01*
X133921500Y-88455500D02*
X136144000Y-88455500D01*
X136144000Y-88455500D02*
X136842500Y-89154000D01*
X145823182Y-137582615D02*
X143717386Y-137582615D01*
X150228590Y-141988023D02*
X145823182Y-137582615D01*
X150228590Y-145377207D02*
X150228590Y-141988023D01*
X149411978Y-146193819D02*
X150228590Y-145377207D01*
X141528590Y-146193819D02*
X149411978Y-146193819D01*
X141528590Y-146193819D02*
X140136771Y-144802000D01*
X139875000Y-144802000D02*
X140136771Y-144802000D01*
X132908240Y-89834920D02*
X132908240Y-89468760D01*
X146020284Y-138282615D02*
X144417386Y-138282615D01*
X149872988Y-142135319D02*
X146020284Y-138282615D01*
X149872988Y-145229911D02*
X149872988Y-142135319D01*
X149264682Y-145838217D02*
X149872988Y-145229911D01*
X142272988Y-145838217D02*
X149264682Y-145838217D01*
X141236771Y-144802000D02*
X142272988Y-145838217D01*
X141145000Y-144802000D02*
X141236771Y-144802000D01*
X146217386Y-138982615D02*
X145117386Y-138982615D01*
X149517386Y-142282615D02*
X146217386Y-138982615D01*
X149517386Y-145082615D02*
X149517386Y-142282615D01*
X149117386Y-145482615D02*
X149517386Y-145082615D01*
X143317386Y-145482615D02*
X149117386Y-145482615D01*
X142636771Y-144802000D02*
X143317386Y-145482615D01*
X142415000Y-144802000D02*
X142636771Y-144802000D01*
X133985000Y-85915500D02*
X132908240Y-86992260D01*
X133985000Y-85915500D02*
X136207500Y-85915500D01*
X136207500Y-85915500D02*
X136906000Y-86614000D01*
X132908240Y-87294920D02*
X132908240Y-86992260D01*
X80044204Y-138144204D02*
X80044204Y-137855796D01*
X79177592Y-139010816D02*
X80044204Y-138144204D01*
X79177592Y-142289184D02*
X79177592Y-139010816D01*
X83810816Y-146922408D02*
X79177592Y-142289184D01*
X93980490Y-146922408D02*
X83810816Y-146922408D01*
X93980490Y-146922408D02*
X96100898Y-144802000D01*
X80044204Y-137855796D02*
X80800000Y-137100000D01*
X96190000Y-144802000D02*
X96100898Y-144802000D01*
X67023180Y-117787620D02*
X67023180Y-117696180D01*
X67023180Y-117696180D02*
X65849500Y-116522500D01*
X64127500Y-116522500D02*
X62700000Y-117950000D01*
X65849500Y-116522500D02*
X64127500Y-116522500D01*
X94920000Y-145480000D02*
X94920000Y-144802000D01*
X84300000Y-141700000D02*
X84300000Y-139694204D01*
X82738990Y-138133194D02*
X84300000Y-139694204D01*
X80558112Y-138133194D02*
X82738990Y-138133194D01*
X79533194Y-139158112D02*
X80558112Y-138133194D01*
X79533194Y-142141888D02*
X79533194Y-139158112D01*
X83958112Y-146566806D02*
X79533194Y-142141888D01*
X93833194Y-146566806D02*
X83958112Y-146566806D01*
X94920000Y-145480000D02*
X93833194Y-146566806D01*
X83600000Y-139497102D02*
X83600000Y-141000000D01*
X82591694Y-138488796D02*
X83600000Y-139497102D01*
X80705408Y-138488796D02*
X82591694Y-138488796D01*
X79888796Y-139305408D02*
X80705408Y-138488796D01*
X79888796Y-141994592D02*
X79888796Y-139305408D01*
X84105408Y-146211204D02*
X79888796Y-141994592D01*
X92088796Y-146211204D02*
X84105408Y-146211204D01*
X92088796Y-146211204D02*
X93498000Y-144802000D01*
X93650000Y-144802000D02*
X93498000Y-144802000D01*
X65786000Y-113919000D02*
X63481000Y-113919000D01*
X63481000Y-113919000D02*
X62000000Y-115400000D01*
X67023180Y-115156180D02*
X65786000Y-113919000D01*
X67023180Y-115247620D02*
X67023180Y-115156180D01*
X92380000Y-145220000D02*
X91744398Y-145855602D01*
X91744398Y-145855602D02*
X84252704Y-145855602D01*
X84252704Y-145855602D02*
X80244398Y-141847296D01*
X80244398Y-141847296D02*
X80244398Y-139452704D01*
X80244398Y-139452704D02*
X80852704Y-138844398D01*
X80852704Y-138844398D02*
X82444398Y-138844398D01*
X82444398Y-138844398D02*
X82900000Y-139300000D01*
X82900000Y-139300000D02*
X82900000Y-140300000D01*
X92380000Y-145220000D02*
X92380000Y-144802000D01*
X81800000Y-139200000D02*
X82200000Y-139600000D01*
X91110000Y-144990000D02*
X90600000Y-145500000D01*
X90600000Y-145500000D02*
X84400000Y-145500000D01*
X84400000Y-145500000D02*
X80600000Y-141700000D01*
X80600000Y-141700000D02*
X80600000Y-139600000D01*
X80600000Y-139600000D02*
X81000000Y-139200000D01*
X81000000Y-139200000D02*
X81800000Y-139200000D01*
X91110000Y-144802000D02*
X91110000Y-144990000D01*
X65786000Y-111379000D02*
X62321000Y-111379000D01*
X62321000Y-111379000D02*
X61250000Y-112450000D01*
X67023180Y-112616180D02*
X65786000Y-111379000D01*
X67023180Y-112707620D02*
X67023180Y-112616180D01*
X136144000Y-106235500D02*
X136842500Y-106934000D01*
X134112000Y-106235500D02*
X136144000Y-106235500D01*
X134112000Y-106235500D02*
X132908240Y-107439260D01*
X132908240Y-107614920D02*
X132908240Y-107439260D01*
X136144000Y-108775500D02*
X136842500Y-109474000D01*
X134112000Y-108775500D02*
X136144000Y-108775500D01*
X134112000Y-108775500D02*
X132908240Y-109979260D01*
X132908240Y-110154920D02*
X132908240Y-109979260D01*
X65900000Y-106300000D02*
X61400000Y-106300000D01*
X65900000Y-106300000D02*
X67023180Y-107423180D01*
X61400000Y-106300000D02*
X60700000Y-107000000D01*
X67023180Y-107627620D02*
X67023180Y-107423180D01*
X65700000Y-108900000D02*
X62200000Y-108900000D01*
X62200000Y-108900000D02*
X61500000Y-109600000D01*
X65700000Y-108900000D02*
X66967620Y-110167620D01*
X67023180Y-110167620D02*
X66967620Y-110167620D01*
X67023180Y-110167620D02*
X66987620Y-110167620D01*
X132908240Y-117599260D02*
X134112000Y-116395500D01*
X134112000Y-116395500D02*
X136144000Y-116395500D01*
X136144000Y-116395500D02*
X136842500Y-117094000D01*
X99839794Y-146905023D02*
X116106570Y-146905023D01*
X116106570Y-146905023D02*
X119317386Y-143694207D01*
X119317386Y-143694207D02*
X119317386Y-136382615D01*
X99839794Y-146905023D02*
X97736771Y-144802000D01*
X97460000Y-144802000D02*
X97736771Y-144802000D01*
X132908240Y-117774920D02*
X132908240Y-117599260D01*
X118617386Y-137082615D02*
X118517386Y-136982615D01*
X98836771Y-144802000D02*
X100584192Y-146549421D01*
X115959274Y-146549421D02*
X118571733Y-143936962D01*
X118571733Y-143936962D02*
X118617386Y-143891309D01*
X100584192Y-146549421D02*
X115959274Y-146549421D01*
X118617386Y-143891309D02*
X118617386Y-137082615D01*
X98730000Y-144802000D02*
X98836771Y-144802000D01*
X101528590Y-146193819D02*
X115811978Y-146193819D01*
X115811978Y-146193819D02*
X117817386Y-144188411D01*
X117817386Y-144188411D02*
X117817386Y-137682615D01*
X100136771Y-144802000D02*
X101528590Y-146193819D01*
X100000000Y-144802000D02*
X100136771Y-144802000D01*
X136144000Y-113855500D02*
X136842500Y-114554000D01*
X134048500Y-113855500D02*
X136144000Y-113855500D01*
X132908240Y-114995760D02*
X134048500Y-113855500D01*
X132908240Y-115234920D02*
X132908240Y-114995760D01*
X102472988Y-145838217D02*
X115617386Y-145838217D01*
X102472988Y-145838217D02*
X101436771Y-144802000D01*
X116772988Y-144729911D02*
X116772988Y-139727013D01*
X116772988Y-139727013D02*
X117117386Y-139382615D01*
X117117386Y-139382615D02*
X117117386Y-138382615D01*
X115664682Y-145838217D02*
X116772988Y-144729911D01*
X115617386Y-145838217D02*
X115664682Y-145838217D01*
X101270000Y-144802000D02*
X101436771Y-144802000D01*
X136144000Y-111315500D02*
X136842500Y-112014000D01*
X134048500Y-111315500D02*
X136144000Y-111315500D01*
X132908240Y-112455760D02*
X134048500Y-111315500D01*
X103517386Y-145482615D02*
X115517386Y-145482615D01*
X115517386Y-145482615D02*
X116417386Y-144582615D01*
X116417386Y-144582615D02*
X116417386Y-139082615D01*
X103517386Y-145482615D02*
X102836771Y-144802000D01*
X102540000Y-144802000D02*
X102836771Y-144802000D01*
X132908240Y-112694920D02*
X132908240Y-112455760D01*
X119317386Y-144882615D02*
X119317386Y-144582615D01*
X120017386Y-143882615D02*
X120017386Y-135582615D01*
X119317386Y-144582615D02*
X120017386Y-143882615D01*
X121017386Y-130118500D02*
X121017386Y-143882615D01*
X120317386Y-144582615D02*
X121017386Y-143882615D01*
X120317386Y-144882615D02*
X120317386Y-144582615D01*
X113970000Y-144802000D02*
X113970000Y-144970000D01*
X75755000Y-130118500D02*
X74536500Y-128900000D01*
X73012500Y-120320000D02*
X74536500Y-121844000D01*
X74536500Y-121844000D02*
X74536500Y-128900000D01*
X75755000Y-130118500D02*
X117081500Y-130118500D01*
X124545000Y-130118500D02*
X125400000Y-129263500D01*
X117081500Y-130118500D02*
X120917386Y-130118500D01*
X120917386Y-130118500D02*
X121017386Y-130118500D01*
X121017386Y-130118500D02*
X124545000Y-130118500D01*
X125400000Y-121844000D02*
X126924000Y-120320000D01*
X125400000Y-129263500D02*
X125400000Y-121844000D01*
X72187000Y-79680000D02*
X73012500Y-79680000D01*
X74473000Y-118859500D02*
X73012500Y-120320000D01*
X74473000Y-81140500D02*
X74473000Y-118859500D01*
X73012500Y-79680000D02*
X74473000Y-81140500D01*
X126924000Y-120320000D02*
X127876500Y-120320000D01*
X127912100Y-79664760D02*
X126939240Y-79664760D01*
X126939240Y-79664760D02*
X125400000Y-81204000D01*
X125400000Y-81204000D02*
X125400000Y-118796000D01*
X125400000Y-118796000D02*
X126924000Y-120320000D01*
X72128580Y-120327620D02*
X73004880Y-120327620D01*
X73004880Y-120327620D02*
X73012500Y-120320000D01*
M02*
