G04 #@! TF.FileFunction,Legend,Top*
%FSLAX46Y46*%
G04 Gerber Fmt 4.6, Leading zero omitted, Abs format (unit mm)*
G04 Created by KiCad (PCBNEW 4.0.6) date 06/26/19 12:45:04*
%MOMM*%
%LPD*%
G01*
G04 APERTURE LIST*
%ADD10C,0.150000*%
%ADD11C,0.101600*%
%ADD12C,0.200000*%
%ADD13C,0.120000*%
%ADD14C,0.010000*%
G04 APERTURE END LIST*
D10*
D11*
X125501428Y-117417905D02*
X125349047Y-117417905D01*
X125272857Y-117456000D01*
X125234762Y-117494095D01*
X125158571Y-117608381D01*
X125120476Y-117760762D01*
X125120476Y-118065524D01*
X125158571Y-118141714D01*
X125196666Y-118179810D01*
X125272857Y-118217905D01*
X125425238Y-118217905D01*
X125501428Y-118179810D01*
X125539524Y-118141714D01*
X125577619Y-118065524D01*
X125577619Y-117875048D01*
X125539524Y-117798857D01*
X125501428Y-117760762D01*
X125425238Y-117722667D01*
X125272857Y-117722667D01*
X125196666Y-117760762D01*
X125158571Y-117798857D01*
X125120476Y-117875048D01*
X125844286Y-117417905D02*
X126339524Y-117417905D01*
X126072857Y-117722667D01*
X126187143Y-117722667D01*
X126263333Y-117760762D01*
X126301429Y-117798857D01*
X126339524Y-117875048D01*
X126339524Y-118065524D01*
X126301429Y-118141714D01*
X126263333Y-118179810D01*
X126187143Y-118217905D01*
X125958571Y-118217905D01*
X125882381Y-118179810D01*
X125844286Y-118141714D01*
X137693428Y-117417905D02*
X137541047Y-117417905D01*
X137464857Y-117456000D01*
X137426762Y-117494095D01*
X137350571Y-117608381D01*
X137312476Y-117760762D01*
X137312476Y-118065524D01*
X137350571Y-118141714D01*
X137388666Y-118179810D01*
X137464857Y-118217905D01*
X137617238Y-118217905D01*
X137693428Y-118179810D01*
X137731524Y-118141714D01*
X137769619Y-118065524D01*
X137769619Y-117875048D01*
X137731524Y-117798857D01*
X137693428Y-117760762D01*
X137617238Y-117722667D01*
X137464857Y-117722667D01*
X137388666Y-117760762D01*
X137350571Y-117798857D01*
X137312476Y-117875048D01*
X138264857Y-117417905D02*
X138341048Y-117417905D01*
X138417238Y-117456000D01*
X138455333Y-117494095D01*
X138493429Y-117570286D01*
X138531524Y-117722667D01*
X138531524Y-117913143D01*
X138493429Y-118065524D01*
X138455333Y-118141714D01*
X138417238Y-118179810D01*
X138341048Y-118217905D01*
X138264857Y-118217905D01*
X138188667Y-118179810D01*
X138150571Y-118141714D01*
X138112476Y-118065524D01*
X138074381Y-117913143D01*
X138074381Y-117722667D01*
X138112476Y-117570286D01*
X138150571Y-117494095D01*
X138188667Y-117456000D01*
X138264857Y-117417905D01*
X137709333Y-82612667D02*
X137309333Y-82612667D01*
X137509333Y-82612667D02*
X137509333Y-81912667D01*
X137442667Y-82012667D01*
X137376000Y-82079333D01*
X137309333Y-82112667D01*
X138376000Y-82612667D02*
X137976000Y-82612667D01*
X138176000Y-82612667D02*
X138176000Y-81912667D01*
X138109334Y-82012667D01*
X138042667Y-82079333D01*
X137976000Y-82112667D01*
X138976001Y-81912667D02*
X138842667Y-81912667D01*
X138776001Y-81946000D01*
X138742667Y-81979333D01*
X138676001Y-82079333D01*
X138642667Y-82212667D01*
X138642667Y-82479333D01*
X138676001Y-82546000D01*
X138709334Y-82579333D01*
X138776001Y-82612667D01*
X138909334Y-82612667D01*
X138976001Y-82579333D01*
X139009334Y-82546000D01*
X139042667Y-82479333D01*
X139042667Y-82312667D01*
X139009334Y-82246000D01*
X138976001Y-82212667D01*
X138909334Y-82179333D01*
X138776001Y-82179333D01*
X138709334Y-82212667D01*
X138676001Y-82246000D01*
X138642667Y-82312667D01*
X125009333Y-82612667D02*
X124609333Y-82612667D01*
X124809333Y-82612667D02*
X124809333Y-81912667D01*
X124742667Y-82012667D01*
X124676000Y-82079333D01*
X124609333Y-82112667D01*
X125676000Y-82612667D02*
X125276000Y-82612667D01*
X125476000Y-82612667D02*
X125476000Y-81912667D01*
X125409334Y-82012667D01*
X125342667Y-82079333D01*
X125276000Y-82112667D01*
X126009334Y-82612667D02*
X126142667Y-82612667D01*
X126209334Y-82579333D01*
X126242667Y-82546000D01*
X126309334Y-82446000D01*
X126342667Y-82312667D01*
X126342667Y-82046000D01*
X126309334Y-81979333D01*
X126276001Y-81946000D01*
X126209334Y-81912667D01*
X126076001Y-81912667D01*
X126009334Y-81946000D01*
X125976001Y-81979333D01*
X125942667Y-82046000D01*
X125942667Y-82212667D01*
X125976001Y-82279333D01*
X126009334Y-82312667D01*
X126076001Y-82346000D01*
X126209334Y-82346000D01*
X126276001Y-82312667D01*
X126309334Y-82279333D01*
X126342667Y-82212667D01*
X74221905Y-81821905D02*
X74298096Y-81821905D01*
X74374286Y-81860000D01*
X74412381Y-81898095D01*
X74450477Y-81974286D01*
X74488572Y-82126667D01*
X74488572Y-82317143D01*
X74450477Y-82469524D01*
X74412381Y-82545714D01*
X74374286Y-82583810D01*
X74298096Y-82621905D01*
X74221905Y-82621905D01*
X74145715Y-82583810D01*
X74107619Y-82545714D01*
X74069524Y-82469524D01*
X74031429Y-82317143D01*
X74031429Y-82126667D01*
X74069524Y-81974286D01*
X74107619Y-81898095D01*
X74145715Y-81860000D01*
X74221905Y-81821905D01*
X61969524Y-117331905D02*
X61588571Y-117331905D01*
X61550476Y-117712857D01*
X61588571Y-117674762D01*
X61664762Y-117636667D01*
X61855238Y-117636667D01*
X61931428Y-117674762D01*
X61969524Y-117712857D01*
X62007619Y-117789048D01*
X62007619Y-117979524D01*
X61969524Y-118055714D01*
X61931428Y-118093810D01*
X61855238Y-118131905D01*
X61664762Y-118131905D01*
X61588571Y-118093810D01*
X61550476Y-118055714D01*
X62388571Y-118131905D02*
X62540952Y-118131905D01*
X62617143Y-118093810D01*
X62655238Y-118055714D01*
X62731429Y-117941429D01*
X62769524Y-117789048D01*
X62769524Y-117484286D01*
X62731429Y-117408095D01*
X62693333Y-117370000D01*
X62617143Y-117331905D01*
X62464762Y-117331905D01*
X62388571Y-117370000D01*
X62350476Y-117408095D01*
X62312381Y-117484286D01*
X62312381Y-117674762D01*
X62350476Y-117750952D01*
X62388571Y-117789048D01*
X62464762Y-117827143D01*
X62617143Y-117827143D01*
X62693333Y-117789048D01*
X62731429Y-117750952D01*
X62769524Y-117674762D01*
X74239524Y-117331905D02*
X73858571Y-117331905D01*
X73820476Y-117712857D01*
X73858571Y-117674762D01*
X73934762Y-117636667D01*
X74125238Y-117636667D01*
X74201428Y-117674762D01*
X74239524Y-117712857D01*
X74277619Y-117789048D01*
X74277619Y-117979524D01*
X74239524Y-118055714D01*
X74201428Y-118093810D01*
X74125238Y-118131905D01*
X73934762Y-118131905D01*
X73858571Y-118093810D01*
X73820476Y-118055714D01*
X74963333Y-117331905D02*
X74810952Y-117331905D01*
X74734762Y-117370000D01*
X74696667Y-117408095D01*
X74620476Y-117522381D01*
X74582381Y-117674762D01*
X74582381Y-117979524D01*
X74620476Y-118055714D01*
X74658571Y-118093810D01*
X74734762Y-118131905D01*
X74887143Y-118131905D01*
X74963333Y-118093810D01*
X75001429Y-118055714D01*
X75039524Y-117979524D01*
X75039524Y-117789048D01*
X75001429Y-117712857D01*
X74963333Y-117674762D01*
X74887143Y-117636667D01*
X74734762Y-117636667D01*
X74658571Y-117674762D01*
X74620476Y-117712857D01*
X74582381Y-117789048D01*
X128064286Y-122640000D02*
X128092857Y-122668571D01*
X128121429Y-122754285D01*
X128121429Y-122811428D01*
X128092857Y-122897143D01*
X128035714Y-122954285D01*
X127978571Y-122982857D01*
X127864286Y-123011428D01*
X127778571Y-123011428D01*
X127664286Y-122982857D01*
X127607143Y-122954285D01*
X127550000Y-122897143D01*
X127521429Y-122811428D01*
X127521429Y-122754285D01*
X127550000Y-122668571D01*
X127578571Y-122640000D01*
X128092857Y-122411428D02*
X128121429Y-122325714D01*
X128121429Y-122182857D01*
X128092857Y-122125714D01*
X128064286Y-122097143D01*
X128007143Y-122068571D01*
X127950000Y-122068571D01*
X127892857Y-122097143D01*
X127864286Y-122125714D01*
X127835714Y-122182857D01*
X127807143Y-122297143D01*
X127778571Y-122354285D01*
X127750000Y-122382857D01*
X127692857Y-122411428D01*
X127635714Y-122411428D01*
X127578571Y-122382857D01*
X127550000Y-122354285D01*
X127521429Y-122297143D01*
X127521429Y-122154285D01*
X127550000Y-122068571D01*
X130140000Y-123247142D02*
X130111429Y-123304285D01*
X130111429Y-123389999D01*
X130140000Y-123475714D01*
X130197143Y-123532856D01*
X130254286Y-123561428D01*
X130368571Y-123589999D01*
X130454286Y-123589999D01*
X130568571Y-123561428D01*
X130625714Y-123532856D01*
X130682857Y-123475714D01*
X130711429Y-123389999D01*
X130711429Y-123332856D01*
X130682857Y-123247142D01*
X130654286Y-123218571D01*
X130454286Y-123218571D01*
X130454286Y-123332856D01*
X130711429Y-122961428D02*
X130111429Y-122961428D01*
X130711429Y-122618571D01*
X130111429Y-122618571D01*
X130711429Y-122332857D02*
X130111429Y-122332857D01*
X130111429Y-122190000D01*
X130140000Y-122104285D01*
X130197143Y-122047143D01*
X130254286Y-122018571D01*
X130368571Y-121990000D01*
X130454286Y-121990000D01*
X130568571Y-122018571D01*
X130625714Y-122047143D01*
X130682857Y-122104285D01*
X130711429Y-122190000D01*
X130711429Y-122332857D01*
X133191429Y-124522857D02*
X132591429Y-124522857D01*
X132877143Y-124522857D02*
X132877143Y-124180000D01*
X133191429Y-124180000D02*
X132591429Y-124180000D01*
X132591429Y-123980000D02*
X133191429Y-123780000D01*
X132591429Y-123580000D01*
X133248571Y-123522857D02*
X133248571Y-123065714D01*
X132591429Y-122808571D02*
X132591429Y-122694285D01*
X132620000Y-122637143D01*
X132677143Y-122580000D01*
X132791429Y-122551428D01*
X132991429Y-122551428D01*
X133105714Y-122580000D01*
X133162857Y-122637143D01*
X133191429Y-122694285D01*
X133191429Y-122808571D01*
X133162857Y-122865714D01*
X133105714Y-122922857D01*
X132991429Y-122951428D01*
X132791429Y-122951428D01*
X132677143Y-122922857D01*
X132620000Y-122865714D01*
X132591429Y-122808571D01*
X132877143Y-122294286D02*
X132877143Y-122094286D01*
X133191429Y-122008572D02*
X133191429Y-122294286D01*
X132591429Y-122294286D01*
X132591429Y-122008572D01*
X135201429Y-123195715D02*
X135801429Y-122795715D01*
X135201429Y-122795715D02*
X135801429Y-123195715D01*
X135258571Y-122595714D02*
X135230000Y-122567143D01*
X135201429Y-122510000D01*
X135201429Y-122367143D01*
X135230000Y-122310000D01*
X135258571Y-122281429D01*
X135315714Y-122252857D01*
X135372857Y-122252857D01*
X135458571Y-122281429D01*
X135801429Y-122624286D01*
X135801429Y-122252857D01*
X135211429Y-77885715D02*
X135811429Y-77485715D01*
X135211429Y-77485715D02*
X135811429Y-77885715D01*
X135268571Y-77285714D02*
X135240000Y-77257143D01*
X135211429Y-77200000D01*
X135211429Y-77057143D01*
X135240000Y-77000000D01*
X135268571Y-76971429D01*
X135325714Y-76942857D01*
X135382857Y-76942857D01*
X135468571Y-76971429D01*
X135811429Y-77314286D01*
X135811429Y-76942857D01*
X133261429Y-77912857D02*
X132661429Y-77912857D01*
X132947143Y-77912857D02*
X132947143Y-77570000D01*
X133261429Y-77570000D02*
X132661429Y-77570000D01*
X132661429Y-77370000D02*
X133261429Y-77170000D01*
X132661429Y-76970000D01*
X133318571Y-76912857D02*
X133318571Y-76455714D01*
X132661429Y-76198571D02*
X132661429Y-76084285D01*
X132690000Y-76027143D01*
X132747143Y-75970000D01*
X132861429Y-75941428D01*
X133061429Y-75941428D01*
X133175714Y-75970000D01*
X133232857Y-76027143D01*
X133261429Y-76084285D01*
X133261429Y-76198571D01*
X133232857Y-76255714D01*
X133175714Y-76312857D01*
X133061429Y-76341428D01*
X132861429Y-76341428D01*
X132747143Y-76312857D01*
X132690000Y-76255714D01*
X132661429Y-76198571D01*
X132947143Y-75684286D02*
X132947143Y-75484286D01*
X133261429Y-75398572D02*
X133261429Y-75684286D01*
X132661429Y-75684286D01*
X132661429Y-75398572D01*
X130220000Y-77567142D02*
X130191429Y-77624285D01*
X130191429Y-77709999D01*
X130220000Y-77795714D01*
X130277143Y-77852856D01*
X130334286Y-77881428D01*
X130448571Y-77909999D01*
X130534286Y-77909999D01*
X130648571Y-77881428D01*
X130705714Y-77852856D01*
X130762857Y-77795714D01*
X130791429Y-77709999D01*
X130791429Y-77652856D01*
X130762857Y-77567142D01*
X130734286Y-77538571D01*
X130534286Y-77538571D01*
X130534286Y-77652856D01*
X130791429Y-77281428D02*
X130191429Y-77281428D01*
X130791429Y-76938571D01*
X130191429Y-76938571D01*
X130791429Y-76652857D02*
X130191429Y-76652857D01*
X130191429Y-76510000D01*
X130220000Y-76424285D01*
X130277143Y-76367143D01*
X130334286Y-76338571D01*
X130448571Y-76310000D01*
X130534286Y-76310000D01*
X130648571Y-76338571D01*
X130705714Y-76367143D01*
X130762857Y-76424285D01*
X130791429Y-76510000D01*
X130791429Y-76652857D01*
X128124286Y-77480000D02*
X128152857Y-77508571D01*
X128181429Y-77594285D01*
X128181429Y-77651428D01*
X128152857Y-77737143D01*
X128095714Y-77794285D01*
X128038571Y-77822857D01*
X127924286Y-77851428D01*
X127838571Y-77851428D01*
X127724286Y-77822857D01*
X127667143Y-77794285D01*
X127610000Y-77737143D01*
X127581429Y-77651428D01*
X127581429Y-77594285D01*
X127610000Y-77508571D01*
X127638571Y-77480000D01*
X128152857Y-77251428D02*
X128181429Y-77165714D01*
X128181429Y-77022857D01*
X128152857Y-76965714D01*
X128124286Y-76937143D01*
X128067143Y-76908571D01*
X128010000Y-76908571D01*
X127952857Y-76937143D01*
X127924286Y-76965714D01*
X127895714Y-77022857D01*
X127867143Y-77137143D01*
X127838571Y-77194285D01*
X127810000Y-77222857D01*
X127752857Y-77251428D01*
X127695714Y-77251428D01*
X127638571Y-77222857D01*
X127610000Y-77194285D01*
X127581429Y-77137143D01*
X127581429Y-76994285D01*
X127610000Y-76908571D01*
X72464286Y-122760000D02*
X72492857Y-122788571D01*
X72521429Y-122874285D01*
X72521429Y-122931428D01*
X72492857Y-123017143D01*
X72435714Y-123074285D01*
X72378571Y-123102857D01*
X72264286Y-123131428D01*
X72178571Y-123131428D01*
X72064286Y-123102857D01*
X72007143Y-123074285D01*
X71950000Y-123017143D01*
X71921429Y-122931428D01*
X71921429Y-122874285D01*
X71950000Y-122788571D01*
X71978571Y-122760000D01*
X72492857Y-122531428D02*
X72521429Y-122445714D01*
X72521429Y-122302857D01*
X72492857Y-122245714D01*
X72464286Y-122217143D01*
X72407143Y-122188571D01*
X72350000Y-122188571D01*
X72292857Y-122217143D01*
X72264286Y-122245714D01*
X72235714Y-122302857D01*
X72207143Y-122417143D01*
X72178571Y-122474285D01*
X72150000Y-122502857D01*
X72092857Y-122531428D01*
X72035714Y-122531428D01*
X71978571Y-122502857D01*
X71950000Y-122474285D01*
X71921429Y-122417143D01*
X71921429Y-122274285D01*
X71950000Y-122188571D01*
X64181429Y-122835715D02*
X64781429Y-122435715D01*
X64181429Y-122435715D02*
X64781429Y-122835715D01*
X64781429Y-121892857D02*
X64781429Y-122235714D01*
X64781429Y-122064286D02*
X64181429Y-122064286D01*
X64267143Y-122121429D01*
X64324286Y-122178571D01*
X64352857Y-122235714D01*
X67351429Y-124562857D02*
X66751429Y-124562857D01*
X67037143Y-124562857D02*
X67037143Y-124220000D01*
X67351429Y-124220000D02*
X66751429Y-124220000D01*
X66751429Y-124020000D02*
X67351429Y-123820000D01*
X66751429Y-123620000D01*
X67408571Y-123562857D02*
X67408571Y-123105714D01*
X66751429Y-122848571D02*
X66751429Y-122734285D01*
X66780000Y-122677143D01*
X66837143Y-122620000D01*
X66951429Y-122591428D01*
X67151429Y-122591428D01*
X67265714Y-122620000D01*
X67322857Y-122677143D01*
X67351429Y-122734285D01*
X67351429Y-122848571D01*
X67322857Y-122905714D01*
X67265714Y-122962857D01*
X67151429Y-122991428D01*
X66951429Y-122991428D01*
X66837143Y-122962857D01*
X66780000Y-122905714D01*
X66751429Y-122848571D01*
X67037143Y-122334286D02*
X67037143Y-122134286D01*
X67351429Y-122048572D02*
X67351429Y-122334286D01*
X66751429Y-122334286D01*
X66751429Y-122048572D01*
X69320000Y-123297142D02*
X69291429Y-123354285D01*
X69291429Y-123439999D01*
X69320000Y-123525714D01*
X69377143Y-123582856D01*
X69434286Y-123611428D01*
X69548571Y-123639999D01*
X69634286Y-123639999D01*
X69748571Y-123611428D01*
X69805714Y-123582856D01*
X69862857Y-123525714D01*
X69891429Y-123439999D01*
X69891429Y-123382856D01*
X69862857Y-123297142D01*
X69834286Y-123268571D01*
X69634286Y-123268571D01*
X69634286Y-123382856D01*
X69891429Y-123011428D02*
X69291429Y-123011428D01*
X69891429Y-122668571D01*
X69291429Y-122668571D01*
X69891429Y-122382857D02*
X69291429Y-122382857D01*
X69291429Y-122240000D01*
X69320000Y-122154285D01*
X69377143Y-122097143D01*
X69434286Y-122068571D01*
X69548571Y-122040000D01*
X69634286Y-122040000D01*
X69748571Y-122068571D01*
X69805714Y-122097143D01*
X69862857Y-122154285D01*
X69891429Y-122240000D01*
X69891429Y-122382857D01*
X72394286Y-77670000D02*
X72422857Y-77698571D01*
X72451429Y-77784285D01*
X72451429Y-77841428D01*
X72422857Y-77927143D01*
X72365714Y-77984285D01*
X72308571Y-78012857D01*
X72194286Y-78041428D01*
X72108571Y-78041428D01*
X71994286Y-78012857D01*
X71937143Y-77984285D01*
X71880000Y-77927143D01*
X71851429Y-77841428D01*
X71851429Y-77784285D01*
X71880000Y-77698571D01*
X71908571Y-77670000D01*
X72422857Y-77441428D02*
X72451429Y-77355714D01*
X72451429Y-77212857D01*
X72422857Y-77155714D01*
X72394286Y-77127143D01*
X72337143Y-77098571D01*
X72280000Y-77098571D01*
X72222857Y-77127143D01*
X72194286Y-77155714D01*
X72165714Y-77212857D01*
X72137143Y-77327143D01*
X72108571Y-77384285D01*
X72080000Y-77412857D01*
X72022857Y-77441428D01*
X71965714Y-77441428D01*
X71908571Y-77412857D01*
X71880000Y-77384285D01*
X71851429Y-77327143D01*
X71851429Y-77184285D01*
X71880000Y-77098571D01*
X69380000Y-77707142D02*
X69351429Y-77764285D01*
X69351429Y-77849999D01*
X69380000Y-77935714D01*
X69437143Y-77992856D01*
X69494286Y-78021428D01*
X69608571Y-78049999D01*
X69694286Y-78049999D01*
X69808571Y-78021428D01*
X69865714Y-77992856D01*
X69922857Y-77935714D01*
X69951429Y-77849999D01*
X69951429Y-77792856D01*
X69922857Y-77707142D01*
X69894286Y-77678571D01*
X69694286Y-77678571D01*
X69694286Y-77792856D01*
X69951429Y-77421428D02*
X69351429Y-77421428D01*
X69951429Y-77078571D01*
X69351429Y-77078571D01*
X69951429Y-76792857D02*
X69351429Y-76792857D01*
X69351429Y-76650000D01*
X69380000Y-76564285D01*
X69437143Y-76507143D01*
X69494286Y-76478571D01*
X69608571Y-76450000D01*
X69694286Y-76450000D01*
X69808571Y-76478571D01*
X69865714Y-76507143D01*
X69922857Y-76564285D01*
X69951429Y-76650000D01*
X69951429Y-76792857D01*
X67271429Y-78017857D02*
X66671429Y-78017857D01*
X66957143Y-78017857D02*
X66957143Y-77675000D01*
X67271429Y-77675000D02*
X66671429Y-77675000D01*
X66671429Y-77475000D02*
X67271429Y-77275000D01*
X66671429Y-77075000D01*
X67328571Y-77017857D02*
X67328571Y-76560714D01*
X66671429Y-76303571D02*
X66671429Y-76189285D01*
X66700000Y-76132143D01*
X66757143Y-76075000D01*
X66871429Y-76046428D01*
X67071429Y-76046428D01*
X67185714Y-76075000D01*
X67242857Y-76132143D01*
X67271429Y-76189285D01*
X67271429Y-76303571D01*
X67242857Y-76360714D01*
X67185714Y-76417857D01*
X67071429Y-76446428D01*
X66871429Y-76446428D01*
X66757143Y-76417857D01*
X66700000Y-76360714D01*
X66671429Y-76303571D01*
X66957143Y-75789286D02*
X66957143Y-75589286D01*
X67271429Y-75503572D02*
X67271429Y-75789286D01*
X66671429Y-75789286D01*
X66671429Y-75503572D01*
X64041429Y-78015715D02*
X64641429Y-77615715D01*
X64041429Y-77615715D02*
X64641429Y-78015715D01*
X64641429Y-77072857D02*
X64641429Y-77415714D01*
X64641429Y-77244286D02*
X64041429Y-77244286D01*
X64127143Y-77301429D01*
X64184286Y-77358571D01*
X64212857Y-77415714D01*
X62108334Y-81836905D02*
X62603572Y-81836905D01*
X62336905Y-82141667D01*
X62451191Y-82141667D01*
X62527381Y-82179762D01*
X62565477Y-82217857D01*
X62603572Y-82294048D01*
X62603572Y-82484524D01*
X62565477Y-82560714D01*
X62527381Y-82598810D01*
X62451191Y-82636905D01*
X62222619Y-82636905D01*
X62146429Y-82598810D01*
X62108334Y-82560714D01*
D12*
X105923809Y-132602381D02*
X105923809Y-131602381D01*
X106266666Y-132602381D02*
X106266666Y-132078571D01*
X106228571Y-131983333D01*
X106152381Y-131935714D01*
X106038095Y-131935714D01*
X105961904Y-131983333D01*
X105923809Y-132030952D01*
X106533333Y-131935714D02*
X106838095Y-131935714D01*
X106647619Y-131602381D02*
X106647619Y-132459524D01*
X106685714Y-132554762D01*
X106761905Y-132602381D01*
X106838095Y-132602381D01*
X106990476Y-131935714D02*
X107295238Y-131935714D01*
X107104762Y-131602381D02*
X107104762Y-132459524D01*
X107142857Y-132554762D01*
X107219048Y-132602381D01*
X107295238Y-132602381D01*
X107561905Y-131935714D02*
X107561905Y-132935714D01*
X107561905Y-131983333D02*
X107638096Y-131935714D01*
X107790477Y-131935714D01*
X107866667Y-131983333D01*
X107904762Y-132030952D01*
X107942858Y-132126190D01*
X107942858Y-132411905D01*
X107904762Y-132507143D01*
X107866667Y-132554762D01*
X107790477Y-132602381D01*
X107638096Y-132602381D01*
X107561905Y-132554762D01*
X108285715Y-132507143D02*
X108323810Y-132554762D01*
X108285715Y-132602381D01*
X108247620Y-132554762D01*
X108285715Y-132507143D01*
X108285715Y-132602381D01*
X108285715Y-131983333D02*
X108323810Y-132030952D01*
X108285715Y-132078571D01*
X108247620Y-132030952D01*
X108285715Y-131983333D01*
X108285715Y-132078571D01*
X109238096Y-131554762D02*
X108552381Y-132840476D01*
X110076191Y-131554762D02*
X109390476Y-132840476D01*
X110304762Y-132554762D02*
X110380952Y-132602381D01*
X110533333Y-132602381D01*
X110609524Y-132554762D01*
X110647619Y-132459524D01*
X110647619Y-132411905D01*
X110609524Y-132316667D01*
X110533333Y-132269048D01*
X110419048Y-132269048D01*
X110342857Y-132221429D01*
X110304762Y-132126190D01*
X110304762Y-132078571D01*
X110342857Y-131983333D01*
X110419048Y-131935714D01*
X110533333Y-131935714D01*
X110609524Y-131983333D01*
X111333333Y-132554762D02*
X111257143Y-132602381D01*
X111104762Y-132602381D01*
X111028571Y-132554762D01*
X110990476Y-132507143D01*
X110952381Y-132411905D01*
X110952381Y-132126190D01*
X110990476Y-132030952D01*
X111028571Y-131983333D01*
X111104762Y-131935714D01*
X111257143Y-131935714D01*
X111333333Y-131983333D01*
X111676190Y-132602381D02*
X111676190Y-131935714D01*
X111676190Y-131602381D02*
X111638095Y-131650000D01*
X111676190Y-131697619D01*
X111714285Y-131650000D01*
X111676190Y-131602381D01*
X111676190Y-131697619D01*
X112057142Y-132221429D02*
X112666666Y-132221429D01*
X113047618Y-132602381D02*
X113047618Y-131602381D01*
X113047618Y-131983333D02*
X113123809Y-131935714D01*
X113276190Y-131935714D01*
X113352380Y-131983333D01*
X113390475Y-132030952D01*
X113428571Y-132126190D01*
X113428571Y-132411905D01*
X113390475Y-132507143D01*
X113352380Y-132554762D01*
X113276190Y-132602381D01*
X113123809Y-132602381D01*
X113047618Y-132554762D01*
X113885714Y-132602381D02*
X113809523Y-132554762D01*
X113771428Y-132507143D01*
X113733333Y-132411905D01*
X113733333Y-132126190D01*
X113771428Y-132030952D01*
X113809523Y-131983333D01*
X113885714Y-131935714D01*
X114000000Y-131935714D01*
X114076190Y-131983333D01*
X114114285Y-132030952D01*
X114152381Y-132126190D01*
X114152381Y-132411905D01*
X114114285Y-132507143D01*
X114076190Y-132554762D01*
X114000000Y-132602381D01*
X113885714Y-132602381D01*
X114380952Y-131935714D02*
X114685714Y-131935714D01*
X114495238Y-131602381D02*
X114495238Y-132459524D01*
X114533333Y-132554762D01*
X114609524Y-132602381D01*
X114685714Y-132602381D01*
X114914286Y-132554762D02*
X114990476Y-132602381D01*
X115142857Y-132602381D01*
X115219048Y-132554762D01*
X115257143Y-132459524D01*
X115257143Y-132411905D01*
X115219048Y-132316667D01*
X115142857Y-132269048D01*
X115028572Y-132269048D01*
X114952381Y-132221429D01*
X114914286Y-132126190D01*
X114914286Y-132078571D01*
X114952381Y-131983333D01*
X115028572Y-131935714D01*
X115142857Y-131935714D01*
X115219048Y-131983333D01*
X115600000Y-132507143D02*
X115638095Y-132554762D01*
X115600000Y-132602381D01*
X115561905Y-132554762D01*
X115600000Y-132507143D01*
X115600000Y-132602381D01*
X116323809Y-132554762D02*
X116247619Y-132602381D01*
X116095238Y-132602381D01*
X116019047Y-132554762D01*
X115980952Y-132507143D01*
X115942857Y-132411905D01*
X115942857Y-132126190D01*
X115980952Y-132030952D01*
X116019047Y-131983333D01*
X116095238Y-131935714D01*
X116247619Y-131935714D01*
X116323809Y-131983333D01*
X116780952Y-132602381D02*
X116704761Y-132554762D01*
X116666666Y-132507143D01*
X116628571Y-132411905D01*
X116628571Y-132126190D01*
X116666666Y-132030952D01*
X116704761Y-131983333D01*
X116780952Y-131935714D01*
X116895238Y-131935714D01*
X116971428Y-131983333D01*
X117009523Y-132030952D01*
X117047619Y-132126190D01*
X117047619Y-132411905D01*
X117009523Y-132507143D01*
X116971428Y-132554762D01*
X116895238Y-132602381D01*
X116780952Y-132602381D01*
X117390476Y-132602381D02*
X117390476Y-131935714D01*
X117390476Y-132030952D02*
X117428571Y-131983333D01*
X117504762Y-131935714D01*
X117619048Y-131935714D01*
X117695238Y-131983333D01*
X117733333Y-132078571D01*
X117733333Y-132602381D01*
X117733333Y-132078571D02*
X117771429Y-131983333D01*
X117847619Y-131935714D01*
X117961905Y-131935714D01*
X118038095Y-131983333D01*
X118076190Y-132078571D01*
X118076190Y-132602381D01*
X106019048Y-134254762D02*
X106133334Y-134302381D01*
X106323810Y-134302381D01*
X106400000Y-134254762D01*
X106438096Y-134207143D01*
X106476191Y-134111905D01*
X106476191Y-134016667D01*
X106438096Y-133921429D01*
X106400000Y-133873810D01*
X106323810Y-133826190D01*
X106171429Y-133778571D01*
X106095238Y-133730952D01*
X106057143Y-133683333D01*
X106019048Y-133588095D01*
X106019048Y-133492857D01*
X106057143Y-133397619D01*
X106095238Y-133350000D01*
X106171429Y-133302381D01*
X106361905Y-133302381D01*
X106476191Y-133350000D01*
X107161905Y-134254762D02*
X107085715Y-134302381D01*
X106933334Y-134302381D01*
X106857143Y-134254762D01*
X106819048Y-134207143D01*
X106780953Y-134111905D01*
X106780953Y-133826190D01*
X106819048Y-133730952D01*
X106857143Y-133683333D01*
X106933334Y-133635714D01*
X107085715Y-133635714D01*
X107161905Y-133683333D01*
X107504762Y-134302381D02*
X107504762Y-133635714D01*
X107504762Y-133302381D02*
X107466667Y-133350000D01*
X107504762Y-133397619D01*
X107542857Y-133350000D01*
X107504762Y-133302381D01*
X107504762Y-133397619D01*
X107885714Y-133921429D02*
X108495238Y-133921429D01*
X109142857Y-133778571D02*
X109257143Y-133826190D01*
X109295238Y-133873810D01*
X109333333Y-133969048D01*
X109333333Y-134111905D01*
X109295238Y-134207143D01*
X109257143Y-134254762D01*
X109180952Y-134302381D01*
X108876190Y-134302381D01*
X108876190Y-133302381D01*
X109142857Y-133302381D01*
X109219047Y-133350000D01*
X109257143Y-133397619D01*
X109295238Y-133492857D01*
X109295238Y-133588095D01*
X109257143Y-133683333D01*
X109219047Y-133730952D01*
X109142857Y-133778571D01*
X108876190Y-133778571D01*
X109790476Y-134302381D02*
X109714285Y-134254762D01*
X109676190Y-134207143D01*
X109638095Y-134111905D01*
X109638095Y-133826190D01*
X109676190Y-133730952D01*
X109714285Y-133683333D01*
X109790476Y-133635714D01*
X109904762Y-133635714D01*
X109980952Y-133683333D01*
X110019047Y-133730952D01*
X110057143Y-133826190D01*
X110057143Y-134111905D01*
X110019047Y-134207143D01*
X109980952Y-134254762D01*
X109904762Y-134302381D01*
X109790476Y-134302381D01*
X110285714Y-133635714D02*
X110590476Y-133635714D01*
X110400000Y-133302381D02*
X110400000Y-134159524D01*
X110438095Y-134254762D01*
X110514286Y-134302381D01*
X110590476Y-134302381D01*
X110819048Y-134254762D02*
X110895238Y-134302381D01*
X111047619Y-134302381D01*
X111123810Y-134254762D01*
X111161905Y-134159524D01*
X111161905Y-134111905D01*
X111123810Y-134016667D01*
X111047619Y-133969048D01*
X110933334Y-133969048D01*
X110857143Y-133921429D01*
X110819048Y-133826190D01*
X110819048Y-133778571D01*
X110857143Y-133683333D01*
X110933334Y-133635714D01*
X111047619Y-133635714D01*
X111123810Y-133683333D01*
X112114286Y-134302381D02*
X112114286Y-133302381D01*
X112495238Y-133635714D02*
X112495238Y-134302381D01*
X112495238Y-133730952D02*
X112533333Y-133683333D01*
X112609524Y-133635714D01*
X112723810Y-133635714D01*
X112800000Y-133683333D01*
X112838095Y-133778571D01*
X112838095Y-134302381D01*
X113561905Y-134254762D02*
X113485715Y-134302381D01*
X113333334Y-134302381D01*
X113257143Y-134254762D01*
X113219048Y-134207143D01*
X113180953Y-134111905D01*
X113180953Y-133826190D01*
X113219048Y-133730952D01*
X113257143Y-133683333D01*
X113333334Y-133635714D01*
X113485715Y-133635714D01*
X113561905Y-133683333D01*
X113904762Y-134207143D02*
X113942857Y-134254762D01*
X113904762Y-134302381D01*
X113866667Y-134254762D01*
X113904762Y-134207143D01*
X113904762Y-134302381D01*
X114323809Y-134254762D02*
X114323809Y-134302381D01*
X114285714Y-134397619D01*
X114247619Y-134445238D01*
X115238095Y-133397619D02*
X115276190Y-133350000D01*
X115352381Y-133302381D01*
X115542857Y-133302381D01*
X115619047Y-133350000D01*
X115657143Y-133397619D01*
X115695238Y-133492857D01*
X115695238Y-133588095D01*
X115657143Y-133730952D01*
X115200000Y-134302381D01*
X115695238Y-134302381D01*
X116190476Y-133302381D02*
X116266667Y-133302381D01*
X116342857Y-133350000D01*
X116380952Y-133397619D01*
X116419048Y-133492857D01*
X116457143Y-133683333D01*
X116457143Y-133921429D01*
X116419048Y-134111905D01*
X116380952Y-134207143D01*
X116342857Y-134254762D01*
X116266667Y-134302381D01*
X116190476Y-134302381D01*
X116114286Y-134254762D01*
X116076190Y-134207143D01*
X116038095Y-134111905D01*
X116000000Y-133921429D01*
X116000000Y-133683333D01*
X116038095Y-133492857D01*
X116076190Y-133397619D01*
X116114286Y-133350000D01*
X116190476Y-133302381D01*
X117219048Y-134302381D02*
X116761905Y-134302381D01*
X116990476Y-134302381D02*
X116990476Y-133302381D01*
X116914286Y-133445238D01*
X116838095Y-133540476D01*
X116761905Y-133588095D01*
X117600000Y-134302381D02*
X117752381Y-134302381D01*
X117828572Y-134254762D01*
X117866667Y-134207143D01*
X117942858Y-134064286D01*
X117980953Y-133873810D01*
X117980953Y-133492857D01*
X117942858Y-133397619D01*
X117904762Y-133350000D01*
X117828572Y-133302381D01*
X117676191Y-133302381D01*
X117600000Y-133350000D01*
X117561905Y-133397619D01*
X117523810Y-133492857D01*
X117523810Y-133730952D01*
X117561905Y-133826190D01*
X117600000Y-133873810D01*
X117676191Y-133921429D01*
X117828572Y-133921429D01*
X117904762Y-133873810D01*
X117942858Y-133826190D01*
X117980953Y-133730952D01*
X81507862Y-135584996D02*
X81507862Y-134584996D01*
X81698338Y-134584996D01*
X81812624Y-134632615D01*
X81888815Y-134727853D01*
X81926910Y-134823091D01*
X81965005Y-135013567D01*
X81965005Y-135156425D01*
X81926910Y-135346901D01*
X81888815Y-135442139D01*
X81812624Y-135537377D01*
X81698338Y-135584996D01*
X81507862Y-135584996D01*
X82307862Y-135584996D02*
X82307862Y-134918329D01*
X82307862Y-135108805D02*
X82345957Y-135013567D01*
X82384053Y-134965948D01*
X82460243Y-134918329D01*
X82536434Y-134918329D01*
X82917386Y-135584996D02*
X82841195Y-135537377D01*
X82803100Y-135489758D01*
X82765005Y-135394520D01*
X82765005Y-135108805D01*
X82803100Y-135013567D01*
X82841195Y-134965948D01*
X82917386Y-134918329D01*
X83031672Y-134918329D01*
X83107862Y-134965948D01*
X83145957Y-135013567D01*
X83184053Y-135108805D01*
X83184053Y-135394520D01*
X83145957Y-135489758D01*
X83107862Y-135537377D01*
X83031672Y-135584996D01*
X82917386Y-135584996D01*
X83526910Y-134918329D02*
X83526910Y-135918329D01*
X83526910Y-134965948D02*
X83603101Y-134918329D01*
X83755482Y-134918329D01*
X83831672Y-134965948D01*
X83869767Y-135013567D01*
X83907863Y-135108805D01*
X83907863Y-135394520D01*
X83869767Y-135489758D01*
X83831672Y-135537377D01*
X83755482Y-135584996D01*
X83603101Y-135584996D01*
X83526910Y-135537377D01*
X84517387Y-135061186D02*
X84631673Y-135108805D01*
X84669768Y-135156425D01*
X84707863Y-135251663D01*
X84707863Y-135394520D01*
X84669768Y-135489758D01*
X84631673Y-135537377D01*
X84555482Y-135584996D01*
X84250720Y-135584996D01*
X84250720Y-134584996D01*
X84517387Y-134584996D01*
X84593577Y-134632615D01*
X84631673Y-134680234D01*
X84669768Y-134775472D01*
X84669768Y-134870710D01*
X84631673Y-134965948D01*
X84593577Y-135013567D01*
X84517387Y-135061186D01*
X84250720Y-135061186D01*
X85165006Y-135584996D02*
X85088815Y-135537377D01*
X85050720Y-135489758D01*
X85012625Y-135394520D01*
X85012625Y-135108805D01*
X85050720Y-135013567D01*
X85088815Y-134965948D01*
X85165006Y-134918329D01*
X85279292Y-134918329D01*
X85355482Y-134965948D01*
X85393577Y-135013567D01*
X85431673Y-135108805D01*
X85431673Y-135394520D01*
X85393577Y-135489758D01*
X85355482Y-135537377D01*
X85279292Y-135584996D01*
X85165006Y-135584996D01*
X85660244Y-134918329D02*
X85965006Y-134918329D01*
X85774530Y-134584996D02*
X85774530Y-135442139D01*
X85812625Y-135537377D01*
X85888816Y-135584996D01*
X85965006Y-135584996D01*
X81926910Y-137284996D02*
X81469767Y-137284996D01*
X81698338Y-137284996D02*
X81698338Y-136284996D01*
X81622148Y-136427853D01*
X81545957Y-136523091D01*
X81469767Y-136570710D01*
X82231672Y-136380234D02*
X82269767Y-136332615D01*
X82345958Y-136284996D01*
X82536434Y-136284996D01*
X82612624Y-136332615D01*
X82650720Y-136380234D01*
X82688815Y-136475472D01*
X82688815Y-136570710D01*
X82650720Y-136713567D01*
X82193577Y-137284996D01*
X82688815Y-137284996D01*
X83184053Y-136284996D02*
X83260244Y-136284996D01*
X83336434Y-136332615D01*
X83374529Y-136380234D01*
X83412625Y-136475472D01*
X83450720Y-136665948D01*
X83450720Y-136904044D01*
X83412625Y-137094520D01*
X83374529Y-137189758D01*
X83336434Y-137237377D01*
X83260244Y-137284996D01*
X83184053Y-137284996D01*
X83107863Y-137237377D01*
X83069767Y-137189758D01*
X83031672Y-137094520D01*
X82993577Y-136904044D01*
X82993577Y-136665948D01*
X83031672Y-136475472D01*
X83069767Y-136380234D01*
X83107863Y-136332615D01*
X83184053Y-136284996D01*
X83793577Y-136904044D02*
X84403101Y-136904044D01*
X85126910Y-137237377D02*
X85050720Y-137284996D01*
X84898339Y-137284996D01*
X84822148Y-137237377D01*
X84784053Y-137189758D01*
X84745958Y-137094520D01*
X84745958Y-136808805D01*
X84784053Y-136713567D01*
X84822148Y-136665948D01*
X84898339Y-136618329D01*
X85050720Y-136618329D01*
X85126910Y-136665948D01*
X85469767Y-137284996D02*
X85469767Y-136284996D01*
X85812624Y-137284996D02*
X85812624Y-136761186D01*
X85774529Y-136665948D01*
X85698339Y-136618329D01*
X85584053Y-136618329D01*
X85507862Y-136665948D01*
X85469767Y-136713567D01*
X86536434Y-137284996D02*
X86536434Y-136761186D01*
X86498339Y-136665948D01*
X86422149Y-136618329D01*
X86269768Y-136618329D01*
X86193577Y-136665948D01*
X86536434Y-137237377D02*
X86460244Y-137284996D01*
X86269768Y-137284996D01*
X86193577Y-137237377D01*
X86155482Y-137142139D01*
X86155482Y-137046901D01*
X86193577Y-136951663D01*
X86269768Y-136904044D01*
X86460244Y-136904044D01*
X86536434Y-136856425D01*
X86917387Y-136618329D02*
X86917387Y-137284996D01*
X86917387Y-136713567D02*
X86955482Y-136665948D01*
X87031673Y-136618329D01*
X87145959Y-136618329D01*
X87222149Y-136665948D01*
X87260244Y-136761186D01*
X87260244Y-137284996D01*
X87641197Y-136618329D02*
X87641197Y-137284996D01*
X87641197Y-136713567D02*
X87679292Y-136665948D01*
X87755483Y-136618329D01*
X87869769Y-136618329D01*
X87945959Y-136665948D01*
X87984054Y-136761186D01*
X87984054Y-137284996D01*
X88669769Y-137237377D02*
X88593579Y-137284996D01*
X88441198Y-137284996D01*
X88365007Y-137237377D01*
X88326912Y-137142139D01*
X88326912Y-136761186D01*
X88365007Y-136665948D01*
X88441198Y-136618329D01*
X88593579Y-136618329D01*
X88669769Y-136665948D01*
X88707864Y-136761186D01*
X88707864Y-136856425D01*
X88326912Y-136951663D01*
X89165007Y-137284996D02*
X89088816Y-137237377D01*
X89050721Y-137142139D01*
X89050721Y-136284996D01*
X90079293Y-136618329D02*
X90079293Y-137618329D01*
X90079293Y-136665948D02*
X90155484Y-136618329D01*
X90307865Y-136618329D01*
X90384055Y-136665948D01*
X90422150Y-136713567D01*
X90460246Y-136808805D01*
X90460246Y-137094520D01*
X90422150Y-137189758D01*
X90384055Y-137237377D01*
X90307865Y-137284996D01*
X90155484Y-137284996D01*
X90079293Y-137237377D01*
X90917389Y-137284996D02*
X90841198Y-137237377D01*
X90803103Y-137189758D01*
X90765008Y-137094520D01*
X90765008Y-136808805D01*
X90803103Y-136713567D01*
X90841198Y-136665948D01*
X90917389Y-136618329D01*
X91031675Y-136618329D01*
X91107865Y-136665948D01*
X91145960Y-136713567D01*
X91184056Y-136808805D01*
X91184056Y-137094520D01*
X91145960Y-137189758D01*
X91107865Y-137237377D01*
X91031675Y-137284996D01*
X90917389Y-137284996D01*
X91869770Y-136618329D02*
X91869770Y-137427853D01*
X91831675Y-137523091D01*
X91793580Y-137570710D01*
X91717389Y-137618329D01*
X91603104Y-137618329D01*
X91526913Y-137570710D01*
X91869770Y-137237377D02*
X91793580Y-137284996D01*
X91641199Y-137284996D01*
X91565008Y-137237377D01*
X91526913Y-137189758D01*
X91488818Y-137094520D01*
X91488818Y-136808805D01*
X91526913Y-136713567D01*
X91565008Y-136665948D01*
X91641199Y-136618329D01*
X91793580Y-136618329D01*
X91869770Y-136665948D01*
X92365009Y-137284996D02*
X92288818Y-137237377D01*
X92250723Y-137189758D01*
X92212628Y-137094520D01*
X92212628Y-136808805D01*
X92250723Y-136713567D01*
X92288818Y-136665948D01*
X92365009Y-136618329D01*
X92479295Y-136618329D01*
X92555485Y-136665948D01*
X92593580Y-136713567D01*
X92631676Y-136808805D01*
X92631676Y-137094520D01*
X92593580Y-137189758D01*
X92555485Y-137237377D01*
X92479295Y-137284996D01*
X92365009Y-137284996D01*
X92974533Y-136904044D02*
X93584057Y-136904044D01*
X93965009Y-136618329D02*
X93965009Y-137618329D01*
X93965009Y-136665948D02*
X94041200Y-136618329D01*
X94193581Y-136618329D01*
X94269771Y-136665948D01*
X94307866Y-136713567D01*
X94345962Y-136808805D01*
X94345962Y-137094520D01*
X94307866Y-137189758D01*
X94269771Y-137237377D01*
X94193581Y-137284996D01*
X94041200Y-137284996D01*
X93965009Y-137237377D01*
X94688819Y-137284996D02*
X94688819Y-136618329D01*
X94688819Y-136284996D02*
X94650724Y-136332615D01*
X94688819Y-136380234D01*
X94726914Y-136332615D01*
X94688819Y-136284996D01*
X94688819Y-136380234D01*
X95069771Y-136618329D02*
X95069771Y-137284996D01*
X95069771Y-136713567D02*
X95107866Y-136665948D01*
X95184057Y-136618329D01*
X95298343Y-136618329D01*
X95374533Y-136665948D01*
X95412628Y-136761186D01*
X95412628Y-137284996D01*
X96403105Y-137284996D02*
X96403105Y-136284996D01*
X96403105Y-136665948D02*
X96479296Y-136618329D01*
X96631677Y-136618329D01*
X96707867Y-136665948D01*
X96745962Y-136713567D01*
X96784058Y-136808805D01*
X96784058Y-137094520D01*
X96745962Y-137189758D01*
X96707867Y-137237377D01*
X96631677Y-137284996D01*
X96479296Y-137284996D01*
X96403105Y-137237377D01*
X97241201Y-137284996D02*
X97165010Y-137237377D01*
X97126915Y-137189758D01*
X97088820Y-137094520D01*
X97088820Y-136808805D01*
X97126915Y-136713567D01*
X97165010Y-136665948D01*
X97241201Y-136618329D01*
X97355487Y-136618329D01*
X97431677Y-136665948D01*
X97469772Y-136713567D01*
X97507868Y-136808805D01*
X97507868Y-137094520D01*
X97469772Y-137189758D01*
X97431677Y-137237377D01*
X97355487Y-137284996D01*
X97241201Y-137284996D01*
X98193582Y-137284996D02*
X98193582Y-136761186D01*
X98155487Y-136665948D01*
X98079297Y-136618329D01*
X97926916Y-136618329D01*
X97850725Y-136665948D01*
X98193582Y-137237377D02*
X98117392Y-137284996D01*
X97926916Y-137284996D01*
X97850725Y-137237377D01*
X97812630Y-137142139D01*
X97812630Y-137046901D01*
X97850725Y-136951663D01*
X97926916Y-136904044D01*
X98117392Y-136904044D01*
X98193582Y-136856425D01*
X98574535Y-137284996D02*
X98574535Y-136618329D01*
X98574535Y-136808805D02*
X98612630Y-136713567D01*
X98650726Y-136665948D01*
X98726916Y-136618329D01*
X98803107Y-136618329D01*
X99412630Y-137284996D02*
X99412630Y-136284996D01*
X99412630Y-137237377D02*
X99336440Y-137284996D01*
X99184059Y-137284996D01*
X99107868Y-137237377D01*
X99069773Y-137189758D01*
X99031678Y-137094520D01*
X99031678Y-136808805D01*
X99069773Y-136713567D01*
X99107868Y-136665948D01*
X99184059Y-136618329D01*
X99336440Y-136618329D01*
X99412630Y-136665948D01*
X100326917Y-136618329D02*
X100517393Y-137284996D01*
X100707869Y-136618329D01*
X100936441Y-136284996D02*
X101431679Y-136284996D01*
X101165012Y-136665948D01*
X101279298Y-136665948D01*
X101355488Y-136713567D01*
X101393584Y-136761186D01*
X101431679Y-136856425D01*
X101431679Y-137094520D01*
X101393584Y-137189758D01*
X101355488Y-137237377D01*
X101279298Y-137284996D01*
X101050726Y-137284996D01*
X100974536Y-137237377D01*
X100936441Y-137189758D01*
X101774536Y-137189758D02*
X101812631Y-137237377D01*
X101774536Y-137284996D01*
X101736441Y-137237377D01*
X101774536Y-137189758D01*
X101774536Y-137284996D01*
X102536441Y-136284996D02*
X102155488Y-136284996D01*
X102117393Y-136761186D01*
X102155488Y-136713567D01*
X102231679Y-136665948D01*
X102422155Y-136665948D01*
X102498345Y-136713567D01*
X102536441Y-136761186D01*
X102574536Y-136856425D01*
X102574536Y-137094520D01*
X102536441Y-137189758D01*
X102498345Y-137237377D01*
X102422155Y-137284996D01*
X102231679Y-137284996D01*
X102155488Y-137237377D01*
X102117393Y-137189758D01*
D13*
X63093180Y-80957620D02*
X63093180Y-121717620D01*
X63093180Y-121717620D02*
X68413180Y-121717620D01*
X68413180Y-121717620D02*
X68413180Y-78297620D01*
X68413180Y-78297620D02*
X65753180Y-78297620D01*
X65753180Y-78297620D02*
X65753180Y-80957620D01*
X65753180Y-80957620D02*
X63093180Y-80957620D01*
X63093180Y-79687620D02*
X63093180Y-78297620D01*
X63093180Y-78297620D02*
X64483180Y-78297620D01*
X141500000Y-80150000D02*
X140500000Y-80150000D01*
X140500000Y-81850000D02*
X141500000Y-81850000D01*
X58500000Y-81850000D02*
X59500000Y-81850000D01*
X59500000Y-80150000D02*
X58500000Y-80150000D01*
X141600000Y-79880000D02*
X140400000Y-79880000D01*
X140400000Y-78120000D02*
X141600000Y-78120000D01*
X58400000Y-78120000D02*
X59600000Y-78120000D01*
X59600000Y-79880000D02*
X58400000Y-79880000D01*
D14*
G36*
X76854548Y-134856045D02*
X76856376Y-134858863D01*
X76898157Y-134904542D01*
X76913137Y-134915624D01*
X76927695Y-134932381D01*
X76895440Y-134937967D01*
X76890736Y-134938026D01*
X76845416Y-134924810D01*
X76833974Y-134881265D01*
X76838802Y-134845123D01*
X76854548Y-134856045D01*
X76854548Y-134856045D01*
G37*
X76854548Y-134856045D02*
X76856376Y-134858863D01*
X76898157Y-134904542D01*
X76913137Y-134915624D01*
X76927695Y-134932381D01*
X76895440Y-134937967D01*
X76890736Y-134938026D01*
X76845416Y-134924810D01*
X76833974Y-134881265D01*
X76838802Y-134845123D01*
X76854548Y-134856045D01*
G36*
X97026138Y-134876560D02*
X97026197Y-134881265D01*
X97012981Y-134926584D01*
X96969436Y-134938026D01*
X96933294Y-134933198D01*
X96944216Y-134917452D01*
X96947034Y-134915624D01*
X96992713Y-134873843D01*
X97003795Y-134858863D01*
X97020552Y-134844305D01*
X97026138Y-134876560D01*
X97026138Y-134876560D01*
G37*
X97026138Y-134876560D02*
X97026197Y-134881265D01*
X97012981Y-134926584D01*
X96969436Y-134938026D01*
X96933294Y-134933198D01*
X96944216Y-134917452D01*
X96947034Y-134915624D01*
X96992713Y-134873843D01*
X97003795Y-134858863D01*
X97020552Y-134844305D01*
X97026138Y-134876560D01*
G36*
X78275346Y-131312903D02*
X78498161Y-131534686D01*
X78599323Y-131433696D01*
X78672765Y-131372149D01*
X78746966Y-131328369D01*
X78781136Y-131316665D01*
X78828646Y-131312127D01*
X78871576Y-131324610D01*
X78923398Y-131360868D01*
X78991900Y-131422331D01*
X79122014Y-131544038D01*
X79343737Y-131323343D01*
X79565459Y-131102648D01*
X79842087Y-131382756D01*
X79398911Y-131827994D01*
X79468258Y-131897342D01*
X79537606Y-131966689D01*
X79982844Y-131523513D01*
X80262952Y-131800141D01*
X79819192Y-132245967D01*
X79888513Y-132315287D01*
X79957833Y-132384608D01*
X80403659Y-131940848D01*
X80536322Y-132075180D01*
X80600571Y-132143268D01*
X80647692Y-132198983D01*
X80668653Y-132231538D01*
X80668986Y-132233583D01*
X80652035Y-132260098D01*
X80605956Y-132314136D01*
X80537913Y-132387673D01*
X80460248Y-132467481D01*
X80251511Y-132677308D01*
X80358648Y-132786473D01*
X80424366Y-132861101D01*
X80457199Y-132922222D01*
X80465786Y-132982615D01*
X80456342Y-133045589D01*
X80422262Y-133106968D01*
X80358648Y-133178756D01*
X80251511Y-133287921D01*
X80460248Y-133497748D01*
X80542418Y-133582302D01*
X80609362Y-133654909D01*
X80653917Y-133707544D01*
X80668986Y-133731646D01*
X80652280Y-133760220D01*
X80608185Y-133813419D01*
X80545734Y-133880458D01*
X80536322Y-133890049D01*
X80403659Y-134024381D01*
X79957833Y-133580621D01*
X79888513Y-133649942D01*
X79819192Y-133719262D01*
X80262952Y-134165088D01*
X79982844Y-134441716D01*
X79537606Y-133998540D01*
X79468258Y-134067887D01*
X79398911Y-134137235D01*
X79842087Y-134582473D01*
X79565459Y-134862581D01*
X79343737Y-134641886D01*
X79122014Y-134421191D01*
X78991900Y-134542898D01*
X78919517Y-134607544D01*
X78868643Y-134642070D01*
X78825838Y-134653227D01*
X78781530Y-134648553D01*
X78717842Y-134621585D01*
X78642121Y-134569999D01*
X78598522Y-134531657D01*
X78495768Y-134430812D01*
X78281188Y-134646513D01*
X78196888Y-134730136D01*
X78125699Y-134798655D01*
X78075087Y-134845029D01*
X78052519Y-134862214D01*
X78052479Y-134862215D01*
X78029192Y-134845412D01*
X77980255Y-134800902D01*
X77915297Y-134737529D01*
X77900217Y-134722344D01*
X77762084Y-134582473D01*
X78205260Y-134137235D01*
X78135913Y-134067887D01*
X78066565Y-133998540D01*
X77621327Y-134441716D01*
X77341219Y-134165088D01*
X77784979Y-133719262D01*
X77715658Y-133649942D01*
X77646338Y-133580621D01*
X77200512Y-134024381D01*
X76923884Y-133744273D01*
X77364752Y-133300115D01*
X77251569Y-133180943D01*
X77172998Y-133085456D01*
X77138761Y-133003855D01*
X77141489Y-132982615D01*
X77798786Y-132982615D01*
X77806607Y-133011125D01*
X77832345Y-133052876D01*
X77879412Y-133111728D01*
X77951219Y-133191542D01*
X78051177Y-133296177D01*
X78182698Y-133429494D01*
X78276556Y-133523243D01*
X78424931Y-133669036D01*
X78553910Y-133792070D01*
X78660051Y-133889237D01*
X78739909Y-133957430D01*
X78790042Y-133993544D01*
X78803362Y-133998615D01*
X78836428Y-133980665D01*
X78901009Y-133928855D01*
X78993726Y-133846246D01*
X79111201Y-133735899D01*
X79250055Y-133600872D01*
X79328891Y-133522615D01*
X79481865Y-133368634D01*
X79601037Y-133245798D01*
X79689626Y-133150465D01*
X79750849Y-133078992D01*
X79787924Y-133027735D01*
X79804068Y-132993052D01*
X79805386Y-132983110D01*
X79796599Y-132953916D01*
X79768100Y-132909498D01*
X79716684Y-132846216D01*
X79639143Y-132760435D01*
X79532271Y-132648515D01*
X79392862Y-132506821D01*
X79329386Y-132443109D01*
X79178083Y-132293528D01*
X79047942Y-132168702D01*
X78942013Y-132071394D01*
X78863344Y-132004368D01*
X78814983Y-131970388D01*
X78803857Y-131966615D01*
X78770317Y-131984604D01*
X78705043Y-132036679D01*
X78611187Y-132119997D01*
X78491902Y-132231717D01*
X78350340Y-132368996D01*
X78276556Y-132441986D01*
X78124798Y-132594051D01*
X78006616Y-132715154D01*
X77918600Y-132809157D01*
X77857338Y-132879919D01*
X77819419Y-132931301D01*
X77801431Y-132967163D01*
X77798786Y-132982615D01*
X77141489Y-132982615D01*
X77148860Y-132925226D01*
X77203292Y-132838653D01*
X77251569Y-132784286D01*
X77364752Y-132665115D01*
X77144318Y-132443035D01*
X76923884Y-132220956D01*
X77200512Y-131940848D01*
X77646338Y-132384608D01*
X77715658Y-132315287D01*
X77784979Y-132245967D01*
X77341219Y-131800141D01*
X77621327Y-131523513D01*
X78066565Y-131966689D01*
X78135913Y-131897342D01*
X78205260Y-131827994D01*
X77761492Y-131382160D01*
X77907012Y-131236641D01*
X78052531Y-131091121D01*
X78275346Y-131312903D01*
X78275346Y-131312903D01*
G37*
X78275346Y-131312903D02*
X78498161Y-131534686D01*
X78599323Y-131433696D01*
X78672765Y-131372149D01*
X78746966Y-131328369D01*
X78781136Y-131316665D01*
X78828646Y-131312127D01*
X78871576Y-131324610D01*
X78923398Y-131360868D01*
X78991900Y-131422331D01*
X79122014Y-131544038D01*
X79343737Y-131323343D01*
X79565459Y-131102648D01*
X79842087Y-131382756D01*
X79398911Y-131827994D01*
X79468258Y-131897342D01*
X79537606Y-131966689D01*
X79982844Y-131523513D01*
X80262952Y-131800141D01*
X79819192Y-132245967D01*
X79888513Y-132315287D01*
X79957833Y-132384608D01*
X80403659Y-131940848D01*
X80536322Y-132075180D01*
X80600571Y-132143268D01*
X80647692Y-132198983D01*
X80668653Y-132231538D01*
X80668986Y-132233583D01*
X80652035Y-132260098D01*
X80605956Y-132314136D01*
X80537913Y-132387673D01*
X80460248Y-132467481D01*
X80251511Y-132677308D01*
X80358648Y-132786473D01*
X80424366Y-132861101D01*
X80457199Y-132922222D01*
X80465786Y-132982615D01*
X80456342Y-133045589D01*
X80422262Y-133106968D01*
X80358648Y-133178756D01*
X80251511Y-133287921D01*
X80460248Y-133497748D01*
X80542418Y-133582302D01*
X80609362Y-133654909D01*
X80653917Y-133707544D01*
X80668986Y-133731646D01*
X80652280Y-133760220D01*
X80608185Y-133813419D01*
X80545734Y-133880458D01*
X80536322Y-133890049D01*
X80403659Y-134024381D01*
X79957833Y-133580621D01*
X79888513Y-133649942D01*
X79819192Y-133719262D01*
X80262952Y-134165088D01*
X79982844Y-134441716D01*
X79537606Y-133998540D01*
X79468258Y-134067887D01*
X79398911Y-134137235D01*
X79842087Y-134582473D01*
X79565459Y-134862581D01*
X79343737Y-134641886D01*
X79122014Y-134421191D01*
X78991900Y-134542898D01*
X78919517Y-134607544D01*
X78868643Y-134642070D01*
X78825838Y-134653227D01*
X78781530Y-134648553D01*
X78717842Y-134621585D01*
X78642121Y-134569999D01*
X78598522Y-134531657D01*
X78495768Y-134430812D01*
X78281188Y-134646513D01*
X78196888Y-134730136D01*
X78125699Y-134798655D01*
X78075087Y-134845029D01*
X78052519Y-134862214D01*
X78052479Y-134862215D01*
X78029192Y-134845412D01*
X77980255Y-134800902D01*
X77915297Y-134737529D01*
X77900217Y-134722344D01*
X77762084Y-134582473D01*
X78205260Y-134137235D01*
X78135913Y-134067887D01*
X78066565Y-133998540D01*
X77621327Y-134441716D01*
X77341219Y-134165088D01*
X77784979Y-133719262D01*
X77715658Y-133649942D01*
X77646338Y-133580621D01*
X77200512Y-134024381D01*
X76923884Y-133744273D01*
X77364752Y-133300115D01*
X77251569Y-133180943D01*
X77172998Y-133085456D01*
X77138761Y-133003855D01*
X77141489Y-132982615D01*
X77798786Y-132982615D01*
X77806607Y-133011125D01*
X77832345Y-133052876D01*
X77879412Y-133111728D01*
X77951219Y-133191542D01*
X78051177Y-133296177D01*
X78182698Y-133429494D01*
X78276556Y-133523243D01*
X78424931Y-133669036D01*
X78553910Y-133792070D01*
X78660051Y-133889237D01*
X78739909Y-133957430D01*
X78790042Y-133993544D01*
X78803362Y-133998615D01*
X78836428Y-133980665D01*
X78901009Y-133928855D01*
X78993726Y-133846246D01*
X79111201Y-133735899D01*
X79250055Y-133600872D01*
X79328891Y-133522615D01*
X79481865Y-133368634D01*
X79601037Y-133245798D01*
X79689626Y-133150465D01*
X79750849Y-133078992D01*
X79787924Y-133027735D01*
X79804068Y-132993052D01*
X79805386Y-132983110D01*
X79796599Y-132953916D01*
X79768100Y-132909498D01*
X79716684Y-132846216D01*
X79639143Y-132760435D01*
X79532271Y-132648515D01*
X79392862Y-132506821D01*
X79329386Y-132443109D01*
X79178083Y-132293528D01*
X79047942Y-132168702D01*
X78942013Y-132071394D01*
X78863344Y-132004368D01*
X78814983Y-131970388D01*
X78803857Y-131966615D01*
X78770317Y-131984604D01*
X78705043Y-132036679D01*
X78611187Y-132119997D01*
X78491902Y-132231717D01*
X78350340Y-132368996D01*
X78276556Y-132441986D01*
X78124798Y-132594051D01*
X78006616Y-132715154D01*
X77918600Y-132809157D01*
X77857338Y-132879919D01*
X77819419Y-132931301D01*
X77801431Y-132967163D01*
X77798786Y-132982615D01*
X77141489Y-132982615D01*
X77148860Y-132925226D01*
X77203292Y-132838653D01*
X77251569Y-132784286D01*
X77364752Y-132665115D01*
X77144318Y-132443035D01*
X76923884Y-132220956D01*
X77200512Y-131940848D01*
X77646338Y-132384608D01*
X77715658Y-132315287D01*
X77784979Y-132245967D01*
X77341219Y-131800141D01*
X77621327Y-131523513D01*
X78066565Y-131966689D01*
X78135913Y-131897342D01*
X78205260Y-131827994D01*
X77761492Y-131382160D01*
X77907012Y-131236641D01*
X78052531Y-131091121D01*
X78275346Y-131312903D01*
G36*
X82343031Y-131941772D02*
X82549625Y-131942254D01*
X82712026Y-131943587D01*
X82836836Y-131946178D01*
X82930658Y-131950431D01*
X83000097Y-131956751D01*
X83051756Y-131965544D01*
X83092239Y-131977216D01*
X83122598Y-131989613D01*
X83237868Y-132067960D01*
X83318144Y-132178108D01*
X83354606Y-132298004D01*
X83368074Y-132398415D01*
X83230599Y-132398415D01*
X83150173Y-132396288D01*
X83105060Y-132385185D01*
X83079806Y-132358024D01*
X83064360Y-132322214D01*
X83035598Y-132246014D01*
X82362106Y-132246014D01*
X82155527Y-132246368D01*
X81993922Y-132247647D01*
X81871470Y-132250177D01*
X81782349Y-132254283D01*
X81720738Y-132260292D01*
X81680814Y-132268528D01*
X81656756Y-132279318D01*
X81648700Y-132285929D01*
X81623555Y-132338646D01*
X81609498Y-132424126D01*
X81606366Y-132525596D01*
X81613995Y-132626278D01*
X81632221Y-132709400D01*
X81653236Y-132750717D01*
X81668284Y-132766432D01*
X81688018Y-132778783D01*
X81718386Y-132788248D01*
X81765335Y-132795306D01*
X81834814Y-132800436D01*
X81932770Y-132804117D01*
X82065150Y-132806827D01*
X82237904Y-132809046D01*
X82398218Y-132810681D01*
X83098750Y-132817515D01*
X83191994Y-132888678D01*
X83261007Y-132947932D01*
X83308659Y-133009454D01*
X83338699Y-133084212D01*
X83354879Y-133183172D01*
X83360948Y-133317301D01*
X83361386Y-133383997D01*
X83357401Y-133536526D01*
X83342620Y-133650044D01*
X83312797Y-133735917D01*
X83263689Y-133805509D01*
X83191052Y-133870186D01*
X83175425Y-133881979D01*
X83152351Y-133897452D01*
X83125630Y-133909667D01*
X83089225Y-133919072D01*
X83037097Y-133926110D01*
X82963209Y-133931229D01*
X82861521Y-133934873D01*
X82725997Y-133937490D01*
X82550597Y-133939524D01*
X82375325Y-133941049D01*
X82150320Y-133942368D01*
X81970712Y-133942130D01*
X81831118Y-133940142D01*
X81726154Y-133936209D01*
X81650435Y-133930137D01*
X81598578Y-133921732D01*
X81567615Y-133911904D01*
X81475498Y-133847642D01*
X81397384Y-133750852D01*
X81346520Y-133639797D01*
X81336452Y-133593165D01*
X81322697Y-133490615D01*
X81465741Y-133490615D01*
X81551119Y-133493891D01*
X81595602Y-133505424D01*
X81608774Y-133527765D01*
X81608786Y-133528715D01*
X81625600Y-133573786D01*
X81659586Y-133617615D01*
X81677793Y-133633319D01*
X81701313Y-133645410D01*
X81736492Y-133654358D01*
X81789678Y-133660634D01*
X81867220Y-133664706D01*
X81975465Y-133667047D01*
X82120761Y-133668125D01*
X82309456Y-133668411D01*
X82345386Y-133668415D01*
X82557957Y-133668411D01*
X82725168Y-133666965D01*
X82852455Y-133661919D01*
X82945251Y-133651120D01*
X83008993Y-133632411D01*
X83049116Y-133603638D01*
X83071054Y-133562645D01*
X83080242Y-133507277D01*
X83082116Y-133435378D01*
X83081986Y-133376315D01*
X83082142Y-133294292D01*
X83079101Y-133229239D01*
X83067596Y-133179194D01*
X83042362Y-133142194D01*
X82998133Y-133116276D01*
X82929642Y-133099477D01*
X82831624Y-133089834D01*
X82698813Y-133085384D01*
X82525943Y-133084165D01*
X82307748Y-133084214D01*
X82298342Y-133084215D01*
X82094276Y-133084081D01*
X81934629Y-133083362D01*
X81813021Y-133081582D01*
X81723071Y-133078265D01*
X81658397Y-133072935D01*
X81612620Y-133065116D01*
X81579359Y-133054332D01*
X81552232Y-133040107D01*
X81532327Y-133027065D01*
X81455229Y-132969154D01*
X81401779Y-132911067D01*
X81367413Y-132841601D01*
X81347569Y-132749557D01*
X81337684Y-132623734D01*
X81335001Y-132542698D01*
X81332806Y-132414991D01*
X81334846Y-132325659D01*
X81342759Y-132262342D01*
X81358179Y-132212682D01*
X81382744Y-132164320D01*
X81385801Y-132159020D01*
X81464033Y-132064966D01*
X81555631Y-132000270D01*
X81590886Y-131982533D01*
X81625705Y-131968763D01*
X81666756Y-131958464D01*
X81720706Y-131951141D01*
X81794222Y-131946300D01*
X81893970Y-131943444D01*
X82026619Y-131942078D01*
X82198835Y-131941708D01*
X82343031Y-131941772D01*
X82343031Y-131941772D01*
G37*
X82343031Y-131941772D02*
X82549625Y-131942254D01*
X82712026Y-131943587D01*
X82836836Y-131946178D01*
X82930658Y-131950431D01*
X83000097Y-131956751D01*
X83051756Y-131965544D01*
X83092239Y-131977216D01*
X83122598Y-131989613D01*
X83237868Y-132067960D01*
X83318144Y-132178108D01*
X83354606Y-132298004D01*
X83368074Y-132398415D01*
X83230599Y-132398415D01*
X83150173Y-132396288D01*
X83105060Y-132385185D01*
X83079806Y-132358024D01*
X83064360Y-132322214D01*
X83035598Y-132246014D01*
X82362106Y-132246014D01*
X82155527Y-132246368D01*
X81993922Y-132247647D01*
X81871470Y-132250177D01*
X81782349Y-132254283D01*
X81720738Y-132260292D01*
X81680814Y-132268528D01*
X81656756Y-132279318D01*
X81648700Y-132285929D01*
X81623555Y-132338646D01*
X81609498Y-132424126D01*
X81606366Y-132525596D01*
X81613995Y-132626278D01*
X81632221Y-132709400D01*
X81653236Y-132750717D01*
X81668284Y-132766432D01*
X81688018Y-132778783D01*
X81718386Y-132788248D01*
X81765335Y-132795306D01*
X81834814Y-132800436D01*
X81932770Y-132804117D01*
X82065150Y-132806827D01*
X82237904Y-132809046D01*
X82398218Y-132810681D01*
X83098750Y-132817515D01*
X83191994Y-132888678D01*
X83261007Y-132947932D01*
X83308659Y-133009454D01*
X83338699Y-133084212D01*
X83354879Y-133183172D01*
X83360948Y-133317301D01*
X83361386Y-133383997D01*
X83357401Y-133536526D01*
X83342620Y-133650044D01*
X83312797Y-133735917D01*
X83263689Y-133805509D01*
X83191052Y-133870186D01*
X83175425Y-133881979D01*
X83152351Y-133897452D01*
X83125630Y-133909667D01*
X83089225Y-133919072D01*
X83037097Y-133926110D01*
X82963209Y-133931229D01*
X82861521Y-133934873D01*
X82725997Y-133937490D01*
X82550597Y-133939524D01*
X82375325Y-133941049D01*
X82150320Y-133942368D01*
X81970712Y-133942130D01*
X81831118Y-133940142D01*
X81726154Y-133936209D01*
X81650435Y-133930137D01*
X81598578Y-133921732D01*
X81567615Y-133911904D01*
X81475498Y-133847642D01*
X81397384Y-133750852D01*
X81346520Y-133639797D01*
X81336452Y-133593165D01*
X81322697Y-133490615D01*
X81465741Y-133490615D01*
X81551119Y-133493891D01*
X81595602Y-133505424D01*
X81608774Y-133527765D01*
X81608786Y-133528715D01*
X81625600Y-133573786D01*
X81659586Y-133617615D01*
X81677793Y-133633319D01*
X81701313Y-133645410D01*
X81736492Y-133654358D01*
X81789678Y-133660634D01*
X81867220Y-133664706D01*
X81975465Y-133667047D01*
X82120761Y-133668125D01*
X82309456Y-133668411D01*
X82345386Y-133668415D01*
X82557957Y-133668411D01*
X82725168Y-133666965D01*
X82852455Y-133661919D01*
X82945251Y-133651120D01*
X83008993Y-133632411D01*
X83049116Y-133603638D01*
X83071054Y-133562645D01*
X83080242Y-133507277D01*
X83082116Y-133435378D01*
X83081986Y-133376315D01*
X83082142Y-133294292D01*
X83079101Y-133229239D01*
X83067596Y-133179194D01*
X83042362Y-133142194D01*
X82998133Y-133116276D01*
X82929642Y-133099477D01*
X82831624Y-133089834D01*
X82698813Y-133085384D01*
X82525943Y-133084165D01*
X82307748Y-133084214D01*
X82298342Y-133084215D01*
X82094276Y-133084081D01*
X81934629Y-133083362D01*
X81813021Y-133081582D01*
X81723071Y-133078265D01*
X81658397Y-133072935D01*
X81612620Y-133065116D01*
X81579359Y-133054332D01*
X81552232Y-133040107D01*
X81532327Y-133027065D01*
X81455229Y-132969154D01*
X81401779Y-132911067D01*
X81367413Y-132841601D01*
X81347569Y-132749557D01*
X81337684Y-132623734D01*
X81335001Y-132542698D01*
X81332806Y-132414991D01*
X81334846Y-132325659D01*
X81342759Y-132262342D01*
X81358179Y-132212682D01*
X81382744Y-132164320D01*
X81385801Y-132159020D01*
X81464033Y-132064966D01*
X81555631Y-132000270D01*
X81590886Y-131982533D01*
X81625705Y-131968763D01*
X81666756Y-131958464D01*
X81720706Y-131951141D01*
X81794222Y-131946300D01*
X81893970Y-131943444D01*
X82026619Y-131942078D01*
X82198835Y-131941708D01*
X82343031Y-131941772D01*
G36*
X85667703Y-132087264D02*
X85660086Y-132233315D01*
X84824063Y-132240017D01*
X84556319Y-132242976D01*
X84338597Y-132247177D01*
X84170131Y-132252650D01*
X84050158Y-132259425D01*
X83977913Y-132267534D01*
X83954113Y-132274877D01*
X83943196Y-132294416D01*
X83934742Y-132336164D01*
X83928490Y-132405280D01*
X83924180Y-132506926D01*
X83921550Y-132646260D01*
X83920340Y-132828444D01*
X83920186Y-132946184D01*
X83920297Y-133143288D01*
X83920972Y-133295784D01*
X83922724Y-133409865D01*
X83926064Y-133491722D01*
X83931504Y-133547550D01*
X83939556Y-133583538D01*
X83950733Y-133605881D01*
X83965545Y-133620770D01*
X83976637Y-133628874D01*
X83998602Y-133639990D01*
X84032870Y-133648862D01*
X84084764Y-133655729D01*
X84159606Y-133660831D01*
X84262719Y-133664409D01*
X84399424Y-133666704D01*
X84575045Y-133667954D01*
X84794903Y-133668400D01*
X84852937Y-133668415D01*
X85672786Y-133668415D01*
X85672786Y-133947815D01*
X84815536Y-133946204D01*
X84586291Y-133945025D01*
X84381312Y-133942483D01*
X84205572Y-133938726D01*
X84064046Y-133933897D01*
X83961706Y-133928143D01*
X83903529Y-133921609D01*
X83894799Y-133919279D01*
X83828765Y-133882609D01*
X83771735Y-133838339D01*
X83734808Y-133802187D01*
X83705565Y-133766308D01*
X83683109Y-133724541D01*
X83666546Y-133670722D01*
X83654982Y-133598691D01*
X83647520Y-133502285D01*
X83643265Y-133375342D01*
X83641324Y-133211700D01*
X83640800Y-133005197D01*
X83640786Y-132936832D01*
X83640908Y-132728424D01*
X83641574Y-132564567D01*
X83643236Y-132439010D01*
X83646345Y-132345503D01*
X83651351Y-132277796D01*
X83658705Y-132229641D01*
X83668858Y-132194786D01*
X83682261Y-132166983D01*
X83698141Y-132141821D01*
X83757142Y-132076895D01*
X83837379Y-132016108D01*
X83868623Y-131998365D01*
X83900782Y-131982851D01*
X83933117Y-131970433D01*
X83971409Y-131960766D01*
X84021438Y-131953506D01*
X84088986Y-131948309D01*
X84179833Y-131944830D01*
X84299759Y-131942726D01*
X84454547Y-131941651D01*
X84649976Y-131941263D01*
X84828535Y-131941214D01*
X85675321Y-131941214D01*
X85667703Y-132087264D01*
X85667703Y-132087264D01*
G37*
X85667703Y-132087264D02*
X85660086Y-132233315D01*
X84824063Y-132240017D01*
X84556319Y-132242976D01*
X84338597Y-132247177D01*
X84170131Y-132252650D01*
X84050158Y-132259425D01*
X83977913Y-132267534D01*
X83954113Y-132274877D01*
X83943196Y-132294416D01*
X83934742Y-132336164D01*
X83928490Y-132405280D01*
X83924180Y-132506926D01*
X83921550Y-132646260D01*
X83920340Y-132828444D01*
X83920186Y-132946184D01*
X83920297Y-133143288D01*
X83920972Y-133295784D01*
X83922724Y-133409865D01*
X83926064Y-133491722D01*
X83931504Y-133547550D01*
X83939556Y-133583538D01*
X83950733Y-133605881D01*
X83965545Y-133620770D01*
X83976637Y-133628874D01*
X83998602Y-133639990D01*
X84032870Y-133648862D01*
X84084764Y-133655729D01*
X84159606Y-133660831D01*
X84262719Y-133664409D01*
X84399424Y-133666704D01*
X84575045Y-133667954D01*
X84794903Y-133668400D01*
X84852937Y-133668415D01*
X85672786Y-133668415D01*
X85672786Y-133947815D01*
X84815536Y-133946204D01*
X84586291Y-133945025D01*
X84381312Y-133942483D01*
X84205572Y-133938726D01*
X84064046Y-133933897D01*
X83961706Y-133928143D01*
X83903529Y-133921609D01*
X83894799Y-133919279D01*
X83828765Y-133882609D01*
X83771735Y-133838339D01*
X83734808Y-133802187D01*
X83705565Y-133766308D01*
X83683109Y-133724541D01*
X83666546Y-133670722D01*
X83654982Y-133598691D01*
X83647520Y-133502285D01*
X83643265Y-133375342D01*
X83641324Y-133211700D01*
X83640800Y-133005197D01*
X83640786Y-132936832D01*
X83640908Y-132728424D01*
X83641574Y-132564567D01*
X83643236Y-132439010D01*
X83646345Y-132345503D01*
X83651351Y-132277796D01*
X83658705Y-132229641D01*
X83668858Y-132194786D01*
X83682261Y-132166983D01*
X83698141Y-132141821D01*
X83757142Y-132076895D01*
X83837379Y-132016108D01*
X83868623Y-131998365D01*
X83900782Y-131982851D01*
X83933117Y-131970433D01*
X83971409Y-131960766D01*
X84021438Y-131953506D01*
X84088986Y-131948309D01*
X84179833Y-131944830D01*
X84299759Y-131942726D01*
X84454547Y-131941651D01*
X84649976Y-131941263D01*
X84828535Y-131941214D01*
X85675321Y-131941214D01*
X85667703Y-132087264D01*
G36*
X86307786Y-133947815D02*
X86028386Y-133947815D01*
X86028386Y-131941215D01*
X86307786Y-131941215D01*
X86307786Y-133947815D01*
X86307786Y-133947815D01*
G37*
X86307786Y-133947815D02*
X86028386Y-133947815D01*
X86028386Y-131941215D01*
X86307786Y-131941215D01*
X86307786Y-133947815D01*
G36*
X88822386Y-131941215D02*
X89525566Y-131941215D01*
X89734389Y-131941414D01*
X89898919Y-131942298D01*
X90025662Y-131944291D01*
X90121123Y-131947820D01*
X90191810Y-131953311D01*
X90244229Y-131961189D01*
X90284885Y-131971881D01*
X90320284Y-131985812D01*
X90338725Y-131994454D01*
X90451944Y-132076036D01*
X90512987Y-132157385D01*
X90577270Y-132267077D01*
X90569778Y-132976126D01*
X90562286Y-133685176D01*
X90493869Y-133774821D01*
X90458944Y-133819057D01*
X90424820Y-133855027D01*
X90386073Y-133883586D01*
X90337282Y-133905588D01*
X90273025Y-133921889D01*
X90187879Y-133933342D01*
X90076423Y-133940803D01*
X89933233Y-133945126D01*
X89752887Y-133947166D01*
X89529965Y-133947777D01*
X89396397Y-133947815D01*
X88542986Y-133947815D01*
X88542986Y-132966804D01*
X88822386Y-132966804D01*
X88822506Y-133160365D01*
X88823224Y-133309433D01*
X88825080Y-133420315D01*
X88828609Y-133499318D01*
X88834351Y-133552748D01*
X88842842Y-133586913D01*
X88854621Y-133608120D01*
X88870225Y-133622675D01*
X88878837Y-133628874D01*
X88903877Y-133641469D01*
X88942645Y-133651158D01*
X89001285Y-133658295D01*
X89085943Y-133663235D01*
X89202764Y-133666332D01*
X89357892Y-133667940D01*
X89557474Y-133668414D01*
X89564637Y-133668415D01*
X89760180Y-133668211D01*
X89911304Y-133667282D01*
X90024390Y-133665152D01*
X90105819Y-133661343D01*
X90161971Y-133655380D01*
X90199229Y-133646785D01*
X90223971Y-133635083D01*
X90242579Y-133619795D01*
X90244786Y-133617615D01*
X90260729Y-133599092D01*
X90272942Y-133575155D01*
X90281919Y-133539331D01*
X90288156Y-133485148D01*
X90292146Y-133406131D01*
X90294385Y-133295808D01*
X90295366Y-133147707D01*
X90295585Y-132955353D01*
X90295586Y-132952865D01*
X90295217Y-132757150D01*
X90293846Y-132605950D01*
X90291071Y-132492980D01*
X90286493Y-132411957D01*
X90279712Y-132356600D01*
X90270328Y-132320624D01*
X90257941Y-132297747D01*
X90253549Y-132292465D01*
X90237442Y-132278384D01*
X90213665Y-132267459D01*
X90176163Y-132259295D01*
X90118883Y-132253495D01*
X90035768Y-132249663D01*
X89920766Y-132247403D01*
X89767820Y-132246320D01*
X89570877Y-132246017D01*
X89543242Y-132246015D01*
X89341430Y-132246189D01*
X89184481Y-132246992D01*
X89066460Y-132248844D01*
X88981432Y-132252165D01*
X88923462Y-132257374D01*
X88886612Y-132264891D01*
X88864949Y-132275137D01*
X88852535Y-132288531D01*
X88848679Y-132295145D01*
X88840124Y-132336999D01*
X88833039Y-132424944D01*
X88827607Y-132554286D01*
X88824014Y-132720330D01*
X88822442Y-132918384D01*
X88822386Y-132966804D01*
X88542986Y-132966804D01*
X88542986Y-131280815D01*
X88822386Y-131280815D01*
X88822386Y-131941215D01*
X88822386Y-131941215D01*
G37*
X88822386Y-131941215D02*
X89525566Y-131941215D01*
X89734389Y-131941414D01*
X89898919Y-131942298D01*
X90025662Y-131944291D01*
X90121123Y-131947820D01*
X90191810Y-131953311D01*
X90244229Y-131961189D01*
X90284885Y-131971881D01*
X90320284Y-131985812D01*
X90338725Y-131994454D01*
X90451944Y-132076036D01*
X90512987Y-132157385D01*
X90577270Y-132267077D01*
X90569778Y-132976126D01*
X90562286Y-133685176D01*
X90493869Y-133774821D01*
X90458944Y-133819057D01*
X90424820Y-133855027D01*
X90386073Y-133883586D01*
X90337282Y-133905588D01*
X90273025Y-133921889D01*
X90187879Y-133933342D01*
X90076423Y-133940803D01*
X89933233Y-133945126D01*
X89752887Y-133947166D01*
X89529965Y-133947777D01*
X89396397Y-133947815D01*
X88542986Y-133947815D01*
X88542986Y-132966804D01*
X88822386Y-132966804D01*
X88822506Y-133160365D01*
X88823224Y-133309433D01*
X88825080Y-133420315D01*
X88828609Y-133499318D01*
X88834351Y-133552748D01*
X88842842Y-133586913D01*
X88854621Y-133608120D01*
X88870225Y-133622675D01*
X88878837Y-133628874D01*
X88903877Y-133641469D01*
X88942645Y-133651158D01*
X89001285Y-133658295D01*
X89085943Y-133663235D01*
X89202764Y-133666332D01*
X89357892Y-133667940D01*
X89557474Y-133668414D01*
X89564637Y-133668415D01*
X89760180Y-133668211D01*
X89911304Y-133667282D01*
X90024390Y-133665152D01*
X90105819Y-133661343D01*
X90161971Y-133655380D01*
X90199229Y-133646785D01*
X90223971Y-133635083D01*
X90242579Y-133619795D01*
X90244786Y-133617615D01*
X90260729Y-133599092D01*
X90272942Y-133575155D01*
X90281919Y-133539331D01*
X90288156Y-133485148D01*
X90292146Y-133406131D01*
X90294385Y-133295808D01*
X90295366Y-133147707D01*
X90295585Y-132955353D01*
X90295586Y-132952865D01*
X90295217Y-132757150D01*
X90293846Y-132605950D01*
X90291071Y-132492980D01*
X90286493Y-132411957D01*
X90279712Y-132356600D01*
X90270328Y-132320624D01*
X90257941Y-132297747D01*
X90253549Y-132292465D01*
X90237442Y-132278384D01*
X90213665Y-132267459D01*
X90176163Y-132259295D01*
X90118883Y-132253495D01*
X90035768Y-132249663D01*
X89920766Y-132247403D01*
X89767820Y-132246320D01*
X89570877Y-132246017D01*
X89543242Y-132246015D01*
X89341430Y-132246189D01*
X89184481Y-132246992D01*
X89066460Y-132248844D01*
X88981432Y-132252165D01*
X88923462Y-132257374D01*
X88886612Y-132264891D01*
X88864949Y-132275137D01*
X88852535Y-132288531D01*
X88848679Y-132295145D01*
X88840124Y-132336999D01*
X88833039Y-132424944D01*
X88827607Y-132554286D01*
X88824014Y-132720330D01*
X88822442Y-132918384D01*
X88822386Y-132966804D01*
X88542986Y-132966804D01*
X88542986Y-131280815D01*
X88822386Y-131280815D01*
X88822386Y-131941215D01*
G36*
X92047066Y-131941824D02*
X92206719Y-131942660D01*
X92328978Y-131944728D01*
X92420546Y-131948480D01*
X92488123Y-131954364D01*
X92538414Y-131962832D01*
X92578121Y-131974332D01*
X92613945Y-131989315D01*
X92624189Y-131994195D01*
X92704996Y-132044863D01*
X92774712Y-132107502D01*
X92790958Y-132127545D01*
X92807463Y-132152036D01*
X92820451Y-132177932D01*
X92830344Y-132211267D01*
X92837563Y-132258074D01*
X92842529Y-132324385D01*
X92845663Y-132416234D01*
X92847386Y-132539654D01*
X92848119Y-132700677D01*
X92848284Y-132905338D01*
X92848286Y-132949002D01*
X92848136Y-133163015D01*
X92847429Y-133332192D01*
X92845780Y-133462499D01*
X92842805Y-133559899D01*
X92838118Y-133630357D01*
X92831335Y-133679836D01*
X92822069Y-133714303D01*
X92809936Y-133739720D01*
X92795916Y-133760232D01*
X92735437Y-133828046D01*
X92673456Y-133882745D01*
X92650687Y-133898003D01*
X92623896Y-133910053D01*
X92587056Y-133919334D01*
X92534142Y-133926286D01*
X92459131Y-133931349D01*
X92355996Y-133934963D01*
X92218714Y-133937568D01*
X92041258Y-133939604D01*
X91874925Y-133941049D01*
X91648357Y-133942350D01*
X91467355Y-133942043D01*
X91326707Y-133939942D01*
X91221200Y-133935864D01*
X91145621Y-133929625D01*
X91094757Y-133921043D01*
X91069026Y-133912665D01*
X90977381Y-133851338D01*
X90898723Y-133762254D01*
X90848474Y-133664154D01*
X90841273Y-133635917D01*
X90837485Y-133588931D01*
X90834636Y-133498870D01*
X90832801Y-133373452D01*
X90832056Y-133220394D01*
X90832476Y-133047413D01*
X90833268Y-132955545D01*
X91108386Y-132955545D01*
X91108601Y-133147980D01*
X91109578Y-133296106D01*
X91111816Y-133406412D01*
X91115812Y-133485386D01*
X91122064Y-133539520D01*
X91131071Y-133575301D01*
X91143329Y-133599220D01*
X91159186Y-133617615D01*
X91177393Y-133633319D01*
X91200913Y-133645410D01*
X91236092Y-133654358D01*
X91289278Y-133660634D01*
X91366820Y-133664706D01*
X91475065Y-133667047D01*
X91620361Y-133668125D01*
X91809056Y-133668411D01*
X91844986Y-133668415D01*
X92041491Y-133668214D01*
X92193545Y-133667300D01*
X92307495Y-133665201D01*
X92389689Y-133661449D01*
X92446476Y-133655571D01*
X92484202Y-133647099D01*
X92509216Y-133635561D01*
X92527865Y-133620489D01*
X92530786Y-133617615D01*
X92546729Y-133599092D01*
X92558942Y-133575155D01*
X92567919Y-133539331D01*
X92574156Y-133485148D01*
X92578146Y-133406131D01*
X92580385Y-133295808D01*
X92581366Y-133147707D01*
X92581585Y-132955353D01*
X92581586Y-132952865D01*
X92581217Y-132757150D01*
X92579846Y-132605950D01*
X92577071Y-132492980D01*
X92572493Y-132411957D01*
X92565712Y-132356600D01*
X92556328Y-132320624D01*
X92543941Y-132297747D01*
X92539549Y-132292465D01*
X92523442Y-132278384D01*
X92499665Y-132267459D01*
X92462163Y-132259295D01*
X92404883Y-132253495D01*
X92321768Y-132249663D01*
X92206766Y-132247403D01*
X92053820Y-132246320D01*
X91856877Y-132246017D01*
X91829242Y-132246015D01*
X91627430Y-132246189D01*
X91470481Y-132246992D01*
X91352460Y-132248844D01*
X91267432Y-132252165D01*
X91209462Y-132257374D01*
X91172612Y-132264891D01*
X91150949Y-132275137D01*
X91138535Y-132288531D01*
X91134679Y-132295145D01*
X91126080Y-132337061D01*
X91118963Y-132424921D01*
X91113519Y-132553885D01*
X91109943Y-132719113D01*
X91108425Y-132915767D01*
X91108386Y-132955545D01*
X90833268Y-132955545D01*
X90833912Y-132881015D01*
X90836365Y-132678651D01*
X90838879Y-132520648D01*
X90842036Y-132400571D01*
X90846420Y-132311983D01*
X90852613Y-132248448D01*
X90861201Y-132203531D01*
X90872765Y-132170796D01*
X90887889Y-132143806D01*
X90902673Y-132122405D01*
X90941494Y-132072255D01*
X90982610Y-132032343D01*
X91032085Y-132001503D01*
X91095984Y-131978571D01*
X91180371Y-131962382D01*
X91291310Y-131951773D01*
X91434867Y-131945578D01*
X91617105Y-131942632D01*
X91843316Y-131941772D01*
X92047066Y-131941824D01*
X92047066Y-131941824D01*
G37*
X92047066Y-131941824D02*
X92206719Y-131942660D01*
X92328978Y-131944728D01*
X92420546Y-131948480D01*
X92488123Y-131954364D01*
X92538414Y-131962832D01*
X92578121Y-131974332D01*
X92613945Y-131989315D01*
X92624189Y-131994195D01*
X92704996Y-132044863D01*
X92774712Y-132107502D01*
X92790958Y-132127545D01*
X92807463Y-132152036D01*
X92820451Y-132177932D01*
X92830344Y-132211267D01*
X92837563Y-132258074D01*
X92842529Y-132324385D01*
X92845663Y-132416234D01*
X92847386Y-132539654D01*
X92848119Y-132700677D01*
X92848284Y-132905338D01*
X92848286Y-132949002D01*
X92848136Y-133163015D01*
X92847429Y-133332192D01*
X92845780Y-133462499D01*
X92842805Y-133559899D01*
X92838118Y-133630357D01*
X92831335Y-133679836D01*
X92822069Y-133714303D01*
X92809936Y-133739720D01*
X92795916Y-133760232D01*
X92735437Y-133828046D01*
X92673456Y-133882745D01*
X92650687Y-133898003D01*
X92623896Y-133910053D01*
X92587056Y-133919334D01*
X92534142Y-133926286D01*
X92459131Y-133931349D01*
X92355996Y-133934963D01*
X92218714Y-133937568D01*
X92041258Y-133939604D01*
X91874925Y-133941049D01*
X91648357Y-133942350D01*
X91467355Y-133942043D01*
X91326707Y-133939942D01*
X91221200Y-133935864D01*
X91145621Y-133929625D01*
X91094757Y-133921043D01*
X91069026Y-133912665D01*
X90977381Y-133851338D01*
X90898723Y-133762254D01*
X90848474Y-133664154D01*
X90841273Y-133635917D01*
X90837485Y-133588931D01*
X90834636Y-133498870D01*
X90832801Y-133373452D01*
X90832056Y-133220394D01*
X90832476Y-133047413D01*
X90833268Y-132955545D01*
X91108386Y-132955545D01*
X91108601Y-133147980D01*
X91109578Y-133296106D01*
X91111816Y-133406412D01*
X91115812Y-133485386D01*
X91122064Y-133539520D01*
X91131071Y-133575301D01*
X91143329Y-133599220D01*
X91159186Y-133617615D01*
X91177393Y-133633319D01*
X91200913Y-133645410D01*
X91236092Y-133654358D01*
X91289278Y-133660634D01*
X91366820Y-133664706D01*
X91475065Y-133667047D01*
X91620361Y-133668125D01*
X91809056Y-133668411D01*
X91844986Y-133668415D01*
X92041491Y-133668214D01*
X92193545Y-133667300D01*
X92307495Y-133665201D01*
X92389689Y-133661449D01*
X92446476Y-133655571D01*
X92484202Y-133647099D01*
X92509216Y-133635561D01*
X92527865Y-133620489D01*
X92530786Y-133617615D01*
X92546729Y-133599092D01*
X92558942Y-133575155D01*
X92567919Y-133539331D01*
X92574156Y-133485148D01*
X92578146Y-133406131D01*
X92580385Y-133295808D01*
X92581366Y-133147707D01*
X92581585Y-132955353D01*
X92581586Y-132952865D01*
X92581217Y-132757150D01*
X92579846Y-132605950D01*
X92577071Y-132492980D01*
X92572493Y-132411957D01*
X92565712Y-132356600D01*
X92556328Y-132320624D01*
X92543941Y-132297747D01*
X92539549Y-132292465D01*
X92523442Y-132278384D01*
X92499665Y-132267459D01*
X92462163Y-132259295D01*
X92404883Y-132253495D01*
X92321768Y-132249663D01*
X92206766Y-132247403D01*
X92053820Y-132246320D01*
X91856877Y-132246017D01*
X91829242Y-132246015D01*
X91627430Y-132246189D01*
X91470481Y-132246992D01*
X91352460Y-132248844D01*
X91267432Y-132252165D01*
X91209462Y-132257374D01*
X91172612Y-132264891D01*
X91150949Y-132275137D01*
X91138535Y-132288531D01*
X91134679Y-132295145D01*
X91126080Y-132337061D01*
X91118963Y-132424921D01*
X91113519Y-132553885D01*
X91109943Y-132719113D01*
X91108425Y-132915767D01*
X91108386Y-132955545D01*
X90833268Y-132955545D01*
X90833912Y-132881015D01*
X90836365Y-132678651D01*
X90838879Y-132520648D01*
X90842036Y-132400571D01*
X90846420Y-132311983D01*
X90852613Y-132248448D01*
X90861201Y-132203531D01*
X90872765Y-132170796D01*
X90887889Y-132143806D01*
X90902673Y-132122405D01*
X90941494Y-132072255D01*
X90982610Y-132032343D01*
X91032085Y-132001503D01*
X91095984Y-131978571D01*
X91180371Y-131962382D01*
X91291310Y-131951773D01*
X91434867Y-131945578D01*
X91617105Y-131942632D01*
X91843316Y-131941772D01*
X92047066Y-131941824D01*
G36*
X93419786Y-131941215D02*
X93852853Y-131941214D01*
X94285921Y-131941214D01*
X94278303Y-132087264D01*
X94270686Y-132233315D01*
X93419786Y-132247243D01*
X93419786Y-132918288D01*
X93419886Y-133120099D01*
X93420509Y-133277156D01*
X93422134Y-133395507D01*
X93425242Y-133481198D01*
X93430313Y-133540276D01*
X93437827Y-133578788D01*
X93448266Y-133602780D01*
X93462108Y-133618299D01*
X93476237Y-133628874D01*
X93509839Y-133645104D01*
X93561990Y-133656433D01*
X93640771Y-133663601D01*
X93754263Y-133667348D01*
X93908037Y-133668415D01*
X94283386Y-133668415D01*
X94283386Y-133947815D01*
X93870636Y-133946204D01*
X93726192Y-133944134D01*
X93595601Y-133939463D01*
X93489115Y-133932771D01*
X93416988Y-133924638D01*
X93394399Y-133919279D01*
X93328365Y-133882609D01*
X93271335Y-133838339D01*
X93241636Y-133810217D01*
X93216805Y-133783074D01*
X93196407Y-133752337D01*
X93180004Y-133713430D01*
X93167163Y-133661779D01*
X93157446Y-133592809D01*
X93150420Y-133501945D01*
X93145647Y-133384614D01*
X93142693Y-133236240D01*
X93141122Y-133052249D01*
X93140497Y-132828066D01*
X93140385Y-132559117D01*
X93140386Y-132463176D01*
X93140386Y-131280815D01*
X93419786Y-131280815D01*
X93419786Y-131941215D01*
X93419786Y-131941215D01*
G37*
X93419786Y-131941215D02*
X93852853Y-131941214D01*
X94285921Y-131941214D01*
X94278303Y-132087264D01*
X94270686Y-132233315D01*
X93419786Y-132247243D01*
X93419786Y-132918288D01*
X93419886Y-133120099D01*
X93420509Y-133277156D01*
X93422134Y-133395507D01*
X93425242Y-133481198D01*
X93430313Y-133540276D01*
X93437827Y-133578788D01*
X93448266Y-133602780D01*
X93462108Y-133618299D01*
X93476237Y-133628874D01*
X93509839Y-133645104D01*
X93561990Y-133656433D01*
X93640771Y-133663601D01*
X93754263Y-133667348D01*
X93908037Y-133668415D01*
X94283386Y-133668415D01*
X94283386Y-133947815D01*
X93870636Y-133946204D01*
X93726192Y-133944134D01*
X93595601Y-133939463D01*
X93489115Y-133932771D01*
X93416988Y-133924638D01*
X93394399Y-133919279D01*
X93328365Y-133882609D01*
X93271335Y-133838339D01*
X93241636Y-133810217D01*
X93216805Y-133783074D01*
X93196407Y-133752337D01*
X93180004Y-133713430D01*
X93167163Y-133661779D01*
X93157446Y-133592809D01*
X93150420Y-133501945D01*
X93145647Y-133384614D01*
X93142693Y-133236240D01*
X93141122Y-133052249D01*
X93140497Y-132828066D01*
X93140385Y-132559117D01*
X93140386Y-132463176D01*
X93140386Y-131280815D01*
X93419786Y-131280815D01*
X93419786Y-131941215D01*
G36*
X95760465Y-131942286D02*
X95945755Y-131945387D01*
X96095667Y-131950349D01*
X96205581Y-131957002D01*
X96270879Y-131965177D01*
X96281982Y-131968230D01*
X96383125Y-132027212D01*
X96471935Y-132116139D01*
X96537348Y-132220437D01*
X96568299Y-132325531D01*
X96569386Y-132346799D01*
X96564036Y-132375600D01*
X96540216Y-132391162D01*
X96486267Y-132397433D01*
X96416986Y-132398415D01*
X96331141Y-132396252D01*
X96284760Y-132387516D01*
X96266608Y-132368838D01*
X96264586Y-132352695D01*
X96262259Y-132321644D01*
X96251634Y-132297273D01*
X96227240Y-132278777D01*
X96183610Y-132265349D01*
X96115274Y-132256183D01*
X96016763Y-132250474D01*
X95882609Y-132247415D01*
X95707342Y-132246200D01*
X95540686Y-132246014D01*
X95319510Y-132246765D01*
X95145421Y-132249126D01*
X95014727Y-132253259D01*
X94923735Y-132259326D01*
X94868752Y-132267490D01*
X94847266Y-132276494D01*
X94828811Y-132321429D01*
X94818176Y-132400890D01*
X94815059Y-132499257D01*
X94819157Y-132600912D01*
X94830168Y-132690234D01*
X94847792Y-132751604D01*
X94856700Y-132764900D01*
X94874869Y-132777106D01*
X94905912Y-132786599D01*
X94955642Y-132793704D01*
X95029871Y-132798744D01*
X95134414Y-132802045D01*
X95275081Y-132803930D01*
X95457688Y-132804725D01*
X95572018Y-132804814D01*
X95774629Y-132804910D01*
X95933039Y-132805550D01*
X96053847Y-132807267D01*
X96143653Y-132810593D01*
X96209056Y-132816061D01*
X96256656Y-132824201D01*
X96293051Y-132835547D01*
X96324840Y-132850630D01*
X96355164Y-132867955D01*
X96448115Y-132938647D01*
X96512186Y-133029005D01*
X96550839Y-133147286D01*
X96567530Y-133301747D01*
X96568828Y-133377984D01*
X96559114Y-133552192D01*
X96529002Y-133686688D01*
X96475588Y-133789452D01*
X96395965Y-133868465D01*
X96388195Y-133874127D01*
X96362452Y-133891722D01*
X96336158Y-133905622D01*
X96303235Y-133916332D01*
X96257601Y-133924358D01*
X96193176Y-133930206D01*
X96103881Y-133934379D01*
X95983635Y-133937384D01*
X95826358Y-133939726D01*
X95625970Y-133941910D01*
X95565064Y-133942524D01*
X95352321Y-133944580D01*
X95184285Y-133945731D01*
X95054867Y-133945598D01*
X94957976Y-133943800D01*
X94887522Y-133939959D01*
X94837417Y-133933695D01*
X94801569Y-133924628D01*
X94773889Y-133912379D01*
X94748287Y-133896569D01*
X94740169Y-133891120D01*
X94642667Y-133805565D01*
X94572556Y-133704153D01*
X94538994Y-133601129D01*
X94537386Y-133575758D01*
X94537386Y-133490615D01*
X94677086Y-133490615D01*
X94757990Y-133492906D01*
X94800132Y-133502595D01*
X94815452Y-133523897D01*
X94816786Y-133539974D01*
X94836244Y-133590811D01*
X94873237Y-133628874D01*
X94918408Y-133642825D01*
X95004581Y-133654144D01*
X95123144Y-133662831D01*
X95265486Y-133668890D01*
X95422996Y-133672324D01*
X95587060Y-133673134D01*
X95749069Y-133671322D01*
X95900409Y-133666892D01*
X96032470Y-133659846D01*
X96136639Y-133650185D01*
X96204305Y-133637913D01*
X96224671Y-133628500D01*
X96246251Y-133591585D01*
X96258909Y-133527433D01*
X96264191Y-133426260D01*
X96264586Y-133375940D01*
X96264813Y-133293373D01*
X96261958Y-133228035D01*
X96250708Y-133177913D01*
X96225757Y-133140998D01*
X96181793Y-133115278D01*
X96113508Y-133098742D01*
X96015591Y-133089379D01*
X95882735Y-133085177D01*
X95709629Y-133084126D01*
X95494423Y-133084215D01*
X95274597Y-133083680D01*
X95099400Y-133081325D01*
X94962667Y-133076027D01*
X94858230Y-133066660D01*
X94779923Y-133052100D01*
X94721581Y-133031222D01*
X94677036Y-133002903D01*
X94640124Y-132966017D01*
X94606735Y-132922333D01*
X94581989Y-132882017D01*
X94565020Y-132835768D01*
X94553976Y-132772611D01*
X94547002Y-132681567D01*
X94542247Y-132551659D01*
X94541876Y-132538115D01*
X94539051Y-132407117D01*
X94539866Y-132315666D01*
X94545774Y-132252553D01*
X94558226Y-132206573D01*
X94578675Y-132166518D01*
X94592881Y-132144415D01*
X94653228Y-132077712D01*
X94734370Y-132015912D01*
X94765223Y-131998364D01*
X94801508Y-131981062D01*
X94838006Y-131967654D01*
X94881471Y-131957645D01*
X94938658Y-131950540D01*
X95016321Y-131945842D01*
X95121217Y-131943058D01*
X95260099Y-131941691D01*
X95439723Y-131941246D01*
X95544414Y-131941214D01*
X95760465Y-131942286D01*
X95760465Y-131942286D01*
G37*
X95760465Y-131942286D02*
X95945755Y-131945387D01*
X96095667Y-131950349D01*
X96205581Y-131957002D01*
X96270879Y-131965177D01*
X96281982Y-131968230D01*
X96383125Y-132027212D01*
X96471935Y-132116139D01*
X96537348Y-132220437D01*
X96568299Y-132325531D01*
X96569386Y-132346799D01*
X96564036Y-132375600D01*
X96540216Y-132391162D01*
X96486267Y-132397433D01*
X96416986Y-132398415D01*
X96331141Y-132396252D01*
X96284760Y-132387516D01*
X96266608Y-132368838D01*
X96264586Y-132352695D01*
X96262259Y-132321644D01*
X96251634Y-132297273D01*
X96227240Y-132278777D01*
X96183610Y-132265349D01*
X96115274Y-132256183D01*
X96016763Y-132250474D01*
X95882609Y-132247415D01*
X95707342Y-132246200D01*
X95540686Y-132246014D01*
X95319510Y-132246765D01*
X95145421Y-132249126D01*
X95014727Y-132253259D01*
X94923735Y-132259326D01*
X94868752Y-132267490D01*
X94847266Y-132276494D01*
X94828811Y-132321429D01*
X94818176Y-132400890D01*
X94815059Y-132499257D01*
X94819157Y-132600912D01*
X94830168Y-132690234D01*
X94847792Y-132751604D01*
X94856700Y-132764900D01*
X94874869Y-132777106D01*
X94905912Y-132786599D01*
X94955642Y-132793704D01*
X95029871Y-132798744D01*
X95134414Y-132802045D01*
X95275081Y-132803930D01*
X95457688Y-132804725D01*
X95572018Y-132804814D01*
X95774629Y-132804910D01*
X95933039Y-132805550D01*
X96053847Y-132807267D01*
X96143653Y-132810593D01*
X96209056Y-132816061D01*
X96256656Y-132824201D01*
X96293051Y-132835547D01*
X96324840Y-132850630D01*
X96355164Y-132867955D01*
X96448115Y-132938647D01*
X96512186Y-133029005D01*
X96550839Y-133147286D01*
X96567530Y-133301747D01*
X96568828Y-133377984D01*
X96559114Y-133552192D01*
X96529002Y-133686688D01*
X96475588Y-133789452D01*
X96395965Y-133868465D01*
X96388195Y-133874127D01*
X96362452Y-133891722D01*
X96336158Y-133905622D01*
X96303235Y-133916332D01*
X96257601Y-133924358D01*
X96193176Y-133930206D01*
X96103881Y-133934379D01*
X95983635Y-133937384D01*
X95826358Y-133939726D01*
X95625970Y-133941910D01*
X95565064Y-133942524D01*
X95352321Y-133944580D01*
X95184285Y-133945731D01*
X95054867Y-133945598D01*
X94957976Y-133943800D01*
X94887522Y-133939959D01*
X94837417Y-133933695D01*
X94801569Y-133924628D01*
X94773889Y-133912379D01*
X94748287Y-133896569D01*
X94740169Y-133891120D01*
X94642667Y-133805565D01*
X94572556Y-133704153D01*
X94538994Y-133601129D01*
X94537386Y-133575758D01*
X94537386Y-133490615D01*
X94677086Y-133490615D01*
X94757990Y-133492906D01*
X94800132Y-133502595D01*
X94815452Y-133523897D01*
X94816786Y-133539974D01*
X94836244Y-133590811D01*
X94873237Y-133628874D01*
X94918408Y-133642825D01*
X95004581Y-133654144D01*
X95123144Y-133662831D01*
X95265486Y-133668890D01*
X95422996Y-133672324D01*
X95587060Y-133673134D01*
X95749069Y-133671322D01*
X95900409Y-133666892D01*
X96032470Y-133659846D01*
X96136639Y-133650185D01*
X96204305Y-133637913D01*
X96224671Y-133628500D01*
X96246251Y-133591585D01*
X96258909Y-133527433D01*
X96264191Y-133426260D01*
X96264586Y-133375940D01*
X96264813Y-133293373D01*
X96261958Y-133228035D01*
X96250708Y-133177913D01*
X96225757Y-133140998D01*
X96181793Y-133115278D01*
X96113508Y-133098742D01*
X96015591Y-133089379D01*
X95882735Y-133085177D01*
X95709629Y-133084126D01*
X95494423Y-133084215D01*
X95274597Y-133083680D01*
X95099400Y-133081325D01*
X94962667Y-133076027D01*
X94858230Y-133066660D01*
X94779923Y-133052100D01*
X94721581Y-133031222D01*
X94677036Y-133002903D01*
X94640124Y-132966017D01*
X94606735Y-132922333D01*
X94581989Y-132882017D01*
X94565020Y-132835768D01*
X94553976Y-132772611D01*
X94547002Y-132681567D01*
X94542247Y-132551659D01*
X94541876Y-132538115D01*
X94539051Y-132407117D01*
X94539866Y-132315666D01*
X94545774Y-132252553D01*
X94558226Y-132206573D01*
X94578675Y-132166518D01*
X94592881Y-132144415D01*
X94653228Y-132077712D01*
X94734370Y-132015912D01*
X94765223Y-131998364D01*
X94801508Y-131981062D01*
X94838006Y-131967654D01*
X94881471Y-131957645D01*
X94938658Y-131950540D01*
X95016321Y-131945842D01*
X95121217Y-131943058D01*
X95260099Y-131941691D01*
X95439723Y-131941246D01*
X95544414Y-131941214D01*
X95760465Y-131942286D01*
G36*
X88111186Y-133084215D02*
X87455019Y-133084215D01*
X87277331Y-133083584D01*
X87116600Y-133081810D01*
X86979750Y-133079065D01*
X86873703Y-133075524D01*
X86805381Y-133071361D01*
X86781919Y-133067281D01*
X86772406Y-133034212D01*
X86766263Y-132967633D01*
X86764986Y-132914881D01*
X86764986Y-132779415D01*
X88111186Y-132779415D01*
X88111186Y-133084215D01*
X88111186Y-133084215D01*
G37*
X88111186Y-133084215D02*
X87455019Y-133084215D01*
X87277331Y-133083584D01*
X87116600Y-133081810D01*
X86979750Y-133079065D01*
X86873703Y-133075524D01*
X86805381Y-133071361D01*
X86781919Y-133067281D01*
X86772406Y-133034212D01*
X86766263Y-132967633D01*
X86764986Y-132914881D01*
X86764986Y-132779415D01*
X88111186Y-132779415D01*
X88111186Y-133084215D01*
G36*
X86307786Y-131585615D02*
X86028386Y-131585615D01*
X86028386Y-131280815D01*
X86307786Y-131280815D01*
X86307786Y-131585615D01*
X86307786Y-131585615D01*
G37*
X86307786Y-131585615D02*
X86028386Y-131585615D01*
X86028386Y-131280815D01*
X86307786Y-131280815D01*
X86307786Y-131585615D01*
G36*
X76926877Y-131057431D02*
X76915955Y-131073177D01*
X76913137Y-131075005D01*
X76867458Y-131116786D01*
X76856376Y-131131766D01*
X76839619Y-131146324D01*
X76834033Y-131114069D01*
X76833974Y-131109365D01*
X76847190Y-131064045D01*
X76890736Y-131052603D01*
X76926877Y-131057431D01*
X76926877Y-131057431D01*
G37*
X76926877Y-131057431D02*
X76915955Y-131073177D01*
X76913137Y-131075005D01*
X76867458Y-131116786D01*
X76856376Y-131131766D01*
X76839619Y-131146324D01*
X76834033Y-131114069D01*
X76833974Y-131109365D01*
X76847190Y-131064045D01*
X76890736Y-131052603D01*
X76926877Y-131057431D01*
G36*
X97018237Y-131070175D02*
X97026586Y-131103015D01*
X97024714Y-131142063D01*
X97011907Y-131144386D01*
X96977375Y-131109585D01*
X96969436Y-131100898D01*
X96940083Y-131065295D01*
X96947647Y-131053378D01*
X96975786Y-131052215D01*
X97018237Y-131070175D01*
X97018237Y-131070175D01*
G37*
X97018237Y-131070175D02*
X97026586Y-131103015D01*
X97024714Y-131142063D01*
X97011907Y-131144386D01*
X96977375Y-131109585D01*
X96969436Y-131100898D01*
X96940083Y-131065295D01*
X96947647Y-131053378D01*
X96975786Y-131052215D01*
X97018237Y-131070175D01*
D13*
X68198580Y-80957620D02*
X68198580Y-121717620D01*
X68198580Y-121717620D02*
X73518580Y-121717620D01*
X73518580Y-121717620D02*
X73518580Y-78297620D01*
X73518580Y-78297620D02*
X70858580Y-78297620D01*
X70858580Y-78297620D02*
X70858580Y-80957620D01*
X70858580Y-80957620D02*
X68198580Y-80957620D01*
X68198580Y-79687620D02*
X68198580Y-78297620D01*
X68198580Y-78297620D02*
X69588580Y-78297620D01*
X136838240Y-119044920D02*
X136838240Y-78284920D01*
X136838240Y-78284920D02*
X131518240Y-78284920D01*
X131518240Y-78284920D02*
X131518240Y-121704920D01*
X131518240Y-121704920D02*
X134178240Y-121704920D01*
X134178240Y-121704920D02*
X134178240Y-119044920D01*
X134178240Y-119044920D02*
X136838240Y-119044920D01*
X136838240Y-120314920D02*
X136838240Y-121704920D01*
X136838240Y-121704920D02*
X135448240Y-121704920D01*
X131819200Y-119055080D02*
X131819200Y-78295080D01*
X131819200Y-78295080D02*
X126499200Y-78295080D01*
X126499200Y-78295080D02*
X126499200Y-121715080D01*
X126499200Y-121715080D02*
X129159200Y-121715080D01*
X129159200Y-121715080D02*
X129159200Y-119055080D01*
X129159200Y-119055080D02*
X131819200Y-119055080D01*
X131819200Y-120325080D02*
X131819200Y-121715080D01*
X131819200Y-121715080D02*
X130429200Y-121715080D01*
X101017386Y-135762615D02*
X99817386Y-135762615D01*
X99817386Y-134002615D02*
X101017386Y-134002615D01*
X100337386Y-133842615D02*
X102097386Y-133842615D01*
X102097386Y-130772615D02*
X99667386Y-130772615D01*
D10*
X68698285Y-121471081D02*
X68698285Y-120471081D01*
X69079238Y-120471081D01*
X69174476Y-120518700D01*
X69222095Y-120566319D01*
X69269714Y-120661557D01*
X69269714Y-120804414D01*
X69222095Y-120899652D01*
X69174476Y-120947271D01*
X69079238Y-120994890D01*
X68698285Y-120994890D01*
X69650666Y-120566319D02*
X69698285Y-120518700D01*
X69793523Y-120471081D01*
X70031619Y-120471081D01*
X70126857Y-120518700D01*
X70174476Y-120566319D01*
X70222095Y-120661557D01*
X70222095Y-120756795D01*
X70174476Y-120899652D01*
X69603047Y-121471081D01*
X70222095Y-121471081D01*
X143521334Y-81307143D02*
X143473715Y-81354762D01*
X143330858Y-81402381D01*
X143235620Y-81402381D01*
X143092762Y-81354762D01*
X142997524Y-81259524D01*
X142949905Y-81164286D01*
X142902286Y-80973810D01*
X142902286Y-80830952D01*
X142949905Y-80640476D01*
X142997524Y-80545238D01*
X143092762Y-80450000D01*
X143235620Y-80402381D01*
X143330858Y-80402381D01*
X143473715Y-80450000D01*
X143521334Y-80497619D01*
X144473715Y-81402381D02*
X143902286Y-81402381D01*
X144188000Y-81402381D02*
X144188000Y-80402381D01*
X144092762Y-80545238D01*
X143997524Y-80640476D01*
X143902286Y-80688095D01*
X55891334Y-81370643D02*
X55843715Y-81418262D01*
X55700858Y-81465881D01*
X55605620Y-81465881D01*
X55462762Y-81418262D01*
X55367524Y-81323024D01*
X55319905Y-81227786D01*
X55272286Y-81037310D01*
X55272286Y-80894452D01*
X55319905Y-80703976D01*
X55367524Y-80608738D01*
X55462762Y-80513500D01*
X55605620Y-80465881D01*
X55700858Y-80465881D01*
X55843715Y-80513500D01*
X55891334Y-80561119D01*
X56272286Y-80561119D02*
X56319905Y-80513500D01*
X56415143Y-80465881D01*
X56653239Y-80465881D01*
X56748477Y-80513500D01*
X56796096Y-80561119D01*
X56843715Y-80656357D01*
X56843715Y-80751595D01*
X56796096Y-80894452D01*
X56224667Y-81465881D01*
X56843715Y-81465881D01*
X143172167Y-78973571D02*
X142838833Y-78973571D01*
X142838833Y-79497381D02*
X142838833Y-78497381D01*
X143315024Y-78497381D01*
X144029310Y-78973571D02*
X144172167Y-79021190D01*
X144219786Y-79068810D01*
X144267405Y-79164048D01*
X144267405Y-79306905D01*
X144219786Y-79402143D01*
X144172167Y-79449762D01*
X144076929Y-79497381D01*
X143695976Y-79497381D01*
X143695976Y-78497381D01*
X144029310Y-78497381D01*
X144124548Y-78545000D01*
X144172167Y-78592619D01*
X144219786Y-78687857D01*
X144219786Y-78783095D01*
X144172167Y-78878333D01*
X144124548Y-78925952D01*
X144029310Y-78973571D01*
X143695976Y-78973571D01*
X145219786Y-79497381D02*
X144648357Y-79497381D01*
X144934071Y-79497381D02*
X144934071Y-78497381D01*
X144838833Y-78640238D01*
X144743595Y-78735476D01*
X144648357Y-78783095D01*
X55097667Y-79037071D02*
X54764333Y-79037071D01*
X54764333Y-79560881D02*
X54764333Y-78560881D01*
X55240524Y-78560881D01*
X55954810Y-79037071D02*
X56097667Y-79084690D01*
X56145286Y-79132310D01*
X56192905Y-79227548D01*
X56192905Y-79370405D01*
X56145286Y-79465643D01*
X56097667Y-79513262D01*
X56002429Y-79560881D01*
X55621476Y-79560881D01*
X55621476Y-78560881D01*
X55954810Y-78560881D01*
X56050048Y-78608500D01*
X56097667Y-78656119D01*
X56145286Y-78751357D01*
X56145286Y-78846595D01*
X56097667Y-78941833D01*
X56050048Y-78989452D01*
X55954810Y-79037071D01*
X55621476Y-79037071D01*
X56573857Y-78656119D02*
X56621476Y-78608500D01*
X56716714Y-78560881D01*
X56954810Y-78560881D01*
X57050048Y-78608500D01*
X57097667Y-78656119D01*
X57145286Y-78751357D01*
X57145286Y-78846595D01*
X57097667Y-78989452D01*
X56526238Y-79560881D01*
X57145286Y-79560881D01*
X73803685Y-121471081D02*
X73803685Y-120471081D01*
X74184638Y-120471081D01*
X74279876Y-120518700D01*
X74327495Y-120566319D01*
X74375114Y-120661557D01*
X74375114Y-120804414D01*
X74327495Y-120899652D01*
X74279876Y-120947271D01*
X74184638Y-120994890D01*
X73803685Y-120994890D01*
X75327495Y-121471081D02*
X74756066Y-121471081D01*
X75041780Y-121471081D02*
X75041780Y-120471081D01*
X74946542Y-120613938D01*
X74851304Y-120709176D01*
X74756066Y-120756795D01*
X129756945Y-79436221D02*
X129756945Y-78436221D01*
X130137898Y-78436221D01*
X130233136Y-78483840D01*
X130280755Y-78531459D01*
X130328374Y-78626697D01*
X130328374Y-78769554D01*
X130280755Y-78864792D01*
X130233136Y-78912411D01*
X130137898Y-78960030D01*
X129756945Y-78960030D01*
X130661707Y-78436221D02*
X131280755Y-78436221D01*
X130947421Y-78817173D01*
X131090279Y-78817173D01*
X131185517Y-78864792D01*
X131233136Y-78912411D01*
X131280755Y-79007650D01*
X131280755Y-79245745D01*
X131233136Y-79340983D01*
X131185517Y-79388602D01*
X131090279Y-79436221D01*
X130804564Y-79436221D01*
X130709326Y-79388602D01*
X130661707Y-79340983D01*
X124737905Y-79446381D02*
X124737905Y-78446381D01*
X125118858Y-78446381D01*
X125214096Y-78494000D01*
X125261715Y-78541619D01*
X125309334Y-78636857D01*
X125309334Y-78779714D01*
X125261715Y-78874952D01*
X125214096Y-78922571D01*
X125118858Y-78970190D01*
X124737905Y-78970190D01*
X126166477Y-78779714D02*
X126166477Y-79446381D01*
X125928381Y-78398762D02*
X125690286Y-79113048D01*
X126309334Y-79113048D01*
X98050720Y-135834996D02*
X97717386Y-135358805D01*
X97479291Y-135834996D02*
X97479291Y-134834996D01*
X97860244Y-134834996D01*
X97955482Y-134882615D01*
X98003101Y-134930234D01*
X98050720Y-135025472D01*
X98050720Y-135168329D01*
X98003101Y-135263567D01*
X97955482Y-135311186D01*
X97860244Y-135358805D01*
X97479291Y-135358805D01*
X99003101Y-135834996D02*
X98431672Y-135834996D01*
X98717386Y-135834996D02*
X98717386Y-134834996D01*
X98622148Y-134977853D01*
X98526910Y-135073091D01*
X98431672Y-135120710D01*
X100455481Y-129284996D02*
X100455481Y-130094520D01*
X100503100Y-130189758D01*
X100550719Y-130237377D01*
X100645957Y-130284996D01*
X100836434Y-130284996D01*
X100931672Y-130237377D01*
X100979291Y-130189758D01*
X101026910Y-130094520D01*
X101026910Y-129284996D01*
X102026910Y-130284996D02*
X101455481Y-130284996D01*
X101741195Y-130284996D02*
X101741195Y-129284996D01*
X101645957Y-129427853D01*
X101550719Y-129523091D01*
X101455481Y-129570710D01*
M02*
