M48
;DRILL file {KiCad 4.0.1-stable} date 2017-03-20 10:11:18 AM
;FORMAT={2:4/ absolute / inch / suppress leading zeros}
FMAT,2
INCH,TZ
T1C0.015
T2C0.126
%
G90
G05
M72
T1
X20160Y-57419
X20660Y-57419
X21160Y-57419
X21660Y-57419
X22160Y-57419
X22660Y-57419
X22845Y-31120
X22845Y-31895
X23160Y-57419
X23595Y-31120
X23595Y-31870
X23660Y-57419
X24160Y-57419
X24660Y-57419
X25160Y-57419
X25387Y-47373
X25660Y-57419
X26160Y-57419
X26347Y-33333
X26370Y-37370
X26370Y-34370
X26370Y-39370
X26370Y-40370
X26370Y-41370
X26370Y-35370
X26370Y-36370
X26378Y-47362
X26386Y-32373
X26387Y-38373
X26387Y-42373
X26387Y-44373
X26387Y-45373
X26387Y-46373
X26395Y-43370
X26660Y-57419
X27160Y-57419
X27397Y-31373
X27397Y-47373
X27660Y-57419
X28160Y-57419
X28370Y-34370
X28395Y-31370
X28397Y-32373
X28397Y-33373
X28397Y-35373
X28397Y-36373
X28397Y-37373
X28397Y-38373
X28397Y-39373
X28397Y-40373
X28397Y-41373
X28397Y-42373
X28397Y-43373
X28397Y-44373
X28397Y-45373
X28397Y-46373
X28397Y-47373
X28660Y-57419
X29160Y-57419
X29660Y-57419
X33370Y-57445
X33870Y-57419
X34370Y-57419
X34870Y-57419
X35370Y-57419
X35870Y-57420
X36370Y-57419
X36870Y-57419
X37370Y-57419
X37870Y-57419
X38370Y-57419
X38870Y-57420
X39360Y-57445
X39870Y-57445
X40370Y-57419
X40875Y-57410
X41370Y-57419
X41870Y-57419
X42370Y-57419
X42870Y-57419
X43370Y-57419
X44370Y-57419
X44870Y-57410
X44882Y-55354
X45370Y-55470
X45551Y-50630
X45551Y-54882
X45787Y-55472
X46654Y-54882
X46693Y-50669
X48331Y-54075
X49080Y-57419
X49580Y-57419
X50080Y-57419
X50345Y-42370
X50350Y-31372
X50350Y-33372
X50351Y-37372
X50351Y-46372
X50351Y-36372
X50351Y-38372
X50351Y-40372
X50351Y-43372
X50351Y-44372
X50351Y-45372
X50351Y-39372
X50351Y-41372
X50351Y-47372
X50352Y-34386
X50352Y-35386
X50354Y-32364
X50580Y-57419
X51080Y-57419
X51350Y-47372
X51580Y-57419
X52080Y-57419
X52326Y-33368
X52327Y-38368
X52327Y-45368
X52327Y-32368
X52327Y-34368
X52327Y-35368
X52327Y-36368
X52327Y-37368
X52327Y-39368
X52327Y-40368
X52327Y-41368
X52327Y-42368
X52327Y-43368
X52327Y-44368
X52327Y-46368
X52327Y-47368
X52580Y-57419
X53080Y-57419
X53327Y-47368
X53580Y-57419
X54080Y-57419
X54580Y-57419
X55080Y-57419
X55118Y-31890
X55138Y-31102
X55580Y-57419
X55886Y-31102
X55906Y-31890
X56080Y-57419
X56580Y-57419
X57080Y-57419
X57580Y-57419
X58080Y-57419
X58580Y-57419
T2
X20079Y-31890
X20079Y-51969
X58661Y-31890
X58661Y-51969
T0
M30
